# MagicaVoxel @ Ephtracy

# group
o 

# material
mtllib Minecraft.mtl
usemtl palette

# normals
vn -1 0 0
vn 1 0 0
vn 0 0 1
vn 0 0 -1
vn 0 -1 0
vn 0 1 0

# texcoords
vt 0.970703 0.5
vt 0.974609 0.5
vt 0.978516 0.5
vt 0.982422 0.5
vt 0.986328 0.5
vt 0.990234 0.5

# verts
v -1.8 0.1 0.6
v -1.8 0.1 -1.1
v -1.8 0.2 0.6
v -1.8 0.2 0.5
v -1.8 0.2 -1
v -1.8 0.2 -1.1
v -1.8 0.4 0.3
v -1.8 0.4 -0.8
v -1.8 0.5 0.4
v -1.8 0.5 0.3
v -1.8 0.5 0.1
v -1.8 0.5 0
v -1.8 0.5 -0.8
v -1.8 0.5 -0.9
v -1.8 0.6 0.1
v -1.8 0.6 0
v -1.8 0.6 -0.1
v -1.8 0.6 -0.2
v -1.8 0.6 -0.5
v -1.8 0.6 -0.6
v -1.8 0.7 -0.1
v -1.8 0.7 -0.2
v -1.8 0.7 -0.5
v -1.8 0.7 -0.6
v -1.8 0.8 -0.3
v -1.8 0.8 -0.4
v -1.8 0.9 0.4
v -1.8 0.9 0.3
v -1.8 0.9 -0.3
v -1.8 0.9 -0.4
v -1.8 0.9 -0.8
v -1.8 0.9 -0.9
v -1.8 1 0.3
v -1.8 1 -0.8
v -1.8 1.1 0.5
v -1.8 1.1 0.4
v -1.8 1.1 -0.9
v -1.8 1.1 -1
v -1.8 1.2 0.4
v -1.8 1.2 -0.9
v -1.8 1.3 0.6
v -1.8 1.3 -1.1
v -1.7 0 0.6
v -1.7 0 -1.1
v -1.7 0.1 0.7
v -1.7 0.1 0.6
v -1.7 0.1 -1.1
v -1.7 0.1 -1.2
v -1.7 0.2 0.7
v -1.7 0.2 0.6
v -1.7 0.2 -1.1
v -1.7 0.2 -1.2
v -1.7 1.3 0.7
v -1.7 1.3 0.6
v -1.7 1.3 -1.1
v -1.7 1.3 -1.2
v -1.6 0 0.7
v -1.6 0 0.6
v -1.6 0 -1.1
v -1.6 0 -1.2
v -1.6 0.1 0.7
v -1.6 0.1 0.6
v -1.6 0.1 -1.1
v -1.6 0.1 -1.2
v 0.5 0 0.7
v 0.5 0 0.6
v 0.5 0 -1.1
v 0.5 0 -1.2
v 0.5 0.1 0.7
v 0.5 0.1 0.6
v 0.5 0.1 -1.1
v 0.5 0.1 -1.2
v 0.8 0.4 0.6
v 0.8 0.4 0.5
v 0.8 0.4 -1
v 0.8 0.4 -1.1
v 0.8 1.1 0.6
v 0.8 1.1 -1.1
v 0.8 1.3 0.6
v 0.8 1.3 0.5
v 0.8 1.3 -1
v 0.8 1.3 -1.1
v 0.9 0.4 0.5
v 0.9 0.4 0.3
v 0.9 0.4 -0.8
v 0.9 0.4 -1
v 0.9 0.5 0.4
v 0.9 0.5 0.3
v 0.9 0.5 0.1
v 0.9 0.5 0
v 0.9 0.5 -0.6
v 0.9 0.5 -0.7
v 0.9 0.5 -0.8
v 0.9 0.5 -0.9
v 0.9 0.6 0.1
v 0.9 0.6 0
v 0.9 0.6 -0.4
v 0.9 0.6 -0.5
v 0.9 0.6 -0.6
v 0.9 0.6 -0.7
v 0.9 0.7 0.1
v 0.9 0.7 0
v 0.9 0.7 -0.2
v 0.9 0.7 -0.3
v 0.9 0.7 -0.4
v 0.9 0.7 -0.5
v 0.9 0.8 0.1
v 0.9 0.8 0
v 0.9 0.8 -0.2
v 0.9 0.8 -0.3
v 0.9 0.8 -0.5
v 0.9 0.8 -0.6
v 0.9 0.9 0.4
v 0.9 0.9 0.3
v 0.9 0.9 -0.5
v 0.9 0.9 -0.6
v 0.9 0.9 -0.8
v 0.9 0.9 -0.9
v 0.9 1 0.3
v 0.9 1 -0.8
v 0.9 1.1 0.5
v 0.9 1.1 0.4
v 0.9 1.1 -0.9
v 0.9 1.1 -1
v 0.9 1.2 0.4
v 0.9 1.2 -0.9
v 0.9 1.3 0.5
v 0.9 1.3 -1
v -1.7 0.4 0.5
v -1.7 0.4 0.3
v -1.7 0.4 -0.8
v -1.7 0.4 -1
v -1.7 0.5 0.4
v -1.7 0.5 0.3
v -1.7 0.5 0.1
v -1.7 0.5 0
v -1.7 0.5 -0.8
v -1.7 0.5 -0.9
v -1.7 0.6 0.1
v -1.7 0.6 0
v -1.7 0.6 -0.1
v -1.7 0.6 -0.2
v -1.7 0.6 -0.5
v -1.7 0.6 -0.6
v -1.7 0.7 -0.1
v -1.7 0.7 -0.2
v -1.7 0.7 -0.5
v -1.7 0.7 -0.6
v -1.7 0.8 -0.3
v -1.7 0.8 -0.4
v -1.7 0.9 0.4
v -1.7 0.9 0.3
v -1.7 0.9 -0.3
v -1.7 0.9 -0.4
v -1.7 0.9 -0.8
v -1.7 0.9 -0.9
v -1.7 1 0.3
v -1.7 1 -0.8
v -1.7 1.1 0.5
v -1.7 1.1 0.4
v -1.7 1.1 -0.9
v -1.7 1.1 -1
v -1.7 1.2 0.4
v -1.7 1.2 -0.9
v -1.7 1.3 0.5
v -1.7 1.3 -1
v -1.6 0.4 0.6
v -1.6 0.4 0.5
v -1.6 0.4 -1
v -1.6 0.4 -1.1
v -1.6 1.1 0.6
v -1.6 1.1 -1.1
v -1.6 1.3 0.6
v -1.6 1.3 0.5
v -1.6 1.3 -1
v -1.6 1.3 -1.1
v -1.3 0 0.7
v -1.3 0 0.6
v -1.3 0 -1.1
v -1.3 0 -1.2
v -1.3 0.1 0.7
v -1.3 0.1 0.6
v -1.3 0.1 -1.1
v -1.3 0.1 -1.2
v 0.8 0 0.7
v 0.8 0 0.6
v 0.8 0 -1.1
v 0.8 0 -1.2
v 0.8 0.1 0.7
v 0.8 0.1 0.6
v 0.8 0.1 -1.1
v 0.8 0.1 -1.2
v 0.9 0 0.6
v 0.9 0 -1.1
v 0.9 0.1 0.7
v 0.9 0.1 0.6
v 0.9 0.1 -1.1
v 0.9 0.1 -1.2
v 0.9 0.2 0.7
v 0.9 0.2 0.6
v 0.9 0.2 -1.1
v 0.9 0.2 -1.2
v 0.9 1.3 0.7
v 0.9 1.3 0.6
v 0.9 1.3 -1.1
v 0.9 1.3 -1.2
v 1 0.1 0.6
v 1 0.1 -1.1
v 1 0.2 0.6
v 1 0.2 0.5
v 1 0.2 -1
v 1 0.2 -1.1
v 1 0.4 0.3
v 1 0.4 -0.8
v 1 0.5 0.4
v 1 0.5 0.3
v 1 0.5 0.1
v 1 0.5 0
v 1 0.5 -0.6
v 1 0.5 -0.7
v 1 0.5 -0.8
v 1 0.5 -0.9
v 1 0.6 0.1
v 1 0.6 0
v 1 0.6 -0.4
v 1 0.6 -0.5
v 1 0.6 -0.6
v 1 0.6 -0.7
v 1 0.7 0.1
v 1 0.7 0
v 1 0.7 -0.2
v 1 0.7 -0.3
v 1 0.7 -0.4
v 1 0.7 -0.5
v 1 0.8 0.1
v 1 0.8 0
v 1 0.8 -0.2
v 1 0.8 -0.3
v 1 0.8 -0.5
v 1 0.8 -0.6
v 1 0.9 0.4
v 1 0.9 0.3
v 1 0.9 -0.5
v 1 0.9 -0.6
v 1 0.9 -0.8
v 1 0.9 -0.9
v 1 1 0.3
v 1 1 -0.8
v 1 1.1 0.5
v 1 1.1 0.4
v 1 1.1 -0.9
v 1 1.1 -1
v 1 1.2 0.4
v 1 1.2 -0.9
v 1 1.3 0.6
v 1 1.3 -1.1
v -1.7 0.1 0.7
v -1.7 0.2 0.7
v -1.7 1.3 0.7
v -1.6 0 0.7
v -1.6 0.1 0.7
v -1.6 0.2 0.7
v -1.6 1.1 0.7
v -1.5 1.1 0.7
v -1.5 1.2 0.7
v -1.4 0.5 0.7
v -1.4 0.9 0.7
v -1.3 0 0.7
v -1.3 0.1 0.7
v -1.3 0.4 0.7
v -1.3 0.5 0.7
v -1.3 0.9 0.7
v -1.3 1 0.7
v -1.1 0.5 0.7
v -1.1 0.6 0.7
v -1 0.5 0.7
v -1 0.6 0.7
v -0.9 0.8 0.7
v -0.9 0.9 0.7
v -0.8 0.6 0.7
v -0.8 0.7 0.7
v -0.8 0.8 0.7
v -0.8 0.9 0.7
v -0.7 0.6 0.7
v -0.7 0.7 0.7
v -0.6 0.4 0.7
v -0.6 0.5 0.7
v -0.6 0.9 0.7
v -0.6 1 0.7
v -0.5 0.5 0.7
v -0.5 0.9 0.7
v -0.3 0.5 0.7
v -0.3 0.9 0.7
v -0.2 0.4 0.7
v -0.2 0.5 0.7
v -0.2 0.7 0.7
v -0.2 0.8 0.7
v -0.2 0.9 0.7
v -0.2 1 0.7
v -0.1 0.7 0.7
v -0.1 0.8 0.7
v -1.19209e-07 0.5 0.7
v -1.19209e-07 0.6 0.7
v 0.0999999 0.5 0.7
v 0.0999999 0.6 0.7
v 0.0999999 0.8 0.7
v 0.0999999 0.9 0.7
v 0.2 0.8 0.7
v 0.2 0.9 0.7
v 0.5 0 0.7
v 0.5 0.1 0.7
v 0.5 0.4 0.7
v 0.5 0.5 0.7
v 0.5 0.9 0.7
v 0.5 1 0.7
v 0.6 0.5 0.7
v 0.6 0.9 0.7
v 0.7 1.1 0.7
v 0.7 1.2 0.7
v 0.8 0 0.7
v 0.8 0.1 0.7
v 0.8 0.2 0.7
v 0.8 1.1 0.7
v 0.9 0.1 0.7
v 0.9 0.2 0.7
v 0.9 1.3 0.7
v -1.8 0.1 0.6
v -1.8 0.2 0.6
v -1.8 1.3 0.6
v -1.7 0 0.6
v -1.7 0.1 0.6
v -1.7 0.2 0.6
v -1.7 1.3 0.6
v -1.6 0 0.6
v -1.6 0.1 0.6
v -1.3 0 0.6
v -1.3 0.1 0.6
v 0.5 0 0.6
v 0.5 0.1 0.6
v 0.8 0 0.6
v 0.8 0.1 0.6
v 0.9 0 0.6
v 0.9 0.1 0.6
v 0.9 0.2 0.6
v 0.9 1.3 0.6
v 1 0.1 0.6
v 1 0.2 0.6
v 1 1.3 0.6
v -1.7 0.4 -1
v -1.7 1.1 -1
v -1.7 1.3 -1
v -1.6 0.4 -1
v -1.6 1.3 -1
v 0.8 0.4 -1
v 0.8 1.3 -1
v 0.9 0.4 -1
v 0.9 1.1 -1
v 0.9 1.3 -1
v -1.6 0.4 -1.1
v -1.6 1.1 -1.1
v -1.6 1.3 -1.1
v -1.5 1.1 -1.1
v -1.5 1.2 -1.1
v -1.4 0.5 -1.1
v -1.4 0.9 -1.1
v -1.3 0.4 -1.1
v -1.3 0.5 -1.1
v -1.3 0.9 -1.1
v -1.3 1 -1.1
v -1.2 0.4 -1.1
v -1.2 0.5 -1.1
v -1.2 0.9 -1.1
v -1.2 1 -1.1
v -1 0.8 -1.1
v -1 0.9 -1.1
v -0.9 0.5 -1.1
v -0.9 0.6 -1.1
v -0.9 0.8 -1.1
v -0.9 0.9 -1.1
v -0.8 0.5 -1.1
v -0.8 0.6 -1.1
v -0.8 0.7 -1.1
v -0.8 0.8 -1.1
v -0.7 0.4 -1.1
v -0.7 0.5 -1.1
v -0.7 0.7 -1.1
v -0.7 0.8 -1.1
v -0.7 0.9 -1.1
v -0.7 1 -1.1
v -0.6 0.5 -1.1
v -0.6 0.9 -1.1
v -0.3 0.5 -1.1
v -0.3 0.9 -1.1
v -0.2 0.4 -1.1
v -0.2 0.5 -1.1
v -0.2 0.6 -1.1
v -0.2 0.9 -1.1
v -0.2 1 -1.1
v -0.1 0.5 -1.1
v -0.1 0.6 -1.1
v -1.19209e-07 0.7 -1.1
v -1.19209e-07 0.8 -1.1
v 0.0999999 0.6 -1.1
v 0.0999999 0.7 -1.1
v 0.0999999 0.8 -1.1
v 0.2 0.6 -1.1
v 0.2 0.7 -1.1
v 0.4 0.4 -1.1
v 0.4 0.5 -1.1
v 0.4 0.9 -1.1
v 0.4 1 -1.1
v 0.5 0.4 -1.1
v 0.5 0.5 -1.1
v 0.5 0.9 -1.1
v 0.5 1 -1.1
v 0.6 0.5 -1.1
v 0.6 0.9 -1.1
v 0.7 1.1 -1.1
v 0.7 1.2 -1.1
v 0.8 0.4 -1.1
v 0.8 1.1 -1.1
v 0.8 1.3 -1.1
v -1.6 0.4 0.6
v -1.6 1.1 0.6
v -1.6 1.3 0.6
v -1.5 1.1 0.6
v -1.5 1.2 0.6
v -1.4 0.5 0.6
v -1.4 0.9 0.6
v -1.3 0.4 0.6
v -1.3 0.5 0.6
v -1.3 0.9 0.6
v -1.3 1 0.6
v -1.1 0.5 0.6
v -1.1 0.6 0.6
v -1 0.5 0.6
v -1 0.6 0.6
v -0.9 0.8 0.6
v -0.9 0.9 0.6
v -0.8 0.6 0.6
v -0.8 0.7 0.6
v -0.8 0.8 0.6
v -0.8 0.9 0.6
v -0.7 0.6 0.6
v -0.7 0.7 0.6
v -0.6 0.4 0.6
v -0.6 0.5 0.6
v -0.6 0.9 0.6
v -0.6 1 0.6
v -0.5 0.5 0.6
v -0.5 0.9 0.6
v -0.3 0.5 0.6
v -0.3 0.9 0.6
v -0.2 0.4 0.6
v -0.2 0.5 0.6
v -0.2 0.7 0.6
v -0.2 0.8 0.6
v -0.2 0.9 0.6
v -0.2 1 0.6
v -0.1 0.7 0.6
v -0.1 0.8 0.6
v -1.19209e-07 0.5 0.6
v -1.19209e-07 0.6 0.6
v 0.0999999 0.5 0.6
v 0.0999999 0.6 0.6
v 0.0999999 0.8 0.6
v 0.0999999 0.9 0.6
v 0.2 0.8 0.6
v 0.2 0.9 0.6
v 0.5 0.4 0.6
v 0.5 0.5 0.6
v 0.5 0.9 0.6
v 0.5 1 0.6
v 0.6 0.5 0.6
v 0.6 0.9 0.6
v 0.7 1.1 0.6
v 0.7 1.2 0.6
v 0.8 0.4 0.6
v 0.8 1.1 0.6
v 0.8 1.3 0.6
v -1.7 0.4 0.5
v -1.7 1.1 0.5
v -1.7 1.3 0.5
v -1.6 0.4 0.5
v -1.6 1.3 0.5
v 0.8 0.4 0.5
v 0.8 1.3 0.5
v 0.9 0.4 0.5
v 0.9 1.1 0.5
v 0.9 1.3 0.5
v -1.8 0.1 -1.1
v -1.8 0.2 -1.1
v -1.8 1.3 -1.1
v -1.7 0 -1.1
v -1.7 0.1 -1.1
v -1.7 0.2 -1.1
v -1.7 1.3 -1.1
v -1.6 0 -1.1
v -1.6 0.1 -1.1
v -1.3 0 -1.1
v -1.3 0.1 -1.1
v 0.5 0 -1.1
v 0.5 0.1 -1.1
v 0.8 0 -1.1
v 0.8 0.1 -1.1
v 0.9 0 -1.1
v 0.9 0.1 -1.1
v 0.9 0.2 -1.1
v 0.9 1.3 -1.1
v 1 0.1 -1.1
v 1 0.2 -1.1
v 1 1.3 -1.1
v -1.7 0.1 -1.2
v -1.7 0.2 -1.2
v -1.7 1.3 -1.2
v -1.6 0 -1.2
v -1.6 0.1 -1.2
v -1.6 0.2 -1.2
v -1.6 1.1 -1.2
v -1.5 1.1 -1.2
v -1.5 1.2 -1.2
v -1.4 0.5 -1.2
v -1.4 0.9 -1.2
v -1.3 0 -1.2
v -1.3 0.1 -1.2
v -1.3 0.4 -1.2
v -1.3 0.5 -1.2
v -1.3 0.9 -1.2
v -1.3 1 -1.2
v -1.2 0.4 -1.2
v -1.2 0.5 -1.2
v -1.2 0.9 -1.2
v -1.2 1 -1.2
v -1 0.8 -1.2
v -1 0.9 -1.2
v -0.9 0.5 -1.2
v -0.9 0.6 -1.2
v -0.9 0.8 -1.2
v -0.9 0.9 -1.2
v -0.8 0.5 -1.2
v -0.8 0.6 -1.2
v -0.8 0.7 -1.2
v -0.8 0.8 -1.2
v -0.7 0.4 -1.2
v -0.7 0.5 -1.2
v -0.7 0.7 -1.2
v -0.7 0.8 -1.2
v -0.7 0.9 -1.2
v -0.7 1 -1.2
v -0.6 0.5 -1.2
v -0.6 0.9 -1.2
v -0.3 0.5 -1.2
v -0.3 0.9 -1.2
v -0.2 0.4 -1.2
v -0.2 0.5 -1.2
v -0.2 0.6 -1.2
v -0.2 0.9 -1.2
v -0.2 1 -1.2
v -0.1 0.5 -1.2
v -0.1 0.6 -1.2
v -1.19209e-07 0.7 -1.2
v -1.19209e-07 0.8 -1.2
v 0.0999999 0.6 -1.2
v 0.0999999 0.7 -1.2
v 0.0999999 0.8 -1.2
v 0.2 0.6 -1.2
v 0.2 0.7 -1.2
v 0.4 0.4 -1.2
v 0.4 0.5 -1.2
v 0.4 0.9 -1.2
v 0.4 1 -1.2
v 0.5 0 -1.2
v 0.5 0.1 -1.2
v 0.5 0.4 -1.2
v 0.5 0.5 -1.2
v 0.5 0.9 -1.2
v 0.5 1 -1.2
v 0.6 0.5 -1.2
v 0.6 0.9 -1.2
v 0.7 1.1 -1.2
v 0.7 1.2 -1.2
v 0.8 0 -1.2
v 0.8 0.1 -1.2
v 0.8 0.2 -1.2
v 0.8 1.1 -1.2
v 0.9 0.1 -1.2
v 0.9 0.2 -1.2
v 0.9 1.3 -1.2
v -1.6 0 0.7
v -1.3 0 0.7
v 0.5 0 0.7
v 0.8 0 0.7
v -1.7 0 0.6
v -1.6 0 0.6
v -1.3 0 0.6
v 0.5 0 0.6
v 0.8 0 0.6
v 0.9 0 0.6
v -1.5 0 0.4
v 0.7 0 0.4
v -1.6 0 0.3
v -1.5 0 0.3
v 0.7 0 0.3
v 0.8 0 0.3
v -1.6 0 -0.8
v -1.5 0 -0.8
v 0.7 0 -0.8
v 0.8 0 -0.8
v -1.5 0 -0.9
v 0.7 0 -0.9
v -1.7 0 -1.1
v -1.6 0 -1.1
v -1.3 0 -1.1
v 0.5 0 -1.1
v 0.8 0 -1.1
v 0.9 0 -1.1
v -1.6 0 -1.2
v -1.3 0 -1.2
v 0.5 0 -1.2
v 0.8 0 -1.2
v -1.7 0.1 0.7
v -1.6 0.1 0.7
v -1.3 0.1 0.7
v 0.5 0.1 0.7
v 0.8 0.1 0.7
v 0.9 0.1 0.7
v -1.8 0.1 0.6
v -1.7 0.1 0.6
v -1.6 0.1 0.6
v -1.3 0.1 0.6
v 0.5 0.1 0.6
v 0.8 0.1 0.6
v 0.9 0.1 0.6
v 1 0.1 0.6
v -1.8 0.1 -1.1
v -1.7 0.1 -1.1
v -1.6 0.1 -1.1
v -1.3 0.1 -1.1
v 0.5 0.1 -1.1
v 0.8 0.1 -1.1
v 0.9 0.1 -1.1
v 1 0.1 -1.1
v -1.7 0.1 -1.2
v -1.6 0.1 -1.2
v -1.3 0.1 -1.2
v 0.5 0.1 -1.2
v 0.8 0.1 -1.2
v 0.9 0.1 -1.2
v -1.6 0.4 0.6
v -1.3 0.4 0.6
v -0.6 0.4 0.6
v -0.2 0.4 0.6
v 0.5 0.4 0.6
v 0.8 0.4 0.6
v -1.7 0.4 0.5
v -1.6 0.4 0.5
v 0.8 0.4 0.5
v 0.9 0.4 0.5
v -1.5 0.4 0.4
v 0.7 0.4 0.4
v -1.7 0.4 0.3
v 0.9 0.4 0.3
v -1.7 0.4 -0.8
v 0.9 0.4 -0.8
v -1.5 0.4 -0.9
v 0.7 0.4 -0.9
v -1.7 0.4 -1
v -1.6 0.4 -1
v 0.8 0.4 -1
v 0.9 0.4 -1
v -1.6 0.4 -1.1
v -1.3 0.4 -1.1
v -1.2 0.4 -1.1
v -0.7 0.4 -1.1
v -0.2 0.4 -1.1
v 0.4 0.4 -1.1
v 0.5 0.4 -1.1
v 0.8 0.4 -1.1
v -1.7 1.3 0.7
v 0.9 1.3 0.7
v -1.8 1.3 0.6
v -1.7 1.3 0.6
v -1.6 1.3 0.6
v 0.8 1.3 0.6
v 0.9 1.3 0.6
v 1 1.3 0.6
v -1.7 1.3 0.5
v -1.6 1.3 0.5
v 0.8 1.3 0.5
v 0.9 1.3 0.5
v -1.7 1.3 -1
v -1.6 1.3 -1
v 0.8 1.3 -1
v 0.9 1.3 -1
v -1.8 1.3 -1.1
v -1.7 1.3 -1.1
v -1.6 1.3 -1.1
v 0.8 1.3 -1.1
v 0.9 1.3 -1.1
v 1 1.3 -1.1
v -1.7 1.3 -1.2
v 0.9 1.3 -1.2

# faces
f 3/4/1 2/4/1 1/4/1
f 4/4/1 2/4/1 3/4/1
f 5/4/1 2/4/1 4/4/1
f 6/4/1 2/4/1 5/4/1
f 7/3/1 5/3/1 4/3/1
f 8/3/1 5/3/1 7/3/1
f 9/3/1 7/3/1 4/3/1
f 10/1/1 8/1/1 7/1/1
f 10/3/1 7/3/1 9/3/1
f 11/1/1 8/1/1 10/1/1
f 12/1/1 8/1/1 11/1/1
f 13/3/1 5/3/1 8/3/1
f 13/1/1 8/1/1 12/1/1
f 14/3/1 5/3/1 13/3/1
f 15/2/1 12/2/1 11/2/1
f 15/1/1 10/1/1 9/1/1
f 15/1/1 11/1/1 10/1/1
f 16/1/1 14/1/1 13/1/1
f 16/2/1 12/2/1 15/2/1
f 16/1/1 13/1/1 12/1/1
f 17/1/1 14/1/1 16/1/1
f 18/1/1 14/1/1 17/1/1
f 19/1/1 14/1/1 18/1/1
f 20/1/1 14/1/1 19/1/1
f 21/1/1 16/1/1 15/1/1
f 21/1/1 17/1/1 16/1/1
f 21/2/1 18/2/1 17/2/1
f 22/1/1 19/1/1 18/1/1
f 22/2/1 18/2/1 21/2/1
f 23/2/1 20/2/1 19/2/1
f 23/1/1 19/1/1 22/1/1
f 24/1/1 14/1/1 20/1/1
f 24/2/1 20/2/1 23/2/1
f 25/1/1 23/1/1 22/1/1
f 25/1/1 22/1/1 21/1/1
f 25/1/1 24/1/1 23/1/1
f 26/1/1 24/1/1 25/1/1
f 27/3/1 9/3/1 4/3/1
f 27/1/1 15/1/1 9/1/1
f 27/1/1 21/1/1 15/1/1
f 27/1/1 25/1/1 21/1/1
f 28/1/1 25/1/1 27/1/1
f 29/2/1 26/2/1 25/2/1
f 29/1/1 25/1/1 28/1/1
f 30/1/1 24/1/1 26/1/1
f 30/2/1 26/2/1 29/2/1
f 31/1/1 14/1/1 24/1/1
f 31/1/1 24/1/1 30/1/1
f 32/3/1 5/3/1 14/3/1
f 32/1/1 14/1/1 31/1/1
f 33/1/1 31/1/1 30/1/1
f 33/1/1 29/1/1 28/1/1
f 33/3/1 28/3/1 27/3/1
f 33/1/1 30/1/1 29/1/1
f 34/3/1 32/3/1 31/3/1
f 34/1/1 31/1/1 33/1/1
f 35/5/1 4/5/1 3/5/1
f 35/3/1 33/3/1 27/3/1
f 35/3/1 34/3/1 33/3/1
f 35/3/1 27/3/1 4/3/1
f 36/3/1 34/3/1 35/3/1
f 37/3/1 32/3/1 34/3/1
f 37/3/1 34/3/1 36/3/1
f 37/3/1 5/3/1 32/3/1
f 38/5/1 6/5/1 5/5/1
f 38/3/1 5/3/1 37/3/1
f 39/5/1 36/5/1 35/5/1
f 39/3/1 37/3/1 36/3/1
f 40/5/1 38/5/1 37/5/1
f 40/3/1 37/3/1 39/3/1
f 41/5/1 39/5/1 35/5/1
f 41/5/1 35/5/1 3/5/1
f 41/5/1 40/5/1 39/5/1
f 42/5/1 6/5/1 38/5/1
f 42/5/1 40/5/1 41/5/1
f 42/5/1 38/5/1 40/5/1
f 46/4/1 44/4/1 43/4/1
f 47/4/1 44/4/1 46/4/1
f 49/4/1 46/4/1 45/4/1
f 50/4/1 46/4/1 49/4/1
f 51/4/1 48/4/1 47/4/1
f 52/4/1 48/4/1 51/4/1
f 53/5/1 50/5/1 49/5/1
f 54/5/1 50/5/1 53/5/1
f 55/5/1 52/5/1 51/5/1
f 56/5/1 52/5/1 55/5/1
f 61/6/1 58/6/1 57/6/1
f 62/6/1 58/6/1 61/6/1
f 63/6/1 60/6/1 59/6/1
f 64/6/1 60/6/1 63/6/1
f 69/6/1 66/6/1 65/6/1
f 70/6/1 66/6/1 69/6/1
f 71/6/1 68/6/1 67/6/1
f 72/6/1 68/6/1 71/6/1
f 77/3/1 74/3/1 73/3/1
f 78/3/1 76/3/1 75/3/1
f 79/3/1 74/3/1 77/3/1
f 80/3/1 74/3/1 79/3/1
f 81/3/1 78/3/1 75/3/1
f 82/3/1 78/3/1 81/3/1
f 87/3/1 84/3/1 83/3/1
f 88/1/1 85/1/1 84/1/1
f 88/3/1 84/3/1 87/3/1
f 89/1/1 85/1/1 88/1/1
f 90/1/1 85/1/1 89/1/1
f 91/1/1 85/1/1 90/1/1
f 92/1/1 85/1/1 91/1/1
f 93/3/1 86/3/1 85/3/1
f 93/1/1 85/1/1 92/1/1
f 94/3/1 86/3/1 93/3/1
f 95/1/1 88/1/1 87/1/1
f 95/1/1 89/1/1 88/1/1
f 95/2/1 90/2/1 89/2/1
f 96/1/1 91/1/1 90/1/1
f 96/2/1 90/2/1 95/2/1
f 97/1/1 91/1/1 96/1/1
f 98/1/1 91/1/1 97/1/1
f 99/2/1 92/2/1 91/2/1
f 99/1/1 91/1/1 98/1/1
f 100/1/1 94/1/1 93/1/1
f 100/2/1 92/2/1 99/2/1
f 100/1/1 93/1/1 92/1/1
f 101/1/1 97/1/1 96/1/1
f 101/1/1 95/1/1 87/1/1
f 101/1/1 96/1/1 95/1/1
f 102/1/1 97/1/1 101/1/1
f 103/1/1 97/1/1 102/1/1
f 104/1/1 97/1/1 103/1/1
f 105/2/1 98/2/1 97/2/1
f 105/1/1 97/1/1 104/1/1
f 106/1/1 99/1/1 98/1/1
f 106/2/1 98/2/1 105/2/1
f 106/1/1 100/1/1 99/1/1
f 107/1/1 101/1/1 87/1/1
f 107/2/1 102/2/1 101/2/1
f 108/1/1 103/1/1 102/1/1
f 108/2/1 102/2/1 107/2/1
f 109/2/1 104/2/1 103/2/1
f 109/1/1 103/1/1 108/1/1
f 110/1/1 105/1/1 104/1/1
f 110/2/1 104/2/1 109/2/1
f 110/1/1 106/1/1 105/1/1
f 111/1/1 100/1/1 106/1/1
f 111/1/1 106/1/1 110/1/1
f 112/1/1 100/1/1 111/1/1
f 113/1/1 108/1/1 107/1/1
f 113/3/1 87/3/1 83/3/1
f 113/1/1 109/1/1 108/1/1
f 113/1/1 111/1/1 110/1/1
f 113/1/1 110/1/1 109/1/1
f 113/1/1 107/1/1 87/1/1
f 114/1/1 111/1/1 113/1/1
f 115/2/1 112/2/1 111/2/1
f 115/1/1 111/1/1 114/1/1
f 116/1/1 100/1/1 112/1/1
f 116/2/1 112/2/1 115/2/1
f 117/1/1 94/1/1 100/1/1
f 117/1/1 100/1/1 116/1/1
f 118/3/1 86/3/1 94/3/1
f 118/1/1 94/1/1 117/1/1
f 119/1/1 115/1/1 114/1/1
f 119/3/1 114/3/1 113/3/1
f 119/1/1 117/1/1 116/1/1
f 119/1/1 116/1/1 115/1/1
f 120/3/1 118/3/1 117/3/1
f 120/1/1 117/1/1 119/1/1
f 121/3/1 119/3/1 113/3/1
f 121/3/1 113/3/1 83/3/1
f 121/3/1 120/3/1 119/3/1
f 122/3/1 120/3/1 121/3/1
f 123/3/1 86/3/1 118/3/1
f 123/3/1 120/3/1 122/3/1
f 123/3/1 118/3/1 120/3/1
f 124/3/1 86/3/1 123/3/1
f 125/5/1 122/5/1 121/5/1
f 125/3/1 123/3/1 122/3/1
f 126/5/1 124/5/1 123/5/1
f 126/3/1 123/3/1 125/3/1
f 127/5/1 125/5/1 121/5/1
f 127/5/1 126/5/1 125/5/1
f 128/5/1 124/5/1 126/5/1
f 128/5/1 126/5/1 127/5/1
f 129/3/2 130/3/2 133/3/2
f 130/1/2 131/1/2 134/1/2
f 133/3/2 130/3/2 134/3/2
f 134/1/2 131/1/2 135/1/2
f 135/1/2 131/1/2 136/1/2
f 131/3/2 132/3/2 137/3/2
f 136/1/2 131/1/2 137/1/2
f 137/3/2 132/3/2 138/3/2
f 135/2/2 136/2/2 139/2/2
f 133/1/2 134/1/2 139/1/2
f 134/1/2 135/1/2 139/1/2
f 137/1/2 138/1/2 140/1/2
f 139/2/2 136/2/2 140/2/2
f 136/1/2 137/1/2 140/1/2
f 140/1/2 138/1/2 141/1/2
f 141/1/2 138/1/2 142/1/2
f 142/1/2 138/1/2 143/1/2
f 143/1/2 138/1/2 144/1/2
f 139/1/2 140/1/2 145/1/2
f 140/1/2 141/1/2 145/1/2
f 141/2/2 142/2/2 145/2/2
f 142/1/2 143/1/2 146/1/2
f 145/2/2 142/2/2 146/2/2
f 143/2/2 144/2/2 147/2/2
f 146/1/2 143/1/2 147/1/2
f 144/1/2 138/1/2 148/1/2
f 147/2/2 144/2/2 148/2/2
f 146/1/2 147/1/2 149/1/2
f 145/1/2 146/1/2 149/1/2
f 147/1/2 148/1/2 149/1/2
f 149/1/2 148/1/2 150/1/2
f 129/3/2 133/3/2 151/3/2
f 133/1/2 139/1/2 151/1/2
f 139/1/2 145/1/2 151/1/2
f 145/1/2 149/1/2 151/1/2
f 151/1/2 149/1/2 152/1/2
f 149/2/2 150/2/2 153/2/2
f 152/1/2 149/1/2 153/1/2
f 150/1/2 148/1/2 154/1/2
f 153/2/2 150/2/2 154/2/2
f 148/1/2 138/1/2 155/1/2
f 154/1/2 148/1/2 155/1/2
f 138/3/2 132/3/2 156/3/2
f 155/1/2 138/1/2 156/1/2
f 154/1/2 155/1/2 157/1/2
f 152/1/2 153/1/2 157/1/2
f 151/3/2 152/3/2 157/3/2
f 153/1/2 154/1/2 157/1/2
f 155/3/2 156/3/2 158/3/2
f 157/1/2 155/1/2 158/1/2
f 151/3/2 157/3/2 159/3/2
f 129/3/2 151/3/2 159/3/2
f 157/3/2 158/3/2 159/3/2
f 159/3/2 158/3/2 160/3/2
f 156/3/2 132/3/2 161/3/2
f 160/3/2 158/3/2 161/3/2
f 158/3/2 156/3/2 161/3/2
f 161/3/2 132/3/2 162/3/2
f 159/5/2 160/5/2 163/5/2
f 160/3/2 161/3/2 163/3/2
f 161/5/2 162/5/2 164/5/2
f 163/3/2 161/3/2 164/3/2
f 159/5/2 163/5/2 165/5/2
f 163/5/2 164/5/2 165/5/2
f 164/5/2 162/5/2 166/5/2
f 165/5/2 164/5/2 166/5/2
f 167/3/2 168/3/2 171/3/2
f 169/3/2 170/3/2 172/3/2
f 171/3/2 168/3/2 173/3/2
f 173/3/2 168/3/2 174/3/2
f 169/3/2 172/3/2 175/3/2
f 175/3/2 172/3/2 176/3/2
f 177/6/2 178/6/2 181/6/2
f 181/6/2 178/6/2 182/6/2
f 179/6/2 180/6/2 183/6/2
f 183/6/2 180/6/2 184/6/2
f 185/6/2 186/6/2 189/6/2
f 189/6/2 186/6/2 190/6/2
f 187/6/2 188/6/2 191/6/2
f 191/6/2 188/6/2 192/6/2
f 193/4/2 194/4/2 196/4/2
f 196/4/2 194/4/2 197/4/2
f 195/4/2 196/4/2 199/4/2
f 199/4/2 196/4/2 200/4/2
f 197/4/2 198/4/2 201/4/2
f 201/4/2 198/4/2 202/4/2
f 199/5/2 200/5/2 203/5/2
f 203/5/2 200/5/2 204/5/2
f 201/5/2 202/5/2 205/5/2
f 205/5/2 202/5/2 206/5/2
f 207/4/2 208/4/2 209/4/2
f 209/4/2 208/4/2 210/4/2
f 210/4/2 208/4/2 211/4/2
f 211/4/2 208/4/2 212/4/2
f 210/3/2 211/3/2 213/3/2
f 213/3/2 211/3/2 214/3/2
f 210/3/2 213/3/2 215/3/2
f 213/1/2 214/1/2 216/1/2
f 215/3/2 213/3/2 216/3/2
f 216/1/2 214/1/2 217/1/2
f 217/1/2 214/1/2 218/1/2
f 218/1/2 214/1/2 219/1/2
f 219/1/2 214/1/2 220/1/2
f 214/3/2 211/3/2 221/3/2
f 220/1/2 214/1/2 221/1/2
f 221/3/2 211/3/2 222/3/2
f 215/1/2 216/1/2 223/1/2
f 216/1/2 217/1/2 223/1/2
f 217/2/2 218/2/2 223/2/2
f 218/1/2 219/1/2 224/1/2
f 223/2/2 218/2/2 224/2/2
f 224/1/2 219/1/2 225/1/2
f 225/1/2 219/1/2 226/1/2
f 219/2/2 220/2/2 227/2/2
f 226/1/2 219/1/2 227/1/2
f 221/1/2 222/1/2 228/1/2
f 227/2/2 220/2/2 228/2/2
f 220/1/2 221/1/2 228/1/2
f 224/1/2 225/1/2 229/1/2
f 215/1/2 223/1/2 229/1/2
f 223/1/2 224/1/2 229/1/2
f 229/1/2 225/1/2 230/1/2
f 230/1/2 225/1/2 231/1/2
f 231/1/2 225/1/2 232/1/2
f 225/2/2 226/2/2 233/2/2
f 232/1/2 225/1/2 233/1/2
f 226/1/2 227/1/2 234/1/2
f 233/2/2 226/2/2 234/2/2
f 227/1/2 228/1/2 234/1/2
f 215/1/2 229/1/2 235/1/2
f 229/2/2 230/2/2 235/2/2
f 230/1/2 231/1/2 236/1/2
f 235/2/2 230/2/2 236/2/2
f 231/2/2 232/2/2 237/2/2
f 236/1/2 231/1/2 237/1/2
f 232/1/2 233/1/2 238/1/2
f 237/2/2 232/2/2 238/2/2
f 233/1/2 234/1/2 238/1/2
f 234/1/2 228/1/2 239/1/2
f 238/1/2 234/1/2 239/1/2
f 239/1/2 228/1/2 240/1/2
f 235/1/2 236/1/2 241/1/2
f 210/3/2 215/3/2 241/3/2
f 236/1/2 237/1/2 241/1/2
f 238/1/2 239/1/2 241/1/2
f 237/1/2 238/1/2 241/1/2
f 215/1/2 235/1/2 241/1/2
f 241/1/2 239/1/2 242/1/2
f 239/2/2 240/2/2 243/2/2
f 242/1/2 239/1/2 243/1/2
f 240/1/2 228/1/2 244/1/2
f 243/2/2 240/2/2 244/2/2
f 228/1/2 222/1/2 245/1/2
f 244/1/2 228/1/2 245/1/2
f 222/3/2 211/3/2 246/3/2
f 245/1/2 222/1/2 246/1/2
f 242/1/2 243/1/2 247/1/2
f 241/3/2 242/3/2 247/3/2
f 244/1/2 245/1/2 247/1/2
f 243/1/2 244/1/2 247/1/2
f 245/3/2 246/3/2 248/3/2
f 247/1/2 245/1/2 248/1/2
f 209/5/2 210/5/2 249/5/2
f 241/3/2 247/3/2 249/3/2
f 247/3/2 248/3/2 249/3/2
f 210/3/2 241/3/2 249/3/2
f 249/3/2 248/3/2 250/3/2
f 248/3/2 246/3/2 251/3/2
f 250/3/2 248/3/2 251/3/2
f 246/3/2 211/3/2 251/3/2
f 211/5/2 212/5/2 252/5/2
f 251/3/2 211/3/2 252/3/2
f 249/5/2 250/5/2 253/5/2
f 250/3/2 251/3/2 253/3/2
f 251/5/2 252/5/2 254/5/2
f 253/3/2 251/3/2 254/3/2
f 249/5/2 253/5/2 255/5/2
f 209/5/2 249/5/2 255/5/2
f 253/5/2 254/5/2 255/5/2
f 252/5/2 212/5/2 256/5/2
f 255/5/2 254/5/2 256/5/2
f 254/5/2 252/5/2 256/5/2
f 261/4/3 258/4/3 257/4/3
f 262/5/3 259/5/3 258/5/3
f 262/4/3 258/4/3 261/4/3
f 263/5/3 259/5/3 262/5/3
f 264/3/3 263/3/3 262/3/3
f 264/5/3 259/5/3 263/5/3
f 265/5/3 259/5/3 264/5/3
f 266/3/3 264/3/3 262/3/3
f 266/3/3 265/3/3 264/3/3
f 267/3/3 265/3/3 266/3/3
f 268/6/3 261/6/3 260/6/3
f 269/4/3 262/4/3 261/4/3
f 269/6/3 261/6/3 268/6/3
f 270/3/3 266/3/3 262/3/3
f 271/1/3 267/1/3 266/1/3
f 271/3/3 266/3/3 270/3/3
f 272/3/3 265/3/3 267/3/3
f 272/1/3 267/1/3 271/1/3
f 273/3/3 265/3/3 272/3/3
f 274/1/3 271/1/3 270/1/3
f 274/1/3 273/1/3 272/1/3
f 274/1/3 272/1/3 271/1/3
f 275/1/3 273/1/3 274/1/3
f 276/1/3 274/1/3 270/1/3
f 276/2/3 275/2/3 274/2/3
f 277/1/3 273/1/3 275/1/3
f 277/2/3 275/2/3 276/2/3
f 278/1/3 277/1/3 276/1/3
f 278/1/3 273/1/3 277/1/3
f 279/1/3 273/1/3 278/1/3
f 280/1/3 278/1/3 276/1/3
f 281/1/3 278/1/3 280/1/3
f 282/2/3 279/2/3 278/2/3
f 282/1/3 278/1/3 281/1/3
f 283/1/3 273/1/3 279/1/3
f 283/2/3 279/2/3 282/2/3
f 284/2/3 281/2/3 280/2/3
f 284/1/3 280/1/3 276/1/3
f 285/1/3 282/1/3 281/1/3
f 285/2/3 281/2/3 284/2/3
f 285/1/3 283/1/3 282/1/3
f 286/3/3 270/3/3 262/3/3
f 286/1/3 276/1/3 270/1/3
f 286/1/3 285/1/3 284/1/3
f 286/1/3 284/1/3 276/1/3
f 287/1/3 285/1/3 286/1/3
f 288/1/3 283/1/3 285/1/3
f 288/1/3 285/1/3 287/1/3
f 288/1/3 273/1/3 283/1/3
f 289/3/3 265/3/3 273/3/3
f 289/1/3 273/1/3 288/1/3
f 290/1/3 288/1/3 287/1/3
f 290/2/3 287/2/3 286/2/3
f 291/2/3 289/2/3 288/2/3
f 291/1/3 288/1/3 290/1/3
f 292/2/3 290/2/3 286/2/3
f 292/2/3 291/2/3 290/2/3
f 293/2/3 289/2/3 291/2/3
f 293/2/3 291/2/3 292/2/3
f 294/2/3 292/2/3 286/2/3
f 294/3/3 286/3/3 262/3/3
f 295/1/3 293/1/3 292/1/3
f 295/2/3 292/2/3 294/2/3
f 296/1/3 293/1/3 295/1/3
f 297/1/3 293/1/3 296/1/3
f 298/2/3 289/2/3 293/2/3
f 298/1/3 293/1/3 297/1/3
f 299/3/3 265/3/3 289/3/3
f 299/2/3 289/2/3 298/2/3
f 300/2/3 297/2/3 296/2/3
f 300/1/3 295/1/3 294/1/3
f 300/1/3 296/1/3 295/1/3
f 301/1/3 298/1/3 297/1/3
f 301/2/3 297/2/3 300/2/3
f 301/1/3 299/1/3 298/1/3
f 302/1/3 300/1/3 294/1/3
f 302/1/3 301/1/3 300/1/3
f 303/1/3 301/1/3 302/1/3
f 304/1/3 302/1/3 294/1/3
f 304/2/3 303/2/3 302/2/3
f 305/1/3 301/1/3 303/1/3
f 305/2/3 303/2/3 304/2/3
f 306/1/3 299/1/3 301/1/3
f 306/1/3 301/1/3 305/1/3
f 307/1/3 299/1/3 306/1/3
f 308/1/3 305/1/3 304/1/3
f 308/1/3 306/1/3 305/1/3
f 308/2/3 307/2/3 306/2/3
f 309/1/3 299/1/3 307/1/3
f 309/2/3 307/2/3 308/2/3
f 311/4/3 262/4/3 269/4/3
f 312/1/3 308/1/3 304/1/3
f 312/3/3 294/3/3 262/3/3
f 312/1/3 304/1/3 294/1/3
f 312/1/3 309/1/3 308/1/3
f 313/1/3 309/1/3 312/1/3
f 314/1/3 299/1/3 309/1/3
f 314/1/3 309/1/3 313/1/3
f 315/3/3 265/3/3 299/3/3
f 315/1/3 299/1/3 314/1/3
f 316/3/3 313/3/3 312/3/3
f 316/1/3 314/1/3 313/1/3
f 317/3/3 315/3/3 314/3/3
f 317/1/3 314/1/3 316/1/3
f 318/3/3 265/3/3 315/3/3
f 318/3/3 315/3/3 317/3/3
f 318/3/3 317/3/3 316/3/3
f 319/5/3 259/5/3 265/5/3
f 319/3/3 265/3/3 318/3/3
f 320/6/3 311/6/3 310/6/3
f 321/4/3 262/4/3 311/4/3
f 321/6/3 311/6/3 320/6/3
f 322/3/3 318/3/3 316/3/3
f 322/4/3 262/4/3 321/4/3
f 322/3/3 312/3/3 262/3/3
f 322/3/3 316/3/3 312/3/3
f 323/5/3 319/5/3 318/5/3
f 323/3/3 318/3/3 322/3/3
f 324/4/3 322/4/3 321/4/3
f 325/5/3 323/5/3 322/5/3
f 325/4/3 322/4/3 324/4/3
f 326/5/3 259/5/3 319/5/3
f 326/5/3 323/5/3 325/5/3
f 326/5/3 319/5/3 323/5/3
f 331/4/3 328/4/3 327/4/3
f 332/5/3 329/5/3 328/5/3
f 332/4/3 328/4/3 331/4/3
f 333/5/3 329/5/3 332/5/3
f 334/4/3 331/4/3 330/4/3
f 335/4/3 331/4/3 334/4/3
f 338/4/3 337/4/3 336/4/3
f 339/4/3 337/4/3 338/4/3
f 342/4/3 341/4/3 340/4/3
f 343/4/3 341/4/3 342/4/3
f 346/4/3 344/4/3 343/4/3
f 347/5/3 345/5/3 344/5/3
f 347/4/3 344/4/3 346/4/3
f 348/5/3 345/5/3 347/5/3
f 352/3/3 350/3/3 349/3/3
f 352/3/3 351/3/3 350/3/3
f 353/3/3 351/3/3 352/3/3
f 356/3/3 355/3/3 354/3/3
f 357/3/3 355/3/3 356/3/3
f 358/3/3 355/3/3 357/3/3
f 362/3/3 360/3/3 359/3/3
f 362/5/3 361/5/3 360/5/3
f 363/5/3 361/5/3 362/5/3
f 364/3/3 362/3/3 359/3/3
f 364/3/3 363/3/3 362/3/3
f 365/3/3 363/3/3 364/3/3
f 366/3/3 364/3/3 359/3/3
f 367/5/3 365/5/3 364/5/3
f 367/3/3 364/3/3 366/3/3
f 368/3/3 363/3/3 365/3/3
f 368/5/3 365/5/3 367/5/3
f 369/3/3 363/3/3 368/3/3
f 370/5/3 367/5/3 366/5/3
f 371/1/3 368/1/3 367/1/3
f 371/5/3 367/5/3 370/5/3
f 372/5/3 369/5/3 368/5/3
f 372/1/3 368/1/3 371/1/3
f 373/3/3 363/3/3 369/3/3
f 373/5/3 369/5/3 372/5/3
f 374/1/3 372/1/3 371/1/3
f 374/1/3 371/1/3 370/1/3
f 374/1/3 373/1/3 372/1/3
f 375/1/3 373/1/3 374/1/3
f 376/1/3 374/1/3 370/1/3
f 377/1/3 374/1/3 376/1/3
f 378/2/3 375/2/3 374/2/3
f 378/1/3 374/1/3 377/1/3
f 379/1/3 373/1/3 375/1/3
f 379/2/3 375/2/3 378/2/3
f 380/2/3 377/2/3 376/2/3
f 380/1/3 376/1/3 370/1/3
f 381/1/3 378/1/3 377/1/3
f 381/2/3 377/2/3 380/2/3
f 381/1/3 379/1/3 378/1/3
f 382/1/3 379/1/3 381/1/3
f 383/1/3 379/1/3 382/1/3
f 384/1/3 380/1/3 370/1/3
f 384/1/3 381/1/3 380/1/3
f 384/1/3 382/1/3 381/1/3
f 385/1/3 382/1/3 384/1/3
f 386/2/3 383/2/3 382/2/3
f 386/1/3 382/1/3 385/1/3
f 387/1/3 379/1/3 383/1/3
f 387/2/3 383/2/3 386/2/3
f 388/1/3 373/1/3 379/1/3
f 388/1/3 379/1/3 387/1/3
f 389/3/3 363/3/3 373/3/3
f 389/1/3 373/1/3 388/1/3
f 390/1/3 388/1/3 387/1/3
f 390/1/3 386/1/3 385/1/3
f 390/1/3 387/1/3 386/1/3
f 390/2/3 385/2/3 384/2/3
f 391/2/3 389/2/3 388/2/3
f 391/1/3 388/1/3 390/1/3
f 392/2/3 390/2/3 384/2/3
f 392/2/3 391/2/3 390/2/3
f 393/2/3 389/2/3 391/2/3
f 393/2/3 391/2/3 392/2/3
f 394/2/3 392/2/3 384/2/3
f 395/1/3 393/1/3 392/1/3
f 395/2/3 392/2/3 394/2/3
f 396/1/3 393/1/3 395/1/3
f 397/2/3 389/2/3 393/2/3
f 397/1/3 393/1/3 396/1/3
f 398/3/3 363/3/3 389/3/3
f 398/2/3 389/2/3 397/2/3
f 399/2/3 396/2/3 395/2/3
f 399/1/3 395/1/3 394/1/3
f 400/1/3 397/1/3 396/1/3
f 400/2/3 396/2/3 399/2/3
f 400/1/3 398/1/3 397/1/3
f 401/1/3 400/1/3 399/1/3
f 401/1/3 398/1/3 400/1/3
f 402/1/3 398/1/3 401/1/3
f 403/1/3 401/1/3 399/1/3
f 404/2/3 402/2/3 401/2/3
f 404/1/3 401/1/3 403/1/3
f 405/1/3 398/1/3 402/1/3
f 405/2/3 402/2/3 404/2/3
f 406/2/3 404/2/3 403/2/3
f 406/1/3 403/1/3 399/1/3
f 407/1/3 405/1/3 404/1/3
f 407/2/3 404/2/3 406/2/3
f 408/1/3 399/1/3 394/1/3
f 408/1/3 406/1/3 399/1/3
f 408/1/3 407/1/3 406/1/3
f 409/1/3 407/1/3 408/1/3
f 410/1/3 405/1/3 407/1/3
f 410/1/3 407/1/3 409/1/3
f 410/1/3 398/1/3 405/1/3
f 411/3/3 363/3/3 398/3/3
f 411/1/3 398/1/3 410/1/3
f 412/5/3 409/5/3 408/5/3
f 413/1/3 410/1/3 409/1/3
f 413/5/3 409/5/3 412/5/3
f 414/5/3 411/5/3 410/5/3
f 414/1/3 410/1/3 413/1/3
f 415/3/3 363/3/3 411/3/3
f 415/5/3 411/5/3 414/5/3
f 416/5/3 414/5/3 413/5/3
f 416/3/3 413/3/3 412/3/3
f 417/3/3 415/3/3 414/3/3
f 417/5/3 414/5/3 416/5/3
f 418/3/3 363/3/3 415/3/3
f 418/3/3 415/3/3 417/3/3
f 418/3/3 417/3/3 416/3/3
f 419/5/3 361/5/3 363/5/3
f 419/3/3 363/3/3 418/3/3
f 420/3/3 418/3/3 416/3/3
f 420/3/3 416/3/3 412/3/3
f 421/5/3 419/5/3 418/5/3
f 421/3/3 418/3/3 420/3/3
f 422/5/3 361/5/3 419/5/3
f 422/5/3 419/5/3 421/5/3
f 423/3/4 424/3/4 426/3/4
f 424/5/4 425/5/4 426/5/4
f 426/5/4 425/5/4 427/5/4
f 423/3/4 426/3/4 428/3/4
f 426/3/4 427/3/4 428/3/4
f 428/3/4 427/3/4 429/3/4
f 423/3/4 428/3/4 430/3/4
f 428/1/4 429/1/4 431/1/4
f 430/3/4 428/3/4 431/3/4
f 429/3/4 427/3/4 432/3/4
f 431/1/4 429/1/4 432/1/4
f 432/3/4 427/3/4 433/3/4
f 430/1/4 431/1/4 434/1/4
f 431/1/4 432/1/4 434/1/4
f 432/1/4 433/1/4 434/1/4
f 434/1/4 433/1/4 435/1/4
f 430/1/4 434/1/4 436/1/4
f 434/2/4 435/2/4 436/2/4
f 435/1/4 433/1/4 437/1/4
f 436/2/4 435/2/4 437/2/4
f 436/1/4 437/1/4 438/1/4
f 437/1/4 433/1/4 438/1/4
f 438/1/4 433/1/4 439/1/4
f 436/1/4 438/1/4 440/1/4
f 440/1/4 438/1/4 441/1/4
f 438/2/4 439/2/4 442/2/4
f 441/1/4 438/1/4 442/1/4
f 439/1/4 433/1/4 443/1/4
f 442/2/4 439/2/4 443/2/4
f 440/2/4 441/2/4 444/2/4
f 436/1/4 440/1/4 444/1/4
f 441/1/4 442/1/4 445/1/4
f 444/2/4 441/2/4 445/2/4
f 442/1/4 443/1/4 445/1/4
f 430/1/4 436/1/4 446/1/4
f 436/1/4 444/1/4 446/1/4
f 444/1/4 445/1/4 446/1/4
f 446/1/4 445/1/4 447/1/4
f 445/1/4 443/1/4 448/1/4
f 447/1/4 445/1/4 448/1/4
f 443/1/4 433/1/4 448/1/4
f 433/3/4 427/3/4 449/3/4
f 448/1/4 433/1/4 449/1/4
f 447/1/4 448/1/4 450/1/4
f 446/2/4 447/2/4 450/2/4
f 448/2/4 449/2/4 451/2/4
f 450/1/4 448/1/4 451/1/4
f 446/2/4 450/2/4 452/2/4
f 450/2/4 451/2/4 452/2/4
f 451/2/4 449/2/4 453/2/4
f 452/2/4 451/2/4 453/2/4
f 446/2/4 452/2/4 454/2/4
f 452/1/4 453/1/4 455/1/4
f 454/2/4 452/2/4 455/2/4
f 455/1/4 453/1/4 456/1/4
f 456/1/4 453/1/4 457/1/4
f 453/2/4 449/2/4 458/2/4
f 457/1/4 453/1/4 458/1/4
f 449/3/4 427/3/4 459/3/4
f 458/2/4 449/2/4 459/2/4
f 456/2/4 457/2/4 460/2/4
f 454/1/4 455/1/4 460/1/4
f 455/1/4 456/1/4 460/1/4
f 457/1/4 458/1/4 461/1/4
f 460/2/4 457/2/4 461/2/4
f 458/1/4 459/1/4 461/1/4
f 454/1/4 460/1/4 462/1/4
f 460/1/4 461/1/4 462/1/4
f 462/1/4 461/1/4 463/1/4
f 454/1/4 462/1/4 464/1/4
f 462/2/4 463/2/4 464/2/4
f 463/1/4 461/1/4 465/1/4
f 464/2/4 463/2/4 465/2/4
f 461/1/4 459/1/4 466/1/4
f 465/1/4 461/1/4 466/1/4
f 466/1/4 459/1/4 467/1/4
f 464/1/4 465/1/4 468/1/4
f 465/1/4 466/1/4 468/1/4
f 466/2/4 467/2/4 468/2/4
f 467/1/4 459/1/4 469/1/4
f 468/2/4 467/2/4 469/2/4
f 464/1/4 468/1/4 470/1/4
f 454/1/4 464/1/4 470/1/4
f 468/1/4 469/1/4 470/1/4
f 470/1/4 469/1/4 471/1/4
f 469/1/4 459/1/4 472/1/4
f 471/1/4 469/1/4 472/1/4
f 459/3/4 427/3/4 473/3/4
f 472/1/4 459/1/4 473/1/4
f 470/3/4 471/3/4 474/3/4
f 471/1/4 472/1/4 474/1/4
f 472/3/4 473/3/4 475/3/4
f 474/1/4 472/1/4 475/1/4
f 473/3/4 427/3/4 476/3/4
f 475/3/4 473/3/4 476/3/4
f 474/3/4 475/3/4 476/3/4
f 427/5/4 425/5/4 477/5/4
f 476/3/4 427/3/4 477/3/4
f 474/3/4 476/3/4 478/3/4
f 470/3/4 474/3/4 478/3/4
f 476/5/4 477/5/4 479/5/4
f 478/3/4 476/3/4 479/3/4
f 477/5/4 425/5/4 480/5/4
f 479/5/4 477/5/4 480/5/4
f 481/3/4 482/3/4 484/3/4
f 482/3/4 483/3/4 484/3/4
f 484/3/4 483/3/4 485/3/4
f 486/3/4 487/3/4 488/3/4
f 488/3/4 487/3/4 489/3/4
f 489/3/4 487/3/4 490/3/4
f 491/4/4 492/4/4 495/4/4
f 492/5/4 493/5/4 496/5/4
f 495/4/4 492/4/4 496/4/4
f 496/5/4 493/5/4 497/5/4
f 494/4/4 495/4/4 498/4/4
f 498/4/4 495/4/4 499/4/4
f 500/4/4 501/4/4 502/4/4
f 502/4/4 501/4/4 503/4/4
f 504/4/4 505/4/4 506/4/4
f 506/4/4 505/4/4 507/4/4
f 507/4/4 508/4/4 510/4/4
f 508/5/4 509/5/4 511/5/4
f 510/4/4 508/4/4 511/4/4
f 511/5/4 509/5/4 512/5/4
f 513/4/4 514/4/4 517/4/4
f 514/5/4 515/5/4 518/5/4
f 517/4/4 514/4/4 518/4/4
f 518/5/4 515/5/4 519/5/4
f 518/3/4 519/3/4 520/3/4
f 519/5/4 515/5/4 520/5/4
f 520/5/4 515/5/4 521/5/4
f 518/3/4 520/3/4 522/3/4
f 520/3/4 521/3/4 522/3/4
f 522/3/4 521/3/4 523/3/4
f 516/6/4 517/6/4 524/6/4
f 517/4/4 518/4/4 525/4/4
f 524/6/4 517/6/4 525/6/4
f 518/3/4 522/3/4 526/3/4
f 522/5/4 523/5/4 527/5/4
f 526/3/4 522/3/4 527/3/4
f 523/3/4 521/3/4 528/3/4
f 527/5/4 523/5/4 528/5/4
f 528/3/4 521/3/4 529/3/4
f 526/5/4 527/5/4 530/5/4
f 518/3/4 526/3/4 530/3/4
f 527/1/4 528/1/4 531/1/4
f 530/5/4 527/5/4 531/5/4
f 528/5/4 529/5/4 532/5/4
f 531/1/4 528/1/4 532/1/4
f 529/3/4 521/3/4 533/3/4
f 532/5/4 529/5/4 533/5/4
f 531/1/4 532/1/4 534/1/4
f 530/1/4 531/1/4 534/1/4
f 532/1/4 533/1/4 534/1/4
f 534/1/4 533/1/4 535/1/4
f 530/1/4 534/1/4 536/1/4
f 536/1/4 534/1/4 537/1/4
f 534/2/4 535/2/4 538/2/4
f 537/1/4 534/1/4 538/1/4
f 535/1/4 533/1/4 539/1/4
f 538/2/4 535/2/4 539/2/4
f 536/2/4 537/2/4 540/2/4
f 530/1/4 536/1/4 540/1/4
f 537/1/4 538/1/4 541/1/4
f 540/2/4 537/2/4 541/2/4
f 538/1/4 539/1/4 541/1/4
f 541/1/4 539/1/4 542/1/4
f 542/1/4 539/1/4 543/1/4
f 518/3/4 530/3/4 544/3/4
f 530/1/4 540/1/4 544/1/4
f 540/1/4 541/1/4 544/1/4
f 541/1/4 542/1/4 544/1/4
f 544/1/4 542/1/4 545/1/4
f 542/2/4 543/2/4 546/2/4
f 545/1/4 542/1/4 546/1/4
f 543/1/4 539/1/4 547/1/4
f 546/2/4 543/2/4 547/2/4
f 539/1/4 533/1/4 548/1/4
f 547/1/4 539/1/4 548/1/4
f 533/3/4 521/3/4 549/3/4
f 548/1/4 533/1/4 549/1/4
f 547/1/4 548/1/4 550/1/4
f 545/1/4 546/1/4 550/1/4
f 544/2/4 545/2/4 550/2/4
f 546/1/4 547/1/4 550/1/4
f 548/2/4 549/2/4 551/2/4
f 550/1/4 548/1/4 551/1/4
f 544/2/4 550/2/4 552/2/4
f 550/2/4 551/2/4 552/2/4
f 551/2/4 549/2/4 553/2/4
f 552/2/4 551/2/4 553/2/4
f 544/2/4 552/2/4 554/2/4
f 518/3/4 544/3/4 554/3/4
f 552/1/4 553/1/4 555/1/4
f 554/2/4 552/2/4 555/2/4
f 555/1/4 553/1/4 556/1/4
f 553/2/4 549/2/4 557/2/4
f 556/1/4 553/1/4 557/1/4
f 549/3/4 521/3/4 558/3/4
f 557/2/4 549/2/4 558/2/4
f 555/2/4 556/2/4 559/2/4
f 554/1/4 555/1/4 559/1/4
f 556/1/4 557/1/4 560/1/4
f 559/2/4 556/2/4 560/2/4
f 557/1/4 558/1/4 560/1/4
f 559/1/4 560/1/4 561/1/4
f 560/1/4 558/1/4 561/1/4
f 561/1/4 558/1/4 562/1/4
f 559/1/4 561/1/4 563/1/4
f 561/2/4 562/2/4 564/2/4
f 563/1/4 561/1/4 564/1/4
f 562/1/4 558/1/4 565/1/4
f 564/2/4 562/2/4 565/2/4
f 563/2/4 564/2/4 566/2/4
f 559/1/4 563/1/4 566/1/4
f 564/1/4 565/1/4 567/1/4
f 566/2/4 564/2/4 567/2/4
f 554/1/4 559/1/4 568/1/4
f 518/3/4 554/3/4 568/3/4
f 566/1/4 567/1/4 568/1/4
f 559/1/4 566/1/4 568/1/4
f 568/1/4 567/1/4 569/1/4
f 567/1/4 565/1/4 570/1/4
f 569/1/4 567/1/4 570/1/4
f 565/1/4 558/1/4 570/1/4
f 558/3/4 521/3/4 571/3/4
f 570/1/4 558/1/4 571/1/4
f 525/4/4 518/4/4 573/4/4
f 568/5/4 569/5/4 574/5/4
f 518/3/4 568/3/4 574/3/4
f 569/1/4 570/1/4 575/1/4
f 574/5/4 569/5/4 575/5/4
f 570/5/4 571/5/4 576/5/4
f 575/1/4 570/1/4 576/1/4
f 571/3/4 521/3/4 577/3/4
f 576/5/4 571/5/4 577/5/4
f 575/5/4 576/5/4 578/5/4
f 574/3/4 575/3/4 578/3/4
f 576/3/4 577/3/4 579/3/4
f 578/5/4 576/5/4 579/5/4
f 577/3/4 521/3/4 580/3/4
f 579/3/4 577/3/4 580/3/4
f 578/3/4 579/3/4 580/3/4
f 521/5/4 515/5/4 581/5/4
f 580/3/4 521/3/4 581/3/4
f 572/6/4 573/6/4 582/6/4
f 573/4/4 518/4/4 583/4/4
f 582/6/4 573/6/4 583/6/4
f 578/3/4 580/3/4 584/3/4
f 583/4/4 518/4/4 584/4/4
f 518/3/4 574/3/4 584/3/4
f 574/3/4 578/3/4 584/3/4
f 580/5/4 581/5/4 585/5/4
f 584/3/4 580/3/4 585/3/4
f 583/4/4 584/4/4 586/4/4
f 584/5/4 585/5/4 587/5/4
f 586/4/4 584/4/4 587/4/4
f 581/5/4 515/5/4 588/5/4
f 587/5/4 585/5/4 588/5/4
f 585/5/4 581/5/4 588/5/4
f 594/6/5 590/6/5 589/6/5
f 595/6/5 590/6/5 594/6/5
f 596/6/5 592/6/5 591/6/5
f 597/6/5 592/6/5 596/6/5
f 599/4/5 595/4/5 594/4/5
f 599/4/5 598/4/5 597/4/5
f 599/4/5 597/4/5 596/4/5
f 599/4/5 596/4/5 595/4/5
f 599/4/5 594/4/5 593/4/5
f 600/4/5 598/4/5 599/4/5
f 601/4/5 599/4/5 593/4/5
f 602/3/5 600/3/5 599/3/5
f 602/4/5 599/4/5 601/4/5
f 603/4/5 598/4/5 600/4/5
f 603/3/5 600/3/5 602/3/5
f 604/4/5 598/4/5 603/4/5
f 605/3/5 602/3/5 601/3/5
f 605/4/5 601/4/5 593/4/5
f 605/3/5 604/3/5 603/3/5
f 605/3/5 603/3/5 602/3/5
f 606/3/5 604/3/5 605/3/5
f 607/3/5 604/3/5 606/3/5
f 608/4/5 598/4/5 604/4/5
f 608/3/5 604/3/5 607/3/5
f 609/3/5 607/3/5 606/3/5
f 609/4/5 606/4/5 605/4/5
f 610/4/5 608/4/5 607/4/5
f 610/3/5 607/3/5 609/3/5
f 611/4/5 605/4/5 593/4/5
f 611/4/5 609/4/5 605/4/5
f 611/4/5 610/4/5 609/4/5
f 612/4/5 610/4/5 611/4/5
f 613/4/5 610/4/5 612/4/5
f 614/4/5 610/4/5 613/4/5
f 615/4/5 598/4/5 608/4/5
f 615/4/5 610/4/5 614/4/5
f 615/4/5 608/4/5 610/4/5
f 616/4/5 598/4/5 615/4/5
f 617/6/5 613/6/5 612/6/5
f 618/6/5 613/6/5 617/6/5
f 619/6/5 615/6/5 614/6/5
f 620/6/5 615/6/5 619/6/5
f 628/4/5 622/4/5 621/4/5
f 629/4/5 622/4/5 628/4/5
f 630/4/5 624/4/5 623/4/5
f 631/4/5 624/4/5 630/4/5
f 632/4/5 626/4/5 625/4/5
f 633/4/5 626/4/5 632/4/5
f 635/4/5 628/4/5 627/4/5
f 636/4/5 628/4/5 635/4/5
f 641/4/5 634/4/5 633/4/5
f 642/4/5 634/4/5 641/4/5
f 643/4/5 637/4/5 636/4/5
f 644/4/5 637/4/5 643/4/5
f 645/4/5 639/4/5 638/4/5
f 646/4/5 639/4/5 645/4/5
f 647/4/5 641/4/5 640/4/5
f 648/4/5 641/4/5 647/4/5
f 649/3/6 650/3/6 656/3/6
f 653/3/6 654/3/6 656/3/6
f 652/3/6 653/3/6 656/3/6
f 651/3/6 652/3/6 656/3/6
f 650/3/6 651/3/6 656/3/6
f 656/3/6 654/3/6 657/3/6
f 655/3/6 656/3/6 659/3/6
f 657/3/6 658/3/6 659/3/6
f 656/3/6 657/3/6 659/3/6
f 659/3/6 658/3/6 660/3/6
f 655/3/6 659/3/6 661/3/6
f 660/3/6 658/3/6 662/3/6
f 661/3/6 659/3/6 663/3/6
f 660/3/6 662/3/6 664/3/6
f 659/5/6 660/5/6 665/5/6
f 663/3/6 659/3/6 665/3/6
f 660/3/6 664/3/6 666/3/6
f 665/5/6 660/5/6 666/5/6
f 663/3/6 665/3/6 667/3/6
f 665/3/6 666/3/6 667/3/6
f 667/3/6 666/3/6 668/3/6
f 666/3/6 664/3/6 669/3/6
f 668/3/6 666/3/6 669/3/6
f 669/3/6 664/3/6 670/3/6
f 668/3/6 669/3/6 671/3/6
f 671/3/6 669/3/6 672/3/6
f 672/3/6 669/3/6 673/3/6
f 673/3/6 669/3/6 674/3/6
f 674/3/6 669/3/6 675/3/6
f 675/3/6 669/3/6 676/3/6
f 676/3/6 669/3/6 677/3/6
f 677/3/6 669/3/6 678/3/6
f 679/5/6 680/5/6 682/5/6
f 682/5/6 680/5/6 683/5/6
f 683/5/6 680/5/6 684/5/6
f 684/5/6 680/5/6 685/5/6
f 681/5/6 682/5/6 687/5/6
f 682/3/6 683/3/6 687/3/6
f 687/3/6 683/3/6 688/3/6
f 684/3/6 685/3/6 689/3/6
f 685/5/6 686/5/6 690/5/6
f 689/3/6 685/3/6 690/3/6
f 681/5/6 687/5/6 691/5/6
f 690/5/6 686/5/6 694/5/6
f 681/5/6 691/5/6 695/5/6
f 691/3/6 692/3/6 696/3/6
f 695/5/6 691/5/6 696/5/6
f 696/3/6 692/3/6 697/3/6
f 693/3/6 694/3/6 698/3/6
f 694/5/6 686/5/6 699/5/6
f 698/3/6 694/3/6 699/3/6
f 699/5/6 686/5/6 700/5/6
f 696/5/6 697/5/6 701/5/6
f 697/5/6 698/5/6 701/5/6
f 698/5/6 699/5/6 701/5/6
f 701/5/6 699/5/6 702/5/6
