# MagicaVoxel @ Ephtracy

# group
o 

# material
mtllib MiningTools.mtl
usemtl palette

# normals
vn -1 0 0
vn 1 0 0
vn 0 0 1
vn 0 0 -1
vn 0 -1 0
vn 0 1 0

# texcoords
vt 0.533203 0.5
vt 0.537109 0.5
vt 0.978516 0.5
vt 0.982422 0.5
vt 0.990234 0.5
vt 0.994141 0.5

# verts
v -1.7 0 1.5
v -1.7 0 1.4
v -1.7 0 1
v -1.7 0 0.9
v -1.7 0.1 1.4
v -1.7 0.1 1
v -1.7 0.2 1.5
v -1.7 0.2 1.4
v -1.7 0.2 1
v -1.7 0.2 0.9
v -1.6 0.1 1.4
v -1.6 0.1 1.3
v -1.6 0.1 1.1
v -1.6 0.1 1
v -1.6 0.2 1.4
v -1.6 0.2 1.3
v -1.6 0.2 1.1
v -1.6 0.2 1
v -1.5 0 1.3
v -1.5 0 1.1
v -1.5 0.1 1.1
v -1.5 0.2 1.3
v -1.5 0.2 1.1
v -1.1 0 -1.4
v -1.1 0 -1.5
v -1.1 0 -1.6
v -1.1 0.1 -1.4
v -1.1 0.1 -1.5
v -1.1 0.1 -1.6
v -1 0 -1.6
v -1 0 -1.7
v -1 0.1 -1.6
v -1 0.1 -1.7
v -0.9 0 -1.7
v -0.9 0 -1.8
v -0.9 0.1 -1.7
v -0.9 0.1 -1.8
v -0.7 0 -1.8
v -0.7 0 -1.9
v -0.7 0.1 -1.8
v -0.7 0.1 -1.9
v -0.6 0.1 -1.7
v -0.6 0.1 -1.8
v -0.6 0.2 -1.7
v -0.6 0.2 -1.8
v -0.5 0.1 1.2
v -0.5 0.1 1.1
v -0.5 0.2 1.2
v -0.5 0.2 1.1
v -0.4 0 -1.9
v -0.4 0 -2
v -0.4 0.1 -1.8
v -0.4 0.1 -1.9
v -0.4 0.1 -2
v -0.4 0.2 -1.8
v -0.4 0.2 -1.9
v -0.1 0 0.5
v -0.1 0 -0.4
v -0.1 0 -0.8
v -0.1 0 -1.2
v -0.1 0 -1.5
v -0.1 0 -1.8
v -0.1 0.1 0.2
v -0.1 0.1 -0.0999999
v -0.1 0.1 -0.4
v -0.1 0.1 -0.7
v -0.1 0.1 -0.8
v -0.1 0.1 -1.2
v -0.1 0.1 -1.5
v -0.1 0.1 -1.8
v -0.1 0.2 0.5
v -0.1 0.2 0.2
v -0.1 0.2 -0.0999999
v -0.1 0.2 -0.7
v 0 0.1 -0.7
v 0 0.1 -0.8
v 0 0.1 -0.9
v 0 0.1 -1.2
v 0 0.1 -1.5
v 0 0.1 -1.8
v 0 0.2 -0.7
v 0 0.2 -0.9
v 0 0.2 -1.2
v 0 0.2 -1.8
v 0.4 0 -1.7
v 0.4 0 -1.8
v 0.4 0.1 -1.7
v 0.4 0.1 -1.8
v 0.4 0.2 -1.7
v 0.4 0.2 -1.8
v 0.6 0.1 1.3
v 0.6 0.1 1.1
v 0.6 0.2 1.3
v 0.6 0.2 1.1
v 0.7 0 1.8
v 0.7 0 1.3
v 0.7 0 1.1
v 0.7 0 0.6
v 0.7 0 -1.6
v 0.7 0 -1.7
v 0.7 0.1 1.7
v 0.7 0.1 1.6
v 0.7 0.1 1.3
v 0.7 0.1 1.1
v 0.7 0.1 0.9
v 0.7 0.1 0.7
v 0.7 0.1 -1.6
v 0.7 0.1 -1.7
v 0.7 0.2 1.8
v 0.7 0.2 1.7
v 0.7 0.2 1.6
v 0.7 0.2 1.3
v 0.7 0.2 1.1
v 0.7 0.2 0.9
v 0.7 0.2 0.7
v 0.7 0.2 0.6
v 0.9 0 -1.5
v 0.9 0 -1.6
v 0.9 0.1 -1.5
v 0.9 0.1 -1.6
v 1 0 -1.4
v 1 0 -1.5
v 1 0.1 1.7
v 1 0.1 1.6
v 1 0.1 0.8
v 1 0.1 0.7
v 1 0.1 -1.4
v 1 0.1 -1.5
v 1 0.2 1.7
v 1 0.2 1.6
v 1 0.2 0.8
v 1 0.2 0.7
v -1.6 0 1.5
v -1.6 0 1.4
v -1.6 0 1.3
v -1.6 0 1.1
v -1.6 0 1
v -1.6 0 0.9
v -1.6 0.1 1.3
v -1.6 0.1 1.1
v -1.6 0.1 1
v -1.6 0.2 1.5
v -1.6 0.2 1.4
v -1.6 0.2 1
v -1.6 0.2 0.9
v -1.5 0 1.4
v -1.5 0 1.3
v -1.5 0 1.1
v -1.5 0 1
v -1.5 0.1 1.1
v -1.5 0.1 1
v -1.5 0.2 1.4
v -1.5 0.2 1.3
v -1.5 0.2 1.1
v -1.5 0.2 1
v -1.4 0.1 1.2
v -1.4 0.1 1.1
v -1.4 0.2 1.2
v -1.4 0.2 1.1
v -1 0 -1.4
v -1 0 -1.5
v -1 0.1 -1.4
v -1 0.1 -1.5
v -0.9 0 -1.5
v -0.9 0 -1.6
v -0.9 0.1 -1.5
v -0.9 0.1 -1.6
v -0.7 0 -1.6
v -0.7 0 -1.7
v -0.7 0.1 -1.6
v -0.7 0.1 -1.7
v -0.5 0.1 1.3
v -0.5 0.1 1.2
v -0.5 0.2 1.3
v -0.5 0.2 1.2
v -0.4 0 -1.7
v -0.4 0 -1.8
v -0.4 0.1 -1.7
v -0.4 0.1 -1.8
v -0.4 0.2 -1.7
v -0.4 0.2 -1.8
v 0 0.1 0.5
v 0 0.1 0.2
v 0 0.1 -0.0999999
v 0 0.1 -0.3
v 0 0.1 -0.4
v 0 0.1 -0.7
v 0 0.2 0.5
v 0 0.2 0.2
v 0 0.2 -0.0999999
v 0 0.2 -0.7
v 0.0999999 0 0.5
v 0.0999999 0 0.2
v 0.0999999 0 -0.3
v 0.0999999 0 -0.4
v 0.0999999 0 -1.8
v 0.0999999 0.1 0.5
v 0.0999999 0.1 0.2
v 0.0999999 0.1 -0.3
v 0.0999999 0.1 -0.4
v 0.0999999 0.1 -0.7
v 0.0999999 0.1 -0.9
v 0.0999999 0.1 -1.2
v 0.0999999 0.1 -1.8
v 0.0999999 0.2 -0.7
v 0.0999999 0.2 -0.9
v 0.0999999 0.2 -1.2
v 0.0999999 0.2 -1.8
v 0.4 0 -1.9
v 0.4 0 -2
v 0.4 0.1 1.2
v 0.4 0.1 1.1
v 0.4 0.1 -1.8
v 0.4 0.1 -1.9
v 0.4 0.1 -2
v 0.4 0.2 1.2
v 0.4 0.2 1.1
v 0.4 0.2 -1.8
v 0.4 0.2 -1.9
v 0.6 0.1 -1.7
v 0.6 0.1 -1.8
v 0.6 0.2 -1.7
v 0.6 0.2 -1.8
v 0.7 0 -1.8
v 0.7 0 -1.9
v 0.7 0.1 1.3
v 0.7 0.1 1.1
v 0.7 0.1 -1.8
v 0.7 0.1 -1.9
v 0.7 0.2 1.3
v 0.7 0.2 1.1
v 0.8 0.1 1.7
v 0.8 0.1 1.6
v 0.8 0.1 1.5
v 0.8 0.1 1.3
v 0.8 0.1 1.1
v 0.8 0.1 0.9
v 0.8 0.1 0.7
v 0.8 0.2 1.7
v 0.8 0.2 1.6
v 0.8 0.2 1.3
v 0.8 0.2 1.1
v 0.8 0.2 0.9
v 0.8 0.2 0.7
v 0.9 0 -1.7
v 0.9 0 -1.8
v 0.9 0.1 -1.7
v 0.9 0.1 -1.8
v 1 0 1.8
v 1 0 1.7
v 1 0 0.7
v 1 0 0.6
v 1 0 -1.6
v 1 0 -1.7
v 1 0.1 -1.6
v 1 0.1 -1.7
v 1 0.2 1.8
v 1 0.2 1.7
v 1 0.2 0.7
v 1 0.2 0.6
v 1.1 0 -1.4
v 1.1 0 -1.5
v 1.1 0 -1.6
v 1.1 0.1 -1.4
v 1.1 0.1 -1.5
v 1.1 0.1 -1.6
v 1.3 0.1 1.7
v 1.3 0.1 1.6
v 1.3 0.1 0.8
v 1.3 0.1 0.7
v 1.3 0.2 1.7
v 1.3 0.2 1.6
v 1.3 0.2 0.8
v 1.3 0.2 0.7
v 1.7 0 1.7
v 1.7 0 1.6
v 1.7 0 0.8
v 1.7 0 0.7
v 1.7 0.1 1.7
v 1.7 0.1 1.6
v 1.7 0.1 0.8
v 1.7 0.1 0.7
v 1.8 0 1.6
v 1.8 0 0.9
v 1.8 0 0.8
v 1.8 0.1 1.6
v 1.8 0.1 0.9
v 1.8 0.1 0.8
v 0.7 0 1.8
v 0.7 0.2 1.8
v 0.8 0.1 1.8
v 0.8 0.2 1.8
v 0.9 0.1 1.8
v 0.9 0.2 1.8
v 1 0 1.8
v 1 0.2 1.8
v 1 0 1.7
v 1 0.2 1.7
v 1.3 0.1 1.7
v 1.3 0.2 1.7
v 1.7 0 1.7
v 1.7 0.1 1.7
v 1.7 0 1.6
v 1.7 0.1 1.6
v 1.8 0 1.6
v 1.8 0.1 1.6
v -1.7 0 1.5
v -1.7 0.2 1.5
v -1.6 0 1.5
v -1.6 0.2 1.5
v -1.6 0 1.4
v -1.6 0.2 1.4
v -1.5 0 1.4
v -1.5 0.2 1.4
v -1.5 0 1.3
v -1.5 0.2 1.3
v -1.4 0 1.3
v -1.4 0.1 1.3
v -1.4 0.2 1.3
v -1.1 0 1.3
v -1.1 0.1 1.3
v -1 0.1 1.3
v -1 0.2 1.3
v -0.7 0 1.3
v -0.7 0.1 1.3
v -0.5 0.1 1.3
v -0.5 0.2 1.3
v 0.0999999 0 1.3
v 0.0999999 0.1 1.3
v 0.4 0 1.3
v 0.4 0.1 1.3
v 0.6 0.1 1.3
v 0.6 0.2 1.3
v 0.7 0 1.3
v 0.7 0.1 1.3
v 0.7 0.2 1.3
v -0.5 0.1 1.2
v -0.5 0.2 1.2
v -0.2 0.1 1.2
v -0.2 0.2 1.2
v 0.0999999 0.1 1.2
v 0.0999999 0.2 1.2
v 0.4 0.1 1.2
v 0.4 0.2 1.2
v -1.6 0 1.1
v -1.6 0.1 1.1
v -1.6 0.2 1.1
v -1.5 0 1.1
v -1.5 0.1 1.1
v -1.5 0.2 1.1
v 0.7 0.1 1.1
v 0.7 0.2 1.1
v 0.8 0.1 1.1
v 0.8 0.2 1.1
v -1.7 0.1 1
v -1.7 0.2 1
v -1.6 0.1 1
v -1.6 0.2 1
v 1 0.1 0.8
v 1 0.2 0.8
v 1.3 0.1 0.8
v 1.3 0.2 0.8
v 0.8 0.1 0.7
v 0.8 0.2 0.7
v 1 0.1 0.7
v 1 0.2 0.7
v -0.1 0 0.5
v -0.1 0.2 0.5
v 0 0 0.5
v 0 0.1 0.5
v 0 0.2 0.5
v 0.0999999 0 0.5
v 0.0999999 0.1 0.5
v 0 0.1 -0.7
v 0 0.2 -0.7
v 0.0999999 0.1 -0.7
v 0.0999999 0.2 -0.7
v -1.1 0 -1.4
v -1.1 0.1 -1.4
v -1 0 -1.4
v -1 0.1 -1.4
v 1 0 -1.4
v 1 0.1 -1.4
v 1.1 0 -1.4
v 1.1 0.1 -1.4
v -1 0 -1.5
v -1 0.1 -1.5
v -0.9 0 -1.5
v -0.9 0.1 -1.5
v 0.9 0 -1.5
v 0.9 0.1 -1.5
v 1 0 -1.5
v 1 0.1 -1.5
v -0.9 0 -1.6
v -0.9 0.1 -1.6
v -0.7 0 -1.6
v -0.7 0.1 -1.6
v 0.7 0 -1.6
v 0.7 0.1 -1.6
v 0.9 0 -1.6
v 0.9 0.1 -1.6
v -0.7 0 -1.7
v -0.7 0.1 -1.7
v -0.6 0.1 -1.7
v -0.6 0.2 -1.7
v -0.5 0 -1.7
v -0.5 0.1 -1.7
v -0.5 0.2 -1.7
v -0.4 0 -1.7
v -0.4 0.1 -1.7
v -0.4 0.2 -1.7
v 0.4 0 -1.7
v 0.4 0.1 -1.7
v 0.4 0.2 -1.7
v 0.5 0 -1.7
v 0.5 0.1 -1.7
v 0.6 0.1 -1.7
v 0.6 0.2 -1.7
v 0.7 0 -1.7
v 0.7 0.1 -1.7
v -0.4 0 -1.8
v -0.4 0.1 -1.8
v -0.4 0.2 -1.8
v -0.3 0 -1.8
v -0.3 0.1 -1.8
v -0.3 0.2 -1.8
v -0.1 0 -1.8
v -0.1 0.1 -1.8
v -0.1 0.2 -1.8
v 0 0.1 -1.8
v 0 0.2 -1.8
v 0.0999999 0 -1.8
v 0.0999999 0.1 -1.8
v 0.0999999 0.2 -1.8
v 0.3 0 -1.8
v 0.3 0.1 -1.8
v 0.4 0 -1.8
v 0.4 0.1 -1.8
v 0.4 0.2 -1.8
v 0.8 0.1 1.7
v 0.8 0.2 1.7
v 0.9 0.1 1.7
v 0.9 0.2 1.7
v 1 0.1 1.7
v 1 0.2 1.7
v 1 0.1 1.6
v 1 0.2 1.6
v 1.3 0.1 1.6
v 1.3 0.2 1.6
v -1.7 0.1 1.4
v -1.7 0.2 1.4
v -1.6 0.1 1.4
v -1.6 0.2 1.4
v -1.6 0 1.3
v -1.6 0.1 1.3
v -1.6 0.2 1.3
v -1.5 0 1.3
v -1.5 0.2 1.3
v 0.7 0.1 1.3
v 0.7 0.2 1.3
v 0.8 0.1 1.3
v 0.8 0.2 1.3
v -1.4 0.1 1.2
v -1.4 0.2 1.2
v -1 0.1 1.2
v -1 0.2 1.2
v -0.7 0.1 1.2
v -0.5 0.1 1.2
v -0.5 0.2 1.2
v -1.5 0 1.1
v -1.5 0.1 1.1
v -1.5 0.2 1.1
v -1.4 0 1.1
v -1.4 0.1 1.1
v -1.4 0.2 1.1
v -0.7 0 1.1
v -0.7 0.1 1.1
v -0.5 0.1 1.1
v -0.5 0.2 1.1
v -0.4 0 1.1
v -0.4 0.1 1.1
v -0.2 0.1 1.1
v -0.2 0.2 1.1
v 0.0999999 0.1 1.1
v 0.0999999 0.2 1.1
v 0.4 0.1 1.1
v 0.4 0.2 1.1
v 0.6 0.1 1.1
v 0.6 0.2 1.1
v 0.7 0 1.1
v 0.7 0.1 1.1
v 0.7 0.2 1.1
v -1.6 0 1
v -1.6 0.1 1
v -1.6 0.2 1
v -1.5 0 1
v -1.5 0.1 1
v -1.5 0.2 1
v -1.7 0 0.9
v -1.7 0.2 0.9
v -1.6 0 0.9
v -1.6 0.2 0.9
v 1.7 0 0.8
v 1.7 0.1 0.8
v 1.8 0 0.8
v 1.8 0.1 0.8
v 1 0 0.7
v 1 0.2 0.7
v 1.3 0.1 0.7
v 1.3 0.2 0.7
v 1.6 0 0.7
v 1.6 0.1 0.7
v 1.7 0 0.7
v 1.7 0.1 0.7
v 0.7 0 0.6
v 0.7 0.2 0.6
v 1 0 0.6
v 1 0.2 0.6
v -0.1 0.1 -0.7
v -0.1 0.2 -0.7
v 0 0.1 -0.7
v 0 0.2 -0.7
v -1.1 0 -1.6
v -1.1 0.1 -1.6
v -1 0 -1.6
v -1 0.1 -1.6
v 1 0 -1.6
v 1 0.1 -1.6
v 1.1 0 -1.6
v 1.1 0.1 -1.6
v -1 0 -1.7
v -1 0.1 -1.7
v -0.9 0 -1.7
v -0.9 0.1 -1.7
v 0.9 0 -1.7
v 0.9 0.1 -1.7
v 1 0 -1.7
v 1 0.1 -1.7
v -0.9 0 -1.8
v -0.9 0.1 -1.8
v -0.7 0 -1.8
v -0.7 0.1 -1.8
v -0.6 0.1 -1.8
v -0.6 0.2 -1.8
v -0.5 0.1 -1.8
v -0.5 0.2 -1.8
v -0.4 0.1 -1.8
v -0.4 0.2 -1.8
v 0.4 0.1 -1.8
v 0.4 0.2 -1.8
v 0.5 0.1 -1.8
v 0.6 0.1 -1.8
v 0.6 0.2 -1.8
v 0.7 0 -1.8
v 0.7 0.1 -1.8
v 0.9 0 -1.8
v 0.9 0.1 -1.8
v -0.7 0 -1.9
v -0.7 0.1 -1.9
v -0.5 0 -1.9
v -0.5 0.1 -1.9
v -0.4 0 -1.9
v -0.4 0.1 -1.9
v -0.4 0.2 -1.9
v -0.3 0.1 -1.9
v -0.3 0.2 -1.9
v -0.1 0.1 -1.9
v -0.1 0.2 -1.9
v 0.4 0 -1.9
v 0.4 0.1 -1.9
v 0.4 0.2 -1.9
v 0.5 0 -1.9
v 0.5 0.1 -1.9
v 0.7 0 -1.9
v 0.7 0.1 -1.9
v -0.4 0 -2
v -0.4 0.1 -2
v 0.4 0 -2
v 0.4 0.1 -2
v 0.7 0 1.8
v 1 0 1.8
v 0.8 0 1.7
v 1 0 1.7
v 1.7 0 1.7
v 1 0 1.6
v 1.6 0 1.6
v 1.7 0 1.6
v 1.8 0 1.6
v -1.7 0 1.5
v -1.6 0 1.5
v 0.8 0 1.5
v 1.5 0 1.5
v 1.6 0 1.5
v 1.7 0 1.5
v -1.7 0 1.4
v -1.6 0 1.4
v -1.5 0 1.4
v 1.5 0 1.4
v 1.6 0 1.4
v -1.6 0 1.3
v -1.5 0 1.3
v -1.4 0 1.3
v -1.1 0 1.3
v -0.7 0 1.3
v 0.0999999 0 1.3
v 0.4 0 1.3
v 0.7 0 1.3
v 0.8 0 1.3
v -1.1 0 1.2
v -0.7 0 1.2
v -0.4 0 1.2
v 0.0999999 0 1.2
v 0.4 0 1.2
v -1.6 0 1.1
v -1.5 0 1.1
v -1.4 0 1.1
v -0.7 0 1.1
v -0.4 0 1.1
v 0.7 0 1.1
v 0.8 0 1.1
v -1.7 0 1
v -1.6 0 1
v -1.5 0 1
v 1.5 0 1
v 1.6 0 1
v -1.7 0 0.9
v -1.6 0 0.9
v 0.8 0 0.9
v 1.5 0 0.9
v 1.6 0 0.9
v 1.7 0 0.9
v 1.8 0 0.9
v 1 0 0.8
v 1.6 0 0.8
v 1.7 0 0.8
v 1.8 0 0.8
v 0.8 0 0.7
v 1 0 0.7
v 1.6 0 0.7
v 1.7 0 0.7
v 0.7 0 0.6
v 1 0 0.6
v -0.1 0 0.5
v 0 0 0.5
v 0.0999999 0 0.5
v 0 0 0.2
v 0.0999999 0 0.2
v 0 0 -0.3
v 0.0999999 0 -0.3
v -0.1 0 -0.4
v 0 0 -0.4
v 0.0999999 0 -0.4
v -0.1 0 -0.8
v 0 0 -0.8
v -0.1 0 -1.2
v 0 0 -1.2
v -1.1 0 -1.4
v -1 0 -1.4
v 1 0 -1.4
v 1.1 0 -1.4
v -1.1 0 -1.5
v -1 0 -1.5
v -0.9 0 -1.5
v -0.1 0 -1.5
v 0 0 -1.5
v 0.9 0 -1.5
v 1 0 -1.5
v 1.1 0 -1.5
v -1.1 0 -1.6
v -1 0 -1.6
v -0.9 0 -1.6
v -0.7 0 -1.6
v 0.7 0 -1.6
v 0.9 0 -1.6
v 1 0 -1.6
v 1.1 0 -1.6
v -1 0 -1.7
v -0.9 0 -1.7
v -0.7 0 -1.7
v -0.5 0 -1.7
v -0.4 0 -1.7
v 0.4 0 -1.7
v 0.5 0 -1.7
v 0.7 0 -1.7
v 0.9 0 -1.7
v 1 0 -1.7
v -0.9 0 -1.8
v -0.7 0 -1.8
v -0.5 0 -1.8
v -0.4 0 -1.8
v -0.3 0 -1.8
v -0.1 0 -1.8
v 0.0999999 0 -1.8
v 0.3 0 -1.8
v 0.4 0 -1.8
v 0.5 0 -1.8
v 0.7 0 -1.8
v 0.9 0 -1.8
v -0.7 0 -1.9
v -0.5 0 -1.9
v -0.4 0 -1.9
v -0.3 0 -1.9
v -0.1 0 -1.9
v 0.0999999 0 -1.9
v 0.3 0 -1.9
v 0.4 0 -1.9
v 0.5 0 -1.9
v 0.7 0 -1.9
v -0.4 0 -2
v 0.4 0 -2
v 0.8 0.1 1.7
v 0.9 0.1 1.7
v 1 0.1 1.7
v 1.3 0.1 1.7
v 1.7 0.1 1.7
v 0.8 0.1 1.6
v 1 0.1 1.6
v 1.3 0.1 1.6
v 1.6 0.1 1.6
v 1.7 0.1 1.6
v 1.8 0.1 1.6
v 0.8 0.1 1.5
v 1.5 0.1 1.5
v 1.6 0.1 1.5
v 1.7 0.1 1.5
v -1.7 0.1 1.4
v -1.6 0.1 1.4
v 1.5 0.1 1.4
v 1.6 0.1 1.4
v -1.6 0.1 1.3
v -0.5 0.1 1.3
v 0.0999999 0.1 1.3
v 0.4 0.1 1.3
v 0.6 0.1 1.3
v 0.7 0.1 1.3
v 0.8 0.1 1.3
v -1.4 0.1 1.2
v -1 0.1 1.2
v -0.7 0.1 1.2
v -0.5 0.1 1.2
v -0.2 0.1 1.2
v 0.0999999 0.1 1.2
v 0.4 0.1 1.2
v -1.6 0.1 1.1
v -1.4 0.1 1.1
v -0.7 0.1 1.1
v -0.5 0.1 1.1
v 0.4 0.1 1.1
v 0.6 0.1 1.1
v 0.7 0.1 1.1
v 0.8 0.1 1.1
v -1.7 0.1 1
v -1.6 0.1 1
v 1.5 0.1 1
v 1.6 0.1 1
v 0.8 0.1 0.9
v 1.5 0.1 0.9
v 1.6 0.1 0.9
v 1.7 0.1 0.9
v 1.8 0.1 0.9
v 1 0.1 0.8
v 1.3 0.1 0.8
v 1.6 0.1 0.8
v 1.7 0.1 0.8
v 1.8 0.1 0.8
v 0.8 0.1 0.7
v 1 0.1 0.7
v 1.3 0.1 0.7
v 1.6 0.1 0.7
v 1.7 0.1 0.7
v 0 0.1 0.5
v 0.0999999 0.1 0.5
v 0 0.1 0.2
v 0.0999999 0.1 0.2
v 0 0.1 -0.0999999
v 0 0.1 -0.3
v 0.0999999 0.1 -0.3
v 0 0.1 -0.4
v 0.0999999 0.1 -0.4
v -0.1 0.1 -0.7
v 0 0.1 -0.7
v 0.0999999 0.1 -0.7
v -0.1 0.1 -0.8
v 0 0.1 -0.8
v 0 0.1 -0.9
v -0.1 0.1 -1.2
v 0 0.1 -1.2
v -1.1 0.1 -1.4
v -1 0.1 -1.4
v 1 0.1 -1.4
v 1.1 0.1 -1.4
v -1.1 0.1 -1.5
v -1 0.1 -1.5
v -0.9 0.1 -1.5
v -0.1 0.1 -1.5
v 0 0.1 -1.5
v 0.9 0.1 -1.5
v 1 0.1 -1.5
v 1.1 0.1 -1.5
v -1.1 0.1 -1.6
v -1 0.1 -1.6
v -0.9 0.1 -1.6
v -0.7 0.1 -1.6
v 0.7 0.1 -1.6
v 0.9 0.1 -1.6
v 1 0.1 -1.6
v 1.1 0.1 -1.6
v -1 0.1 -1.7
v -0.9 0.1 -1.7
v -0.7 0.1 -1.7
v -0.6 0.1 -1.7
v 0.6 0.1 -1.7
v 0.7 0.1 -1.7
v 0.9 0.1 -1.7
v 1 0.1 -1.7
v -0.9 0.1 -1.8
v -0.7 0.1 -1.8
v -0.6 0.1 -1.8
v -0.5 0.1 -1.8
v -0.4 0.1 -1.8
v -0.1 0.1 -1.8
v 0 0.1 -1.8
v 0.4 0.1 -1.8
v 0.5 0.1 -1.8
v 0.6 0.1 -1.8
v 0.7 0.1 -1.8
v 0.9 0.1 -1.8
v -0.7 0.1 -1.9
v -0.5 0.1 -1.9
v -0.4 0.1 -1.9
v -0.3 0.1 -1.9
v -0.1 0.1 -1.9
v 0.4 0.1 -1.9
v 0.5 0.1 -1.9
v 0.7 0.1 -1.9
v -0.4 0.1 -2
v 0.4 0.1 -2
v 0.7 0.2 1.8
v 0.8 0.2 1.8
v 0.9 0.2 1.8
v 1 0.2 1.8
v 0.7 0.2 1.7
v 0.8 0.2 1.7
v 0.9 0.2 1.7
v 1 0.2 1.7
v 1.3 0.2 1.7
v 0.7 0.2 1.6
v 0.8 0.2 1.6
v 1 0.2 1.6
v 1.3 0.2 1.6
v -1.7 0.2 1.5
v -1.6 0.2 1.5
v -1.7 0.2 1.4
v -1.6 0.2 1.4
v -1.5 0.2 1.4
v -1.6 0.2 1.3
v -1.5 0.2 1.3
v -1.4 0.2 1.3
v -1 0.2 1.3
v -0.5 0.2 1.3
v 0.6 0.2 1.3
v 0.7 0.2 1.3
v 0.8 0.2 1.3
v -1.4 0.2 1.2
v -1 0.2 1.2
v -0.5 0.2 1.2
v -0.2 0.2 1.2
v 0.0999999 0.2 1.2
v 0.4 0.2 1.2
v -1.6 0.2 1.1
v -1.5 0.2 1.1
v -1.4 0.2 1.1
v -0.5 0.2 1.1
v -0.2 0.2 1.1
v 0.0999999 0.2 1.1
v 0.4 0.2 1.1
v 0.6 0.2 1.1
v 0.7 0.2 1.1
v 0.8 0.2 1.1
v -1.7 0.2 1
v -1.6 0.2 1
v -1.5 0.2 1
v -1.7 0.2 0.9
v -1.6 0.2 0.9
v 0.7 0.2 0.9
v 0.8 0.2 0.9
v 1 0.2 0.8
v 1.3 0.2 0.8
v 0.7 0.2 0.7
v 0.8 0.2 0.7
v 1 0.2 0.7
v 1.3 0.2 0.7
v 0.7 0.2 0.6
v 1 0.2 0.6
v -0.1 0.2 0.5
v 0 0.2 0.5
v -0.1 0.2 0.2
v 0 0.2 0.2
v -0.1 0.2 -0.0999999
v 0 0.2 -0.0999999
v -0.1 0.2 -0.7
v 0 0.2 -0.7
v 0.0999999 0.2 -0.7
v 0 0.2 -0.9
v 0.0999999 0.2 -0.9
v 0 0.2 -1.2
v 0.0999999 0.2 -1.2
v -0.6 0.2 -1.7
v -0.5 0.2 -1.7
v -0.4 0.2 -1.7
v 0.4 0.2 -1.7
v 0.6 0.2 -1.7
v -0.6 0.2 -1.8
v -0.5 0.2 -1.8
v -0.4 0.2 -1.8
v -0.3 0.2 -1.8
v -0.1 0.2 -1.8
v 0 0.2 -1.8
v 0.0999999 0.2 -1.8
v 0.4 0.2 -1.8
v 0.6 0.2 -1.8
v -0.4 0.2 -1.9
v -0.3 0.2 -1.9
v -0.1 0.2 -1.9
v 0.4 0.2 -1.9

# faces
f 5/4/1 2/4/1 1/4/1
f 5/5/1 3/5/1 2/5/1
f 6/4/1 4/4/1 3/4/1
f 6/5/1 3/5/1 5/5/1
f 7/4/1 5/4/1 1/4/1
f 8/4/1 5/4/1 7/4/1
f 9/4/1 4/4/1 6/4/1
f 10/4/1 4/4/1 9/4/1
f 15/4/1 12/4/1 11/4/1
f 16/4/1 12/4/1 15/4/1
f 17/3/1 14/3/1 13/3/1
f 18/3/1 14/3/1 17/3/1
f 21/4/1 20/4/1 19/4/1
f 22/4/1 21/4/1 19/4/1
f 23/4/1 21/4/1 22/4/1
f 27/5/1 25/5/1 24/5/1
f 28/4/1 26/4/1 25/4/1
f 28/5/1 25/5/1 27/5/1
f 29/4/1 26/4/1 28/4/1
f 32/4/1 31/4/1 30/4/1
f 33/4/1 31/4/1 32/4/1
f 36/4/1 35/4/1 34/4/1
f 37/4/1 35/4/1 36/4/1
f 40/4/1 39/4/1 38/4/1
f 41/4/1 39/4/1 40/4/1
f 44/3/1 43/3/1 42/3/1
f 45/3/1 43/3/1 44/3/1
f 48/1/1 47/1/1 46/1/1
f 49/1/1 47/1/1 48/1/1
f 53/5/1 51/5/1 50/5/1
f 54/5/1 51/5/1 53/5/1
f 55/4/1 53/4/1 52/4/1
f 56/4/1 53/4/1 55/4/1
f 63/1/1 58/1/1 57/1/1
f 64/1/1 58/1/1 63/1/1
f 65/2/1 59/2/1 58/2/1
f 65/1/1 58/1/1 64/1/1
f 66/2/1 59/2/1 65/2/1
f 67/1/1 60/1/1 59/1/1
f 67/2/1 59/2/1 66/2/1
f 68/2/1 61/2/1 60/2/1
f 68/1/1 60/1/1 67/1/1
f 69/1/1 62/1/1 61/1/1
f 69/2/1 61/2/1 68/2/1
f 70/1/1 62/1/1 69/1/1
f 71/1/1 63/1/1 57/1/1
f 72/2/1 64/2/1 63/2/1
f 72/1/1 63/1/1 71/1/1
f 73/1/1 66/1/1 65/1/1
f 73/2/1 64/2/1 72/2/1
f 73/1/1 65/1/1 64/1/1
f 74/1/1 66/1/1 73/1/1
f 81/1/1 76/1/1 75/1/1
f 81/1/1 77/1/1 76/1/1
f 82/2/1 78/2/1 77/2/1
f 82/1/1 77/1/1 81/1/1
f 83/1/1 80/1/1 79/1/1
f 83/2/1 78/2/1 82/2/1
f 83/1/1 79/1/1 78/1/1
f 84/1/1 80/1/1 83/1/1
f 87/6/1 86/6/1 85/6/1
f 88/6/1 86/6/1 87/6/1
f 89/4/1 88/4/1 87/4/1
f 90/4/1 88/4/1 89/4/1
f 93/4/1 92/4/1 91/4/1
f 94/4/1 92/4/1 93/4/1
f 101/4/1 96/4/1 95/4/1
f 102/4/1 96/4/1 101/4/1
f 103/4/1 96/4/1 102/4/1
f 104/4/1 98/4/1 97/4/1
f 105/4/1 98/4/1 104/4/1
f 106/4/1 98/4/1 105/4/1
f 107/5/1 100/5/1 99/5/1
f 108/5/1 100/5/1 107/5/1
f 109/4/1 101/4/1 95/4/1
f 110/3/1 102/3/1 101/3/1
f 110/4/1 101/4/1 109/4/1
f 111/4/1 103/4/1 102/4/1
f 111/3/1 102/3/1 110/3/1
f 112/4/1 103/4/1 111/4/1
f 113/4/1 105/4/1 104/4/1
f 114/3/1 106/3/1 105/3/1
f 114/4/1 105/4/1 113/4/1
f 115/4/1 98/4/1 106/4/1
f 115/3/1 106/3/1 114/3/1
f 116/4/1 98/4/1 115/4/1
f 119/5/1 118/5/1 117/5/1
f 120/5/1 118/5/1 119/5/1
f 127/5/1 122/5/1 121/5/1
f 128/5/1 122/5/1 127/5/1
f 129/4/1 124/4/1 123/4/1
f 130/4/1 124/4/1 129/4/1
f 131/4/1 126/4/1 125/4/1
f 132/4/1 126/4/1 131/4/1
f 135/5/2 136/5/2 139/5/2
f 139/5/2 136/5/2 140/5/2
f 137/4/2 138/4/2 141/4/2
f 133/4/2 134/4/2 142/4/2
f 142/4/2 134/4/2 143/4/2
f 141/4/2 138/4/2 144/4/2
f 144/4/2 138/4/2 145/4/2
f 148/4/2 149/4/2 150/4/2
f 150/4/2 149/4/2 151/4/2
f 146/4/2 147/4/2 152/4/2
f 152/4/2 147/4/2 153/4/2
f 150/3/2 151/3/2 154/3/2
f 154/3/2 151/3/2 155/3/2
f 156/4/2 157/4/2 158/4/2
f 158/4/2 157/4/2 159/4/2
f 160/5/2 161/5/2 162/5/2
f 162/5/2 161/5/2 163/5/2
f 164/5/2 165/5/2 166/5/2
f 166/5/2 165/5/2 167/5/2
f 168/5/2 169/5/2 170/5/2
f 170/5/2 169/5/2 171/5/2
f 172/1/2 173/1/2 174/1/2
f 174/1/2 173/1/2 175/1/2
f 176/6/2 177/6/2 178/6/2
f 178/6/2 177/6/2 179/6/2
f 178/4/2 179/4/2 180/4/2
f 180/4/2 179/4/2 181/4/2
f 182/1/2 183/1/2 188/1/2
f 183/2/2 184/2/2 189/2/2
f 188/1/2 183/1/2 189/1/2
f 186/1/2 187/1/2 190/1/2
f 189/2/2 184/2/2 190/2/2
f 184/1/2 185/1/2 190/1/2
f 185/1/2 186/1/2 190/1/2
f 190/1/2 187/1/2 191/1/2
f 192/2/2 193/2/2 197/2/2
f 193/1/2 194/1/2 198/1/2
f 197/2/2 193/2/2 198/2/2
f 194/2/2 195/2/2 199/2/2
f 198/1/2 194/1/2 199/1/2
f 195/1/2 196/1/2 200/1/2
f 199/2/2 195/2/2 200/2/2
f 200/1/2 196/1/2 201/1/2
f 201/1/2 196/1/2 202/1/2
f 202/1/2 196/1/2 203/1/2
f 203/1/2 196/1/2 204/1/2
f 201/1/2 202/1/2 205/1/2
f 202/2/2 203/2/2 206/2/2
f 205/1/2 202/1/2 206/1/2
f 203/1/2 204/1/2 207/1/2
f 206/2/2 203/2/2 207/2/2
f 207/1/2 204/1/2 208/1/2
f 209/5/2 210/5/2 214/5/2
f 214/5/2 210/5/2 215/5/2
f 211/1/2 212/1/2 216/1/2
f 216/1/2 212/1/2 217/1/2
f 213/4/2 214/4/2 218/4/2
f 218/4/2 214/4/2 219/4/2
f 220/4/2 221/4/2 222/4/2
f 222/4/2 221/4/2 223/4/2
f 224/4/2 225/4/2 228/4/2
f 228/4/2 225/4/2 229/4/2
f 226/4/2 227/4/2 230/4/2
f 230/4/2 227/4/2 231/4/2
f 232/3/2 233/3/2 239/3/2
f 233/4/2 234/4/2 240/4/2
f 239/3/2 233/3/2 240/3/2
f 234/4/2 235/4/2 240/4/2
f 240/4/2 235/4/2 241/4/2
f 236/4/2 237/4/2 242/4/2
f 237/3/2 238/3/2 243/3/2
f 242/4/2 237/4/2 243/4/2
f 243/3/2 238/3/2 244/3/2
f 245/4/2 246/4/2 247/4/2
f 247/4/2 246/4/2 248/4/2
f 253/4/2 254/4/2 255/4/2
f 255/4/2 254/4/2 256/4/2
f 249/4/2 250/4/2 257/4/2
f 257/4/2 250/4/2 258/4/2
f 251/4/2 252/4/2 259/4/2
f 259/4/2 252/4/2 260/4/2
f 261/5/2 262/5/2 264/5/2
f 262/4/2 263/4/2 265/4/2
f 264/5/2 262/5/2 265/5/2
f 265/4/2 263/4/2 266/4/2
f 267/4/2 268/4/2 271/4/2
f 271/4/2 268/4/2 272/4/2
f 269/4/2 270/4/2 273/4/2
f 273/4/2 270/4/2 274/4/2
f 275/4/2 276/4/2 279/4/2
f 279/4/2 276/4/2 280/4/2
f 277/3/2 278/3/2 281/3/2
f 281/3/2 278/3/2 282/3/2
f 283/4/2 284/4/2 286/4/2
f 284/3/2 285/3/2 287/3/2
f 286/4/2 284/4/2 287/4/2
f 287/3/2 285/3/2 288/3/2
f 291/4/3 290/4/3 289/4/3
f 292/4/3 290/4/3 291/4/3
f 293/4/3 291/4/3 289/4/3
f 293/3/3 292/3/3 291/3/3
f 294/3/3 292/3/3 293/3/3
f 295/4/3 293/4/3 289/4/3
f 295/4/3 294/4/3 293/4/3
f 296/4/3 294/4/3 295/4/3
f 299/4/3 298/4/3 297/4/3
f 300/4/3 298/4/3 299/4/3
f 301/4/3 299/4/3 297/4/3
f 302/4/3 299/4/3 301/4/3
f 305/4/3 304/4/3 303/4/3
f 306/4/3 304/4/3 305/4/3
f 309/4/3 308/4/3 307/4/3
f 310/4/3 308/4/3 309/4/3
f 313/4/3 312/4/3 311/4/3
f 314/4/3 312/4/3 313/4/3
f 317/4/3 316/4/3 315/4/3
f 318/4/3 316/4/3 317/4/3
f 319/4/3 316/4/3 318/4/3
f 320/1/3 318/1/3 317/1/3
f 321/2/3 319/2/3 318/2/3
f 321/1/3 318/1/3 320/1/3
f 322/2/3 321/2/3 320/2/3
f 322/2/3 319/2/3 321/2/3
f 323/2/3 319/2/3 322/2/3
f 324/2/3 322/2/3 320/2/3
f 325/1/3 323/1/3 322/1/3
f 325/2/3 322/2/3 324/2/3
f 326/1/3 325/1/3 324/1/3
f 326/1/3 323/1/3 325/1/3
f 327/1/3 323/1/3 326/1/3
f 328/1/3 326/1/3 324/1/3
f 329/1/3 326/1/3 328/1/3
f 330/2/3 329/2/3 328/2/3
f 331/2/3 329/2/3 330/2/3
f 332/1/3 331/1/3 330/1/3
f 334/1/3 332/1/3 330/1/3
f 335/4/3 333/4/3 332/4/3
f 335/1/3 332/1/3 334/1/3
f 336/4/3 333/4/3 335/4/3
f 339/1/3 338/1/3 337/1/3
f 340/1/3 338/1/3 339/1/3
f 341/2/3 340/2/3 339/2/3
f 342/2/3 340/2/3 341/2/3
f 343/1/3 342/1/3 341/1/3
f 344/1/3 342/1/3 343/1/3
f 348/4/3 346/4/3 345/4/3
f 349/3/3 347/3/3 346/3/3
f 349/4/3 346/4/3 348/4/3
f 350/3/3 347/3/3 349/3/3
f 353/4/3 352/4/3 351/4/3
f 354/4/3 352/4/3 353/4/3
f 357/4/3 356/4/3 355/4/3
f 358/4/3 356/4/3 357/4/3
f 361/4/3 360/4/3 359/4/3
f 362/4/3 360/4/3 361/4/3
f 365/4/3 364/4/3 363/4/3
f 366/4/3 364/4/3 365/4/3
f 369/1/3 368/1/3 367/1/3
f 370/1/3 368/1/3 369/1/3
f 371/1/3 368/1/3 370/1/3
f 372/2/3 370/2/3 369/2/3
f 373/2/3 370/2/3 372/2/3
f 376/1/3 375/1/3 374/1/3
f 377/1/3 375/1/3 376/1/3
f 380/5/3 379/5/3 378/5/3
f 381/5/3 379/5/3 380/5/3
f 384/5/3 383/5/3 382/5/3
f 385/5/3 383/5/3 384/5/3
f 388/5/3 387/5/3 386/5/3
f 389/5/3 387/5/3 388/5/3
f 392/5/3 391/5/3 390/5/3
f 393/5/3 391/5/3 392/5/3
f 396/5/3 395/5/3 394/5/3
f 397/5/3 395/5/3 396/5/3
f 400/5/3 399/5/3 398/5/3
f 401/5/3 399/5/3 400/5/3
f 404/5/3 403/5/3 402/5/3
f 406/5/3 404/5/3 402/5/3
f 407/3/3 405/3/3 404/3/3
f 407/5/3 404/5/3 406/5/3
f 408/3/3 405/3/3 407/3/3
f 409/6/3 407/6/3 406/6/3
f 410/4/3 408/4/3 407/4/3
f 410/6/3 407/6/3 409/6/3
f 411/4/3 408/4/3 410/4/3
f 415/6/3 413/6/3 412/6/3
f 416/4/3 414/4/3 413/4/3
f 416/6/3 413/6/3 415/6/3
f 417/5/3 416/5/3 415/5/3
f 417/4/3 414/4/3 416/4/3
f 418/4/3 414/4/3 417/4/3
f 419/5/3 417/5/3 415/5/3
f 420/5/3 417/5/3 419/5/3
f 424/5/3 422/5/3 421/5/3
f 425/4/3 423/4/3 422/4/3
f 425/5/3 422/5/3 424/5/3
f 426/4/3 423/4/3 425/4/3
f 427/6/3 425/6/3 424/6/3
f 428/3/3 426/3/3 425/3/3
f 428/6/3 425/6/3 427/6/3
f 429/3/3 426/3/3 428/3/3
f 430/4/3 429/4/3 428/4/3
f 431/4/3 429/4/3 430/4/3
f 435/6/3 433/6/3 432/6/3
f 436/4/3 434/4/3 433/4/3
f 436/6/3 433/6/3 435/6/3
f 437/5/3 436/5/3 435/5/3
f 438/4/3 434/4/3 436/4/3
f 438/5/3 436/5/3 437/5/3
f 439/4/3 434/4/3 438/4/3
f 440/3/4 441/3/4 442/3/4
f 442/3/4 441/3/4 443/3/4
f 442/4/4 443/4/4 444/4/4
f 444/4/4 443/4/4 445/4/4
f 446/4/4 447/4/4 448/4/4
f 448/4/4 447/4/4 449/4/4
f 450/4/4 451/4/4 452/4/4
f 452/4/4 451/4/4 453/4/4
f 454/4/4 455/4/4 457/4/4
f 455/4/4 456/4/4 457/4/4
f 457/4/4 456/4/4 458/4/4
f 459/4/4 460/4/4 461/4/4
f 461/4/4 460/4/4 462/4/4
f 463/2/4 464/2/4 465/2/4
f 465/2/4 464/2/4 466/2/4
f 465/1/4 466/1/4 467/1/4
f 467/1/4 466/1/4 468/1/4
f 468/1/4 466/1/4 469/1/4
f 470/4/4 471/4/4 473/4/4
f 471/4/4 472/4/4 473/4/4
f 473/4/4 472/4/4 474/4/4
f 474/4/4 472/4/4 475/4/4
f 473/1/4 474/1/4 476/1/4
f 476/1/4 474/1/4 477/1/4
f 476/2/4 477/2/4 478/2/4
f 476/2/4 478/2/4 480/2/4
f 478/1/4 479/1/4 481/1/4
f 480/2/4 478/2/4 481/2/4
f 480/1/4 481/1/4 482/1/4
f 481/1/4 479/1/4 482/1/4
f 482/1/4 479/1/4 483/1/4
f 480/1/4 482/1/4 484/1/4
f 482/2/4 483/2/4 484/2/4
f 484/2/4 483/2/4 485/2/4
f 480/1/4 484/1/4 486/1/4
f 484/1/4 485/1/4 486/1/4
f 486/1/4 485/1/4 487/1/4
f 480/1/4 486/1/4 488/1/4
f 480/1/4 488/1/4 490/1/4
f 488/4/4 489/4/4 491/4/4
f 490/1/4 488/1/4 491/1/4
f 491/4/4 489/4/4 492/4/4
f 493/4/4 494/4/4 496/4/4
f 494/3/4 495/3/4 497/3/4
f 496/4/4 494/4/4 497/4/4
f 497/3/4 495/3/4 498/3/4
f 499/4/4 500/4/4 501/4/4
f 501/4/4 500/4/4 502/4/4
f 503/3/4 504/3/4 505/3/4
f 505/3/4 504/3/4 506/3/4
f 507/4/4 508/4/4 509/4/4
f 509/4/4 508/4/4 510/4/4
f 507/4/4 509/4/4 511/4/4
f 511/4/4 509/4/4 512/4/4
f 511/3/4 512/3/4 513/3/4
f 513/3/4 512/3/4 514/3/4
f 515/4/4 516/4/4 517/4/4
f 517/4/4 516/4/4 518/4/4
f 519/1/4 520/1/4 521/1/4
f 521/1/4 520/1/4 522/1/4
f 523/4/4 524/4/4 525/4/4
f 525/4/4 524/4/4 526/4/4
f 527/4/4 528/4/4 529/4/4
f 529/4/4 528/4/4 530/4/4
f 531/4/4 532/4/4 533/4/4
f 533/4/4 532/4/4 534/4/4
f 535/4/4 536/4/4 537/4/4
f 537/4/4 536/4/4 538/4/4
f 539/4/4 540/4/4 541/4/4
f 541/4/4 540/4/4 542/4/4
f 543/3/4 544/3/4 545/3/4
f 545/3/4 544/3/4 546/3/4
f 545/4/4 546/4/4 547/4/4
f 547/4/4 546/4/4 548/4/4
f 549/4/4 550/4/4 551/4/4
f 551/4/4 550/4/4 552/4/4
f 552/4/4 550/4/4 553/4/4
f 554/4/4 555/4/4 556/4/4
f 556/4/4 555/4/4 557/4/4
f 558/4/4 559/4/4 560/4/4
f 560/4/4 559/4/4 561/4/4
f 560/5/4 561/5/4 562/5/4
f 562/5/4 561/5/4 563/5/4
f 563/4/4 564/4/4 565/4/4
f 565/4/4 564/4/4 566/4/4
f 565/3/4 566/3/4 567/3/4
f 567/3/4 566/3/4 568/3/4
f 567/4/4 568/4/4 570/4/4
f 570/4/4 568/4/4 571/4/4
f 569/5/4 570/5/4 572/5/4
f 572/5/4 570/5/4 573/5/4
f 572/4/4 573/4/4 574/4/4
f 574/4/4 573/4/4 575/4/4
f 576/5/4 577/5/4 578/5/4
f 578/5/4 577/5/4 579/5/4
f 582/4/5 581/4/5 580/4/5
f 583/4/5 581/4/5 582/4/5
f 585/5/5 583/5/5 582/5/5
f 585/4/5 584/4/5 583/4/5
f 586/4/5 584/4/5 585/4/5
f 587/4/5 584/4/5 586/4/5
f 591/4/5 582/4/5 580/4/5
f 591/5/5 585/5/5 582/5/5
f 591/5/5 586/5/5 585/5/5
f 592/5/5 586/5/5 591/5/5
f 593/4/5 588/4/5 587/4/5
f 593/5/5 586/5/5 592/5/5
f 593/4/5 587/4/5 586/4/5
f 594/4/5 588/4/5 593/4/5
f 595/4/5 590/4/5 589/4/5
f 596/4/5 590/4/5 595/4/5
f 598/6/5 592/6/5 591/6/5
f 598/5/5 593/5/5 592/5/5
f 598/5/5 594/5/5 593/5/5
f 599/5/5 594/5/5 598/5/5
f 600/4/5 597/4/5 596/4/5
f 600/5/5 596/5/5 595/5/5
f 601/4/5 597/4/5 600/4/5
f 607/4/5 591/4/5 580/4/5
f 608/6/5 599/6/5 598/6/5
f 608/6/5 598/6/5 591/6/5
f 608/4/5 591/4/5 607/4/5
f 609/1/5 603/1/5 602/1/5
f 609/2/5 604/2/5 603/2/5
f 610/1/5 605/1/5 604/1/5
f 610/2/5 604/2/5 609/2/5
f 611/1/5 605/1/5 610/1/5
f 612/2/5 606/2/5 605/2/5
f 612/1/5 605/1/5 611/1/5
f 613/1/5 607/1/5 606/1/5
f 613/2/5 606/2/5 612/2/5
f 614/5/5 600/5/5 595/5/5
f 615/4/5 602/4/5 601/4/5
f 616/1/5 609/1/5 602/1/5
f 616/1/5 610/1/5 609/1/5
f 616/4/5 602/4/5 615/4/5
f 617/2/5 611/2/5 610/2/5
f 617/1/5 610/1/5 616/1/5
f 618/1/5 612/1/5 611/1/5
f 618/2/5 611/2/5 617/2/5
f 618/1/5 613/1/5 612/1/5
f 619/1/5 607/1/5 613/1/5
f 619/1/5 613/1/5 618/1/5
f 619/6/5 608/6/5 607/6/5
f 620/6/5 599/6/5 608/6/5
f 620/6/5 608/6/5 619/6/5
f 621/5/5 614/5/5 595/5/5
f 622/4/5 615/4/5 614/4/5
f 622/5/5 614/5/5 621/5/5
f 623/4/5 615/4/5 622/4/5
f 624/6/5 599/6/5 620/6/5
f 625/5/5 594/5/5 599/5/5
f 625/6/5 599/6/5 624/6/5
f 626/4/5 622/4/5 621/4/5
f 627/4/5 622/4/5 626/4/5
f 628/6/5 624/6/5 620/6/5
f 628/4/5 620/4/5 619/4/5
f 629/5/5 625/5/5 624/5/5
f 629/6/5 624/6/5 628/6/5
f 630/5/5 594/5/5 625/5/5
f 630/5/5 625/5/5 629/5/5
f 631/4/5 588/4/5 594/4/5
f 631/5/5 594/5/5 630/5/5
f 632/4/5 588/4/5 631/4/5
f 633/5/5 630/5/5 629/5/5
f 633/5/5 629/5/5 628/5/5
f 634/4/5 631/4/5 630/4/5
f 634/5/5 630/5/5 633/5/5
f 635/3/5 632/3/5 631/3/5
f 635/4/5 631/4/5 634/4/5
f 636/3/5 632/3/5 635/3/5
f 637/5/5 633/5/5 628/5/5
f 637/4/5 628/4/5 619/4/5
f 638/4/5 634/4/5 633/4/5
f 638/5/5 633/5/5 637/5/5
f 639/3/5 635/3/5 634/3/5
f 639/4/5 634/4/5 638/4/5
f 640/3/5 635/3/5 639/3/5
f 641/4/5 637/4/5 619/4/5
f 641/4/5 638/4/5 637/4/5
f 642/4/5 638/4/5 641/4/5
f 646/1/5 644/1/5 643/1/5
f 646/2/5 645/2/5 644/2/5
f 647/2/5 645/2/5 646/2/5
f 648/1/5 646/1/5 643/1/5
f 648/1/5 647/1/5 646/1/5
f 649/1/5 647/1/5 648/1/5
f 650/1/5 648/1/5 643/1/5
f 651/2/5 649/2/5 648/2/5
f 651/1/5 648/1/5 650/1/5
f 652/2/5 649/2/5 651/2/5
f 653/2/5 651/2/5 650/2/5
f 654/1/5 652/1/5 651/1/5
f 654/2/5 651/2/5 653/2/5
f 655/1/5 654/1/5 653/1/5
f 656/1/5 652/1/5 654/1/5
f 656/1/5 654/1/5 655/1/5
f 661/5/5 658/5/5 657/5/5
f 662/5/5 658/5/5 661/5/5
f 664/2/5 656/2/5 655/2/5
f 665/1/5 652/1/5 656/1/5
f 665/2/5 656/2/5 664/2/5
f 667/5/5 660/5/5 659/5/5
f 668/5/5 660/5/5 667/5/5
f 669/4/5 662/4/5 661/4/5
f 670/5/5 663/5/5 662/5/5
f 670/4/5 662/4/5 669/4/5
f 671/5/5 663/5/5 670/5/5
f 674/5/5 667/5/5 666/5/5
f 675/4/5 668/4/5 667/4/5
f 675/5/5 667/5/5 674/5/5
f 676/4/5 668/4/5 675/4/5
f 677/4/5 671/4/5 670/4/5
f 678/5/5 672/5/5 671/5/5
f 678/4/5 671/4/5 677/4/5
f 679/5/5 672/5/5 678/5/5
f 684/5/5 674/5/5 673/5/5
f 685/4/5 675/4/5 674/4/5
f 685/5/5 674/5/5 684/5/5
f 686/4/5 675/4/5 685/4/5
f 687/4/5 679/4/5 678/4/5
f 688/5/5 680/5/5 679/5/5
f 688/4/5 679/4/5 687/4/5
f 689/6/5 681/6/5 680/6/5
f 689/5/5 680/5/5 688/5/5
f 690/6/5 681/6/5 689/6/5
f 692/1/5 665/1/5 664/1/5
f 693/1/5 652/1/5 665/1/5
f 693/1/5 665/1/5 692/1/5
f 695/6/5 683/6/5 682/6/5
f 696/5/5 684/5/5 683/5/5
f 696/6/5 683/6/5 695/6/5
f 697/4/5 685/4/5 684/4/5
f 697/5/5 684/5/5 696/5/5
f 698/4/5 685/4/5 697/4/5
f 699/4/5 689/4/5 688/4/5
f 700/5/5 691/5/5 690/5/5
f 700/4/5 689/4/5 699/4/5
f 700/5/5 690/5/5 689/5/5
f 701/5/5 691/5/5 700/5/5
f 702/6/5 692/6/5 691/6/5
f 702/5/5 691/5/5 701/5/5
f 703/4/5 693/4/5 692/4/5
f 703/6/5 692/6/5 702/6/5
f 704/6/5 694/6/5 693/6/5
f 704/4/5 693/4/5 703/4/5
f 705/5/5 695/5/5 694/5/5
f 705/6/5 694/6/5 704/6/5
f 705/5/5 696/5/5 695/5/5
f 706/5/5 696/5/5 705/5/5
f 707/4/5 697/4/5 696/4/5
f 707/5/5 696/5/5 706/5/5
f 708/4/5 697/4/5 707/4/5
f 709/5/5 703/5/5 702/5/5
f 709/5/5 705/5/5 704/5/5
f 709/5/5 702/5/5 701/5/5
f 709/5/5 704/5/5 703/5/5
f 709/5/5 706/5/5 705/5/5
f 710/5/5 706/5/5 709/5/5
f 711/5/6 712/5/6 716/5/6
f 712/5/6 713/5/6 716/5/6
f 716/5/6 713/5/6 717/5/6
f 714/4/6 715/4/6 718/4/6
f 718/4/6 715/4/6 719/4/6
f 719/4/6 715/4/6 720/4/6
f 716/5/6 717/5/6 722/5/6
f 717/5/6 718/5/6 722/5/6
f 718/5/6 719/5/6 722/5/6
f 722/5/6 719/5/6 723/5/6
f 720/4/6 721/4/6 724/4/6
f 723/5/6 719/5/6 724/5/6
f 719/4/6 720/4/6 724/4/6
f 724/4/6 721/4/6 725/4/6
f 722/6/6 723/6/6 728/6/6
f 723/5/6 724/5/6 728/5/6
f 724/5/6 725/5/6 728/5/6
f 728/5/6 725/5/6 729/5/6
f 726/5/6 727/5/6 730/5/6
f 722/6/6 728/6/6 736/6/6
f 728/6/6 729/6/6 736/6/6
f 731/1/6 732/1/6 740/1/6
f 740/1/6 732/1/6 741/1/6
f 732/2/6 733/2/6 742/2/6
f 741/1/6 732/1/6 742/1/6
f 733/1/6 734/1/6 743/1/6
f 742/2/6 733/2/6 743/2/6
f 726/5/6 730/5/6 744/5/6
f 738/1/6 739/1/6 745/1/6
f 737/1/6 738/1/6 745/1/6
f 739/2/6 740/2/6 746/2/6
f 745/1/6 739/1/6 746/1/6
f 746/2/6 740/2/6 747/2/6
f 743/1/6 734/1/6 748/1/6
f 748/1/6 734/1/6 749/1/6
f 735/6/6 736/6/6 750/6/6
f 736/6/6 729/6/6 751/6/6
f 750/6/6 736/6/6 751/6/6
f 726/5/6 744/5/6 752/5/6
f 752/5/6 744/5/6 753/5/6
f 751/6/6 729/6/6 754/6/6
f 729/5/6 725/5/6 755/5/6
f 754/6/6 729/6/6 755/6/6
f 751/6/6 754/6/6 756/6/6
f 754/5/6 755/5/6 757/5/6
f 756/6/6 754/6/6 757/6/6
f 755/5/6 725/5/6 758/5/6
f 757/5/6 755/5/6 758/5/6
f 725/4/6 721/4/6 759/4/6
f 758/5/6 725/5/6 759/5/6
f 759/4/6 721/4/6 760/4/6
f 756/5/6 757/5/6 761/5/6
f 757/5/6 758/5/6 761/5/6
f 761/5/6 758/5/6 762/5/6
f 758/4/6 759/4/6 763/4/6
f 762/5/6 758/5/6 763/5/6
f 759/3/6 760/3/6 764/3/6
f 763/4/6 759/4/6 764/4/6
f 764/3/6 760/3/6 765/3/6
f 756/5/6 761/5/6 766/5/6
f 766/5/6 761/5/6 767/5/6
f 762/4/6 763/4/6 768/4/6
f 763/3/6 764/3/6 769/3/6
f 768/4/6 763/4/6 769/4/6
f 769/3/6 764/3/6 770/3/6
f 771/2/6 772/2/6 773/2/6
f 773/2/6 772/2/6 774/2/6
f 773/1/6 774/1/6 775/1/6
f 775/1/6 774/1/6 776/1/6
f 776/1/6 774/1/6 777/1/6
f 776/2/6 777/2/6 778/2/6
f 778/2/6 777/2/6 779/2/6
f 778/1/6 779/1/6 781/1/6
f 781/1/6 779/1/6 782/1/6
f 780/2/6 781/2/6 783/2/6
f 783/2/6 781/2/6 784/2/6
f 783/1/6 784/1/6 785/1/6
f 783/1/6 785/1/6 786/1/6
f 786/1/6 785/1/6 787/1/6
f 788/5/6 789/5/6 792/5/6
f 792/5/6 789/5/6 793/5/6
f 786/2/6 787/2/6 795/2/6
f 795/2/6 787/2/6 796/2/6
f 790/5/6 791/5/6 798/5/6
f 798/5/6 791/5/6 799/5/6
f 792/4/6 793/4/6 800/4/6
f 793/5/6 794/5/6 801/5/6
f 800/4/6 793/4/6 801/4/6
f 801/5/6 794/5/6 802/5/6
f 797/5/6 798/5/6 805/5/6
f 798/4/6 799/4/6 806/4/6
f 805/5/6 798/5/6 806/5/6
f 806/4/6 799/4/6 807/4/6
f 801/4/6 802/4/6 808/4/6
f 802/5/6 803/5/6 809/5/6
f 808/4/6 802/4/6 809/4/6
f 809/5/6 803/5/6 810/5/6
f 804/5/6 805/5/6 813/5/6
f 805/4/6 806/4/6 814/4/6
f 813/5/6 805/5/6 814/5/6
f 814/4/6 806/4/6 815/4/6
f 809/4/6 810/4/6 816/4/6
f 810/5/6 811/5/6 817/5/6
f 816/4/6 810/4/6 817/4/6
f 817/5/6 811/5/6 818/5/6
f 795/1/6 796/1/6 821/1/6
f 821/1/6 796/1/6 822/1/6
f 812/5/6 813/5/6 825/5/6
f 813/4/6 814/4/6 826/4/6
f 825/5/6 813/5/6 826/5/6
f 826/4/6 814/4/6 827/4/6
f 817/4/6 818/4/6 828/4/6
f 818/4/6 819/4/6 828/4/6
f 819/5/6 820/5/6 829/5/6
f 828/4/6 819/4/6 829/4/6
f 829/5/6 820/5/6 830/5/6
f 823/5/6 824/5/6 833/5/6
f 824/4/6 825/4/6 834/4/6
f 825/4/6 826/4/6 834/4/6
f 833/5/6 824/5/6 834/5/6
f 834/4/6 826/4/6 835/4/6
f 831/5/6 832/5/6 836/5/6
f 832/5/6 833/5/6 836/5/6
f 830/5/6 831/5/6 836/5/6
f 836/5/6 833/5/6 837/5/6
f 838/4/6 839/4/6 842/4/6
f 839/3/6 840/3/6 843/3/6
f 842/4/6 839/4/6 843/4/6
f 840/4/6 841/4/6 844/4/6
f 843/3/6 840/3/6 844/3/6
f 844/4/6 841/4/6 845/4/6
f 842/3/6 843/3/6 847/3/6
f 847/3/6 843/3/6 848/3/6
f 845/4/6 846/4/6 849/4/6
f 849/4/6 846/4/6 850/4/6
f 851/4/6 852/4/6 853/4/6
f 853/4/6 852/4/6 854/4/6
f 854/4/6 855/4/6 856/4/6
f 856/4/6 855/4/6 857/4/6
f 847/4/6 848/4/6 862/4/6
f 862/4/6 848/4/6 863/4/6
f 857/4/6 858/4/6 864/4/6
f 858/2/6 859/2/6 864/2/6
f 859/1/6 860/1/6 865/1/6
f 864/2/6 859/2/6 865/2/6
f 865/1/6 860/1/6 866/1/6
f 857/4/6 864/4/6 871/4/6
f 871/4/6 864/4/6 872/4/6
f 866/1/6 867/1/6 873/1/6
f 867/2/6 868/2/6 874/2/6
f 873/1/6 867/1/6 874/1/6
f 868/1/6 869/1/6 875/1/6
f 874/2/6 868/2/6 875/2/6
f 875/1/6 869/1/6 876/1/6
f 861/4/6 862/4/6 877/4/6
f 877/4/6 862/4/6 878/4/6
f 870/3/6 871/3/6 881/3/6
f 881/3/6 871/3/6 882/3/6
f 880/4/6 881/4/6 883/4/6
f 883/4/6 881/4/6 884/4/6
f 878/4/6 879/4/6 885/4/6
f 885/4/6 879/4/6 886/4/6
f 885/3/6 886/3/6 889/3/6
f 889/3/6 886/3/6 890/3/6
f 887/4/6 888/4/6 891/4/6
f 891/4/6 888/4/6 892/4/6
f 889/4/6 890/4/6 893/4/6
f 890/4/6 891/4/6 893/4/6
f 893/4/6 891/4/6 894/4/6
f 895/1/6 896/1/6 897/1/6
f 897/1/6 896/1/6 898/1/6
f 897/2/6 898/2/6 899/2/6
f 899/2/6 898/2/6 900/2/6
f 899/1/6 900/1/6 901/1/6
f 901/1/6 900/1/6 902/1/6
f 902/1/6 903/1/6 904/1/6
f 904/1/6 903/1/6 905/1/6
f 904/2/6 905/2/6 906/2/6
f 906/2/6 905/2/6 907/2/6
f 908/3/6 909/3/6 913/3/6
f 909/4/6 910/4/6 914/4/6
f 913/3/6 909/3/6 914/3/6
f 914/4/6 910/4/6 915/4/6
f 906/1/6 907/1/6 918/1/6
f 918/1/6 907/1/6 919/1/6
f 911/4/6 912/4/6 920/4/6
f 920/4/6 912/4/6 921/4/6
f 915/4/6 916/4/6 922/4/6
f 916/3/6 917/3/6 923/3/6
f 922/4/6 916/4/6 923/4/6
f 918/4/6 919/4/6 924/4/6
f 923/3/6 917/3/6 924/3/6
f 919/4/6 920/4/6 924/4/6
f 917/4/6 918/4/6 924/4/6
f 924/4/6 920/4/6 925/4/6
