# MagicaVoxel @ Ephtracy

# group
o 

# material
mtllib anvil.mtl
usemtl palette

# normals
vn -1 0 0
vn 1 0 0
vn 0 0 1
vn 0 0 -1
vn 0 -1 0
vn 0 1 0

# texcoords
vt 0.974609 0.5
vt 0.978516 0.5
vt 0.982422 0.5
vt 0.986328 0.5
vt 0.990234 0.5

# verts
v -1.6 1.2 0.5
v -1.6 1.2 -0.7
v -1.6 1.3 0.1
v -1.6 1.3 -0.3
v -1.6 1.4 0.5
v -1.6 1.4 0.1
v -1.6 1.4 -0.3
v -1.6 1.4 -0.7
v -1.6 1.5 0.5
v -1.6 1.5 -0.7
v -1.5 1.1 0.5
v -1.5 1.1 -0.7
v -1.5 1.2 0.6
v -1.5 1.2 0.5
v -1.5 1.2 -0.7
v -1.5 1.2 -0.8
v -1.5 1.4 0.6
v -1.5 1.4 0.5
v -1.5 1.4 -0.7
v -1.5 1.4 -0.8
v -1.5 1.5 0.6
v -1.5 1.5 0.5
v -1.5 1.5 0.4
v -1.5 1.5 -0.6
v -1.5 1.5 -0.7
v -1.5 1.5 -0.8
v -1.5 1.6 0.4
v -1.5 1.6 -0.6
v -1.4 1 0.4
v -1.4 1 -0.6
v -1.4 1.1 0.6
v -1.4 1.1 0.5
v -1.4 1.1 0.4
v -1.4 1.1 -0.6
v -1.4 1.1 -0.7
v -1.4 1.1 -0.8
v -1.4 1.2 0.6
v -1.4 1.2 0.5
v -1.4 1.2 -0.7
v -1.4 1.2 -0.8
v -1.4 1.5 0.5
v -1.4 1.5 0.4
v -1.4 1.5 -0.6
v -1.4 1.5 -0.7
v -1.4 1.6 0.5
v -1.4 1.6 0.4
v -1.4 1.6 -0.6
v -1.4 1.6 -0.7
v -1.3 0.9 0.4
v -1.3 0.9 0.1
v -1.3 0.9 -0.3
v -1.3 0.9 -0.6
v -1.3 1 0.5
v -1.3 1 0.4
v -1.3 1 0.1
v -1.3 1 -0.3
v -1.3 1 -0.6
v -1.3 1 -0.7
v -1.3 1.1 0.5
v -1.3 1.1 0.4
v -1.3 1.1 -0.6
v -1.3 1.1 -0.7
v -1.2 0.9 0.5
v -1.2 0.9 0.4
v -1.2 0.9 -0.6
v -1.2 0.9 -0.7
v -1.2 1 0.5
v -1.2 1 0.4
v -1.2 1 -0.6
v -1.2 1 -0.7
v -1.1 0.8 0.2
v -1.1 0.8 -0.4
v -1.1 0.9 0.2
v -1.1 0.9 -0.4
v -1 0 0.1
v -1 0 5.96046e-08
v -1 0 -0.2
v -1 0 -0.3
v -1 0.1 0.1
v -1 0.1 5.96046e-08
v -1 0.1 -0.2
v -1 0.1 -0.3
v -1 0.8 0.3
v -1 0.8 0.2
v -1 0.8 -0.4
v -1 0.8 -0.5
v -1 0.9 0.3
v -1 0.9 0.2
v -1 0.9 -0.4
v -1 0.9 -0.5
v -0.9 0 0.2
v -0.9 0 0.1
v -0.9 0 -0.3
v -0.9 0 -0.4
v -0.9 0.1 0.2
v -0.9 0.1 0.1
v -0.9 0.1 5.96046e-08
v -0.9 0.1 -0.2
v -0.9 0.1 -0.3
v -0.9 0.1 -0.4
v -0.9 0.2 0.1
v -0.9 0.2 5.96046e-08
v -0.9 0.2 -0.2
v -0.9 0.2 -0.3
v -0.9 0.3 0.1
v -0.9 0.3 -0.3
v -0.9 0.7 0.2
v -0.9 0.7 -0.4
v -0.9 0.8 0.2
v -0.9 0.8 -0.4
v -0.8 0 0.3
v -0.8 0 0.2
v -0.8 0 -0.4
v -0.8 0 -0.5
v -0.8 0.1 0.3
v -0.8 0.1 0.2
v -0.8 0.1 0.1
v -0.8 0.1 -0.3
v -0.8 0.1 -0.4
v -0.8 0.1 -0.5
v -0.8 0.2 0.1
v -0.8 0.2 -0.3
v -0.8 0.3 0.2
v -0.8 0.3 0.1
v -0.8 0.3 -0.3
v -0.8 0.3 -0.4
v -0.8 0.5 0.1
v -0.8 0.5 5.96046e-08
v -0.8 0.5 -0.2
v -0.8 0.5 -0.3
v -0.8 0.6 0.1
v -0.8 0.6 5.96046e-08
v -0.8 0.6 -0.2
v -0.8 0.6 -0.3
v -0.8 0.7 0.3
v -0.8 0.7 0.2
v -0.8 0.7 0.1
v -0.8 0.7 -0.3
v -0.8 0.7 -0.4
v -0.8 0.7 -0.5
v -0.8 0.8 0.3
v -0.8 0.8 0.2
v -0.8 0.8 -0.4
v -0.8 0.8 -0.5
v -0.7 0 0.4
v -0.7 0 0.3
v -0.7 0 -0.5
v -0.7 0 -0.6
v -0.7 0.1 0.4
v -0.7 0.1 0.3
v -0.7 0.1 0.2
v -0.7 0.1 -0.4
v -0.7 0.1 -0.5
v -0.7 0.1 -0.6
v -0.7 0.3 0.3
v -0.7 0.3 0.2
v -0.7 0.3 0.1
v -0.7 0.3 -0.3
v -0.7 0.3 -0.4
v -0.7 0.3 -0.5
v -0.7 0.5 0.2
v -0.7 0.5 0.1
v -0.7 0.5 5.96046e-08
v -0.7 0.5 -0.2
v -0.7 0.5 -0.3
v -0.7 0.5 -0.4
v -0.7 0.6 0.2
v -0.7 0.6 0.1
v -0.7 0.6 5.96046e-08
v -0.7 0.6 -0.2
v -0.7 0.6 -0.3
v -0.7 0.6 -0.4
v -0.7 0.7 0.2
v -0.7 0.7 0.1
v -0.7 0.7 -0.3
v -0.7 0.7 -0.4
v -0.6 0.1 0.4
v -0.6 0.1 0.3
v -0.6 0.1 -0.5
v -0.6 0.1 -0.6
v -0.6 0.2 0.4
v -0.6 0.2 0.3
v -0.6 0.2 -0.5
v -0.6 0.2 -0.6
v -0.6 0.3 0.3
v -0.6 0.3 0.2
v -0.6 0.3 -0.4
v -0.6 0.3 -0.5
v -0.6 0.4 0.3
v -0.6 0.4 0.2
v -0.6 0.4 -0.4
v -0.6 0.4 -0.5
v -0.6 0.5 0.2
v -0.6 0.5 0.1
v -0.6 0.5 -0.3
v -0.6 0.5 -0.4
v -0.6 0.6 0.2
v -0.6 0.6 0.1
v -0.6 0.6 -0.3
v -0.6 0.6 -0.4
v -0.4 0.1 0.4
v -0.4 0.1 0.3
v -0.4 0.1 -0.5
v -0.4 0.1 -0.6
v -0.4 0.2 0.4
v -0.4 0.2 0.3
v -0.4 0.2 -0.5
v -0.4 0.2 -0.6
v -0.4 0.3 0.3
v -0.4 0.3 0.2
v -0.4 0.3 -0.4
v -0.4 0.3 -0.5
v -0.4 0.4 0.3
v -0.4 0.4 0.2
v -0.4 0.4 -0.4
v -0.4 0.4 -0.5
v -0.4 0.5 0.2
v -0.4 0.5 0.1
v -0.4 0.5 -0.3
v -0.4 0.5 -0.4
v -0.4 0.6 0.2
v -0.4 0.6 0.1
v -0.4 0.6 -0.3
v -0.4 0.6 -0.4
v -0.4 0.7 0.3
v -0.4 0.7 0.2
v -0.4 0.7 -0.4
v -0.4 0.7 -0.5
v -0.4 0.8 0.3
v -0.4 0.8 0.2
v -0.4 0.8 -0.4
v -0.4 0.8 -0.5
v -0.3 0 0.4
v -0.3 0 0.3
v -0.3 0 -0.5
v -0.3 0 -0.6
v -0.3 0.1 0.4
v -0.3 0.1 0.3
v -0.3 0.1 0.2
v -0.3 0.1 -0.4
v -0.3 0.1 -0.5
v -0.3 0.1 -0.6
v -0.3 0.2 0.2
v -0.3 0.2 -0.4
v -0.3 0.3 0.3
v -0.3 0.3 0.2
v -0.3 0.3 -0.4
v -0.3 0.3 -0.5
v -0.3 0.4 0.2
v -0.3 0.4 0.1
v -0.3 0.4 -0.3
v -0.3 0.4 -0.4
v -0.3 0.5 0.2
v -0.3 0.5 0.1
v -0.3 0.5 5.96046e-08
v -0.3 0.5 -0.2
v -0.3 0.5 -0.3
v -0.3 0.5 -0.4
v -0.3 0.6 0.2
v -0.3 0.6 0.1
v -0.3 0.6 5.96046e-08
v -0.3 0.6 -0.2
v -0.3 0.6 -0.3
v -0.3 0.6 -0.4
v -0.3 0.8 0.2
v -0.3 0.8 0.1
v -0.3 0.8 -0.3
v -0.3 0.8 -0.4
v -0.3 0.9 0.5
v -0.3 0.9 0.4
v -0.3 0.9 -0.6
v -0.3 0.9 -0.7
v -0.3 1 0.5
v -0.3 1 0.4
v -0.3 1 -0.6
v -0.3 1 -0.7
v -0.3 1.1 0.6
v -0.3 1.1 0.5
v -0.3 1.1 -0.7
v -0.3 1.1 -0.8
v -0.3 1.2 0.6
v -0.3 1.2 0.5
v -0.3 1.2 -0.7
v -0.3 1.2 -0.8
v -0.3 1.5 0.5
v -0.3 1.5 0.4
v -0.3 1.5 -0.6
v -0.3 1.5 -0.7
v -0.3 1.6 0.5
v -0.3 1.6 0.4
v -0.3 1.6 -0.6
v -0.3 1.6 -0.7
v -0.2 0 0.3
v -0.2 0 0.2
v -0.2 0 -0.4
v -0.2 0 -0.5
v -0.2 0.1 0.3
v -0.2 0.1 0.2
v -0.2 0.1 0.1
v -0.2 0.1 -0.3
v -0.2 0.1 -0.4
v -0.2 0.1 -0.5
v -0.2 0.2 0.2
v -0.2 0.2 0.1
v -0.2 0.2 -0.3
v -0.2 0.2 -0.4
v -0.2 0.3 0.1
v -0.2 0.3 -0.3
v -0.2 0.4 0.2
v -0.2 0.4 0.1
v -0.2 0.4 -0.3
v -0.2 0.4 -0.4
v -0.2 0.5 0.1
v -0.2 0.5 5.96046e-08
v -0.2 0.5 -0.2
v -0.2 0.5 -0.3
v -0.2 0.6 0.1
v -0.2 0.6 5.96046e-08
v -0.2 0.6 -0.2
v -0.2 0.6 -0.3
v -0.2 0.7 0.1
v -0.2 0.7 -0.3
v -0.2 1.2 0.6
v -0.2 1.2 0.5
v -0.2 1.2 -0.7
v -0.2 1.2 -0.8
v -0.2 1.4 0.6
v -0.2 1.4 0.5
v -0.2 1.4 -0.7
v -0.2 1.4 -0.8
v -0.2 1.5 0.6
v -0.2 1.5 0.5
v -0.2 1.5 0.4
v -0.2 1.5 0.3
v -0.2 1.5 0.1
v -0.2 1.5 -0.3
v -0.2 1.5 -0.5
v -0.2 1.5 -0.6
v -0.2 1.5 -0.7
v -0.2 1.5 -0.8
v -0.2 1.6 0.4
v -0.2 1.6 0.1
v -0.2 1.6 -0.3
v -0.2 1.6 -0.6
v -0.1 0 0.2
v -0.1 0 0.1
v -0.1 0 -0.3
v -0.1 0 -0.4
v -0.1 0.1 0.2
v -0.1 0.1 0.1
v -0.1 0.1 5.96046e-08
v -0.1 0.1 -0.2
v -0.1 0.1 -0.3
v -0.1 0.1 -0.4
v -0.1 0.2 0.1
v -0.1 0.2 5.96046e-08
v -0.1 0.2 -0.2
v -0.1 0.2 -0.3
v -0.1 0.3 0.1
v -0.1 0.3 -0.3
v -0.1 0.7 0.1
v -0.1 0.7 -0.3
v -0.1 0.8 0.3
v -0.1 0.8 0.2
v -0.1 0.8 0.1
v -0.1 0.8 -0.3
v -0.1 0.9 0.3
v -0.1 0.9 0.2
v 0 0 0.1
v 0 0 -0.3
v 0 0.1 0.1
v 0 0.1 -0.3
v 0 0.8 -0.4
v 0 0.8 -0.5
v 0 0.9 0.4
v 0 0.9 0.3
v 0 0.9 -0.4
v 0 0.9 -0.5
v 0 0.9 -0.6
v 0 1 0.5
v 0 1 0.4
v 0 1 0.3
v 0 1 -0.5
v 0 1 -0.6
v 0 1 -0.7
v 0 1.2 0.5
v 0 1.2 0.4
v 0 1.2 -0.6
v 0 1.2 -0.7
v 0.1 0.8 0.2
v 0.1 0.8 -0.4
v 0.1 0.9 0.2
v 0.1 0.9 -0.4
v 0.1 1 0.4
v 0.1 1 0.3
v 0.1 1 -0.5
v 0.1 1 -0.6
v 0.1 1.1 0.4
v 0.1 1.1 0.3
v 0.1 1.1 -0.5
v 0.1 1.1 -0.6
v 0.1 1.2 0.5
v 0.1 1.2 0.4
v 0.1 1.2 -0.6
v 0.1 1.2 -0.7
v 0.1 1.5 0.5
v 0.1 1.5 0.4
v 0.1 1.5 -0.6
v 0.1 1.5 -0.7
v 0.2 1.1 0.4
v 0.2 1.1 0.3
v 0.2 1.1 -0.5
v 0.2 1.1 -0.6
v 0.2 1.2 0.4
v 0.2 1.2 0.3
v 0.2 1.2 -0.5
v 0.2 1.2 -0.6
v 0.3 0.9 0.3
v 0.3 0.9 0.2
v 0.3 0.9 -0.4
v 0.3 0.9 -0.5
v 0.3 1 0.3
v 0.3 1 0.2
v 0.3 1 -0.4
v 0.3 1 -0.5
v 0.3 1.2 0.4
v 0.3 1.2 0.3
v 0.3 1.2 -0.5
v 0.3 1.2 -0.6
v 0.3 1.4 0.3
v 0.3 1.4 -0.5
v 0.3 1.5 0.4
v 0.3 1.5 0.3
v 0.3 1.5 -0.5
v 0.3 1.5 -0.6
v 0.4 0.9 0.2
v 0.4 0.9 0.1
v 0.4 0.9 -0.3
v 0.4 0.9 -0.4
v 0.4 1 0.3
v 0.4 1 0.2
v 0.4 1 0.1
v 0.4 1 -0.3
v 0.4 1 -0.4
v 0.4 1 -0.5
v 0.4 1.1 0.3
v 0.4 1.1 0.2
v 0.4 1.1 -0.4
v 0.4 1.1 -0.5
v 0.5 0.9 0.1
v 0.5 0.9 5.96046e-08
v 0.5 0.9 -0.2
v 0.5 0.9 -0.3
v 0.5 1 0.2
v 0.5 1 0.1
v 0.5 1 5.96046e-08
v 0.5 1 -0.2
v 0.5 1 -0.3
v 0.5 1 -0.4
v 0.5 1.1 0.2
v 0.5 1.1 0.1
v 0.5 1.1 -0.3
v 0.5 1.1 -0.4
v 0.6 1 0.1
v 0.6 1 5.96046e-08
v 0.6 1 -0.2
v 0.6 1 -0.3
v 0.6 1.1 0.3
v 0.6 1.1 0.2
v 0.6 1.1 0.1
v 0.6 1.1 5.96046e-08
v 0.6 1.1 -0.2
v 0.6 1.1 -0.3
v 0.6 1.1 -0.4
v 0.6 1.1 -0.5
v 0.6 1.4 0.2
v 0.6 1.4 -0.4
v 0.6 1.5 0.3
v 0.6 1.5 0.2
v 0.6 1.5 -0.4
v 0.6 1.5 -0.5
v 0.7 1 5.96046e-08
v 0.7 1 -0.2
v 0.7 1.1 0.2
v 0.7 1.1 5.96046e-08
v 0.7 1.1 -0.2
v 0.7 1.1 -0.4
v 0.7 1.2 0.1
v 0.7 1.2 5.96046e-08
v 0.7 1.2 -0.2
v 0.7 1.2 -0.3
v 0.7 1.3 0.2
v 0.7 1.3 0.1
v 0.7 1.3 -0.3
v 0.7 1.3 -0.4
v 0.8 1.1 5.96046e-08
v 0.8 1.1 -0.2
v 0.8 1.2 0.1
v 0.8 1.2 5.96046e-08
v 0.8 1.2 -0.2
v 0.8 1.2 -0.3
v 0.8 1.3 0.2
v 0.8 1.3 0.1
v 0.8 1.3 5.96046e-08
v 0.8 1.3 -0.2
v 0.8 1.3 -0.3
v 0.8 1.3 -0.4
v 0.8 1.4 0.1
v 0.8 1.4 -0.3
v 0.8 1.5 0.2
v 0.8 1.5 0.1
v 0.8 1.5 -0.3
v 0.8 1.5 -0.4
v 0.9 1.2 5.96046e-08
v 0.9 1.2 -0.2
v 0.9 1.3 5.96046e-08
v 0.9 1.3 -0.2
v 1 1.3 0.1
v 1 1.3 5.96046e-08
v 1 1.3 -0.2
v 1 1.3 -0.3
v 1 1.4 0.1
v 1 1.4 5.96046e-08
v 1 1.4 -0.2
v 1 1.4 -0.3
v 1 1.5 0.1
v 1 1.5 5.96046e-08
v 1 1.5 -0.2
v 1 1.5 -0.3
v 1.1 1.4 5.96046e-08
v 1.1 1.4 -0.2
v 1.1 1.5 5.96046e-08
v 1.1 1.5 -0.2
v -1.5 1.2 0.6
v -1.5 1.4 0.6
v -1.5 1.5 0.6
v -1.4 1.1 0.6
v -1.4 1.2 0.6
v -0.3 1.1 0.6
v -0.3 1.2 0.6
v -0.2 1.2 0.6
v -0.2 1.4 0.6
v -0.2 1.5 0.6
v -1.6 1.2 0.5
v -1.6 1.4 0.5
v -1.6 1.5 0.5
v -1.5 1.1 0.5
v -1.5 1.2 0.5
v -1.5 1.4 0.5
v -1.5 1.5 0.5
v -1.4 1.1 0.5
v -1.4 1.2 0.5
v -1.4 1.5 0.5
v -1.4 1.6 0.5
v -1.3 1 0.5
v -1.3 1.1 0.5
v -1.2 0.9 0.5
v -1.2 1 0.5
v -0.4 1.5 0.5
v -0.4 1.6 0.5
v -0.3 0.9 0.5
v -0.3 1 0.5
v -0.3 1.1 0.5
v -0.3 1.2 0.5
v -0.3 1.5 0.5
v -0.3 1.6 0.5
v -0.2 1.2 0.5
v -0.2 1.4 0.5
v -0.2 1.5 0.5
v 0 1 0.5
v 0 1.2 0.5
v 0 1.4 0.5
v 0 1.5 0.5
v 0.1 1.2 0.5
v 0.1 1.5 0.5
v -1.5 1.5 0.4
v -1.5 1.6 0.4
v -1.4 1 0.4
v -1.4 1.1 0.4
v -1.4 1.5 0.4
v -1.4 1.6 0.4
v -1.3 0.9 0.4
v -1.3 1 0.4
v -1.3 1.1 0.4
v -1.2 0.9 0.4
v -1.2 1 0.4
v -0.7 0 0.4
v -0.7 0.1 0.4
v -0.6 0.1 0.4
v -0.6 0.2 0.4
v -0.4 0.1 0.4
v -0.4 0.2 0.4
v -0.3 0 0.4
v -0.3 0.1 0.4
v -0.3 0.9 0.4
v -0.3 1 0.4
v -0.3 1.5 0.4
v -0.3 1.6 0.4
v -0.2 1.5 0.4
v -0.2 1.6 0.4
v 0 0.9 0.4
v 0 1 0.4
v 0 1.2 0.4
v 0.1 1 0.4
v 0.1 1.1 0.4
v 0.1 1.2 0.4
v 0.1 1.5 0.4
v 0.2 1.1 0.4
v 0.2 1.2 0.4
v 0.3 1.2 0.4
v 0.3 1.5 0.4
v -1 0.8 0.3
v -1 0.9 0.3
v -0.8 0 0.3
v -0.8 0.1 0.3
v -0.8 0.7 0.3
v -0.8 0.8 0.3
v -0.7 0 0.3
v -0.7 0.1 0.3
v -0.7 0.3 0.3
v -0.6 0.1 0.3
v -0.6 0.2 0.3
v -0.6 0.3 0.3
v -0.6 0.4 0.3
v -0.4 0.1 0.3
v -0.4 0.2 0.3
v -0.4 0.3 0.3
v -0.4 0.4 0.3
v -0.4 0.7 0.3
v -0.4 0.8 0.3
v -0.3 0 0.3
v -0.3 0.1 0.3
v -0.3 0.3 0.3
v -0.2 0 0.3
v -0.2 0.1 0.3
v -0.1 0.8 0.3
v -0.1 0.9 0.3
v 0 0.9 0.3
v 0 1 0.3
v 0.1 1 0.3
v 0.1 1.1 0.3
v 0.2 1.1 0.3
v 0.2 1.2 0.3
v 0.3 0.9 0.3
v 0.3 1 0.3
v 0.3 1.2 0.3
v 0.3 1.4 0.3
v 0.3 1.5 0.3
v 0.4 1 0.3
v 0.4 1.1 0.3
v 0.4 1.4 0.3
v 0.4 1.5 0.3
v 0.6 1.1 0.3
v 0.6 1.5 0.3
v -1.1 0.8 0.2
v -1.1 0.9 0.2
v -1 0.8 0.2
v -1 0.9 0.2
v -0.9 0 0.2
v -0.9 0.1 0.2
v -0.9 0.7 0.2
v -0.9 0.8 0.2
v -0.8 0 0.2
v -0.8 0.1 0.2
v -0.8 0.3 0.2
v -0.8 0.7 0.2
v -0.8 0.8 0.2
v -0.7 0.1 0.2
v -0.7 0.3 0.2
v -0.7 0.5 0.2
v -0.7 0.6 0.2
v -0.7 0.7 0.2
v -0.6 0.3 0.2
v -0.6 0.4 0.2
v -0.6 0.5 0.2
v -0.6 0.6 0.2
v -0.4 0.3 0.2
v -0.4 0.4 0.2
v -0.4 0.5 0.2
v -0.4 0.6 0.2
v -0.4 0.7 0.2
v -0.4 0.8 0.2
v -0.3 0.1 0.2
v -0.3 0.2 0.2
v -0.3 0.3 0.2
v -0.3 0.4 0.2
v -0.3 0.5 0.2
v -0.3 0.6 0.2
v -0.3 0.8 0.2
v -0.2 0 0.2
v -0.2 0.1 0.2
v -0.2 0.2 0.2
v -0.2 0.4 0.2
v -0.1 0 0.2
v -0.1 0.1 0.2
v -0.1 0.8 0.2
v -0.1 0.9 0.2
v 0.1 0.8 0.2
v 0.1 0.9 0.2
v 0.3 0.9 0.2
v 0.3 1 0.2
v 0.4 0.9 0.2
v 0.4 1 0.2
v 0.4 1.1 0.2
v 0.5 1 0.2
v 0.5 1.1 0.2
v 0.6 1.1 0.2
v 0.6 1.4 0.2
v 0.6 1.5 0.2
v 0.7 1.1 0.2
v 0.7 1.3 0.2
v 0.7 1.4 0.2
v 0.7 1.5 0.2
v 0.8 1.3 0.2
v 0.8 1.5 0.2
v -1 0 0.1
v -1 0.1 0.1
v -0.9 0 0.1
v -0.9 0.1 0.1
v -0.9 0.2 0.1
v -0.9 0.3 0.1
v -0.8 0.1 0.1
v -0.8 0.2 0.1
v -0.8 0.3 0.1
v -0.8 0.5 0.1
v -0.8 0.6 0.1
v -0.8 0.7 0.1
v -0.7 0.3 0.1
v -0.7 0.5 0.1
v -0.7 0.6 0.1
v -0.7 0.7 0.1
v -0.6 0.5 0.1
v -0.6 0.6 0.1
v -0.4 0.5 0.1
v -0.4 0.6 0.1
v -0.3 0.4 0.1
v -0.3 0.5 0.1
v -0.3 0.6 0.1
v -0.3 0.8 0.1
v -0.2 0.1 0.1
v -0.2 0.2 0.1
v -0.2 0.3 0.1
v -0.2 0.4 0.1
v -0.2 0.5 0.1
v -0.2 0.6 0.1
v -0.2 0.7 0.1
v -0.1 0 0.1
v -0.1 0.1 0.1
v -0.1 0.2 0.1
v -0.1 0.3 0.1
v -0.1 0.7 0.1
v -0.1 0.8 0.1
v 0 0 0.1
v 0 0.1 0.1
v 0.4 0.9 0.1
v 0.4 1 0.1
v 0.5 0.9 0.1
v 0.5 1 0.1
v 0.5 1.1 0.1
v 0.6 1 0.1
v 0.6 1.1 0.1
v 0.7 1.2 0.1
v 0.7 1.3 0.1
v 0.8 1.2 0.1
v 0.8 1.3 0.1
v 0.8 1.4 0.1
v 0.8 1.5 0.1
v 1 1.3 0.1
v 1 1.4 0.1
v 1 1.5 0.1
v -0.8 0.5 5.96046e-08
v -0.8 0.6 5.96046e-08
v -0.7 0.5 5.96046e-08
v -0.7 0.6 5.96046e-08
v -0.3 0.5 5.96046e-08
v -0.3 0.6 5.96046e-08
v -0.2 0.5 5.96046e-08
v -0.2 0.6 5.96046e-08
v 0.6 1 5.96046e-08
v 0.6 1.1 5.96046e-08
v 0.7 1 5.96046e-08
v 0.7 1.1 5.96046e-08
v 0.7 1.2 5.96046e-08
v 0.8 1.1 5.96046e-08
v 0.8 1.2 5.96046e-08
v 0.8 1.3 5.96046e-08
v 0.9 1.2 5.96046e-08
v 0.9 1.3 5.96046e-08
v 1 1.4 5.96046e-08
v 1 1.5 5.96046e-08
v 1.1 1.4 5.96046e-08
v 1.1 1.5 5.96046e-08
v -0.8 0.5 -0.2
v -0.8 0.6 -0.2
v -0.7 0.5 -0.2
v -0.7 0.6 -0.2
v -0.3 0.5 -0.2
v -0.3 0.6 -0.2
v -0.2 0.5 -0.2
v -0.2 0.6 -0.2
v 0.6 1 -0.2
v 0.6 1.1 -0.2
v 0.7 1 -0.2
v 0.7 1.1 -0.2
v 0.7 1.2 -0.2
v 0.8 1.1 -0.2
v 0.8 1.2 -0.2
v 0.8 1.3 -0.2
v 0.9 1.2 -0.2
v 0.9 1.3 -0.2
v 1 1.4 -0.2
v 1 1.5 -0.2
v 1.1 1.4 -0.2
v 1.1 1.5 -0.2
v -1 0 -0.3
v -1 0.1 -0.3
v -0.9 0 -0.3
v -0.9 0.1 -0.3
v -0.9 0.2 -0.3
v -0.9 0.3 -0.3
v -0.8 0.1 -0.3
v -0.8 0.2 -0.3
v -0.8 0.3 -0.3
v -0.8 0.5 -0.3
v -0.8 0.6 -0.3
v -0.8 0.7 -0.3
v -0.7 0.3 -0.3
v -0.7 0.5 -0.3
v -0.7 0.6 -0.3
v -0.7 0.7 -0.3
v -0.6 0.5 -0.3
v -0.6 0.6 -0.3
v -0.4 0.5 -0.3
v -0.4 0.6 -0.3
v -0.3 0.4 -0.3
v -0.3 0.5 -0.3
v -0.3 0.6 -0.3
v -0.3 0.8 -0.3
v -0.2 0.1 -0.3
v -0.2 0.2 -0.3
v -0.2 0.3 -0.3
v -0.2 0.4 -0.3
v -0.2 0.5 -0.3
v -0.2 0.6 -0.3
v -0.2 0.7 -0.3
v -0.1 0 -0.3
v -0.1 0.1 -0.3
v -0.1 0.2 -0.3
v -0.1 0.3 -0.3
v -0.1 0.7 -0.3
v -0.1 0.8 -0.3
v 0 0 -0.3
v 0 0.1 -0.3
v 0.4 0.9 -0.3
v 0.4 1 -0.3
v 0.5 0.9 -0.3
v 0.5 1 -0.3
v 0.5 1.1 -0.3
v 0.6 1 -0.3
v 0.6 1.1 -0.3
v 0.7 1.2 -0.3
v 0.7 1.3 -0.3
v 0.8 1.2 -0.3
v 0.8 1.3 -0.3
v 0.8 1.4 -0.3
v 0.8 1.5 -0.3
v 1 1.3 -0.3
v 1 1.4 -0.3
v 1 1.5 -0.3
v -1.1 0.8 -0.4
v -1.1 0.9 -0.4
v -1 0.8 -0.4
v -1 0.9 -0.4
v -0.9 0 -0.4
v -0.9 0.1 -0.4
v -0.9 0.7 -0.4
v -0.9 0.8 -0.4
v -0.8 0 -0.4
v -0.8 0.1 -0.4
v -0.8 0.3 -0.4
v -0.8 0.7 -0.4
v -0.8 0.8 -0.4
v -0.7 0.1 -0.4
v -0.7 0.3 -0.4
v -0.7 0.5 -0.4
v -0.7 0.6 -0.4
v -0.7 0.7 -0.4
v -0.6 0.3 -0.4
v -0.6 0.4 -0.4
v -0.6 0.5 -0.4
v -0.6 0.6 -0.4
v -0.4 0.3 -0.4
v -0.4 0.4 -0.4
v -0.4 0.5 -0.4
v -0.4 0.6 -0.4
v -0.4 0.7 -0.4
v -0.4 0.8 -0.4
v -0.3 0.1 -0.4
v -0.3 0.2 -0.4
v -0.3 0.3 -0.4
v -0.3 0.4 -0.4
v -0.3 0.5 -0.4
v -0.3 0.6 -0.4
v -0.3 0.8 -0.4
v -0.2 0 -0.4
v -0.2 0.1 -0.4
v -0.2 0.2 -0.4
v -0.2 0.4 -0.4
v -0.1 0 -0.4
v -0.1 0.1 -0.4
v 0 0.8 -0.4
v 0 0.9 -0.4
v 0.1 0.8 -0.4
v 0.1 0.9 -0.4
v 0.3 0.9 -0.4
v 0.3 1 -0.4
v 0.4 0.9 -0.4
v 0.4 1 -0.4
v 0.4 1.1 -0.4
v 0.5 1 -0.4
v 0.5 1.1 -0.4
v 0.6 1.1 -0.4
v 0.6 1.4 -0.4
v 0.6 1.5 -0.4
v 0.7 1.1 -0.4
v 0.7 1.3 -0.4
v 0.7 1.4 -0.4
v 0.7 1.5 -0.4
v 0.8 1.3 -0.4
v 0.8 1.5 -0.4
v -1 0.8 -0.5
v -1 0.9 -0.5
v -0.8 0 -0.5
v -0.8 0.1 -0.5
v -0.8 0.7 -0.5
v -0.8 0.8 -0.5
v -0.7 0 -0.5
v -0.7 0.1 -0.5
v -0.7 0.3 -0.5
v -0.6 0.1 -0.5
v -0.6 0.2 -0.5
v -0.6 0.3 -0.5
v -0.6 0.4 -0.5
v -0.4 0.1 -0.5
v -0.4 0.2 -0.5
v -0.4 0.3 -0.5
v -0.4 0.4 -0.5
v -0.4 0.7 -0.5
v -0.4 0.8 -0.5
v -0.3 0 -0.5
v -0.3 0.1 -0.5
v -0.3 0.3 -0.5
v -0.2 0 -0.5
v -0.2 0.1 -0.5
v 0 0.8 -0.5
v 0 0.9 -0.5
v 0 1 -0.5
v 0.1 1 -0.5
v 0.1 1.1 -0.5
v 0.2 1.1 -0.5
v 0.2 1.2 -0.5
v 0.3 0.9 -0.5
v 0.3 1 -0.5
v 0.3 1.2 -0.5
v 0.3 1.4 -0.5
v 0.3 1.5 -0.5
v 0.4 1 -0.5
v 0.4 1.1 -0.5
v 0.4 1.4 -0.5
v 0.4 1.5 -0.5
v 0.6 1.1 -0.5
v 0.6 1.5 -0.5
v -1.5 1.5 -0.6
v -1.5 1.6 -0.6
v -1.4 1 -0.6
v -1.4 1.1 -0.6
v -1.4 1.5 -0.6
v -1.4 1.6 -0.6
v -1.3 0.9 -0.6
v -1.3 1 -0.6
v -1.3 1.1 -0.6
v -1.2 0.9 -0.6
v -1.2 1 -0.6
v -0.7 0 -0.6
v -0.7 0.1 -0.6
v -0.6 0.1 -0.6
v -0.6 0.2 -0.6
v -0.4 0.1 -0.6
v -0.4 0.2 -0.6
v -0.3 0 -0.6
v -0.3 0.1 -0.6
v -0.3 0.9 -0.6
v -0.3 1 -0.6
v -0.3 1.5 -0.6
v -0.3 1.6 -0.6
v -0.2 1.5 -0.6
v -0.2 1.6 -0.6
v 0 0.9 -0.6
v 0 1 -0.6
v 0 1.2 -0.6
v 0.1 1 -0.6
v 0.1 1.1 -0.6
v 0.1 1.2 -0.6
v 0.1 1.5 -0.6
v 0.2 1.1 -0.6
v 0.2 1.2 -0.6
v 0.3 1.2 -0.6
v 0.3 1.5 -0.6
v -1.6 1.2 -0.7
v -1.6 1.4 -0.7
v -1.6 1.5 -0.7
v -1.5 1.1 -0.7
v -1.5 1.2 -0.7
v -1.5 1.4 -0.7
v -1.5 1.5 -0.7
v -1.4 1.1 -0.7
v -1.4 1.2 -0.7
v -1.4 1.5 -0.7
v -1.4 1.6 -0.7
v -1.3 1 -0.7
v -1.3 1.1 -0.7
v -1.2 0.9 -0.7
v -1.2 1 -0.7
v -0.4 1.5 -0.7
v -0.4 1.6 -0.7
v -0.3 0.9 -0.7
v -0.3 1 -0.7
v -0.3 1.1 -0.7
v -0.3 1.2 -0.7
v -0.3 1.5 -0.7
v -0.3 1.6 -0.7
v -0.2 1.2 -0.7
v -0.2 1.4 -0.7
v -0.2 1.5 -0.7
v 0 1 -0.7
v 0 1.2 -0.7
v 0 1.4 -0.7
v 0 1.5 -0.7
v 0.1 1.2 -0.7
v 0.1 1.5 -0.7
v -1.5 1.2 -0.8
v -1.5 1.4 -0.8
v -1.5 1.5 -0.8
v -1.4 1.1 -0.8
v -1.4 1.2 -0.8
v -0.3 1.1 -0.8
v -0.3 1.2 -0.8
v -0.2 1.2 -0.8
v -0.2 1.4 -0.8
v -0.2 1.5 -0.8
v -0.7 0 0.4
v -0.3 0 0.4
v -0.8 0 0.3
v -0.7 0 0.3
v -0.6 0 0.3
v -0.5 0 0.3
v -0.3 0 0.3
v -0.2 0 0.3
v -0.9 0 0.2
v -0.8 0 0.2
v -0.6 0 0.2
v -0.5 0 0.2
v -0.4 0 0.2
v -0.2 0 0.2
v -0.1 0 0.2
v -1 0 0.1
v -0.9 0 0.1
v -0.4 0 0.1
v -0.2 0 0.1
v -0.1 0 0.1
v 0 0 0.1
v -1 0 5.96046e-08
v -0.8 0 5.96046e-08
v -1 0 -0.2
v -0.8 0 -0.2
v -1 0 -0.3
v -0.9 0 -0.3
v -0.4 0 -0.3
v -0.2 0 -0.3
v -0.1 0 -0.3
v 0 0 -0.3
v -0.9 0 -0.4
v -0.8 0 -0.4
v -0.6 0 -0.4
v -0.5 0 -0.4
v -0.4 0 -0.4
v -0.2 0 -0.4
v -0.1 0 -0.4
v -0.8 0 -0.5
v -0.7 0 -0.5
v -0.6 0 -0.5
v -0.5 0 -0.5
v -0.3 0 -0.5
v -0.2 0 -0.5
v -0.7 0 -0.6
v -0.3 0 -0.6
v -0.7 0.6 0.2
v -0.6 0.6 0.2
v -0.4 0.6 0.2
v -0.3 0.6 0.2
v -0.8 0.6 0.1
v -0.7 0.6 0.1
v -0.6 0.6 0.1
v -0.4 0.6 0.1
v -0.3 0.6 0.1
v -0.2 0.6 0.1
v -0.8 0.6 5.96046e-08
v -0.7 0.6 5.96046e-08
v -0.3 0.6 5.96046e-08
v -0.2 0.6 5.96046e-08
v -0.8 0.6 -0.2
v -0.7 0.6 -0.2
v -0.3 0.6 -0.2
v -0.2 0.6 -0.2
v -0.8 0.6 -0.3
v -0.7 0.6 -0.3
v -0.6 0.6 -0.3
v -0.4 0.6 -0.3
v -0.3 0.6 -0.3
v -0.2 0.6 -0.3
v -0.7 0.6 -0.4
v -0.6 0.6 -0.4
v -0.4 0.6 -0.4
v -0.3 0.6 -0.4
v -0.8 0.7 0.3
v -0.4 0.7 0.3
v -0.9 0.7 0.2
v -0.8 0.7 0.2
v -0.7 0.7 0.2
v -0.4 0.7 0.2
v -0.8 0.7 0.1
v -0.7 0.7 0.1
v -0.2 0.7 0.1
v -0.1 0.7 0.1
v -0.8 0.7 -0.3
v -0.7 0.7 -0.3
v -0.2 0.7 -0.3
v -0.1 0.7 -0.3
v -0.9 0.7 -0.4
v -0.8 0.7 -0.4
v -0.7 0.7 -0.4
v -0.4 0.7 -0.4
v -0.8 0.7 -0.5
v -0.4 0.7 -0.5
v -1 0.8 0.3
v -0.8 0.8 0.3
v -0.4 0.8 0.3
v -0.1 0.8 0.3
v -1.1 0.8 0.2
v -1 0.8 0.2
v -0.9 0.8 0.2
v -0.8 0.8 0.2
v -0.4 0.8 0.2
v -0.3 0.8 0.2
v -0.1 0.8 0.2
v 0.1 0.8 0.2
v -0.3 0.8 0.1
v -0.1 0.8 0.1
v -0.3 0.8 -0.3
v -0.1 0.8 -0.3
v -1.1 0.8 -0.4
v -1 0.8 -0.4
v -0.9 0.8 -0.4
v -0.8 0.8 -0.4
v -0.4 0.8 -0.4
v -0.3 0.8 -0.4
v 0 0.8 -0.4
v 0.1 0.8 -0.4
v -1 0.8 -0.5
v -0.8 0.8 -0.5
v -0.4 0.8 -0.5
v 0 0.8 -0.5
v -1.2 0.9 0.5
v -0.3 0.9 0.5
v -1.3 0.9 0.4
v -1.2 0.9 0.4
v -0.3 0.9 0.4
v 0 0.9 0.4
v -1.1 0.9 0.3
v -1 0.9 0.3
v -0.1 0.9 0.3
v 0 0.9 0.3
v 0.3 0.9 0.3
v -1.2 0.9 0.2
v -1.1 0.9 0.2
v -1 0.9 0.2
v -0.1 0.9 0.2
v 0.1 0.9 0.2
v 0.2 0.9 0.2
v 0.3 0.9 0.2
v 0.4 0.9 0.2
v -1.3 0.9 0.1
v -1.2 0.9 0.1
v 0.2 0.9 0.1
v 0.4 0.9 0.1
v 0.5 0.9 0.1
v 0.4 0.9 5.96046e-08
v 0.5 0.9 5.96046e-08
v 0.4 0.9 -0.2
v 0.5 0.9 -0.2
v -1.3 0.9 -0.3
v -1.2 0.9 -0.3
v 0.2 0.9 -0.3
v 0.4 0.9 -0.3
v 0.5 0.9 -0.3
v -1.2 0.9 -0.4
v -1.1 0.9 -0.4
v -1 0.9 -0.4
v 0 0.9 -0.4
v 0.1 0.9 -0.4
v 0.2 0.9 -0.4
v 0.3 0.9 -0.4
v 0.4 0.9 -0.4
v -1.1 0.9 -0.5
v -1 0.9 -0.5
v 0 0.9 -0.5
v 0.3 0.9 -0.5
v -1.3 0.9 -0.6
v -1.2 0.9 -0.6
v -0.3 0.9 -0.6
v 0 0.9 -0.6
v -1.2 0.9 -0.7
v -0.3 0.9 -0.7
v -1.3 1 0.5
v -1.2 1 0.5
v -0.3 1 0.5
v 0 1 0.5
v -1.4 1 0.4
v -1.3 1 0.4
v -1.2 1 0.4
v -0.3 1 0.4
v 0 1 0.4
v 0.1 1 0.4
v 0 1 0.3
v 0.1 1 0.3
v 0.3 1 0.3
v 0.4 1 0.3
v 0.3 1 0.2
v 0.4 1 0.2
v 0.5 1 0.2
v -1.3 1 0.1
v 0.4 1 0.1
v 0.5 1 0.1
v 0.6 1 0.1
v 0.5 1 5.96046e-08
v 0.6 1 5.96046e-08
v 0.7 1 5.96046e-08
v 0.5 1 -0.2
v 0.6 1 -0.2
v 0.7 1 -0.2
v -1.3 1 -0.3
v 0.4 1 -0.3
v 0.5 1 -0.3
v 0.6 1 -0.3
v 0.3 1 -0.4
v 0.4 1 -0.4
v 0.5 1 -0.4
v 0 1 -0.5
v 0.1 1 -0.5
v 0.3 1 -0.5
v 0.4 1 -0.5
v -1.4 1 -0.6
v -1.3 1 -0.6
v -1.2 1 -0.6
v -0.3 1 -0.6
v 0 1 -0.6
v 0.1 1 -0.6
v -1.3 1 -0.7
v -1.2 1 -0.7
v -0.3 1 -0.7
v 0 1 -0.7
v -1.4 1.1 0.6
v -0.3 1.1 0.6
v -1.5 1.1 0.5
v -1.4 1.1 0.5
v -1.3 1.1 0.5
v -0.3 1.1 0.5
v -1.4 1.1 0.4
v -1.3 1.1 0.4
v 0.1 1.1 0.4
v 0.2 1.1 0.4
v 0.1 1.1 0.3
v 0.2 1.1 0.3
v 0.4 1.1 0.3
v 0.6 1.1 0.3
v 0.4 1.1 0.2
v 0.5 1.1 0.2
v 0.6 1.1 0.2
v 0.7 1.1 0.2
v 0.5 1.1 0.1
v 0.6 1.1 0.1
v 0.6 1.1 5.96046e-08
v 0.7 1.1 5.96046e-08
v 0.8 1.1 5.96046e-08
v 0.6 1.1 -0.2
v 0.7 1.1 -0.2
v 0.8 1.1 -0.2
v 0.5 1.1 -0.3
v 0.6 1.1 -0.3
v 0.4 1.1 -0.4
v 0.5 1.1 -0.4
v 0.6 1.1 -0.4
v 0.7 1.1 -0.4
v 0.1 1.1 -0.5
v 0.2 1.1 -0.5
v 0.4 1.1 -0.5
v 0.6 1.1 -0.5
v -1.4 1.1 -0.6
v -1.3 1.1 -0.6
v 0.1 1.1 -0.6
v 0.2 1.1 -0.6
v -1.5 1.1 -0.7
v -1.4 1.1 -0.7
v -1.3 1.1 -0.7
v -0.3 1.1 -0.7
v -1.4 1.1 -0.8
v -0.3 1.1 -0.8
v -1.5 1.2 0.6
v -1.4 1.2 0.6
v -0.3 1.2 0.6
v -0.2 1.2 0.6
v -1.6 1.2 0.5
v -1.5 1.2 0.5
v -1.4 1.2 0.5
v -0.3 1.2 0.5
v -0.2 1.2 0.5
v 0 1.2 0.5
v 0.1 1.2 0.5
v 0 1.2 0.4
v 0.1 1.2 0.4
v 0.2 1.2 0.4
v 0.3 1.2 0.4
v 0.2 1.2 0.3
v 0.3 1.2 0.3
v 0.7 1.2 0.1
v 0.8 1.2 0.1
v 0.7 1.2 5.96046e-08
v 0.8 1.2 5.96046e-08
v 0.9 1.2 5.96046e-08
v 0.7 1.2 -0.2
v 0.8 1.2 -0.2
v 0.9 1.2 -0.2
v 0.7 1.2 -0.3
v 0.8 1.2 -0.3
v 0.2 1.2 -0.5
v 0.3 1.2 -0.5
v 0 1.2 -0.6
v 0.1 1.2 -0.6
v 0.2 1.2 -0.6
v 0.3 1.2 -0.6
v -1.6 1.2 -0.7
v -1.5 1.2 -0.7
v -1.4 1.2 -0.7
v -0.3 1.2 -0.7
v -0.2 1.2 -0.7
v 0 1.2 -0.7
v 0.1 1.2 -0.7
v -1.5 1.2 -0.8
v -1.4 1.2 -0.8
v -0.3 1.2 -0.8
v -0.2 1.2 -0.8
v 0.7 1.3 0.2
v 0.8 1.3 0.2
v 0.7 1.3 0.1
v 0.8 1.3 0.1
v 1 1.3 0.1
v 0.8 1.3 5.96046e-08
v 0.9 1.3 5.96046e-08
v 1 1.3 5.96046e-08
v 0.8 1.3 -0.2
v 0.9 1.3 -0.2
v 1 1.3 -0.2
v 0.7 1.3 -0.3
v 0.8 1.3 -0.3
v 1 1.3 -0.3
v 0.7 1.3 -0.4
v 0.8 1.3 -0.4
v 1 1.4 5.96046e-08
v 1.1 1.4 5.96046e-08
v 1 1.4 -0.2
v 1.1 1.4 -0.2
v -0.7 0.1 0.4
v -0.6 0.1 0.4
v -0.4 0.1 0.4
v -0.3 0.1 0.4
v -0.8 0.1 0.3
v -0.7 0.1 0.3
v -0.6 0.1 0.3
v -0.4 0.1 0.3
v -0.3 0.1 0.3
v -0.2 0.1 0.3
v -0.9 0.1 0.2
v -0.8 0.1 0.2
v -0.7 0.1 0.2
v -0.3 0.1 0.2
v -0.2 0.1 0.2
v -0.1 0.1 0.2
v -1 0.1 0.1
v -0.9 0.1 0.1
v -0.8 0.1 0.1
v -0.2 0.1 0.1
v -0.1 0.1 0.1
v 0 0.1 0.1
v -1 0.1 5.96046e-08
v -0.9 0.1 5.96046e-08
v -0.1 0.1 5.96046e-08
v -1 0.1 -0.2
v -0.9 0.1 -0.2
v -0.1 0.1 -0.2
v -1 0.1 -0.3
v -0.9 0.1 -0.3
v -0.8 0.1 -0.3
v -0.2 0.1 -0.3
v -0.1 0.1 -0.3
v 0 0.1 -0.3
v -0.9 0.1 -0.4
v -0.8 0.1 -0.4
v -0.7 0.1 -0.4
v -0.3 0.1 -0.4
v -0.2 0.1 -0.4
v -0.1 0.1 -0.4
v -0.8 0.1 -0.5
v -0.7 0.1 -0.5
v -0.6 0.1 -0.5
v -0.4 0.1 -0.5
v -0.3 0.1 -0.5
v -0.2 0.1 -0.5
v -0.7 0.1 -0.6
v -0.6 0.1 -0.6
v -0.4 0.1 -0.6
v -0.3 0.1 -0.6
v -0.6 0.2 0.4
v -0.4 0.2 0.4
v -0.6 0.2 0.3
v -0.4 0.2 0.3
v -0.6 0.2 -0.5
v -0.4 0.2 -0.5
v -0.6 0.2 -0.6
v -0.4 0.2 -0.6
v -0.7 0.3 0.3
v -0.6 0.3 0.3
v -0.4 0.3 0.3
v -0.3 0.3 0.3
v -0.8 0.3 0.2
v -0.7 0.3 0.2
v -0.6 0.3 0.2
v -0.4 0.3 0.2
v -0.3 0.3 0.2
v -0.9 0.3 0.1
v -0.8 0.3 0.1
v -0.7 0.3 0.1
v -0.2 0.3 0.1
v -0.1 0.3 0.1
v -0.9 0.3 -0.3
v -0.8 0.3 -0.3
v -0.7 0.3 -0.3
v -0.2 0.3 -0.3
v -0.1 0.3 -0.3
v -0.8 0.3 -0.4
v -0.7 0.3 -0.4
v -0.6 0.3 -0.4
v -0.4 0.3 -0.4
v -0.3 0.3 -0.4
v -0.7 0.3 -0.5
v -0.6 0.3 -0.5
v -0.4 0.3 -0.5
v -0.3 0.3 -0.5
v -0.6 0.4 0.3
v -0.4 0.4 0.3
v -0.6 0.4 0.2
v -0.4 0.4 0.2
v -0.3 0.4 0.2
v -0.2 0.4 0.2
v -0.3 0.4 0.1
v -0.2 0.4 0.1
v -0.3 0.4 -0.3
v -0.2 0.4 -0.3
v -0.6 0.4 -0.4
v -0.4 0.4 -0.4
v -0.3 0.4 -0.4
v -0.2 0.4 -0.4
v -0.6 0.4 -0.5
v -0.4 0.4 -0.5
v -0.7 0.5 0.2
v -0.6 0.5 0.2
v -0.4 0.5 0.2
v -0.3 0.5 0.2
v -0.8 0.5 0.1
v -0.7 0.5 0.1
v -0.6 0.5 0.1
v -0.4 0.5 0.1
v -0.3 0.5 0.1
v -0.2 0.5 0.1
v -0.8 0.5 5.96046e-08
v -0.7 0.5 5.96046e-08
v -0.3 0.5 5.96046e-08
v -0.2 0.5 5.96046e-08
v -0.8 0.5 -0.2
v -0.7 0.5 -0.2
v -0.3 0.5 -0.2
v -0.2 0.5 -0.2
v -0.8 0.5 -0.3
v -0.7 0.5 -0.3
v -0.6 0.5 -0.3
v -0.4 0.5 -0.3
v -0.3 0.5 -0.3
v -0.2 0.5 -0.3
v -0.7 0.5 -0.4
v -0.6 0.5 -0.4
v -0.4 0.5 -0.4
v -0.3 0.5 -0.4
v -1.5 1.5 0.6
v -0.2 1.5 0.6
v -1.6 1.5 0.5
v -1.5 1.5 0.5
v -1.4 1.5 0.5
v -0.4 1.5 0.5
v -0.3 1.5 0.5
v -0.2 1.5 0.5
v 0 1.5 0.5
v 0.1 1.5 0.5
v -1.5 1.5 0.4
v -1.4 1.5 0.4
v -0.3 1.5 0.4
v -0.2 1.5 0.4
v 0 1.5 0.4
v 0.1 1.5 0.4
v 0.3 1.5 0.4
v -0.2 1.5 0.3
v 0.1 1.5 0.3
v 0.3 1.5 0.3
v 0.4 1.5 0.3
v 0.6 1.5 0.3
v 0.1 1.5 0.2
v 0.3 1.5 0.2
v 0.4 1.5 0.2
v 0.6 1.5 0.2
v 0.7 1.5 0.2
v 0.8 1.5 0.2
v -0.2 1.5 0.1
v -0.1 1.5 0.1
v 0.3 1.5 0.1
v 0.5 1.5 0.1
v 0.7 1.5 0.1
v 0.8 1.5 0.1
v 1 1.5 0.1
v -0.1 1.5 5.96046e-08
v 0.2 1.5 5.96046e-08
v 0.5 1.5 5.96046e-08
v 0.7 1.5 5.96046e-08
v 1 1.5 5.96046e-08
v 1.1 1.5 5.96046e-08
v -0.1 1.5 -0.2
v 0.2 1.5 -0.2
v 0.5 1.5 -0.2
v 0.7 1.5 -0.2
v 1 1.5 -0.2
v 1.1 1.5 -0.2
v -0.2 1.5 -0.3
v -0.1 1.5 -0.3
v 0.3 1.5 -0.3
v 0.5 1.5 -0.3
v 0.7 1.5 -0.3
v 0.8 1.5 -0.3
v 1 1.5 -0.3
v 0.1 1.5 -0.4
v 0.3 1.5 -0.4
v 0.4 1.5 -0.4
v 0.6 1.5 -0.4
v 0.7 1.5 -0.4
v 0.8 1.5 -0.4
v -0.2 1.5 -0.5
v 0.1 1.5 -0.5
v 0.3 1.5 -0.5
v 0.4 1.5 -0.5
v 0.6 1.5 -0.5
v -1.5 1.5 -0.6
v -1.4 1.5 -0.6
v -0.3 1.5 -0.6
v -0.2 1.5 -0.6
v 0 1.5 -0.6
v 0.1 1.5 -0.6
v 0.3 1.5 -0.6
v -1.6 1.5 -0.7
v -1.5 1.5 -0.7
v -1.4 1.5 -0.7
v -0.4 1.5 -0.7
v -0.3 1.5 -0.7
v -0.2 1.5 -0.7
v 0 1.5 -0.7
v 0.1 1.5 -0.7
v -1.5 1.5 -0.8
v -0.2 1.5 -0.8
v -1.4 1.6 0.5
v -0.4 1.6 0.5
v -0.3 1.6 0.5
v -1.5 1.6 0.4
v -1.4 1.6 0.4
v -0.4 1.6 0.4
v -0.3 1.6 0.4
v -0.2 1.6 0.4
v -1.2 1.6 0.3
v -0.6 1.6 0.3
v -0.6 1.6 0.2
v -0.3 1.6 0.2
v -0.3 1.6 0.1
v -0.2 1.6 0.1
v -0.3 1.6 -0.3
v -0.2 1.6 -0.3
v -0.6 1.6 -0.4
v -0.3 1.6 -0.4
v -1.2 1.6 -0.5
v -0.6 1.6 -0.5
v -1.5 1.6 -0.6
v -1.4 1.6 -0.6
v -0.4 1.6 -0.6
v -0.3 1.6 -0.6
v -0.2 1.6 -0.6
v -1.4 1.6 -0.7
v -0.4 1.6 -0.7
v -0.3 1.6 -0.7

# faces
f 3/4/1 2/4/1 1/4/1
f 4/4/1 2/4/1 3/4/1
f 5/4/1 3/4/1 1/4/1
f 6/3/1 4/3/1 3/3/1
f 6/4/1 3/4/1 5/4/1
f 7/4/1 2/4/1 4/4/1
f 7/3/1 4/3/1 6/3/1
f 8/4/1 2/4/1 7/4/1
f 9/3/1 6/3/1 5/3/1
f 9/3/1 7/3/1 6/3/1
f 9/3/1 8/3/1 7/3/1
f 10/3/1 8/3/1 9/3/1
f 14/4/1 12/4/1 11/4/1
f 15/4/1 12/4/1 14/4/1
f 17/4/1 14/4/1 13/4/1
f 18/4/1 14/4/1 17/4/1
f 19/4/1 16/4/1 15/4/1
f 20/4/1 16/4/1 19/4/1
f 21/3/1 18/3/1 17/3/1
f 22/3/1 18/3/1 21/3/1
f 25/3/1 20/3/1 19/3/1
f 26/3/1 20/3/1 25/3/1
f 27/2/1 24/2/1 23/2/1
f 28/2/1 24/2/1 27/2/1
f 33/4/1 30/4/1 29/4/1
f 34/4/1 30/4/1 33/4/1
f 37/4/1 32/4/1 31/4/1
f 38/4/1 32/4/1 37/4/1
f 39/4/1 36/4/1 35/4/1
f 40/4/1 36/4/1 39/4/1
f 45/2/1 42/2/1 41/2/1
f 46/2/1 42/2/1 45/2/1
f 47/2/1 44/2/1 43/2/1
f 48/2/1 44/2/1 47/2/1
f 54/4/1 50/4/1 49/4/1
f 55/5/1 51/5/1 50/5/1
f 55/4/1 50/4/1 54/4/1
f 56/4/1 52/4/1 51/4/1
f 56/5/1 51/5/1 55/5/1
f 57/4/1 52/4/1 56/4/1
f 59/4/1 54/4/1 53/4/1
f 60/4/1 54/4/1 59/4/1
f 61/4/1 58/4/1 57/4/1
f 62/4/1 58/4/1 61/4/1
f 67/4/1 64/4/1 63/4/1
f 68/4/1 64/4/1 67/4/1
f 69/4/1 66/4/1 65/4/1
f 70/4/1 66/4/1 69/4/1
f 73/5/1 72/5/1 71/5/1
f 74/5/1 72/5/1 73/5/1
f 79/4/1 76/4/1 75/4/1
f 80/5/1 77/5/1 76/5/1
f 80/4/1 76/4/1 79/4/1
f 81/4/1 78/4/1 77/4/1
f 81/5/1 77/5/1 80/5/1
f 82/4/1 78/4/1 81/4/1
f 87/5/1 84/5/1 83/5/1
f 88/5/1 84/5/1 87/5/1
f 89/5/1 86/5/1 85/5/1
f 90/5/1 86/5/1 89/5/1
f 95/4/1 92/4/1 91/4/1
f 96/4/1 92/4/1 95/4/1
f 99/4/1 94/4/1 93/4/1
f 100/4/1 94/4/1 99/4/1
f 101/4/1 97/4/1 96/4/1
f 102/5/1 98/5/1 97/5/1
f 102/4/1 97/4/1 101/4/1
f 103/4/1 99/4/1 98/4/1
f 103/5/1 98/5/1 102/5/1
f 104/4/1 99/4/1 103/4/1
f 105/5/1 102/5/1 101/5/1
f 105/5/1 103/5/1 102/5/1
f 105/5/1 104/5/1 103/5/1
f 106/5/1 104/5/1 105/5/1
f 109/5/1 108/5/1 107/5/1
f 110/5/1 108/5/1 109/5/1
f 115/4/1 112/4/1 111/4/1
f 116/4/1 112/4/1 115/4/1
f 119/4/1 114/4/1 113/4/1
f 120/4/1 114/4/1 119/4/1
f 121/5/1 117/5/1 116/5/1
f 122/5/1 119/5/1 118/5/1
f 123/5/1 121/5/1 116/5/1
f 124/5/1 121/5/1 123/5/1
f 125/5/1 119/5/1 122/5/1
f 126/5/1 119/5/1 125/5/1
f 127/5/1 125/5/1 124/5/1
f 128/5/1 125/5/1 127/5/1
f 129/5/1 125/5/1 128/5/1
f 130/5/1 125/5/1 129/5/1
f 132/5/1 129/5/1 128/5/1
f 133/5/1 129/5/1 132/5/1
f 137/5/1 132/5/1 131/5/1
f 137/5/1 133/5/1 132/5/1
f 137/5/1 134/5/1 133/5/1
f 138/5/1 134/5/1 137/5/1
f 141/5/1 136/5/1 135/5/1
f 142/5/1 136/5/1 141/5/1
f 143/5/1 140/5/1 139/5/1
f 144/5/1 140/5/1 143/5/1
f 149/4/1 146/4/1 145/4/1
f 150/4/1 146/4/1 149/4/1
f 153/4/1 148/4/1 147/4/1
f 154/4/1 148/4/1 153/4/1
f 155/4/1 151/4/1 150/4/1
f 156/4/1 151/4/1 155/4/1
f 159/4/1 153/4/1 152/4/1
f 160/4/1 153/4/1 159/4/1
f 161/5/1 157/5/1 156/5/1
f 162/5/1 157/5/1 161/5/1
f 165/5/1 159/5/1 158/5/1
f 166/5/1 159/5/1 165/5/1
f 168/5/1 163/5/1 162/5/1
f 169/5/1 163/5/1 168/5/1
f 170/5/1 165/5/1 164/5/1
f 171/5/1 165/5/1 170/5/1
f 173/5/1 168/5/1 167/5/1
f 174/5/1 168/5/1 173/5/1
f 175/5/1 172/5/1 171/5/1
f 176/5/1 172/5/1 175/5/1
f 181/4/1 178/4/1 177/4/1
f 182/4/1 178/4/1 181/4/1
f 183/4/1 180/4/1 179/4/1
f 184/4/1 180/4/1 183/4/1
f 189/4/1 186/4/1 185/4/1
f 190/4/1 186/4/1 189/4/1
f 191/4/1 188/4/1 187/4/1
f 192/4/1 188/4/1 191/4/1
f 197/5/1 194/5/1 193/5/1
f 198/5/1 194/5/1 197/5/1
f 199/5/1 196/5/1 195/5/1
f 200/5/1 196/5/1 199/5/1
f 201/4/2 202/4/2 205/4/2
f 205/4/2 202/4/2 206/4/2
f 203/4/2 204/4/2 207/4/2
f 207/4/2 204/4/2 208/4/2
f 209/4/2 210/4/2 213/4/2
f 213/4/2 210/4/2 214/4/2
f 211/4/2 212/4/2 215/4/2
f 215/4/2 212/4/2 216/4/2
f 217/5/2 218/5/2 221/5/2
f 221/5/2 218/5/2 222/5/2
f 219/5/2 220/5/2 223/5/2
f 223/5/2 220/5/2 224/5/2
f 225/5/2 226/5/2 229/5/2
f 229/5/2 226/5/2 230/5/2
f 227/5/2 228/5/2 231/5/2
f 231/5/2 228/5/2 232/5/2
f 233/4/2 234/4/2 237/4/2
f 237/4/2 234/4/2 238/4/2
f 235/4/2 236/4/2 241/4/2
f 241/4/2 236/4/2 242/4/2
f 238/4/2 239/4/2 243/4/2
f 240/4/2 241/4/2 244/4/2
f 238/4/2 243/4/2 245/4/2
f 245/4/2 243/4/2 246/4/2
f 244/4/2 241/4/2 247/4/2
f 247/4/2 241/4/2 248/4/2
f 249/5/2 250/5/2 253/5/2
f 253/5/2 250/5/2 254/5/2
f 251/5/2 252/5/2 257/5/2
f 257/5/2 252/5/2 258/5/2
f 254/5/2 255/5/2 260/5/2
f 260/5/2 255/5/2 261/5/2
f 256/5/2 257/5/2 262/5/2
f 262/5/2 257/5/2 263/5/2
f 259/5/2 260/5/2 265/5/2
f 265/5/2 260/5/2 266/5/2
f 263/5/2 264/5/2 267/5/2
f 267/5/2 264/5/2 268/5/2
f 269/4/2 270/4/2 273/4/2
f 273/4/2 270/4/2 274/4/2
f 271/4/2 272/4/2 275/4/2
f 275/4/2 272/4/2 276/4/2
f 277/4/2 278/4/2 281/4/2
f 281/4/2 278/4/2 282/4/2
f 279/4/2 280/4/2 283/4/2
f 283/4/2 280/4/2 284/4/2
f 285/3/2 286/3/2 289/3/2
f 289/3/2 286/3/2 290/3/2
f 287/3/2 288/3/2 291/3/2
f 291/3/2 288/3/2 292/3/2
f 293/4/2 294/4/2 297/4/2
f 297/4/2 294/4/2 298/4/2
f 295/4/2 296/4/2 301/4/2
f 301/4/2 296/4/2 302/4/2
f 298/4/2 299/4/2 303/4/2
f 303/4/2 299/4/2 304/4/2
f 300/4/2 301/4/2 305/4/2
f 305/4/2 301/4/2 306/4/2
f 303/5/2 304/5/2 307/5/2
f 305/5/2 306/5/2 308/5/2
f 303/5/2 307/5/2 309/5/2
f 307/5/2 308/5/2 309/5/2
f 309/5/2 308/5/2 310/5/2
f 308/5/2 306/5/2 311/5/2
f 310/5/2 308/5/2 311/5/2
f 311/5/2 306/5/2 312/5/2
f 310/5/2 311/5/2 313/5/2
f 313/5/2 311/5/2 314/5/2
f 314/5/2 311/5/2 315/5/2
f 315/5/2 311/5/2 316/5/2
f 314/5/2 315/5/2 318/5/2
f 318/5/2 315/5/2 319/5/2
f 317/5/2 318/5/2 321/5/2
f 319/5/2 320/5/2 321/5/2
f 318/5/2 319/5/2 321/5/2
f 321/5/2 320/5/2 322/5/2
f 323/4/2 324/4/2 327/4/2
f 327/4/2 324/4/2 328/4/2
f 325/4/2 326/4/2 329/4/2
f 329/4/2 326/4/2 330/4/2
f 327/3/2 328/3/2 331/3/2
f 331/3/2 328/3/2 332/3/2
f 329/3/2 330/3/2 339/3/2
f 339/3/2 330/3/2 340/3/2
f 333/2/2 334/2/2 341/2/2
f 334/2/2 335/2/2 341/2/2
f 335/1/2 336/1/2 342/1/2
f 341/2/2 335/2/2 342/2/2
f 337/2/2 338/2/2 343/2/2
f 342/1/2 336/1/2 343/1/2
f 336/2/2 337/2/2 343/2/2
f 343/2/2 338/2/2 344/2/2
f 345/4/2 346/4/2 349/4/2
f 349/4/2 346/4/2 350/4/2
f 347/4/2 348/4/2 353/4/2
f 353/4/2 348/4/2 354/4/2
f 350/5/2 351/5/2 355/5/2
f 351/4/2 352/4/2 356/4/2
f 355/5/2 351/5/2 356/5/2
f 352/5/2 353/5/2 357/5/2
f 356/4/2 352/4/2 357/4/2
f 357/5/2 353/5/2 358/5/2
f 355/4/2 356/4/2 359/4/2
f 356/4/2 357/4/2 359/4/2
f 357/4/2 358/4/2 359/4/2
f 359/4/2 358/4/2 360/4/2
f 361/5/2 362/5/2 365/5/2
f 365/5/2 362/5/2 366/5/2
f 363/5/2 364/5/2 367/5/2
f 367/5/2 364/5/2 368/5/2
f 369/4/2 370/4/2 371/4/2
f 371/4/2 370/4/2 372/4/2
f 373/5/2 374/5/2 377/5/2
f 377/5/2 374/5/2 378/5/2
f 375/4/2 376/4/2 381/4/2
f 381/4/2 376/4/2 382/4/2
f 378/4/2 379/4/2 383/4/2
f 383/4/2 379/4/2 384/4/2
f 380/4/2 381/4/2 386/4/2
f 386/4/2 381/4/2 387/4/2
f 384/4/2 385/4/2 388/4/2
f 388/4/2 385/4/2 389/4/2
f 390/5/2 391/5/2 392/5/2
f 392/5/2 391/5/2 393/5/2
f 394/4/2 395/4/2 398/4/2
f 398/4/2 395/4/2 399/4/2
f 396/4/2 397/4/2 400/4/2
f 400/4/2 397/4/2 401/4/2
f 402/4/2 403/4/2 406/4/2
f 406/4/2 403/4/2 407/4/2
f 404/4/2 405/4/2 408/4/2
f 408/4/2 405/4/2 409/4/2
f 410/4/2 411/4/2 414/4/2
f 414/4/2 411/4/2 415/4/2
f 412/4/2 413/4/2 416/4/2
f 416/4/2 413/4/2 417/4/2
f 418/4/2 419/4/2 422/4/2
f 422/4/2 419/4/2 423/4/2
f 420/4/2 421/4/2 424/4/2
f 424/4/2 421/4/2 425/4/2
f 426/4/2 427/4/2 430/4/2
f 428/4/2 429/4/2 431/4/2
f 426/4/2 430/4/2 432/4/2
f 432/4/2 430/4/2 433/4/2
f 431/4/2 429/4/2 434/4/2
f 434/4/2 429/4/2 435/4/2
f 436/4/2 437/4/2 441/4/2
f 441/4/2 437/4/2 442/4/2
f 438/4/2 439/4/2 443/4/2
f 443/4/2 439/4/2 444/4/2
f 440/4/2 441/4/2 446/4/2
f 446/4/2 441/4/2 447/4/2
f 444/4/2 445/4/2 448/4/2
f 448/4/2 445/4/2 449/4/2
f 450/4/2 451/4/2 455/4/2
f 451/5/2 452/5/2 456/5/2
f 455/4/2 451/4/2 456/4/2
f 452/4/2 453/4/2 457/4/2
f 456/5/2 452/5/2 457/5/2
f 457/4/2 453/4/2 458/4/2
f 454/4/2 455/4/2 460/4/2
f 460/4/2 455/4/2 461/4/2
f 458/4/2 459/4/2 462/4/2
f 462/4/2 459/4/2 463/4/2
f 464/4/2 465/4/2 470/4/2
f 470/4/2 465/4/2 471/4/2
f 466/4/2 467/4/2 472/4/2
f 472/4/2 467/4/2 473/4/2
f 468/4/2 469/4/2 476/4/2
f 474/4/2 475/4/2 477/4/2
f 468/4/2 476/4/2 478/4/2
f 478/4/2 476/4/2 479/4/2
f 477/4/2 475/4/2 480/4/2
f 480/4/2 475/4/2 481/4/2
f 482/4/2 483/4/2 485/4/2
f 485/4/2 483/4/2 486/4/2
f 484/4/2 485/4/2 488/4/2
f 488/4/2 485/4/2 489/4/2
f 486/4/2 487/4/2 490/4/2
f 490/4/2 487/4/2 491/4/2
f 484/4/2 488/4/2 492/4/2
f 492/4/2 488/4/2 493/4/2
f 491/4/2 487/4/2 494/4/2
f 494/4/2 487/4/2 495/4/2
f 496/4/2 497/4/2 499/4/2
f 499/4/2 497/4/2 500/4/2
f 498/4/2 499/4/2 503/4/2
f 503/4/2 499/4/2 504/4/2
f 500/4/2 501/4/2 505/4/2
f 505/4/2 501/4/2 506/4/2
f 502/4/2 503/4/2 508/4/2
f 506/4/2 507/4/2 509/4/2
f 502/4/2 508/4/2 510/4/2
f 510/4/2 508/4/2 511/4/2
f 509/4/2 507/4/2 512/4/2
f 512/4/2 507/4/2 513/4/2
f 514/4/2 515/4/2 516/4/2
f 516/4/2 515/4/2 517/4/2
f 518/4/2 519/4/2 522/4/2
f 519/3/2 520/3/2 523/3/2
f 522/4/2 519/4/2 523/4/2
f 520/4/2 521/4/2 524/4/2
f 523/3/2 520/3/2 524/3/2
f 524/4/2 521/4/2 525/4/2
f 522/3/2 523/3/2 526/3/2
f 526/3/2 523/3/2 527/3/2
f 524/3/2 525/3/2 528/3/2
f 528/3/2 525/3/2 529/3/2
f 530/3/2 531/3/2 532/3/2
f 532/3/2 531/3/2 533/3/2
f 538/4/3 535/4/3 534/4/3
f 539/4/3 538/4/3 537/4/3
f 540/4/3 535/4/3 538/4/3
f 540/4/3 538/4/3 539/4/3
f 541/4/3 535/4/3 540/4/3
f 542/3/3 536/3/3 535/3/3
f 542/4/3 535/4/3 541/4/3
f 543/3/3 536/3/3 542/3/3
f 548/4/3 545/4/3 544/4/3
f 549/3/3 546/3/3 545/3/3
f 549/4/3 545/4/3 548/4/3
f 550/3/3 546/3/3 549/3/3
f 551/4/3 548/4/3 547/4/3
f 552/4/3 548/4/3 551/4/3
f 558/4/3 556/4/3 555/4/3
f 559/2/3 554/2/3 553/2/3
f 560/2/3 554/2/3 559/2/3
f 561/4/3 558/4/3 557/4/3
f 562/4/3 556/4/3 558/4/3
f 562/4/3 558/4/3 561/4/3
f 563/4/3 556/4/3 562/4/3
f 565/3/3 560/3/3 559/3/3
f 566/3/3 560/3/3 565/3/3
f 567/4/3 564/4/3 563/4/3
f 567/4/3 563/4/3 562/4/3
f 570/4/3 567/4/3 562/4/3
f 570/4/3 568/4/3 567/4/3
f 571/4/3 568/4/3 570/4/3
f 572/3/3 569/3/3 568/3/3
f 572/4/3 568/4/3 571/4/3
f 573/3/3 569/3/3 572/3/3
f 574/4/3 572/4/3 571/4/3
f 574/4/3 573/4/3 572/4/3
f 575/4/3 573/4/3 574/4/3
f 580/2/3 577/2/3 576/2/3
f 581/2/3 577/2/3 580/2/3
f 583/4/3 579/4/3 578/4/3
f 584/4/3 579/4/3 583/4/3
f 585/4/3 583/4/3 582/4/3
f 586/4/3 583/4/3 585/4/3
f 589/4/3 588/4/3 587/4/3
f 591/4/3 589/4/3 587/4/3
f 591/4/3 590/4/3 589/4/3
f 592/4/3 590/4/3 591/4/3
f 593/4/3 591/4/3 587/4/3
f 594/4/3 591/4/3 593/4/3
f 599/2/3 598/2/3 597/2/3
f 600/2/3 598/2/3 599/2/3
f 601/4/3 596/4/3 595/4/3
f 602/4/3 596/4/3 601/4/3
f 604/4/3 603/4/3 602/4/3
f 605/4/3 603/4/3 604/4/3
f 606/4/3 603/4/3 605/4/3
f 608/4/3 607/4/3 606/4/3
f 608/4/3 606/4/3 605/4/3
f 609/4/3 607/4/3 608/4/3
f 610/4/3 607/4/3 609/4/3
f 611/4/3 607/4/3 610/4/3
f 617/5/3 613/5/3 612/5/3
f 618/4/3 615/4/3 614/4/3
f 619/4/3 615/4/3 618/4/3
f 621/4/3 620/4/3 619/4/3
f 622/4/3 620/4/3 621/4/3
f 623/4/3 620/4/3 622/4/3
f 626/4/3 624/4/3 623/4/3
f 626/4/3 623/4/3 622/4/3
f 627/4/3 624/4/3 626/4/3
f 628/4/3 624/4/3 627/4/3
f 629/5/3 617/5/3 616/5/3
f 630/5/3 613/5/3 617/5/3
f 630/5/3 617/5/3 629/5/3
f 632/4/3 626/4/3 625/4/3
f 632/4/3 627/4/3 626/4/3
f 633/4/3 627/4/3 632/4/3
f 634/4/3 632/4/3 631/4/3
f 635/4/3 632/4/3 634/4/3
f 636/5/3 613/5/3 630/5/3
f 637/5/3 613/5/3 636/5/3
f 640/4/3 639/4/3 638/4/3
f 642/4/3 641/4/3 640/4/3
f 644/4/3 640/4/3 638/4/3
f 644/4/3 643/4/3 642/4/3
f 644/4/3 642/4/3 640/4/3
f 645/4/3 643/4/3 644/4/3
f 646/4/3 643/4/3 645/4/3
f 649/4/3 646/4/3 645/4/3
f 649/4/3 647/4/3 646/4/3
f 650/4/3 647/4/3 649/4/3
f 651/3/3 648/3/3 647/3/3
f 651/4/3 647/4/3 650/4/3
f 652/3/3 648/3/3 651/3/3
f 653/4/3 651/4/3 650/4/3
f 653/4/3 652/4/3 651/4/3
f 654/4/3 652/4/3 653/4/3
f 657/5/3 656/5/3 655/5/3
f 658/5/3 656/5/3 657/5/3
f 663/4/3 660/4/3 659/4/3
f 664/4/3 660/4/3 663/4/3
f 666/5/3 662/5/3 661/5/3
f 667/5/3 662/5/3 666/5/3
f 668/5/3 665/5/3 664/5/3
f 669/5/3 665/5/3 668/5/3
f 673/5/3 670/5/3 669/5/3
f 674/5/3 670/5/3 673/5/3
f 675/5/3 670/5/3 674/5/3
f 676/5/3 672/5/3 671/5/3
f 678/5/3 675/5/3 674/5/3
f 678/5/3 676/5/3 675/5/3
f 679/5/3 676/5/3 678/5/3
f 680/5/3 672/5/3 676/5/3
f 680/5/3 676/5/3 679/5/3
f 681/5/3 672/5/3 680/5/3
f 685/5/3 679/5/3 678/5/3
f 685/5/3 678/5/3 677/5/3
f 686/5/3 679/5/3 685/5/3
f 687/5/3 679/5/3 686/5/3
f 688/5/3 681/5/3 680/5/3
f 688/5/3 682/5/3 681/5/3
f 689/5/3 682/5/3 688/5/3
f 691/4/3 684/4/3 683/4/3
f 692/5/3 686/5/3 685/5/3
f 692/5/3 685/5/3 684/5/3
f 692/4/3 684/4/3 691/4/3
f 693/5/3 686/5/3 692/5/3
f 694/4/3 691/4/3 690/4/3
f 695/4/3 691/4/3 694/4/3
f 698/5/3 697/5/3 696/5/3
f 699/5/3 697/5/3 698/5/3
f 702/4/3 701/4/3 700/4/3
f 703/4/3 701/4/3 702/4/3
f 705/4/3 704/4/3 703/4/3
f 706/4/3 704/4/3 705/4/3
f 710/4/3 708/4/3 707/4/3
f 711/4/3 708/4/3 710/4/3
f 712/3/3 709/3/3 708/3/3
f 712/4/3 708/4/3 711/4/3
f 713/3/3 709/3/3 712/3/3
f 714/4/3 712/4/3 711/4/3
f 714/4/3 713/4/3 712/4/3
f 715/4/3 713/4/3 714/4/3
f 718/4/3 717/4/3 716/4/3
f 719/4/3 717/4/3 718/4/3
f 722/4/3 720/4/3 719/4/3
f 723/5/3 721/5/3 720/5/3
f 723/4/3 720/4/3 722/4/3
f 724/5/3 721/5/3 723/5/3
f 728/5/3 725/5/3 724/5/3
f 729/5/3 725/5/3 728/5/3
f 730/5/3 727/5/3 726/5/3
f 731/5/3 727/5/3 730/5/3
f 732/5/3 730/5/3 729/5/3
f 733/5/3 730/5/3 732/5/3
f 737/5/3 735/5/3 734/5/3
f 738/5/3 735/5/3 737/5/3
f 743/5/3 737/5/3 736/5/3
f 744/5/3 737/5/3 743/5/3
f 745/5/3 739/5/3 738/5/3
f 746/5/3 739/5/3 745/5/3
f 748/5/3 741/5/3 740/5/3
f 749/4/3 742/4/3 741/4/3
f 749/5/3 741/5/3 748/5/3
f 750/4/3 742/4/3 749/4/3
f 751/5/3 739/5/3 746/5/3
f 752/5/3 739/5/3 751/5/3
f 753/4/3 748/4/3 747/4/3
f 754/4/3 748/4/3 753/4/3
f 757/4/3 756/4/3 755/4/3
f 758/4/3 756/4/3 757/4/3
f 760/4/3 759/4/3 758/4/3
f 761/4/3 759/4/3 760/4/3
f 764/4/3 763/4/3 762/4/3
f 765/4/3 763/4/3 764/4/3
f 768/4/3 766/4/3 765/4/3
f 769/3/3 767/3/3 766/3/3
f 769/4/3 766/4/3 768/4/3
f 770/3/3 767/3/3 769/3/3
f 773/5/3 772/5/3 771/5/3
f 774/5/3 772/5/3 773/5/3
f 777/5/3 776/5/3 775/5/3
f 778/5/3 776/5/3 777/5/3
f 781/4/3 780/4/3 779/4/3
f 782/4/3 780/4/3 781/4/3
f 784/4/3 783/4/3 782/4/3
f 785/4/3 783/4/3 784/4/3
f 787/4/3 786/4/3 785/4/3
f 788/4/3 786/4/3 787/4/3
f 791/3/3 790/3/3 789/3/3
f 792/3/3 790/3/3 791/3/3
f 793/5/4 794/5/4 795/5/4
f 795/5/4 794/5/4 796/5/4
f 797/5/4 798/5/4 799/5/4
f 799/5/4 798/5/4 800/5/4
f 801/4/4 802/4/4 803/4/4
f 803/4/4 802/4/4 804/4/4
f 804/4/4 805/4/4 806/4/4
f 806/4/4 805/4/4 807/4/4
f 807/4/4 808/4/4 809/4/4
f 809/4/4 808/4/4 810/4/4
f 811/3/4 812/3/4 813/3/4
f 813/3/4 812/3/4 814/3/4
f 815/4/4 816/4/4 817/4/4
f 817/4/4 816/4/4 818/4/4
f 818/4/4 819/4/4 821/4/4
f 819/5/4 820/5/4 822/5/4
f 821/4/4 819/4/4 822/4/4
f 822/5/4 820/5/4 823/5/4
f 823/5/4 824/5/4 827/5/4
f 827/5/4 824/5/4 828/5/4
f 825/5/4 826/5/4 829/5/4
f 829/5/4 826/5/4 830/5/4
f 828/5/4 829/5/4 831/5/4
f 831/5/4 829/5/4 832/5/4
f 833/5/4 834/5/4 836/5/4
f 836/5/4 834/5/4 837/5/4
f 835/5/4 836/5/4 842/5/4
f 842/5/4 836/5/4 843/5/4
f 837/5/4 838/5/4 844/5/4
f 844/5/4 838/5/4 845/5/4
f 839/5/4 840/5/4 847/5/4
f 840/4/4 841/4/4 848/4/4
f 847/5/4 840/5/4 848/5/4
f 848/4/4 841/4/4 849/4/4
f 845/5/4 838/5/4 850/5/4
f 850/5/4 838/5/4 851/5/4
f 846/4/4 847/4/4 852/4/4
f 852/4/4 847/4/4 853/4/4
f 854/4/4 855/4/4 856/4/4
f 856/4/4 855/4/4 857/4/4
f 857/4/4 858/4/4 859/4/4
f 859/4/4 858/4/4 860/4/4
f 861/4/4 862/4/4 863/4/4
f 863/4/4 862/4/4 864/4/4
f 864/4/4 865/4/4 867/4/4
f 865/3/4 866/3/4 868/3/4
f 867/4/4 865/4/4 868/4/4
f 868/3/4 866/3/4 869/3/4
f 870/5/4 871/5/4 872/5/4
f 872/5/4 871/5/4 873/5/4
f 874/4/4 875/4/4 878/4/4
f 878/4/4 875/4/4 879/4/4
f 876/5/4 877/5/4 881/5/4
f 881/5/4 877/5/4 882/5/4
f 879/5/4 880/5/4 883/5/4
f 883/5/4 880/5/4 884/5/4
f 884/5/4 885/5/4 888/5/4
f 888/5/4 885/5/4 889/5/4
f 889/5/4 885/5/4 890/5/4
f 886/5/4 887/5/4 891/5/4
f 889/5/4 890/5/4 893/5/4
f 890/5/4 891/5/4 893/5/4
f 893/5/4 891/5/4 894/5/4
f 891/5/4 887/5/4 895/5/4
f 894/5/4 891/5/4 895/5/4
f 895/5/4 887/5/4 896/5/4
f 893/5/4 894/5/4 900/5/4
f 892/5/4 893/5/4 900/5/4
f 900/5/4 894/5/4 901/5/4
f 901/5/4 894/5/4 902/5/4
f 895/5/4 896/5/4 903/5/4
f 896/5/4 897/5/4 903/5/4
f 903/5/4 897/5/4 904/5/4
f 898/4/4 899/4/4 906/4/4
f 900/5/4 901/5/4 907/5/4
f 899/5/4 900/5/4 907/5/4
f 906/4/4 899/4/4 907/4/4
f 907/5/4 901/5/4 908/5/4
f 905/4/4 906/4/4 909/4/4
f 909/4/4 906/4/4 910/4/4
f 911/5/4 912/5/4 913/5/4
f 913/5/4 912/5/4 914/5/4
f 915/4/4 916/4/4 917/4/4
f 917/4/4 916/4/4 918/4/4
f 918/4/4 919/4/4 920/4/4
f 920/4/4 919/4/4 921/4/4
f 922/4/4 923/4/4 925/4/4
f 925/4/4 923/4/4 926/4/4
f 923/3/4 924/3/4 927/3/4
f 926/4/4 923/4/4 927/4/4
f 927/3/4 924/3/4 928/3/4
f 926/4/4 927/4/4 929/4/4
f 927/4/4 928/4/4 929/4/4
f 929/4/4 928/4/4 930/4/4
f 931/5/4 932/5/4 936/5/4
f 933/4/4 934/4/4 937/4/4
f 937/4/4 934/4/4 938/4/4
f 938/4/4 939/4/4 940/4/4
f 940/4/4 939/4/4 941/4/4
f 941/4/4 939/4/4 942/4/4
f 942/4/4 943/4/4 945/4/4
f 941/4/4 942/4/4 945/4/4
f 945/4/4 943/4/4 946/4/4
f 946/4/4 943/4/4 947/4/4
f 935/5/4 936/5/4 948/5/4
f 936/5/4 932/5/4 949/5/4
f 948/5/4 936/5/4 949/5/4
f 944/4/4 945/4/4 951/4/4
f 945/4/4 946/4/4 951/4/4
f 951/4/4 946/4/4 952/4/4
f 950/4/4 951/4/4 953/4/4
f 953/4/4 951/4/4 954/4/4
f 949/5/4 932/5/4 955/5/4
f 955/5/4 932/5/4 956/5/4
f 956/4/4 957/4/4 958/4/4
f 958/4/4 959/4/4 960/4/4
f 956/4/4 958/4/4 962/4/4
f 960/4/4 961/4/4 962/4/4
f 958/4/4 960/4/4 962/4/4
f 962/4/4 961/4/4 963/4/4
f 963/4/4 961/4/4 964/4/4
f 963/4/4 964/4/4 967/4/4
f 964/4/4 965/4/4 967/4/4
f 967/4/4 965/4/4 968/4/4
f 965/3/4 966/3/4 969/3/4
f 968/4/4 965/4/4 969/4/4
f 969/3/4 966/3/4 970/3/4
f 968/4/4 969/4/4 971/4/4
f 969/4/4 970/4/4 971/4/4
f 971/4/4 970/4/4 972/4/4
f 973/2/4 974/2/4 977/2/4
f 977/2/4 974/2/4 978/2/4
f 975/4/4 976/4/4 980/4/4
f 980/4/4 976/4/4 981/4/4
f 979/4/4 980/4/4 982/4/4
f 982/4/4 980/4/4 983/4/4
f 984/4/4 985/4/4 986/4/4
f 984/4/4 986/4/4 988/4/4
f 986/4/4 987/4/4 988/4/4
f 988/4/4 987/4/4 989/4/4
f 984/4/4 988/4/4 990/4/4
f 990/4/4 988/4/4 991/4/4
f 994/2/4 995/2/4 996/2/4
f 996/2/4 995/2/4 997/2/4
f 992/4/4 993/4/4 998/4/4
f 998/4/4 993/4/4 999/4/4
f 999/4/4 1000/4/4 1001/4/4
f 1001/4/4 1000/4/4 1002/4/4
f 1002/4/4 1000/4/4 1003/4/4
f 1003/4/4 1004/4/4 1005/4/4
f 1002/4/4 1003/4/4 1005/4/4
f 1005/4/4 1004/4/4 1006/4/4
f 1006/4/4 1004/4/4 1007/4/4
f 1007/4/4 1004/4/4 1008/4/4
f 1009/4/4 1010/4/4 1013/4/4
f 1010/3/4 1011/3/4 1014/3/4
f 1013/4/4 1010/4/4 1014/4/4
f 1014/3/4 1011/3/4 1015/3/4
f 1012/4/4 1013/4/4 1016/4/4
f 1016/4/4 1013/4/4 1017/4/4
f 1020/4/4 1021/4/4 1023/4/4
f 1018/2/4 1019/2/4 1024/2/4
f 1024/2/4 1019/2/4 1025/2/4
f 1022/4/4 1023/4/4 1026/4/4
f 1023/4/4 1021/4/4 1027/4/4
f 1026/4/4 1023/4/4 1027/4/4
f 1027/4/4 1021/4/4 1028/4/4
f 1024/3/4 1025/3/4 1030/3/4
f 1030/3/4 1025/3/4 1031/3/4
f 1028/4/4 1029/4/4 1032/4/4
f 1027/4/4 1028/4/4 1032/4/4
f 1027/4/4 1032/4/4 1035/4/4
f 1032/4/4 1033/4/4 1035/4/4
f 1035/4/4 1033/4/4 1036/4/4
f 1033/3/4 1034/3/4 1037/3/4
f 1036/4/4 1033/4/4 1037/4/4
f 1037/3/4 1034/3/4 1038/3/4
f 1036/4/4 1037/4/4 1039/4/4
f 1037/4/4 1038/4/4 1039/4/4
f 1039/4/4 1038/4/4 1040/4/4
f 1041/4/4 1042/4/4 1045/4/4
f 1044/4/4 1045/4/4 1046/4/4
f 1045/4/4 1042/4/4 1047/4/4
f 1046/4/4 1045/4/4 1047/4/4
f 1047/4/4 1042/4/4 1048/4/4
f 1042/3/4 1043/3/4 1049/3/4
f 1048/4/4 1042/4/4 1049/4/4
f 1049/3/4 1043/3/4 1050/3/4
f 1054/4/5 1052/4/5 1051/4/5
f 1055/4/5 1052/4/5 1054/4/5
f 1056/4/5 1052/4/5 1055/4/5
f 1057/4/5 1052/4/5 1056/4/5
f 1060/4/5 1054/4/5 1053/4/5
f 1060/4/5 1055/4/5 1054/4/5
f 1061/5/5 1056/5/5 1055/5/5
f 1061/4/5 1055/4/5 1060/4/5
f 1062/4/5 1058/4/5 1057/4/5
f 1062/5/5 1056/5/5 1061/5/5
f 1062/4/5 1057/4/5 1056/4/5
f 1063/4/5 1058/4/5 1062/4/5
f 1064/4/5 1058/4/5 1063/4/5
f 1067/4/5 1060/4/5 1059/4/5
f 1068/5/5 1061/5/5 1060/5/5
f 1068/4/5 1065/4/5 1064/4/5
f 1068/5/5 1062/5/5 1061/5/5
f 1068/5/5 1063/5/5 1062/5/5
f 1068/4/5 1064/4/5 1063/4/5
f 1069/4/5 1065/4/5 1068/4/5
f 1070/4/5 1065/4/5 1069/4/5
f 1072/4/5 1067/4/5 1066/4/5
f 1073/4/5 1060/4/5 1067/4/5
f 1073/4/5 1067/4/5 1072/4/5
f 1073/5/5 1068/5/5 1060/5/5
f 1073/5/5 1069/5/5 1068/5/5
f 1074/5/5 1073/5/5 1072/5/5
f 1075/5/5 1069/5/5 1073/5/5
f 1075/5/5 1073/5/5 1074/5/5
f 1076/4/5 1075/4/5 1074/4/5
f 1077/4/5 1075/4/5 1076/4/5
f 1078/5/5 1069/5/5 1075/5/5
f 1079/4/5 1071/4/5 1070/4/5
f 1079/5/5 1069/5/5 1078/5/5
f 1079/4/5 1070/4/5 1069/4/5
f 1080/4/5 1071/4/5 1079/4/5
f 1081/4/5 1071/4/5 1080/4/5
f 1082/4/5 1075/4/5 1077/4/5
f 1083/5/5 1078/5/5 1075/5/5
f 1083/4/5 1075/4/5 1082/4/5
f 1084/5/5 1078/5/5 1083/5/5
f 1085/5/5 1078/5/5 1084/5/5
f 1086/4/5 1080/4/5 1079/4/5
f 1086/5/5 1078/5/5 1085/5/5
f 1086/4/5 1079/4/5 1078/4/5
f 1087/4/5 1080/4/5 1086/4/5
f 1088/4/5 1080/4/5 1087/4/5
f 1089/4/5 1084/4/5 1083/4/5
f 1090/4/5 1084/4/5 1089/4/5
f 1091/5/5 1085/5/5 1084/5/5
f 1091/4/5 1084/4/5 1090/4/5
f 1092/4/5 1087/4/5 1086/4/5
f 1092/5/5 1085/5/5 1091/5/5
f 1092/4/5 1086/4/5 1085/4/5
f 1093/4/5 1087/4/5 1092/4/5
f 1094/4/5 1087/4/5 1093/4/5
f 1095/4/5 1091/4/5 1090/4/5
f 1095/4/5 1093/4/5 1092/4/5
f 1095/4/5 1092/4/5 1091/4/5
f 1096/4/5 1093/4/5 1095/4/5
f 1102/5/5 1098/5/5 1097/5/5
f 1103/5/5 1098/5/5 1102/5/5
f 1104/5/5 1100/5/5 1099/5/5
f 1105/5/5 1100/5/5 1104/5/5
f 1107/5/5 1102/5/5 1101/5/5
f 1108/5/5 1102/5/5 1107/5/5
f 1109/5/5 1106/5/5 1105/5/5
f 1110/5/5 1106/5/5 1109/5/5
f 1115/5/5 1112/5/5 1111/5/5
f 1116/5/5 1112/5/5 1115/5/5
f 1119/5/5 1114/5/5 1113/5/5
f 1120/5/5 1114/5/5 1119/5/5
f 1121/5/5 1117/5/5 1116/5/5
f 1122/5/5 1117/5/5 1121/5/5
f 1123/5/5 1119/5/5 1118/5/5
f 1124/5/5 1119/5/5 1123/5/5
f 1128/5/5 1126/5/5 1125/5/5
f 1129/5/5 1126/5/5 1128/5/5
f 1130/5/5 1126/5/5 1129/5/5
f 1131/5/5 1128/5/5 1127/5/5
f 1131/5/5 1129/5/5 1128/5/5
f 1132/5/5 1129/5/5 1131/5/5
f 1135/5/5 1131/5/5 1127/5/5
f 1137/5/5 1134/5/5 1133/5/5
f 1138/5/5 1134/5/5 1137/5/5
f 1139/5/5 1136/5/5 1135/5/5
f 1139/5/5 1135/5/5 1127/5/5
f 1140/5/5 1136/5/5 1139/5/5
f 1141/5/5 1136/5/5 1140/5/5
f 1143/5/5 1142/5/5 1141/5/5
f 1143/5/5 1141/5/5 1140/5/5
f 1144/5/5 1142/5/5 1143/5/5
f 1150/5/5 1146/5/5 1145/5/5
f 1151/5/5 1146/5/5 1150/5/5
f 1152/5/5 1146/5/5 1151/5/5
f 1153/5/5 1148/5/5 1147/5/5
f 1154/5/5 1148/5/5 1153/5/5
f 1155/5/5 1148/5/5 1154/5/5
f 1157/5/5 1156/5/5 1155/5/5
f 1157/5/5 1155/5/5 1154/5/5
f 1158/5/5 1156/5/5 1157/5/5
f 1160/5/5 1156/5/5 1158/5/5
f 1161/5/5 1150/5/5 1149/5/5
f 1161/5/5 1151/5/5 1150/5/5
f 1162/5/5 1151/5/5 1161/5/5
f 1163/5/5 1151/5/5 1162/5/5
f 1166/5/5 1160/5/5 1159/5/5
f 1167/5/5 1156/5/5 1160/5/5
f 1167/5/5 1160/5/5 1166/5/5
f 1168/5/5 1156/5/5 1167/5/5
f 1169/5/5 1164/5/5 1163/5/5
f 1169/5/5 1163/5/5 1162/5/5
f 1170/5/5 1164/5/5 1169/5/5
f 1171/5/5 1166/5/5 1165/5/5
f 1171/5/5 1167/5/5 1166/5/5
f 1172/5/5 1167/5/5 1171/5/5
f 1176/4/5 1174/4/5 1173/4/5
f 1177/4/5 1174/4/5 1176/4/5
f 1179/4/5 1176/4/5 1175/4/5
f 1179/4/5 1178/4/5 1177/4/5
f 1179/4/5 1177/4/5 1176/4/5
f 1180/4/5 1178/4/5 1179/4/5
f 1181/4/5 1178/4/5 1180/4/5
f 1182/4/5 1178/4/5 1181/4/5
f 1184/4/5 1179/4/5 1175/4/5
f 1185/5/5 1180/5/5 1179/5/5
f 1185/4/5 1179/4/5 1184/4/5
f 1186/5/5 1180/5/5 1185/5/5
f 1187/4/5 1183/4/5 1182/4/5
f 1187/4/5 1182/4/5 1181/4/5
f 1188/4/5 1183/4/5 1187/4/5
f 1189/4/5 1183/4/5 1188/4/5
f 1190/4/5 1183/4/5 1189/4/5
f 1192/4/5 1184/4/5 1175/4/5
f 1193/5/5 1185/5/5 1184/5/5
f 1193/4/5 1184/4/5 1192/4/5
f 1194/4/5 1191/4/5 1190/4/5
f 1194/4/5 1190/4/5 1189/4/5
f 1194/5/5 1189/5/5 1188/5/5
f 1195/4/5 1191/4/5 1194/4/5
f 1197/5/5 1195/5/5 1194/5/5
f 1197/4/5 1196/4/5 1195/4/5
f 1198/4/5 1196/4/5 1197/4/5
f 1199/5/5 1197/5/5 1194/5/5
f 1199/5/5 1198/5/5 1197/5/5
f 1200/5/5 1198/5/5 1199/5/5
f 1201/5/5 1193/5/5 1192/5/5
f 1202/5/5 1185/5/5 1193/5/5
f 1202/5/5 1193/5/5 1201/5/5
f 1203/5/5 1194/5/5 1188/5/5
f 1203/5/5 1199/5/5 1194/5/5
f 1204/4/5 1200/4/5 1199/4/5
f 1204/5/5 1199/5/5 1203/5/5
f 1205/4/5 1200/4/5 1204/4/5
f 1206/5/5 1185/5/5 1202/5/5
f 1206/4/5 1202/4/5 1201/4/5
f 1207/5/5 1185/5/5 1206/5/5
f 1210/5/5 1203/5/5 1188/5/5
f 1211/4/5 1204/4/5 1203/4/5
f 1211/5/5 1203/5/5 1210/5/5
f 1212/4/5 1204/4/5 1211/4/5
f 1213/4/5 1204/4/5 1212/4/5
f 1214/5/5 1208/5/5 1207/5/5
f 1214/4/5 1207/4/5 1206/4/5
f 1215/5/5 1208/5/5 1214/5/5
f 1216/4/5 1210/4/5 1209/4/5
f 1216/4/5 1212/4/5 1211/4/5
f 1216/4/5 1211/4/5 1210/4/5
f 1217/4/5 1212/4/5 1216/4/5
f 1218/4/5 1215/4/5 1214/4/5
f 1218/4/5 1206/4/5 1201/4/5
f 1218/4/5 1216/4/5 1215/4/5
f 1218/4/5 1214/4/5 1206/4/5
f 1219/4/5 1216/4/5 1218/4/5
f 1220/4/5 1216/4/5 1219/4/5
f 1221/4/5 1216/4/5 1220/4/5
f 1222/4/5 1220/4/5 1219/4/5
f 1223/4/5 1220/4/5 1222/4/5
f 1229/4/5 1225/4/5 1224/4/5
f 1230/4/5 1225/4/5 1229/4/5
f 1231/4/5 1227/4/5 1226/4/5
f 1232/4/5 1227/4/5 1231/4/5
f 1234/4/5 1233/4/5 1232/4/5
f 1235/4/5 1233/4/5 1234/4/5
f 1238/4/5 1237/4/5 1236/4/5
f 1239/4/5 1237/4/5 1238/4/5
f 1241/4/5 1229/4/5 1228/4/5
f 1242/4/5 1240/4/5 1239/4/5
f 1243/4/5 1240/4/5 1242/4/5
f 1245/4/5 1244/4/5 1243/4/5
f 1246/4/5 1244/4/5 1245/4/5
f 1248/3/5 1246/3/5 1245/3/5
f 1249/4/5 1247/4/5 1246/4/5
f 1249/3/5 1246/3/5 1248/3/5
f 1250/4/5 1247/4/5 1249/4/5
f 1251/4/5 1241/4/5 1228/4/5
f 1253/4/5 1249/4/5 1248/4/5
f 1254/4/5 1249/4/5 1253/4/5
f 1256/4/5 1253/4/5 1252/4/5
f 1257/4/5 1253/4/5 1256/4/5
f 1260/4/5 1256/4/5 1255/4/5
f 1261/4/5 1256/4/5 1260/4/5
f 1262/4/5 1251/4/5 1228/4/5
f 1263/4/5 1251/4/5 1262/4/5
f 1266/4/5 1259/4/5 1258/4/5
f 1267/4/5 1259/4/5 1266/4/5
f 1268/4/5 1264/4/5 1263/4/5
f 1269/4/5 1264/4/5 1268/4/5
f 1270/4/5 1266/4/5 1265/4/5
f 1271/4/5 1266/4/5 1270/4/5
f 1275/4/5 1273/4/5 1272/4/5
f 1276/4/5 1273/4/5 1275/4/5
f 1277/4/5 1273/4/5 1276/4/5
f 1278/4/5 1275/4/5 1274/4/5
f 1278/4/5 1276/4/5 1275/4/5
f 1279/4/5 1276/4/5 1278/4/5
f 1282/4/5 1281/4/5 1280/4/5
f 1283/4/5 1281/4/5 1282/4/5
f 1286/4/5 1285/4/5 1284/4/5
f 1287/4/5 1285/4/5 1286/4/5
f 1288/4/5 1285/4/5 1287/4/5
f 1290/4/5 1289/4/5 1288/4/5
f 1290/4/5 1288/4/5 1287/4/5
f 1291/4/5 1289/4/5 1290/4/5
f 1292/4/5 1289/4/5 1291/4/5
f 1293/4/5 1289/4/5 1292/4/5
f 1296/4/5 1294/4/5 1293/4/5
f 1297/4/5 1294/4/5 1296/4/5
f 1299/4/5 1296/4/5 1295/4/5
f 1301/4/5 1299/4/5 1298/4/5
f 1302/4/5 1296/4/5 1299/4/5
f 1302/4/5 1299/4/5 1301/4/5
f 1303/4/5 1296/4/5 1302/4/5
f 1306/4/5 1301/4/5 1300/4/5
f 1306/4/5 1302/4/5 1301/4/5
f 1307/4/5 1302/4/5 1306/4/5
f 1308/4/5 1278/4/5 1274/4/5
f 1310/4/5 1305/4/5 1304/4/5
f 1311/4/5 1305/4/5 1310/4/5
f 1312/4/5 1309/4/5 1308/4/5
f 1312/4/5 1308/4/5 1274/4/5
f 1313/4/5 1309/4/5 1312/4/5
f 1314/4/5 1309/4/5 1313/4/5
f 1316/4/5 1315/4/5 1314/4/5
f 1316/4/5 1314/4/5 1313/4/5
f 1317/4/5 1315/4/5 1316/4/5
f 1323/4/5 1319/4/5 1318/4/5
f 1324/4/5 1319/4/5 1323/4/5
f 1325/4/5 1321/4/5 1320/4/5
f 1326/4/5 1321/4/5 1325/4/5
f 1329/4/5 1328/4/5 1327/4/5
f 1330/4/5 1328/4/5 1329/4/5
f 1333/4/5 1332/4/5 1331/4/5
f 1334/4/5 1332/4/5 1333/4/5
f 1337/4/5 1336/4/5 1335/4/5
f 1338/4/5 1336/4/5 1337/4/5
f 1341/4/5 1339/4/5 1338/4/5
f 1342/4/5 1339/4/5 1341/4/5
f 1343/4/5 1341/4/5 1340/4/5
f 1344/4/5 1341/4/5 1343/4/5
f 1349/4/5 1346/4/5 1345/4/5
f 1350/4/5 1346/4/5 1349/4/5
f 1351/4/5 1323/4/5 1322/4/5
f 1352/4/5 1323/4/5 1351/4/5
f 1356/4/5 1348/4/5 1347/4/5
f 1357/4/5 1348/4/5 1356/4/5
f 1358/4/5 1353/4/5 1352/4/5
f 1359/4/5 1353/4/5 1358/4/5
f 1360/4/5 1355/4/5 1354/4/5
f 1361/4/5 1355/4/5 1360/4/5
f 1364/4/5 1363/4/5 1362/4/5
f 1365/4/5 1363/4/5 1364/4/5
f 1367/4/5 1366/4/5 1365/4/5
f 1368/4/5 1366/4/5 1367/4/5
f 1369/4/5 1366/4/5 1368/4/5
f 1371/3/5 1369/3/5 1368/3/5
f 1372/3/5 1369/3/5 1371/3/5
f 1374/4/5 1371/4/5 1370/4/5
f 1374/4/5 1372/4/5 1371/4/5
f 1375/4/5 1372/4/5 1374/4/5
f 1376/4/5 1374/4/5 1373/4/5
f 1377/4/5 1374/4/5 1376/4/5
f 1380/3/5 1379/3/5 1378/3/5
f 1381/3/5 1379/3/5 1380/3/5
f 1382/4/6 1383/4/6 1387/4/6
f 1387/4/6 1383/4/6 1388/4/6
f 1384/4/6 1385/4/6 1389/4/6
f 1389/4/6 1385/4/6 1390/4/6
f 1386/4/6 1387/4/6 1393/4/6
f 1393/4/6 1387/4/6 1394/4/6
f 1390/4/6 1391/4/6 1395/4/6
f 1395/4/6 1391/4/6 1396/4/6
f 1392/4/6 1393/4/6 1399/4/6
f 1399/4/6 1393/4/6 1400/4/6
f 1396/4/6 1397/4/6 1401/4/6
f 1401/4/6 1397/4/6 1402/4/6
f 1398/4/6 1399/4/6 1404/4/6
f 1404/4/6 1399/4/6 1405/4/6
f 1402/4/6 1403/4/6 1406/4/6
f 1404/5/6 1405/5/6 1407/5/6
f 1407/5/6 1405/5/6 1408/5/6
f 1406/4/6 1403/4/6 1409/4/6
f 1407/4/6 1408/4/6 1410/4/6
f 1410/4/6 1408/4/6 1411/4/6
f 1409/4/6 1403/4/6 1414/4/6
f 1414/4/6 1403/4/6 1415/4/6
f 1411/4/6 1412/4/6 1416/4/6
f 1416/4/6 1412/4/6 1417/4/6
f 1413/4/6 1414/4/6 1420/4/6
f 1420/4/6 1414/4/6 1421/4/6
f 1417/4/6 1418/4/6 1422/4/6
f 1422/4/6 1418/4/6 1423/4/6
f 1419/4/6 1420/4/6 1426/4/6
f 1426/4/6 1420/4/6 1427/4/6
f 1423/4/6 1424/4/6 1428/4/6
f 1428/4/6 1424/4/6 1429/4/6
f 1425/4/6 1426/4/6 1430/4/6
f 1430/4/6 1426/4/6 1431/4/6
f 1432/4/6 1433/4/6 1434/4/6
f 1434/4/6 1433/4/6 1435/4/6
f 1436/4/6 1437/4/6 1438/4/6
f 1438/4/6 1437/4/6 1439/4/6
f 1440/4/6 1441/4/6 1445/4/6
f 1445/4/6 1441/4/6 1446/4/6
f 1442/4/6 1443/4/6 1447/4/6
f 1447/4/6 1443/4/6 1448/4/6
f 1444/5/6 1445/5/6 1450/5/6
f 1450/5/6 1445/5/6 1451/5/6
f 1449/5/6 1450/5/6 1454/5/6
f 1454/5/6 1450/5/6 1455/5/6
f 1452/4/6 1453/4/6 1457/4/6
f 1457/4/6 1453/4/6 1458/4/6
f 1455/5/6 1456/5/6 1459/5/6
f 1459/5/6 1456/5/6 1460/5/6
f 1460/4/6 1461/4/6 1464/4/6
f 1464/4/6 1461/4/6 1465/4/6
f 1462/4/6 1463/4/6 1466/4/6
f 1466/4/6 1463/4/6 1467/4/6
f 1468/4/6 1469/4/6 1470/4/6
f 1470/4/6 1469/4/6 1471/4/6
f 1472/5/6 1473/5/6 1474/5/6
f 1474/5/6 1473/5/6 1475/5/6
f 1476/5/6 1477/5/6 1480/5/6
f 1480/5/6 1477/5/6 1481/5/6
f 1478/4/6 1479/4/6 1482/4/6
f 1482/4/6 1479/4/6 1483/4/6
f 1484/5/6 1485/5/6 1489/5/6
f 1489/5/6 1485/5/6 1490/5/6
f 1486/5/6 1487/5/6 1491/5/6
f 1491/5/6 1487/5/6 1492/5/6
f 1488/5/6 1489/5/6 1494/5/6
f 1494/5/6 1489/5/6 1495/5/6
f 1492/5/6 1493/5/6 1496/5/6
f 1496/5/6 1493/5/6 1497/5/6
f 1498/5/6 1499/5/6 1502/5/6
f 1502/5/6 1499/5/6 1503/5/6
f 1500/5/6 1501/5/6 1506/5/6
f 1506/5/6 1501/5/6 1507/5/6
f 1503/5/6 1504/5/6 1508/5/6
f 1508/5/6 1504/5/6 1509/5/6
f 1505/5/6 1506/5/6 1510/5/6
f 1510/5/6 1506/5/6 1511/5/6
f 1512/3/6 1513/3/6 1515/3/6
f 1515/3/6 1513/3/6 1516/3/6
f 1516/3/6 1513/3/6 1517/3/6
f 1517/3/6 1513/3/6 1518/3/6
f 1518/3/6 1513/3/6 1519/3/6
f 1514/3/6 1515/3/6 1522/3/6
f 1515/3/6 1516/3/6 1522/3/6
f 1522/3/6 1516/3/6 1523/3/6
f 1519/3/6 1520/3/6 1524/3/6
f 1518/3/6 1519/3/6 1524/3/6
f 1524/3/6 1520/3/6 1525/3/6
f 1520/4/6 1521/4/6 1526/4/6
f 1525/3/6 1520/3/6 1526/3/6
f 1526/4/6 1521/4/6 1527/4/6
f 1526/3/6 1527/3/6 1529/3/6
f 1525/3/6 1526/3/6 1529/3/6
f 1527/4/6 1528/4/6 1530/4/6
f 1529/3/6 1527/3/6 1530/3/6
f 1530/4/6 1528/4/6 1531/4/6
f 1529/2/6 1530/2/6 1534/2/6
f 1530/3/6 1531/3/6 1534/3/6
f 1531/3/6 1532/3/6 1534/3/6
f 1534/3/6 1532/3/6 1535/3/6
f 1532/4/6 1533/4/6 1536/4/6
f 1535/3/6 1532/3/6 1536/3/6
f 1536/4/6 1533/4/6 1537/4/6
f 1534/2/6 1535/2/6 1540/2/6
f 1529/2/6 1534/2/6 1540/2/6
f 1540/2/6 1535/2/6 1541/2/6
f 1537/3/6 1538/3/6 1542/3/6
f 1541/2/6 1535/2/6 1542/2/6
f 1535/3/6 1536/3/6 1542/3/6
f 1536/3/6 1537/3/6 1542/3/6
f 1542/3/6 1538/3/6 1543/3/6
f 1538/4/6 1539/4/6 1544/4/6
f 1543/3/6 1538/3/6 1544/3/6
f 1544/4/6 1539/4/6 1545/4/6
f 1542/2/6 1543/2/6 1547/2/6
f 1540/1/6 1541/1/6 1547/1/6
f 1541/2/6 1542/2/6 1547/2/6
f 1547/2/6 1543/2/6 1548/2/6
f 1545/3/6 1546/3/6 1549/3/6
f 1548/2/6 1543/2/6 1549/2/6
f 1544/3/6 1545/3/6 1549/3/6
f 1543/3/6 1544/3/6 1549/3/6
f 1549/3/6 1546/3/6 1550/3/6
f 1550/3/6 1546/3/6 1551/3/6
f 1547/1/6 1548/1/6 1553/1/6
f 1540/1/6 1547/1/6 1553/1/6
f 1548/2/6 1549/2/6 1554/2/6
f 1553/1/6 1548/1/6 1554/1/6
f 1549/2/6 1550/2/6 1554/2/6
f 1554/2/6 1550/2/6 1555/2/6
f 1551/3/6 1552/3/6 1556/3/6
f 1555/2/6 1550/2/6 1556/2/6
f 1550/3/6 1551/3/6 1556/3/6
f 1556/3/6 1552/3/6 1557/3/6
f 1557/3/6 1552/3/6 1558/3/6
f 1540/1/6 1553/1/6 1559/1/6
f 1554/2/6 1555/2/6 1560/2/6
f 1559/1/6 1553/1/6 1560/1/6
f 1553/2/6 1554/2/6 1560/2/6
f 1560/2/6 1555/2/6 1561/2/6
f 1556/3/6 1557/3/6 1562/3/6
f 1561/2/6 1555/2/6 1562/2/6
f 1555/3/6 1556/3/6 1562/3/6
f 1562/3/6 1557/3/6 1563/3/6
f 1563/3/6 1557/3/6 1564/3/6
f 1564/3/6 1557/3/6 1565/3/6
f 1560/2/6 1561/2/6 1566/2/6
f 1559/2/6 1560/2/6 1566/2/6
f 1561/3/6 1562/3/6 1567/3/6
f 1566/2/6 1561/2/6 1567/2/6
f 1562/3/6 1563/3/6 1567/3/6
f 1567/3/6 1563/3/6 1568/3/6
f 1568/3/6 1563/3/6 1569/3/6
f 1563/4/6 1564/4/6 1570/4/6
f 1569/3/6 1563/3/6 1570/3/6
f 1570/4/6 1564/4/6 1571/4/6
f 1559/2/6 1566/2/6 1572/2/6
f 1566/3/6 1567/3/6 1573/3/6
f 1572/2/6 1566/2/6 1573/2/6
f 1567/3/6 1568/3/6 1573/3/6
f 1573/3/6 1568/3/6 1574/3/6
f 1568/4/6 1569/4/6 1575/4/6
f 1574/3/6 1568/3/6 1575/3/6
f 1575/4/6 1569/4/6 1576/4/6
f 1514/3/6 1522/3/6 1577/3/6
f 1572/3/6 1573/3/6 1580/3/6
f 1580/3/6 1573/3/6 1581/3/6
f 1573/4/6 1574/4/6 1582/4/6
f 1581/3/6 1573/3/6 1582/3/6
f 1582/4/6 1574/4/6 1583/4/6
f 1577/3/6 1578/3/6 1584/3/6
f 1514/3/6 1577/3/6 1584/3/6
f 1584/3/6 1578/3/6 1585/3/6
f 1585/3/6 1578/3/6 1586/3/6
f 1580/3/6 1581/3/6 1588/3/6
f 1579/3/6 1580/3/6 1588/3/6
f 1588/3/6 1581/3/6 1589/3/6
f 1581/4/6 1582/4/6 1590/4/6
f 1589/3/6 1581/3/6 1590/3/6
f 1590/4/6 1582/4/6 1591/4/6
f 1586/3/6 1587/3/6 1592/3/6
f 1588/3/6 1589/3/6 1592/3/6
f 1587/3/6 1588/3/6 1592/3/6
f 1585/3/6 1586/3/6 1592/3/6
f 1592/3/6 1589/3/6 1593/3/6
f 1594/2/6 1595/2/6 1598/2/6
f 1595/3/6 1596/3/6 1599/3/6
f 1598/2/6 1595/2/6 1599/2/6
f 1599/3/6 1596/3/6 1600/3/6
f 1597/2/6 1598/2/6 1602/2/6
f 1600/2/6 1601/2/6 1602/2/6
f 1599/2/6 1600/2/6 1602/2/6
f 1598/2/6 1599/2/6 1602/2/6
f 1602/2/6 1601/2/6 1603/2/6
f 1602/1/6 1603/1/6 1604/1/6
f 1603/2/6 1601/2/6 1604/2/6
f 1604/2/6 1601/2/6 1605/2/6
f 1604/1/6 1605/1/6 1606/1/6
f 1605/2/6 1601/2/6 1606/2/6
f 1606/2/6 1601/2/6 1607/2/6
f 1604/1/6 1606/1/6 1608/1/6
f 1606/1/6 1607/1/6 1608/1/6
f 1608/1/6 1607/1/6 1609/1/6
f 1602/1/6 1604/1/6 1610/1/6
f 1604/1/6 1608/1/6 1610/1/6
f 1608/2/6 1609/2/6 1611/2/6
f 1610/1/6 1608/1/6 1611/1/6
f 1597/2/6 1602/2/6 1612/2/6
f 1602/1/6 1610/1/6 1612/1/6
f 1610/2/6 1611/2/6 1613/2/6
f 1612/1/6 1610/1/6 1613/1/6
f 1597/2/6 1612/2/6 1614/2/6
f 1612/2/6 1613/2/6 1614/2/6
f 1614/2/6 1613/2/6 1615/2/6
f 1613/2/6 1611/2/6 1616/2/6
f 1615/2/6 1613/2/6 1616/2/6
f 1611/2/6 1609/2/6 1617/2/6
f 1616/2/6 1611/2/6 1617/2/6
f 1617/2/6 1609/2/6 1618/2/6
f 1615/2/6 1616/2/6 1619/2/6
f 1616/3/6 1617/3/6 1620/3/6
f 1619/2/6 1616/2/6 1620/2/6
f 1620/3/6 1617/3/6 1621/3/6
