# MagicaVoxel @ Ephtracy

# group
o 

# material
mtllib rail.mtl
usemtl palette

# normals
vn -1 0 0
vn 1 0 0
vn 0 0 1
vn 0 0 -1
vn 0 -1 0
vn 0 1 0

# texcoords
vt 0.158203 0.5
vt 0.162109 0.5
vt 0.509766 0.5
vt 0.513672 0.5
vt 0.517578 0.5

# verts
v -1.6 0 2
v -1.6 0 1.9
v -1.6 0 1.6
v -1.6 0 1.1
v -1.6 0 1
v -1.6 0 0.7
v -1.6 0 0.2
v -1.6 0 0.0999999
v -1.6 0 -0.2
v -1.6 0 -0.7
v -1.6 0 -0.9
v -1.6 0 -1.1
v -1.6 0 -1.6
v -1.6 0 -2
v -1.6 0.1 2
v -1.6 0.1 1.9
v -1.6 0.1 1.8
v -1.6 0.1 1.1
v -1.6 0.1 1
v -1.6 0.1 0.9
v -1.6 0.1 0.7
v -1.6 0.1 0.0999999
v -1.6 0.1 -0.1
v -1.6 0.1 -0.7
v -1.6 0.1 -0.8
v -1.6 0.1 -0.9
v -1.6 0.1 -1.1
v -1.6 0.2 2
v -1.6 0.2 1.9
v -1.6 0.2 1.8
v -1.6 0.2 1.6
v -1.6 0.2 1.1
v -1.6 0.2 0.9
v -1.6 0.2 0.7
v -1.6 0.2 0.2
v -1.6 0.2 -0.1
v -1.6 0.2 -0.2
v -1.6 0.2 -0.7
v -1.6 0.2 -0.8
v -1.6 0.2 -1.1
v -1.6 0.2 -1.6
v -1.6 0.2 -2
v -1.4 0 2.2
v -1.4 0 2.1
v -1.4 0 2
v -1.4 0 1.6
v -1.4 0 1.3
v -1.4 0 1.1
v -1.4 0 0.7
v -1.4 0 0.2
v -1.4 0 -0.2
v -1.4 0 -0.7
v -1.4 0 -1.1
v -1.4 0 -1.5
v -1.4 0 -1.6
v -1.4 0 -2
v -1.4 0 -2.3
v -1.4 0.1 2
v -1.4 0.1 1.6
v -1.4 0.1 1.5
v -1.4 0.1 1.3
v -1.4 0.1 1.2
v -1.4 0.1 1.1
v -1.4 0.1 0.6
v -1.4 0.1 0.4
v -1.4 0.1 0.2
v -1.4 0.1 -0.3
v -1.4 0.1 -0.4
v -1.4 0.1 -0.6
v -1.4 0.1 -0.7
v -1.4 0.1 -1.1
v -1.4 0.1 -1.2
v -1.4 0.1 -1.4
v -1.4 0.1 -1.5
v -1.4 0.1 -1.6
v -1.4 0.1 -2
v -1.4 0.1 -2.2
v -1.4 0.2 2.1
v -1.4 0.2 2
v -1.4 0.2 1.9
v -1.4 0.2 1.7
v -1.4 0.2 1.6
v -1.4 0.2 1.5
v -1.4 0.2 1.4
v -1.4 0.2 1.3
v -1.4 0.2 1.2
v -1.4 0.2 1.1
v -1.4 0.2 0.8
v -1.4 0.2 0.7
v -1.4 0.2 0.6
v -1.4 0.2 0.4
v -1.4 0.2 0.3
v -1.4 0.2 0.2
v -1.4 0.2 0
v -1.4 0.2 -0.2
v -1.4 0.2 -0.3
v -1.4 0.2 -0.4
v -1.4 0.2 -0.6
v -1.4 0.2 -0.7
v -1.4 0.2 -0.9
v -1.4 0.2 -1.1
v -1.4 0.2 -1.2
v -1.4 0.2 -1.3
v -1.4 0.2 -1.4
v -1.4 0.2 -1.5
v -1.4 0.2 -1.6
v -1.4 0.2 -2
v -1.4 0.2 -2.2
v -1.4 0.2 -2.3
v -1.4 0.3 2.2
v -1.4 0.3 2
v -1.4 0.3 1.7
v -1.4 0.3 1.4
v -1.4 0.3 1.3
v -1.4 0.3 0.8
v -1.4 0.3 0.6
v -1.4 0.3 0.3
v -1.4 0.3 -0.2
v -1.4 0.3 -0.7
v -1.4 0.3 -1.1
v -1.4 0.3 -1.3
v -1.4 0.3 -1.5
v -1.4 0.3 -1.6
v -1.4 0.3 -2
v -1.4 0.3 -2.3
v 1.1 0 2.2
v 1.1 0 2.1
v 1.1 0 2
v 1.1 0 1.6
v 1.1 0 1.5
v 1.1 0 1.2
v 1.1 0 1.1
v 1.1 0 0.7
v 1.1 0 0.5
v 1.1 0 0.4
v 1.1 0 0.2
v 1.1 0 -0.2
v 1.1 0 -0.3
v 1.1 0 -0.6
v 1.1 0 -0.7
v 1.1 0 -1.1
v 1.1 0 -1.2
v 1.1 0 -1.4
v 1.1 0 -1.6
v 1.1 0 -2
v 1.1 0 -2.1
v 1.1 0 -2.3
v 1.1 0.1 2.2
v 1.1 0.1 2.1
v 1.1 0.1 2
v 1.1 0.1 1.6
v 1.1 0.1 1.2
v 1.1 0.1 1.1
v 1.1 0.1 0.7
v 1.1 0.1 0.6
v 1.1 0.1 0.5
v 1.1 0.1 -0.2
v 1.1 0.1 -0.3
v 1.1 0.1 -0.6
v 1.1 0.1 -1.2
v 1.1 0.1 -1.3
v 1.1 0.1 -1.4
v 1.1 0.1 -1.5
v 1.1 0.1 -2
v 1.1 0.1 -2.1
v 1.1 0.2 2.1
v 1.1 0.2 2
v 1.1 0.2 1.9
v 1.1 0.2 1.8
v 1.1 0.2 1.7
v 1.1 0.2 1.6
v 1.1 0.2 1.5
v 1.1 0.2 1.3
v 1.1 0.2 1.1
v 1.1 0.2 1
v 1.1 0.2 0.9
v 1.1 0.2 0.7
v 1.1 0.2 0.6
v 1.1 0.2 0.4
v 1.1 0.2 0.3
v 1.1 0.2 0.2
v 1.1 0.2 -0.1
v 1.1 0.2 -0.2
v 1.1 0.2 -0.3
v 1.1 0.2 -0.6
v 1.1 0.2 -0.7
v 1.1 0.2 -0.8
v 1.1 0.2 -1
v 1.1 0.2 -1.1
v 1.1 0.2 -1.3
v 1.1 0.2 -1.4
v 1.1 0.2 -1.5
v 1.1 0.2 -1.6
v 1.1 0.2 -1.7
v 1.1 0.2 -1.8
v 1.1 0.2 -2
v 1.1 0.2 -2.1
v 1.1 0.2 -2.2
v 1.1 0.2 -2.3
v 1.1 0.3 2.2
v 1.1 0.3 2.1
v 1.1 0.3 1.8
v 1.1 0.3 1.3
v 1.1 0.3 1
v 1.1 0.3 0.9
v 1.1 0.3 0.7
v 1.1 0.3 0.3
v 1.1 0.3 -0.1
v 1.1 0.3 -0.6
v 1.1 0.3 -0.7
v 1.1 0.3 -1.1
v 1.1 0.3 -1.4
v 1.1 0.3 -2.1
v 1.1 0.3 -2.2
v 1.1 0.3 -2.3
v -1.1 0 2.2
v -1.1 0 2
v -1.1 0 1.6
v -1.1 0 1.5
v -1.1 0 1.3
v -1.1 0 1.2
v -1.1 0 1.1
v -1.1 0 0.7
v -1.1 0 0.5
v -1.1 0 0.2
v -1.1 0 -0.2
v -1.1 0 -0.4
v -1.1 0 -0.6
v -1.1 0 -0.7
v -1.1 0 -1.1
v -1.1 0 -1.6
v -1.1 0 -2
v -1.1 0 -2.3
v -1.1 0.1 2.2
v -1.1 0.1 2.1
v -1.1 0.1 2
v -1.1 0.1 1.6
v -1.1 0.1 1.5
v -1.1 0.1 1.4
v -1.1 0.1 1.3
v -1.1 0.1 1.1
v -1.1 0.1 0.7
v -1.1 0.1 0.5
v -1.1 0.1 0.3
v -1.1 0.1 0.2
v -1.1 0.1 -0.2
v -1.1 0.1 -0.4
v -1.1 0.1 -0.6
v -1.1 0.1 -0.7
v -1.1 0.1 -1.1
v -1.1 0.1 -1.3
v -1.1 0.1 -1.5
v -1.1 0.1 -1.6
v -1.1 0.1 -2
v -1.1 0.1 -2.1
v -1.1 0.1 -2.2
v -1.1 0.2 2.2
v -1.1 0.2 2.1
v -1.1 0.2 2
v -1.1 0.2 1.9
v -1.1 0.2 1.8
v -1.1 0.2 1.7
v -1.1 0.2 1.6
v -1.1 0.2 1.5
v -1.1 0.2 1.4
v -1.1 0.2 1.2
v -1.1 0.2 1.1
v -1.1 0.2 1
v -1.1 0.2 0.8
v -1.1 0.2 0.7
v -1.1 0.2 0.5
v -1.1 0.2 0.4
v -1.1 0.2 0.3
v -1.1 0.2 0.2
v -1.1 0.2 0.0999999
v -1.1 0.2 -0.1
v -1.1 0.2 -0.2
v -1.1 0.2 -0.4
v -1.1 0.2 -0.6
v -1.1 0.2 -0.7
v -1.1 0.2 -0.9
v -1.1 0.2 -1
v -1.1 0.2 -1.1
v -1.1 0.2 -1.3
v -1.1 0.2 -1.5
v -1.1 0.2 -1.6
v -1.1 0.2 -1.7
v -1.1 0.2 -1.8
v -1.1 0.2 -2
v -1.1 0.2 -2.1
v -1.1 0.2 -2.2
v -1.1 0.2 -2.3
v -1.1 0.3 2.2
v -1.1 0.3 2
v -1.1 0.3 1.9
v -1.1 0.3 1.6
v -1.1 0.3 1.5
v -1.1 0.3 1.3
v -1.1 0.3 1.2
v -1.1 0.3 0.5
v -1.1 0.3 0.4
v -1.1 0.3 0.3
v -1.1 0.3 0.0999999
v -1.1 0.3 -0.2
v -1.1 0.3 -0.4
v -1.1 0.3 -0.6
v -1.1 0.3 -1
v -1.1 0.3 -1.1
v -1.1 0.3 -1.3
v -1.1 0.3 -1.7
v -1.1 0.3 -2
v -1.1 0.3 -2.1
v -1.1 0.3 -2.2
v -1.1 0.3 -2.3
v 1.4 0 2.2
v 1.4 0 2.1
v 1.4 0 2
v 1.4 0 1.6
v 1.4 0 1.5
v 1.4 0 1.2
v 1.4 0 1.1
v 1.4 0 0.7
v 1.4 0 0.4
v 1.4 0 0.2
v 1.4 0 -0.2
v 1.4 0 -0.3
v 1.4 0 -0.5
v 1.4 0 -0.6
v 1.4 0 -0.7
v 1.4 0 -1.1
v 1.4 0 -1.2
v 1.4 0 -1.3
v 1.4 0 -1.6
v 1.4 0 -2
v 1.4 0 -2.3
v 1.4 0.1 2.2
v 1.4 0.1 2.1
v 1.4 0.1 1.6
v 1.4 0.1 1.5
v 1.4 0.1 1.4
v 1.4 0.1 1.2
v 1.4 0.1 0.7
v 1.4 0.1 0.6
v 1.4 0.1 0.4
v 1.4 0.1 0.3
v 1.4 0.1 0.2
v 1.4 0.1 -0.2
v 1.4 0.1 -0.3
v 1.4 0.1 -0.4
v 1.4 0.1 -0.5
v 1.4 0.1 -0.6
v 1.4 0.1 -0.7
v 1.4 0.1 -1.3
v 1.4 0.1 -1.4
v 1.4 0.1 -1.5
v 1.4 0.1 -2.2
v 1.4 0.1 -2.3
v 1.4 0.2 2.1
v 1.4 0.2 2
v 1.4 0.2 1.8
v 1.4 0.2 1.7
v 1.4 0.2 1.6
v 1.4 0.2 1.4
v 1.4 0.2 1.3
v 1.4 0.2 1.2
v 1.4 0.2 1.1
v 1.4 0.2 0.9
v 1.4 0.2 0.8
v 1.4 0.2 0.7
v 1.4 0.2 0.6
v 1.4 0.2 0.4
v 1.4 0.2 0.3
v 1.4 0.2 0.2
v 1.4 0.2 0.0999999
v 1.4 0.2 -0.1
v 1.4 0.2 -0.2
v 1.4 0.2 -0.4
v 1.4 0.2 -0.6
v 1.4 0.2 -0.7
v 1.4 0.2 -0.8
v 1.4 0.2 -0.9
v 1.4 0.2 -1.1
v 1.4 0.2 -1.2
v 1.4 0.2 -1.4
v 1.4 0.2 -1.5
v 1.4 0.2 -1.6
v 1.4 0.2 -1.7
v 1.4 0.2 -2
v 1.4 0.2 -2.1
v 1.4 0.3 2.2
v 1.4 0.3 2.1
v 1.4 0.3 1.6
v 1.4 0.3 1.4
v 1.4 0.3 1.3
v 1.4 0.3 1.2
v 1.4 0.3 0.8
v 1.4 0.3 0.4
v 1.4 0.3 -0.1
v 1.4 0.3 -0.7
v 1.4 0.3 -0.8
v 1.4 0.3 -0.9
v 1.4 0.3 -1.2
v 1.4 0.3 -1.4
v 1.4 0.3 -1.5
v 1.4 0.3 -1.7
v 1.4 0.3 -2
v 1.4 0.3 -2.1
v 1.4 0.3 -2.2
v 1.4 0.3 -2.3
v 1.6 0 2
v 1.6 0 1.9
v 1.6 0 1.7
v 1.6 0 1.6
v 1.6 0 1.1
v 1.6 0 1
v 1.6 0 0.8
v 1.6 0 0.7
v 1.6 0 0.2
v 1.6 0 0.0999999
v 1.6 0 -0.2
v 1.6 0 -0.7
v 1.6 0 -0.8
v 1.6 0 -1.1
v 1.6 0 -1.6
v 1.6 0 -1.7
v 1.6 0 -2
v 1.6 0.1 1.9
v 1.6 0.1 1.7
v 1.6 0.1 1.6
v 1.6 0.1 1.1
v 1.6 0.1 1
v 1.6 0.1 0.9
v 1.6 0.1 0.8
v 1.6 0.1 0.2
v 1.6 0.1 0.0999999
v 1.6 0.1 0
v 1.6 0.1 -0.2
v 1.6 0.1 -0.8
v 1.6 0.1 -1
v 1.6 0.1 -1.8
v 1.6 0.1 -2
v 1.6 0.2 2
v 1.6 0.2 1.7
v 1.6 0.2 1.6
v 1.6 0.2 1.1
v 1.6 0.2 0.9
v 1.6 0.2 0.7
v 1.6 0.2 0.2
v 1.6 0.2 0
v 1.6 0.2 -0.2
v 1.6 0.2 -0.7
v 1.6 0.2 -1
v 1.6 0.2 -1.1
v 1.6 0.2 -1.6
v 1.6 0.2 -1.7
v 1.6 0.2 -1.8
v 1.6 0.2 -2
v -1.4 0 2.2
v -1.4 0.3 2.2
v -1.3 0.1 2.2
v -1.3 0.2 2.2
v -1.1 0 2.2
v -1.1 0.1 2.2
v -1.1 0.2 2.2
v -1.1 0.3 2.2
v 1.1 0 2.2
v 1.1 0.1 2.2
v 1.1 0.3 2.2
v 1.2 0 2.2
v 1.2 0.1 2.2
v 1.2 0.2 2.2
v 1.2 0.3 2.2
v 1.3 0.1 2.2
v 1.3 0.2 2.2
v 1.3 0.3 2.2
v 1.4 0 2.2
v 1.4 0.1 2.2
v 1.4 0.3 2.2
v -1.6 0 2
v -1.6 0.1 2
v -1.6 0.2 2
v -1.4 0 2
v -1.4 0.1 2
v -1.4 0.2 2
v -1.1 0 2
v -1.1 0.1 2
v -1.1 0.2 2
v -0.7 0.1 2
v -0.7 0.2 2
v -0.6 0 2
v -0.6 0.1 2
v -0.1 0 2
v -0.1 0.1 2
v -0.1 0.2 2
v 0.2 0.1 2
v 0.2 0.2 2
v 0.4 0.1 2
v 0.4 0.2 2
v 0.7 0.1 2
v 0.7 0.2 2
v 0.9 0.1 2
v 0.9 0.2 2
v 1.1 0 2
v 1.1 0.1 2
v 1.1 0.2 2
v 1.4 0 2
v 1.4 0.2 2
v 1.5 0 2
v 1.5 0.2 2
v 1.6 0 2
v 1.6 0.2 2
v -1.6 0 1.1
v -1.6 0.1 1.1
v -1.6 0.2 1.1
v -1.5 0.1 1.1
v -1.5 0.2 1.1
v -1.4 0 1.1
v -1.4 0.1 1.1
v -1.4 0.2 1.1
v -1.1 0 1.1
v -1.1 0.1 1.1
v -1.1 0.2 1.1
v -0.8 0 1.1
v -0.8 0.1 1.1
v -0.8 0.2 1.1
v -0.5 0 1.1
v -0.5 0.1 1.1
v -0.4 0.1 1.1
v -0.4 0.2 1.1
v 0.3 0.1 1.1
v 0.3 0.2 1.1
v 0.5 0.1 1.1
v 0.5 0.2 1.1
v 0.9 0.1 1.1
v 0.9 0.2 1.1
v 1.1 0 1.1
v 1.1 0.1 1.1
v 1.1 0.2 1.1
v 1.4 0 1.1
v 1.4 0.2 1.1
v 1.5 0 1.1
v 1.5 0.1 1.1
v 1.6 0 1.1
v 1.6 0.1 1.1
v 1.6 0.2 1.1
v -1.6 0 0.2
v -1.6 0.2 0.2
v -1.5 0.1 0.2
v -1.5 0.2 0.2
v -1.4 0 0.2
v -1.4 0.1 0.2
v -1.4 0.2 0.2
v -1.1 0 0.2
v -1.1 0.1 0.2
v -1.1 0.2 0.2
v -1 0.1 0.2
v -1 0.2 0.2
v -0.9 0.1 0.2
v -0.9 0.2 0.2
v -0.3 0 0.2
v -0.3 0.1 0.2
v 0.1 0.1 0.2
v 0.1 0.2 0.2
v 0.3 0 0.2
v 0.3 0.1 0.2
v 0.5 0.1 0.2
v 0.5 0.2 0.2
v 0.9 0.1 0.2
v 0.9 0.2 0.2
v 1.1 0 0.2
v 1.1 0.2 0.2
v 1.4 0 0.2
v 1.4 0.1 0.2
v 1.4 0.2 0.2
v 1.6 0 0.2
v 1.6 0.1 0.2
v 1.6 0.2 0.2
v -1.6 0 -0.7
v -1.6 0.1 -0.7
v -1.6 0.2 -0.7
v -1.5 0 -0.7
v -1.5 0.1 -0.7
v -1.5 0.2 -0.7
v -1.4 0 -0.7
v -1.4 0.1 -0.7
v -1.4 0.2 -0.7
v -1.1 0 -0.7
v -1.1 0.1 -0.7
v -1.1 0.2 -0.7
v -0.9 0 -0.7
v -0.9 0.1 -0.7
v -0.3 0 -0.7
v -0.3 0.1 -0.7
v -0.2 0 -0.7
v -0.2 0.1 -0.7
v -0.2 0.2 -0.7
v 0.1 0 -0.7
v 0.1 0.1 -0.7
v 0.2 0.1 -0.7
v 0.2 0.2 -0.7
v 1 0.1 -0.7
v 1 0.2 -0.7
v 1.1 0 -0.7
v 1.1 0.2 -0.7
v 1.4 0 -0.7
v 1.4 0.1 -0.7
v 1.4 0.2 -0.7
v 1.5 0 -0.7
v 1.5 0.2 -0.7
v 1.6 0 -0.7
v 1.6 0.2 -0.7
v -1.6 0 -1.6
v -1.6 0.2 -1.6
v -1.4 0 -1.6
v -1.4 0.1 -1.6
v -1.4 0.2 -1.6
v -1.1 0 -1.6
v -1.1 0.1 -1.6
v -1.1 0.2 -1.6
v -0.9 0.1 -1.6
v -0.9 0.2 -1.6
v -0.8 0 -1.6
v -0.8 0.1 -1.6
v -0.7 0 -1.6
v -0.7 0.1 -1.6
v -0.7 0.2 -1.6
v -0.3 0 -1.6
v -0.3 0.1 -1.6
v -0.2 0.1 -1.6
v -0.2 0.2 -1.6
v -0.1 0 -1.6
v -0.1 0.1 -1.6
v 0 0 -1.6
v 0 0.1 -1.6
v 0.1 0.1 -1.6
v 0.1 0.2 -1.6
v 0.2 0 -1.6
v 0.2 0.1 -1.6
v 0.3 0.1 -1.6
v 0.3 0.2 -1.6
v 0.4 0.1 -1.6
v 0.4 0.2 -1.6
v 0.9 0.1 -1.6
v 0.9 0.2 -1.6
v 1.1 0 -1.6
v 1.1 0.2 -1.6
v 1.4 0 -1.6
v 1.4 0.2 -1.6
v 1.6 0 -1.6
v 1.6 0.2 -1.6
v -1.6 0 1.6
v -1.6 0.2 1.6
v -1.5 0 1.6
v -1.5 0.1 1.6
v -1.4 0 1.6
v -1.4 0.1 1.6
v -1.4 0.2 1.6
v -1.1 0 1.6
v -1.1 0.1 1.6
v -1.1 0.2 1.6
v -1 0 1.6
v -1 0.1 1.6
v -0.9 0.1 1.6
v -0.9 0.2 1.6
v -0.8 0 1.6
v -0.8 0.1 1.6
v -0.8 0.2 1.6
v -0.7 0 1.6
v -0.7 0.1 1.6
v -0.6 0 1.6
v -0.6 0.2 1.6
v -0.5 0.1 1.6
v -0.5 0.2 1.6
v -0.3 0.1 1.6
v -0.3 0.2 1.6
v -0.1 0 1.6
v -0.1 0.1 1.6
v 0.6 0 1.6
v 0.6 0.1 1.6
v 0.6 0.2 1.6
v 0.7 0 1.6
v 0.7 0.1 1.6
v 0.9 0 1.6
v 0.9 0.1 1.6
v 1.1 0 1.6
v 1.1 0.1 1.6
v 1.1 0.2 1.6
v 1.4 0 1.6
v 1.4 0.1 1.6
v 1.4 0.2 1.6
v 1.6 0 1.6
v 1.6 0.1 1.6
v 1.6 0.2 1.6
v -1.6 0 0.7
v -1.6 0.1 0.7
v -1.6 0.2 0.7
v -1.5 0 0.7
v -1.5 0.1 0.7
v -1.4 0 0.7
v -1.4 0.2 0.7
v -1.1 0 0.7
v -1.1 0.1 0.7
v -1.1 0.2 0.7
v -0.6 0 0.7
v -0.6 0.1 0.7
v -0.6 0.2 0.7
v -0.3 0.1 0.7
v -0.3 0.2 0.7
v 0 0 0.7
v 0 0.1 0.7
v 0.1 0 0.7
v 0.1 0.1 0.7
v 0.4 0 0.7
v 0.4 0.1 0.7
v 0.8 0.1 0.7
v 0.8 0.2 0.7
v 0.9 0.1 0.7
v 0.9 0.2 0.7
v 1.1 0 0.7
v 1.1 0.1 0.7
v 1.1 0.2 0.7
v 1.4 0 0.7
v 1.4 0.1 0.7
v 1.4 0.2 0.7
v 1.5 0 0.7
v 1.5 0.1 0.7
v 1.6 0 0.7
v 1.6 0.2 0.7
v -1.6 0 -0.2
v -1.6 0.2 -0.2
v -1.5 0 -0.2
v -1.5 0.2 -0.2
v -1.4 0 -0.2
v -1.4 0.2 -0.2
v -1.1 0 -0.2
v -1.1 0.1 -0.2
v -1.1 0.2 -0.2
v -1 0.1 -0.2
v -1 0.2 -0.2
v -0.7 0 -0.2
v -0.7 0.1 -0.2
v -0.6 0 -0.2
v -0.6 0.1 -0.2
v -0.5 0.1 -0.2
v -0.5 0.2 -0.2
v -0.4 0.1 -0.2
v -0.4 0.2 -0.2
v -0.3 0 -0.2
v -0.3 0.1 -0.2
v -0.2 0 -0.2
v -0.2 0.2 -0.2
v 0 0 -0.2
v 0 0.1 -0.2
v 0.1 0.1 -0.2
v 0.1 0.2 -0.2
v 0.6 0 -0.2
v 0.6 0.1 -0.2
v 0.9 0.1 -0.2
v 0.9 0.2 -0.2
v 1.1 0 -0.2
v 1.1 0.1 -0.2
v 1.1 0.2 -0.2
v 1.4 0 -0.2
v 1.4 0.1 -0.2
v 1.4 0.2 -0.2
v 1.5 0 -0.2
v 1.5 0.1 -0.2
v 1.5 0.2 -0.2
v 1.6 0 -0.2
v 1.6 0.1 -0.2
v 1.6 0.2 -0.2
v -1.6 0 -1.1
v -1.6 0.1 -1.1
v -1.6 0.2 -1.1
v -1.5 0.1 -1.1
v -1.5 0.2 -1.1
v -1.4 0 -1.1
v -1.4 0.1 -1.1
v -1.4 0.2 -1.1
v -1.1 0 -1.1
v -1.1 0.1 -1.1
v -1.1 0.2 -1.1
v -0.9 0.1 -1.1
v -0.9 0.2 -1.1
v -0.5 0 -1.1
v -0.5 0.1 -1.1
v -0.1 0 -1.1
v -0.1 0.2 -1.1
v 0.1 0.1 -1.1
v 0.1 0.2 -1.1
v 0.6 0.1 -1.1
v 0.6 0.2 -1.1
v 0.7 0 -1.1
v 0.7 0.1 -1.1
v 0.9 0.1 -1.1
v 0.9 0.2 -1.1
v 1 0 -1.1
v 1 0.2 -1.1
v 1.1 0 -1.1
v 1.1 0.2 -1.1
v 1.4 0 -1.1
v 1.4 0.2 -1.1
v 1.5 0 -1.1
v 1.5 0.2 -1.1
v 1.6 0 -1.1
v 1.6 0.2 -1.1
v -1.6 0 -2
v -1.6 0.2 -2
v -1.4 0 -2
v -1.4 0.1 -2
v -1.4 0.2 -2
v -1.1 0 -2
v -1.1 0.1 -2
v -1.1 0.2 -2
v 0.3 0.1 -2
v 0.3 0.2 -2
v 0.4 0 -2
v 0.4 0.1 -2
v 0.6 0 -2
v 0.6 0.1 -2
v 0.6 0.2 -2
v 0.9 0.1 -2
v 0.9 0.2 -2
v 1.1 0 -2
v 1.1 0.1 -2
v 1.1 0.2 -2
v 1.4 0 -2
v 1.4 0.2 -2
v 1.5 0 -2
v 1.5 0.1 -2
v 1.6 0 -2
v 1.6 0.1 -2
v 1.6 0.2 -2
v -1.4 0 -2.3
v -1.4 0.2 -2.3
v -1.4 0.3 -2.3
v -1.3 0 -2.3
v -1.3 0.1 -2.3
v -1.3 0.2 -2.3
v -1.2 0.1 -2.3
v -1.2 0.2 -2.3
v -1.2 0.3 -2.3
v -1.1 0 -2.3
v -1.1 0.2 -2.3
v -1.1 0.3 -2.3
v 1.1 0 -2.3
v 1.1 0.2 -2.3
v 1.1 0.3 -2.3
v 1.2 0 -2.3
v 1.2 0.1 -2.3
v 1.2 0.2 -2.3
v 1.2 0.3 -2.3
v 1.3 0 -2.3
v 1.3 0.1 -2.3
v 1.3 0.2 -2.3
v 1.3 0.3 -2.3
v 1.4 0 -2.3
v 1.4 0.1 -2.3
v 1.4 0.3 -2.3
v -1.4 0 2.2
v -1.1 0 2.2
v 1.1 0 2.2
v 1.2 0 2.2
v 1.4 0 2.2
v -1.4 0 2.1
v -1.2 0 2.1
v 1.1 0 2.1
v 1.2 0 2.1
v 1.3 0 2.1
v 1.4 0 2.1
v -1.6 0 2
v -1.4 0 2
v -1.2 0 2
v -1.1 0 2
v -0.6 0 2
v -0.1 0 2
v 1.1 0 2
v 1.3 0 2
v 1.4 0 2
v 1.5 0 2
v 1.6 0 2
v -1.6 0 1.9
v -1.5 0 1.9
v -0.6 0 1.9
v -0.1 0 1.9
v 1.5 0 1.9
v 1.6 0 1.9
v -1 0 1.7
v -0.8 0 1.7
v -0.7 0 1.7
v -0.6 0 1.7
v -0.1 0 1.7
v 0.6 0 1.7
v 0.7 0 1.7
v 0.9 0 1.7
v 1.4 0 1.7
v 1.6 0 1.7
v -1.6 0 1.6
v -1.5 0 1.6
v -1.4 0 1.6
v -1.2 0 1.6
v -1.1 0 1.6
v -1 0 1.6
v -0.8 0 1.6
v -0.7 0 1.6
v -0.6 0 1.6
v -0.1 0 1.6
v 0.6 0 1.6
v 0.7 0 1.6
v 0.9 0 1.6
v 1.1 0 1.6
v 1.4 0 1.6
v 1.6 0 1.6
v -1.2 0 1.5
v -1.1 0 1.5
v 1.1 0 1.5
v 1.2 0 1.5
v 1.3 0 1.5
v 1.4 0 1.5
v -1.4 0 1.3
v -1.3 0 1.3
v -1.2 0 1.3
v -1.1 0 1.3
v -1.2 0 1.2
v -1.1 0 1.2
v 1.1 0 1.2
v 1.2 0 1.2
v 1.3 0 1.2
v 1.4 0 1.2
v -1.6 0 1.1
v -1.4 0 1.1
v -1.3 0 1.1
v -1.1 0 1.1
v -0.8 0 1.1
v -0.5 0 1.1
v 1.1 0 1.1
v 1.4 0 1.1
v 1.5 0 1.1
v 1.6 0 1.1
v -1.6 0 1
v -1.5 0 1
v -0.8 0 1
v -0.5 0 1
v 1.5 0 1
v 1.6 0 1
v -0.6 0 0.8
v 0 0 0.8
v 0.1 0 0.8
v 0.4 0 0.8
v 1.5 0 0.8
v 1.6 0 0.8
v -1.6 0 0.7
v -1.5 0 0.7
v -1.4 0 0.7
v -1.1 0 0.7
v -0.6 0 0.7
v 0 0 0.7
v 0.1 0 0.7
v 0.4 0 0.7
v 1.1 0 0.7
v 1.4 0 0.7
v 1.5 0 0.7
v 1.6 0 0.7
v -1.2 0 0.5
v -1.1 0 0.5
v 1.1 0 0.5
v 1.2 0 0.5
v 1.1 0 0.4
v 1.2 0 0.4
v 1.3 0 0.4
v 1.4 0 0.4
v -1.6 0 0.2
v -1.4 0 0.2
v -1.2 0 0.2
v -1.1 0 0.2
v -0.3 0 0.2
v 0.3 0 0.2
v 1.1 0 0.2
v 1.3 0 0.2
v 1.4 0 0.2
v 1.6 0 0.2
v -1.6 0 0.0999999
v -1.5 0 0.0999999
v -0.3 0 0.0999999
v 0.3 0 0.0999999
v 1.5 0 0.0999999
v 1.6 0 0.0999999
v -0.7 0 -0.1
v -0.6 0 -0.1
v -0.3 0 -0.1
v -0.2 0 -0.1
v 0 0 -0.1
v 0.6 0 -0.1
v -1.6 0 -0.2
v -1.5 0 -0.2
v -1.4 0 -0.2
v -1.1 0 -0.2
v -0.7 0 -0.2
v -0.6 0 -0.2
v -0.3 0 -0.2
v -0.2 0 -0.2
v 0 0 -0.2
v 0.6 0 -0.2
v 1.1 0 -0.2
v 1.4 0 -0.2
v 1.5 0 -0.2
v 1.6 0 -0.2
v 1.1 0 -0.3
v 1.2 0 -0.3
v 1.3 0 -0.3
v 1.4 0 -0.3
v -1.2 0 -0.4
v -1.1 0 -0.4
v 1.3 0 -0.5
v 1.4 0 -0.5
v -1.2 0 -0.6
v -1.1 0 -0.6
v 1.1 0 -0.6
v 1.2 0 -0.6
v 1.3 0 -0.6
v 1.4 0 -0.6
v -1.6 0 -0.7
v -1.5 0 -0.7
v -1.4 0 -0.7
v -1.1 0 -0.7
v -0.9 0 -0.7
v -0.3 0 -0.7
v -0.2 0 -0.7
v 0.1 0 -0.7
v 1.1 0 -0.7
v 1.3 0 -0.7
v 1.4 0 -0.7
v 1.5 0 -0.7
v 1.6 0 -0.7
v -0.9 0 -0.8
v -0.3 0 -0.8
v -0.2 0 -0.8
v 0.1 0 -0.8
v 1.5 0 -0.8
v 1.6 0 -0.8
v -1.6 0 -0.9
v -1.5 0 -0.9
v -0.5 0 -1
v -0.1 0 -1
v 0.7 0 -1
v 1 0 -1
v 1.4 0 -1
v 1.5 0 -1
v -1.6 0 -1.1
v -1.4 0 -1.1
v -1.3 0 -1.1
v -1.2 0 -1.1
v -1.1 0 -1.1
v -0.5 0 -1.1
v -0.1 0 -1.1
v 0.7 0 -1.1
v 1 0 -1.1
v 1.1 0 -1.1
v 1.3 0 -1.1
v 1.4 0 -1.1
v 1.5 0 -1.1
v 1.6 0 -1.1
v 1.1 0 -1.2
v 1.2 0 -1.2
v 1.3 0 -1.2
v 1.4 0 -1.2
v 1.3 0 -1.3
v 1.4 0 -1.3
v 1.1 0 -1.4
v 1.2 0 -1.4
v -1.4 0 -1.5
v -1.3 0 -1.5
v -1.6 0 -1.6
v -1.4 0 -1.6
v -1.2 0 -1.6
v -1.1 0 -1.6
v -0.8 0 -1.6
v -0.7 0 -1.6
v -0.3 0 -1.6
v -0.1 0 -1.6
v 0 0 -1.6
v 0.2 0 -1.6
v 1.1 0 -1.6
v 1.4 0 -1.6
v 1.6 0 -1.6
v -0.8 0 -1.7
v -0.7 0 -1.7
v -0.3 0 -1.7
v -0.1 0 -1.7
v 0 0 -1.7
v 0.2 0 -1.7
v 1.5 0 -1.7
v 1.6 0 -1.7
v 0.4 0 -1.9
v 0.6 0 -1.9
v -1.6 0 -2
v -1.4 0 -2
v -1.2 0 -2
v -1.1 0 -2
v 0.4 0 -2
v 0.6 0 -2
v 1.1 0 -2
v 1.2 0 -2
v 1.4 0 -2
v 1.5 0 -2
v 1.6 0 -2
v 1.1 0 -2.1
v 1.2 0 -2.1
v -1.3 0 -2.2
v -1.2 0 -2.2
v 1.2 0 -2.2
v 1.3 0 -2.2
v -1.4 0 -2.3
v -1.3 0 -2.3
v -1.1 0 -2.3
v 1.1 0 -2.3
v 1.2 0 -2.3
v 1.3 0 -2.3
v 1.4 0 -2.3
v -1.6 0.2 2
v -1.4 0.2 2
v -1.1 0.2 2
v -0.7 0.2 2
v -0.1 0.2 2
v 0.2 0.2 2
v 0.4 0.2 2
v 0.7 0.2 2
v 0.9 0.2 2
v 1.1 0.2 2
v 1.4 0.2 2
v 1.5 0.2 2
v 1.6 0.2 2
v -1.6 0.2 1.9
v -1.4 0.2 1.9
v -1.1 0.2 1.9
v -1 0.2 1.9
v -0.7 0.2 1.9
v -0.6 0.2 1.9
v -0.1 0.2 1.9
v 0 0.2 1.9
v 0.2 0.2 1.9
v 0.4 0.2 1.9
v 0.5 0.2 1.9
v 0.7 0.2 1.9
v 0.9 0.2 1.9
v 1 0.2 1.9
v 1.1 0.2 1.9
v -1.6 0.2 1.8
v -1.5 0.2 1.8
v -1.1 0.2 1.8
v -1 0.2 1.8
v -0.9 0.2 1.8
v -0.7 0.2 1.8
v -0.5 0.2 1.8
v -0.4 0.2 1.8
v -0.1 0.2 1.8
v 0 0.2 1.8
v 0.2 0.2 1.8
v 0.4 0.2 1.8
v 0.5 0.2 1.8
v 1 0.2 1.8
v 1.1 0.2 1.8
v 1.4 0.2 1.8
v 1.5 0.2 1.8
v -1.5 0.2 1.7
v -1.4 0.2 1.7
v -1.1 0.2 1.7
v -0.9 0.2 1.7
v -0.8 0.2 1.7
v -0.7 0.2 1.7
v -0.6 0.2 1.7
v -0.5 0.2 1.7
v -0.4 0.2 1.7
v -0.3 0.2 1.7
v 0 0.2 1.7
v 0.2 0.2 1.7
v 0.5 0.2 1.7
v 0.6 0.2 1.7
v 1.1 0.2 1.7
v 1.4 0.2 1.7
v 1.6 0.2 1.7
v -1.6 0.2 1.6
v -1.4 0.2 1.6
v -1.1 0.2 1.6
v -0.9 0.2 1.6
v -0.8 0.2 1.6
v -0.6 0.2 1.6
v -0.5 0.2 1.6
v -0.3 0.2 1.6
v 0.6 0.2 1.6
v 1.1 0.2 1.6
v 1.4 0.2 1.6
v 1.6 0.2 1.6
v -1.6 0.2 1.1
v -1.5 0.2 1.1
v -1.4 0.2 1.1
v -1.1 0.2 1.1
v -0.8 0.2 1.1
v -0.4 0.2 1.1
v 0.3 0.2 1.1
v 0.5 0.2 1.1
v 0.9 0.2 1.1
v 1.1 0.2 1.1
v 1.4 0.2 1.1
v 1.6 0.2 1.1
v -1.1 0.2 1
v -0.8 0.2 1
v -0.4 0.2 1
v -0.3 0.2 1
v 0.1 0.2 1
v 0.3 0.2 1
v 0.5 0.2 1
v 0.8 0.2 1
v 0.9 0.2 1
v 1 0.2 1
v 1.1 0.2 1
v -1.6 0.2 0.9
v -1.5 0.2 0.9
v -1 0.2 0.9
v -0.8 0.2 0.9
v -0.4 0.2 0.9
v -0.3 0.2 0.9
v -0.2 0.2 0.9
v 0.1 0.2 0.9
v 0.4 0.2 0.9
v 0.5 0.2 0.9
v 0.7 0.2 0.9
v 0.8 0.2 0.9
v 0.9 0.2 0.9
v 1 0.2 0.9
v 1.1 0.2 0.9
v 1.4 0.2 0.9
v 1.6 0.2 0.9
v -1.4 0.2 0.8
v -1.1 0.2 0.8
v -1 0.2 0.8
v -0.6 0.2 0.8
v -0.4 0.2 0.8
v -0.3 0.2 0.8
v -0.2 0.2 0.8
v 0.1 0.2 0.8
v 0.4 0.2 0.8
v 0.7 0.2 0.8
v 0.8 0.2 0.8
v 1.4 0.2 0.8
v -1.6 0.2 0.7
v -1.4 0.2 0.7
v -1.1 0.2 0.7
v -0.6 0.2 0.7
v -0.3 0.2 0.7
v 0.8 0.2 0.7
v 0.9 0.2 0.7
v 1.1 0.2 0.7
v 1.4 0.2 0.7
v 1.6 0.2 0.7
v -1.6 0.2 0.2
v -1.5 0.2 0.2
v -1.4 0.2 0.2
v -1.1 0.2 0.2
v -1 0.2 0.2
v -0.9 0.2 0.2
v 0.1 0.2 0.2
v 0.5 0.2 0.2
v 0.9 0.2 0.2
v 1.1 0.2 0.2
v 1.4 0.2 0.2
v 1.6 0.2 0.2
v -1.1 0.2 0.0999999
v -1 0.2 0.0999999
v -0.9 0.2 0.0999999
v -0.4 0.2 0.0999999
v 0.1 0.2 0.0999999
v 0.4 0.2 0.0999999
v 0.5 0.2 0.0999999
v 0.8 0.2 0.0999999
v 0.9 0.2 0.0999999
v 1 0.2 0.0999999
v 1.4 0.2 0.0999999
v 1.5 0.2 0.0999999
v -1.5 0.2 0
v -1.4 0.2 0
v -0.9 0.2 0
v -0.7 0.2 0
v -0.4 0.2 0
v -0.2 0.2 0
v 0.4 0.2 0
v 0.7 0.2 0
v 0.8 0.2 0
v 1 0.2 0
v 1.5 0.2 0
v 1.6 0.2 0
v -1.6 0.2 -0.1
v -1.5 0.2 -0.1
v -1.1 0.2 -0.1
v -1 0.2 -0.1
v -0.7 0.2 -0.1
v -0.5 0.2 -0.1
v -0.4 0.2 -0.1
v -0.2 0.2 -0.1
v 0.1 0.2 -0.1
v 0.7 0.2 -0.1
v 0.9 0.2 -0.1
v 1.1 0.2 -0.1
v 1.4 0.2 -0.1
v 1.5 0.2 -0.1
v -1.6 0.2 -0.2
v -1.5 0.2 -0.2
v -1.4 0.2 -0.2
v -1.1 0.2 -0.2
v -1 0.2 -0.2
v -0.5 0.2 -0.2
v -0.4 0.2 -0.2
v -0.2 0.2 -0.2
v 0.1 0.2 -0.2
v 0.9 0.2 -0.2
v 1.1 0.2 -0.2
v 1.4 0.2 -0.2
v 1.5 0.2 -0.2
v 1.6 0.2 -0.2
v -1.6 0.2 -0.7
v -1.5 0.2 -0.7
v -1.4 0.2 -0.7
v -1.1 0.2 -0.7
v -0.2 0.2 -0.7
v 0.2 0.2 -0.7
v 1 0.2 -0.7
v 1.1 0.2 -0.7
v 1.4 0.2 -0.7
v 1.5 0.2 -0.7
v 1.6 0.2 -0.7
v -1.6 0.2 -0.8
v -1.5 0.2 -0.8
v -0.7 0.2 -0.8
v -0.6 0.2 -0.8
v -0.2 0.2 -0.8
v 0.2 0.2 -0.8
v 0.4 0.2 -0.8
v 0.9 0.2 -0.8
v 1 0.2 -0.8
v 1.1 0.2 -0.8
v 1.4 0.2 -0.8
v -1.5 0.2 -0.9
v -1.4 0.2 -0.9
v -1.1 0.2 -0.9
v -1 0.2 -0.9
v -0.7 0.2 -0.9
v -0.6 0.2 -0.9
v -0.1 0.2 -0.9
v 0.2 0.2 -0.9
v 0.4 0.2 -0.9
v 0.5 0.2 -0.9
v 0.9 0.2 -0.9
v 1.4 0.2 -0.9
v 1.5 0.2 -0.9
v -1.1 0.2 -1
v -1 0.2 -1
v -0.9 0.2 -1
v -0.6 0.2 -1
v -0.1 0.2 -1
v 0.1 0.2 -1
v 0.2 0.2 -1
v 0.5 0.2 -1
v 0.6 0.2 -1
v 0.9 0.2 -1
v 1 0.2 -1
v 1.1 0.2 -1
v 1.5 0.2 -1
v 1.6 0.2 -1
v -1.6 0.2 -1.1
v -1.5 0.2 -1.1
v -1.4 0.2 -1.1
v -1.1 0.2 -1.1
v -0.9 0.2 -1.1
v -0.1 0.2 -1.1
v 0.1 0.2 -1.1
v 0.6 0.2 -1.1
v 0.9 0.2 -1.1
v 1 0.2 -1.1
v 1.1 0.2 -1.1
v 1.4 0.2 -1.1
v 1.5 0.2 -1.1
v 1.6 0.2 -1.1
v -1.6 0.2 -1.6
v -1.4 0.2 -1.6
v -1.1 0.2 -1.6
v -0.9 0.2 -1.6
v -0.7 0.2 -1.6
v -0.2 0.2 -1.6
v 0.1 0.2 -1.6
v 0.3 0.2 -1.6
v 0.4 0.2 -1.6
v 0.9 0.2 -1.6
v 1.1 0.2 -1.6
v 1.4 0.2 -1.6
v 1.6 0.2 -1.6
v -1.1 0.2 -1.7
v -0.9 0.2 -1.7
v -0.7 0.2 -1.7
v -0.6 0.2 -1.7
v -0.2 0.2 -1.7
v -0.1 0.2 -1.7
v 0.1 0.2 -1.7
v 0.3 0.2 -1.7
v 0.4 0.2 -1.7
v 0.7 0.2 -1.7
v 0.9 0.2 -1.7
v 1 0.2 -1.7
v 1.1 0.2 -1.7
v 1.4 0.2 -1.7
v 1.5 0.2 -1.7
v 1.6 0.2 -1.7
v -1.1 0.2 -1.8
v -0.9 0.2 -1.8
v -0.8 0.2 -1.8
v -0.6 0.2 -1.8
v -0.1 0.2 -1.8
v 0 0.2 -1.8
v 0.2 0.2 -1.8
v 0.3 0.2 -1.8
v 0.7 0.2 -1.8
v 0.8 0.2 -1.8
v 1 0.2 -1.8
v 1.1 0.2 -1.8
v 1.5 0.2 -1.8
v 1.6 0.2 -1.8
v -0.8 0.2 -1.9
v -0.6 0.2 -1.9
v 0 0.2 -1.9
v 0.2 0.2 -1.9
v 0.6 0.2 -1.9
v 0.8 0.2 -1.9
v 0.9 0.2 -1.9
v 1 0.2 -1.9
v -1.6 0.2 -2
v -1.4 0.2 -2
v -1.1 0.2 -2
v 0.3 0.2 -2
v 0.6 0.2 -2
v 0.9 0.2 -2
v 1.1 0.2 -2
v 1.4 0.2 -2
v 1.6 0.2 -2
v -1.4 0.3 2.2
v -1.1 0.3 2.2
v 1.1 0.3 2.2
v 1.2 0.3 2.2
v 1.3 0.3 2.2
v 1.4 0.3 2.2
v -1.3 0.3 2.1
v -1.2 0.3 2.1
v 1.1 0.3 2.1
v 1.2 0.3 2.1
v 1.3 0.3 2.1
v 1.4 0.3 2.1
v -1.4 0.3 2
v -1.3 0.3 2
v -1.2 0.3 2
v -1.1 0.3 2
v -1.3 0.3 1.9
v -1.2 0.3 1.9
v -1.1 0.3 1.9
v 1.2 0.3 1.9
v 1.3 0.3 1.9
v -1.3 0.3 1.8
v -1.2 0.3 1.8
v 1.1 0.3 1.8
v 1.2 0.3 1.8
v -1.4 0.3 1.7
v -1.3 0.3 1.7
v -1.3 0.3 1.6
v -1.2 0.3 1.6
v -1.1 0.3 1.6
v 1.3 0.3 1.6
v 1.4 0.3 1.6
v -1.2 0.3 1.5
v -1.1 0.3 1.5
v -1.4 0.3 1.4
v -1.3 0.3 1.4
v 1.3 0.3 1.4
v 1.4 0.3 1.4
v -1.4 0.3 1.3
v -1.3 0.3 1.3
v -1.2 0.3 1.3
v -1.1 0.3 1.3
v 1.1 0.3 1.3
v 1.2 0.3 1.3
v 1.4 0.3 1.3
v -1.2 0.3 1.2
v -1.1 0.3 1.2
v 1.3 0.3 1.2
v 1.4 0.3 1.2
v 1.1 0.3 1
v 1.2 0.3 1
v 1.1 0.3 0.9
v 1.2 0.3 0.9
v -1.4 0.3 0.8
v -1.3 0.3 0.8
v -1.2 0.3 0.8
v 1.2 0.3 0.8
v 1.3 0.3 0.8
v 1.4 0.3 0.8
v -1.3 0.3 0.7
v -1.2 0.3 0.7
v 1.1 0.3 0.7
v 1.2 0.3 0.7
v -1.4 0.3 0.6
v -1.3 0.3 0.6
v -1.3 0.3 0.5
v -1.2 0.3 0.5
v -1.1 0.3 0.5
v -1.2 0.3 0.4
v -1.1 0.3 0.4
v 1.3 0.3 0.4
v 1.4 0.3 0.4
v -1.4 0.3 0.3
v -1.3 0.3 0.3
v -1.2 0.3 0.3
v -1.1 0.3 0.3
v 1.1 0.3 0.3
v 1.2 0.3 0.3
v 1.3 0.3 0.3
v 1.2 0.3 0.2
v 1.3 0.3 0.2
v -1.2 0.3 0.0999999
v -1.1 0.3 0.0999999
v -1.3 0.3 0
v -1.2 0.3 0
v 1.2 0.3 0
v 1.3 0.3 0
v 1.1 0.3 -0.1
v 1.2 0.3 -0.1
v 1.3 0.3 -0.1
v 1.4 0.3 -0.1
v -1.4 0.3 -0.2
v -1.3 0.3 -0.2
v -1.2 0.3 -0.2
v -1.1 0.3 -0.2
v 1.2 0.3 -0.2
v 1.3 0.3 -0.2
v 1.2 0.3 -0.3
v 1.3 0.3 -0.3
v -1.2 0.3 -0.4
v -1.1 0.3 -0.4
v -1.3 0.3 -0.6
v -1.2 0.3 -0.6
v -1.1 0.3 -0.6
v 1.1 0.3 -0.6
v 1.2 0.3 -0.6
v -1.4 0.3 -0.7
v -1.3 0.3 -0.7
v 1.1 0.3 -0.7
v 1.2 0.3 -0.7
v 1.3 0.3 -0.7
v 1.4 0.3 -0.7
v 1.3 0.3 -0.8
v 1.4 0.3 -0.8
v 1.3 0.3 -0.9
v 1.4 0.3 -0.9
v -1.2 0.3 -1
v -1.1 0.3 -1
v 1.2 0.3 -1
v 1.3 0.3 -1
v -1.4 0.3 -1.1
v -1.3 0.3 -1.1
v -1.2 0.3 -1.1
v -1.1 0.3 -1.1
v 1.1 0.3 -1.1
v 1.2 0.3 -1.1
v -1.3 0.3 -1.2
v -1.2 0.3 -1.2
v 1.3 0.3 -1.2
v 1.4 0.3 -1.2
v -1.4 0.3 -1.3
v -1.3 0.3 -1.3
v -1.2 0.3 -1.3
v -1.1 0.3 -1.3
v 1.1 0.3 -1.4
v 1.2 0.3 -1.4
v 1.3 0.3 -1.4
v 1.4 0.3 -1.4
v -1.4 0.3 -1.5
v -1.3 0.3 -1.5
v 1.3 0.3 -1.5
v 1.4 0.3 -1.5
v -1.4 0.3 -1.6
v -1.2 0.3 -1.6
v 1.2 0.3 -1.6
v 1.3 0.3 -1.6
v -1.3 0.3 -1.7
v -1.2 0.3 -1.7
v -1.1 0.3 -1.7
v 1.3 0.3 -1.7
v 1.4 0.3 -1.7
v 1.2 0.3 -1.8
v 1.3 0.3 -1.8
v -1.4 0.3 -2
v -1.3 0.3 -2
v -1.2 0.3 -2
v -1.1 0.3 -2
v 1.3 0.3 -2
v 1.4 0.3 -2
v -1.2 0.3 -2.1
v -1.1 0.3 -2.1
v 1.1 0.3 -2.1
v 1.2 0.3 -2.1
v 1.3 0.3 -2.1
v 1.4 0.3 -2.1
v -1.3 0.3 -2.2
v -1.2 0.3 -2.2
v -1.1 0.3 -2.2
v 1.1 0.3 -2.2
v 1.2 0.3 -2.2
v 1.3 0.3 -2.2
v 1.4 0.3 -2.2
v -1.4 0.3 -2.3
v -1.2 0.3 -2.3
v -1.1 0.3 -2.3
v 1.1 0.3 -2.3
v 1.2 0.3 -2.3
v 1.3 0.3 -2.3
v 1.4 0.3 -2.3

# faces
f 15/2/1 2/2/1 1/2/1
f 16/1/1 3/1/1 2/1/1
f 16/2/1 2/2/1 15/2/1
f 17/1/1 3/1/1 16/1/1
f 18/1/1 5/1/1 4/1/1
f 19/2/1 6/2/1 5/2/1
f 19/1/1 5/1/1 18/1/1
f 20/2/1 6/2/1 19/2/1
f 21/2/1 6/2/1 20/2/1
f 22/1/1 8/1/1 7/1/1
f 22/2/1 9/2/1 8/2/1
f 23/2/1 9/2/1 22/2/1
f 24/2/1 11/2/1 10/2/1
f 25/2/1 11/2/1 24/2/1
f 26/1/1 12/1/1 11/1/1
f 26/2/1 11/2/1 25/2/1
f 27/1/1 12/1/1 26/1/1
f 28/1/1 16/1/1 15/1/1
f 29/2/1 17/2/1 16/2/1
f 29/1/1 16/1/1 28/1/1
f 30/1/1 3/1/1 17/1/1
f 30/2/1 17/2/1 29/2/1
f 31/1/1 3/1/1 30/1/1
f 32/2/1 20/2/1 19/2/1
f 32/2/1 19/2/1 18/2/1
f 33/1/1 21/1/1 20/1/1
f 33/2/1 20/2/1 32/2/1
f 34/1/1 21/1/1 33/1/1
f 35/1/1 22/1/1 7/1/1
f 35/1/1 23/1/1 22/1/1
f 36/2/1 9/2/1 23/2/1
f 36/1/1 23/1/1 35/1/1
f 37/2/1 9/2/1 36/2/1
f 38/1/1 25/1/1 24/1/1
f 39/2/1 26/2/1 25/2/1
f 39/1/1 25/1/1 38/1/1
f 39/2/1 27/2/1 26/2/1
f 40/2/1 27/2/1 39/2/1
f 41/1/1 14/1/1 13/1/1
f 42/1/1 14/1/1 41/1/1
f 58/5/1 45/5/1 44/5/1
f 59/5/1 47/5/1 46/5/1
f 60/5/1 47/5/1 59/5/1
f 61/3/1 48/3/1 47/3/1
f 61/5/1 47/5/1 60/5/1
f 62/3/1 48/3/1 61/3/1
f 63/3/1 48/3/1 62/3/1
f 64/5/1 50/5/1 49/5/1
f 65/5/1 50/5/1 64/5/1
f 66/5/1 50/5/1 65/5/1
f 67/5/1 52/5/1 51/5/1
f 68/5/1 52/5/1 67/5/1
f 69/5/1 52/5/1 68/5/1
f 70/5/1 52/5/1 69/5/1
f 71/3/1 54/3/1 53/3/1
f 72/3/1 54/3/1 71/3/1
f 73/3/1 54/3/1 72/3/1
f 74/5/1 55/5/1 54/5/1
f 74/3/1 54/3/1 73/3/1
f 75/5/1 55/5/1 74/5/1
f 76/5/1 57/5/1 56/5/1
f 77/5/1 57/5/1 76/5/1
f 78/3/1 44/3/1 43/3/1
f 78/5/1 58/5/1 44/5/1
f 79/5/1 58/5/1 78/5/1
f 82/5/1 60/5/1 59/5/1
f 83/3/1 61/3/1 60/3/1
f 83/3/1 62/3/1 61/3/1
f 83/5/1 60/5/1 82/5/1
f 84/3/1 62/3/1 83/3/1
f 85/3/1 62/3/1 84/3/1
f 86/5/1 63/5/1 62/5/1
f 86/3/1 62/3/1 85/3/1
f 87/5/1 63/5/1 86/5/1
f 89/5/1 64/5/1 49/5/1
f 90/3/1 65/3/1 64/3/1
f 90/5/1 64/5/1 89/5/1
f 91/5/1 66/5/1 65/5/1
f 91/3/1 65/3/1 90/3/1
f 92/5/1 66/5/1 91/5/1
f 93/5/1 66/5/1 92/5/1
f 95/5/1 67/5/1 51/5/1
f 96/3/1 68/3/1 67/3/1
f 96/5/1 67/5/1 95/5/1
f 97/4/1 69/4/1 68/4/1
f 97/3/1 68/3/1 96/3/1
f 98/5/1 70/5/1 69/5/1
f 98/4/1 69/4/1 97/4/1
f 99/5/1 70/5/1 98/5/1
f 101/5/1 72/5/1 71/5/1
f 102/3/1 73/3/1 72/3/1
f 102/5/1 72/5/1 101/5/1
f 103/3/1 73/3/1 102/3/1
f 104/4/1 75/4/1 74/4/1
f 104/3/1 73/3/1 103/3/1
f 104/4/1 74/4/1 73/4/1
f 105/4/1 75/4/1 104/4/1
f 106/4/1 75/4/1 105/4/1
f 107/4/1 77/4/1 76/4/1
f 108/5/1 57/5/1 77/5/1
f 108/4/1 77/4/1 107/4/1
f 109/5/1 57/5/1 108/5/1
f 110/3/1 78/3/1 43/3/1
f 110/3/1 79/3/1 78/3/1
f 111/4/1 81/4/1 80/4/1
f 111/3/1 79/3/1 110/3/1
f 111/4/1 80/4/1 79/4/1
f 112/3/1 82/3/1 81/3/1
f 112/4/1 81/4/1 111/4/1
f 112/3/1 83/3/1 82/3/1
f 112/3/1 84/3/1 83/3/1
f 113/4/1 85/4/1 84/4/1
f 113/3/1 84/3/1 112/3/1
f 114/5/1 88/5/1 87/5/1
f 114/4/1 85/4/1 113/4/1
f 114/5/1 86/5/1 85/5/1
f 114/5/1 87/5/1 86/5/1
f 115/4/1 90/4/1 89/4/1
f 115/5/1 88/5/1 114/5/1
f 115/4/1 89/4/1 88/4/1
f 116/3/1 91/3/1 90/3/1
f 116/4/1 90/4/1 115/4/1
f 116/3/1 92/3/1 91/3/1
f 117/4/1 94/4/1 93/4/1
f 117/3/1 92/3/1 116/3/1
f 117/4/1 95/4/1 94/4/1
f 117/4/1 93/4/1 92/4/1
f 118/3/1 97/3/1 96/3/1
f 118/4/1 95/4/1 117/4/1
f 118/3/1 99/3/1 98/3/1
f 118/3/1 98/3/1 97/3/1
f 118/3/1 96/3/1 95/3/1
f 119/5/1 101/5/1 100/5/1
f 119/3/1 99/3/1 118/3/1
f 119/5/1 100/5/1 99/5/1
f 120/4/1 103/4/1 102/4/1
f 120/5/1 101/5/1 119/5/1
f 120/4/1 102/4/1 101/4/1
f 121/3/1 104/3/1 103/3/1
f 121/4/1 103/4/1 120/4/1
f 121/3/1 105/3/1 104/3/1
f 122/4/1 106/4/1 105/4/1
f 122/3/1 105/3/1 121/3/1
f 123/5/1 107/5/1 106/5/1
f 123/4/1 106/4/1 122/4/1
f 124/3/1 109/3/1 108/3/1
f 124/5/1 107/5/1 123/5/1
f 124/3/1 108/3/1 107/3/1
f 125/3/1 109/3/1 124/3/1
f 148/3/1 127/3/1 126/3/1
f 149/5/1 128/5/1 127/5/1
f 149/3/1 127/3/1 148/3/1
f 150/5/1 128/5/1 149/5/1
f 151/5/1 130/5/1 129/5/1
f 152/3/1 131/3/1 130/3/1
f 152/5/1 132/5/1 131/5/1
f 153/5/1 132/5/1 152/5/1
f 154/5/1 134/5/1 133/5/1
f 155/5/1 134/5/1 154/5/1
f 156/3/1 135/3/1 134/3/1
f 156/5/1 134/5/1 155/5/1
f 157/5/1 138/5/1 137/5/1
f 158/3/1 139/3/1 138/3/1
f 158/5/1 138/5/1 157/5/1
f 159/5/1 140/5/1 139/5/1
f 159/3/1 139/3/1 158/3/1
f 160/5/1 142/5/1 141/5/1
f 160/3/1 143/3/1 142/3/1
f 161/3/1 143/3/1 160/3/1
f 162/5/1 144/5/1 143/5/1
f 162/3/1 143/3/1 161/3/1
f 163/5/1 144/5/1 162/5/1
f 164/3/1 146/3/1 145/3/1
f 165/5/1 147/5/1 146/5/1
f 165/3/1 146/3/1 164/3/1
f 166/5/1 150/5/1 149/5/1
f 166/5/1 149/5/1 148/5/1
f 167/5/1 150/5/1 166/5/1
f 171/5/1 130/5/1 151/5/1
f 172/3/1 153/3/1 152/3/1
f 172/3/1 152/3/1 130/3/1
f 172/5/1 130/5/1 171/5/1
f 173/3/1 153/3/1 172/3/1
f 174/3/1 153/3/1 173/3/1
f 177/5/1 155/5/1 154/5/1
f 178/3/1 156/3/1 155/3/1
f 178/5/1 155/5/1 177/5/1
f 179/5/1 136/5/1 135/5/1
f 179/3/1 156/3/1 178/3/1
f 179/3/1 135/3/1 156/3/1
f 180/5/1 136/5/1 179/5/1
f 181/5/1 136/5/1 180/5/1
f 183/3/1 158/3/1 157/3/1
f 184/5/1 159/5/1 158/5/1
f 184/3/1 158/3/1 183/3/1
f 185/5/1 140/5/1 159/5/1
f 185/5/1 159/5/1 184/5/1
f 186/5/1 140/5/1 185/5/1
f 189/5/1 161/5/1 160/5/1
f 189/5/1 160/5/1 141/5/1
f 190/3/1 162/3/1 161/3/1
f 190/3/1 163/3/1 162/3/1
f 190/5/1 161/5/1 189/5/1
f 191/3/1 163/3/1 190/3/1
f 192/5/1 144/5/1 163/5/1
f 192/3/1 163/3/1 191/3/1
f 193/5/1 144/5/1 192/5/1
f 196/5/1 165/5/1 164/5/1
f 197/5/1 147/5/1 165/5/1
f 197/5/1 165/5/1 196/5/1
f 198/5/1 147/5/1 197/5/1
f 199/5/1 147/5/1 198/5/1
f 200/5/1 166/5/1 148/5/1
f 201/3/1 167/3/1 166/3/1
f 201/5/1 166/5/1 200/5/1
f 201/3/1 168/3/1 167/3/1
f 201/3/1 169/3/1 168/3/1
f 202/5/1 170/5/1 169/5/1
f 202/3/1 169/3/1 201/3/1
f 202/5/1 171/5/1 170/5/1
f 202/5/1 172/5/1 171/5/1
f 202/5/1 173/5/1 172/5/1
f 203/3/1 174/3/1 173/3/1
f 203/5/1 173/5/1 202/5/1
f 203/3/1 175/3/1 174/3/1
f 204/5/1 176/5/1 175/5/1
f 204/3/1 175/3/1 203/3/1
f 205/3/1 177/3/1 176/3/1
f 205/5/1 176/5/1 204/5/1
f 206/4/1 178/4/1 177/4/1
f 206/3/1 177/3/1 205/3/1
f 206/4/1 179/4/1 178/4/1
f 206/4/1 180/4/1 179/4/1
f 207/5/1 182/5/1 181/5/1
f 207/4/1 180/4/1 206/4/1
f 207/5/1 181/5/1 180/5/1
f 208/3/1 184/3/1 183/3/1
f 208/5/1 182/5/1 207/5/1
f 208/3/1 183/3/1 182/3/1
f 208/3/1 185/3/1 184/3/1
f 209/4/1 186/4/1 185/4/1
f 209/3/1 185/3/1 208/3/1
f 210/3/1 188/3/1 187/3/1
f 210/4/1 186/4/1 209/4/1
f 210/3/1 187/3/1 186/3/1
f 210/3/1 189/3/1 188/3/1
f 211/4/1 191/4/1 190/4/1
f 211/3/1 189/3/1 210/3/1
f 211/4/1 190/4/1 189/4/1
f 212/5/1 196/5/1 195/5/1
f 212/4/1 191/4/1 211/4/1
f 212/5/1 197/5/1 196/5/1
f 212/5/1 193/5/1 192/5/1
f 212/5/1 195/5/1 194/5/1
f 212/5/1 194/5/1 193/5/1
f 212/5/1 192/5/1 191/5/1
f 213/3/1 198/3/1 197/3/1
f 213/5/1 197/5/1 212/5/1
f 214/4/1 199/4/1 198/4/1
f 214/3/1 198/3/1 213/3/1
f 215/4/1 199/4/1 214/4/1
f 216/3/2 217/3/2 234/3/2
f 234/3/2 217/3/2 235/3/2
f 235/3/2 217/3/2 236/3/2
f 218/3/2 219/3/2 237/3/2
f 219/5/2 220/5/2 238/5/2
f 237/3/2 219/3/2 238/3/2
f 238/5/2 220/5/2 239/5/2
f 220/3/2 221/3/2 240/3/2
f 239/5/2 220/5/2 240/5/2
f 221/5/2 222/5/2 241/5/2
f 223/5/2 224/5/2 242/5/2
f 224/3/2 225/3/2 243/3/2
f 242/5/2 224/5/2 243/5/2
f 243/3/2 225/3/2 244/3/2
f 244/3/2 225/3/2 245/3/2
f 226/5/2 227/5/2 246/5/2
f 227/3/2 228/3/2 247/3/2
f 246/5/2 227/5/2 247/5/2
f 228/5/2 229/5/2 248/5/2
f 247/3/2 228/3/2 248/3/2
f 248/5/2 229/5/2 249/5/2
f 230/3/2 231/3/2 250/3/2
f 250/3/2 231/3/2 251/3/2
f 251/3/2 231/3/2 252/3/2
f 252/3/2 231/3/2 253/3/2
f 232/3/2 233/3/2 254/3/2
f 254/3/2 233/3/2 255/3/2
f 255/3/2 233/3/2 256/3/2
f 234/5/2 235/5/2 257/5/2
f 235/3/2 236/3/2 258/3/2
f 257/5/2 235/5/2 258/5/2
f 258/3/2 236/3/2 259/3/2
f 237/5/2 238/5/2 263/5/2
f 238/3/2 239/3/2 264/3/2
f 263/5/2 238/5/2 264/5/2
f 239/4/2 240/4/2 265/4/2
f 264/3/2 239/3/2 265/3/2
f 240/3/2 221/3/2 266/3/2
f 221/5/2 241/5/2 266/5/2
f 266/5/2 241/5/2 267/5/2
f 242/5/2 243/5/2 270/5/2
f 243/4/2 244/4/2 271/4/2
f 270/5/2 243/5/2 271/5/2
f 271/4/2 244/4/2 272/4/2
f 244/3/2 245/3/2 273/3/2
f 272/4/2 244/4/2 273/4/2
f 273/3/2 245/3/2 274/3/2
f 246/3/2 247/3/2 277/3/2
f 247/4/2 248/4/2 278/4/2
f 277/3/2 247/3/2 278/3/2
f 248/5/2 249/5/2 279/5/2
f 278/4/2 248/4/2 279/4/2
f 279/5/2 249/5/2 280/5/2
f 250/5/2 251/5/2 283/5/2
f 251/3/2 252/3/2 284/3/2
f 283/5/2 251/5/2 284/5/2
f 252/5/2 253/5/2 285/5/2
f 284/3/2 252/3/2 285/3/2
f 285/5/2 253/5/2 286/5/2
f 254/3/2 255/3/2 289/3/2
f 255/5/2 256/5/2 290/5/2
f 289/3/2 255/3/2 290/3/2
f 256/3/2 233/3/2 291/3/2
f 290/5/2 256/5/2 291/5/2
f 291/3/2 233/3/2 292/3/2
f 257/3/2 258/3/2 293/3/2
f 258/3/2 259/3/2 293/3/2
f 259/5/2 260/5/2 294/5/2
f 293/3/2 259/3/2 294/3/2
f 262/4/2 263/4/2 295/4/2
f 294/5/2 260/5/2 295/5/2
f 261/4/2 262/4/2 295/4/2
f 260/4/2 261/4/2 295/4/2
f 263/5/2 264/5/2 296/5/2
f 295/4/2 263/4/2 296/4/2
f 264/4/2 265/4/2 297/4/2
f 296/5/2 264/5/2 297/5/2
f 265/4/2 240/4/2 298/4/2
f 297/4/2 265/4/2 298/4/2
f 240/3/2 266/3/2 298/3/2
f 268/4/2 269/4/2 299/4/2
f 298/3/2 266/3/2 299/3/2
f 269/4/2 270/4/2 299/4/2
f 266/4/2 267/4/2 299/4/2
f 267/4/2 268/4/2 299/4/2
f 270/4/2 271/4/2 299/4/2
f 271/3/2 272/3/2 300/3/2
f 299/4/2 271/4/2 300/4/2
f 272/4/2 273/4/2 301/4/2
f 300/3/2 272/3/2 301/3/2
f 273/5/2 274/5/2 302/5/2
f 301/4/2 273/4/2 302/4/2
f 274/5/2 275/5/2 302/5/2
f 275/3/2 276/3/2 303/3/2
f 302/5/2 275/5/2 303/5/2
f 276/3/2 277/3/2 303/3/2
f 277/4/2 278/4/2 304/4/2
f 303/3/2 277/3/2 304/3/2
f 278/5/2 279/5/2 305/5/2
f 304/4/2 278/4/2 305/4/2
f 281/4/2 282/4/2 306/4/2
f 305/5/2 279/5/2 306/5/2
f 280/4/2 281/4/2 306/4/2
f 279/4/2 280/4/2 306/4/2
f 282/5/2 283/5/2 307/5/2
f 306/4/2 282/4/2 307/4/2
f 283/3/2 284/3/2 308/3/2
f 307/5/2 283/5/2 308/5/2
f 285/4/2 286/4/2 309/4/2
f 308/3/2 284/3/2 309/3/2
f 286/4/2 287/4/2 309/4/2
f 284/4/2 285/4/2 309/4/2
f 287/3/2 288/3/2 310/3/2
f 309/4/2 287/4/2 310/4/2
f 288/3/2 289/3/2 310/3/2
f 289/5/2 290/5/2 311/5/2
f 310/3/2 289/3/2 311/3/2
f 290/4/2 291/4/2 312/4/2
f 311/5/2 290/5/2 312/5/2
f 291/5/2 292/5/2 313/5/2
f 312/4/2 291/4/2 313/4/2
f 313/5/2 292/5/2 314/5/2
f 315/5/2 316/5/2 336/5/2
f 316/3/2 317/3/2 337/3/2
f 336/5/2 316/5/2 337/5/2
f 318/5/2 319/5/2 338/5/2
f 319/3/2 320/3/2 339/3/2
f 338/5/2 319/5/2 339/5/2
f 339/3/2 320/3/2 340/3/2
f 320/5/2 321/5/2 341/5/2
f 340/3/2 320/3/2 341/3/2
f 322/5/2 323/5/2 342/5/2
f 342/5/2 323/5/2 343/5/2
f 323/3/2 324/3/2 344/3/2
f 343/5/2 323/5/2 344/5/2
f 344/3/2 324/3/2 345/3/2
f 345/3/2 324/3/2 346/3/2
f 325/5/2 326/5/2 347/5/2
f 326/3/2 327/3/2 348/3/2
f 347/5/2 326/5/2 348/5/2
f 348/3/2 327/3/2 349/3/2
f 327/5/2 328/5/2 350/5/2
f 349/3/2 327/3/2 350/3/2
f 328/3/2 329/3/2 351/3/2
f 350/5/2 328/5/2 351/5/2
f 351/3/2 329/3/2 352/3/2
f 331/4/2 332/4/2 353/4/2
f 332/5/2 333/5/2 353/5/2
f 353/5/2 333/5/2 354/5/2
f 354/5/2 333/5/2 355/5/2
f 334/5/2 335/5/2 356/5/2
f 356/5/2 335/5/2 357/5/2
f 337/3/2 317/3/2 358/3/2
f 336/3/2 337/3/2 358/3/2
f 358/3/2 317/3/2 359/3/2
f 339/5/2 340/5/2 362/5/2
f 338/5/2 339/5/2 362/5/2
f 340/4/2 341/4/2 363/4/2
f 362/5/2 340/5/2 363/5/2
f 363/4/2 341/4/2 364/4/2
f 341/5/2 321/5/2 365/5/2
f 364/4/2 341/4/2 365/4/2
f 365/5/2 321/5/2 366/5/2
f 342/5/2 343/5/2 369/5/2
f 343/3/2 344/3/2 370/3/2
f 344/3/2 345/3/2 370/3/2
f 369/5/2 343/5/2 370/5/2
f 370/3/2 345/3/2 371/3/2
f 345/5/2 346/5/2 372/5/2
f 371/3/2 345/3/2 372/3/2
f 372/5/2 346/5/2 373/5/2
f 348/5/2 349/5/2 376/5/2
f 347/5/2 348/5/2 376/5/2
f 349/4/2 350/4/2 377/4/2
f 350/4/2 351/4/2 377/4/2
f 376/5/2 349/5/2 377/5/2
f 351/5/2 352/5/2 378/5/2
f 377/4/2 351/4/2 378/4/2
f 378/5/2 352/5/2 379/5/2
f 330/3/2 331/3/2 382/3/2
f 331/4/2 353/4/2 383/4/2
f 353/4/2 354/4/2 383/4/2
f 382/3/2 331/3/2 383/3/2
f 354/3/2 355/3/2 384/3/2
f 383/4/2 354/4/2 384/4/2
f 355/5/2 333/5/2 385/5/2
f 384/3/2 355/3/2 385/3/2
f 385/5/2 333/5/2 386/5/2
f 334/5/2 356/5/2 388/5/2
f 388/5/2 356/5/2 389/5/2
f 336/3/2 358/3/2 390/3/2
f 360/4/2 361/4/2 391/4/2
f 390/3/2 358/3/2 391/3/2
f 359/4/2 360/4/2 391/4/2
f 361/4/2 362/4/2 391/4/2
f 358/4/2 359/4/2 391/4/2
f 362/5/2 363/5/2 392/5/2
f 391/4/2 362/4/2 392/4/2
f 363/3/2 364/3/2 393/3/2
f 392/5/2 363/5/2 393/5/2
f 364/4/2 365/4/2 394/4/2
f 393/3/2 364/3/2 394/3/2
f 367/3/2 368/3/2 395/3/2
f 394/4/2 365/4/2 395/4/2
f 365/3/2 366/3/2 395/3/2
f 366/3/2 367/3/2 395/3/2
f 370/5/2 371/5/2 396/5/2
f 395/3/2 368/3/2 396/3/2
f 368/5/2 369/5/2 396/5/2
f 369/5/2 370/5/2 396/5/2
f 374/4/2 375/4/2 397/4/2
f 396/5/2 371/5/2 397/5/2
f 373/4/2 374/4/2 397/4/2
f 371/4/2 372/4/2 397/4/2
f 372/4/2 373/4/2 397/4/2
f 375/3/2 376/3/2 398/3/2
f 397/4/2 375/4/2 398/4/2
f 376/3/2 377/3/2 398/3/2
f 378/3/2 379/3/2 398/3/2
f 377/3/2 378/3/2 398/3/2
f 379/5/2 380/5/2 399/5/2
f 398/3/2 379/3/2 399/3/2
f 380/3/2 381/3/2 400/3/2
f 399/5/2 380/5/2 400/5/2
f 381/5/2 382/5/2 401/5/2
f 400/3/2 381/3/2 401/3/2
f 382/5/2 383/5/2 401/5/2
f 383/4/2 384/4/2 402/4/2
f 401/5/2 383/5/2 402/5/2
f 384/5/2 385/5/2 403/5/2
f 402/4/2 384/4/2 403/4/2
f 385/3/2 386/3/2 404/3/2
f 403/5/2 385/5/2 404/5/2
f 386/3/2 387/3/2 404/3/2
f 387/4/2 388/4/2 405/4/2
f 404/3/2 387/3/2 405/3/2
f 388/3/2 389/3/2 406/3/2
f 405/4/2 388/4/2 406/4/2
f 389/5/2 356/5/2 407/5/2
f 406/3/2 389/3/2 407/3/2
f 356/3/2 357/3/2 408/3/2
f 407/5/2 356/5/2 408/5/2
f 408/3/2 357/3/2 409/3/2
f 410/1/2 411/1/2 427/1/2
f 411/2/2 412/2/2 427/2/2
f 412/1/2 413/1/2 428/1/2
f 427/2/2 412/2/2 428/2/2
f 428/1/2 413/1/2 429/1/2
f 414/2/2 415/2/2 430/2/2
f 415/1/2 416/1/2 431/1/2
f 430/2/2 415/2/2 431/2/2
f 431/1/2 416/1/2 432/1/2
f 416/2/2 417/2/2 433/2/2
f 432/1/2 416/1/2 433/1/2
f 418/1/2 419/1/2 434/1/2
f 419/2/2 420/2/2 435/2/2
f 434/1/2 419/1/2 435/1/2
f 435/2/2 420/2/2 436/2/2
f 436/2/2 420/2/2 437/2/2
f 421/1/2 422/1/2 438/1/2
f 422/2/2 423/2/2 438/2/2
f 438/2/2 423/2/2 439/2/2
f 425/2/2 426/2/2 440/2/2
f 440/2/2 426/2/2 441/2/2
f 410/1/2 427/1/2 442/1/2
f 427/1/2 428/1/2 442/1/2
f 428/2/2 429/2/2 443/2/2
f 442/1/2 428/1/2 443/1/2
f 443/2/2 429/2/2 444/2/2
f 431/1/2 432/1/2 445/1/2
f 430/1/2 431/1/2 445/1/2
f 432/2/2 433/2/2 446/2/2
f 445/1/2 432/1/2 446/1/2
f 433/2/2 417/2/2 447/2/2
f 446/2/2 433/2/2 447/2/2
f 435/2/2 436/2/2 448/2/2
f 434/2/2 435/2/2 448/2/2
f 436/1/2 437/1/2 449/1/2
f 448/2/2 436/2/2 449/2/2
f 449/1/2 437/1/2 450/1/2
f 421/1/2 438/1/2 451/1/2
f 438/1/2 439/1/2 451/1/2
f 439/2/2 423/2/2 452/2/2
f 451/1/2 439/1/2 452/1/2
f 452/2/2 423/2/2 453/2/2
f 424/1/2 425/1/2 454/1/2
f 425/2/2 440/2/2 455/2/2
f 454/1/2 425/1/2 455/1/2
f 440/1/2 441/1/2 456/1/2
f 455/2/2 440/2/2 456/2/2
f 456/1/2 441/1/2 457/1/2
f 460/3/3 459/3/3 458/3/3
f 461/3/3 459/3/3 460/3/3
f 462/3/3 460/3/3 458/3/3
f 463/5/3 461/5/3 460/5/3
f 463/3/3 460/3/3 462/3/3
f 464/3/3 459/3/3 461/3/3
f 464/5/3 461/5/3 463/5/3
f 465/3/3 459/3/3 464/3/3
f 469/3/3 467/3/3 466/3/3
f 470/5/3 468/5/3 467/5/3
f 470/3/3 467/3/3 469/3/3
f 471/5/3 468/5/3 470/5/3
f 472/5/3 468/5/3 471/5/3
f 473/5/3 470/5/3 469/5/3
f 473/5/3 471/5/3 470/5/3
f 474/4/3 472/4/3 471/4/3
f 474/5/3 471/5/3 473/5/3
f 475/4/3 472/4/3 474/4/3
f 476/5/3 473/5/3 469/5/3
f 477/3/3 474/3/3 473/3/3
f 477/5/3 473/5/3 476/5/3
f 477/3/3 475/3/3 474/3/3
f 478/3/3 475/3/3 477/3/3
f 482/2/3 480/2/3 479/2/3
f 483/1/3 481/1/3 480/1/3
f 483/2/3 480/2/3 482/2/3
f 484/1/3 481/1/3 483/1/3
f 488/2/3 486/2/3 485/2/3
f 488/1/3 487/1/3 486/1/3
f 489/1/3 487/1/3 488/1/3
f 490/2/3 488/2/3 485/2/3
f 490/2/3 489/2/3 488/2/3
f 491/2/3 489/2/3 490/2/3
f 492/1/3 491/1/3 490/1/3
f 493/2/3 489/2/3 491/2/3
f 493/1/3 491/1/3 492/1/3
f 494/2/3 489/2/3 493/2/3
f 495/2/3 493/2/3 492/2/3
f 495/1/3 494/1/3 493/1/3
f 496/1/3 494/1/3 495/1/3
f 497/2/3 495/2/3 492/2/3
f 497/2/3 496/2/3 495/2/3
f 498/2/3 496/2/3 497/2/3
f 499/2/3 497/2/3 492/2/3
f 499/1/3 498/1/3 497/1/3
f 500/1/3 498/1/3 499/1/3
f 501/2/3 499/2/3 492/2/3
f 501/2/3 500/2/3 499/2/3
f 502/2/3 500/2/3 501/2/3
f 503/2/3 501/2/3 492/2/3
f 504/1/3 502/1/3 501/1/3
f 504/2/3 501/2/3 503/2/3
f 505/1/3 502/1/3 504/1/3
f 508/2/3 507/2/3 506/2/3
f 509/2/3 507/2/3 508/2/3
f 510/1/3 509/1/3 508/1/3
f 511/1/3 509/1/3 510/1/3
f 515/1/3 513/1/3 512/1/3
f 515/2/3 514/2/3 513/2/3
f 516/2/3 514/2/3 515/2/3
f 517/1/3 515/1/3 512/1/3
f 517/1/3 516/1/3 515/1/3
f 518/1/3 516/1/3 517/1/3
f 519/1/3 516/1/3 518/1/3
f 523/1/3 521/1/3 520/1/3
f 524/2/3 522/2/3 521/2/3
f 524/1/3 521/1/3 523/1/3
f 525/2/3 522/2/3 524/2/3
f 526/2/3 524/2/3 523/2/3
f 527/1/3 525/1/3 524/1/3
f 527/2/3 524/2/3 526/2/3
f 528/1/3 527/1/3 526/1/3
f 528/1/3 525/1/3 527/1/3
f 529/1/3 525/1/3 528/1/3
f 530/1/3 528/1/3 526/1/3
f 530/2/3 529/2/3 528/2/3
f 531/2/3 529/2/3 530/2/3
f 532/1/3 530/1/3 526/1/3
f 532/1/3 531/1/3 530/1/3
f 533/1/3 531/1/3 532/1/3
f 534/1/3 532/1/3 526/1/3
f 534/2/3 533/2/3 532/2/3
f 535/2/3 533/2/3 534/2/3
f 536/1/3 534/1/3 526/1/3
f 536/1/3 535/1/3 534/1/3
f 537/1/3 535/1/3 536/1/3
f 538/1/3 535/1/3 537/1/3
f 541/1/3 540/1/3 539/1/3
f 542/1/3 540/1/3 541/1/3
f 543/2/3 542/2/3 541/2/3
f 544/1/3 540/1/3 542/1/3
f 544/2/3 542/2/3 543/2/3
f 545/1/3 540/1/3 544/1/3
f 548/1/3 547/1/3 546/1/3
f 549/1/3 547/1/3 548/1/3
f 550/1/3 548/1/3 546/1/3
f 551/2/3 549/2/3 548/2/3
f 551/1/3 548/1/3 550/1/3
f 552/2/3 549/2/3 551/2/3
f 556/1/3 554/1/3 553/1/3
f 556/2/3 555/2/3 554/2/3
f 557/2/3 555/2/3 556/2/3
f 558/1/3 556/1/3 553/1/3
f 558/1/3 557/1/3 556/1/3
f 559/1/3 557/1/3 558/1/3
f 560/1/3 558/1/3 553/1/3
f 561/2/3 559/2/3 558/2/3
f 561/1/3 558/1/3 560/1/3
f 562/2/3 561/2/3 560/2/3
f 562/2/3 559/2/3 561/2/3
f 563/2/3 559/2/3 562/2/3
f 564/2/3 562/2/3 560/2/3
f 565/1/3 563/1/3 562/1/3
f 565/2/3 562/2/3 564/2/3
f 566/1/3 565/1/3 564/1/3
f 566/1/3 563/1/3 565/1/3
f 567/1/3 563/1/3 566/1/3
f 568/1/3 566/1/3 564/1/3
f 568/2/3 567/2/3 566/2/3
f 569/2/3 567/2/3 568/2/3
f 570/1/3 568/1/3 564/1/3
f 570/1/3 569/1/3 568/1/3
f 571/1/3 569/1/3 570/1/3
f 575/1/3 573/1/3 572/1/3
f 576/2/3 574/2/3 573/2/3
f 576/1/3 573/1/3 575/1/3
f 577/2/3 574/2/3 576/2/3
f 581/2/3 579/2/3 578/2/3
f 582/1/3 580/1/3 579/1/3
f 582/2/3 579/2/3 581/2/3
f 583/1/3 580/1/3 582/1/3
f 584/1/3 582/1/3 581/1/3
f 585/2/3 583/2/3 582/2/3
f 585/1/3 582/1/3 584/1/3
f 586/2/3 583/2/3 585/2/3
f 590/1/3 588/1/3 587/1/3
f 591/2/3 589/2/3 588/2/3
f 591/1/3 588/1/3 590/1/3
f 592/2/3 591/2/3 590/2/3
f 593/2/3 589/2/3 591/2/3
f 593/2/3 591/2/3 592/2/3
f 594/1/3 593/1/3 592/1/3
f 595/2/3 589/2/3 593/2/3
f 595/1/3 593/1/3 594/1/3
f 596/2/3 589/2/3 595/2/3
f 597/2/3 595/2/3 594/2/3
f 598/1/3 596/1/3 595/1/3
f 598/2/3 595/2/3 597/2/3
f 599/1/3 598/1/3 597/1/3
f 599/1/3 596/1/3 598/1/3
f 600/1/3 596/1/3 599/1/3
f 601/1/3 599/1/3 597/1/3
f 601/2/3 600/2/3 599/2/3
f 602/2/3 600/2/3 601/2/3
f 603/1/3 601/1/3 597/1/3
f 603/1/3 602/1/3 601/1/3
f 604/1/3 602/1/3 603/1/3
f 608/2/3 606/2/3 605/2/3
f 608/2/3 607/2/3 606/2/3
f 609/2/3 607/2/3 608/2/3
f 610/1/3 609/1/3 608/1/3
f 611/1/3 609/1/3 610/1/3
f 614/1/3 613/1/3 612/1/3
f 615/1/3 613/1/3 614/1/3
f 616/1/3 613/1/3 615/1/3
f 620/1/3 618/1/3 617/1/3
f 620/2/3 619/2/3 618/2/3
f 621/2/3 619/2/3 620/2/3
f 622/1/3 620/1/3 617/1/3
f 622/1/3 621/1/3 620/1/3
f 623/1/3 621/1/3 622/1/3
f 624/2/3 623/2/3 622/2/3
f 625/1/3 621/1/3 623/1/3
f 625/2/3 623/2/3 624/2/3
f 626/1/3 621/1/3 625/1/3
f 627/1/3 625/1/3 624/1/3
f 628/2/3 626/2/3 625/2/3
f 628/1/3 625/1/3 627/1/3
f 629/2/3 628/2/3 627/2/3
f 629/2/3 626/2/3 628/2/3
f 630/2/3 626/2/3 629/2/3
f 631/2/3 629/2/3 627/2/3
f 632/1/3 630/1/3 629/1/3
f 632/2/3 629/2/3 631/2/3
f 633/1/3 632/1/3 631/1/3
f 634/1/3 630/1/3 632/1/3
f 634/1/3 632/1/3 633/1/3
f 635/2/3 634/2/3 633/2/3
f 635/1/3 630/1/3 634/1/3
f 636/1/3 630/1/3 635/1/3
f 637/2/3 635/2/3 633/2/3
f 637/2/3 636/2/3 635/2/3
f 638/2/3 636/2/3 637/2/3
f 639/1/3 638/1/3 637/1/3
f 639/2/3 636/2/3 638/2/3
f 640/2/3 636/2/3 639/2/3
f 641/1/3 639/1/3 637/1/3
f 641/1/3 640/1/3 639/1/3
f 642/1/3 640/1/3 641/1/3
f 643/1/3 641/1/3 637/1/3
f 643/2/3 642/2/3 641/2/3
f 644/2/3 642/2/3 643/2/3
f 645/1/3 643/1/3 637/1/3
f 645/1/3 644/1/3 643/1/3
f 646/1/3 644/1/3 645/1/3
f 649/1/3 648/1/3 647/1/3
f 650/1/3 648/1/3 649/1/3
f 651/1/4 652/1/4 653/1/4
f 653/1/4 652/1/4 654/1/4
f 653/2/4 654/2/4 655/2/4
f 654/1/4 652/1/4 656/1/4
f 655/2/4 654/2/4 656/2/4
f 656/1/4 652/1/4 657/1/4
f 658/2/4 659/2/4 661/2/4
f 659/1/4 660/1/4 662/1/4
f 661/2/4 659/2/4 662/2/4
f 661/1/4 662/1/4 663/1/4
f 662/1/4 660/1/4 663/1/4
f 663/1/4 660/1/4 664/1/4
f 661/1/4 663/1/4 665/1/4
f 663/2/4 664/2/4 666/2/4
f 665/1/4 663/1/4 666/1/4
f 666/2/4 664/2/4 667/2/4
f 665/2/4 666/2/4 668/2/4
f 666/1/4 667/1/4 669/1/4
f 668/2/4 666/2/4 669/2/4
f 668/1/4 669/1/4 670/1/4
f 669/1/4 667/1/4 671/1/4
f 670/1/4 669/1/4 671/1/4
f 670/2/4 671/2/4 672/2/4
f 672/2/4 671/2/4 673/2/4
f 670/2/4 672/2/4 674/2/4
f 672/1/4 673/1/4 674/1/4
f 674/1/4 673/1/4 675/1/4
f 670/2/4 674/2/4 676/2/4
f 674/2/4 675/2/4 676/2/4
f 676/2/4 675/2/4 677/2/4
f 676/1/4 677/1/4 678/1/4
f 677/2/4 675/2/4 679/2/4
f 678/1/4 677/1/4 679/1/4
f 679/2/4 675/2/4 680/2/4
f 678/2/4 679/2/4 681/2/4
f 679/1/4 680/1/4 682/1/4
f 681/2/4 679/2/4 682/2/4
f 681/1/4 682/1/4 683/1/4
f 682/1/4 680/1/4 684/1/4
f 683/1/4 682/1/4 684/1/4
f 683/2/4 684/2/4 685/2/4
f 684/1/4 680/1/4 686/1/4
f 685/2/4 684/2/4 686/2/4
f 686/1/4 680/1/4 687/1/4
f 688/1/4 689/1/4 691/1/4
f 689/2/4 690/2/4 692/2/4
f 691/1/4 689/1/4 692/1/4
f 692/2/4 690/2/4 693/2/4
f 694/2/4 695/2/4 697/2/4
f 695/1/4 696/1/4 698/1/4
f 697/2/4 695/2/4 698/2/4
f 697/1/4 698/1/4 699/1/4
f 698/1/4 696/1/4 700/1/4
f 699/1/4 698/1/4 700/1/4
f 701/1/4 702/1/4 704/1/4
f 702/2/4 703/2/4 705/2/4
f 704/1/4 702/1/4 705/1/4
f 705/2/4 703/2/4 706/2/4
f 704/2/4 705/2/4 707/2/4
f 705/1/4 706/1/4 707/1/4
f 707/1/4 706/1/4 708/1/4
f 704/2/4 707/2/4 709/2/4
f 707/2/4 708/2/4 709/2/4
f 709/2/4 708/2/4 710/2/4
f 709/1/4 710/1/4 711/1/4
f 710/2/4 708/2/4 712/2/4
f 711/1/4 710/1/4 712/1/4
f 711/2/4 712/2/4 713/2/4
f 712/2/4 708/2/4 714/2/4
f 713/2/4 712/2/4 714/2/4
f 713/1/4 714/1/4 715/1/4
f 714/2/4 708/2/4 715/2/4
f 715/2/4 708/2/4 716/2/4
f 713/1/4 715/1/4 717/1/4
f 715/1/4 716/1/4 717/1/4
f 717/1/4 716/1/4 718/1/4
f 713/1/4 717/1/4 719/1/4
f 717/2/4 718/2/4 720/2/4
f 719/1/4 717/1/4 720/1/4
f 720/2/4 718/2/4 721/2/4
f 722/1/4 723/1/4 725/1/4
f 723/2/4 724/2/4 726/2/4
f 725/1/4 723/1/4 726/1/4
f 725/2/4 726/2/4 727/2/4
f 726/2/4 724/2/4 728/2/4
f 727/2/4 726/2/4 728/2/4
f 729/2/4 730/2/4 731/2/4
f 731/2/4 730/2/4 732/2/4
f 731/1/4 732/1/4 733/1/4
f 733/1/4 732/1/4 734/1/4
f 735/1/4 736/1/4 738/1/4
f 736/1/4 737/1/4 738/1/4
f 738/1/4 737/1/4 739/1/4
f 735/1/4 738/1/4 740/1/4
f 738/2/4 739/2/4 741/2/4
f 740/1/4 738/1/4 741/1/4
f 740/2/4 741/2/4 742/2/4
f 741/2/4 739/2/4 743/2/4
f 742/2/4 741/2/4 743/2/4
f 742/1/4 743/1/4 744/1/4
f 743/2/4 739/2/4 744/2/4
f 744/2/4 739/2/4 745/2/4
f 742/1/4 744/1/4 746/1/4
f 744/1/4 745/1/4 746/1/4
f 746/1/4 745/1/4 747/1/4
f 742/1/4 746/1/4 748/1/4
f 746/2/4 747/2/4 749/2/4
f 748/1/4 746/1/4 749/1/4
f 748/2/4 749/2/4 750/2/4
f 749/2/4 747/2/4 751/2/4
f 750/2/4 749/2/4 751/2/4
f 750/1/4 751/1/4 752/1/4
f 752/1/4 751/1/4 753/1/4
f 752/2/4 753/2/4 754/2/4
f 753/1/4 751/1/4 754/1/4
f 754/1/4 751/1/4 755/1/4
f 752/2/4 754/2/4 756/2/4
f 754/2/4 755/2/4 756/2/4
f 756/2/4 755/2/4 757/2/4
f 756/1/4 757/1/4 758/1/4
f 757/2/4 755/2/4 758/2/4
f 758/2/4 755/2/4 759/2/4
f 756/1/4 758/1/4 760/1/4
f 758/1/4 759/1/4 760/1/4
f 760/1/4 759/1/4 761/1/4
f 761/1/4 759/1/4 762/1/4
f 763/1/4 764/1/4 766/1/4
f 764/2/4 765/2/4 767/2/4
f 766/1/4 764/1/4 767/1/4
f 767/2/4 765/2/4 768/2/4
f 766/2/4 767/2/4 769/2/4
f 767/1/4 768/1/4 770/1/4
f 769/2/4 767/2/4 770/2/4
f 770/1/4 768/1/4 771/1/4
f 772/1/4 773/1/4 775/1/4
f 773/2/4 774/2/4 775/2/4
f 775/2/4 774/2/4 776/2/4
f 772/1/4 775/1/4 777/1/4
f 775/1/4 776/1/4 777/1/4
f 777/1/4 776/1/4 778/1/4
f 778/1/4 776/1/4 779/1/4
f 780/1/4 781/1/4 783/1/4
f 781/1/4 782/1/4 783/1/4
f 783/1/4 782/1/4 784/1/4
f 780/1/4 783/1/4 785/1/4
f 783/2/4 784/2/4 786/2/4
f 785/1/4 783/1/4 786/1/4
f 785/2/4 786/2/4 787/2/4
f 786/2/4 784/2/4 788/2/4
f 787/2/4 786/2/4 788/2/4
f 787/1/4 788/1/4 789/1/4
f 789/1/4 788/1/4 790/1/4
f 787/1/4 789/1/4 791/1/4
f 789/2/4 790/2/4 791/2/4
f 791/2/4 790/2/4 792/2/4
f 787/1/4 791/1/4 793/1/4
f 791/1/4 792/1/4 793/1/4
f 793/1/4 792/1/4 794/1/4
f 793/2/4 794/2/4 795/2/4
f 794/1/4 792/1/4 795/1/4
f 795/1/4 792/1/4 796/1/4
f 793/2/4 795/2/4 797/2/4
f 795/2/4 796/2/4 797/2/4
f 797/2/4 796/2/4 798/2/4
f 797/1/4 798/1/4 799/1/4
f 799/1/4 798/1/4 800/1/4
f 801/1/4 802/1/4 803/1/4
f 803/1/4 802/1/4 804/1/4
f 803/2/4 804/2/4 805/2/4
f 805/2/4 804/2/4 806/2/4
f 807/1/4 808/1/4 809/1/4
f 809/1/4 808/1/4 810/1/4
f 810/1/4 808/1/4 811/1/4
f 812/1/4 813/1/4 815/1/4
f 813/2/4 814/2/4 815/2/4
f 815/2/4 814/2/4 816/2/4
f 812/1/4 815/1/4 817/1/4
f 815/1/4 816/1/4 817/1/4
f 817/1/4 816/1/4 818/1/4
f 817/2/4 818/2/4 819/2/4
f 818/1/4 816/1/4 820/1/4
f 819/2/4 818/2/4 820/2/4
f 820/1/4 816/1/4 821/1/4
f 819/1/4 820/1/4 822/1/4
f 820/2/4 821/2/4 822/2/4
f 822/2/4 821/2/4 823/2/4
f 819/1/4 822/1/4 824/1/4
f 822/1/4 823/1/4 824/1/4
f 824/1/4 823/1/4 825/1/4
f 825/1/4 823/1/4 826/1/4
f 827/1/4 828/1/4 829/1/4
f 829/1/4 828/1/4 830/1/4
f 829/2/4 830/2/4 831/2/4
f 830/1/4 828/1/4 832/1/4
f 831/2/4 830/2/4 832/2/4
f 832/1/4 828/1/4 833/1/4
f 834/5/4 835/5/4 837/5/4
f 837/5/4 835/5/4 838/5/4
f 835/3/4 836/3/4 839/3/4
f 838/5/4 835/5/4 839/5/4
f 837/3/4 838/3/4 840/3/4
f 838/4/4 839/4/4 840/4/4
f 839/3/4 836/3/4 841/3/4
f 840/4/4 839/4/4 841/4/4
f 841/3/4 836/3/4 842/3/4
f 837/3/4 840/3/4 843/3/4
f 840/3/4 841/3/4 843/3/4
f 841/5/4 842/5/4 844/5/4
f 843/3/4 841/3/4 844/3/4
f 844/5/4 842/5/4 845/5/4
f 846/5/4 847/5/4 849/5/4
f 849/5/4 847/5/4 850/5/4
f 847/4/4 848/4/4 851/4/4
f 850/5/4 847/5/4 851/5/4
f 851/4/4 848/4/4 852/4/4
f 849/3/4 850/3/4 853/3/4
f 850/4/4 851/4/4 854/4/4
f 853/3/4 850/3/4 854/3/4
f 851/5/4 852/5/4 855/5/4
f 854/4/4 851/4/4 855/4/4
f 855/5/4 852/5/4 856/5/4
f 853/5/4 854/5/4 857/5/4
f 854/3/4 855/3/4 858/3/4
f 857/5/4 854/5/4 858/5/4
f 855/3/4 856/3/4 858/3/4
f 858/3/4 856/3/4 859/3/4
f 865/3/5 861/3/5 860/3/5
f 866/3/5 861/3/5 865/3/5
f 867/3/5 863/3/5 862/3/5
f 868/5/5 864/5/5 863/5/5
f 868/3/5 863/3/5 867/3/5
f 869/5/5 864/5/5 868/5/5
f 870/5/5 864/5/5 869/5/5
f 872/5/5 866/5/5 865/5/5
f 873/3/5 861/3/5 866/3/5
f 873/5/5 866/5/5 872/5/5
f 874/3/5 861/3/5 873/3/5
f 877/5/5 868/5/5 867/5/5
f 877/5/5 869/5/5 868/5/5
f 878/3/5 870/3/5 869/3/5
f 878/5/5 869/5/5 877/5/5
f 879/3/5 870/3/5 878/3/5
f 882/2/5 872/2/5 871/2/5
f 883/2/5 872/2/5 882/2/5
f 884/1/5 876/1/5 875/1/5
f 884/2/5 875/2/5 874/2/5
f 885/2/5 877/2/5 876/2/5
f 885/1/5 876/1/5 884/1/5
f 886/1/5 881/1/5 880/1/5
f 886/2/5 880/2/5 879/2/5
f 887/1/5 881/1/5 886/1/5
f 888/2/5 884/2/5 874/2/5
f 888/2/5 885/2/5 884/2/5
f 889/2/5 885/2/5 888/2/5
f 890/2/5 885/2/5 889/2/5
f 891/2/5 885/2/5 890/2/5
f 892/2/5 877/2/5 885/2/5
f 892/2/5 885/2/5 891/2/5
f 893/2/5 877/2/5 892/2/5
f 894/2/5 877/2/5 893/2/5
f 895/2/5 877/2/5 894/2/5
f 896/5/5 879/5/5 878/5/5
f 896/5/5 878/5/5 877/5/5
f 896/2/5 887/2/5 886/2/5
f 896/2/5 886/2/5 879/2/5
f 897/2/5 887/2/5 896/2/5
f 898/1/5 883/1/5 882/1/5
f 899/2/5 872/2/5 883/2/5
f 899/1/5 883/1/5 898/1/5
f 900/5/5 873/5/5 872/5/5
f 900/2/5 872/2/5 899/2/5
f 900/5/5 874/5/5 873/5/5
f 901/5/5 874/5/5 900/5/5
f 902/2/5 888/2/5 874/2/5
f 902/5/5 874/5/5 901/5/5
f 903/1/5 889/1/5 888/1/5
f 903/2/5 888/2/5 902/2/5
f 904/2/5 890/2/5 889/2/5
f 904/1/5 889/1/5 903/1/5
f 905/1/5 891/1/5 890/1/5
f 905/2/5 890/2/5 904/2/5
f 906/2/5 892/2/5 891/2/5
f 906/1/5 891/1/5 905/1/5
f 907/1/5 893/1/5 892/1/5
f 907/2/5 892/2/5 906/2/5
f 908/2/5 894/2/5 893/2/5
f 908/1/5 893/1/5 907/1/5
f 909/1/5 895/1/5 894/1/5
f 909/2/5 894/2/5 908/2/5
f 910/2/5 877/2/5 895/2/5
f 910/1/5 895/1/5 909/1/5
f 911/5/5 896/5/5 877/5/5
f 911/2/5 877/2/5 910/2/5
f 912/1/5 897/1/5 896/1/5
f 912/5/5 896/5/5 911/5/5
f 913/1/5 897/1/5 912/1/5
f 914/3/5 902/3/5 901/3/5
f 914/5/5 901/5/5 900/5/5
f 915/3/5 902/3/5 914/3/5
f 916/5/5 912/5/5 911/5/5
f 917/5/5 912/5/5 916/5/5
f 918/5/5 912/5/5 917/5/5
f 919/5/5 912/5/5 918/5/5
f 920/5/5 915/5/5 914/5/5
f 920/5/5 914/5/5 900/5/5
f 921/5/5 915/5/5 920/5/5
f 922/5/5 915/5/5 921/5/5
f 923/5/5 915/5/5 922/5/5
f 924/5/5 922/5/5 921/5/5
f 924/3/5 923/3/5 922/3/5
f 925/3/5 923/3/5 924/3/5
f 926/3/5 917/3/5 916/3/5
f 927/5/5 918/5/5 917/5/5
f 927/3/5 917/3/5 926/3/5
f 928/3/5 919/3/5 918/3/5
f 928/5/5 918/5/5 927/5/5
f 929/3/5 919/3/5 928/3/5
f 931/3/5 921/3/5 920/3/5
f 932/5/5 925/5/5 924/5/5
f 932/5/5 924/5/5 921/5/5
f 932/3/5 921/3/5 931/3/5
f 933/5/5 925/5/5 932/5/5
f 936/5/5 927/5/5 926/5/5
f 936/5/5 928/5/5 927/5/5
f 936/5/5 929/5/5 928/5/5
f 937/5/5 929/5/5 936/5/5
f 940/1/5 931/1/5 930/1/5
f 941/1/5 931/1/5 940/1/5
f 942/2/5 935/2/5 934/2/5
f 942/1/5 934/1/5 933/1/5
f 943/1/5 936/1/5 935/1/5
f 943/2/5 935/2/5 942/2/5
f 944/2/5 939/2/5 938/2/5
f 944/1/5 938/1/5 937/1/5
f 945/2/5 939/2/5 944/2/5
f 946/1/5 943/1/5 942/1/5
f 947/1/5 936/1/5 943/1/5
f 947/1/5 943/1/5 946/1/5
f 948/1/5 936/1/5 947/1/5
f 949/1/5 936/1/5 948/1/5
f 950/1/5 944/1/5 937/1/5
f 950/1/5 945/1/5 944/1/5
f 951/1/5 945/1/5 950/1/5
f 952/2/5 941/2/5 940/2/5
f 953/1/5 931/1/5 941/1/5
f 953/2/5 941/2/5 952/2/5
f 954/5/5 933/5/5 932/5/5
f 954/1/5 931/1/5 953/1/5
f 954/5/5 932/5/5 931/5/5
f 955/1/5 946/1/5 942/1/5
f 955/5/5 933/5/5 954/5/5
f 955/1/5 942/1/5 933/1/5
f 956/2/5 947/2/5 946/2/5
f 956/1/5 946/1/5 955/1/5
f 957/1/5 948/1/5 947/1/5
f 957/2/5 947/2/5 956/2/5
f 958/2/5 949/2/5 948/2/5
f 958/1/5 948/1/5 957/1/5
f 959/1/5 936/1/5 949/1/5
f 959/2/5 949/2/5 958/2/5
f 960/5/5 937/5/5 936/5/5
f 960/1/5 936/1/5 959/1/5
f 961/1/5 950/1/5 937/1/5
f 961/5/5 937/5/5 960/5/5
f 962/2/5 951/2/5 950/2/5
f 962/1/5 950/1/5 961/1/5
f 963/2/5 951/2/5 962/2/5
f 964/5/5 955/5/5 954/5/5
f 965/5/5 955/5/5 964/5/5
f 966/5/5 961/5/5 960/5/5
f 967/5/5 961/5/5 966/5/5
f 968/3/5 967/3/5 966/3/5
f 969/5/5 961/5/5 967/5/5
f 969/3/5 967/3/5 968/3/5
f 970/5/5 961/5/5 969/5/5
f 971/5/5 961/5/5 970/5/5
f 973/5/5 964/5/5 954/5/5
f 974/3/5 965/3/5 964/3/5
f 974/5/5 964/5/5 973/5/5
f 975/3/5 965/3/5 974/3/5
f 978/5/5 969/5/5 968/5/5
f 978/5/5 970/5/5 969/5/5
f 979/3/5 971/3/5 970/3/5
f 979/5/5 970/5/5 978/5/5
f 980/3/5 971/3/5 979/3/5
f 982/1/5 973/1/5 972/1/5
f 983/1/5 973/1/5 982/1/5
f 984/2/5 977/2/5 976/2/5
f 984/1/5 976/1/5 975/1/5
f 985/1/5 978/1/5 977/1/5
f 985/2/5 977/2/5 984/2/5
f 986/1/5 981/1/5 980/1/5
f 987/1/5 981/1/5 986/1/5
f 988/1/5 984/1/5 975/1/5
f 988/1/5 985/1/5 984/1/5
f 989/1/5 985/1/5 988/1/5
f 990/1/5 985/1/5 989/1/5
f 991/1/5 985/1/5 990/1/5
f 992/1/5 985/1/5 991/1/5
f 993/1/5 978/1/5 985/1/5
f 993/1/5 985/1/5 992/1/5
f 994/2/5 983/2/5 982/2/5
f 995/1/5 973/1/5 983/1/5
f 995/2/5 983/2/5 994/2/5
f 996/5/5 974/5/5 973/5/5
f 996/1/5 973/1/5 995/1/5
f 996/5/5 975/5/5 974/5/5
f 997/1/5 988/1/5 975/1/5
f 997/5/5 975/5/5 996/5/5
f 998/2/5 989/2/5 988/2/5
f 998/1/5 988/1/5 997/1/5
f 999/1/5 990/1/5 989/1/5
f 999/2/5 989/2/5 998/2/5
f 1000/2/5 991/2/5 990/2/5
f 1000/1/5 990/1/5 999/1/5
f 1001/1/5 992/1/5 991/1/5
f 1001/2/5 991/2/5 1000/2/5
f 1002/2/5 993/2/5 992/2/5
f 1002/1/5 992/1/5 1001/1/5
f 1003/1/5 978/1/5 993/1/5
f 1003/2/5 993/2/5 1002/2/5
f 1004/5/5 980/5/5 979/5/5
f 1004/1/5 978/1/5 1003/1/5
f 1004/5/5 979/5/5 978/5/5
f 1005/1/5 986/1/5 980/1/5
f 1005/5/5 980/5/5 1004/5/5
f 1006/2/5 987/2/5 986/2/5
f 1006/1/5 986/1/5 1005/1/5
f 1007/2/5 987/2/5 1006/2/5
f 1008/5/5 1005/5/5 1004/5/5
f 1009/5/5 1005/5/5 1008/5/5
f 1010/5/5 1005/5/5 1009/5/5
f 1011/5/5 1005/5/5 1010/5/5
f 1012/5/5 997/5/5 996/5/5
f 1013/5/5 997/5/5 1012/5/5
f 1014/5/5 1010/5/5 1009/5/5
f 1014/3/5 1011/3/5 1010/3/5
f 1015/3/5 1011/3/5 1014/3/5
f 1016/3/5 1013/3/5 1012/3/5
f 1016/5/5 1012/5/5 996/5/5
f 1017/3/5 1013/3/5 1016/3/5
f 1018/3/5 1009/3/5 1008/3/5
f 1019/5/5 1015/5/5 1014/5/5
f 1019/3/5 1009/3/5 1018/3/5
f 1019/5/5 1014/5/5 1009/5/5
f 1020/5/5 1015/5/5 1019/5/5
f 1021/5/5 1015/5/5 1020/5/5
f 1024/5/5 1017/5/5 1016/5/5
f 1024/5/5 1016/5/5 996/5/5
f 1025/5/5 1017/5/5 1024/5/5
f 1030/5/5 1019/5/5 1018/5/5
f 1030/5/5 1020/5/5 1019/5/5
f 1031/3/5 1021/3/5 1020/3/5
f 1031/5/5 1020/5/5 1030/5/5
f 1032/3/5 1021/3/5 1031/3/5
f 1035/1/5 1026/1/5 1025/1/5
f 1035/2/5 1027/2/5 1026/2/5
f 1036/1/5 1028/1/5 1027/1/5
f 1036/2/5 1027/2/5 1035/2/5
f 1037/2/5 1029/2/5 1028/2/5
f 1037/1/5 1028/1/5 1036/1/5
f 1038/1/5 1030/1/5 1029/1/5
f 1038/2/5 1029/2/5 1037/2/5
f 1039/1/5 1034/1/5 1033/1/5
f 1039/2/5 1033/2/5 1032/2/5
f 1040/1/5 1034/1/5 1039/1/5
f 1041/2/5 1023/2/5 1022/2/5
f 1042/1/5 1024/1/5 1023/1/5
f 1042/2/5 1023/2/5 1041/2/5
f 1043/1/5 1036/1/5 1035/1/5
f 1043/1/5 1037/1/5 1036/1/5
f 1043/1/5 1038/1/5 1037/1/5
f 1044/1/5 1038/1/5 1043/1/5
f 1045/1/5 1030/1/5 1038/1/5
f 1045/1/5 1038/1/5 1044/1/5
f 1046/1/5 1030/1/5 1045/1/5
f 1047/5/5 1032/5/5 1031/5/5
f 1047/5/5 1031/5/5 1030/5/5
f 1047/2/5 1040/2/5 1039/2/5
f 1047/2/5 1039/2/5 1032/2/5
f 1048/2/5 1040/2/5 1047/2/5
f 1049/1/5 1042/1/5 1041/1/5
f 1050/1/5 1024/1/5 1042/1/5
f 1050/1/5 1042/1/5 1049/1/5
f 1050/5/5 1025/5/5 1024/5/5
f 1051/5/5 1025/5/5 1050/5/5
f 1052/5/5 1025/5/5 1051/5/5
f 1053/1/5 1035/1/5 1025/1/5
f 1053/5/5 1025/5/5 1052/5/5
f 1053/1/5 1043/1/5 1035/1/5
f 1054/2/5 1044/2/5 1043/2/5
f 1054/1/5 1043/1/5 1053/1/5
f 1055/1/5 1045/1/5 1044/1/5
f 1055/2/5 1044/2/5 1054/2/5
f 1056/2/5 1046/2/5 1045/2/5
f 1056/1/5 1045/1/5 1055/1/5
f 1057/1/5 1030/1/5 1046/1/5
f 1057/2/5 1046/2/5 1056/2/5
f 1058/5/5 1047/5/5 1030/5/5
f 1058/1/5 1030/1/5 1057/1/5
f 1059/5/5 1047/5/5 1058/5/5
f 1060/1/5 1048/1/5 1047/1/5
f 1060/5/5 1047/5/5 1059/5/5
f 1061/2/5 1040/2/5 1048/2/5
f 1061/1/5 1048/1/5 1060/1/5
f 1062/2/5 1040/2/5 1061/2/5
f 1063/5/5 1059/5/5 1058/5/5
f 1064/5/5 1059/5/5 1063/5/5
f 1065/3/5 1060/3/5 1059/3/5
f 1065/5/5 1059/5/5 1064/5/5
f 1066/3/5 1060/3/5 1065/3/5
f 1067/5/5 1065/5/5 1064/5/5
f 1067/4/5 1066/4/5 1065/4/5
f 1068/4/5 1066/4/5 1067/4/5
f 1069/3/5 1064/3/5 1063/3/5
f 1070/5/5 1067/5/5 1064/5/5
f 1070/3/5 1064/3/5 1069/3/5
f 1070/5/5 1068/5/5 1067/5/5
f 1071/3/5 1051/3/5 1050/3/5
f 1072/5/5 1052/5/5 1051/5/5
f 1072/3/5 1051/3/5 1071/3/5
f 1074/5/5 1072/5/5 1071/5/5
f 1075/3/5 1053/3/5 1052/3/5
f 1075/5/5 1052/5/5 1072/5/5
f 1075/5/5 1072/5/5 1074/5/5
f 1076/3/5 1053/3/5 1075/3/5
f 1083/5/5 1070/5/5 1069/5/5
f 1084/5/5 1068/5/5 1070/5/5
f 1084/5/5 1070/5/5 1083/5/5
f 1086/1/5 1077/1/5 1076/1/5
f 1086/2/5 1078/2/5 1077/2/5
f 1087/1/5 1079/1/5 1078/1/5
f 1087/2/5 1078/2/5 1086/2/5
f 1088/2/5 1080/2/5 1079/2/5
f 1088/1/5 1079/1/5 1087/1/5
f 1089/1/5 1081/1/5 1080/1/5
f 1089/2/5 1080/2/5 1088/2/5
f 1090/2/5 1082/2/5 1081/2/5
f 1090/1/5 1081/1/5 1089/1/5
f 1091/1/5 1083/1/5 1082/1/5
f 1091/2/5 1082/2/5 1090/2/5
f 1092/1/5 1085/1/5 1084/1/5
f 1093/1/5 1085/1/5 1092/1/5
f 1094/1/5 1090/1/5 1089/1/5
f 1094/1/5 1089/1/5 1088/1/5
f 1094/1/5 1083/1/5 1091/1/5
f 1094/1/5 1088/1/5 1087/1/5
f 1094/1/5 1091/1/5 1090/1/5
f 1094/1/5 1087/1/5 1086/1/5
f 1095/1/5 1083/1/5 1094/1/5
f 1096/1/5 1074/1/5 1073/1/5
f 1097/5/5 1075/5/5 1074/5/5
f 1097/1/5 1074/1/5 1096/1/5
f 1097/5/5 1076/5/5 1075/5/5
f 1098/5/5 1076/5/5 1097/5/5
f 1099/1/5 1086/1/5 1076/1/5
f 1099/5/5 1076/5/5 1098/5/5
f 1099/1/5 1094/1/5 1086/1/5
f 1100/2/5 1095/2/5 1094/2/5
f 1100/1/5 1094/1/5 1099/1/5
f 1101/1/5 1083/1/5 1095/1/5
f 1101/2/5 1095/2/5 1100/2/5
f 1102/5/5 1084/5/5 1083/5/5
f 1102/1/5 1083/1/5 1101/1/5
f 1103/5/5 1084/5/5 1102/5/5
f 1104/1/5 1092/1/5 1084/1/5
f 1104/5/5 1084/5/5 1103/5/5
f 1105/2/5 1093/2/5 1092/2/5
f 1105/1/5 1092/1/5 1104/1/5
f 1106/2/5 1093/2/5 1105/2/5
f 1107/3/5 1103/3/5 1102/3/5
f 1108/5/5 1104/5/5 1103/5/5
f 1108/3/5 1103/3/5 1107/3/5
f 1109/5/5 1098/5/5 1097/5/5
f 1110/3/5 1099/3/5 1098/3/5
f 1110/5/5 1098/5/5 1109/5/5
f 1111/5/5 1104/5/5 1108/5/5
f 1111/5/5 1108/5/5 1107/5/5
f 1112/5/5 1104/5/5 1111/5/5
f 1113/5/5 1109/5/5 1097/5/5
f 1114/3/5 1110/3/5 1109/3/5
f 1114/5/5 1109/5/5 1113/5/5
f 1115/3/5 1099/3/5 1110/3/5
f 1115/3/5 1110/3/5 1114/3/5
f 1116/5/5 1111/5/5 1107/5/5
f 1117/3/5 1112/3/5 1111/3/5
f 1117/5/5 1111/5/5 1116/5/5
f 1118/5/5 1104/5/5 1112/5/5
f 1118/3/5 1112/3/5 1117/3/5
f 1119/5/5 1104/5/5 1118/5/5
f 1120/1/6 1121/1/6 1133/1/6
f 1133/1/6 1121/1/6 1134/1/6
f 1122/1/6 1123/1/6 1135/1/6
f 1135/1/6 1123/1/6 1136/1/6
f 1123/2/6 1124/2/6 1137/2/6
f 1136/1/6 1123/1/6 1137/1/6
f 1137/2/6 1124/2/6 1138/2/6
f 1124/1/6 1125/1/6 1139/1/6
f 1138/2/6 1124/2/6 1139/2/6
f 1139/1/6 1125/1/6 1140/1/6
f 1125/2/6 1126/2/6 1141/2/6
f 1140/1/6 1125/1/6 1141/1/6
f 1126/1/6 1127/1/6 1142/1/6
f 1141/2/6 1126/2/6 1142/2/6
f 1142/1/6 1127/1/6 1143/1/6
f 1127/2/6 1128/2/6 1144/2/6
f 1143/1/6 1127/1/6 1144/1/6
f 1128/1/6 1129/1/6 1145/1/6
f 1144/2/6 1128/2/6 1145/2/6
f 1145/1/6 1129/1/6 1146/1/6
f 1146/1/6 1129/1/6 1147/1/6
f 1133/2/6 1134/2/6 1148/2/6
f 1148/2/6 1134/2/6 1149/2/6
f 1135/1/6 1136/1/6 1150/1/6
f 1137/2/6 1138/2/6 1151/2/6
f 1150/1/6 1136/1/6 1151/1/6
f 1136/2/6 1137/2/6 1151/2/6
f 1151/2/6 1138/2/6 1152/2/6
f 1152/2/6 1138/2/6 1153/2/6
f 1138/1/6 1139/1/6 1154/1/6
f 1154/1/6 1139/1/6 1155/1/6
f 1139/2/6 1140/2/6 1156/2/6
f 1155/1/6 1139/1/6 1156/1/6
f 1140/1/6 1141/1/6 1157/1/6
f 1156/2/6 1140/2/6 1157/2/6
f 1141/1/6 1142/1/6 1157/1/6
f 1157/1/6 1142/1/6 1158/1/6
f 1142/2/6 1143/2/6 1159/2/6
f 1158/1/6 1142/1/6 1159/1/6
f 1143/1/6 1144/1/6 1160/1/6
f 1159/2/6 1143/2/6 1160/2/6
f 1144/1/6 1145/1/6 1160/1/6
f 1145/1/6 1146/1/6 1160/1/6
f 1146/2/6 1147/2/6 1161/2/6
f 1160/1/6 1146/1/6 1161/1/6
f 1161/2/6 1147/2/6 1162/2/6
f 1130/2/6 1131/2/6 1163/2/6
f 1131/1/6 1132/1/6 1164/1/6
f 1163/2/6 1131/2/6 1164/2/6
f 1149/2/6 1134/2/6 1165/2/6
f 1148/1/6 1149/1/6 1165/1/6
f 1165/2/6 1134/2/6 1166/2/6
f 1150/2/6 1151/2/6 1167/2/6
f 1151/2/6 1152/2/6 1167/2/6
f 1152/1/6 1153/1/6 1168/1/6
f 1167/2/6 1152/2/6 1168/2/6
f 1168/1/6 1153/1/6 1169/1/6
f 1153/2/6 1138/2/6 1170/2/6
f 1169/1/6 1153/1/6 1170/1/6
f 1138/1/6 1154/1/6 1171/1/6
f 1170/2/6 1138/2/6 1171/2/6
f 1154/2/6 1155/2/6 1172/2/6
f 1171/1/6 1154/1/6 1172/1/6
f 1155/1/6 1156/1/6 1173/1/6
f 1172/2/6 1155/2/6 1173/2/6
f 1156/1/6 1157/1/6 1173/1/6
f 1173/1/6 1157/1/6 1174/1/6
f 1157/2/6 1158/2/6 1175/2/6
f 1174/1/6 1157/1/6 1175/1/6
f 1158/1/6 1159/1/6 1176/1/6
f 1175/2/6 1158/2/6 1176/2/6
f 1159/1/6 1160/1/6 1176/1/6
f 1161/2/6 1162/2/6 1177/2/6
f 1176/1/6 1160/1/6 1177/1/6
f 1160/2/6 1161/2/6 1177/2/6
f 1177/2/6 1162/2/6 1178/2/6
f 1178/2/6 1162/2/6 1179/2/6
f 1163/1/6 1164/1/6 1180/1/6
f 1164/1/6 1132/1/6 1181/1/6
f 1180/1/6 1164/1/6 1181/1/6
f 1148/1/6 1165/1/6 1182/1/6
f 1165/1/6 1166/1/6 1182/1/6
f 1182/1/6 1166/1/6 1183/1/6
f 1167/1/6 1168/1/6 1184/1/6
f 1168/2/6 1169/2/6 1185/2/6
f 1184/1/6 1168/1/6 1185/1/6
f 1170/1/6 1171/1/6 1186/1/6
f 1185/2/6 1169/2/6 1186/2/6
f 1169/1/6 1170/1/6 1186/1/6
f 1171/2/6 1172/2/6 1187/2/6
f 1186/1/6 1171/1/6 1187/1/6
f 1173/1/6 1174/1/6 1188/1/6
f 1187/2/6 1172/2/6 1188/2/6
f 1172/1/6 1173/1/6 1188/1/6
f 1175/2/6 1176/2/6 1189/2/6
f 1188/1/6 1174/1/6 1189/1/6
f 1174/2/6 1175/2/6 1189/2/6
f 1176/2/6 1177/2/6 1189/2/6
f 1177/2/6 1178/2/6 1189/2/6
f 1178/1/6 1179/1/6 1190/1/6
f 1189/2/6 1178/2/6 1190/2/6
f 1190/1/6 1179/1/6 1191/1/6
f 1180/2/6 1181/2/6 1192/2/6
f 1192/2/6 1181/2/6 1193/2/6
f 1197/2/6 1198/2/6 1206/2/6
f 1198/1/6 1199/1/6 1207/1/6
f 1206/2/6 1198/2/6 1207/2/6
f 1199/2/6 1200/2/6 1208/2/6
f 1207/1/6 1199/1/6 1208/1/6
f 1208/2/6 1200/2/6 1209/2/6
f 1209/2/6 1200/2/6 1210/2/6
f 1200/1/6 1201/1/6 1211/1/6
f 1210/2/6 1200/2/6 1211/2/6
f 1201/2/6 1202/2/6 1212/2/6
f 1211/1/6 1201/1/6 1212/1/6
f 1212/2/6 1202/2/6 1213/2/6
f 1202/1/6 1203/1/6 1214/1/6
f 1213/2/6 1202/2/6 1214/2/6
f 1214/1/6 1203/1/6 1215/1/6
f 1215/1/6 1203/1/6 1216/1/6
f 1194/2/6 1195/2/6 1217/2/6
f 1195/1/6 1196/1/6 1218/1/6
f 1217/2/6 1195/2/6 1218/2/6
f 1206/1/6 1207/1/6 1219/1/6
f 1207/2/6 1208/2/6 1220/2/6
f 1219/1/6 1207/1/6 1220/1/6
f 1208/2/6 1209/2/6 1220/2/6
f 1220/2/6 1209/2/6 1221/2/6
f 1209/1/6 1210/1/6 1222/1/6
f 1221/2/6 1209/2/6 1222/2/6
f 1222/1/6 1210/1/6 1223/1/6
f 1210/2/6 1211/2/6 1224/2/6
f 1223/1/6 1210/1/6 1224/1/6
f 1211/2/6 1212/2/6 1224/2/6
f 1224/2/6 1212/2/6 1225/2/6
f 1212/1/6 1213/1/6 1226/1/6
f 1225/2/6 1212/2/6 1226/2/6
f 1226/1/6 1213/1/6 1227/1/6
f 1213/2/6 1214/2/6 1228/2/6
f 1227/1/6 1213/1/6 1228/1/6
f 1214/2/6 1215/2/6 1228/2/6
f 1228/2/6 1215/2/6 1229/2/6
f 1215/1/6 1216/1/6 1230/1/6
f 1229/2/6 1215/2/6 1230/2/6
f 1230/1/6 1216/1/6 1231/1/6
f 1204/1/6 1205/1/6 1232/1/6
f 1232/1/6 1205/1/6 1233/1/6
f 1218/1/6 1196/1/6 1234/1/6
f 1217/1/6 1218/1/6 1234/1/6
f 1206/1/6 1219/1/6 1235/1/6
f 1220/2/6 1221/2/6 1236/2/6
f 1235/1/6 1219/1/6 1236/1/6
f 1219/2/6 1220/2/6 1236/2/6
f 1236/2/6 1221/2/6 1237/2/6
f 1222/1/6 1223/1/6 1238/1/6
f 1237/2/6 1221/2/6 1238/2/6
f 1221/1/6 1222/1/6 1238/1/6
f 1238/1/6 1223/1/6 1239/1/6
f 1223/2/6 1224/2/6 1240/2/6
f 1239/1/6 1223/1/6 1240/1/6
f 1224/1/6 1225/1/6 1241/1/6
f 1240/2/6 1224/2/6 1241/2/6
f 1226/2/6 1227/2/6 1242/2/6
f 1241/1/6 1225/1/6 1242/1/6
f 1225/2/6 1226/2/6 1242/2/6
f 1228/1/6 1229/1/6 1243/1/6
f 1242/2/6 1227/2/6 1243/2/6
f 1227/1/6 1228/1/6 1243/1/6
f 1243/1/6 1229/1/6 1244/1/6
f 1232/2/6 1233/2/6 1245/2/6
f 1217/1/6 1234/1/6 1246/1/6
f 1246/1/6 1234/1/6 1247/1/6
f 1236/2/6 1237/2/6 1248/2/6
f 1235/2/6 1236/2/6 1248/2/6
f 1237/1/6 1238/1/6 1249/1/6
f 1248/2/6 1237/2/6 1249/2/6
f 1238/1/6 1239/1/6 1249/1/6
f 1239/2/6 1240/2/6 1250/2/6
f 1249/1/6 1239/1/6 1250/1/6
f 1240/2/6 1241/2/6 1250/2/6
f 1243/2/6 1244/2/6 1250/2/6
f 1242/2/6 1243/2/6 1250/2/6
f 1241/2/6 1242/2/6 1250/2/6
f 1244/1/6 1229/1/6 1251/1/6
f 1250/2/6 1244/2/6 1251/2/6
f 1230/2/6 1231/2/6 1252/2/6
f 1251/1/6 1229/1/6 1252/1/6
f 1229/2/6 1230/2/6 1252/2/6
f 1252/2/6 1231/2/6 1253/2/6
f 1245/2/6 1233/2/6 1254/2/6
f 1254/2/6 1233/2/6 1255/2/6
f 1259/2/6 1260/2/6 1268/2/6
f 1260/1/6 1261/1/6 1269/1/6
f 1268/2/6 1260/2/6 1269/2/6
f 1261/2/6 1262/2/6 1270/2/6
f 1269/1/6 1261/1/6 1270/1/6
f 1270/2/6 1262/2/6 1271/2/6
f 1262/1/6 1263/1/6 1272/1/6
f 1271/2/6 1262/2/6 1272/2/6
f 1272/1/6 1263/1/6 1273/1/6
f 1263/2/6 1264/2/6 1274/2/6
f 1273/1/6 1263/1/6 1274/1/6
f 1274/2/6 1264/2/6 1275/2/6
f 1264/1/6 1265/1/6 1276/1/6
f 1275/2/6 1264/2/6 1276/2/6
f 1276/1/6 1265/1/6 1277/1/6
f 1266/2/6 1267/2/6 1278/2/6
f 1278/2/6 1267/2/6 1279/2/6
f 1256/1/6 1257/1/6 1280/1/6
f 1257/2/6 1258/2/6 1280/2/6
f 1280/2/6 1258/2/6 1281/2/6
f 1268/2/6 1269/2/6 1282/2/6
f 1270/1/6 1271/1/6 1282/1/6
f 1269/2/6 1270/2/6 1282/2/6
f 1282/1/6 1271/1/6 1283/1/6
f 1272/2/6 1273/2/6 1284/2/6
f 1283/1/6 1271/1/6 1284/1/6
f 1271/2/6 1272/2/6 1284/2/6
f 1284/2/6 1273/2/6 1285/2/6
f 1274/1/6 1275/1/6 1286/1/6
f 1285/2/6 1273/2/6 1286/2/6
f 1273/1/6 1274/1/6 1286/1/6
f 1286/1/6 1275/1/6 1287/1/6
f 1275/2/6 1276/2/6 1288/2/6
f 1287/1/6 1275/1/6 1288/1/6
f 1276/2/6 1277/2/6 1288/2/6
f 1277/1/6 1265/1/6 1289/1/6
f 1288/2/6 1277/2/6 1289/2/6
f 1279/2/6 1267/2/6 1290/2/6
f 1278/1/6 1279/1/6 1290/1/6
f 1290/2/6 1267/2/6 1291/2/6
f 1280/1/6 1281/1/6 1292/1/6
f 1256/1/6 1280/1/6 1292/1/6
f 1292/1/6 1281/1/6 1293/1/6
f 1282/2/6 1283/2/6 1294/2/6
f 1268/2/6 1282/2/6 1294/2/6
f 1294/2/6 1283/2/6 1295/2/6
f 1284/1/6 1285/1/6 1296/1/6
f 1295/2/6 1283/2/6 1296/2/6
f 1283/1/6 1284/1/6 1296/1/6
f 1296/1/6 1285/1/6 1297/1/6
f 1297/1/6 1285/1/6 1298/1/6
f 1286/2/6 1287/2/6 1299/2/6
f 1298/1/6 1285/1/6 1299/1/6
f 1285/2/6 1286/2/6 1299/2/6
f 1299/2/6 1287/2/6 1300/2/6
f 1288/1/6 1289/1/6 1301/1/6
f 1300/2/6 1287/2/6 1301/2/6
f 1287/1/6 1288/1/6 1301/1/6
f 1301/1/6 1289/1/6 1302/1/6
f 1289/1/6 1265/1/6 1303/1/6
f 1302/1/6 1289/1/6 1303/1/6
f 1290/1/6 1291/1/6 1304/1/6
f 1278/1/6 1290/1/6 1304/1/6
f 1304/1/6 1291/1/6 1305/1/6
f 1292/2/6 1293/2/6 1306/2/6
f 1293/1/6 1281/1/6 1307/1/6
f 1306/2/6 1293/2/6 1307/2/6
f 1307/1/6 1281/1/6 1308/1/6
f 1294/1/6 1295/1/6 1309/1/6
f 1296/2/6 1297/2/6 1310/2/6
f 1309/1/6 1295/1/6 1310/1/6
f 1295/2/6 1296/2/6 1310/2/6
f 1297/1/6 1298/1/6 1311/1/6
f 1310/2/6 1297/2/6 1311/2/6
f 1298/2/6 1299/2/6 1312/2/6
f 1311/1/6 1298/1/6 1312/1/6
f 1299/1/6 1300/1/6 1313/1/6
f 1312/2/6 1299/2/6 1313/2/6
f 1301/2/6 1302/2/6 1314/2/6
f 1313/1/6 1300/1/6 1314/1/6
f 1300/2/6 1301/2/6 1314/2/6
f 1302/1/6 1303/1/6 1315/1/6
f 1314/2/6 1302/2/6 1315/2/6
f 1315/1/6 1303/1/6 1316/1/6
f 1304/2/6 1305/2/6 1317/2/6
f 1305/1/6 1291/1/6 1318/1/6
f 1317/2/6 1305/2/6 1318/2/6
f 1318/1/6 1291/1/6 1319/1/6
f 1320/1/6 1321/1/6 1331/1/6
f 1321/2/6 1322/2/6 1332/2/6
f 1331/1/6 1321/1/6 1332/1/6
f 1323/2/6 1324/2/6 1333/2/6
f 1333/2/6 1324/2/6 1334/2/6
f 1324/1/6 1325/1/6 1335/1/6
f 1334/2/6 1324/2/6 1335/2/6
f 1325/2/6 1326/2/6 1336/2/6
f 1335/1/6 1325/1/6 1336/1/6
f 1336/2/6 1326/2/6 1337/2/6
f 1337/2/6 1326/2/6 1338/2/6
f 1326/1/6 1327/1/6 1339/1/6
f 1338/2/6 1326/2/6 1339/2/6
f 1339/1/6 1327/1/6 1340/1/6
f 1328/2/6 1329/2/6 1341/2/6
f 1332/2/6 1322/2/6 1342/2/6
f 1331/2/6 1332/2/6 1342/2/6
f 1342/2/6 1322/2/6 1343/2/6
f 1323/2/6 1333/2/6 1344/2/6
f 1344/2/6 1333/2/6 1345/2/6
f 1333/1/6 1334/1/6 1346/1/6
f 1345/2/6 1333/2/6 1346/2/6
f 1334/2/6 1335/2/6 1347/2/6
f 1346/1/6 1334/1/6 1347/1/6
f 1335/2/6 1336/2/6 1347/2/6
f 1336/2/6 1337/2/6 1347/2/6
f 1347/2/6 1337/2/6 1348/2/6
f 1348/2/6 1337/2/6 1349/2/6
f 1337/1/6 1338/1/6 1350/1/6
f 1349/2/6 1337/2/6 1350/2/6
f 1350/1/6 1338/1/6 1351/1/6
f 1339/2/6 1340/2/6 1352/2/6
f 1351/1/6 1338/1/6 1352/1/6
f 1338/2/6 1339/2/6 1352/2/6
f 1341/2/6 1329/2/6 1353/2/6
f 1329/1/6 1330/1/6 1354/1/6
f 1353/2/6 1329/2/6 1354/2/6
f 1344/1/6 1345/1/6 1355/1/6
f 1345/2/6 1346/2/6 1356/2/6
f 1355/1/6 1345/1/6 1356/1/6
f 1346/2/6 1347/2/6 1356/2/6
f 1356/2/6 1347/2/6 1357/2/6
f 1347/1/6 1348/1/6 1358/1/6
f 1357/2/6 1347/2/6 1358/2/6
f 1348/2/6 1349/2/6 1359/2/6
f 1358/1/6 1348/1/6 1359/1/6
f 1359/2/6 1349/2/6 1360/2/6
f 1350/1/6 1351/1/6 1361/1/6
f 1360/2/6 1349/2/6 1361/2/6
f 1349/1/6 1350/1/6 1361/1/6
f 1351/2/6 1352/2/6 1362/2/6
f 1361/1/6 1351/1/6 1362/1/6
f 1362/2/6 1352/2/6 1363/2/6
f 1352/2/6 1340/2/6 1364/2/6
f 1363/2/6 1352/2/6 1364/2/6
f 1364/2/6 1340/2/6 1365/2/6
f 1365/2/6 1340/2/6 1366/2/6
f 1354/1/6 1330/1/6 1367/1/6
f 1353/1/6 1354/1/6 1367/1/6
f 1367/1/6 1330/1/6 1368/1/6
f 1331/2/6 1342/2/6 1369/2/6
f 1342/1/6 1343/1/6 1370/1/6
f 1369/2/6 1342/2/6 1370/2/6
f 1370/1/6 1343/1/6 1371/1/6
f 1356/1/6 1357/1/6 1372/1/6
f 1355/1/6 1356/1/6 1372/1/6
f 1357/2/6 1358/2/6 1373/2/6
f 1372/1/6 1357/1/6 1373/1/6
f 1358/2/6 1359/2/6 1373/2/6
f 1359/1/6 1360/1/6 1374/1/6
f 1373/2/6 1359/2/6 1374/2/6
f 1362/2/6 1363/2/6 1375/2/6
f 1374/1/6 1360/1/6 1375/1/6
f 1360/2/6 1361/2/6 1375/2/6
f 1361/2/6 1362/2/6 1375/2/6
f 1363/1/6 1364/1/6 1376/1/6
f 1375/2/6 1363/2/6 1376/2/6
f 1364/2/6 1365/2/6 1377/2/6
f 1376/1/6 1364/1/6 1377/1/6
f 1365/1/6 1366/1/6 1378/1/6
f 1377/2/6 1365/2/6 1378/2/6
f 1378/1/6 1366/1/6 1379/1/6
f 1353/1/6 1367/1/6 1380/1/6
f 1367/2/6 1368/2/6 1381/2/6
f 1380/1/6 1367/1/6 1381/1/6
f 1381/2/6 1368/2/6 1382/2/6
f 1385/2/6 1386/2/6 1396/2/6
f 1386/1/6 1387/1/6 1397/1/6
f 1396/2/6 1386/2/6 1397/2/6
f 1387/2/6 1388/2/6 1398/2/6
f 1397/1/6 1387/1/6 1398/1/6
f 1398/2/6 1388/2/6 1399/2/6
f 1388/1/6 1389/1/6 1400/1/6
f 1399/2/6 1388/2/6 1400/2/6
f 1400/1/6 1389/1/6 1401/1/6
f 1389/2/6 1390/2/6 1402/2/6
f 1401/1/6 1389/1/6 1402/1/6
f 1390/1/6 1391/1/6 1403/1/6
f 1402/2/6 1390/2/6 1403/2/6
f 1391/2/6 1392/2/6 1404/2/6
f 1403/1/6 1391/1/6 1404/1/6
f 1404/2/6 1392/2/6 1405/2/6
f 1392/1/6 1393/1/6 1406/1/6
f 1405/2/6 1392/2/6 1406/2/6
f 1406/1/6 1393/1/6 1407/1/6
f 1407/1/6 1393/1/6 1408/1/6
f 1394/1/6 1395/1/6 1409/1/6
f 1409/1/6 1395/1/6 1410/1/6
f 1410/1/6 1395/1/6 1411/1/6
f 1396/1/6 1397/1/6 1412/1/6
f 1398/2/6 1399/2/6 1413/2/6
f 1412/1/6 1397/1/6 1413/1/6
f 1397/2/6 1398/2/6 1413/2/6
f 1413/2/6 1399/2/6 1414/2/6
f 1400/1/6 1401/1/6 1415/1/6
f 1414/2/6 1399/2/6 1415/2/6
f 1399/1/6 1400/1/6 1415/1/6
f 1401/2/6 1402/2/6 1416/2/6
f 1415/1/6 1401/1/6 1416/1/6
f 1402/2/6 1403/2/6 1416/2/6
f 1404/2/6 1405/2/6 1416/2/6
f 1403/2/6 1404/2/6 1416/2/6
f 1416/2/6 1405/2/6 1417/2/6
f 1417/2/6 1405/2/6 1418/2/6
f 1418/2/6 1405/2/6 1419/2/6
f 1406/1/6 1407/1/6 1420/1/6
f 1419/2/6 1405/2/6 1420/2/6
f 1405/1/6 1406/1/6 1420/1/6
f 1420/1/6 1407/1/6 1421/1/6
f 1407/2/6 1408/2/6 1422/2/6
f 1421/1/6 1407/1/6 1422/1/6
f 1422/2/6 1408/2/6 1423/2/6
f 1409/1/6 1410/1/6 1424/1/6
f 1410/2/6 1411/2/6 1424/2/6
f 1424/2/6 1411/2/6 1425/2/6
f 1413/2/6 1414/2/6 1426/2/6
f 1414/1/6 1415/1/6 1426/1/6
f 1412/2/6 1413/2/6 1426/2/6
f 1415/2/6 1416/2/6 1427/2/6
f 1426/1/6 1415/1/6 1427/1/6
f 1416/2/6 1417/2/6 1427/2/6
f 1417/1/6 1418/1/6 1428/1/6
f 1427/2/6 1417/2/6 1428/2/6
f 1418/2/6 1419/2/6 1429/2/6
f 1428/1/6 1418/1/6 1429/1/6
f 1420/1/6 1421/1/6 1430/1/6
f 1419/1/6 1420/1/6 1430/1/6
f 1421/2/6 1422/2/6 1431/2/6
f 1430/1/6 1421/1/6 1431/1/6
f 1431/2/6 1422/2/6 1432/2/6
f 1422/1/6 1423/1/6 1433/1/6
f 1432/2/6 1422/2/6 1433/2/6
f 1383/1/6 1384/1/6 1434/1/6
f 1434/1/6 1384/1/6 1435/1/6
f 1427/2/6 1428/2/6 1436/2/6
f 1426/2/6 1427/2/6 1436/2/6
f 1412/2/6 1426/2/6 1436/2/6
f 1428/2/6 1429/2/6 1436/2/6
f 1429/2/6 1419/2/6 1437/2/6
f 1436/2/6 1429/2/6 1437/2/6
f 1419/1/6 1430/1/6 1437/1/6
f 1431/2/6 1432/2/6 1438/2/6
f 1437/1/6 1430/1/6 1438/1/6
f 1430/2/6 1431/2/6 1438/2/6
f 1432/1/6 1433/1/6 1439/1/6
f 1438/2/6 1432/2/6 1439/2/6
f 1433/1/6 1423/1/6 1440/1/6
f 1439/1/6 1433/1/6 1440/1/6
f 1424/1/6 1425/1/6 1441/1/6
f 1409/1/6 1424/1/6 1441/1/6
f 1441/1/6 1425/1/6 1442/1/6
f 1443/3/6 1444/3/6 1449/3/6
f 1449/3/6 1444/3/6 1450/3/6
f 1445/5/6 1446/5/6 1451/5/6
f 1446/4/6 1447/4/6 1452/4/6
f 1451/5/6 1446/5/6 1452/5/6
f 1447/3/6 1448/3/6 1453/3/6
f 1452/4/6 1447/4/6 1453/4/6
f 1453/3/6 1448/3/6 1454/3/6
f 1443/3/6 1449/3/6 1455/3/6
f 1449/4/6 1450/4/6 1456/4/6
f 1455/3/6 1449/3/6 1456/3/6
f 1450/3/6 1444/3/6 1457/3/6
f 1456/4/6 1450/4/6 1457/4/6
f 1457/3/6 1444/3/6 1458/3/6
f 1455/4/6 1456/4/6 1459/4/6
f 1456/4/6 1457/4/6 1459/4/6
f 1457/5/6 1458/5/6 1460/5/6
f 1459/4/6 1457/4/6 1460/4/6
f 1460/5/6 1458/5/6 1461/5/6
f 1451/3/6 1452/3/6 1462/3/6
f 1452/4/6 1453/4/6 1462/4/6
f 1453/4/6 1454/4/6 1462/4/6
f 1462/4/6 1454/4/6 1463/4/6
f 1459/3/6 1460/3/6 1464/3/6
f 1455/4/6 1459/4/6 1464/4/6
f 1460/4/6 1461/4/6 1465/4/6
f 1464/3/6 1460/3/6 1465/3/6
f 1462/3/6 1463/3/6 1466/3/6
f 1451/3/6 1462/3/6 1466/3/6
f 1466/3/6 1463/3/6 1467/3/6
f 1455/4/6 1464/4/6 1468/4/6
f 1464/5/6 1465/5/6 1469/5/6
f 1468/4/6 1464/4/6 1469/4/6
f 1468/3/6 1469/3/6 1470/3/6
f 1469/5/6 1465/5/6 1470/5/6
f 1465/4/6 1461/4/6 1471/4/6
f 1470/5/6 1465/5/6 1471/5/6
f 1471/4/6 1461/4/6 1472/4/6
f 1467/3/6 1463/3/6 1473/3/6
f 1463/4/6 1454/4/6 1473/4/6
f 1473/4/6 1454/4/6 1474/4/6
f 1471/5/6 1472/5/6 1475/5/6
f 1470/3/6 1471/3/6 1475/3/6
f 1475/5/6 1472/5/6 1476/5/6
f 1468/3/6 1470/3/6 1477/3/6
f 1470/3/6 1475/3/6 1477/3/6
f 1477/3/6 1475/3/6 1478/3/6
f 1473/5/6 1474/5/6 1479/5/6
f 1467/3/6 1473/3/6 1479/3/6
f 1479/5/6 1474/5/6 1480/5/6
f 1477/4/6 1478/4/6 1481/4/6
f 1478/3/6 1475/3/6 1482/3/6
f 1481/4/6 1478/4/6 1482/4/6
f 1475/4/6 1476/4/6 1483/4/6
f 1482/3/6 1475/3/6 1483/3/6
f 1483/4/6 1476/4/6 1484/4/6
f 1466/5/6 1467/5/6 1485/5/6
f 1467/3/6 1479/3/6 1486/3/6
f 1485/5/6 1467/5/6 1486/5/6
f 1479/3/6 1480/3/6 1486/3/6
f 1486/3/6 1480/3/6 1487/3/6
f 1483/3/6 1484/3/6 1488/3/6
f 1482/3/6 1483/3/6 1488/3/6
f 1488/3/6 1484/3/6 1489/3/6
f 1486/4/6 1487/4/6 1490/4/6
f 1490/4/6 1487/4/6 1491/4/6
f 1485/3/6 1486/3/6 1492/3/6
f 1486/4/6 1490/4/6 1493/4/6
f 1492/3/6 1486/3/6 1493/3/6
f 1492/5/6 1493/5/6 1494/5/6
f 1493/4/6 1490/4/6 1495/4/6
f 1494/5/6 1493/5/6 1495/5/6
f 1481/5/6 1482/5/6 1496/5/6
f 1482/3/6 1488/3/6 1497/3/6
f 1496/5/6 1482/5/6 1497/5/6
f 1488/4/6 1489/4/6 1498/4/6
f 1497/3/6 1488/3/6 1498/3/6
f 1495/4/6 1490/4/6 1499/4/6
f 1494/3/6 1495/3/6 1499/3/6
f 1490/3/6 1491/3/6 1500/3/6
f 1499/4/6 1490/4/6 1500/4/6
f 1500/3/6 1491/3/6 1501/3/6
f 1496/4/6 1497/4/6 1502/4/6
f 1497/4/6 1498/4/6 1502/4/6
f 1498/4/6 1489/4/6 1503/4/6
f 1502/4/6 1498/4/6 1503/4/6
f 1494/3/6 1499/3/6 1504/3/6
f 1499/3/6 1500/3/6 1504/3/6
f 1504/3/6 1500/3/6 1505/3/6
f 1496/4/6 1502/4/6 1506/4/6
f 1502/3/6 1503/3/6 1507/3/6
f 1506/4/6 1502/4/6 1507/4/6
f 1506/3/6 1507/3/6 1508/3/6
f 1507/3/6 1503/3/6 1508/3/6
f 1503/4/6 1489/4/6 1509/4/6
f 1508/3/6 1503/3/6 1509/3/6
f 1509/4/6 1489/4/6 1510/4/6
f 1508/4/6 1509/4/6 1511/4/6
f 1509/3/6 1510/3/6 1511/3/6
f 1511/3/6 1510/3/6 1512/3/6
f 1505/3/6 1500/3/6 1513/3/6
f 1500/5/6 1501/5/6 1513/5/6
f 1513/5/6 1501/5/6 1514/5/6
f 1506/3/6 1508/3/6 1515/3/6
f 1511/4/6 1512/4/6 1516/4/6
f 1515/3/6 1508/3/6 1516/3/6
f 1508/4/6 1511/4/6 1516/4/6
f 1516/4/6 1512/4/6 1517/4/6
f 1517/4/6 1512/4/6 1518/4/6
f 1504/4/6 1505/4/6 1519/4/6
f 1505/3/6 1513/3/6 1520/3/6
f 1519/4/6 1505/4/6 1520/4/6
f 1513/4/6 1514/4/6 1521/4/6
f 1520/3/6 1513/3/6 1521/3/6
f 1519/5/6 1520/5/6 1522/5/6
f 1520/4/6 1521/4/6 1522/4/6
f 1521/4/6 1514/4/6 1523/4/6
f 1522/4/6 1521/4/6 1523/4/6
f 1517/5/6 1518/5/6 1524/5/6
f 1516/3/6 1517/3/6 1524/3/6
f 1524/5/6 1518/5/6 1525/5/6
f 1515/4/6 1516/4/6 1526/4/6
f 1516/3/6 1524/3/6 1526/3/6
f 1524/3/6 1525/3/6 1526/3/6
f 1526/3/6 1525/3/6 1527/3/6
f 1519/5/6 1522/5/6 1528/5/6
f 1522/3/6 1523/3/6 1528/3/6
f 1523/4/6 1514/4/6 1529/4/6
f 1528/3/6 1523/3/6 1529/3/6
f 1519/5/6 1528/5/6 1530/5/6
f 1528/4/6 1529/4/6 1531/4/6
f 1530/5/6 1528/5/6 1531/5/6
f 1529/4/6 1514/4/6 1532/4/6
f 1531/4/6 1529/4/6 1532/4/6
f 1532/4/6 1514/4/6 1533/4/6
f 1526/4/6 1527/4/6 1534/4/6
f 1515/4/6 1526/4/6 1534/4/6
f 1534/4/6 1527/4/6 1535/4/6
f 1527/3/6 1525/3/6 1536/3/6
f 1535/4/6 1527/4/6 1536/4/6
f 1536/3/6 1525/3/6 1537/3/6
f 1530/3/6 1531/3/6 1538/3/6
f 1531/4/6 1532/4/6 1538/4/6
f 1532/3/6 1533/3/6 1539/3/6
f 1538/4/6 1532/4/6 1539/4/6
f 1530/3/6 1538/3/6 1540/3/6
f 1538/5/6 1539/5/6 1540/5/6
f 1539/3/6 1533/3/6 1541/3/6
f 1540/5/6 1539/5/6 1541/5/6
f 1536/4/6 1537/4/6 1542/4/6
f 1535/4/6 1536/4/6 1542/4/6
f 1542/4/6 1537/4/6 1543/4/6
f 1534/3/6 1535/3/6 1544/3/6
f 1535/4/6 1542/4/6 1544/4/6
f 1542/5/6 1543/5/6 1545/5/6
f 1544/4/6 1542/4/6 1545/4/6
f 1545/5/6 1543/5/6 1546/5/6
f 1530/3/6 1540/3/6 1547/3/6
f 1540/4/6 1541/4/6 1548/4/6
f 1547/3/6 1540/3/6 1548/3/6
f 1544/3/6 1545/3/6 1549/3/6
f 1534/3/6 1544/3/6 1549/3/6
f 1549/3/6 1545/3/6 1550/3/6
f 1547/4/6 1548/4/6 1551/4/6
f 1548/4/6 1541/4/6 1552/4/6
f 1551/4/6 1548/4/6 1552/4/6
f 1541/3/6 1533/3/6 1553/3/6
f 1552/4/6 1541/4/6 1553/4/6
f 1553/3/6 1533/3/6 1554/3/6
f 1552/5/6 1553/5/6 1555/5/6
f 1553/5/6 1554/5/6 1555/5/6
f 1555/5/6 1554/5/6 1556/5/6
f 1552/5/6 1555/5/6 1557/5/6
f 1555/3/6 1556/3/6 1557/3/6
f 1557/3/6 1556/3/6 1558/3/6
f 1545/4/6 1546/4/6 1559/4/6
f 1550/3/6 1545/3/6 1559/3/6
f 1559/4/6 1546/4/6 1560/4/6
f 1551/3/6 1552/3/6 1561/3/6
f 1557/5/6 1558/5/6 1561/5/6
f 1552/5/6 1557/5/6 1561/5/6
f 1561/5/6 1558/5/6 1562/5/6
f 1549/5/6 1550/5/6 1563/5/6
f 1550/3/6 1559/3/6 1564/3/6
f 1563/5/6 1550/5/6 1564/5/6
f 1559/5/6 1560/5/6 1565/5/6
f 1564/3/6 1559/3/6 1565/3/6
f 1565/5/6 1560/5/6 1566/5/6
f 1551/3/6 1561/3/6 1567/3/6
f 1561/3/6 1562/3/6 1567/3/6
f 1567/3/6 1562/3/6 1568/3/6
f 1563/4/6 1564/4/6 1569/4/6
f 1565/3/6 1566/3/6 1569/3/6
f 1564/3/6 1565/3/6 1569/3/6
f 1569/3/6 1566/3/6 1570/3/6
f 1568/3/6 1562/3/6 1571/3/6
f 1562/5/6 1558/5/6 1571/5/6
f 1571/5/6 1558/5/6 1572/5/6
f 1569/4/6 1570/4/6 1573/4/6
f 1563/4/6 1569/4/6 1573/4/6
f 1573/4/6 1570/4/6 1574/4/6
f 1570/3/6 1566/3/6 1575/3/6
f 1574/4/6 1570/4/6 1575/4/6
f 1575/3/6 1566/3/6 1576/3/6
f 1567/4/6 1568/4/6 1577/4/6
f 1568/3/6 1571/3/6 1578/3/6
f 1577/4/6 1568/4/6 1578/4/6
f 1571/4/6 1572/4/6 1579/4/6
f 1578/3/6 1571/3/6 1579/3/6
f 1579/4/6 1572/4/6 1580/4/6
f 1573/3/6 1574/3/6 1581/3/6
f 1575/4/6 1576/4/6 1582/4/6
f 1581/3/6 1574/3/6 1582/3/6
f 1574/4/6 1575/4/6 1582/4/6
f 1579/5/6 1580/5/6 1583/5/6
f 1578/3/6 1579/3/6 1583/3/6
f 1583/5/6 1580/5/6 1584/5/6
f 1581/4/6 1582/4/6 1585/4/6
f 1582/4/6 1576/4/6 1586/4/6
f 1585/4/6 1582/4/6 1586/4/6
f 1577/5/6 1578/5/6 1587/5/6
f 1578/3/6 1583/3/6 1587/3/6
f 1583/3/6 1584/3/6 1587/3/6
f 1587/3/6 1584/3/6 1588/3/6
f 1585/5/6 1586/5/6 1589/5/6
f 1586/4/6 1576/4/6 1590/4/6
f 1589/5/6 1586/5/6 1590/5/6
f 1590/4/6 1576/4/6 1591/4/6
f 1588/3/6 1584/3/6 1592/3/6
f 1587/4/6 1588/4/6 1592/4/6
f 1592/3/6 1584/3/6 1593/3/6
f 1577/5/6 1587/5/6 1594/5/6
f 1587/4/6 1592/4/6 1594/4/6
f 1592/4/6 1593/4/6 1594/4/6
f 1594/4/6 1593/4/6 1595/4/6
f 1585/5/6 1589/5/6 1596/5/6
f 1589/4/6 1590/4/6 1597/4/6
f 1596/5/6 1589/5/6 1597/5/6
f 1590/3/6 1591/3/6 1598/3/6
f 1597/4/6 1590/4/6 1598/4/6
f 1598/3/6 1591/3/6 1599/3/6
f 1595/4/6 1593/4/6 1600/4/6
f 1594/3/6 1595/3/6 1600/3/6
f 1600/4/6 1593/4/6 1601/4/6
f 1598/5/6 1599/5/6 1602/5/6
f 1597/4/6 1598/4/6 1602/4/6
f 1602/5/6 1599/5/6 1603/5/6
f 1577/5/6 1594/5/6 1604/5/6
f 1600/3/6 1601/3/6 1605/3/6
f 1604/5/6 1594/5/6 1605/5/6
f 1594/3/6 1600/3/6 1605/3/6
f 1605/3/6 1601/3/6 1606/3/6
f 1606/3/6 1601/3/6 1607/3/6
f 1596/3/6 1597/3/6 1608/3/6
f 1602/4/6 1603/4/6 1608/4/6
f 1597/4/6 1602/4/6 1608/4/6
f 1608/4/6 1603/4/6 1609/4/6
f 1609/4/6 1603/4/6 1610/4/6
f 1605/3/6 1606/3/6 1611/3/6
f 1604/3/6 1605/3/6 1611/3/6
f 1611/3/6 1606/3/6 1612/3/6
f 1606/5/6 1607/5/6 1613/5/6
f 1612/3/6 1606/3/6 1613/3/6
f 1613/5/6 1607/5/6 1614/5/6
f 1608/3/6 1609/3/6 1615/3/6
f 1596/3/6 1608/3/6 1615/3/6
f 1609/5/6 1610/5/6 1616/5/6
f 1615/3/6 1609/3/6 1616/3/6
f 1616/5/6 1610/5/6 1617/5/6
f 1611/4/6 1612/4/6 1618/4/6
f 1612/5/6 1613/5/6 1619/5/6
f 1618/4/6 1612/4/6 1619/4/6
f 1613/3/6 1614/3/6 1620/3/6
f 1619/5/6 1613/5/6 1620/5/6
f 1620/3/6 1614/3/6 1621/3/6
