# MagicaVoxel @ Ephtracy

# group
o 

# material
mtllib rope_pile.mtl
usemtl palette

# normals
vn -1 0 0
vn 1 0 0
vn 0 0 1
vn 0 0 -1
vn 0 -1 0
vn 0 1 0

# texcoords
vt 0.896484 0.5
vt 0.904297 0.5
vt 0.927734 0.5
vt 0.931641 0.5
vt 0.935547 0.5

# verts
v -0.8 0.1 0.1
v -0.8 0.1 -0.1
v -0.8 0.1 -0.2
v -0.8 0.2 0.1
v -0.8 0.2 0
v -0.8 0.2 -0.1
v -0.8 0.2 -0.2
v -0.8 0.3 0
v -0.8 0.3 -0.1
v -0.8 0.3 -0.2
v -0.7 0.1 0.2
v -0.7 0.1 0.1
v -0.7 0.1 -0.2
v -0.7 0.1 -0.3
v -0.7 0.2 0.2
v -0.7 0.2 0.1
v -0.7 0.2 0
v -0.7 0.2 -0.2
v -0.7 0.2 -0.3
v -0.7 0.3 0.1
v -0.7 0.3 0
v -0.7 0.3 -0.2
v -0.7 0.3 -0.3
v -0.6 0.1 0.3
v -0.6 0.1 0.2
v -0.6 0.1 -0.3
v -0.6 0.1 -0.4
v -0.6 0.2 0.3
v -0.6 0.2 0.2
v -0.6 0.2 0.1
v -0.6 0.2 0
v -0.6 0.2 -0.1
v -0.6 0.2 -0.2
v -0.6 0.2 -0.3
v -0.6 0.2 -0.4
v -0.6 0.3 0.2
v -0.6 0.3 0.1
v -0.6 0.3 0
v -0.6 0.3 -0.1
v -0.6 0.3 -0.2
v -0.6 0.3 -0.3
v -0.6 0.3 -0.4
v -0.6 0.4 0
v -0.6 0.4 -0.1
v -0.6 0.4 -0.2
v -0.5 0.2 0.1
v -0.5 0.2 0
v -0.5 0.2 -0.2
v -0.5 0.2 -0.3
v -0.5 0.3 0.1
v -0.5 0.3 0
v -0.5 0.3 -0.2
v -0.5 0.3 -0.3
v -0.5 0.4 0.1
v -0.5 0.4 0
v -0.5 0.4 -0.2
v -0.5 0.4 -0.3
v -0.4 0.1 0.4
v -0.4 0.1 0.3
v -0.4 0.1 -0.4
v -0.4 0.1 -0.5
v -0.4 0.2 0.4
v -0.4 0.2 0.3
v -0.4 0.2 0.2
v -0.4 0.2 -0.4
v -0.4 0.2 -0.5
v -0.4 0.3 0.3
v -0.4 0.3 0.2
v -0.4 0.3 0.1
v -0.4 0.3 -0.3
v -0.4 0.3 -0.4
v -0.4 0.3 -0.5
v -0.4 0.4 0.2
v -0.4 0.4 0.1
v -0.4 0.4 -0.3
v -0.4 0.4 -0.4
v -0.3 0.1 0.5
v -0.3 0.1 0.4
v -0.3 0.2 0.5
v -0.3 0.2 0.4
v -0.3 0.2 0.3
v -0.3 0.2 -0.3
v -0.3 0.2 -0.4
v -0.3 0.3 0.4
v -0.3 0.3 0.3
v -0.3 0.3 0.2
v -0.3 0.3 -0.3
v -0.3 0.3 -0.4
v -0.3 0.4 0.3
v -0.3 0.4 0.2
v -0.1 0.1 0.2
v -0.1 0.1 0.1
v -0.1 0.1 -0.3
v -0.1 0.1 -0.4
v -0.1 0.2 0.2
v -0.1 0.2 0.1
v -0.1 0.2 -0.3
v -0.1 0.2 -0.4
v 0.3 0.2 0.2
v 0.3 0.2 0.1
v 0.3 0.3 0.2
v 0.3 0.3 0.1
v 0.4 0.1 -0.1
v 0.4 0.1 -0.2
v 0.4 0.2 -0.1
v 0.4 0.2 -0.2
v 0.4 0.2 -0.3
v 0.4 0.3 -0.2
v 0.4 0.3 -0.3
v 0.5 0.1 0.1
v 0.5 0.1 0
v 0.5 0.1 -0.1
v 0.5 0.1 -0.3
v 0.5 0.1 -0.4
v 0.5 0.2 0.3
v 0.5 0.2 0.2
v 0.5 0.2 0.1
v 0.5 0.2 0
v 0.5 0.2 -0.1
v 0.5 0.2 -0.2
v 0.5 0.2 -0.3
v 0.5 0.2 -0.4
v 0.5 0.3 0.3
v 0.5 0.3 0.2
v 0.5 0.3 0.1
v 0.5 0.3 0
v 0.5 0.3 -0.1
v 0.5 0.3 -0.2
v 0.5 0.3 -0.3
v 0.5 0.3 -0.4
v 0.6 0.1 -0.2
v 0.6 0.1 -0.3
v 0.6 0.2 -0.2
v 0.6 0.2 -0.3
v 0.6 0.3 -0.2
v 0.6 0.3 -0.3
v 0.7 0.1 0.2
v 0.7 0.1 0.1
v 0.7 0.2 0.2
v 0.7 0.2 0.1
v 0.7 0.3 0.2
v 0.7 0.3 0.1
v 0.9 0.1 0.1
v 0.9 0.1 0
v 0.9 0.1 -0.1
v 0.9 0.1 -0.2
v 0.9 0.2 0.1
v 0.9 0.2 0
v 0.9 0.2 -0.1
v 0.9 0.2 -0.2
v 0.9 0.3 0.1
v 0.9 0.3 0
v 0.9 0.3 -0.1
v 0.9 0.3 -0.2
v -0.7 0.2 0
v -0.7 0.2 -0.1
v -0.7 0.2 -0.2
v -0.7 0.3 0
v -0.7 0.3 -0.1
v -0.7 0.3 -0.2
v -0.6 0.2 0.1
v -0.6 0.2 0
v -0.6 0.2 -0.2
v -0.6 0.2 -0.3
v -0.6 0.3 0.1
v -0.6 0.3 0
v -0.6 0.3 -0.2
v -0.6 0.3 -0.3
v -0.5 0.1 0
v -0.5 0.1 -0.1
v -0.5 0.1 -0.2
v -0.5 0.2 0
v -0.5 0.2 -0.1
v -0.5 0.2 -0.2
v -0.5 0.3 0
v -0.5 0.3 -0.1
v -0.5 0.3 -0.2
v -0.5 0.4 0
v -0.5 0.4 -0.1
v -0.5 0.4 -0.2
v -0.4 0.1 0.1
v -0.4 0.1 0
v -0.4 0.1 -0.3
v -0.4 0.1 -0.4
v -0.4 0.2 0.1
v -0.4 0.2 0
v -0.4 0.2 -0.3
v -0.4 0.2 -0.4
v -0.4 0.3 0.1
v -0.4 0.3 0
v -0.4 0.3 -0.2
v -0.4 0.3 -0.3
v -0.4 0.3 -0.4
v -0.4 0.4 0.1
v -0.4 0.4 0
v -0.4 0.4 -0.2
v -0.4 0.4 -0.3
v -0.3 0.1 0.2
v -0.3 0.1 0.1
v -0.3 0.2 0.2
v -0.3 0.2 0.1
v -0.3 0.3 0.2
v -0.3 0.3 0.1
v -0.3 0.4 0.2
v -0.3 0.4 0.1
v -0.2 0.2 -0.2
v -0.2 0.2 -0.3
v -0.2 0.3 -0.2
v -0.2 0.3 -0.3
v 0.3 0.2 0.3
v 0.3 0.2 0.2
v 0.3 0.3 0.3
v 0.3 0.3 0.2
v 0.3 0.4 0.3
v 0.3 0.4 0.2
v 0.4 0.1 0.5
v 0.4 0.1 0.4
v 0.4 0.1 -0.3
v 0.4 0.1 -0.4
v 0.4 0.2 0.5
v 0.4 0.2 0.4
v 0.4 0.2 -0.3
v 0.4 0.2 -0.4
v 0.4 0.3 -0.3
v 0.4 0.3 -0.4
v 0.4 0.4 -0.3
v 0.4 0.4 -0.4
v 0.5 0.1 -0.2
v 0.5 0.1 -0.3
v 0.5 0.1 -0.4
v 0.5 0.1 -0.5
v 0.5 0.2 0.4
v 0.5 0.2 0.3
v 0.5 0.2 0.2
v 0.5 0.2 0.1
v 0.5 0.2 -0.2
v 0.5 0.2 -0.3
v 0.5 0.2 -0.4
v 0.5 0.2 -0.5
v 0.5 0.3 0.4
v 0.5 0.3 0.3
v 0.5 0.3 0.2
v 0.5 0.3 0.1
v 0.5 0.3 -0.2
v 0.5 0.3 -0.3
v 0.5 0.3 -0.4
v 0.5 0.3 -0.5
v 0.6 0.1 0.2
v 0.6 0.1 0.1
v 0.6 0.1 -0.3
v 0.6 0.1 -0.4
v 0.6 0.2 0.2
v 0.6 0.2 0.1
v 0.6 0.2 0
v 0.6 0.2 -0.1
v 0.6 0.2 -0.2
v 0.6 0.2 -0.3
v 0.6 0.2 -0.4
v 0.6 0.3 0.1
v 0.6 0.3 0
v 0.6 0.3 -0.1
v 0.6 0.3 -0.2
v 0.6 0.3 -0.3
v 0.6 0.3 -0.4
v 0.7 0.1 0.4
v 0.7 0.1 0.3
v 0.7 0.1 0.1
v 0.7 0.1 0
v 0.7 0.1 -0.1
v 0.7 0.1 -0.2
v 0.7 0.2 0.4
v 0.7 0.2 0.3
v 0.7 0.2 0.2
v 0.7 0.2 0.1
v 0.7 0.2 0
v 0.7 0.2 -0.1
v 0.7 0.2 -0.2
v 0.7 0.3 0.3
v 0.7 0.3 0.2
v 0.9 0.1 0.3
v 0.9 0.1 0.2
v 0.9 0.1 -0.2
v 0.9 0.1 -0.3
v 0.9 0.2 0.3
v 0.9 0.2 0.2
v 0.9 0.2 0.1
v 0.9 0.2 -0.2
v 0.9 0.2 -0.3
v 0.9 0.3 0.2
v 0.9 0.3 0.1
v 0.9 0.3 -0.2
v 0.9 0.3 -0.3
v 1 0.1 0.2
v 1 0.1 0.1
v 1 0.1 0
v 1 0.1 -0.1
v 1 0.1 -0.2
v 1 0.2 0.2
v 1 0.2 0.1
v 1 0.2 0
v 1 0.2 -0.1
v 1 0.2 -0.2
v 1 0.3 0.1
v 1 0.3 0
v 1 0.3 -0.1
v 1 0.3 -0.2
v -0.3 0.1 0.5
v -0.3 0.2 0.5
v -0.2 0.1 0.5
v -0.2 0.2 0.5
v -0.1 0.1 0.5
v -0.1 0.2 0.5
v 0 0.1 0.5
v 0 0.2 0.5
v 0.1 0.1 0.5
v 0.1 0.2 0.5
v 0.3 0.1 0.5
v 0.3 0.2 0.5
v 0.4 0.1 0.5
v 0.4 0.2 0.5
v -0.4 0.1 0.4
v -0.4 0.2 0.4
v -0.3 0.1 0.4
v -0.3 0.2 0.4
v -0.3 0.3 0.4
v -0.2 0.2 0.4
v -0.1 0.2 0.4
v -0.1 0.3 0.4
v 0 0.2 0.4
v 0.1 0.2 0.4
v 0.1 0.3 0.4
v 0.3 0.2 0.4
v 0.3 0.3 0.4
v 0.4 0.1 0.4
v 0.4 0.2 0.4
v 0.5 0.1 0.4
v 0.5 0.2 0.4
v 0.5 0.3 0.4
v 0.6 0.1 0.4
v 0.6 0.2 0.4
v 0.7 0.1 0.4
v 0.7 0.2 0.4
v -0.6 0.1 0.3
v -0.6 0.2 0.3
v -0.5 0.1 0.3
v -0.5 0.2 0.3
v -0.4 0.1 0.3
v -0.4 0.2 0.3
v -0.4 0.3 0.3
v -0.3 0.2 0.3
v -0.3 0.3 0.3
v -0.3 0.4 0.3
v -0.2 0.3 0.3
v -0.2 0.4 0.3
v -0.1 0.3 0.3
v -0.1 0.4 0.3
v 0 0.3 0.3
v 0 0.4 0.3
v 0.1 0.3 0.3
v 0.1 0.4 0.3
v 0.2 0.3 0.3
v 0.2 0.4 0.3
v 0.3 0.3 0.3
v 0.3 0.4 0.3
v 0.5 0.2 0.3
v 0.5 0.3 0.3
v 0.6 0.2 0.3
v 0.6 0.3 0.3
v 0.7 0.1 0.3
v 0.7 0.2 0.3
v 0.7 0.3 0.3
v 0.8 0.1 0.3
v 0.8 0.2 0.3
v 0.9 0.1 0.3
v 0.9 0.2 0.3
v -0.7 0.1 0.2
v -0.7 0.2 0.2
v -0.6 0.1 0.2
v -0.6 0.2 0.2
v -0.6 0.3 0.2
v -0.5 0.2 0.2
v -0.5 0.3 0.2
v -0.4 0.2 0.2
v -0.4 0.3 0.2
v -0.4 0.4 0.2
v -0.3 0.3 0.2
v -0.3 0.4 0.2
v 0.3 0.2 0.2
v 0.3 0.3 0.2
v 0.4 0.2 0.2
v 0.4 0.3 0.2
v 0.5 0.2 0.2
v 0.5 0.3 0.2
v 0.7 0.2 0.2
v 0.7 0.3 0.2
v 0.8 0.2 0.2
v 0.8 0.3 0.2
v 0.9 0.1 0.2
v 0.9 0.2 0.2
v 0.9 0.3 0.2
v 1 0.1 0.2
v 1 0.2 0.2
v -0.8 0.1 0.1
v -0.8 0.2 0.1
v -0.7 0.1 0.1
v -0.7 0.2 0.1
v -0.7 0.3 0.1
v -0.6 0.2 0.1
v -0.6 0.3 0.1
v -0.5 0.3 0.1
v -0.5 0.4 0.1
v -0.4 0.3 0.1
v -0.4 0.4 0.1
v 0.5 0.2 0.1
v 0.5 0.3 0.1
v 0.6 0.1 0.1
v 0.6 0.2 0.1
v 0.6 0.3 0.1
v 0.7 0.1 0.1
v 0.7 0.2 0.1
v 0.9 0.2 0.1
v 0.9 0.3 0.1
v 1 0.2 0.1
v 1 0.3 0.1
v -0.8 0.2 0
v -0.8 0.3 0
v -0.7 0.2 0
v -0.7 0.3 0
v -0.6 0.2 0
v -0.6 0.3 0
v -0.6 0.4 0
v -0.5 0.2 0
v -0.5 0.3 0
v -0.5 0.4 0
v 0.4 0.1 -0.1
v 0.4 0.2 -0.1
v 0.5 0.1 -0.1
v 0.5 0.2 -0.1
v -0.7 0.2 -0.2
v -0.7 0.3 -0.2
v -0.6 0.2 -0.2
v -0.6 0.3 -0.2
v -0.5 0.1 -0.2
v -0.5 0.2 -0.2
v -0.5 0.3 -0.2
v -0.5 0.4 -0.2
v -0.4 0.1 -0.2
v -0.4 0.2 -0.2
v -0.4 0.3 -0.2
v -0.4 0.4 -0.2
v -0.3 0.1 -0.2
v -0.3 0.2 -0.2
v -0.3 0.3 -0.2
v -0.2 0.1 -0.2
v -0.2 0.2 -0.2
v -0.2 0.3 -0.2
v -0.1 0.1 -0.2
v -0.1 0.2 -0.2
v 0 0.1 -0.2
v 0 0.2 -0.2
v 0.1 0.1 -0.2
v 0.1 0.2 -0.2
v 0.2 0.1 -0.2
v 0.2 0.2 -0.2
v 0.3 0.1 -0.2
v 0.3 0.2 -0.2
v 0.4 0.1 -0.2
v 0.4 0.2 -0.2
v 0.4 0.3 -0.2
v 0.5 0.2 -0.2
v 0.5 0.3 -0.2
v 0.6 0.2 -0.2
v 0.6 0.3 -0.2
v 0.7 0.1 -0.2
v 0.7 0.2 -0.2
v 0.7 0.3 -0.2
v 0.9 0.1 -0.2
v 0.9 0.2 -0.2
v 0.9 0.3 -0.2
v -0.6 0.2 -0.3
v -0.6 0.3 -0.3
v -0.5 0.2 -0.3
v -0.5 0.3 -0.3
v -0.4 0.3 -0.3
v -0.4 0.4 -0.3
v -0.3 0.3 -0.3
v -0.3 0.4 -0.3
v -0.2 0.2 -0.3
v -0.2 0.3 -0.3
v -0.1 0.2 -0.3
v -0.1 0.3 -0.3
v -0.1 0.4 -0.3
v 0 0.2 -0.3
v 0 0.3 -0.3
v 0 0.4 -0.3
v 0.1 0.2 -0.3
v 0.1 0.3 -0.3
v 0.1 0.4 -0.3
v 0.2 0.2 -0.3
v 0.2 0.3 -0.3
v 0.2 0.4 -0.3
v 0.3 0.2 -0.3
v 0.3 0.3 -0.3
v 0.3 0.4 -0.3
v 0.4 0.2 -0.3
v 0.4 0.3 -0.3
v 0.4 0.4 -0.3
v 0.5 0.1 -0.3
v 0.5 0.2 -0.3
v 0.5 0.3 -0.3
v 0.6 0.1 -0.3
v 0.6 0.2 -0.3
v 0.6 0.3 -0.3
v -0.4 0.1 -0.4
v -0.4 0.2 -0.4
v -0.4 0.3 -0.4
v -0.3 0.1 -0.4
v -0.3 0.2 -0.4
v -0.3 0.3 -0.4
v -0.2 0.1 -0.4
v -0.2 0.2 -0.4
v -0.1 0.1 -0.4
v -0.1 0.2 -0.4
v 0.4 0.1 -0.4
v 0.4 0.2 -0.4
v 0.4 0.3 -0.4
v 0.5 0.1 -0.4
v 0.5 0.2 -0.4
v 0.5 0.3 -0.4
v 0.3 0.2 0.3
v 0.3 0.3 0.3
v 0.5 0.2 0.3
v 0.5 0.3 0.3
v -0.3 0.1 0.2
v -0.3 0.2 0.2
v -0.3 0.3 0.2
v -0.3 0.4 0.2
v -0.2 0.1 0.2
v -0.2 0.2 0.2
v -0.2 0.3 0.2
v -0.2 0.4 0.2
v -0.1 0.1 0.2
v -0.1 0.2 0.2
v -0.1 0.3 0.2
v -0.1 0.4 0.2
v 0 0.2 0.2
v 0 0.3 0.2
v 0 0.4 0.2
v 0.1 0.2 0.2
v 0.1 0.3 0.2
v 0.1 0.4 0.2
v 0.2 0.2 0.2
v 0.2 0.3 0.2
v 0.2 0.4 0.2
v 0.3 0.2 0.2
v 0.3 0.3 0.2
v 0.3 0.4 0.2
v 0.5 0.2 0.2
v 0.5 0.3 0.2
v 0.6 0.1 0.2
v 0.6 0.2 0.2
v 0.6 0.3 0.2
v 0.7 0.1 0.2
v 0.7 0.2 0.2
v 0.7 0.3 0.2
v -0.6 0.2 0.1
v -0.6 0.3 0.1
v -0.5 0.2 0.1
v -0.5 0.3 0.1
v -0.4 0.1 0.1
v -0.4 0.2 0.1
v -0.4 0.3 0.1
v -0.4 0.4 0.1
v -0.3 0.1 0.1
v -0.3 0.2 0.1
v -0.3 0.3 0.1
v -0.3 0.4 0.1
v -0.1 0.1 0.1
v -0.1 0.2 0.1
v 0 0.1 0.1
v 0 0.2 0.1
v 0.1 0.1 0.1
v 0.1 0.2 0.1
v 0.2 0.1 0.1
v 0.2 0.2 0.1
v 0.3 0.2 0.1
v 0.3 0.3 0.1
v 0.4 0.1 0.1
v 0.4 0.2 0.1
v 0.4 0.3 0.1
v 0.5 0.1 0.1
v 0.5 0.2 0.1
v 0.5 0.3 0.1
v 0.7 0.1 0.1
v 0.7 0.2 0.1
v 0.7 0.3 0.1
v 0.8 0.1 0.1
v 0.8 0.2 0.1
v 0.8 0.3 0.1
v 0.9 0.1 0.1
v 0.9 0.2 0.1
v 0.9 0.3 0.1
v -0.7 0.2 0
v -0.7 0.3 0
v -0.6 0.2 0
v -0.6 0.3 0
v -0.5 0.1 0
v -0.5 0.2 0
v -0.5 0.3 0
v -0.5 0.4 0
v -0.4 0.1 0
v -0.4 0.2 0
v -0.4 0.3 0
v -0.4 0.4 0
v -0.8 0.1 -0.2
v -0.8 0.2 -0.2
v -0.8 0.3 -0.2
v -0.7 0.1 -0.2
v -0.7 0.2 -0.2
v -0.7 0.3 -0.2
v -0.6 0.2 -0.2
v -0.6 0.3 -0.2
v -0.6 0.4 -0.2
v -0.5 0.2 -0.2
v -0.5 0.3 -0.2
v -0.5 0.4 -0.2
v 0.5 0.1 -0.2
v 0.5 0.2 -0.2
v 0.5 0.3 -0.2
v 0.6 0.1 -0.2
v 0.6 0.2 -0.2
v 0.6 0.3 -0.2
v 0.9 0.1 -0.2
v 0.9 0.2 -0.2
v 0.9 0.3 -0.2
v 1 0.1 -0.2
v 1 0.2 -0.2
v 1 0.3 -0.2
v -0.7 0.1 -0.3
v -0.7 0.2 -0.3
v -0.7 0.3 -0.3
v -0.6 0.1 -0.3
v -0.6 0.2 -0.3
v -0.6 0.3 -0.3
v -0.5 0.3 -0.3
v -0.5 0.4 -0.3
v -0.4 0.1 -0.3
v -0.4 0.2 -0.3
v -0.4 0.3 -0.3
v -0.4 0.4 -0.3
v -0.3 0.1 -0.3
v -0.3 0.2 -0.3
v -0.3 0.3 -0.3
v -0.2 0.1 -0.3
v -0.2 0.2 -0.3
v -0.1 0.1 -0.3
v -0.1 0.2 -0.3
v 0.4 0.1 -0.3
v 0.4 0.2 -0.3
v 0.4 0.3 -0.3
v 0.5 0.1 -0.3
v 0.5 0.2 -0.3
v 0.5 0.3 -0.3
v 0.6 0.1 -0.3
v 0.6 0.2 -0.3
v 0.6 0.3 -0.3
v 0.7 0.1 -0.3
v 0.7 0.2 -0.3
v 0.7 0.3 -0.3
v 0.9 0.1 -0.3
v 0.9 0.2 -0.3
v 0.9 0.3 -0.3
v -0.6 0.1 -0.4
v -0.6 0.2 -0.4
v -0.6 0.3 -0.4
v -0.5 0.1 -0.4
v -0.5 0.2 -0.4
v -0.5 0.3 -0.4
v -0.4 0.1 -0.4
v -0.4 0.2 -0.4
v -0.4 0.3 -0.4
v -0.4 0.4 -0.4
v -0.3 0.3 -0.4
v -0.3 0.4 -0.4
v -0.2 0.3 -0.4
v -0.1 0.3 -0.4
v -0.1 0.4 -0.4
v 0 0.3 -0.4
v 0 0.4 -0.4
v 0.1 0.3 -0.4
v 0.1 0.4 -0.4
v 0.2 0.3 -0.4
v 0.2 0.4 -0.4
v 0.3 0.3 -0.4
v 0.3 0.4 -0.4
v 0.4 0.3 -0.4
v 0.4 0.4 -0.4
v 0.5 0.1 -0.4
v 0.5 0.2 -0.4
v 0.5 0.3 -0.4
v 0.6 0.1 -0.4
v 0.6 0.2 -0.4
v 0.6 0.3 -0.4
v -0.4 0.1 -0.5
v -0.4 0.2 -0.5
v -0.4 0.3 -0.5
v -0.3 0.1 -0.5
v -0.3 0.2 -0.5
v -0.3 0.3 -0.5
v -0.2 0.1 -0.5
v -0.2 0.2 -0.5
v -0.2 0.3 -0.5
v 0 0.1 -0.5
v 0 0.2 -0.5
v 0 0.3 -0.5
v 0.2 0.1 -0.5
v 0.2 0.2 -0.5
v 0.2 0.3 -0.5
v 0.4 0.1 -0.5
v 0.4 0.2 -0.5
v 0.4 0.3 -0.5
v 0.5 0.1 -0.5
v 0.5 0.2 -0.5
v 0.5 0.3 -0.5
v -0.3 0.1 0.5
v -0.2 0.1 0.5
v -0.1 0.1 0.5
v 0 0.1 0.5
v 0.1 0.1 0.5
v 0.3 0.1 0.5
v 0.4 0.1 0.5
v -0.4 0.1 0.4
v -0.3 0.1 0.4
v -0.2 0.1 0.4
v -0.1 0.1 0.4
v 0 0.1 0.4
v 0.4 0.1 0.4
v 0.5 0.1 0.4
v 0.6 0.1 0.4
v 0.7 0.1 0.4
v -0.6 0.1 0.3
v -0.5 0.1 0.3
v -0.4 0.1 0.3
v -0.3 0.1 0.3
v -0.2 0.1 0.3
v -0.1 0.1 0.3
v 0 0.1 0.3
v 0.1 0.1 0.3
v 0.2 0.1 0.3
v 0.3 0.1 0.3
v 0.5 0.1 0.3
v 0.6 0.1 0.3
v 0.7 0.1 0.3
v 0.8 0.1 0.3
v 0.9 0.1 0.3
v -0.7 0.1 0.2
v -0.6 0.1 0.2
v -0.4 0.1 0.2
v -0.3 0.1 0.2
v -0.2 0.1 0.2
v -0.1 0.1 0.2
v 0.4 0.1 0.2
v 0.5 0.1 0.2
v 0.6 0.1 0.2
v 0.7 0.1 0.2
v 0.8 0.1 0.2
v 0.9 0.1 0.2
v 1 0.1 0.2
v -0.8 0.1 0.1
v -0.7 0.1 0.1
v -0.6 0.1 0.1
v -0.5 0.1 0.1
v -0.4 0.1 0.1
v -0.3 0.1 0.1
v -0.1 0.1 0.1
v 0 0.1 0.1
v 0.1 0.1 0.1
v 0.2 0.1 0.1
v 0.4 0.1 0.1
v 0.5 0.1 0.1
v 0.6 0.1 0.1
v 0.7 0.1 0.1
v 0.8 0.1 0.1
v 0.9 0.1 0.1
v 1 0.1 0.1
v -0.7 0.1 0
v -0.6 0.1 0
v -0.5 0.1 0
v -0.4 0.1 0
v 0.5 0.1 0
v 0.6 0.1 0
v 0.7 0.1 0
v 0.9 0.1 0
v 1 0.1 0
v -0.8 0.1 -0.1
v -0.7 0.1 -0.1
v -0.6 0.1 -0.1
v -0.5 0.1 -0.1
v 0.4 0.1 -0.1
v 0.5 0.1 -0.1
v 0.6 0.1 -0.1
v 0.7 0.1 -0.1
v 0.9 0.1 -0.1
v 1 0.1 -0.1
v -0.8 0.1 -0.2
v -0.7 0.1 -0.2
v -0.6 0.1 -0.2
v -0.5 0.1 -0.2
v -0.4 0.1 -0.2
v -0.3 0.1 -0.2
v -0.2 0.1 -0.2
v -0.1 0.1 -0.2
v 0 0.1 -0.2
v 0.1 0.1 -0.2
v 0.2 0.1 -0.2
v 0.3 0.1 -0.2
v 0.4 0.1 -0.2
v 0.5 0.1 -0.2
v 0.6 0.1 -0.2
v 0.7 0.1 -0.2
v 0.9 0.1 -0.2
v 1 0.1 -0.2
v -0.7 0.1 -0.3
v -0.6 0.1 -0.3
v -0.5 0.1 -0.3
v -0.4 0.1 -0.3
v -0.3 0.1 -0.3
v -0.2 0.1 -0.3
v -0.1 0.1 -0.3
v 0 0.1 -0.3
v 0.1 0.1 -0.3
v 0.2 0.1 -0.3
v 0.3 0.1 -0.3
v 0.4 0.1 -0.3
v 0.5 0.1 -0.3
v 0.6 0.1 -0.3
v 0.7 0.1 -0.3
v 0.9 0.1 -0.3
v -0.6 0.1 -0.4
v -0.5 0.1 -0.4
v -0.4 0.1 -0.4
v -0.3 0.1 -0.4
v -0.2 0.1 -0.4
v -0.1 0.1 -0.4
v 0 0.1 -0.4
v 0.1 0.1 -0.4
v 0.2 0.1 -0.4
v 0.3 0.1 -0.4
v 0.4 0.1 -0.4
v 0.5 0.1 -0.4
v 0.6 0.1 -0.4
v -0.4 0.1 -0.5
v -0.3 0.1 -0.5
v -0.2 0.1 -0.5
v 0 0.1 -0.5
v 0.2 0.1 -0.5
v 0.4 0.1 -0.5
v 0.5 0.1 -0.5
v -0.3 0.2 -0.3
v -0.2 0.2 -0.3
v -0.1 0.2 -0.3
v -0.3 0.2 -0.4
v -0.2 0.2 -0.4
v -0.1 0.2 -0.4
v -0.4 0.3 -0.3
v -0.3 0.3 -0.3
v -0.4 0.3 -0.4
v -0.3 0.3 -0.4
v -0.3 0.2 0.5
v -0.2 0.2 0.5
v -0.1 0.2 0.5
v 0 0.2 0.5
v 0.1 0.2 0.5
v 0.3 0.2 0.5
v 0.4 0.2 0.5
v -0.4 0.2 0.4
v -0.3 0.2 0.4
v -0.2 0.2 0.4
v -0.1 0.2 0.4
v 0 0.2 0.4
v 0.1 0.2 0.4
v 0.3 0.2 0.4
v 0.4 0.2 0.4
v 0.5 0.2 0.4
v 0.6 0.2 0.4
v 0.7 0.2 0.4
v -0.6 0.2 0.3
v -0.5 0.2 0.3
v -0.4 0.2 0.3
v -0.3 0.2 0.3
v 0.3 0.2 0.3
v 0.5 0.2 0.3
v 0.6 0.2 0.3
v 0.7 0.2 0.3
v 0.8 0.2 0.3
v 0.9 0.2 0.3
v -0.7 0.2 0.2
v -0.6 0.2 0.2
v -0.5 0.2 0.2
v -0.4 0.2 0.2
v -0.1 0.2 0.2
v 0 0.2 0.2
v 0.1 0.2 0.2
v 0.2 0.2 0.2
v 0.3 0.2 0.2
v 0.4 0.2 0.2
v 0.5 0.2 0.2
v 0.6 0.2 0.2
v 0.7 0.2 0.2
v 0.8 0.2 0.2
v 0.9 0.2 0.2
v 1 0.2 0.2
v -0.8 0.2 0.1
v -0.7 0.2 0.1
v -0.6 0.2 0.1
v -0.5 0.2 0.1
v -0.1 0.2 0.1
v 0 0.2 0.1
v 0.1 0.2 0.1
v 0.2 0.2 0.1
v 0.3 0.2 0.1
v 0.5 0.2 0.1
v 0.6 0.2 0.1
v 0.7 0.2 0.1
v 0.9 0.2 0.1
v 1 0.2 0.1
v -0.8 0.2 0
v -0.7 0.2 0
v -0.6 0.2 0
v -0.5 0.2 0
v 0.6 0.2 0
v 0.7 0.2 0
v -0.7 0.2 -0.1
v -0.6 0.2 -0.1
v 0.4 0.2 -0.1
v 0.5 0.2 -0.1
v 0.6 0.2 -0.1
v 0.7 0.2 -0.1
v -0.7 0.2 -0.2
v -0.6 0.2 -0.2
v -0.5 0.2 -0.2
v -0.2 0.2 -0.2
v -0.1 0.2 -0.2
v 0 0.2 -0.2
v 0.1 0.2 -0.2
v 0.2 0.2 -0.2
v 0.3 0.2 -0.2
v 0.4 0.2 -0.2
v 0.5 0.2 -0.2
v 0.6 0.2 -0.2
v 0.7 0.2 -0.2
v -0.6 0.2 -0.3
v -0.5 0.2 -0.3
v -0.2 0.2 -0.3
v -0.1 0.2 -0.3
v 0 0.2 -0.3
v 0.1 0.2 -0.3
v 0.2 0.2 -0.3
v 0.3 0.2 -0.3
v 0.4 0.2 -0.3
v -0.3 0.3 0.4
v -0.1 0.3 0.4
v 0.1 0.3 0.4
v 0.3 0.3 0.4
v 0.5 0.3 0.4
v -0.4 0.3 0.3
v -0.3 0.3 0.3
v -0.2 0.3 0.3
v -0.1 0.3 0.3
v 0 0.3 0.3
v 0.1 0.3 0.3
v 0.2 0.3 0.3
v 0.3 0.3 0.3
v 0.5 0.3 0.3
v 0.6 0.3 0.3
v 0.7 0.3 0.3
v -0.6 0.3 0.2
v -0.5 0.3 0.2
v -0.4 0.3 0.2
v -0.3 0.3 0.2
v 0.3 0.3 0.2
v 0.4 0.3 0.2
v 0.5 0.3 0.2
v 0.6 0.3 0.2
v 0.7 0.3 0.2
v 0.8 0.3 0.2
v 0.9 0.3 0.2
v -0.7 0.3 0.1
v -0.6 0.3 0.1
v -0.5 0.3 0.1
v -0.4 0.3 0.1
v 0.3 0.3 0.1
v 0.4 0.3 0.1
v 0.5 0.3 0.1
v 0.6 0.3 0.1
v 0.7 0.3 0.1
v 0.8 0.3 0.1
v 0.9 0.3 0.1
v 1 0.3 0.1
v -0.8 0.3 0
v -0.7 0.3 0
v -0.6 0.3 0
v 0.5 0.3 0
v 0.6 0.3 0
v 0.9 0.3 0
v 1 0.3 0
v -0.8 0.3 -0.1
v -0.7 0.3 -0.1
v 0.5 0.3 -0.1
v 0.6 0.3 -0.1
v 0.9 0.3 -0.1
v 1 0.3 -0.1
v -0.8 0.3 -0.2
v -0.7 0.3 -0.2
v -0.6 0.3 -0.2
v -0.4 0.3 -0.2
v -0.3 0.3 -0.2
v -0.2 0.3 -0.2
v 0.4 0.3 -0.2
v 0.5 0.3 -0.2
v 0.6 0.3 -0.2
v 0.7 0.3 -0.2
v 0.9 0.3 -0.2
v 1 0.3 -0.2
v -0.7 0.3 -0.3
v -0.6 0.3 -0.3
v -0.5 0.3 -0.3
v -0.4 0.3 -0.3
v -0.3 0.3 -0.3
v -0.2 0.3 -0.3
v 0.4 0.3 -0.3
v 0.5 0.3 -0.3
v 0.6 0.3 -0.3
v 0.7 0.3 -0.3
v 0.9 0.3 -0.3
v -0.6 0.3 -0.4
v -0.5 0.3 -0.4
v -0.4 0.3 -0.4
v -0.3 0.3 -0.4
v -0.2 0.3 -0.4
v -0.1 0.3 -0.4
v 0 0.3 -0.4
v 0.1 0.3 -0.4
v 0.2 0.3 -0.4
v 0.3 0.3 -0.4
v 0.4 0.3 -0.4
v 0.5 0.3 -0.4
v 0.6 0.3 -0.4
v -0.4 0.3 -0.5
v -0.3 0.3 -0.5
v -0.2 0.3 -0.5
v 0 0.3 -0.5
v 0.2 0.3 -0.5
v 0.4 0.3 -0.5
v 0.5 0.3 -0.5
v -0.3 0.4 0.3
v -0.2 0.4 0.3
v -0.1 0.4 0.3
v 0 0.4 0.3
v 0.1 0.4 0.3
v 0.2 0.4 0.3
v 0.3 0.4 0.3
v -0.4 0.4 0.2
v -0.3 0.4 0.2
v -0.2 0.4 0.2
v -0.1 0.4 0.2
v 0 0.4 0.2
v 0.1 0.4 0.2
v 0.2 0.4 0.2
v 0.3 0.4 0.2
v -0.5 0.4 0.1
v -0.4 0.4 0.1
v -0.3 0.4 0.1
v -0.6 0.4 0
v -0.5 0.4 0
v -0.4 0.4 0
v -0.6 0.4 -0.1
v -0.5 0.4 -0.1
v -0.6 0.4 -0.2
v -0.5 0.4 -0.2
v -0.4 0.4 -0.2
v -0.5 0.4 -0.3
v -0.4 0.4 -0.3
v -0.3 0.4 -0.3
v -0.1 0.4 -0.3
v 0 0.4 -0.3
v 0.1 0.4 -0.3
v 0.2 0.4 -0.3
v 0.3 0.4 -0.3
v 0.4 0.4 -0.3
v -0.4 0.4 -0.4
v -0.3 0.4 -0.4
v -0.1 0.4 -0.4
v 0 0.4 -0.4
v 0.1 0.4 -0.4
v 0.2 0.4 -0.4
v 0.3 0.4 -0.4
v 0.4 0.4 -0.4

# faces
f 4/3/1 2/3/1 1/3/1
f 5/3/1 2/3/1 4/3/1
f 6/1/1 3/1/1 2/1/1
f 6/3/1 2/3/1 5/3/1
f 7/1/1 3/1/1 6/1/1
f 8/1/1 6/1/1 5/1/1
f 9/3/1 7/3/1 6/3/1
f 9/1/1 6/1/1 8/1/1
f 10/3/1 7/3/1 9/3/1
f 15/1/1 12/1/1 11/1/1
f 16/1/1 12/1/1 15/1/1
f 18/3/1 14/3/1 13/3/1
f 19/3/1 14/3/1 18/3/1
f 20/3/1 17/3/1 16/3/1
f 21/3/1 17/3/1 20/3/1
f 22/1/1 19/1/1 18/1/1
f 23/1/1 19/1/1 22/1/1
f 28/3/1 25/3/1 24/3/1
f 29/3/1 25/3/1 28/3/1
f 34/3/1 27/3/1 26/3/1
f 35/3/1 27/3/1 34/3/1
f 36/1/1 30/1/1 29/1/1
f 37/1/1 30/1/1 36/1/1
f 38/5/1 32/5/1 31/5/1
f 39/2/1 33/2/1 32/2/1
f 39/5/1 32/5/1 38/5/1
f 40/2/1 33/2/1 39/2/1
f 41/1/1 35/1/1 34/1/1
f 42/1/1 35/1/1 41/1/1
f 43/2/1 39/2/1 38/2/1
f 44/5/1 40/5/1 39/5/1
f 44/2/1 39/2/1 43/2/1
f 45/5/1 40/5/1 44/5/1
f 50/2/1 47/2/1 46/2/1
f 51/2/1 47/2/1 50/2/1
f 52/5/1 49/5/1 48/5/1
f 53/5/1 49/5/1 52/5/1
f 54/5/1 51/5/1 50/5/1
f 55/5/1 51/5/1 54/5/1
f 56/2/1 53/2/1 52/2/1
f 57/2/1 53/2/1 56/2/1
f 62/1/1 59/1/1 58/1/1
f 63/1/1 59/1/1 62/1/1
f 65/3/1 61/3/1 60/3/1
f 66/3/1 61/3/1 65/3/1
f 67/3/1 64/3/1 63/3/1
f 68/3/1 64/3/1 67/3/1
f 71/1/1 66/1/1 65/1/1
f 72/1/1 66/1/1 71/1/1
f 73/2/1 69/2/1 68/2/1
f 74/2/1 69/2/1 73/2/1
f 75/5/1 71/5/1 70/5/1
f 76/5/1 71/5/1 75/5/1
f 79/3/1 78/3/1 77/3/1
f 80/3/1 78/3/1 79/3/1
f 84/1/1 81/1/1 80/1/1
f 85/1/1 81/1/1 84/1/1
f 87/5/1 83/5/1 82/5/1
f 88/5/1 83/5/1 87/5/1
f 89/2/1 86/2/1 85/2/1
f 90/2/1 86/2/1 89/2/1
f 95/2/1 92/2/1 91/2/1
f 96/2/1 92/2/1 95/2/1
f 97/5/1 94/5/1 93/5/1
f 98/5/1 94/5/1 97/5/1
f 101/2/1 100/2/1 99/2/1
f 102/2/1 100/2/1 101/2/1
f 105/2/1 104/2/1 103/2/1
f 106/2/1 104/2/1 105/2/1
f 108/5/1 107/5/1 106/5/1
f 109/5/1 107/5/1 108/5/1
f 117/5/1 111/5/1 110/5/1
f 118/2/1 112/2/1 111/2/1
f 118/5/1 111/5/1 117/5/1
f 119/2/1 112/2/1 118/2/1
f 121/1/1 114/1/1 113/1/1
f 122/1/1 114/1/1 121/1/1
f 123/3/1 116/3/1 115/3/1
f 124/3/1 116/3/1 123/3/1
f 125/2/1 118/2/1 117/2/1
f 126/5/1 119/5/1 118/5/1
f 126/2/1 118/2/1 125/2/1
f 127/2/1 120/2/1 119/2/1
f 127/5/1 119/5/1 126/5/1
f 128/2/1 120/2/1 127/2/1
f 129/3/1 122/3/1 121/3/1
f 130/3/1 122/3/1 129/3/1
f 133/1/1 132/1/1 131/1/1
f 134/1/1 132/1/1 133/1/1
f 135/3/1 134/3/1 133/3/1
f 136/3/1 134/3/1 135/3/1
f 139/3/1 138/3/1 137/3/1
f 140/3/1 138/3/1 139/3/1
f 141/1/1 140/1/1 139/1/1
f 142/1/1 140/1/1 141/1/1
f 147/1/1 144/1/1 143/1/1
f 148/3/1 145/3/1 144/3/1
f 148/1/1 144/1/1 147/1/1
f 149/1/1 146/1/1 145/1/1
f 149/3/1 145/3/1 148/3/1
f 150/1/1 146/1/1 149/1/1
f 151/3/1 148/3/1 147/3/1
f 152/1/1 149/1/1 148/1/1
f 152/3/1 148/3/1 151/3/1
f 153/3/1 150/3/1 149/3/1
f 153/1/1 149/1/1 152/1/1
f 154/3/1 150/3/1 153/3/1
f 155/1/2 156/1/2 158/1/2
f 156/3/2 157/3/2 159/3/2
f 158/1/2 156/1/2 159/1/2
f 159/3/2 157/3/2 160/3/2
f 161/3/2 162/3/2 165/3/2
f 165/3/2 162/3/2 166/3/2
f 163/1/2 164/1/2 167/1/2
f 167/1/2 164/1/2 168/1/2
f 169/2/2 170/2/2 172/2/2
f 170/5/2 171/5/2 173/5/2
f 172/2/2 170/2/2 173/2/2
f 173/5/2 171/5/2 174/5/2
f 172/5/2 173/5/2 175/5/2
f 173/2/2 174/2/2 176/2/2
f 175/5/2 173/5/2 176/5/2
f 176/2/2 174/2/2 177/2/2
f 175/2/2 176/2/2 178/2/2
f 176/5/2 177/5/2 179/5/2
f 178/2/2 176/2/2 179/2/2
f 179/5/2 177/5/2 180/5/2
f 181/5/2 182/5/2 185/5/2
f 185/5/2 182/5/2 186/5/2
f 183/1/2 184/1/2 187/1/2
f 187/1/2 184/1/2 188/1/2
f 185/2/2 186/2/2 189/2/2
f 189/2/2 186/2/2 190/2/2
f 187/3/2 188/3/2 192/3/2
f 192/3/2 188/3/2 193/3/2
f 189/5/2 190/5/2 194/5/2
f 194/5/2 190/5/2 195/5/2
f 191/2/2 192/2/2 196/2/2
f 196/2/2 192/2/2 197/2/2
f 198/2/2 199/2/2 200/2/2
f 200/2/2 199/2/2 201/2/2
f 200/5/2 201/5/2 202/5/2
f 202/5/2 201/5/2 203/5/2
f 202/2/2 203/2/2 204/2/2
f 204/2/2 203/2/2 205/2/2
f 206/5/2 207/5/2 208/5/2
f 208/5/2 207/5/2 209/5/2
f 210/2/2 211/2/2 212/2/2
f 212/2/2 211/2/2 213/2/2
f 212/5/2 213/5/2 214/5/2
f 214/5/2 213/5/2 215/5/2
f 216/1/2 217/1/2 220/1/2
f 220/1/2 217/1/2 221/1/2
f 218/5/2 219/5/2 222/5/2
f 222/5/2 219/5/2 223/5/2
f 222/2/2 223/2/2 224/2/2
f 224/2/2 223/2/2 225/2/2
f 224/5/2 225/5/2 226/5/2
f 226/5/2 225/5/2 227/5/2
f 228/2/2 229/2/2 236/2/2
f 236/2/2 229/2/2 237/2/2
f 230/1/2 231/1/2 238/1/2
f 238/1/2 231/1/2 239/1/2
f 232/3/2 233/3/2 240/3/2
f 240/3/2 233/3/2 241/3/2
f 234/5/2 235/5/2 242/5/2
f 242/5/2 235/5/2 243/5/2
f 236/5/2 237/5/2 244/5/2
f 244/5/2 237/5/2 245/5/2
f 238/3/2 239/3/2 246/3/2
f 246/3/2 239/3/2 247/3/2
f 248/5/2 249/5/2 252/5/2
f 252/5/2 249/5/2 253/5/2
f 250/1/2 251/1/2 257/1/2
f 257/1/2 251/1/2 258/1/2
f 253/2/2 254/2/2 259/2/2
f 254/5/2 255/5/2 260/5/2
f 259/2/2 254/2/2 260/2/2
f 255/2/2 256/2/2 261/2/2
f 260/5/2 255/5/2 261/5/2
f 261/2/2 256/2/2 262/2/2
f 257/3/2 258/3/2 263/3/2
f 263/3/2 258/3/2 264/3/2
f 265/1/2 266/1/2 271/1/2
f 271/1/2 266/1/2 272/1/2
f 267/2/2 268/2/2 274/2/2
f 268/5/2 269/5/2 275/5/2
f 274/2/2 268/2/2 275/2/2
f 269/2/2 270/2/2 276/2/2
f 275/5/2 269/5/2 276/5/2
f 276/2/2 270/2/2 277/2/2
f 272/1/2 273/1/2 278/1/2
f 278/1/2 273/1/2 279/1/2
f 280/3/2 281/3/2 284/3/2
f 284/3/2 281/3/2 285/3/2
f 282/3/2 283/3/2 287/3/2
f 287/3/2 283/3/2 288/3/2
f 285/3/2 286/3/2 289/3/2
f 289/3/2 286/3/2 290/3/2
f 287/1/2 288/1/2 291/1/2
f 291/1/2 288/1/2 292/1/2
f 293/3/2 294/3/2 298/3/2
f 294/1/2 295/1/2 299/1/2
f 298/3/2 294/3/2 299/3/2
f 295/3/2 296/3/2 300/3/2
f 299/1/2 295/1/2 300/1/2
f 296/1/2 297/1/2 301/1/2
f 300/3/2 296/3/2 301/3/2
f 301/1/2 297/1/2 302/1/2
f 299/3/2 300/3/2 303/3/2
f 300/1/2 301/1/2 304/1/2
f 303/3/2 300/3/2 304/3/2
f 301/3/2 302/3/2 305/3/2
f 304/1/2 301/1/2 305/1/2
f 305/3/2 302/3/2 306/3/2
f 309/3/3 308/3/3 307/3/3
f 310/3/3 308/3/3 309/3/3
f 311/1/3 310/1/3 309/1/3
f 312/1/3 310/1/3 311/1/3
f 313/3/3 312/3/3 311/3/3
f 314/3/3 312/3/3 313/3/3
f 315/1/3 314/1/3 313/1/3
f 316/1/3 314/1/3 315/1/3
f 317/3/3 316/3/3 315/3/3
f 318/3/3 316/3/3 317/3/3
f 319/1/3 318/1/3 317/1/3
f 320/1/3 318/1/3 319/1/3
f 323/1/3 322/1/3 321/1/3
f 324/1/3 322/1/3 323/1/3
f 326/1/3 325/1/3 324/1/3
f 327/1/3 325/1/3 326/1/3
f 328/1/3 325/1/3 327/1/3
f 329/3/3 328/3/3 327/3/3
f 330/3/3 328/3/3 329/3/3
f 331/3/3 328/3/3 330/3/3
f 332/1/3 331/1/3 330/1/3
f 333/1/3 331/1/3 332/1/3
f 335/3/3 333/3/3 332/3/3
f 336/1/3 335/1/3 334/1/3
f 337/3/3 333/3/3 335/3/3
f 337/1/3 335/1/3 336/1/3
f 338/3/3 333/3/3 337/3/3
f 339/3/3 337/3/3 336/3/3
f 340/3/3 337/3/3 339/3/3
f 341/1/3 340/1/3 339/1/3
f 342/1/3 340/1/3 341/1/3
f 345/3/3 344/3/3 343/3/3
f 346/3/3 344/3/3 345/3/3
f 347/1/3 346/1/3 345/1/3
f 348/1/3 346/1/3 347/1/3
f 350/3/3 349/3/3 348/3/3
f 351/3/3 349/3/3 350/3/3
f 353/2/3 352/2/3 351/2/3
f 354/2/3 352/2/3 353/2/3
f 355/5/3 354/5/3 353/5/3
f 356/5/3 354/5/3 355/5/3
f 357/2/3 356/2/3 355/2/3
f 358/2/3 356/2/3 357/2/3
f 359/5/3 358/5/3 357/5/3
f 360/5/3 358/5/3 359/5/3
f 361/2/3 360/2/3 359/2/3
f 362/2/3 360/2/3 361/2/3
f 363/5/3 362/5/3 361/5/3
f 364/5/3 362/5/3 363/5/3
f 367/3/3 366/3/3 365/3/3
f 368/3/3 366/3/3 367/3/3
f 370/1/3 368/1/3 367/1/3
f 371/1/3 368/1/3 370/1/3
f 372/1/3 370/1/3 369/1/3
f 373/1/3 370/1/3 372/1/3
f 374/3/3 373/3/3 372/3/3
f 375/3/3 373/3/3 374/3/3
f 378/1/3 377/1/3 376/1/3
f 379/1/3 377/1/3 378/1/3
f 381/1/3 380/1/3 379/1/3
f 382/1/3 380/1/3 381/1/3
f 383/3/3 382/3/3 381/3/3
f 384/3/3 382/3/3 383/3/3
f 386/2/3 385/2/3 384/2/3
f 387/2/3 385/2/3 386/2/3
f 390/2/3 389/2/3 388/2/3
f 391/2/3 389/2/3 390/2/3
f 392/5/3 391/5/3 390/5/3
f 393/5/3 391/5/3 392/5/3
f 396/1/3 395/1/3 394/1/3
f 397/1/3 395/1/3 396/1/3
f 399/3/3 397/3/3 396/3/3
f 400/3/3 397/3/3 399/3/3
f 401/3/3 399/3/3 398/3/3
f 402/3/3 399/3/3 401/3/3
f 405/3/3 404/3/3 403/3/3
f 406/3/3 404/3/3 405/3/3
f 408/3/3 407/3/3 406/3/3
f 409/3/3 407/3/3 408/3/3
f 412/5/3 411/5/3 410/5/3
f 413/5/3 411/5/3 412/5/3
f 417/2/3 415/2/3 414/2/3
f 418/2/3 415/2/3 417/2/3
f 419/2/3 417/2/3 416/2/3
f 420/2/3 417/2/3 419/2/3
f 423/3/3 422/3/3 421/3/3
f 424/3/3 422/3/3 423/3/3
f 427/1/3 426/1/3 425/1/3
f 428/1/3 426/1/3 427/1/3
f 432/5/3 430/5/3 429/5/3
f 433/2/3 431/2/3 430/2/3
f 433/5/3 430/5/3 432/5/3
f 434/2/3 431/2/3 433/2/3
f 437/2/3 436/2/3 435/2/3
f 438/2/3 436/2/3 437/2/3
f 441/1/3 440/1/3 439/1/3
f 442/1/3 440/1/3 441/1/3
f 447/2/3 444/2/3 443/2/3
f 448/5/3 445/5/3 444/5/3
f 448/2/3 444/2/3 447/2/3
f 449/2/3 446/2/3 445/2/3
f 449/5/3 445/5/3 448/5/3
f 450/2/3 446/2/3 449/2/3
f 451/5/3 448/5/3 447/5/3
f 452/2/3 449/2/3 448/2/3
f 452/5/3 448/5/3 451/5/3
f 453/2/3 449/2/3 452/2/3
f 454/2/3 452/2/3 451/2/3
f 455/5/3 453/5/3 452/5/3
f 455/2/3 452/2/3 454/2/3
f 456/5/3 453/5/3 455/5/3
f 457/5/3 455/5/3 454/5/3
f 458/5/3 455/5/3 457/5/3
f 459/2/3 458/2/3 457/2/3
f 460/2/3 458/2/3 459/2/3
f 461/5/3 460/5/3 459/5/3
f 462/5/3 460/5/3 461/5/3
f 463/2/3 462/2/3 461/2/3
f 464/2/3 462/2/3 463/2/3
f 465/5/3 464/5/3 463/5/3
f 466/5/3 464/5/3 465/5/3
f 467/2/3 466/2/3 465/2/3
f 468/2/3 466/2/3 467/2/3
f 470/5/3 469/5/3 468/5/3
f 471/5/3 469/5/3 470/5/3
f 475/3/3 473/3/3 472/3/3
f 476/3/3 473/3/3 475/3/3
f 477/3/3 475/3/3 474/3/3
f 478/1/3 476/1/3 475/1/3
f 478/3/3 475/3/3 477/3/3
f 479/1/3 476/1/3 478/1/3
f 482/1/3 481/1/3 480/1/3
f 483/1/3 481/1/3 482/1/3
f 486/5/3 485/5/3 484/5/3
f 487/5/3 485/5/3 486/5/3
f 489/2/3 487/2/3 486/2/3
f 490/5/3 489/5/3 488/5/3
f 491/2/3 487/2/3 489/2/3
f 491/5/3 489/5/3 490/5/3
f 492/2/3 487/2/3 491/2/3
f 493/2/3 491/2/3 490/2/3
f 494/5/3 492/5/3 491/5/3
f 494/2/3 491/2/3 493/2/3
f 495/5/3 492/5/3 494/5/3
f 496/5/3 494/5/3 493/5/3
f 497/2/3 495/2/3 494/2/3
f 497/5/3 494/5/3 496/5/3
f 498/2/3 495/2/3 497/2/3
f 499/2/3 497/2/3 496/2/3
f 500/5/3 498/5/3 497/5/3
f 500/2/3 497/2/3 499/2/3
f 501/5/3 498/5/3 500/5/3
f 502/5/3 500/5/3 499/5/3
f 503/2/3 501/2/3 500/2/3
f 503/5/3 500/5/3 502/5/3
f 504/2/3 501/2/3 503/2/3
f 505/2/3 503/2/3 502/2/3
f 506/5/3 504/5/3 503/5/3
f 506/2/3 503/2/3 505/2/3
f 507/5/3 504/5/3 506/5/3
f 511/1/3 509/1/3 508/1/3
f 512/3/3 510/3/3 509/3/3
f 512/1/3 509/1/3 511/1/3
f 513/3/3 510/3/3 512/3/3
f 517/3/3 515/3/3 514/3/3
f 518/1/3 516/1/3 515/1/3
f 518/3/3 515/3/3 517/3/3
f 519/1/3 516/1/3 518/1/3
f 520/1/3 518/1/3 517/1/3
f 521/1/3 518/1/3 520/1/3
f 522/3/3 521/3/3 520/3/3
f 523/3/3 521/3/3 522/3/3
f 527/1/3 525/1/3 524/1/3
f 528/3/3 526/3/3 525/3/3
f 528/1/3 525/1/3 527/1/3
f 529/3/3 526/3/3 528/3/3
f 530/3/4 531/3/4 532/3/4
f 532/3/4 531/3/4 533/3/4
f 534/2/4 535/2/4 538/2/4
f 535/5/4 536/5/4 539/5/4
f 538/2/4 535/2/4 539/2/4
f 536/2/4 537/2/4 540/2/4
f 539/5/4 536/5/4 540/5/4
f 540/2/4 537/2/4 541/2/4
f 538/5/4 539/5/4 542/5/4
f 539/2/4 540/2/4 543/2/4
f 542/5/4 539/5/4 543/5/4
f 540/5/4 541/5/4 544/5/4
f 543/2/4 540/2/4 544/2/4
f 544/5/4 541/5/4 545/5/4
f 543/5/4 544/5/4 546/5/4
f 544/2/4 545/2/4 547/2/4
f 546/5/4 544/5/4 547/5/4
f 547/2/4 545/2/4 548/2/4
f 546/2/4 547/2/4 549/2/4
f 547/5/4 548/5/4 550/5/4
f 549/2/4 547/2/4 550/2/4
f 550/5/4 548/5/4 551/5/4
f 549/5/4 550/5/4 552/5/4
f 550/2/4 551/2/4 553/2/4
f 552/5/4 550/5/4 553/5/4
f 553/2/4 551/2/4 554/2/4
f 552/2/4 553/2/4 555/2/4
f 553/5/4 554/5/4 556/5/4
f 555/2/4 553/2/4 556/2/4
f 556/5/4 554/5/4 557/5/4
f 558/3/4 559/3/4 561/3/4
f 561/3/4 559/3/4 562/3/4
f 560/3/4 561/3/4 563/3/4
f 561/1/4 562/1/4 564/1/4
f 563/3/4 561/3/4 564/3/4
f 564/1/4 562/1/4 565/1/4
f 566/1/4 567/1/4 568/1/4
f 568/1/4 567/1/4 569/1/4
f 570/2/4 571/2/4 574/2/4
f 571/5/4 572/5/4 575/5/4
f 574/2/4 571/2/4 575/2/4
f 572/2/4 573/2/4 576/2/4
f 575/5/4 572/5/4 576/5/4
f 576/2/4 573/2/4 577/2/4
f 578/2/4 579/2/4 580/2/4
f 580/2/4 579/2/4 581/2/4
f 580/5/4 581/5/4 582/5/4
f 582/5/4 581/5/4 583/5/4
f 582/2/4 583/2/4 584/2/4
f 584/2/4 583/2/4 585/2/4
f 584/5/4 585/5/4 586/5/4
f 584/5/4 586/5/4 588/5/4
f 586/2/4 587/2/4 589/2/4
f 588/5/4 586/5/4 589/5/4
f 589/2/4 587/2/4 590/2/4
f 588/2/4 589/2/4 591/2/4
f 589/5/4 590/5/4 592/5/4
f 591/2/4 589/2/4 592/2/4
f 592/5/4 590/5/4 593/5/4
f 594/3/4 595/3/4 597/3/4
f 595/1/4 596/1/4 598/1/4
f 597/3/4 595/3/4 598/3/4
f 598/1/4 596/1/4 599/1/4
f 597/1/4 598/1/4 600/1/4
f 598/3/4 599/3/4 601/3/4
f 600/1/4 598/1/4 601/1/4
f 601/3/4 599/3/4 602/3/4
f 603/3/4 604/3/4 605/3/4
f 605/3/4 604/3/4 606/3/4
f 607/5/4 608/5/4 611/5/4
f 608/2/4 609/2/4 612/2/4
f 611/5/4 608/5/4 612/5/4
f 609/5/4 610/5/4 613/5/4
f 612/2/4 609/2/4 613/2/4
f 613/5/4 610/5/4 614/5/4
f 615/1/4 616/1/4 618/1/4
f 616/3/4 617/3/4 619/3/4
f 618/1/4 616/1/4 619/1/4
f 619/3/4 617/3/4 620/3/4
f 621/2/4 622/2/4 624/2/4
f 622/5/4 623/5/4 625/5/4
f 624/2/4 622/2/4 625/2/4
f 625/5/4 623/5/4 626/5/4
f 627/5/4 628/5/4 630/5/4
f 628/2/4 629/2/4 631/2/4
f 630/5/4 628/5/4 631/5/4
f 631/2/4 629/2/4 632/2/4
f 633/1/4 634/1/4 636/1/4
f 634/3/4 635/3/4 637/3/4
f 636/1/4 634/1/4 637/1/4
f 637/3/4 635/3/4 638/3/4
f 639/3/4 640/3/4 642/3/4
f 640/1/4 641/1/4 643/1/4
f 642/3/4 640/3/4 643/3/4
f 643/1/4 641/1/4 644/1/4
f 645/2/4 646/2/4 649/2/4
f 649/2/4 646/2/4 650/2/4
f 647/5/4 648/5/4 651/5/4
f 648/2/4 649/2/4 652/2/4
f 651/5/4 648/5/4 652/5/4
f 652/2/4 649/2/4 653/2/4
f 651/2/4 652/2/4 654/2/4
f 654/2/4 652/2/4 655/2/4
f 654/5/4 655/5/4 656/5/4
f 656/5/4 655/5/4 657/5/4
f 658/2/4 659/2/4 661/2/4
f 659/5/4 660/5/4 662/5/4
f 661/2/4 659/2/4 662/2/4
f 662/5/4 660/5/4 663/5/4
f 664/1/4 665/1/4 667/1/4
f 665/3/4 666/3/4 668/3/4
f 667/1/4 665/1/4 668/1/4
f 668/3/4 666/3/4 669/3/4
f 667/3/4 668/3/4 670/3/4
f 668/1/4 669/1/4 671/1/4
f 670/3/4 668/3/4 671/3/4
f 671/1/4 669/1/4 672/1/4
f 673/3/4 674/3/4 676/3/4
f 674/1/4 675/1/4 677/1/4
f 676/3/4 674/3/4 677/3/4
f 677/1/4 675/1/4 678/1/4
f 676/1/4 677/1/4 679/1/4
f 677/3/4 678/3/4 680/3/4
f 679/1/4 677/1/4 680/1/4
f 680/3/4 678/3/4 681/3/4
f 681/5/4 682/5/4 683/5/4
f 683/5/4 682/5/4 684/5/4
f 683/2/4 684/2/4 685/2/4
f 685/2/4 684/2/4 686/2/4
f 686/2/4 684/2/4 687/2/4
f 686/5/4 687/5/4 688/5/4
f 688/5/4 687/5/4 689/5/4
f 688/2/4 689/2/4 690/2/4
f 690/2/4 689/2/4 691/2/4
f 690/5/4 691/5/4 692/5/4
f 692/5/4 691/5/4 693/5/4
f 692/2/4 693/2/4 694/2/4
f 694/2/4 693/2/4 695/2/4
f 694/5/4 695/5/4 696/5/4
f 696/5/4 695/5/4 697/5/4
f 698/1/4 699/1/4 701/1/4
f 699/3/4 700/3/4 702/3/4
f 701/1/4 699/1/4 702/1/4
f 702/3/4 700/3/4 703/3/4
f 704/3/4 705/3/4 707/3/4
f 705/1/4 706/1/4 708/1/4
f 707/3/4 705/3/4 708/3/4
f 708/1/4 706/1/4 709/1/4
f 707/1/4 708/1/4 710/1/4
f 708/3/4 709/3/4 711/3/4
f 710/1/4 708/1/4 711/1/4
f 711/3/4 709/3/4 712/3/4
f 710/3/4 711/3/4 713/3/4
f 711/1/4 712/1/4 714/1/4
f 713/3/4 711/3/4 714/3/4
f 714/1/4 712/1/4 715/1/4
f 713/1/4 714/1/4 716/1/4
f 714/3/4 715/3/4 717/3/4
f 716/1/4 714/1/4 717/1/4
f 717/3/4 715/3/4 718/3/4
f 716/3/4 717/3/4 719/3/4
f 717/1/4 718/1/4 720/1/4
f 719/3/4 717/3/4 720/3/4
f 720/1/4 718/1/4 721/1/4
f 719/1/4 720/1/4 722/1/4
f 720/3/4 721/3/4 723/3/4
f 722/1/4 720/1/4 723/1/4
f 723/3/4 721/3/4 724/3/4
f 733/3/5 726/3/5 725/3/5
f 734/1/5 727/1/5 726/1/5
f 734/3/5 726/3/5 733/3/5
f 735/3/5 728/3/5 727/3/5
f 735/1/5 727/1/5 734/1/5
f 736/1/5 729/1/5 728/1/5
f 736/3/5 728/3/5 735/3/5
f 737/1/5 731/1/5 730/1/5
f 743/1/5 733/1/5 732/1/5
f 744/3/5 734/3/5 733/3/5
f 744/3/5 735/3/5 734/3/5
f 744/1/5 733/1/5 743/1/5
f 745/3/5 735/3/5 744/3/5
f 746/1/5 736/1/5 735/1/5
f 746/3/5 735/3/5 745/3/5
f 747/1/5 729/1/5 736/1/5
f 747/1/5 736/1/5 746/1/5
f 748/3/5 730/3/5 729/3/5
f 748/1/5 729/1/5 747/1/5
f 749/3/5 730/3/5 748/3/5
f 750/1/5 737/1/5 730/1/5
f 750/3/5 730/3/5 749/3/5
f 750/1/5 738/1/5 737/1/5
f 751/3/5 739/3/5 738/3/5
f 751/1/5 738/1/5 750/1/5
f 752/1/5 740/1/5 739/1/5
f 752/3/5 739/3/5 751/3/5
f 753/1/5 740/1/5 752/1/5
f 757/3/5 742/3/5 741/3/5
f 758/1/5 743/1/5 742/1/5
f 758/1/5 744/1/5 743/1/5
f 759/2/5 745/2/5 744/2/5
f 759/1/5 744/1/5 758/1/5
f 760/5/5 746/5/5 745/5/5
f 760/2/5 745/2/5 759/2/5
f 761/2/5 747/2/5 746/2/5
f 761/5/5 746/5/5 760/5/5
f 762/5/5 750/5/5 749/5/5
f 762/5/5 751/5/5 750/5/5
f 763/1/5 752/1/5 751/1/5
f 763/5/5 751/5/5 762/5/5
f 764/3/5 753/3/5 752/3/5
f 764/1/5 752/1/5 763/1/5
f 765/1/5 754/1/5 753/1/5
f 765/3/5 753/3/5 764/3/5
f 766/3/5 755/3/5 754/3/5
f 766/1/5 754/1/5 765/1/5
f 767/3/5 755/3/5 766/3/5
f 770/1/5 757/1/5 756/1/5
f 771/3/5 742/3/5 757/3/5
f 771/1/5 757/1/5 770/1/5
f 772/1/5 758/1/5 742/1/5
f 772/3/5 742/3/5 771/3/5
f 773/2/5 759/2/5 758/2/5
f 773/1/5 758/1/5 772/1/5
f 774/2/5 759/2/5 773/2/5
f 775/2/5 747/2/5 761/2/5
f 776/5/5 748/5/5 747/5/5
f 776/2/5 747/2/5 775/2/5
f 777/2/5 749/2/5 748/2/5
f 777/5/5 748/5/5 776/5/5
f 778/5/5 762/5/5 749/5/5
f 778/2/5 749/2/5 777/2/5
f 779/2/5 763/2/5 762/2/5
f 779/5/5 762/5/5 778/5/5
f 780/5/5 764/5/5 763/5/5
f 780/2/5 763/2/5 779/2/5
f 781/5/5 764/5/5 780/5/5
f 782/3/5 766/3/5 765/3/5
f 783/1/5 767/1/5 766/1/5
f 783/3/5 766/3/5 782/3/5
f 784/3/5 768/3/5 767/3/5
f 784/1/5 767/1/5 783/1/5
f 785/3/5 768/3/5 784/3/5
f 786/1/5 771/1/5 770/1/5
f 786/3/5 770/3/5 769/3/5
f 787/5/5 772/5/5 771/5/5
f 787/1/5 771/1/5 786/1/5
f 787/5/5 773/5/5 772/5/5
f 788/5/5 773/5/5 787/5/5
f 789/5/5 773/5/5 788/5/5
f 790/5/5 781/5/5 780/5/5
f 791/2/5 782/2/5 781/2/5
f 791/5/5 781/5/5 790/5/5
f 792/2/5 782/2/5 791/2/5
f 793/1/5 785/1/5 784/1/5
f 794/1/5 785/1/5 793/1/5
f 795/3/5 786/3/5 769/3/5
f 796/2/5 787/2/5 786/2/5
f 796/3/5 786/3/5 795/3/5
f 796/2/5 788/2/5 787/2/5
f 797/2/5 788/2/5 796/2/5
f 798/2/5 788/2/5 797/2/5
f 800/2/5 791/2/5 790/2/5
f 801/5/5 792/5/5 791/5/5
f 801/2/5 791/2/5 800/2/5
f 802/5/5 792/5/5 801/5/5
f 803/3/5 794/3/5 793/3/5
f 804/3/5 794/3/5 803/3/5
f 805/1/5 796/1/5 795/1/5
f 806/4/5 797/4/5 796/4/5
f 806/1/5 796/1/5 805/1/5
f 807/5/5 798/5/5 797/5/5
f 807/4/5 797/4/5 806/4/5
f 808/5/5 798/5/5 807/5/5
f 817/2/5 800/2/5 799/2/5
f 818/5/5 801/5/5 800/5/5
f 818/2/5 800/2/5 817/2/5
f 819/2/5 802/2/5 801/2/5
f 819/5/5 801/5/5 818/5/5
f 820/2/5 802/2/5 819/2/5
f 821/1/5 804/1/5 803/1/5
f 822/1/5 804/1/5 821/1/5
f 823/3/5 807/3/5 806/3/5
f 824/2/5 808/2/5 807/2/5
f 824/3/5 807/3/5 823/3/5
f 824/2/5 809/2/5 808/2/5
f 825/2/5 809/2/5 824/2/5
f 826/5/5 810/5/5 809/5/5
f 826/2/5 809/2/5 825/2/5
f 827/2/5 811/2/5 810/2/5
f 827/5/5 810/5/5 826/5/5
f 828/5/5 812/5/5 811/5/5
f 828/2/5 811/2/5 827/2/5
f 829/2/5 813/2/5 812/2/5
f 829/5/5 812/5/5 828/5/5
f 830/5/5 814/5/5 813/5/5
f 830/2/5 813/2/5 829/2/5
f 831/2/5 815/2/5 814/2/5
f 831/5/5 814/5/5 830/5/5
f 832/5/5 816/5/5 815/5/5
f 832/2/5 815/2/5 831/2/5
f 833/2/5 818/2/5 817/2/5
f 833/5/5 816/5/5 832/5/5
f 833/2/5 817/2/5 816/2/5
f 834/2/5 818/2/5 833/2/5
f 835/2/5 818/2/5 834/2/5
f 836/1/5 820/1/5 819/1/5
f 837/3/5 821/3/5 820/3/5
f 837/1/5 820/1/5 836/1/5
f 838/3/5 821/3/5 837/3/5
f 839/3/5 825/3/5 824/3/5
f 840/1/5 826/1/5 825/1/5
f 840/3/5 825/3/5 839/3/5
f 841/1/5 826/1/5 840/1/5
f 844/5/5 830/5/5 829/5/5
f 845/2/5 831/2/5 830/2/5
f 845/5/5 830/5/5 844/5/5
f 846/5/5 832/5/5 831/5/5
f 846/2/5 831/2/5 845/2/5
f 847/2/5 833/2/5 832/2/5
f 847/5/5 832/5/5 846/5/5
f 848/5/5 834/5/5 833/5/5
f 848/2/5 833/2/5 847/2/5
f 849/5/5 834/5/5 848/5/5
f 850/1/5 836/1/5 835/1/5
f 851/1/5 836/1/5 850/1/5
f 852/3/5 842/3/5 841/3/5
f 853/1/5 843/1/5 842/1/5
f 853/3/5 842/3/5 852/3/5
f 854/3/5 844/3/5 843/3/5
f 854/1/5 843/1/5 853/1/5
f 854/3/5 845/3/5 844/3/5
f 855/1/5 847/1/5 846/1/5
f 855/3/5 845/3/5 854/3/5
f 855/1/5 846/1/5 845/1/5
f 856/3/5 848/3/5 847/3/5
f 856/1/5 847/1/5 855/1/5
f 856/3/5 849/3/5 848/3/5
f 857/1/5 850/1/5 849/1/5
f 857/3/5 849/3/5 856/3/5
f 858/1/5 850/1/5 857/1/5
f 862/5/5 860/5/5 859/5/5
f 862/5/5 861/5/5 860/5/5
f 863/5/5 861/5/5 862/5/5
f 864/5/5 861/5/5 863/5/5
f 867/5/5 866/5/5 865/5/5
f 868/5/5 866/5/5 867/5/5
f 869/3/6 870/3/6 877/3/6
f 870/1/6 871/1/6 878/1/6
f 877/3/6 870/3/6 878/3/6
f 871/3/6 872/3/6 879/3/6
f 878/1/6 871/1/6 879/1/6
f 872/1/6 873/1/6 880/1/6
f 879/3/6 872/3/6 880/3/6
f 873/3/6 874/3/6 881/3/6
f 880/1/6 873/1/6 881/1/6
f 874/1/6 875/1/6 882/1/6
f 881/3/6 874/3/6 882/3/6
f 882/1/6 875/1/6 883/1/6
f 876/1/6 877/1/6 889/1/6
f 889/1/6 877/1/6 890/1/6
f 884/3/6 885/3/6 892/3/6
f 885/1/6 886/1/6 893/1/6
f 892/3/6 885/3/6 893/3/6
f 893/1/6 886/1/6 894/1/6
f 887/3/6 888/3/6 898/3/6
f 888/1/6 889/1/6 899/1/6
f 898/3/6 888/3/6 899/3/6
f 899/1/6 889/1/6 900/1/6
f 891/5/6 892/5/6 905/5/6
f 905/5/6 892/5/6 906/5/6
f 906/5/6 892/5/6 907/5/6
f 894/1/6 895/1/6 909/1/6
f 895/3/6 896/3/6 910/3/6
f 909/1/6 895/1/6 910/1/6
f 910/3/6 896/3/6 911/3/6
f 897/1/6 898/1/6 914/1/6
f 914/1/6 898/1/6 915/1/6
f 901/2/6 902/2/6 917/2/6
f 902/5/6 903/5/6 918/5/6
f 917/2/6 902/2/6 918/2/6
f 903/2/6 904/2/6 919/2/6
f 918/5/6 903/5/6 919/5/6
f 904/5/6 905/5/6 920/5/6
f 919/2/6 904/2/6 920/2/6
f 920/5/6 905/5/6 921/5/6
f 907/5/6 908/5/6 922/5/6
f 922/5/6 908/5/6 923/5/6
f 911/3/6 912/3/6 925/3/6
f 925/3/6 912/3/6 926/3/6
f 913/3/6 914/3/6 927/3/6
f 927/3/6 914/3/6 928/3/6
f 915/5/6 916/5/6 929/5/6
f 929/5/6 916/5/6 930/5/6
f 923/2/6 924/2/6 931/2/6
f 931/2/6 924/2/6 932/2/6
f 928/2/6 929/2/6 933/2/6
f 933/2/6 929/2/6 934/2/6
f 931/5/6 932/5/6 937/5/6
f 937/5/6 932/5/6 938/5/6
f 933/4/6 934/4/6 939/4/6
f 939/4/6 934/4/6 940/4/6
f 935/2/6 936/2/6 948/2/6
f 948/2/6 936/2/6 949/2/6
f 937/2/6 938/2/6 950/2/6
f 950/2/6 938/2/6 951/2/6
f 940/2/6 941/2/6 952/2/6
f 952/2/6 941/2/6 953/2/6
f 942/5/6 943/5/6 954/5/6
f 943/2/6 944/2/6 955/2/6
f 954/5/6 943/5/6 955/5/6
f 944/5/6 945/5/6 956/5/6
f 955/2/6 944/2/6 956/2/6
f 945/2/6 946/2/6 957/2/6
f 956/5/6 945/5/6 957/5/6
f 946/5/6 947/5/6 958/5/6
f 957/2/6 946/2/6 958/2/6
f 947/2/6 948/2/6 959/2/6
f 958/5/6 947/5/6 959/5/6
f 959/2/6 948/2/6 960/2/6
f 961/1/6 962/1/6 967/1/6
f 967/1/6 962/1/6 968/1/6
f 962/3/6 963/3/6 969/3/6
f 968/1/6 962/1/6 969/1/6
f 969/3/6 963/3/6 970/3/6
f 963/1/6 964/1/6 971/1/6
f 970/3/6 963/3/6 971/3/6
f 971/1/6 964/1/6 972/1/6
f 964/3/6 965/3/6 973/3/6
f 972/1/6 964/1/6 973/1/6
f 973/3/6 965/3/6 974/3/6
f 966/3/6 967/3/6 979/3/6
f 979/3/6 967/3/6 980/3/6
f 974/3/6 975/3/6 983/3/6
f 975/1/6 976/1/6 984/1/6
f 983/3/6 975/3/6 984/3/6
f 984/1/6 976/1/6 985/1/6
f 977/1/6 978/1/6 989/1/6
f 978/3/6 979/3/6 990/3/6
f 989/1/6 978/1/6 990/1/6
f 990/3/6 979/3/6 991/3/6
f 981/2/6 982/2/6 992/2/6
f 982/5/6 983/5/6 993/5/6
f 992/2/6 982/2/6 993/2/6
f 993/5/6 983/5/6 994/5/6
f 985/1/6 986/1/6 996/1/6
f 986/3/6 987/3/6 997/3/6
f 996/1/6 986/1/6 997/1/6
f 997/3/6 987/3/6 998/3/6
f 988/3/6 989/3/6 1001/3/6
f 1001/3/6 989/3/6 1002/3/6
f 994/2/6 995/2/6 1003/2/6
f 1003/2/6 995/2/6 1004/2/6
f 998/3/6 999/3/6 1005/3/6
f 1005/3/6 999/3/6 1006/3/6
f 1000/1/6 1001/1/6 1007/1/6
f 1007/1/6 1001/1/6 1008/1/6
f 1003/5/6 1004/5/6 1009/5/6
f 1009/5/6 1004/5/6 1010/5/6
f 1005/1/6 1006/1/6 1011/1/6
f 1011/1/6 1006/1/6 1012/1/6
f 1007/3/6 1008/3/6 1013/3/6
f 1013/3/6 1008/3/6 1014/3/6
f 1009/2/6 1010/2/6 1020/2/6
f 1020/2/6 1010/2/6 1021/2/6
f 1011/3/6 1012/3/6 1023/3/6
f 1023/3/6 1012/3/6 1024/3/6
f 1014/1/6 1015/1/6 1025/1/6
f 1025/1/6 1015/1/6 1026/1/6
f 1016/2/6 1017/2/6 1028/2/6
f 1017/5/6 1018/5/6 1029/5/6
f 1028/2/6 1017/2/6 1029/2/6
f 1029/5/6 1018/5/6 1030/5/6
f 1019/5/6 1020/5/6 1031/5/6
f 1031/5/6 1020/5/6 1032/5/6
f 1021/3/6 1022/3/6 1033/3/6
f 1022/1/6 1023/1/6 1034/1/6
f 1033/3/6 1022/3/6 1034/3/6
f 1034/1/6 1023/1/6 1035/1/6
f 1026/1/6 1027/1/6 1036/1/6
f 1027/3/6 1028/3/6 1037/3/6
f 1036/1/6 1027/1/6 1037/1/6
f 1037/3/6 1028/3/6 1038/3/6
f 1032/3/6 1033/3/6 1047/3/6
f 1047/3/6 1033/3/6 1048/3/6
f 1038/1/6 1039/1/6 1049/1/6
f 1039/3/6 1040/3/6 1050/3/6
f 1049/1/6 1039/1/6 1050/1/6
f 1040/1/6 1041/1/6 1051/1/6
f 1050/3/6 1040/3/6 1051/3/6
f 1041/1/6 1042/1/6 1051/1/6
f 1042/3/6 1043/3/6 1052/3/6
f 1051/1/6 1042/1/6 1052/1/6
f 1043/3/6 1044/3/6 1052/3/6
f 1045/1/6 1046/1/6 1053/1/6
f 1052/3/6 1044/3/6 1053/3/6
f 1044/1/6 1045/1/6 1053/1/6
f 1046/3/6 1047/3/6 1054/3/6
f 1053/1/6 1046/1/6 1054/1/6
f 1054/3/6 1047/3/6 1055/3/6
f 1056/2/6 1057/2/6 1064/2/6
f 1057/5/6 1058/5/6 1065/5/6
f 1064/2/6 1057/2/6 1065/2/6
f 1058/2/6 1059/2/6 1066/2/6
f 1065/5/6 1058/5/6 1066/5/6
f 1059/5/6 1060/5/6 1067/5/6
f 1066/2/6 1059/2/6 1067/2/6
f 1060/2/6 1061/2/6 1068/2/6
f 1067/5/6 1060/5/6 1068/5/6
f 1061/5/6 1062/5/6 1069/5/6
f 1068/2/6 1061/2/6 1069/2/6
f 1069/5/6 1062/5/6 1070/5/6
f 1063/2/6 1064/2/6 1072/2/6
f 1072/2/6 1064/2/6 1073/2/6
f 1071/5/6 1072/5/6 1075/5/6
f 1075/5/6 1072/5/6 1076/5/6
f 1074/2/6 1075/2/6 1077/2/6
f 1077/2/6 1075/2/6 1078/2/6
f 1077/5/6 1078/5/6 1079/5/6
f 1079/5/6 1078/5/6 1080/5/6
f 1080/2/6 1081/2/6 1082/2/6
f 1082/2/6 1081/2/6 1083/2/6
f 1083/5/6 1084/5/6 1091/5/6
f 1084/2/6 1085/2/6 1092/2/6
f 1091/5/6 1084/5/6 1092/5/6
f 1085/5/6 1086/5/6 1093/5/6
f 1092/2/6 1085/2/6 1093/2/6
f 1086/2/6 1087/2/6 1094/2/6
f 1093/5/6 1086/5/6 1094/5/6
f 1087/5/6 1088/5/6 1095/5/6
f 1094/2/6 1087/2/6 1095/2/6
f 1088/2/6 1089/2/6 1096/2/6
f 1095/5/6 1088/5/6 1096/5/6
f 1089/5/6 1090/5/6 1097/5/6
f 1096/2/6 1089/2/6 1097/2/6
f 1097/5/6 1090/5/6 1098/5/6
