# MagicaVoxel @ Ephtracy

# group
o 

# material
mtllib unlit_torch.mtl
usemtl palette

# normals
vn -1 0 0
vn 1 0 0
vn 0 0 1
vn 0 0 -1
vn 0 -1 0
vn 0 1 0

# texcoords
vt 0.169922 0.5
vt 0.173828 0.5
vt 0.201172 0.5
vt 0.509766 0.5
vt 0.513672 0.5
vt 0.544922 0.5
vt 0.548828 0.5

# verts
v -0.5 1.3 0
v -0.5 1.3 -0.1
v -0.5 1.3 -0.3
v -0.5 1.4 0.1
v -0.5 1.4 0
v -0.5 1.4 -0.1
v -0.5 1.4 -0.3
v -0.5 1.5 0.1
v -0.5 1.5 0
v -0.5 1.5 -0.1
v -0.5 1.5 -0.3
v -0.5 1.5 -0.4
v -0.5 1.6 0.1
v -0.5 1.6 0
v -0.5 1.6 -0.1
v -0.5 1.6 -0.3
v -0.5 1.6 -0.4
v -0.5 1.7 0
v -0.5 1.7 -0.4
v -0.4 0.9 0
v -0.4 0.9 -0.1
v -0.4 1.1 -0.1
v -0.4 1.1 -0.2
v -0.4 1.3 0.1
v -0.4 1.3 0
v -0.4 1.3 -0.1
v -0.4 1.3 -0.2
v -0.4 1.3 -0.3
v -0.4 1.3 -0.4
v -0.4 1.4 0.8
v -0.4 1.4 0.7
v -0.4 1.4 0.2
v -0.4 1.4 0.1
v -0.4 1.4 0
v -0.4 1.4 -0.3
v -0.4 1.4 -0.4
v -0.4 1.5 0.2
v -0.4 1.5 0.1
v -0.4 1.5 -0.3
v -0.4 1.5 -0.4
v -0.4 1.5 -0.5
v -0.4 1.6 0.2
v -0.4 1.6 0.1
v -0.4 1.6 0
v -0.4 1.6 -0.4
v -0.4 1.6 -0.5
v -0.4 1.7 0.1
v -0.4 1.7 0
v -0.4 1.7 -0.3
v -0.4 1.7 -0.4
v -0.4 1.7 -0.5
v -0.4 1.8 0.8
v -0.4 1.8 0.7
v -0.4 1.8 0
v -0.4 1.8 -0.1
v -0.4 1.8 -0.3
v -0.4 1.8 -0.4
v -0.4 1.9 -0.1
v -0.4 1.9 -0.2
v -0.4 1.9 -0.3
v -0.4 1.9 -0.4
v -0.4 2 -0.1
v -0.4 2 -0.2
v -0.4 2 -0.3
v -0.4 2 -0.4
v -0.4 2 -0.5
v -0.4 2.2 -0.2
v -0.4 2.2 -0.3
v -0.4 2.2 -0.4
v -0.4 2.2 -0.5
v -0.4 2.3 -0.3
v -0.4 2.3 -0.4
v -0.4 2.3 -0.5
v -0.3 0.2 0.2
v -0.3 0.2 0.1
v -0.3 0.3 0.2
v -0.3 0.3 0.1
v -0.3 0.4 0.2
v -0.3 0.4 0.1
v -0.3 0.4 0
v -0.3 0.6 0
v -0.3 0.6 -0.1
v -0.3 0.7 0
v -0.3 0.7 -0.1
v -0.3 0.8 0.1
v -0.3 0.8 0
v -0.3 0.8 -0.1
v -0.3 0.8 -0.2
v -0.3 0.9 0
v -0.3 0.9 -0.1
v -0.3 1 0.1
v -0.3 1 0
v -0.3 1 -0.2
v -0.3 1 -0.3
v -0.3 1.1 -0.1
v -0.3 1.1 -0.2
v -0.3 1.2 -0.3
v -0.3 1.2 -0.4
v -0.3 1.3 0.8
v -0.3 1.3 0.7
v -0.3 1.3 0.2
v -0.3 1.3 0.1
v -0.3 1.3 0
v -0.3 1.3 -0.2
v -0.3 1.3 -0.3
v -0.3 1.3 -0.4
v -0.3 1.3 -0.5
v -0.3 1.4 0.8
v -0.3 1.4 0.7
v -0.3 1.4 0.6
v -0.3 1.4 0.3
v -0.3 1.4 0.2
v -0.3 1.4 0.1
v -0.3 1.4 0
v -0.3 1.4 -0.1
v -0.3 1.4 -0.4
v -0.3 1.4 -0.5
v -0.3 1.5 0.3
v -0.3 1.5 0.2
v -0.3 1.5 -0.3
v -0.3 1.5 -0.4
v -0.3 1.5 -0.5
v -0.3 1.5 -0.6
v -0.3 1.6 0.7
v -0.3 1.6 0.6
v -0.3 1.6 0.3
v -0.3 1.6 0.2
v -0.3 1.6 0.1
v -0.3 1.6 0
v -0.3 1.6 -0.1
v -0.3 1.6 -0.3
v -0.3 1.6 -0.4
v -0.3 1.6 -0.5
v -0.3 1.6 -0.6
v -0.3 1.7 0.7
v -0.3 1.7 0.6
v -0.3 1.7 0.2
v -0.3 1.7 0.1
v -0.3 1.7 0
v -0.3 1.7 -0.3
v -0.3 1.7 -0.4
v -0.3 1.7 -0.5
v -0.3 1.7 -0.6
v -0.3 1.8 0.8
v -0.3 1.8 0.7
v -0.3 1.8 0.6
v -0.3 1.8 0.1
v -0.3 1.8 0
v -0.3 1.8 -0.1
v -0.3 1.8 -0.3
v -0.3 1.8 -0.4
v -0.3 1.9 0.8
v -0.3 1.9 0.7
v -0.3 1.9 0.1
v -0.3 1.9 0
v -0.3 1.9 -0.1
v -0.3 1.9 -0.4
v -0.3 2 0
v -0.3 2 -0.1
v -0.3 2 -0.2
v -0.3 2 -0.4
v -0.3 2 -0.5
v -0.3 2 -0.6
v -0.3 2.1 -0.5
v -0.3 2.1 -0.6
v -0.3 2.2 -0.1
v -0.3 2.2 -0.2
v -0.3 2.2 -0.3
v -0.3 2.2 -0.5
v -0.3 2.3 -0.3
v -0.3 2.3 -0.4
v -0.3 2.3 -0.5
v -0.3 2.4 -0.2
v -0.3 2.4 -0.3
v -0.3 2.4 -0.4
v -0.3 2.4 -0.5
v -0.3 2.4 -0.6
v -0.3 2.5 -0.3
v -0.3 2.5 -0.4
v -0.3 2.5 -0.5
v -0.2 0.1 0.3
v -0.2 0.1 0.1
v -0.2 0.2 0.2
v -0.2 0.2 0.1
v -0.2 0.2 0
v -0.2 0.3 0.3
v -0.2 0.3 0.2
v -0.2 0.3 0.1
v -0.2 0.4 0.3
v -0.2 0.4 0.2
v -0.2 0.4 0.1
v -0.2 0.4 0
v -0.2 0.4 -0.1
v -0.2 0.5 0.3
v -0.2 0.5 0.2
v -0.2 0.5 0.1
v -0.2 0.6 0
v -0.2 0.6 -0.1
v -0.2 0.6 -0.2
v -0.2 0.7 -0.1
v -0.2 0.8 0.2
v -0.2 0.8 0.1
v -0.2 0.8 -0.1
v -0.2 0.8 -0.2
v -0.2 0.8 -0.3
v -0.2 1 0.1
v -0.2 1 -0.2
v -0.2 1 -0.3
v -0.2 1.1 -0.3
v -0.2 1.1 -0.4
v -0.2 1.2 0.8
v -0.2 1.2 0.7
v -0.2 1.2 0.2
v -0.2 1.2 0.1
v -0.2 1.2 -0.3
v -0.2 1.2 -0.4
v -0.2 1.3 0.8
v -0.2 1.3 0.7
v -0.2 1.3 0.6
v -0.2 1.3 0.3
v -0.2 1.3 0.2
v -0.2 1.3 0.1
v -0.2 1.4 0.7
v -0.2 1.4 0.6
v -0.2 1.4 0.3
v -0.2 1.4 0.2
v -0.2 1.4 -0.5
v -0.2 1.4 -0.6
v -0.2 1.5 0.6
v -0.2 1.5 0.3
v -0.2 1.5 -0.5
v -0.2 1.5 -0.6
v -0.2 1.5 -0.7
v -0.2 1.6 0.6
v -0.2 1.6 0.3
v -0.2 1.6 0.2
v -0.2 1.6 -0.6
v -0.2 1.6 -0.7
v -0.2 1.7 0.3
v -0.2 1.7 0.2
v -0.2 1.7 -0.6
v -0.2 1.7 -0.7
v -0.2 1.8 0.7
v -0.2 1.8 0.6
v -0.2 1.9 0.8
v -0.2 1.9 0.7
v -0.2 1.9 0.6
v -0.2 1.9 0.1
v -0.2 1.9 0
v -0.2 1.9 -0.5
v -0.2 1.9 -0.6
v -0.2 2 0.8
v -0.2 2 0.7
v -0.2 2 0.1
v -0.2 2 0
v -0.2 2 -0.1
v -0.2 2 -0.5
v -0.2 2 -0.6
v -0.2 2.1 0
v -0.2 2.1 -0.1
v -0.2 2.1 -0.6
v -0.2 2.1 -0.7
v -0.2 2.2 0
v -0.2 2.2 -0.1
v -0.2 2.2 -0.2
v -0.2 2.3 -0.6
v -0.2 2.3 -0.7
v -0.2 2.4 -0.1
v -0.2 2.4 -0.2
v -0.2 2.4 -0.3
v -0.2 2.4 -0.5
v -0.2 2.4 -0.6
v -0.2 2.4 -0.7
v -0.2 2.5 -0.2
v -0.2 2.5 -0.3
v -0.2 2.5 -0.4
v -0.2 2.5 -0.5
v -0.2 2.5 -0.6
v -0.2 2.6 -0.3
v -0.2 2.6 -0.5
v -0.1 0 0.4
v -0.1 0 0.1
v -0.1 0.1 0.3
v -0.1 0.1 0.1
v -0.1 0.1 0
v -0.1 0.2 0.4
v -0.1 0.2 0.3
v -0.1 0.2 0.1
v -0.1 0.2 0
v -0.1 0.2 -0.1
v -0.1 0.3 0.4
v -0.1 0.3 0.3
v -0.1 0.3 0
v -0.1 0.3 -0.1
v -0.1 0.4 0.3
v -0.1 0.4 0
v -0.1 0.4 -0.1
v -0.1 0.4 -0.2
v -0.1 0.5 0.4
v -0.1 0.5 0.3
v -0.1 0.5 0.2
v -0.1 0.6 0.4
v -0.1 0.6 0.3
v -0.1 0.6 0.2
v -0.1 0.6 -0.1
v -0.1 0.6 -0.2
v -0.1 0.6 -0.3
v -0.1 0.8 0.2
v -0.1 0.8 -0.2
v -0.1 0.8 -0.3
v -0.1 0.9 -0.3
v -0.1 0.9 -0.4
v -0.1 1 0.3
v -0.1 1 0.2
v -0.1 1.1 0.8
v -0.1 1.1 0.7
v -0.1 1.1 0.3
v -0.1 1.1 0.2
v -0.1 1.1 -0.3
v -0.1 1.1 -0.4
v -0.1 1.2 0.8
v -0.1 1.2 0.7
v -0.1 1.2 0.6
v -0.1 1.2 -0.4
v -0.1 1.2 -0.5
v -0.1 1.3 0.7
v -0.1 1.3 0.6
v -0.1 1.3 -0.4
v -0.1 1.3 -0.5
v -0.1 1.3 -0.6
v -0.1 1.4 0.6
v -0.1 1.4 0.3
v -0.1 1.4 0.2
v -0.1 1.4 0.1
v -0.1 1.4 -0.5
v -0.1 1.4 -0.6
v -0.1 1.4 -0.7
v -0.1 1.5 0.6
v -0.1 1.5 0.3
v -0.1 1.5 0.2
v -0.1 1.5 -0.5
v -0.1 1.5 -0.6
v -0.1 1.5 -0.7
v -0.1 1.6 0.6
v -0.1 1.6 0.3
v -0.1 1.6 0.2
v -0.1 1.6 0.1
v -0.1 1.6 -0.5
v -0.1 1.6 -0.6
v -0.1 1.7 0.6
v -0.1 1.7 0.3
v -0.1 1.7 -0.5
v -0.1 1.7 -0.6
v -0.1 1.8 -0.5
v -0.1 1.8 -0.6
v -0.1 1.9 0.7
v -0.1 1.9 0.6
v -0.1 1.9 -0.5
v -0.1 1.9 -0.6
v -0.1 2 0.8
v -0.1 2 0.7
v -0.1 2 0.6
v -0.1 2 0.1
v -0.1 2 0
v -0.1 2 -0.6
v -0.1 2 -0.7
v -0.1 2.1 0.8
v -0.1 2.1 0.7
v -0.1 2.1 0.1
v -0.1 2.1 0
v -0.1 2.1 -0.6
v -0.1 2.1 -0.7
v -0.1 2.2 0
v -0.1 2.2 -0.1
v -0.1 2.3 0
v -0.1 2.3 -0.1
v -0.1 2.4 -0.1
v -0.1 2.4 -0.2
v -0.1 2.4 -0.6
v -0.1 2.4 -0.7
v -0.1 2.5 -0.1
v -0.1 2.5 -0.2
v -0.1 2.5 -0.3
v -0.1 2.5 -0.5
v -0.1 2.5 -0.6
v -0.1 2.5 -0.7
v -0.1 2.6 -0.2
v -0.1 2.6 -0.3
v -0.1 2.6 -0.5
v -0.1 2.6 -0.6
v 0.2 1.4 0.2
v 0.2 1.4 0.1
v 0.2 1.5 0.2
v 0.2 1.5 -0.5
v 0.2 1.5 -0.6
v 0.2 1.6 0.2
v 0.2 1.6 0.1
v 0.2 1.6 -0.5
v 0.2 1.6 -0.6
v 0.4 1.3 -0.2
v 0.4 1.3 -0.3
v 0.4 1.4 0
v 0.4 1.4 -0.1
v 0.4 1.4 -0.2
v 0.4 1.4 -0.3
v 0.4 1.5 -0.3
v 0.4 1.5 -0.4
v 0.4 1.6 0
v 0.4 1.6 -0.1
v 0.4 1.6 -0.3
v 0.4 1.6 -0.4
v -0.4 1.4 0
v -0.4 1.4 -0.1
v -0.4 1.5 -0.3
v -0.4 1.5 -0.4
v -0.4 1.6 0
v -0.4 1.6 -0.1
v -0.4 1.6 -0.3
v -0.4 1.6 -0.4
v -0.2 1.4 0.2
v -0.2 1.4 0.1
v -0.2 1.5 0.2
v -0.2 1.5 -0.5
v -0.2 1.5 -0.6
v -0.2 1.6 0.2
v -0.2 1.6 0.1
v -0.2 1.6 -0.5
v -0.2 1.6 -0.6
v 0.1 0 0.4
v 0.1 0 0.1
v 0.1 0.1 0.3
v 0.1 0.1 0.1
v 0.1 0.1 0
v 0.1 0.2 0.4
v 0.1 0.2 0.3
v 0.1 0.2 0.1
v 0.1 0.2 0
v 0.1 0.2 -0.1
v 0.1 0.3 0
v 0.1 0.4 0.3
v 0.1 0.4 0
v 0.1 0.4 -0.1
v 0.1 0.4 -0.2
v 0.1 0.5 0.3
v 0.1 0.5 0.2
v 0.1 0.5 -0.1
v 0.1 0.6 0.4
v 0.1 0.6 0.3
v 0.1 0.6 0.2
v 0.1 0.6 -0.1
v 0.1 0.6 -0.2
v 0.1 0.6 -0.3
v 0.1 0.8 -0.2
v 0.1 0.8 -0.3
v 0.1 0.9 -0.3
v 0.1 0.9 -0.4
v 0.1 1 0.2
v 0.1 1.1 0.8
v 0.1 1.1 0.7
v 0.1 1.1 0.3
v 0.1 1.1 0.2
v 0.1 1.1 -0.3
v 0.1 1.1 -0.4
v 0.1 1.2 0.8
v 0.1 1.2 0.7
v 0.1 1.2 0.6
v 0.1 1.2 -0.4
v 0.1 1.2 -0.5
v 0.1 1.3 0.7
v 0.1 1.3 0.6
v 0.1 1.3 -0.4
v 0.1 1.3 -0.5
v 0.1 1.3 -0.6
v 0.1 1.4 0.6
v 0.1 1.4 0.3
v 0.1 1.4 0.2
v 0.1 1.4 0.1
v 0.1 1.4 -0.5
v 0.1 1.4 -0.6
v 0.1 1.4 -0.7
v 0.1 1.5 0.6
v 0.1 1.5 0.3
v 0.1 1.5 0.2
v 0.1 1.5 -0.5
v 0.1 1.5 -0.6
v 0.1 1.5 -0.7
v 0.1 1.6 0.6
v 0.1 1.6 0.3
v 0.1 1.6 0.2
v 0.1 1.6 0.1
v 0.1 1.6 -0.5
v 0.1 1.6 -0.6
v 0.1 1.7 0.6
v 0.1 1.7 0.3
v 0.1 1.7 -0.5
v 0.1 1.7 -0.6
v 0.1 1.8 -0.5
v 0.1 1.8 -0.6
v 0.1 1.9 0.7
v 0.1 1.9 0.6
v 0.1 1.9 -0.5
v 0.1 1.9 -0.6
v 0.1 2 0.8
v 0.1 2 0.7
v 0.1 2 0.6
v 0.1 2 0.1
v 0.1 2 0
v 0.1 2 -0.6
v 0.1 2 -0.7
v 0.1 2.1 0.8
v 0.1 2.1 0.7
v 0.1 2.1 0.1
v 0.1 2.1 0
v 0.1 2.1 -0.6
v 0.1 2.1 -0.7
v 0.1 2.2 0
v 0.1 2.2 -0.1
v 0.1 2.3 0
v 0.1 2.3 -0.1
v 0.1 2.4 -0.1
v 0.1 2.4 -0.2
v 0.1 2.4 -0.6
v 0.1 2.4 -0.7
v 0.1 2.5 -0.1
v 0.1 2.5 -0.2
v 0.1 2.5 -0.3
v 0.1 2.5 -0.5
v 0.1 2.5 -0.6
v 0.1 2.5 -0.7
v 0.1 2.6 -0.2
v 0.1 2.6 -0.3
v 0.1 2.6 -0.5
v 0.1 2.6 -0.6
v 0.2 0.1 0.3
v 0.2 0.1 0.1
v 0.2 0.2 0.2
v 0.2 0.2 0.1
v 0.2 0.2 0
v 0.2 0.3 0.1
v 0.2 0.3 0
v 0.2 0.4 0.3
v 0.2 0.4 0.2
v 0.2 0.4 0.1
v 0.2 0.4 0
v 0.2 0.4 -0.1
v 0.2 0.5 0.3
v 0.2 0.5 0.2
v 0.2 0.5 0
v 0.2 0.5 -0.1
v 0.2 0.6 0
v 0.2 0.6 -0.1
v 0.2 0.6 -0.2
v 0.2 0.8 -0.1
v 0.2 0.8 -0.2
v 0.2 0.8 -0.3
v 0.2 0.9 -0.2
v 0.2 0.9 -0.3
v 0.2 1 0.2
v 0.2 1 0.1
v 0.2 1 -0.2
v 0.2 1 -0.3
v 0.2 1.1 0.1
v 0.2 1.1 -0.3
v 0.2 1.1 -0.4
v 0.2 1.2 0.8
v 0.2 1.2 0.7
v 0.2 1.2 0.2
v 0.2 1.2 0.1
v 0.2 1.2 -0.3
v 0.2 1.2 -0.4
v 0.2 1.3 0.8
v 0.2 1.3 0.7
v 0.2 1.3 0.6
v 0.2 1.3 0.3
v 0.2 1.3 0.2
v 0.2 1.3 0.1
v 0.2 1.4 0.7
v 0.2 1.4 0.6
v 0.2 1.4 0.3
v 0.2 1.4 0.2
v 0.2 1.4 -0.5
v 0.2 1.4 -0.6
v 0.2 1.5 0.6
v 0.2 1.5 0.3
v 0.2 1.5 -0.5
v 0.2 1.5 -0.6
v 0.2 1.5 -0.7
v 0.2 1.6 0.6
v 0.2 1.6 0.3
v 0.2 1.6 0.2
v 0.2 1.6 -0.6
v 0.2 1.6 -0.7
v 0.2 1.7 0.3
v 0.2 1.7 0.2
v 0.2 1.7 -0.6
v 0.2 1.7 -0.7
v 0.2 1.8 0.7
v 0.2 1.8 0.6
v 0.2 1.9 0.8
v 0.2 1.9 0.7
v 0.2 1.9 0.6
v 0.2 1.9 0.1
v 0.2 1.9 0
v 0.2 1.9 -0.5
v 0.2 1.9 -0.6
v 0.2 2 0.8
v 0.2 2 0.7
v 0.2 2 0.1
v 0.2 2 0
v 0.2 2 -0.1
v 0.2 2 -0.5
v 0.2 2 -0.6
v 0.2 2.1 0
v 0.2 2.1 -0.1
v 0.2 2.1 -0.6
v 0.2 2.1 -0.7
v 0.2 2.2 0
v 0.2 2.2 -0.1
v 0.2 2.2 -0.2
v 0.2 2.3 -0.1
v 0.2 2.3 -0.2
v 0.2 2.3 -0.6
v 0.2 2.3 -0.7
v 0.2 2.4 -0.1
v 0.2 2.4 -0.2
v 0.2 2.4 -0.3
v 0.2 2.4 -0.5
v 0.2 2.4 -0.6
v 0.2 2.4 -0.7
v 0.2 2.5 -0.2
v 0.2 2.5 -0.3
v 0.2 2.5 -0.5
v 0.2 2.5 -0.6
v 0.2 2.6 -0.3
v 0.2 2.6 -0.5
v 0.3 0.2 0.2
v 0.3 0.2 0.1
v 0.3 0.4 0.2
v 0.3 0.4 0.1
v 0.3 0.4 0
v 0.3 0.6 0
v 0.3 0.6 -0.1
v 0.3 0.8 -0.1
v 0.3 0.8 -0.2
v 0.3 0.9 0
v 0.3 0.9 -0.1
v 0.3 1 -0.2
v 0.3 1 -0.3
v 0.3 1.1 0.1
v 0.3 1.1 0
v 0.3 1.1 -0.1
v 0.3 1.1 -0.2
v 0.3 1.2 0
v 0.3 1.2 -0.2
v 0.3 1.2 -0.3
v 0.3 1.2 -0.4
v 0.3 1.3 0.8
v 0.3 1.3 0.7
v 0.3 1.3 0.2
v 0.3 1.3 0.1
v 0.3 1.3 0
v 0.3 1.3 -0.2
v 0.3 1.3 -0.3
v 0.3 1.3 -0.4
v 0.3 1.3 -0.5
v 0.3 1.4 0.8
v 0.3 1.4 0.7
v 0.3 1.4 0.6
v 0.3 1.4 0.3
v 0.3 1.4 0.2
v 0.3 1.4 0.1
v 0.3 1.4 0
v 0.3 1.4 -0.1
v 0.3 1.4 -0.2
v 0.3 1.4 -0.3
v 0.3 1.4 -0.4
v 0.3 1.4 -0.5
v 0.3 1.5 0.3
v 0.3 1.5 0.2
v 0.3 1.5 -0.3
v 0.3 1.5 -0.4
v 0.3 1.5 -0.5
v 0.3 1.5 -0.6
v 0.3 1.6 0.7
v 0.3 1.6 0.6
v 0.3 1.6 0.3
v 0.3 1.6 0.2
v 0.3 1.6 0.1
v 0.3 1.6 0
v 0.3 1.6 -0.1
v 0.3 1.6 -0.3
v 0.3 1.6 -0.4
v 0.3 1.6 -0.5
v 0.3 1.6 -0.6
v 0.3 1.7 0.7
v 0.3 1.7 0.6
v 0.3 1.7 0.2
v 0.3 1.7 0.1
v 0.3 1.7 0
v 0.3 1.7 -0.3
v 0.3 1.7 -0.4
v 0.3 1.7 -0.5
v 0.3 1.7 -0.6
v 0.3 1.8 0.8
v 0.3 1.8 0.7
v 0.3 1.8 0.6
v 0.3 1.8 0.1
v 0.3 1.8 0
v 0.3 1.8 -0.1
v 0.3 1.8 -0.3
v 0.3 1.8 -0.4
v 0.3 1.9 0.8
v 0.3 1.9 0.7
v 0.3 1.9 0.1
v 0.3 1.9 0
v 0.3 1.9 -0.1
v 0.3 2 0
v 0.3 2 -0.1
v 0.3 2 -0.2
v 0.3 2 -0.4
v 0.3 2 -0.5
v 0.3 2 -0.6
v 0.3 2.1 -0.5
v 0.3 2.1 -0.6
v 0.3 2.2 -0.1
v 0.3 2.2 -0.2
v 0.3 2.2 -0.3
v 0.3 2.2 -0.5
v 0.3 2.3 -0.3
v 0.3 2.3 -0.4
v 0.3 2.3 -0.5
v 0.3 2.3 -0.6
v 0.3 2.4 -0.2
v 0.3 2.4 -0.3
v 0.3 2.4 -0.4
v 0.3 2.4 -0.5
v 0.3 2.4 -0.6
v 0.3 2.5 -0.3
v 0.3 2.5 -0.5
v 0.4 0.9 0
v 0.4 0.9 -0.1
v 0.4 1.1 -0.1
v 0.4 1.1 -0.2
v 0.4 1.2 0
v 0.4 1.2 -0.1
v 0.4 1.2 -0.2
v 0.4 1.3 0.1
v 0.4 1.3 0
v 0.4 1.3 -0.1
v 0.4 1.3 -0.2
v 0.4 1.3 -0.3
v 0.4 1.3 -0.4
v 0.4 1.4 0.8
v 0.4 1.4 0.7
v 0.4 1.4 0.2
v 0.4 1.4 0.1
v 0.4 1.4 0
v 0.4 1.4 -0.3
v 0.4 1.4 -0.4
v 0.4 1.5 0.2
v 0.4 1.5 0.1
v 0.4 1.5 -0.4
v 0.4 1.5 -0.5
v 0.4 1.6 0.2
v 0.4 1.6 0.1
v 0.4 1.6 0
v 0.4 1.6 -0.4
v 0.4 1.6 -0.5
v 0.4 1.7 0.1
v 0.4 1.7 0
v 0.4 1.7 -0.2
v 0.4 1.7 -0.3
v 0.4 1.7 -0.4
v 0.4 1.7 -0.5
v 0.4 1.8 0.8
v 0.4 1.8 0.7
v 0.4 1.8 0
v 0.4 1.8 -0.1
v 0.4 1.8 -0.3
v 0.4 1.8 -0.4
v 0.4 1.9 -0.2
v 0.4 1.9 -0.3
v 0.4 2 -0.1
v 0.4 2 -0.2
v 0.4 2 -0.3
v 0.4 2 -0.4
v 0.4 2 -0.5
v 0.4 2.2 -0.2
v 0.4 2.2 -0.3
v 0.4 2.2 -0.4
v 0.4 2.2 -0.5
v 0.4 2.3 -0.3
v 0.4 2.3 -0.5
v 0.5 1.3 0
v 0.5 1.3 -0.1
v 0.5 1.3 -0.3
v 0.5 1.4 0.1
v 0.5 1.4 0
v 0.5 1.4 -0.1
v 0.5 1.4 -0.3
v 0.5 1.4 -0.4
v 0.5 1.5 0.1
v 0.5 1.5 0
v 0.5 1.5 -0.1
v 0.5 1.5 -0.3
v 0.5 1.6 0.1
v 0.5 1.6 0
v 0.5 1.6 -0.1
v 0.5 1.6 -0.3
v 0.5 1.6 -0.4
v 0.5 1.7 0
v 0.5 1.7 -0.4
v -0.4 1.4 0.8
v -0.4 1.8 0.8
v -0.3 1.3 0.8
v -0.3 1.4 0.8
v -0.3 1.5 0.8
v -0.3 1.8 0.8
v -0.3 1.9 0.8
v -0.2 1.2 0.8
v -0.2 1.3 0.8
v -0.2 1.5 0.8
v -0.2 1.7 0.8
v -0.2 1.8 0.8
v -0.2 1.9 0.8
v -0.2 2 0.8
v -0.1 1.1 0.8
v -0.1 1.2 0.8
v -0.1 1.3 0.8
v -0.1 1.6 0.8
v -0.1 1.7 0.8
v -0.1 2 0.8
v -0.1 2.1 0.8
v 0.1 1.1 0.8
v 0.1 1.2 0.8
v 0.1 1.3 0.8
v 0.1 1.6 0.8
v 0.1 1.7 0.8
v 0.1 2 0.8
v 0.1 2.1 0.8
v 0.2 1.2 0.8
v 0.2 1.3 0.8
v 0.2 1.5 0.8
v 0.2 1.7 0.8
v 0.2 1.8 0.8
v 0.2 1.9 0.8
v 0.2 2 0.8
v 0.3 1.3 0.8
v 0.3 1.4 0.8
v 0.3 1.5 0.8
v 0.3 1.8 0.8
v 0.3 1.9 0.8
v 0.4 1.4 0.8
v 0.4 1.8 0.8
v -0.1 0 0.4
v -0.1 0.2 0.4
v -0.1 0.3 0.4
v -0.1 0.5 0.4
v -0.1 0.6 0.4
v 0 0.3 0.4
v 0 0.5 0.4
v 0.1 0 0.4
v 0.1 0.2 0.4
v 0.1 0.6 0.4
v -0.3 1.4 0.3
v -0.3 1.5 0.3
v -0.3 1.6 0.3
v -0.2 0.1 0.3
v -0.2 0.3 0.3
v -0.2 0.4 0.3
v -0.2 0.5 0.3
v -0.2 1.3 0.3
v -0.2 1.4 0.3
v -0.2 1.5 0.3
v -0.2 1.6 0.3
v -0.2 1.7 0.3
v -0.1 0.1 0.3
v -0.1 0.2 0.3
v -0.1 0.3 0.3
v -0.1 0.4 0.3
v -0.1 0.5 0.3
v -0.1 0.6 0.3
v -0.1 1 0.3
v -0.1 1.1 0.3
v -0.1 1.4 0.3
v -0.1 1.5 0.3
v -0.1 1.6 0.3
v -0.1 1.7 0.3
v 0 1 0.3
v 0 1.1 0.3
v 0.1 0.1 0.3
v 0.1 0.2 0.3
v 0.1 0.4 0.3
v 0.1 0.5 0.3
v 0.1 0.6 0.3
v 0.1 1.1 0.3
v 0.1 1.4 0.3
v 0.1 1.5 0.3
v 0.1 1.6 0.3
v 0.1 1.7 0.3
v 0.2 0.1 0.3
v 0.2 0.4 0.3
v 0.2 0.5 0.3
v 0.2 1.3 0.3
v 0.2 1.4 0.3
v 0.2 1.5 0.3
v 0.2 1.6 0.3
v 0.2 1.7 0.3
v 0.3 1.4 0.3
v 0.3 1.5 0.3
v 0.3 1.6 0.3
v -0.4 1.4 0.2
v -0.4 1.5 0.2
v -0.4 1.6 0.2
v -0.3 0.2 0.2
v -0.3 0.3 0.2
v -0.3 0.4 0.2
v -0.3 1.3 0.2
v -0.3 1.4 0.2
v -0.3 1.5 0.2
v -0.3 1.6 0.2
v -0.3 1.7 0.2
v -0.2 0.2 0.2
v -0.2 0.3 0.2
v -0.2 0.4 0.2
v -0.2 0.5 0.2
v -0.2 0.8 0.2
v -0.2 1.2 0.2
v -0.2 1.3 0.2
v -0.2 1.4 0.2
v -0.2 1.6 0.2
v -0.2 1.7 0.2
v -0.1 0.5 0.2
v -0.1 0.6 0.2
v -0.1 0.8 0.2
v -0.1 1 0.2
v -0.1 1.1 0.2
v -0.1 1.2 0.2
v 0 1.1 0.2
v 0.1 0.5 0.2
v 0.1 0.6 0.2
v 0.1 1 0.2
v 0.1 1.1 0.2
v 0.1 1.2 0.2
v 0.2 0.2 0.2
v 0.2 0.4 0.2
v 0.2 0.5 0.2
v 0.2 1 0.2
v 0.2 1.2 0.2
v 0.2 1.3 0.2
v 0.2 1.4 0.2
v 0.2 1.6 0.2
v 0.2 1.7 0.2
v 0.3 0.2 0.2
v 0.3 0.4 0.2
v 0.3 1.3 0.2
v 0.3 1.4 0.2
v 0.3 1.5 0.2
v 0.3 1.6 0.2
v 0.3 1.7 0.2
v 0.4 1.4 0.2
v 0.4 1.5 0.2
v 0.4 1.6 0.2
v -0.5 1.4 0.1
v -0.5 1.5 0.1
v -0.5 1.6 0.1
v -0.4 1.3 0.1
v -0.4 1.4 0.1
v -0.4 1.5 0.1
v -0.4 1.6 0.1
v -0.4 1.7 0.1
v -0.3 0.4 0.1
v -0.3 0.8 0.1
v -0.3 1 0.1
v -0.3 1.3 0.1
v -0.3 1.4 0.1
v -0.3 1.6 0.1
v -0.3 1.7 0.1
v -0.3 1.8 0.1
v -0.3 1.9 0.1
v -0.2 0.4 0.1
v -0.2 0.5 0.1
v -0.2 0.8 0.1
v -0.2 1 0.1
v -0.2 1.2 0.1
v -0.2 1.3 0.1
v -0.2 1.4 0.1
v -0.2 1.6 0.1
v -0.2 1.7 0.1
v -0.2 1.8 0.1
v -0.2 1.9 0.1
v -0.2 2 0.1
v -0.1 1.4 0.1
v -0.1 1.6 0.1
v -0.1 1.8 0.1
v -0.1 1.9 0.1
v -0.1 2 0.1
v -0.1 2.1 0.1
v 0 1.9 0.1
v 0 2 0.1
v 0.1 1.4 0.1
v 0.1 1.6 0.1
v 0.1 1.8 0.1
v 0.1 1.9 0.1
v 0.1 2 0.1
v 0.1 2.1 0.1
v 0.2 0.4 0.1
v 0.2 1 0.1
v 0.2 1.1 0.1
v 0.2 1.2 0.1
v 0.2 1.3 0.1
v 0.2 1.4 0.1
v 0.2 1.6 0.1
v 0.2 1.7 0.1
v 0.2 1.8 0.1
v 0.2 1.9 0.1
v 0.2 2 0.1
v 0.3 0.4 0.1
v 0.3 1.1 0.1
v 0.3 1.3 0.1
v 0.3 1.4 0.1
v 0.3 1.6 0.1
v 0.3 1.7 0.1
v 0.3 1.8 0.1
v 0.3 1.9 0.1
v 0.4 1.3 0.1
v 0.4 1.4 0.1
v 0.4 1.5 0.1
v 0.4 1.6 0.1
v 0.4 1.7 0.1
v 0.5 1.4 0.1
v 0.5 1.5 0.1
v 0.5 1.6 0.1
v -0.5 1.3 0
v -0.5 1.4 0
v -0.5 1.6 0
v -0.5 1.7 0
v -0.4 0.9 0
v -0.4 1.3 0
v -0.4 1.4 0
v -0.4 1.6 0
v -0.4 1.7 0
v -0.4 1.8 0
v -0.3 0.9 0
v -0.3 1 0
v -0.3 1.3 0
v -0.3 1.7 0
v -0.3 1.8 0
v -0.3 1.9 0
v -0.3 2 0
v -0.2 1.9 0
v -0.2 2 0
v -0.2 2.1 0
v -0.2 2.2 0
v -0.1 2 0
v -0.1 2.1 0
v -0.1 2.2 0
v -0.1 2.3 0
v 0.1 2 0
v 0.1 2.1 0
v 0.1 2.2 0
v 0.1 2.3 0
v 0.2 1.9 0
v 0.2 2 0
v 0.2 2.1 0
v 0.2 2.2 0
v 0.3 0.9 0
v 0.3 1.1 0
v 0.3 1.2 0
v 0.3 1.3 0
v 0.3 1.7 0
v 0.3 1.8 0
v 0.3 1.9 0
v 0.3 2 0
v 0.4 0.9 0
v 0.4 1.2 0
v 0.4 1.3 0
v 0.4 1.4 0
v 0.4 1.6 0
v 0.4 1.7 0
v 0.4 1.8 0
v 0.5 1.3 0
v 0.5 1.4 0
v 0.5 1.6 0
v 0.5 1.7 0
v -0.4 1.4 -0.1
v -0.4 1.6 -0.1
v -0.4 1.8 -0.1
v -0.4 1.9 -0.1
v -0.4 2 -0.1
v -0.3 1.4 -0.1
v -0.3 1.6 -0.1
v -0.3 1.8 -0.1
v -0.3 1.9 -0.1
v -0.3 2 -0.1
v -0.3 2.2 -0.1
v -0.2 2 -0.1
v -0.2 2.1 -0.1
v -0.2 2.2 -0.1
v -0.2 2.4 -0.1
v -0.1 2.2 -0.1
v -0.1 2.3 -0.1
v -0.1 2.4 -0.1
v -0.1 2.5 -0.1
v 0 2.4 -0.1
v 0 2.5 -0.1
v 0.1 2.2 -0.1
v 0.1 2.3 -0.1
v 0.1 2.4 -0.1
v 0.1 2.5 -0.1
v 0.2 2 -0.1
v 0.2 2.1 -0.1
v 0.2 2.2 -0.1
v 0.2 2.3 -0.1
v 0.2 2.4 -0.1
v 0.3 1.4 -0.1
v 0.3 1.6 -0.1
v 0.3 1.8 -0.1
v 0.3 1.9 -0.1
v 0.3 2 -0.1
v 0.3 2.2 -0.1
v 0.4 1.4 -0.1
v 0.4 1.6 -0.1
v 0.4 1.8 -0.1
v 0.4 2 -0.1
v -0.4 2 -0.2
v -0.4 2.2 -0.2
v -0.3 2 -0.2
v -0.3 2.2 -0.2
v -0.3 2.4 -0.2
v -0.2 2.2 -0.2
v -0.2 2.4 -0.2
v -0.2 2.5 -0.2
v -0.1 2.4 -0.2
v -0.1 2.5 -0.2
v -0.1 2.6 -0.2
v 0 2.5 -0.2
v 0.1 2.4 -0.2
v 0.1 2.5 -0.2
v 0.1 2.6 -0.2
v 0.2 2.2 -0.2
v 0.2 2.3 -0.2
v 0.2 2.4 -0.2
v 0.2 2.5 -0.2
v 0.3 2 -0.2
v 0.3 2.2 -0.2
v 0.3 2.4 -0.2
v 0.4 2 -0.2
v 0.4 2.2 -0.2
v -0.4 2.2 -0.3
v -0.4 2.3 -0.3
v -0.3 2.2 -0.3
v -0.3 2.3 -0.3
v -0.3 2.4 -0.3
v -0.3 2.5 -0.3
v -0.2 2.4 -0.3
v -0.2 2.5 -0.3
v -0.2 2.6 -0.3
v -0.1 2.5 -0.3
v -0.1 2.6 -0.3
v 0.1 2.5 -0.3
v 0.1 2.6 -0.3
v 0.2 2.4 -0.3
v 0.2 2.5 -0.3
v 0.2 2.6 -0.3
v 0.3 1.3 -0.3
v 0.3 1.4 -0.3
v 0.3 2.2 -0.3
v 0.3 2.3 -0.3
v 0.3 2.4 -0.3
v 0.3 2.5 -0.3
v 0.4 1.3 -0.3
v 0.4 1.4 -0.3
v 0.4 2.2 -0.3
v 0.4 2.3 -0.3
v -0.4 1.5 -0.4
v -0.4 1.6 -0.4
v -0.3 1.5 -0.4
v -0.3 1.6 -0.4
v 0.3 1.5 -0.4
v 0.3 1.6 -0.4
v 0.4 1.5 -0.4
v 0.4 1.6 -0.4
v -0.2 1.5 -0.6
v -0.2 1.6 -0.6
v -0.1 1.5 -0.6
v -0.1 1.6 -0.6
v 0.1 1.5 -0.6
v 0.1 1.6 -0.6
v 0.2 1.5 -0.6
v 0.2 1.6 -0.6
v -0.4 1.4 0.7
v -0.4 1.8 0.7
v -0.3 1.3 0.7
v -0.3 1.4 0.7
v -0.3 1.6 0.7
v -0.3 1.7 0.7
v -0.3 1.8 0.7
v -0.3 1.9 0.7
v -0.2 1.2 0.7
v -0.2 1.3 0.7
v -0.2 1.4 0.7
v -0.2 1.8 0.7
v -0.2 1.9 0.7
v -0.2 2 0.7
v -0.1 1.1 0.7
v -0.1 1.2 0.7
v -0.1 1.3 0.7
v -0.1 1.9 0.7
v -0.1 2 0.7
v -0.1 2.1 0.7
v 0.1 1.1 0.7
v 0.1 1.2 0.7
v 0.1 1.3 0.7
v 0.1 1.9 0.7
v 0.1 2 0.7
v 0.1 2.1 0.7
v 0.2 1.2 0.7
v 0.2 1.3 0.7
v 0.2 1.4 0.7
v 0.2 1.8 0.7
v 0.2 1.9 0.7
v 0.2 2 0.7
v 0.3 1.3 0.7
v 0.3 1.4 0.7
v 0.3 1.6 0.7
v 0.3 1.7 0.7
v 0.3 1.8 0.7
v 0.3 1.9 0.7
v 0.4 1.4 0.7
v 0.4 1.8 0.7
v -0.3 1.4 0.6
v -0.3 1.6 0.6
v -0.3 1.7 0.6
v -0.3 1.8 0.6
v -0.2 1.3 0.6
v -0.2 1.4 0.6
v -0.2 1.5 0.6
v -0.2 1.6 0.6
v -0.2 1.7 0.6
v -0.2 1.8 0.6
v -0.2 1.9 0.6
v -0.1 1.2 0.6
v -0.1 1.3 0.6
v -0.1 1.4 0.6
v -0.1 1.5 0.6
v -0.1 1.6 0.6
v -0.1 1.7 0.6
v -0.1 1.8 0.6
v -0.1 1.9 0.6
v -0.1 2 0.6
v 0.1 1.2 0.6
v 0.1 1.3 0.6
v 0.1 1.4 0.6
v 0.1 1.5 0.6
v 0.1 1.6 0.6
v 0.1 1.7 0.6
v 0.1 1.8 0.6
v 0.1 1.9 0.6
v 0.1 2 0.6
v 0.2 1.3 0.6
v 0.2 1.4 0.6
v 0.2 1.5 0.6
v 0.2 1.6 0.6
v 0.2 1.7 0.6
v 0.2 1.8 0.6
v 0.2 1.9 0.6
v 0.3 1.4 0.6
v 0.3 1.6 0.6
v 0.3 1.7 0.6
v 0.3 1.8 0.6
v -0.2 1.4 0.2
v -0.2 1.5 0.2
v -0.2 1.6 0.2
v -0.1 1.4 0.2
v -0.1 1.5 0.2
v -0.1 1.6 0.2
v 0.1 1.4 0.2
v 0.1 1.5 0.2
v 0.1 1.6 0.2
v 0.2 1.4 0.2
v 0.2 1.5 0.2
v 0.2 1.6 0.2
v -0.3 0.2 0.1
v -0.3 0.3 0.1
v -0.3 0.4 0.1
v -0.2 0.1 0.1
v -0.2 0.2 0.1
v -0.2 0.3 0.1
v -0.2 0.4 0.1
v -0.1 0 0.1
v -0.1 0.1 0.1
v -0.1 0.2 0.1
v 0 0.1 0.1
v 0.1 0 0.1
v 0.1 0.1 0.1
v 0.1 0.2 0.1
v 0.2 0.1 0.1
v 0.2 0.2 0.1
v 0.2 0.3 0.1
v 0.2 0.4 0.1
v 0.3 0.2 0.1
v 0.3 0.4 0.1
v -0.4 1.4 0
v -0.4 1.6 0
v -0.3 0.4 0
v -0.3 0.6 0
v -0.3 1.4 0
v -0.3 1.6 0
v -0.2 0.2 0
v -0.2 0.4 0
v -0.2 0.6 0
v -0.1 0.1 0
v -0.1 0.2 0
v -0.1 0.3 0
v -0.1 0.4 0
v 0 0.1 0
v 0 0.2 0
v 0.1 0.1 0
v 0.1 0.2 0
v 0.1 0.3 0
v 0.1 0.4 0
v 0.2 0.2 0
v 0.2 0.3 0
v 0.2 0.4 0
v 0.2 0.5 0
v 0.2 0.6 0
v 0.3 0.4 0
v 0.3 0.6 0
v 0.3 1.4 0
v 0.3 1.6 0
v 0.4 1.4 0
v 0.4 1.6 0
v -0.4 0.9 -0.1
v -0.4 1.1 -0.1
v -0.3 0.6 -0.1
v -0.3 0.7 -0.1
v -0.3 0.8 -0.1
v -0.3 0.9 -0.1
v -0.3 1.1 -0.1
v -0.2 0.4 -0.1
v -0.2 0.6 -0.1
v -0.2 0.7 -0.1
v -0.2 0.8 -0.1
v -0.1 0.2 -0.1
v -0.1 0.3 -0.1
v -0.1 0.4 -0.1
v -0.1 0.6 -0.1
v 0 0.2 -0.1
v 0 0.3 -0.1
v 0.1 0.2 -0.1
v 0.1 0.4 -0.1
v 0.1 0.5 -0.1
v 0.1 0.6 -0.1
v 0.2 0.4 -0.1
v 0.2 0.5 -0.1
v 0.2 0.6 -0.1
v 0.2 0.8 -0.1
v 0.3 0.6 -0.1
v 0.3 0.8 -0.1
v 0.3 0.9 -0.1
v 0.3 1.1 -0.1
v 0.4 0.9 -0.1
v 0.4 1.1 -0.1
v -0.4 1.1 -0.2
v -0.4 1.3 -0.2
v -0.3 0.8 -0.2
v -0.3 1 -0.2
v -0.3 1.1 -0.2
v -0.3 1.3 -0.2
v -0.2 0.6 -0.2
v -0.2 0.8 -0.2
v -0.2 1 -0.2
v -0.1 0.4 -0.2
v -0.1 0.6 -0.2
v -0.1 0.8 -0.2
v 0.1 0.4 -0.2
v 0.1 0.6 -0.2
v 0.1 0.8 -0.2
v 0.2 0.6 -0.2
v 0.2 0.8 -0.2
v 0.2 0.9 -0.2
v 0.2 1 -0.2
v 0.3 0.8 -0.2
v 0.3 1 -0.2
v 0.3 1.1 -0.2
v 0.3 1.2 -0.2
v 0.3 1.3 -0.2
v 0.3 1.4 -0.2
v 0.4 1.1 -0.2
v 0.4 1.2 -0.2
v 0.4 1.3 -0.2
v 0.4 1.4 -0.2
v -0.5 1.3 -0.3
v -0.5 1.4 -0.3
v -0.5 1.5 -0.3
v -0.4 1.3 -0.3
v -0.4 1.4 -0.3
v -0.4 1.5 -0.3
v -0.4 1.6 -0.3
v -0.4 1.7 -0.3
v -0.4 1.8 -0.3
v -0.3 1 -0.3
v -0.3 1.2 -0.3
v -0.3 1.5 -0.3
v -0.3 1.6 -0.3
v -0.3 1.7 -0.3
v -0.3 1.8 -0.3
v -0.2 0.8 -0.3
v -0.2 1 -0.3
v -0.2 1.1 -0.3
v -0.2 1.2 -0.3
v -0.1 0.6 -0.3
v -0.1 0.8 -0.3
v -0.1 0.9 -0.3
v -0.1 1.1 -0.3
v 0.1 0.6 -0.3
v 0.1 0.8 -0.3
v 0.1 0.9 -0.3
v 0.1 1.1 -0.3
v 0.2 0.8 -0.3
v 0.2 0.9 -0.3
v 0.2 1 -0.3
v 0.2 1.1 -0.3
v 0.2 1.2 -0.3
v 0.3 1 -0.3
v 0.3 1.2 -0.3
v 0.3 1.5 -0.3
v 0.3 1.6 -0.3
v 0.3 1.7 -0.3
v 0.3 1.8 -0.3
v 0.4 1.3 -0.3
v 0.4 1.4 -0.3
v 0.4 1.5 -0.3
v 0.4 1.6 -0.3
v 0.4 1.7 -0.3
v 0.4 1.8 -0.3
v 0.5 1.3 -0.3
v 0.5 1.4 -0.3
v -0.5 1.5 -0.4
v -0.5 1.6 -0.4
v -0.5 1.7 -0.4
v -0.4 1.3 -0.4
v -0.4 1.4 -0.4
v -0.4 1.5 -0.4
v -0.4 1.6 -0.4
v -0.4 1.7 -0.4
v -0.4 1.8 -0.4
v -0.4 1.9 -0.4
v -0.4 2 -0.4
v -0.3 1.2 -0.4
v -0.3 1.3 -0.4
v -0.3 1.4 -0.4
v -0.3 1.5 -0.4
v -0.3 1.8 -0.4
v -0.3 1.9 -0.4
v -0.3 2 -0.4
v -0.2 1.1 -0.4
v -0.2 1.2 -0.4
v -0.1 0.9 -0.4
v -0.1 1.1 -0.4
v -0.1 1.2 -0.4
v -0.1 1.3 -0.4
v 0 1.1 -0.4
v 0 1.2 -0.4
v 0.1 0.9 -0.4
v 0.1 1.1 -0.4
v 0.1 1.2 -0.4
v 0.1 1.3 -0.4
v 0.2 1.1 -0.4
v 0.2 1.2 -0.4
v 0.3 1.2 -0.4
v 0.3 1.3 -0.4
v 0.3 1.4 -0.4
v 0.3 1.5 -0.4
v 0.3 1.8 -0.4
v 0.3 2 -0.4
v 0.4 1.3 -0.4
v 0.4 1.4 -0.4
v 0.4 1.5 -0.4
v 0.4 1.6 -0.4
v 0.4 1.7 -0.4
v 0.4 1.8 -0.4
v 0.4 2 -0.4
v 0.5 1.4 -0.4
v 0.5 1.6 -0.4
v 0.5 1.7 -0.4
v -0.4 1.5 -0.5
v -0.4 1.6 -0.5
v -0.4 1.7 -0.5
v -0.4 2 -0.5
v -0.4 2.2 -0.5
v -0.4 2.3 -0.5
v -0.3 1.3 -0.5
v -0.3 1.4 -0.5
v -0.3 1.5 -0.5
v -0.3 1.6 -0.5
v -0.3 1.7 -0.5
v -0.3 2 -0.5
v -0.3 2.1 -0.5
v -0.3 2.2 -0.5
v -0.3 2.3 -0.5
v -0.3 2.4 -0.5
v -0.3 2.5 -0.5
v -0.2 1.4 -0.5
v -0.2 1.5 -0.5
v -0.2 1.6 -0.5
v -0.2 1.7 -0.5
v -0.2 1.9 -0.5
v -0.2 2 -0.5
v -0.2 2.4 -0.5
v -0.2 2.5 -0.5
v -0.2 2.6 -0.5
v -0.1 1.2 -0.5
v -0.1 1.3 -0.5
v -0.1 1.4 -0.5
v -0.1 1.5 -0.5
v -0.1 1.6 -0.5
v -0.1 1.7 -0.5
v -0.1 1.8 -0.5
v -0.1 1.9 -0.5
v -0.1 2.5 -0.5
v -0.1 2.6 -0.5
v 0.1 1.2 -0.5
v 0.1 1.3 -0.5
v 0.1 1.4 -0.5
v 0.1 1.5 -0.5
v 0.1 1.6 -0.5
v 0.1 1.7 -0.5
v 0.1 1.8 -0.5
v 0.1 1.9 -0.5
v 0.1 2.5 -0.5
v 0.1 2.6 -0.5
v 0.2 1.4 -0.5
v 0.2 1.5 -0.5
v 0.2 1.6 -0.5
v 0.2 1.7 -0.5
v 0.2 1.8 -0.5
v 0.2 1.9 -0.5
v 0.2 2 -0.5
v 0.2 2.4 -0.5
v 0.2 2.5 -0.5
v 0.2 2.6 -0.5
v 0.3 1.3 -0.5
v 0.3 1.4 -0.5
v 0.3 1.5 -0.5
v 0.3 1.6 -0.5
v 0.3 1.7 -0.5
v 0.3 2 -0.5
v 0.3 2.1 -0.5
v 0.3 2.2 -0.5
v 0.3 2.3 -0.5
v 0.3 2.4 -0.5
v 0.3 2.5 -0.5
v 0.4 1.5 -0.5
v 0.4 1.6 -0.5
v 0.4 1.7 -0.5
v 0.4 2 -0.5
v 0.4 2.2 -0.5
v 0.4 2.3 -0.5
v -0.3 1.5 -0.6
v -0.3 1.6 -0.6
v -0.3 1.7 -0.6
v -0.3 2 -0.6
v -0.3 2.1 -0.6
v -0.3 2.4 -0.6
v -0.2 1.4 -0.6
v -0.2 1.5 -0.6
v -0.2 1.6 -0.6
v -0.2 1.7 -0.6
v -0.2 1.9 -0.6
v -0.2 2 -0.6
v -0.2 2.1 -0.6
v -0.2 2.3 -0.6
v -0.2 2.4 -0.6
v -0.2 2.5 -0.6
v -0.1 1.3 -0.6
v -0.1 1.4 -0.6
v -0.1 1.5 -0.6
v -0.1 1.7 -0.6
v -0.1 1.8 -0.6
v -0.1 1.9 -0.6
v -0.1 2 -0.6
v -0.1 2.1 -0.6
v -0.1 2.4 -0.6
v -0.1 2.5 -0.6
v -0.1 2.6 -0.6
v 0 2.5 -0.6
v 0.1 1.3 -0.6
v 0.1 1.4 -0.6
v 0.1 1.5 -0.6
v 0.1 1.7 -0.6
v 0.1 1.8 -0.6
v 0.1 1.9 -0.6
v 0.1 2 -0.6
v 0.1 2.1 -0.6
v 0.1 2.4 -0.6
v 0.1 2.5 -0.6
v 0.1 2.6 -0.6
v 0.2 1.4 -0.6
v 0.2 1.5 -0.6
v 0.2 1.6 -0.6
v 0.2 1.7 -0.6
v 0.2 1.9 -0.6
v 0.2 2 -0.6
v 0.2 2.1 -0.6
v 0.2 2.3 -0.6
v 0.2 2.4 -0.6
v 0.2 2.5 -0.6
v 0.3 1.5 -0.6
v 0.3 1.6 -0.6
v 0.3 1.7 -0.6
v 0.3 2 -0.6
v 0.3 2.1 -0.6
v 0.3 2.3 -0.6
v 0.3 2.4 -0.6
v -0.2 1.5 -0.7
v -0.2 1.6 -0.7
v -0.2 1.7 -0.7
v -0.2 2.1 -0.7
v -0.2 2.3 -0.7
v -0.2 2.4 -0.7
v -0.1 1.4 -0.7
v -0.1 1.5 -0.7
v -0.1 1.6 -0.7
v -0.1 2 -0.7
v -0.1 2.1 -0.7
v -0.1 2.2 -0.7
v -0.1 2.3 -0.7
v -0.1 2.4 -0.7
v -0.1 2.5 -0.7
v 0 2.2 -0.7
v 0 2.4 -0.7
v 0 2.5 -0.7
v 0.1 1.4 -0.7
v 0.1 1.5 -0.7
v 0.1 1.6 -0.7
v 0.1 2 -0.7
v 0.1 2.1 -0.7
v 0.1 2.3 -0.7
v 0.1 2.4 -0.7
v 0.1 2.5 -0.7
v 0.2 1.5 -0.7
v 0.2 1.6 -0.7
v 0.2 1.7 -0.7
v 0.2 2.1 -0.7
v 0.2 2.3 -0.7
v 0.2 2.4 -0.7
v -0.1 0 0.4
v 0.1 0 0.4
v -0.1 0 0.1
v 0.1 0 0.1
v -0.2 0.1 0.3
v -0.1 0.1 0.3
v 0.1 0.1 0.3
v 0.2 0.1 0.3
v -0.2 0.1 0.1
v -0.1 0.1 0.1
v 0 0.1 0.1
v 0.1 0.1 0.1
v 0.2 0.1 0.1
v -0.1 0.1 0
v 0 0.1 0
v 0.1 0.1 0
v -0.3 0.2 0.2
v -0.2 0.2 0.2
v 0.2 0.2 0.2
v 0.3 0.2 0.2
v -0.3 0.2 0.1
v -0.2 0.2 0.1
v -0.1 0.2 0.1
v 0.1 0.2 0.1
v 0.2 0.2 0.1
v 0.3 0.2 0.1
v -0.2 0.2 0
v -0.1 0.2 0
v 0 0.2 0
v 0.1 0.2 0
v 0.2 0.2 0
v -0.1 0.2 -0.1
v 0 0.2 -0.1
v 0.1 0.2 -0.1
v -0.3 0.4 0.1
v -0.2 0.4 0.1
v 0.2 0.4 0.1
v 0.3 0.4 0.1
v -0.3 0.4 0
v -0.2 0.4 0
v -0.1 0.4 0
v 0.1 0.4 0
v 0.2 0.4 0
v 0.3 0.4 0
v -0.2 0.4 -0.1
v -0.1 0.4 -0.1
v 0.1 0.4 -0.1
v 0.2 0.4 -0.1
v -0.1 0.4 -0.2
v 0.1 0.4 -0.2
v -0.3 0.6 0
v -0.2 0.6 0
v 0.2 0.6 0
v 0.3 0.6 0
v -0.3 0.6 -0.1
v -0.2 0.6 -0.1
v -0.1 0.6 -0.1
v 0.1 0.6 -0.1
v 0.2 0.6 -0.1
v 0.3 0.6 -0.1
v -0.2 0.6 -0.2
v -0.1 0.6 -0.2
v 0.1 0.6 -0.2
v 0.2 0.6 -0.2
v -0.1 0.6 -0.3
v 0.1 0.6 -0.3
v -0.3 0.8 -0.1
v -0.2 0.8 -0.1
v 0.2 0.8 -0.1
v 0.3 0.8 -0.1
v -0.3 0.8 -0.2
v -0.2 0.8 -0.2
v -0.1 0.8 -0.2
v 0.1 0.8 -0.2
v 0.2 0.8 -0.2
v 0.3 0.8 -0.2
v -0.2 0.8 -0.3
v -0.1 0.8 -0.3
v 0.1 0.8 -0.3
v 0.2 0.8 -0.3
v -0.4 0.9 0
v -0.3 0.9 0
v 0.3 0.9 0
v 0.4 0.9 0
v -0.4 0.9 -0.1
v -0.3 0.9 -0.1
v 0.3 0.9 -0.1
v 0.4 0.9 -0.1
v -0.1 0.9 -0.3
v 0.1 0.9 -0.3
v -0.1 0.9 -0.4
v 0.1 0.9 -0.4
v -0.3 1 -0.2
v -0.2 1 -0.2
v 0.2 1 -0.2
v 0.3 1 -0.2
v -0.3 1 -0.3
v -0.2 1 -0.3
v 0.2 1 -0.3
v 0.3 1 -0.3
v -0.1 1.1 0.8
v 0.1 1.1 0.8
v -0.1 1.1 0.7
v 0.1 1.1 0.7
v -0.4 1.1 -0.1
v -0.3 1.1 -0.1
v 0.3 1.1 -0.1
v 0.4 1.1 -0.1
v -0.4 1.1 -0.2
v -0.3 1.1 -0.2
v 0.3 1.1 -0.2
v 0.4 1.1 -0.2
v -0.2 1.1 -0.3
v -0.1 1.1 -0.3
v 0.1 1.1 -0.3
v 0.2 1.1 -0.3
v -0.2 1.1 -0.4
v -0.1 1.1 -0.4
v 0.1 1.1 -0.4
v 0.2 1.1 -0.4
v -0.2 1.2 0.8
v -0.1 1.2 0.8
v 0.1 1.2 0.8
v 0.2 1.2 0.8
v -0.2 1.2 0.7
v -0.1 1.2 0.7
v 0.1 1.2 0.7
v 0.2 1.2 0.7
v -0.1 1.2 0.6
v 0.1 1.2 0.6
v -0.3 1.2 -0.3
v -0.2 1.2 -0.3
v 0.2 1.2 -0.3
v 0.3 1.2 -0.3
v -0.3 1.2 -0.4
v -0.2 1.2 -0.4
v -0.1 1.2 -0.4
v 0 1.2 -0.4
v 0.1 1.2 -0.4
v 0.2 1.2 -0.4
v 0.3 1.2 -0.4
v -0.1 1.2 -0.5
v 0.1 1.2 -0.5
v -0.3 1.3 0.8
v -0.2 1.3 0.8
v 0.2 1.3 0.8
v 0.3 1.3 0.8
v -0.3 1.3 0.7
v -0.2 1.3 0.7
v -0.1 1.3 0.7
v 0.1 1.3 0.7
v 0.2 1.3 0.7
v 0.3 1.3 0.7
v -0.2 1.3 0.6
v -0.1 1.3 0.6
v 0.1 1.3 0.6
v 0.2 1.3 0.6
v -0.2 1.3 0.3
v 0.2 1.3 0.3
v -0.3 1.3 0.2
v -0.2 1.3 0.2
v 0.2 1.3 0.2
v 0.3 1.3 0.2
v -0.4 1.3 0.1
v -0.3 1.3 0.1
v -0.2 1.3 0.1
v 0.2 1.3 0.1
v 0.3 1.3 0.1
v 0.4 1.3 0.1
v -0.5 1.3 0
v -0.4 1.3 0
v -0.3 1.3 0
v 0.3 1.3 0
v 0.4 1.3 0
v 0.5 1.3 0
v -0.5 1.3 -0.1
v -0.4 1.3 -0.1
v 0.4 1.3 -0.1
v 0.5 1.3 -0.1
v -0.4 1.3 -0.2
v -0.3 1.3 -0.2
v 0.4 1.3 -0.2
v -0.5 1.3 -0.3
v -0.4 1.3 -0.3
v -0.3 1.3 -0.3
v 0.3 1.3 -0.3
v 0.4 1.3 -0.3
v 0.5 1.3 -0.3
v -0.4 1.3 -0.4
v -0.3 1.3 -0.4
v -0.1 1.3 -0.4
v 0.1 1.3 -0.4
v 0.3 1.3 -0.4
v 0.4 1.3 -0.4
v -0.3 1.3 -0.5
v -0.1 1.3 -0.5
v 0.1 1.3 -0.5
v 0.3 1.3 -0.5
v -0.1 1.3 -0.6
v 0.1 1.3 -0.6
v -0.4 1.4 0.8
v -0.3 1.4 0.8
v 0.3 1.4 0.8
v 0.4 1.4 0.8
v -0.4 1.4 0.7
v -0.3 1.4 0.7
v -0.2 1.4 0.7
v 0.2 1.4 0.7
v 0.3 1.4 0.7
v 0.4 1.4 0.7
v -0.3 1.4 0.6
v -0.2 1.4 0.6
v -0.1 1.4 0.6
v 0.1 1.4 0.6
v 0.2 1.4 0.6
v 0.3 1.4 0.6
v -0.3 1.4 0.3
v -0.2 1.4 0.3
v -0.1 1.4 0.3
v 0.1 1.4 0.3
v 0.2 1.4 0.3
v 0.3 1.4 0.3
v -0.4 1.4 0.2
v -0.3 1.4 0.2
v -0.2 1.4 0.2
v 0.2 1.4 0.2
v 0.3 1.4 0.2
v 0.4 1.4 0.2
v -0.5 1.4 0.1
v -0.4 1.4 0.1
v -0.3 1.4 0.1
v 0.3 1.4 0.1
v 0.4 1.4 0.1
v 0.5 1.4 0.1
v -0.5 1.4 0
v -0.4 1.4 0
v 0.4 1.4 0
v 0.5 1.4 0
v 0.3 1.4 -0.2
v 0.4 1.4 -0.2
v 0.3 1.4 -0.3
v 0.4 1.4 -0.3
v 0.5 1.4 -0.3
v 0.4 1.4 -0.4
v 0.5 1.4 -0.4
v -0.2 1.4 -0.5
v -0.1 1.4 -0.5
v 0.1 1.4 -0.5
v 0.2 1.4 -0.5
v -0.2 1.4 -0.6
v -0.1 1.4 -0.6
v 0.1 1.4 -0.6
v 0.2 1.4 -0.6
v -0.1 1.4 -0.7
v 0.1 1.4 -0.7
v -0.2 1.5 0.6
v -0.1 1.5 0.6
v 0.1 1.5 0.6
v 0.2 1.5 0.6
v -0.2 1.5 0.3
v -0.1 1.5 0.3
v 0.1 1.5 0.3
v 0.2 1.5 0.3
v -0.5 1.5 -0.3
v -0.4 1.5 -0.3
v -0.5 1.5 -0.4
v -0.4 1.5 -0.4
v -0.3 1.5 -0.4
v 0.3 1.5 -0.4
v 0.4 1.5 -0.4
v -0.4 1.5 -0.5
v -0.3 1.5 -0.5
v -0.2 1.5 -0.5
v 0.2 1.5 -0.5
v 0.3 1.5 -0.5
v 0.4 1.5 -0.5
v -0.3 1.5 -0.6
v -0.2 1.5 -0.6
v -0.1 1.5 -0.6
v 0.1 1.5 -0.6
v 0.2 1.5 -0.6
v 0.3 1.5 -0.6
v -0.2 1.5 -0.7
v -0.1 1.5 -0.7
v 0.1 1.5 -0.7
v 0.2 1.5 -0.7
v -0.2 1.6 0.2
v -0.1 1.6 0.2
v 0.1 1.6 0.2
v 0.2 1.6 0.2
v -0.2 1.6 0.1
v -0.1 1.6 0.1
v 0.1 1.6 0.1
v 0.2 1.6 0.1
v -0.4 1.6 0
v -0.3 1.6 0
v 0.3 1.6 0
v 0.4 1.6 0
v -0.4 1.6 -0.1
v -0.3 1.6 -0.1
v 0.3 1.6 -0.1
v 0.4 1.6 -0.1
v -0.4 1.6 -0.3
v -0.3 1.6 -0.3
v 0.3 1.6 -0.3
v 0.4 1.6 -0.3
v -0.4 1.6 -0.4
v -0.3 1.6 -0.4
v 0.3 1.6 -0.4
v 0.4 1.6 -0.4
v -0.2 1.6 -0.5
v -0.1 1.6 -0.5
v 0.1 1.6 -0.5
v 0.2 1.6 -0.5
v -0.2 1.6 -0.6
v -0.1 1.6 -0.6
v 0.1 1.6 -0.6
v 0.2 1.6 -0.6
v -0.4 1.8 -0.3
v -0.3 1.8 -0.3
v 0.3 1.8 -0.3
v 0.4 1.8 -0.3
v -0.4 1.8 -0.4
v -0.3 1.8 -0.4
v 0.3 1.8 -0.4
v 0.4 1.8 -0.4
v -0.2 1.9 -0.5
v -0.1 1.9 -0.5
v 0.1 1.9 -0.5
v 0.2 1.9 -0.5
v -0.2 1.9 -0.6
v -0.1 1.9 -0.6
v 0.1 1.9 -0.6
v 0.2 1.9 -0.6
v -0.4 2 -0.4
v -0.3 2 -0.4
v 0.3 2 -0.4
v 0.4 2 -0.4
v -0.4 2 -0.5
v -0.3 2 -0.5
v -0.2 2 -0.5
v 0.2 2 -0.5
v 0.3 2 -0.5
v 0.4 2 -0.5
v -0.3 2 -0.6
v -0.2 2 -0.6
v -0.1 2 -0.6
v 0.1 2 -0.6
v 0.2 2 -0.6
v 0.3 2 -0.6
v -0.1 2 -0.7
v 0.1 2 -0.7
v -0.2 2.1 -0.6
v -0.1 2.1 -0.6
v 0.1 2.1 -0.6
v 0.2 2.1 -0.6
v -0.2 2.1 -0.7
v -0.1 2.1 -0.7
v 0.1 2.1 -0.7
v 0.2 2.1 -0.7
v -0.3 0.4 0.2
v -0.2 0.4 0.2
v 0.2 0.4 0.2
v 0.3 0.4 0.2
v -0.3 0.4 0.1
v -0.2 0.4 0.1
v 0.2 0.4 0.1
v 0.3 0.4 0.1
v -0.2 0.5 0.3
v -0.1 0.5 0.3
v 0.1 0.5 0.3
v 0.2 0.5 0.3
v -0.2 0.5 0.2
v -0.1 0.5 0.2
v 0.1 0.5 0.2
v 0.2 0.5 0.2
v -0.1 0.6 0.4
v 0.1 0.6 0.4
v -0.1 0.6 0.3
v 0.1 0.6 0.3
v -0.1 1.1 0.3
v 0 1.1 0.3
v 0.1 1.1 0.3
v -0.1 1.1 0.2
v 0 1.1 0.2
v 0.1 1.1 0.2
v -0.2 1.4 0.2
v -0.1 1.4 0.2
v 0.1 1.4 0.2
v 0.2 1.4 0.2
v -0.2 1.4 0.1
v -0.1 1.4 0.1
v 0.1 1.4 0.1
v 0.2 1.4 0.1
v -0.4 1.4 0
v -0.3 1.4 0
v 0.3 1.4 0
v 0.4 1.4 0
v -0.4 1.4 -0.1
v -0.3 1.4 -0.1
v 0.3 1.4 -0.1
v 0.4 1.4 -0.1
v -0.4 1.5 -0.3
v -0.3 1.5 -0.3
v 0.3 1.5 -0.3
v 0.4 1.5 -0.3
v -0.4 1.5 -0.4
v -0.3 1.5 -0.4
v 0.3 1.5 -0.4
v 0.4 1.5 -0.4
v -0.2 1.5 -0.5
v -0.1 1.5 -0.5
v 0.1 1.5 -0.5
v 0.2 1.5 -0.5
v -0.2 1.5 -0.6
v -0.1 1.5 -0.6
v 0.1 1.5 -0.6
v 0.2 1.5 -0.6
v -0.2 1.6 0.6
v -0.1 1.6 0.6
v 0.1 1.6 0.6
v 0.2 1.6 0.6
v -0.3 1.6 0.3
v -0.2 1.6 0.3
v -0.1 1.6 0.3
v 0.1 1.6 0.3
v 0.2 1.6 0.3
v 0.3 1.6 0.3
v -0.4 1.6 0.2
v -0.3 1.6 0.2
v -0.2 1.6 0.2
v 0.2 1.6 0.2
v 0.3 1.6 0.2
v 0.4 1.6 0.2
v -0.5 1.6 0.1
v -0.4 1.6 0.1
v -0.3 1.6 0.1
v 0.3 1.6 0.1
v 0.4 1.6 0.1
v 0.5 1.6 0.1
v -0.5 1.6 0
v -0.4 1.6 0
v 0.4 1.6 0
v 0.5 1.6 0
v -0.1 1.7 0.6
v 0.1 1.7 0.6
v -0.2 1.7 0.3
v -0.1 1.7 0.3
v 0.1 1.7 0.3
v 0.2 1.7 0.3
v -0.3 1.7 0.2
v -0.2 1.7 0.2
v -0.1 1.7 0.2
v 0.1 1.7 0.2
v 0.2 1.7 0.2
v 0.3 1.7 0.2
v -0.4 1.7 0.1
v -0.3 1.7 0.1
v -0.2 1.7 0.1
v 0.2 1.7 0.1
v 0.3 1.7 0.1
v 0.4 1.7 0.1
v -0.5 1.7 0
v -0.4 1.7 0
v -0.3 1.7 0
v 0.3 1.7 0
v 0.4 1.7 0
v 0.5 1.7 0
v 0.4 1.7 -0.2
v -0.4 1.7 -0.3
v -0.3 1.7 -0.3
v 0.3 1.7 -0.3
v 0.4 1.7 -0.3
v -0.5 1.7 -0.4
v -0.4 1.7 -0.4
v -0.3 1.7 -0.4
v 0.3 1.7 -0.4
v 0.4 1.7 -0.4
v 0.5 1.7 -0.4
v -0.4 1.7 -0.5
v -0.3 1.7 -0.5
v -0.2 1.7 -0.5
v -0.1 1.7 -0.5
v 0.1 1.7 -0.5
v 0.2 1.7 -0.5
v 0.3 1.7 -0.5
v 0.4 1.7 -0.5
v -0.3 1.7 -0.6
v -0.2 1.7 -0.6
v -0.1 1.7 -0.6
v 0.1 1.7 -0.6
v 0.2 1.7 -0.6
v 0.3 1.7 -0.6
v -0.2 1.7 -0.7
v 0.2 1.7 -0.7
v -0.4 1.8 0.8
v -0.3 1.8 0.8
v 0.3 1.8 0.8
v 0.4 1.8 0.8
v -0.4 1.8 0.7
v -0.3 1.8 0.7
v -0.2 1.8 0.7
v 0.2 1.8 0.7
v 0.3 1.8 0.7
v 0.4 1.8 0.7
v -0.3 1.8 0.6
v -0.2 1.8 0.6
v 0.2 1.8 0.6
v 0.3 1.8 0.6
v -0.4 1.8 0
v -0.3 1.8 0
v 0.3 1.8 0
v 0.4 1.8 0
v -0.4 1.8 -0.1
v -0.3 1.8 -0.1
v 0.3 1.8 -0.1
v 0.4 1.8 -0.1
v -0.3 1.9 0.8
v -0.2 1.9 0.8
v 0.2 1.9 0.8
v 0.3 1.9 0.8
v -0.3 1.9 0.7
v -0.2 1.9 0.7
v -0.1 1.9 0.7
v 0.1 1.9 0.7
v 0.2 1.9 0.7
v 0.3 1.9 0.7
v -0.2 1.9 0.6
v -0.1 1.9 0.6
v 0.1 1.9 0.6
v 0.2 1.9 0.6
v -0.3 1.9 0.1
v -0.2 1.9 0.1
v 0.2 1.9 0.1
v 0.3 1.9 0.1
v -0.3 1.9 0
v -0.2 1.9 0
v 0.2 1.9 0
v 0.3 1.9 0
v -0.2 2 0.8
v -0.1 2 0.8
v 0.1 2 0.8
v 0.2 2 0.8
v -0.2 2 0.7
v -0.1 2 0.7
v 0.1 2 0.7
v 0.2 2 0.7
v -0.1 2 0.6
v 0.1 2 0.6
v -0.2 2 0.1
v -0.1 2 0.1
v 0.1 2 0.1
v 0.2 2 0.1
v -0.3 2 0
v -0.2 2 0
v -0.1 2 0
v 0.1 2 0
v 0.2 2 0
v 0.3 2 0
v -0.4 2 -0.1
v -0.3 2 -0.1
v -0.2 2 -0.1
v 0.2 2 -0.1
v 0.3 2 -0.1
v 0.4 2 -0.1
v -0.4 2 -0.2
v -0.3 2 -0.2
v 0.3 2 -0.2
v 0.4 2 -0.2
v -0.1 2.1 0.8
v 0.1 2.1 0.8
v -0.1 2.1 0.7
v 0.1 2.1 0.7
v -0.1 2.1 0.1
v 0.1 2.1 0.1
v -0.1 2.1 0
v 0.1 2.1 0
v -0.2 2.2 0
v -0.1 2.2 0
v 0.1 2.2 0
v 0.2 2.2 0
v -0.3 2.2 -0.1
v -0.2 2.2 -0.1
v -0.1 2.2 -0.1
v 0.1 2.2 -0.1
v 0.2 2.2 -0.1
v 0.3 2.2 -0.1
v -0.4 2.2 -0.2
v -0.3 2.2 -0.2
v -0.2 2.2 -0.2
v 0.2 2.2 -0.2
v 0.3 2.2 -0.2
v 0.4 2.2 -0.2
v -0.4 2.2 -0.3
v -0.3 2.2 -0.3
v 0.3 2.2 -0.3
v 0.4 2.2 -0.3
v -0.1 2.3 0
v 0.1 2.3 0
v -0.1 2.3 -0.1
v 0.1 2.3 -0.1
v -0.4 2.3 -0.3
v -0.3 2.3 -0.3
v 0.3 2.3 -0.3
v 0.4 2.3 -0.3
v -0.4 2.3 -0.4
v -0.3 2.3 -0.4
v 0.3 2.3 -0.4
v -0.4 2.3 -0.5
v -0.3 2.3 -0.5
v 0.3 2.3 -0.5
v 0.4 2.3 -0.5
v -0.2 2.4 -0.1
v -0.1 2.4 -0.1
v 0.1 2.4 -0.1
v 0.2 2.4 -0.1
v -0.3 2.4 -0.2
v -0.2 2.4 -0.2
v -0.1 2.4 -0.2
v 0.1 2.4 -0.2
v 0.2 2.4 -0.2
v 0.3 2.4 -0.2
v -0.3 2.4 -0.3
v -0.2 2.4 -0.3
v 0.2 2.4 -0.3
v 0.3 2.4 -0.3
v -0.3 2.4 -0.5
v -0.2 2.4 -0.5
v 0.2 2.4 -0.5
v 0.3 2.4 -0.5
v -0.3 2.4 -0.6
v -0.2 2.4 -0.6
v -0.1 2.4 -0.6
v 0.1 2.4 -0.6
v 0.2 2.4 -0.6
v 0.3 2.4 -0.6
v -0.2 2.4 -0.7
v -0.1 2.4 -0.7
v 0.1 2.4 -0.7
v 0.2 2.4 -0.7
v -0.1 2.5 -0.1
v 0 2.5 -0.1
v 0.1 2.5 -0.1
v -0.2 2.5 -0.2
v -0.1 2.5 -0.2
v 0 2.5 -0.2
v 0.1 2.5 -0.2
v 0.2 2.5 -0.2
v -0.3 2.5 -0.3
v -0.2 2.5 -0.3
v -0.1 2.5 -0.3
v 0.1 2.5 -0.3
v 0.2 2.5 -0.3
v 0.3 2.5 -0.3
v -0.3 2.5 -0.4
v -0.2 2.5 -0.4
v -0.3 2.5 -0.5
v -0.2 2.5 -0.5
v -0.1 2.5 -0.5
v 0.1 2.5 -0.5
v 0.2 2.5 -0.5
v 0.3 2.5 -0.5
v -0.2 2.5 -0.6
v -0.1 2.5 -0.6
v 0 2.5 -0.6
v 0.1 2.5 -0.6
v 0.2 2.5 -0.6
v -0.1 2.5 -0.7
v 0 2.5 -0.7
v 0.1 2.5 -0.7
v -0.1 2.6 -0.2
v 0.1 2.6 -0.2
v -0.2 2.6 -0.3
v -0.1 2.6 -0.3
v 0.1 2.6 -0.3
v 0.2 2.6 -0.3
v -0.2 2.6 -0.5
v -0.1 2.6 -0.5
v 0.1 2.6 -0.5
v 0.2 2.6 -0.5
v -0.1 2.6 -0.6
v 0.1 2.6 -0.6

# faces
f 5/4/1 2/4/1 1/4/1
f 6/5/1 3/5/1 2/5/1
f 6/4/1 2/4/1 5/4/1
f 7/5/1 3/5/1 6/5/1
f 8/5/1 5/5/1 4/5/1
f 9/7/1 6/7/1 5/7/1
f 9/5/1 5/5/1 8/5/1
f 9/7/1 7/7/1 6/7/1
f 10/7/1 7/7/1 9/7/1
f 11/7/1 7/7/1 10/7/1
f 13/7/1 9/7/1 8/7/1
f 13/7/1 10/7/1 9/7/1
f 14/7/1 10/7/1 13/7/1
f 15/6/1 11/6/1 10/6/1
f 15/7/1 10/7/1 14/7/1
f 16/7/1 12/7/1 11/7/1
f 16/6/1 11/6/1 15/6/1
f 17/7/1 12/7/1 16/7/1
f 18/6/1 15/6/1 14/6/1
f 18/6/1 17/6/1 16/6/1
f 18/6/1 16/6/1 15/6/1
f 19/6/1 17/6/1 18/6/1
f 22/1/1 21/1/1 20/1/1
f 25/1/1 22/1/1 20/1/1
f 26/3/1 23/3/1 22/3/1
f 26/1/1 22/1/1 25/1/1
f 27/3/1 23/3/1 26/3/1
f 33/4/1 25/4/1 24/4/1
f 34/4/1 25/4/1 33/4/1
f 35/4/1 29/4/1 28/4/1
f 36/4/1 29/4/1 35/4/1
f 37/7/1 33/7/1 32/7/1
f 38/7/1 33/7/1 37/7/1
f 39/5/1 36/5/1 35/5/1
f 40/5/1 36/5/1 39/5/1
f 42/6/1 38/6/1 37/6/1
f 43/6/1 38/6/1 42/6/1
f 45/7/1 41/7/1 40/7/1
f 46/7/1 41/7/1 45/7/1
f 47/6/1 44/6/1 43/6/1
f 48/6/1 44/6/1 47/6/1
f 50/6/1 46/6/1 45/6/1
f 51/6/1 46/6/1 50/6/1
f 52/5/1 31/5/1 30/5/1
f 53/5/1 31/5/1 52/5/1
f 54/3/1 49/3/1 48/3/1
f 55/3/1 49/3/1 54/3/1
f 56/3/1 49/3/1 55/3/1
f 58/3/1 57/3/1 56/3/1
f 58/3/1 56/3/1 55/3/1
f 59/3/1 57/3/1 58/3/1
f 60/3/1 57/3/1 59/3/1
f 61/3/1 57/3/1 60/3/1
f 62/1/1 59/1/1 58/1/1
f 63/3/1 60/3/1 59/3/1
f 63/1/1 59/1/1 62/1/1
f 64/1/1 61/1/1 60/1/1
f 64/3/1 60/3/1 63/3/1
f 65/1/1 61/1/1 64/1/1
f 67/1/1 64/1/1 63/1/1
f 68/3/1 65/3/1 64/3/1
f 68/1/1 64/1/1 67/1/1
f 69/1/1 66/1/1 65/1/1
f 69/3/1 65/3/1 68/3/1
f 70/1/1 66/1/1 69/1/1
f 71/1/1 69/1/1 68/1/1
f 72/3/1 70/3/1 69/3/1
f 72/1/1 69/1/1 71/1/1
f 73/3/1 70/3/1 72/3/1
f 76/3/1 75/3/1 74/3/1
f 77/3/1 75/3/1 76/3/1
f 78/1/1 77/1/1 76/1/1
f 79/1/1 77/1/1 78/1/1
f 81/1/1 80/1/1 79/1/1
f 83/1/1 81/1/1 79/1/1
f 83/3/1 82/3/1 81/3/1
f 84/3/1 82/3/1 83/3/1
f 85/1/1 83/1/1 79/1/1
f 85/1/1 84/1/1 83/1/1
f 86/1/1 84/1/1 85/1/1
f 87/1/1 84/1/1 86/1/1
f 89/1/1 87/1/1 86/1/1
f 89/3/1 86/3/1 85/3/1
f 90/3/1 88/3/1 87/3/1
f 90/1/1 87/1/1 89/1/1
f 91/3/1 89/3/1 85/3/1
f 92/3/1 89/3/1 91/3/1
f 93/3/1 88/3/1 90/3/1
f 95/3/1 93/3/1 90/3/1
f 95/3/1 94/3/1 93/3/1
f 96/3/1 94/3/1 95/3/1
f 97/3/1 94/3/1 96/3/1
f 102/1/1 92/1/1 91/1/1
f 103/1/1 92/1/1 102/1/1
f 104/3/1 97/3/1 96/3/1
f 104/3/1 98/3/1 97/3/1
f 105/3/1 98/3/1 104/3/1
f 106/3/1 98/3/1 105/3/1
f 108/4/1 100/4/1 99/4/1
f 109/4/1 100/4/1 108/4/1
f 112/4/1 102/4/1 101/4/1
f 113/4/1 102/4/1 112/4/1
f 116/4/1 107/4/1 106/4/1
f 117/4/1 107/4/1 116/4/1
f 118/5/1 112/5/1 111/5/1
f 119/5/1 112/5/1 118/5/1
f 121/5/1 117/5/1 116/5/1
f 122/5/1 117/5/1 121/5/1
f 124/5/1 110/5/1 109/5/1
f 125/5/1 110/5/1 124/5/1
f 126/7/1 119/7/1 118/7/1
f 127/7/1 119/7/1 126/7/1
f 129/3/1 115/3/1 114/3/1
f 130/3/1 115/3/1 129/3/1
f 131/3/1 121/3/1 120/3/1
f 132/3/1 121/3/1 131/3/1
f 133/7/1 123/7/1 122/7/1
f 134/7/1 123/7/1 133/7/1
f 135/7/1 125/7/1 124/7/1
f 136/7/1 125/7/1 135/7/1
f 137/7/1 128/7/1 127/7/1
f 138/7/1 128/7/1 137/7/1
f 142/6/1 134/6/1 133/6/1
f 143/6/1 134/6/1 142/6/1
f 145/6/1 136/6/1 135/6/1
f 146/6/1 136/6/1 145/6/1
f 147/3/1 139/3/1 138/3/1
f 148/3/1 139/3/1 147/3/1
f 150/3/1 142/3/1 141/3/1
f 150/3/1 141/3/1 140/3/1
f 151/3/1 142/3/1 150/3/1
f 152/7/1 145/7/1 144/7/1
f 153/7/1 145/7/1 152/7/1
f 154/1/1 149/1/1 148/1/1
f 154/1/1 148/1/1 147/1/1
f 155/1/1 149/1/1 154/1/1
f 156/1/1 149/1/1 155/1/1
f 157/3/1 142/3/1 151/3/1
f 158/1/1 156/1/1 155/1/1
f 159/1/1 156/1/1 158/1/1
f 161/3/1 142/3/1 157/3/1
f 162/3/1 142/3/1 161/3/1
f 164/3/1 163/3/1 162/3/1
f 165/3/1 163/3/1 164/3/1
f 166/1/1 160/1/1 159/1/1
f 167/1/1 160/1/1 166/1/1
f 169/1/1 165/1/1 164/1/1
f 170/1/1 168/1/1 167/1/1
f 172/1/1 165/1/1 169/1/1
f 173/1/1 171/1/1 170/1/1
f 173/1/1 170/1/1 167/1/1
f 174/1/1 171/1/1 173/1/1
f 175/3/1 172/3/1 171/3/1
f 175/1/1 171/1/1 174/1/1
f 176/1/1 165/1/1 172/1/1
f 176/3/1 172/3/1 175/3/1
f 177/1/1 165/1/1 176/1/1
f 178/2/1 175/2/1 174/2/1
f 179/1/1 176/1/1 175/1/1
f 179/2/1 175/2/1 178/2/1
f 180/1/1 176/1/1 179/1/1
f 183/3/1 182/3/1 181/3/1
f 184/3/1 182/3/1 183/3/1
f 186/3/1 183/3/1 181/3/1
f 187/3/1 183/3/1 186/3/1
f 188/3/1 185/3/1 184/3/1
f 189/1/1 187/1/1 186/1/1
f 190/1/1 187/1/1 189/1/1
f 191/3/1 185/3/1 188/3/1
f 192/3/1 185/3/1 191/3/1
f 194/3/1 190/3/1 189/3/1
f 195/1/1 191/1/1 190/1/1
f 195/3/1 190/3/1 194/3/1
f 196/1/1 191/1/1 195/1/1
f 197/3/1 193/3/1 192/3/1
f 198/3/1 193/3/1 197/3/1
f 200/3/1 199/3/1 198/3/1
f 201/3/1 196/3/1 195/3/1
f 202/3/1 196/3/1 201/3/1
f 203/3/1 199/3/1 200/3/1
f 204/3/1 199/3/1 203/3/1
f 206/1/1 202/1/1 201/1/1
f 207/1/1 205/1/1 204/1/1
f 208/1/1 205/1/1 207/1/1
f 213/1/1 206/1/1 201/1/1
f 214/1/1 206/1/1 213/1/1
f 215/3/1 210/3/1 209/3/1
f 216/3/1 210/3/1 215/3/1
f 217/4/1 212/4/1 211/4/1
f 218/4/1 212/4/1 217/4/1
f 221/3/1 214/3/1 213/3/1
f 222/3/1 214/3/1 221/3/1
f 223/5/1 219/5/1 218/5/1
f 224/5/1 219/5/1 223/5/1
f 225/4/1 221/4/1 220/4/1
f 226/4/1 221/4/1 225/4/1
f 231/5/1 228/5/1 227/5/1
f 232/5/1 228/5/1 231/5/1
f 234/7/1 230/7/1 229/7/1
f 235/7/1 230/7/1 234/7/1
f 237/7/1 233/7/1 232/7/1
f 238/7/1 233/7/1 237/7/1
f 239/7/1 236/7/1 235/7/1
f 240/7/1 236/7/1 239/7/1
f 241/6/1 238/6/1 237/6/1
f 242/6/1 238/6/1 241/6/1
f 246/6/1 244/6/1 243/6/1
f 247/6/1 244/6/1 246/6/1
f 252/7/1 246/7/1 245/7/1
f 253/7/1 246/7/1 252/7/1
f 254/1/1 249/1/1 248/1/1
f 255/1/1 249/1/1 254/1/1
f 257/3/1 251/3/1 250/3/1
f 258/3/1 251/3/1 257/3/1
f 259/1/1 256/1/1 255/1/1
f 260/1/1 256/1/1 259/1/1
f 263/3/1 260/3/1 259/3/1
f 264/3/1 260/3/1 263/3/1
f 266/3/1 262/3/1 261/3/1
f 267/3/1 262/3/1 266/3/1
f 268/1/1 265/1/1 264/1/1
f 269/1/1 265/1/1 268/1/1
f 272/1/1 267/1/1 266/1/1
f 273/1/1 267/1/1 272/1/1
f 274/2/1 270/2/1 269/2/1
f 275/2/1 270/2/1 274/2/1
f 277/1/1 272/1/1 271/1/1
f 278/1/1 272/1/1 277/1/1
f 279/2/1 276/2/1 275/2/1
f 279/2/1 277/2/1 276/2/1
f 280/2/1 277/2/1 279/2/1
f 283/3/1 282/3/1 281/3/1
f 284/3/1 282/3/1 283/3/1
f 286/3/1 283/3/1 281/3/1
f 287/3/1 283/3/1 286/3/1
f 288/3/1 285/3/1 284/3/1
f 289/3/1 285/3/1 288/3/1
f 291/1/1 287/1/1 286/1/1
f 292/1/1 287/1/1 291/1/1
f 293/3/1 290/3/1 289/3/1
f 294/3/1 290/3/1 293/3/1
f 295/3/1 292/3/1 291/3/1
f 296/1/1 294/1/1 293/1/1
f 297/1/1 294/1/1 296/1/1
f 299/3/1 295/3/1 291/3/1
f 300/3/1 295/3/1 299/3/1
f 302/1/1 300/1/1 299/1/1
f 303/3/1 301/3/1 300/3/1
f 303/1/1 300/1/1 302/1/1
f 304/3/1 301/3/1 303/3/1
f 305/1/1 298/1/1 297/1/1
f 306/1/1 298/1/1 305/1/1
f 308/1/1 304/1/1 303/1/1
f 309/1/1 307/1/1 306/1/1
f 310/1/1 307/1/1 309/1/1
f 313/1/1 308/1/1 303/1/1
f 314/1/1 308/1/1 313/1/1
f 317/3/1 314/3/1 313/3/1
f 318/3/1 314/3/1 317/3/1
f 319/3/1 312/3/1 311/3/1
f 320/3/1 312/3/1 319/3/1
f 321/4/1 316/4/1 315/4/1
f 322/4/1 316/4/1 321/4/1
f 326/5/1 323/5/1 322/5/1
f 327/5/1 323/5/1 326/5/1
f 328/3/1 325/3/1 324/3/1
f 329/3/1 325/3/1 328/3/1
f 335/5/1 330/5/1 329/5/1
f 336/5/1 330/5/1 335/5/1
f 338/5/1 332/5/1 331/5/1
f 339/5/1 332/5/1 338/5/1
f 340/3/1 334/3/1 333/3/1
f 342/7/1 337/7/1 336/7/1
f 343/7/1 337/7/1 342/7/1
f 346/3/1 334/3/1 340/3/1
f 347/3/1 334/3/1 346/3/1
f 348/3/1 342/3/1 341/3/1
f 349/3/1 342/3/1 348/3/1
f 350/7/1 345/7/1 344/7/1
f 351/7/1 345/7/1 350/7/1
f 354/3/1 353/3/1 352/3/1
f 355/3/1 353/3/1 354/3/1
f 358/1/1 355/1/1 354/1/1
f 359/1/1 355/1/1 358/1/1
f 361/6/1 357/6/1 356/6/1
f 362/6/1 357/6/1 361/6/1
f 367/6/1 361/6/1 360/6/1
f 368/6/1 361/6/1 367/6/1
f 369/1/1 364/1/1 363/1/1
f 370/1/1 364/1/1 369/1/1
f 371/1/1 366/1/1 365/1/1
f 372/1/1 366/1/1 371/1/1
f 375/1/1 374/1/1 373/1/1
f 376/1/1 374/1/1 375/1/1
f 381/2/1 378/2/1 377/2/1
f 382/2/1 378/2/1 381/2/1
f 385/1/1 380/1/1 379/1/1
f 386/1/1 380/1/1 385/1/1
f 387/2/1 383/2/1 382/2/1
f 388/2/1 383/2/1 387/2/1
f 389/2/1 385/2/1 384/2/1
f 390/2/1 385/2/1 389/2/1
f 393/4/1 392/4/1 391/4/1
f 396/4/1 392/4/1 393/4/1
f 397/4/1 392/4/1 396/4/1
f 398/7/1 395/7/1 394/7/1
f 399/7/1 395/7/1 398/7/1
f 404/7/1 401/7/1 400/7/1
f 405/7/1 401/7/1 404/7/1
f 408/7/1 403/7/1 402/7/1
f 409/7/1 403/7/1 408/7/1
f 410/7/1 407/7/1 406/7/1
f 411/7/1 407/7/1 410/7/1
f 412/7/2 413/7/2 416/7/2
f 416/7/2 413/7/2 417/7/2
f 414/7/2 415/7/2 418/7/2
f 418/7/2 415/7/2 419/7/2
f 420/4/2 421/4/2 422/4/2
f 422/4/2 421/4/2 425/4/2
f 425/4/2 421/4/2 426/4/2
f 423/7/2 424/7/2 427/7/2
f 427/7/2 424/7/2 428/7/2
f 429/3/2 430/3/2 431/3/2
f 431/3/2 430/3/2 432/3/2
f 429/3/2 431/3/2 434/3/2
f 434/3/2 431/3/2 435/3/2
f 432/1/2 433/1/2 436/1/2
f 436/1/2 433/1/2 437/1/2
f 437/1/2 438/1/2 439/1/2
f 434/1/2 435/1/2 440/1/2
f 439/1/2 438/1/2 441/1/2
f 441/1/2 438/1/2 442/1/2
f 434/1/2 440/1/2 444/1/2
f 442/1/2 443/1/2 446/1/2
f 434/1/2 444/1/2 447/1/2
f 444/3/2 445/3/2 448/3/2
f 447/1/2 444/1/2 448/1/2
f 448/3/2 445/3/2 449/3/2
f 446/1/2 443/1/2 450/1/2
f 450/1/2 443/1/2 451/1/2
f 451/1/2 452/1/2 453/1/2
f 453/1/2 452/1/2 454/1/2
f 448/1/2 449/1/2 457/1/2
f 448/1/2 457/1/2 460/1/2
f 460/1/2 457/1/2 461/1/2
f 455/3/2 456/3/2 462/3/2
f 462/3/2 456/3/2 463/3/2
f 458/4/2 459/4/2 464/4/2
f 464/4/2 459/4/2 465/4/2
f 465/5/2 466/5/2 469/5/2
f 469/5/2 466/5/2 470/5/2
f 467/3/2 468/3/2 471/3/2
f 471/3/2 468/3/2 472/3/2
f 472/5/2 473/5/2 478/5/2
f 478/5/2 473/5/2 479/5/2
f 474/5/2 475/5/2 481/5/2
f 481/5/2 475/5/2 482/5/2
f 476/3/2 477/3/2 483/3/2
f 479/7/2 480/7/2 485/7/2
f 485/7/2 480/7/2 486/7/2
f 483/3/2 477/3/2 489/3/2
f 489/3/2 477/3/2 490/3/2
f 484/3/2 485/3/2 491/3/2
f 491/3/2 485/3/2 492/3/2
f 487/7/2 488/7/2 493/7/2
f 493/7/2 488/7/2 494/7/2
f 495/3/2 496/3/2 497/3/2
f 497/3/2 496/3/2 498/3/2
f 497/1/2 498/1/2 501/1/2
f 501/1/2 498/1/2 502/1/2
f 499/6/2 500/6/2 504/6/2
f 504/6/2 500/6/2 505/6/2
f 503/6/2 504/6/2 510/6/2
f 510/6/2 504/6/2 511/6/2
f 506/1/2 507/1/2 512/1/2
f 512/1/2 507/1/2 513/1/2
f 508/1/2 509/1/2 514/1/2
f 514/1/2 509/1/2 515/1/2
f 516/1/2 517/1/2 518/1/2
f 518/1/2 517/1/2 519/1/2
f 520/1/2 521/1/2 524/1/2
f 524/1/2 521/1/2 525/1/2
f 522/2/2 523/2/2 528/2/2
f 528/2/2 523/2/2 529/2/2
f 525/2/2 526/2/2 530/2/2
f 530/2/2 526/2/2 531/2/2
f 527/2/2 528/2/2 532/2/2
f 532/2/2 528/2/2 533/2/2
f 534/3/2 535/3/2 536/3/2
f 536/3/2 535/3/2 537/3/2
f 537/3/2 538/3/2 539/3/2
f 539/3/2 538/3/2 540/3/2
f 534/3/2 536/3/2 541/3/2
f 541/3/2 536/3/2 542/3/2
f 539/1/2 540/1/2 543/1/2
f 543/1/2 540/1/2 544/1/2
f 541/1/2 542/1/2 546/1/2
f 542/3/2 543/3/2 547/3/2
f 546/1/2 542/1/2 547/1/2
f 544/1/2 545/1/2 548/1/2
f 548/1/2 545/1/2 549/1/2
f 548/3/2 549/3/2 550/3/2
f 550/3/2 549/3/2 551/3/2
f 551/3/2 552/3/2 553/3/2
f 553/3/2 552/3/2 554/3/2
f 554/3/2 555/3/2 556/3/2
f 556/3/2 555/3/2 557/3/2
f 547/3/2 543/3/2 558/3/2
f 558/3/2 543/3/2 559/3/2
f 556/1/2 557/1/2 560/1/2
f 560/1/2 557/1/2 561/1/2
f 558/1/2 559/1/2 562/1/2
f 558/1/2 562/1/2 567/1/2
f 567/1/2 562/1/2 568/1/2
f 563/1/2 564/1/2 569/1/2
f 569/1/2 564/1/2 570/1/2
f 565/4/2 566/4/2 571/4/2
f 571/4/2 566/4/2 572/4/2
f 567/3/2 568/3/2 575/3/2
f 575/3/2 568/3/2 576/3/2
f 572/5/2 573/5/2 577/5/2
f 577/5/2 573/5/2 578/5/2
f 574/4/2 575/4/2 579/4/2
f 579/4/2 575/4/2 580/4/2
f 581/5/2 582/5/2 585/5/2
f 585/5/2 582/5/2 586/5/2
f 583/7/2 584/7/2 588/7/2
f 588/7/2 584/7/2 589/7/2
f 586/7/2 587/7/2 591/7/2
f 591/7/2 587/7/2 592/7/2
f 589/7/2 590/7/2 593/7/2
f 593/7/2 590/7/2 594/7/2
f 591/6/2 592/6/2 595/6/2
f 595/6/2 592/6/2 596/6/2
f 597/6/2 598/6/2 600/6/2
f 600/6/2 598/6/2 601/6/2
f 599/7/2 600/7/2 606/7/2
f 606/7/2 600/7/2 607/7/2
f 602/1/2 603/1/2 608/1/2
f 608/1/2 603/1/2 609/1/2
f 604/1/2 605/1/2 611/1/2
f 611/1/2 605/1/2 612/1/2
f 609/1/2 610/1/2 613/1/2
f 613/1/2 610/1/2 614/1/2
f 613/3/2 614/3/2 617/3/2
f 617/3/2 614/3/2 618/3/2
f 618/3/2 619/3/2 620/3/2
f 620/3/2 619/3/2 621/3/2
f 615/1/2 616/1/2 622/1/2
f 622/1/2 616/1/2 623/1/2
f 620/1/2 621/1/2 624/1/2
f 624/1/2 621/1/2 625/1/2
f 622/3/2 623/3/2 628/3/2
f 628/3/2 623/3/2 629/3/2
f 625/2/2 626/2/2 630/2/2
f 630/2/2 626/2/2 631/2/2
f 627/1/2 628/1/2 632/1/2
f 632/1/2 628/1/2 633/1/2
f 631/2/2 632/2/2 634/2/2
f 634/2/2 632/2/2 635/2/2
f 636/1/2 637/1/2 638/1/2
f 638/1/2 637/1/2 639/1/2
f 639/1/2 640/1/2 641/1/2
f 641/3/2 642/3/2 643/3/2
f 639/1/2 641/1/2 645/1/2
f 641/3/2 643/3/2 645/3/2
f 643/1/2 644/1/2 646/1/2
f 645/3/2 643/3/2 646/3/2
f 646/1/2 644/1/2 647/1/2
f 639/1/2 645/1/2 649/1/2
f 649/1/2 645/1/2 650/1/2
f 647/1/2 648/1/2 651/1/2
f 646/1/2 647/1/2 651/1/2
f 651/1/2 648/1/2 652/1/2
f 649/3/2 650/3/2 653/3/2
f 652/1/2 648/1/2 654/1/2
f 654/1/2 648/1/2 655/1/2
f 649/3/2 653/3/2 660/3/2
f 660/3/2 653/3/2 661/3/2
f 654/1/2 655/1/2 662/1/2
f 655/3/2 656/3/2 663/3/2
f 662/1/2 655/1/2 663/1/2
f 663/3/2 656/3/2 664/3/2
f 657/4/2 658/4/2 666/4/2
f 666/4/2 658/4/2 667/4/2
f 659/4/2 660/4/2 670/4/2
f 670/4/2 660/4/2 671/4/2
f 662/3/2 663/3/2 674/3/2
f 674/3/2 663/3/2 675/3/2
f 664/4/2 665/4/2 676/4/2
f 676/4/2 665/4/2 677/4/2
f 669/5/2 670/5/2 678/5/2
f 678/5/2 670/5/2 679/5/2
f 676/5/2 677/5/2 681/5/2
f 681/5/2 677/5/2 682/5/2
f 667/5/2 668/5/2 684/5/2
f 684/5/2 668/5/2 685/5/2
f 678/7/2 679/7/2 686/7/2
f 686/7/2 679/7/2 687/7/2
f 672/3/2 673/3/2 689/3/2
f 689/3/2 673/3/2 690/3/2
f 680/3/2 681/3/2 691/3/2
f 691/3/2 681/3/2 692/3/2
f 682/7/2 683/7/2 693/7/2
f 693/7/2 683/7/2 694/7/2
f 684/7/2 685/7/2 695/7/2
f 695/7/2 685/7/2 696/7/2
f 687/7/2 688/7/2 697/7/2
f 697/7/2 688/7/2 698/7/2
f 693/6/2 694/6/2 702/6/2
f 702/6/2 694/6/2 703/6/2
f 695/6/2 696/6/2 705/6/2
f 705/6/2 696/6/2 706/6/2
f 698/3/2 699/3/2 707/3/2
f 707/3/2 699/3/2 708/3/2
f 701/3/2 702/3/2 710/3/2
f 700/3/2 701/3/2 710/3/2
f 710/3/2 702/3/2 711/3/2
f 704/7/2 705/7/2 712/7/2
f 712/7/2 705/7/2 713/7/2
f 707/1/2 708/1/2 714/1/2
f 708/3/2 709/3/2 715/3/2
f 714/1/2 708/1/2 715/1/2
f 715/3/2 709/3/2 716/3/2
f 715/1/2 716/1/2 717/1/2
f 717/1/2 716/1/2 718/1/2
f 711/3/2 702/3/2 720/3/2
f 720/3/2 702/3/2 721/3/2
f 721/3/2 722/3/2 723/3/2
f 723/3/2 722/3/2 724/3/2
f 718/1/2 719/1/2 725/1/2
f 725/1/2 719/1/2 726/1/2
f 723/1/2 724/1/2 728/1/2
f 726/1/2 727/1/2 729/1/2
f 728/1/2 724/1/2 731/1/2
f 731/1/2 724/1/2 732/1/2
f 729/1/2 730/1/2 733/1/2
f 726/1/2 729/1/2 733/1/2
f 733/1/2 730/1/2 734/1/2
f 731/3/2 732/3/2 735/3/2
f 734/1/2 730/1/2 735/1/2
f 730/3/2 731/3/2 735/3/2
f 735/3/2 732/3/2 736/3/2
f 736/3/2 732/3/2 737/3/2
f 734/2/2 735/2/2 738/2/2
f 735/2/2 736/2/2 738/2/2
f 738/2/2 736/2/2 739/2/2
f 740/1/2 741/1/2 742/1/2
f 740/1/2 742/1/2 744/1/2
f 742/3/2 743/3/2 745/3/2
f 744/1/2 742/1/2 745/1/2
f 745/3/2 743/3/2 746/3/2
f 744/3/2 745/3/2 748/3/2
f 745/1/2 746/1/2 749/1/2
f 748/3/2 745/3/2 749/3/2
f 749/1/2 746/1/2 750/1/2
f 747/4/2 748/4/2 756/4/2
f 756/4/2 748/4/2 757/4/2
f 751/4/2 752/4/2 758/4/2
f 758/4/2 752/4/2 759/4/2
f 755/7/2 756/7/2 760/7/2
f 760/7/2 756/7/2 761/7/2
f 760/6/2 761/6/2 764/6/2
f 764/6/2 761/6/2 765/6/2
f 762/7/2 763/7/2 767/7/2
f 767/7/2 763/7/2 768/7/2
f 765/6/2 766/6/2 769/6/2
f 769/6/2 766/6/2 770/6/2
f 767/6/2 768/6/2 773/6/2
f 773/6/2 768/6/2 774/6/2
f 753/5/2 754/5/2 775/5/2
f 775/5/2 754/5/2 776/5/2
f 770/3/2 771/3/2 777/3/2
f 777/3/2 771/3/2 778/3/2
f 771/1/2 772/1/2 779/1/2
f 778/3/2 771/3/2 781/3/2
f 779/1/2 780/1/2 781/1/2
f 771/1/2 779/1/2 781/1/2
f 781/1/2 780/1/2 782/1/2
f 778/3/2 781/3/2 783/3/2
f 781/3/2 782/3/2 783/3/2
f 783/3/2 782/3/2 784/3/2
f 782/1/2 780/1/2 785/1/2
f 784/3/2 782/3/2 785/3/2
f 785/1/2 780/1/2 786/1/2
f 784/3/2 785/3/2 788/3/2
f 785/3/2 786/3/2 788/3/2
f 788/3/2 786/3/2 789/3/2
f 786/1/2 787/1/2 790/1/2
f 789/3/2 786/3/2 790/3/2
f 790/1/2 787/1/2 791/1/2
f 789/3/2 790/3/2 792/3/2
f 790/3/2 791/3/2 792/3/2
f 792/3/2 791/3/2 793/3/2
f 794/4/2 795/4/2 798/4/2
f 795/7/2 796/7/2 799/7/2
f 798/4/2 795/4/2 799/4/2
f 799/7/2 796/7/2 800/7/2
f 797/5/2 798/5/2 802/5/2
f 800/7/2 801/7/2 803/7/2
f 802/5/2 798/5/2 803/5/2
f 798/7/2 799/7/2 803/7/2
f 799/7/2 800/7/2 803/7/2
f 803/7/2 801/7/2 804/7/2
f 804/7/2 801/7/2 805/7/2
f 802/7/2 803/7/2 806/7/2
f 803/7/2 804/7/2 806/7/2
f 806/7/2 804/7/2 807/7/2
f 804/6/2 805/6/2 808/6/2
f 807/7/2 804/7/2 808/7/2
f 805/7/2 801/7/2 809/7/2
f 808/6/2 805/6/2 809/6/2
f 809/7/2 801/7/2 810/7/2
f 807/6/2 808/6/2 811/6/2
f 809/6/2 810/6/2 811/6/2
f 808/6/2 809/6/2 811/6/2
f 811/6/2 810/6/2 812/6/2
f 816/5/3 814/5/3 813/5/3
f 817/5/3 814/5/3 816/5/3
f 818/5/3 814/5/3 817/5/3
f 821/4/3 816/4/3 815/4/3
f 821/4/3 817/4/3 816/4/3
f 822/5/3 818/5/3 817/5/3
f 822/4/3 817/4/3 821/4/3
f 823/5/3 818/5/3 822/5/3
f 824/7/3 819/7/3 818/7/3
f 824/5/3 818/5/3 823/5/3
f 825/7/3 819/7/3 824/7/3
f 828/4/3 821/4/3 820/4/3
f 829/5/3 823/5/3 822/5/3
f 829/5/3 822/5/3 821/5/3
f 829/4/3 821/4/3 828/4/3
f 830/5/3 823/5/3 829/5/3
f 831/7/3 826/7/3 825/7/3
f 831/5/3 823/5/3 830/5/3
f 831/7/3 824/7/3 823/7/3
f 831/7/3 825/7/3 824/7/3
f 832/7/3 826/7/3 831/7/3
f 834/4/3 828/4/3 827/4/3
f 835/5/3 830/5/3 829/5/3
f 835/4/3 828/4/3 834/4/3
f 835/5/3 829/5/3 828/5/3
f 836/5/3 830/5/3 835/5/3
f 837/7/3 832/7/3 831/7/3
f 837/5/3 830/5/3 836/5/3
f 837/7/3 831/7/3 830/7/3
f 838/7/3 832/7/3 837/7/3
f 839/6/3 833/6/3 832/6/3
f 839/7/3 832/7/3 838/7/3
f 840/6/3 833/6/3 839/6/3
f 841/4/3 836/4/3 835/4/3
f 842/5/3 838/5/3 837/5/3
f 842/4/3 836/4/3 841/4/3
f 842/5/3 837/5/3 836/5/3
f 843/5/3 838/5/3 842/5/3
f 844/7/3 839/7/3 838/7/3
f 844/5/3 838/5/3 843/5/3
f 845/7/3 839/7/3 844/7/3
f 846/7/3 839/7/3 845/7/3
f 847/7/3 839/7/3 846/7/3
f 848/4/3 843/4/3 842/4/3
f 849/4/3 843/4/3 848/4/3
f 850/5/3 844/5/3 843/5/3
f 850/4/3 843/4/3 849/4/3
f 850/5/3 845/5/3 844/5/3
f 851/7/3 846/7/3 845/7/3
f 851/5/3 845/5/3 850/5/3
f 852/7/3 846/7/3 851/7/3
f 853/5/3 850/5/3 849/5/3
f 853/5/3 851/5/3 850/5/3
f 854/5/3 851/5/3 853/5/3
f 860/1/3 857/1/3 856/1/3
f 860/3/3 858/3/3 857/3/3
f 861/1/3 859/1/3 858/1/3
f 861/3/3 858/3/3 860/3/3
f 862/3/3 856/3/3 855/3/3
f 863/1/3 860/1/3 856/1/3
f 863/3/3 856/3/3 862/3/3
f 863/1/3 861/1/3 860/1/3
f 864/1/3 859/1/3 861/1/3
f 864/1/3 861/1/3 863/1/3
f 873/5/3 866/5/3 865/5/3
f 874/7/3 867/7/3 866/7/3
f 874/5/3 866/5/3 873/5/3
f 875/7/3 867/7/3 874/7/3
f 877/3/3 869/3/3 868/3/3
f 878/3/3 869/3/3 877/3/3
f 879/1/3 870/1/3 869/1/3
f 879/3/3 869/3/3 878/3/3
f 880/3/3 871/3/3 870/3/3
f 880/1/3 870/1/3 879/1/3
f 881/3/3 871/3/3 880/3/3
f 885/4/3 873/4/3 872/4/3
f 885/5/3 874/5/3 873/5/3
f 886/5/3 874/5/3 885/5/3
f 887/7/3 876/7/3 875/7/3
f 888/7/3 876/7/3 887/7/3
f 889/3/3 884/3/3 883/3/3
f 889/1/3 883/1/3 882/1/3
f 890/3/3 884/3/3 889/3/3
f 895/1/3 889/1/3 882/1/3
f 895/1/3 890/1/3 889/1/3
f 896/1/3 890/1/3 895/1/3
f 897/4/3 885/4/3 872/4/3
f 901/3/3 893/3/3 892/3/3
f 901/3/3 892/3/3 891/3/3
f 902/1/3 894/1/3 893/1/3
f 902/3/3 893/3/3 901/3/3
f 903/1/3 894/1/3 902/1/3
f 904/4/3 897/4/3 872/4/3
f 905/5/3 898/5/3 897/5/3
f 905/4/3 897/4/3 904/4/3
f 906/5/3 898/5/3 905/5/3
f 907/7/3 900/7/3 899/7/3
f 908/7/3 900/7/3 907/7/3
f 909/5/3 906/5/3 905/5/3
f 910/7/3 907/7/3 906/7/3
f 910/5/3 906/5/3 909/5/3
f 911/7/3 907/7/3 910/7/3
f 919/7/3 913/7/3 912/7/3
f 920/6/3 914/6/3 913/6/3
f 920/7/3 913/7/3 919/7/3
f 921/6/3 914/6/3 920/6/3
f 923/3/3 916/3/3 915/3/3
f 924/1/3 917/1/3 916/1/3
f 924/3/3 916/3/3 923/3/3
f 925/1/3 917/1/3 924/1/3
f 929/4/3 919/4/3 918/4/3
f 930/4/3 919/4/3 929/4/3
f 931/7/3 922/7/3 921/7/3
f 932/7/3 922/7/3 931/7/3
f 933/3/3 927/3/3 926/3/3
f 934/3/3 927/3/3 933/3/3
f 935/1/3 928/1/3 927/1/3
f 935/3/3 927/3/3 934/3/3
f 936/1/3 928/1/3 935/1/3
f 937/1/3 928/1/3 936/1/3
f 938/3/3 929/3/3 928/3/3
f 938/1/3 928/1/3 937/1/3
f 939/3/3 938/3/3 937/3/3
f 943/3/3 938/3/3 939/3/3
f 944/3/3 929/3/3 938/3/3
f 944/3/3 938/3/3 943/3/3
f 947/3/3 942/3/3 941/3/3
f 947/3/3 941/3/3 940/3/3
f 948/1/3 943/1/3 942/1/3
f 948/3/3 942/3/3 947/3/3
f 948/1/3 944/1/3 943/1/3
f 949/3/3 929/3/3 944/3/3
f 949/1/3 944/1/3 948/1/3
f 950/3/3 929/3/3 949/3/3
f 954/1/3 946/1/3 945/1/3
f 955/1/3 946/1/3 954/1/3
f 956/4/3 951/4/3 950/4/3
f 957/4/3 951/4/3 956/4/3
f 959/7/3 953/7/3 952/7/3
f 960/7/3 953/7/3 959/7/3
f 961/7/3 958/7/3 957/7/3
f 962/6/3 959/6/3 958/6/3
f 962/7/3 958/7/3 961/7/3
f 963/6/3 959/6/3 962/6/3
f 968/5/3 965/5/3 964/5/3
f 969/7/3 966/7/3 965/7/3
f 969/5/3 965/5/3 968/5/3
f 970/7/3 966/7/3 969/7/3
f 975/4/3 968/4/3 967/4/3
f 976/4/3 968/4/3 975/4/3
f 977/6/3 971/6/3 970/6/3
f 978/6/3 971/6/3 977/6/3
f 981/1/3 973/1/3 972/1/3
f 982/1/3 973/1/3 981/1/3
f 983/3/3 974/3/3 973/3/3
f 983/1/3 973/1/3 982/1/3
f 984/1/3 975/1/3 974/1/3
f 984/3/3 974/3/3 983/3/3
f 985/1/3 975/1/3 984/1/3
f 986/1/3 975/1/3 985/1/3
f 989/3/3 979/3/3 978/3/3
f 990/1/3 980/1/3 979/1/3
f 990/3/3 979/3/3 989/3/3
f 991/1/3 980/1/3 990/1/3
f 993/3/3 988/3/3 987/3/3
f 994/3/3 988/3/3 993/3/3
f 995/3/3 991/3/3 990/3/3
f 995/3/3 990/3/3 989/3/3
f 996/1/3 992/1/3 991/1/3
f 996/3/3 991/3/3 995/3/3
f 997/1/3 992/1/3 996/1/3
f 999/1/3 996/1/3 995/1/3
f 999/3/3 997/3/3 996/3/3
f 1000/1/3 998/1/3 997/1/3
f 1000/3/3 997/3/3 999/3/3
f 1003/3/3 995/3/3 989/3/3
f 1003/1/3 999/1/3 995/1/3
f 1003/1/3 1000/1/3 999/1/3
f 1004/1/3 1000/1/3 1003/1/3
f 1005/1/3 998/1/3 1000/1/3
f 1005/1/3 1000/1/3 1004/1/3
f 1006/1/3 998/1/3 1005/1/3
f 1012/3/3 1002/3/3 1001/3/3
f 1013/3/3 1002/3/3 1012/3/3
f 1014/3/3 1004/3/3 1003/3/3
f 1014/3/3 1003/3/3 989/3/3
f 1015/3/3 1004/3/3 1014/3/3
f 1016/1/3 1005/1/3 1004/1/3
f 1016/3/3 1004/3/3 1015/3/3
f 1017/1/3 1005/1/3 1016/1/3
f 1018/1/3 1008/1/3 1007/1/3
f 1018/1/3 1009/1/3 1008/1/3
f 1019/3/3 1011/3/3 1010/3/3
f 1019/1/3 1009/1/3 1018/1/3
f 1019/3/3 1010/3/3 1009/3/3
f 1020/3/3 1011/3/3 1019/3/3
f 1023/3/3 1015/3/3 1014/3/3
f 1024/1/3 1016/1/3 1015/1/3
f 1024/3/3 1015/3/3 1023/3/3
f 1025/1/3 1016/1/3 1024/1/3
f 1026/4/3 1021/4/3 1020/4/3
f 1027/4/3 1021/4/3 1026/4/3
f 1029/6/3 1023/6/3 1022/6/3
f 1030/6/3 1023/6/3 1029/6/3
f 1031/5/3 1028/5/3 1027/5/3
f 1032/7/3 1029/7/3 1028/7/3
f 1032/5/3 1028/5/3 1031/5/3
f 1033/7/3 1029/7/3 1032/7/3
f 1039/4/3 1035/4/3 1034/4/3
f 1040/4/3 1035/4/3 1039/4/3
f 1041/6/3 1037/6/3 1036/6/3
f 1042/6/3 1037/6/3 1041/6/3
f 1044/1/3 1039/1/3 1038/1/3
f 1045/1/3 1039/1/3 1044/1/3
f 1046/1/3 1039/1/3 1045/1/3
f 1047/3/3 1043/3/3 1042/3/3
f 1048/3/3 1043/3/3 1047/3/3
f 1051/1/3 1050/1/3 1049/1/3
f 1052/1/3 1050/1/3 1051/1/3
f 1055/1/3 1053/1/3 1052/1/3
f 1056/3/3 1054/3/3 1053/3/3
f 1056/1/3 1053/1/3 1055/1/3
f 1057/3/3 1054/3/3 1056/3/3
f 1060/1/3 1058/1/3 1057/1/3
f 1060/1/3 1057/1/3 1056/1/3
f 1061/1/3 1058/1/3 1060/1/3
f 1062/1/3 1058/1/3 1061/1/3
f 1064/1/3 1060/1/3 1059/1/3
f 1065/3/3 1061/3/3 1060/3/3
f 1065/1/3 1060/1/3 1064/1/3
f 1066/3/3 1061/3/3 1065/3/3
f 1073/1/3 1064/1/3 1063/1/3
f 1074/1/3 1064/1/3 1073/1/3
f 1075/1/3 1068/1/3 1067/1/3
f 1075/1/3 1069/1/3 1068/1/3
f 1076/3/3 1070/3/3 1069/3/3
f 1076/1/3 1069/1/3 1075/1/3
f 1077/3/3 1070/3/3 1076/3/3
f 1080/3/3 1072/3/3 1071/3/3
f 1081/3/3 1072/3/3 1080/3/3
f 1082/4/3 1078/4/3 1077/4/3
f 1083/4/3 1078/4/3 1082/4/3
f 1084/6/3 1080/6/3 1079/6/3
f 1085/6/3 1080/6/3 1084/6/3
f 1091/3/3 1087/3/3 1086/3/3
f 1092/3/3 1087/3/3 1091/3/3
f 1093/3/3 1089/3/3 1088/3/3
f 1094/1/3 1090/1/3 1089/1/3
f 1094/3/3 1089/3/3 1093/3/3
f 1095/1/3 1090/1/3 1094/1/3
f 1097/1/3 1096/1/3 1095/1/3
f 1098/1/3 1096/1/3 1097/1/3
f 1099/1/3 1096/1/3 1098/1/3
f 1101/1/3 1100/1/3 1099/1/3
f 1102/1/3 1100/1/3 1101/1/3
f 1103/1/3 1100/1/3 1102/1/3
f 1105/2/3 1104/2/3 1103/2/3
f 1105/1/3 1103/1/3 1102/1/3
f 1106/2/3 1104/2/3 1105/2/3
f 1108/1/3 1105/1/3 1102/1/3
f 1108/1/3 1106/1/3 1105/1/3
f 1109/1/3 1106/1/3 1108/1/3
f 1110/1/3 1106/1/3 1109/1/3
f 1113/3/3 1108/3/3 1107/3/3
f 1114/1/3 1109/1/3 1108/1/3
f 1114/3/3 1108/3/3 1113/3/3
f 1115/1/3 1109/1/3 1114/1/3
f 1120/1/3 1112/1/3 1111/1/3
f 1120/1/3 1113/1/3 1112/1/3
f 1121/1/3 1113/1/3 1120/1/3
f 1122/3/3 1117/3/3 1116/3/3
f 1123/3/3 1117/3/3 1122/3/3
f 1124/3/3 1119/3/3 1118/3/3
f 1124/3/3 1120/3/3 1119/3/3
f 1125/3/3 1120/3/3 1124/3/3
f 1128/1/3 1127/1/3 1126/1/3
f 1129/1/3 1127/1/3 1128/1/3
f 1131/1/3 1130/1/3 1129/1/3
f 1132/1/3 1130/1/3 1131/1/3
f 1134/2/3 1133/2/3 1132/2/3
f 1135/2/3 1133/2/3 1134/2/3
f 1137/2/3 1136/2/3 1135/2/3
f 1139/2/3 1136/2/3 1137/2/3
f 1140/2/3 1136/2/3 1139/2/3
f 1143/2/3 1139/2/3 1138/2/3
f 1144/2/3 1139/2/3 1143/2/3
f 1146/1/3 1142/1/3 1141/1/3
f 1146/1/3 1143/1/3 1142/1/3
f 1147/1/3 1143/1/3 1146/1/3
f 1148/3/3 1146/3/3 1145/3/3
f 1149/3/3 1146/3/3 1148/3/3
f 1152/1/3 1151/1/3 1150/1/3
f 1153/1/3 1151/1/3 1152/1/3
f 1156/2/3 1155/2/3 1154/2/3
f 1157/2/3 1155/2/3 1156/2/3
f 1159/2/3 1158/2/3 1157/2/3
f 1160/2/3 1158/2/3 1159/2/3
f 1164/2/3 1162/2/3 1161/2/3
f 1165/2/3 1162/2/3 1164/2/3
f 1170/2/3 1164/2/3 1163/2/3
f 1171/2/3 1164/2/3 1170/2/3
f 1172/4/3 1167/4/3 1166/4/3
f 1173/4/3 1167/4/3 1172/4/3
f 1174/3/3 1169/3/3 1168/3/3
f 1175/3/3 1169/3/3 1174/3/3
f 1178/7/3 1177/7/3 1176/7/3
f 1179/7/3 1177/7/3 1178/7/3
f 1182/7/3 1181/7/3 1180/7/3
f 1183/7/3 1181/7/3 1182/7/3
f 1186/7/3 1185/7/3 1184/7/3
f 1187/7/3 1185/7/3 1186/7/3
f 1190/7/3 1189/7/3 1188/7/3
f 1191/7/3 1189/7/3 1190/7/3
f 1192/5/4 1193/5/4 1195/5/4
f 1195/5/4 1193/5/4 1196/5/4
f 1196/5/4 1193/5/4 1197/5/4
f 1197/5/4 1193/5/4 1198/5/4
f 1194/4/4 1195/4/4 1201/4/4
f 1201/4/4 1195/4/4 1202/4/4
f 1198/7/4 1199/7/4 1203/7/4
f 1203/7/4 1199/7/4 1204/7/4
f 1200/4/4 1201/4/4 1207/4/4
f 1207/4/4 1201/4/4 1208/4/4
f 1204/7/4 1205/7/4 1209/7/4
f 1209/7/4 1205/7/4 1210/7/4
f 1206/4/4 1207/4/4 1212/4/4
f 1212/4/4 1207/4/4 1213/4/4
f 1210/6/4 1211/6/4 1216/6/4
f 1216/6/4 1211/6/4 1217/6/4
f 1213/4/4 1214/4/4 1218/4/4
f 1218/4/4 1214/4/4 1219/4/4
f 1215/7/4 1216/7/4 1222/7/4
f 1222/7/4 1216/7/4 1223/7/4
f 1219/4/4 1220/4/4 1224/4/4
f 1224/4/4 1220/4/4 1225/4/4
f 1221/7/4 1222/7/4 1228/7/4
f 1228/7/4 1222/7/4 1229/7/4
f 1226/5/4 1227/5/4 1230/5/4
f 1227/5/4 1228/5/4 1230/5/4
f 1225/5/4 1226/5/4 1230/5/4
f 1230/5/4 1228/5/4 1231/5/4
f 1232/5/4 1233/5/4 1237/5/4
f 1237/5/4 1233/5/4 1238/5/4
f 1233/7/4 1234/7/4 1239/7/4
f 1238/5/4 1233/5/4 1239/5/4
f 1234/6/4 1235/6/4 1240/6/4
f 1239/7/4 1234/7/4 1240/7/4
f 1240/6/4 1235/6/4 1241/6/4
f 1237/5/4 1238/5/4 1244/5/4
f 1236/5/4 1237/5/4 1244/5/4
f 1244/5/4 1238/5/4 1245/5/4
f 1245/5/4 1238/5/4 1246/5/4
f 1239/5/4 1240/5/4 1247/5/4
f 1240/7/4 1241/7/4 1248/7/4
f 1247/5/4 1240/5/4 1248/5/4
f 1241/6/4 1242/6/4 1249/6/4
f 1248/7/4 1241/7/4 1249/7/4
f 1249/6/4 1242/6/4 1250/6/4
f 1243/5/4 1244/5/4 1252/5/4
f 1244/5/4 1245/5/4 1252/5/4
f 1252/5/4 1245/5/4 1253/5/4
f 1253/5/4 1245/5/4 1254/5/4
f 1249/7/4 1250/7/4 1257/7/4
f 1248/7/4 1249/7/4 1257/7/4
f 1257/7/4 1250/7/4 1258/7/4
f 1250/6/4 1251/6/4 1259/6/4
f 1258/7/4 1250/7/4 1259/7/4
f 1259/6/4 1251/6/4 1260/6/4
f 1254/5/4 1255/5/4 1261/5/4
f 1253/5/4 1254/5/4 1261/5/4
f 1261/5/4 1255/5/4 1262/5/4
f 1262/5/4 1255/5/4 1263/5/4
f 1257/7/4 1258/7/4 1264/7/4
f 1256/7/4 1257/7/4 1264/7/4
f 1264/7/4 1258/7/4 1265/7/4
f 1258/6/4 1259/6/4 1266/6/4
f 1265/7/4 1258/7/4 1266/7/4
f 1266/6/4 1259/6/4 1267/6/4
f 1262/5/4 1263/5/4 1268/5/4
f 1263/5/4 1264/5/4 1268/5/4
f 1264/7/4 1265/7/4 1269/7/4
f 1268/5/4 1264/5/4 1269/5/4
f 1265/6/4 1266/6/4 1270/6/4
f 1269/7/4 1265/7/4 1270/7/4
f 1270/6/4 1266/6/4 1271/6/4
f 1272/5/4 1273/5/4 1275/5/4
f 1273/4/4 1274/4/4 1276/4/4
f 1275/5/4 1273/5/4 1276/5/4
f 1276/4/4 1274/4/4 1277/4/4
f 1278/5/4 1279/5/4 1281/5/4
f 1279/4/4 1280/4/4 1282/4/4
f 1281/5/4 1279/5/4 1282/5/4
f 1282/4/4 1280/4/4 1283/4/4
f 1284/3/4 1285/3/4 1288/3/4
f 1285/1/4 1286/1/4 1289/1/4
f 1288/3/4 1285/3/4 1289/3/4
f 1289/1/4 1286/1/4 1290/1/4
f 1287/3/4 1288/3/4 1292/3/4
f 1292/3/4 1288/3/4 1293/3/4
f 1291/3/4 1292/3/4 1294/3/4
f 1291/3/4 1294/3/4 1295/3/4
f 1295/3/4 1294/3/4 1296/3/4
f 1296/3/4 1297/3/4 1298/3/4
f 1298/3/4 1297/3/4 1299/3/4
f 1300/1/4 1301/1/4 1302/1/4
f 1299/1/4 1300/1/4 1302/1/4
f 1302/1/4 1301/1/4 1303/1/4
f 1304/4/4 1305/4/4 1308/4/4
f 1308/4/4 1305/4/4 1309/4/4
f 1306/1/4 1307/1/4 1311/1/4
f 1311/1/4 1307/1/4 1312/1/4
f 1310/3/4 1311/3/4 1314/3/4
f 1314/3/4 1311/3/4 1315/3/4
f 1315/3/4 1311/3/4 1316/3/4
f 1313/3/4 1314/3/4 1317/3/4
f 1317/3/4 1314/3/4 1318/3/4
f 1317/1/4 1318/1/4 1319/1/4
f 1319/1/4 1318/1/4 1320/1/4
f 1320/3/4 1321/3/4 1323/3/4
f 1321/1/4 1322/1/4 1324/1/4
f 1323/3/4 1321/3/4 1324/3/4
f 1324/1/4 1322/1/4 1325/1/4
f 1326/1/4 1327/1/4 1328/1/4
f 1325/1/4 1326/1/4 1328/1/4
f 1328/1/4 1327/1/4 1329/1/4
f 1330/4/4 1331/4/4 1332/4/4
f 1332/4/4 1331/4/4 1333/4/4
f 1334/1/4 1335/1/4 1339/1/4
f 1339/1/4 1335/1/4 1340/1/4
f 1336/3/4 1337/3/4 1342/3/4
f 1337/1/4 1338/1/4 1343/1/4
f 1342/3/4 1337/3/4 1343/3/4
f 1343/1/4 1338/1/4 1344/1/4
f 1341/3/4 1342/3/4 1347/3/4
f 1347/3/4 1342/3/4 1348/3/4
f 1345/3/4 1346/3/4 1349/3/4
f 1346/1/4 1347/1/4 1350/1/4
f 1349/3/4 1346/3/4 1350/3/4
f 1349/1/4 1350/1/4 1351/1/4
f 1350/1/4 1347/1/4 1352/1/4
f 1351/1/4 1350/1/4 1352/1/4
f 1352/1/4 1353/1/4 1355/1/4
f 1353/3/4 1354/3/4 1356/3/4
f 1355/1/4 1353/1/4 1356/1/4
f 1356/3/4 1354/3/4 1357/3/4
f 1357/3/4 1358/3/4 1359/3/4
f 1359/3/4 1358/3/4 1360/3/4
f 1361/1/4 1362/1/4 1363/1/4
f 1363/1/4 1362/1/4 1364/1/4
f 1365/3/4 1366/3/4 1369/3/4
f 1369/3/4 1366/3/4 1370/3/4
f 1367/3/4 1368/3/4 1372/3/4
f 1372/3/4 1368/3/4 1373/3/4
f 1371/3/4 1372/3/4 1375/3/4
f 1375/3/4 1372/3/4 1376/3/4
f 1374/1/4 1375/1/4 1377/1/4
f 1377/1/4 1375/1/4 1378/1/4
f 1378/3/4 1379/3/4 1380/3/4
f 1380/3/4 1379/3/4 1381/3/4
f 1382/1/4 1383/1/4 1384/1/4
f 1381/1/4 1382/1/4 1384/1/4
f 1384/1/4 1383/1/4 1385/1/4
f 1386/3/4 1387/3/4 1390/3/4
f 1387/1/4 1388/1/4 1391/1/4
f 1390/3/4 1387/3/4 1391/3/4
f 1388/3/4 1389/3/4 1392/3/4
f 1391/1/4 1388/1/4 1392/1/4
f 1392/3/4 1389/3/4 1393/3/4
f 1394/5/4 1395/5/4 1397/5/4
f 1395/7/4 1396/7/4 1398/7/4
f 1397/5/4 1395/5/4 1398/5/4
f 1398/7/4 1396/7/4 1399/7/4
f 1399/3/4 1400/3/4 1405/3/4
f 1405/3/4 1400/3/4 1406/3/4
f 1401/3/4 1402/3/4 1407/3/4
f 1407/3/4 1402/3/4 1408/3/4
f 1403/3/4 1404/3/4 1410/3/4
f 1410/3/4 1404/3/4 1411/3/4
f 1411/3/4 1404/3/4 1412/3/4
f 1409/1/4 1410/1/4 1414/1/4
f 1410/1/4 1411/1/4 1414/1/4
f 1414/1/4 1411/1/4 1415/1/4
f 1415/1/4 1411/1/4 1416/1/4
f 1413/1/4 1414/1/4 1417/1/4
f 1414/3/4 1415/3/4 1418/3/4
f 1417/1/4 1414/1/4 1418/1/4
f 1418/3/4 1415/3/4 1419/3/4
f 1418/3/4 1419/3/4 1421/3/4
f 1419/1/4 1420/1/4 1422/1/4
f 1421/3/4 1419/3/4 1422/3/4
f 1422/1/4 1420/1/4 1423/1/4
f 1423/1/4 1420/1/4 1424/1/4
f 1423/1/4 1424/1/4 1426/1/4
f 1424/1/4 1425/1/4 1426/1/4
f 1426/1/4 1425/1/4 1427/1/4
f 1428/3/4 1429/3/4 1434/3/4
f 1434/3/4 1429/3/4 1435/3/4
f 1430/1/4 1431/1/4 1436/1/4
f 1436/1/4 1431/1/4 1437/1/4
f 1432/7/4 1433/7/4 1438/7/4
f 1438/7/4 1433/7/4 1439/7/4
f 1440/7/4 1441/7/4 1445/7/4
f 1441/6/4 1442/6/4 1446/6/4
f 1445/7/4 1441/7/4 1446/7/4
f 1446/6/4 1442/6/4 1447/6/4
f 1443/4/4 1444/4/4 1452/4/4
f 1444/5/4 1445/5/4 1453/5/4
f 1452/4/4 1444/4/4 1453/4/4
f 1453/5/4 1445/5/4 1454/5/4
f 1448/3/4 1449/3/4 1455/3/4
f 1449/1/4 1450/1/4 1456/1/4
f 1455/3/4 1449/3/4 1456/3/4
f 1456/1/4 1450/1/4 1457/1/4
f 1451/3/4 1452/3/4 1459/3/4
f 1458/3/4 1459/3/4 1461/3/4
f 1459/3/4 1452/3/4 1462/3/4
f 1461/3/4 1459/3/4 1462/3/4
f 1462/3/4 1452/3/4 1463/3/4
f 1460/3/4 1461/3/4 1464/3/4
f 1461/3/4 1462/3/4 1464/3/4
f 1464/3/4 1462/3/4 1465/3/4
f 1460/3/4 1464/3/4 1466/3/4
f 1464/1/4 1465/1/4 1467/1/4
f 1466/3/4 1464/3/4 1467/3/4
f 1467/1/4 1465/1/4 1468/1/4
f 1467/1/4 1468/1/4 1470/1/4
f 1468/3/4 1469/3/4 1471/3/4
f 1470/1/4 1468/1/4 1471/1/4
f 1471/3/4 1469/3/4 1472/3/4
f 1472/3/4 1469/3/4 1473/3/4
f 1473/4/4 1474/4/4 1478/4/4
f 1474/5/4 1475/5/4 1479/5/4
f 1478/4/4 1474/4/4 1479/4/4
f 1479/5/4 1475/5/4 1480/5/4
f 1476/1/4 1477/1/4 1483/1/4
f 1483/1/4 1477/1/4 1484/1/4
f 1479/7/4 1480/7/4 1485/7/4
f 1480/7/4 1481/7/4 1485/7/4
f 1481/6/4 1482/6/4 1486/6/4
f 1485/7/4 1481/7/4 1486/7/4
f 1486/6/4 1482/6/4 1487/6/4
f 1488/7/4 1489/7/4 1496/7/4
f 1489/6/4 1490/6/4 1497/6/4
f 1496/7/4 1489/7/4 1497/7/4
f 1497/6/4 1490/6/4 1498/6/4
f 1491/1/4 1492/1/4 1499/1/4
f 1499/1/4 1492/1/4 1500/1/4
f 1492/3/4 1493/3/4 1501/3/4
f 1500/1/4 1492/1/4 1501/1/4
f 1501/3/4 1493/3/4 1502/3/4
f 1494/4/4 1495/4/4 1505/4/4
f 1495/5/4 1496/5/4 1505/5/4
f 1505/5/4 1496/5/4 1506/5/4
f 1498/3/4 1499/3/4 1508/3/4
f 1508/3/4 1499/3/4 1509/3/4
f 1509/3/4 1499/3/4 1510/3/4
f 1503/1/4 1504/1/4 1511/1/4
f 1511/1/4 1504/1/4 1512/1/4
f 1494/4/4 1505/4/4 1515/4/4
f 1515/4/4 1505/4/4 1516/4/4
f 1506/3/4 1507/3/4 1517/3/4
f 1517/3/4 1507/3/4 1518/3/4
f 1508/3/4 1509/3/4 1519/3/4
f 1519/3/4 1509/3/4 1520/3/4
f 1520/3/4 1509/3/4 1521/3/4
f 1512/2/4 1513/2/4 1522/2/4
f 1522/2/4 1513/2/4 1523/2/4
f 1514/3/4 1515/3/4 1524/3/4
f 1524/3/4 1515/3/4 1525/3/4
f 1525/4/4 1526/4/4 1534/4/4
f 1527/3/4 1528/3/4 1535/3/4
f 1535/3/4 1528/3/4 1536/3/4
f 1529/3/4 1530/3/4 1537/3/4
f 1530/1/4 1531/1/4 1538/1/4
f 1537/3/4 1530/3/4 1538/3/4
f 1538/1/4 1531/1/4 1539/1/4
f 1532/2/4 1533/2/4 1542/2/4
f 1542/2/4 1533/2/4 1543/2/4
f 1525/4/4 1534/4/4 1544/4/4
f 1534/5/4 1535/5/4 1545/5/4
f 1544/4/4 1534/4/4 1545/4/4
f 1545/5/4 1535/5/4 1546/5/4
f 1539/3/4 1540/3/4 1548/3/4
f 1537/3/4 1538/3/4 1548/3/4
f 1538/3/4 1539/3/4 1548/3/4
f 1548/3/4 1540/3/4 1549/3/4
f 1541/2/4 1542/2/4 1553/2/4
f 1553/2/4 1542/2/4 1554/2/4
f 1546/7/4 1547/7/4 1555/7/4
f 1547/6/4 1548/6/4 1556/6/4
f 1555/7/4 1547/7/4 1556/7/4
f 1556/6/4 1548/6/4 1557/6/4
f 1550/1/4 1551/1/4 1558/1/4
f 1549/1/4 1550/1/4 1558/1/4
f 1551/3/4 1552/3/4 1559/3/4
f 1558/1/4 1551/1/4 1559/1/4
f 1559/3/4 1552/3/4 1560/3/4
f 1561/7/4 1562/7/4 1568/7/4
f 1562/6/4 1563/6/4 1569/6/4
f 1568/7/4 1562/7/4 1569/7/4
f 1569/6/4 1563/6/4 1570/6/4
f 1564/3/4 1565/3/4 1572/3/4
f 1565/1/4 1566/1/4 1573/1/4
f 1572/3/4 1565/3/4 1573/3/4
f 1573/1/4 1566/1/4 1574/1/4
f 1574/1/4 1566/1/4 1575/1/4
f 1567/5/4 1568/5/4 1578/5/4
f 1578/5/4 1568/5/4 1579/5/4
f 1571/3/4 1572/3/4 1582/3/4
f 1572/3/4 1573/3/4 1582/3/4
f 1582/3/4 1573/3/4 1583/3/4
f 1583/3/4 1573/3/4 1584/3/4
f 1575/1/4 1576/1/4 1585/1/4
f 1585/1/4 1576/1/4 1586/1/4
f 1586/2/4 1587/2/4 1588/2/4
f 1577/5/4 1578/5/4 1589/5/4
f 1589/5/4 1578/5/4 1590/5/4
f 1580/3/4 1581/3/4 1592/3/4
f 1582/1/4 1583/1/4 1593/1/4
f 1592/3/4 1581/3/4 1593/3/4
f 1581/1/4 1582/1/4 1593/1/4
f 1593/1/4 1583/1/4 1594/1/4
f 1594/1/4 1583/1/4 1595/1/4
f 1588/2/4 1587/2/4 1598/2/4
f 1598/2/4 1587/2/4 1599/2/4
f 1590/5/4 1591/5/4 1600/5/4
f 1600/5/4 1591/5/4 1601/5/4
f 1595/1/4 1596/1/4 1604/1/4
f 1594/1/4 1595/1/4 1604/1/4
f 1604/1/4 1596/1/4 1605/1/4
f 1605/1/4 1596/1/4 1606/1/4
f 1597/1/4 1598/1/4 1608/1/4
f 1608/1/4 1598/1/4 1609/1/4
f 1601/7/4 1602/7/4 1610/7/4
f 1602/6/4 1603/6/4 1611/6/4
f 1610/7/4 1602/7/4 1611/7/4
f 1611/6/4 1603/6/4 1612/6/4
f 1605/3/4 1606/3/4 1613/3/4
f 1606/1/4 1607/1/4 1614/1/4
f 1613/3/4 1606/3/4 1614/3/4
f 1607/3/4 1608/3/4 1615/3/4
f 1614/1/4 1607/1/4 1615/1/4
f 1615/3/4 1608/3/4 1616/3/4
f 1617/7/4 1618/7/4 1624/7/4
f 1618/6/4 1619/6/4 1625/6/4
f 1624/7/4 1618/7/4 1625/7/4
f 1620/3/4 1621/3/4 1627/3/4
f 1627/3/4 1621/3/4 1628/3/4
f 1621/1/4 1622/1/4 1629/1/4
f 1628/3/4 1621/3/4 1629/3/4
f 1629/1/4 1622/1/4 1630/1/4
f 1627/1/4 1628/1/4 1632/1/4
f 1626/1/4 1627/1/4 1632/1/4
f 1629/3/4 1630/3/4 1632/3/4
f 1628/3/4 1629/3/4 1632/3/4
f 1630/1/4 1631/1/4 1633/1/4
f 1632/3/4 1630/3/4 1633/3/4
f 1633/1/4 1631/1/4 1634/1/4
f 1623/7/4 1624/7/4 1635/7/4
f 1624/6/4 1625/6/4 1636/6/4
f 1635/7/4 1624/7/4 1636/7/4
f 1625/6/4 1619/6/4 1637/6/4
f 1636/6/4 1625/6/4 1637/6/4
f 1626/1/4 1632/1/4 1638/1/4
f 1632/1/4 1633/1/4 1638/1/4
f 1638/1/4 1633/1/4 1639/1/4
f 1639/1/4 1633/1/4 1640/1/4
f 1633/2/4 1634/2/4 1641/2/4
f 1640/1/4 1633/1/4 1641/1/4
f 1641/2/4 1634/2/4 1642/2/4
f 1636/7/4 1637/7/4 1643/7/4
f 1637/6/4 1619/6/4 1644/6/4
f 1643/7/4 1637/7/4 1644/7/4
f 1644/6/4 1619/6/4 1645/6/4
f 1639/1/4 1640/1/4 1646/1/4
f 1640/3/4 1641/3/4 1647/3/4
f 1646/1/4 1640/1/4 1647/1/4
f 1647/3/4 1641/3/4 1648/3/4
f 1651/3/5 1650/3/5 1649/3/5
f 1652/3/5 1650/3/5 1651/3/5
f 1657/3/5 1654/3/5 1653/3/5
f 1658/3/5 1654/3/5 1657/3/5
f 1660/3/5 1656/3/5 1655/3/5
f 1661/3/5 1656/3/5 1660/3/5
f 1662/3/5 1659/3/5 1658/3/5
f 1663/1/5 1660/1/5 1659/1/5
f 1663/3/5 1659/3/5 1662/3/5
f 1664/1/5 1660/1/5 1663/1/5
f 1669/3/5 1666/3/5 1665/3/5
f 1670/3/5 1666/3/5 1669/3/5
f 1673/1/5 1668/1/5 1667/1/5
f 1674/1/5 1668/1/5 1673/1/5
f 1675/3/5 1671/3/5 1670/3/5
f 1676/3/5 1671/3/5 1675/3/5
f 1678/3/5 1673/3/5 1672/3/5
f 1679/3/5 1673/3/5 1678/3/5
f 1680/3/5 1677/3/5 1676/3/5
f 1681/1/5 1678/1/5 1677/1/5
f 1681/3/5 1677/3/5 1680/3/5
f 1682/1/5 1678/1/5 1681/1/5
f 1687/1/5 1684/1/5 1683/1/5
f 1688/1/5 1684/1/5 1687/1/5
f 1691/1/5 1686/1/5 1685/1/5
f 1692/1/5 1686/1/5 1691/1/5
f 1693/3/5 1689/3/5 1688/3/5
f 1694/3/5 1689/3/5 1693/3/5
f 1695/1/5 1691/1/5 1690/1/5
f 1696/1/5 1691/1/5 1695/1/5
f 1697/1/5 1695/1/5 1694/1/5
f 1698/1/5 1695/1/5 1697/1/5
f 1703/3/5 1700/3/5 1699/3/5
f 1704/3/5 1700/3/5 1703/3/5
f 1707/3/5 1702/3/5 1701/3/5
f 1708/3/5 1702/3/5 1707/3/5
f 1709/3/5 1705/3/5 1704/3/5
f 1710/3/5 1705/3/5 1709/3/5
f 1711/3/5 1707/3/5 1706/3/5
f 1712/3/5 1707/3/5 1711/3/5
f 1713/1/5 1711/1/5 1710/1/5
f 1714/1/5 1711/1/5 1713/1/5
f 1719/3/5 1716/3/5 1715/3/5
f 1720/3/5 1716/3/5 1719/3/5
f 1723/1/5 1718/1/5 1717/1/5
f 1724/1/5 1718/1/5 1723/1/5
f 1725/1/5 1721/1/5 1720/1/5
f 1726/1/5 1721/1/5 1725/1/5
f 1727/3/5 1723/3/5 1722/3/5
f 1728/3/5 1723/3/5 1727/3/5
f 1733/1/5 1730/1/5 1729/1/5
f 1734/1/5 1730/1/5 1733/1/5
f 1735/1/5 1732/1/5 1731/1/5
f 1736/1/5 1732/1/5 1735/1/5
f 1739/3/5 1738/3/5 1737/3/5
f 1740/3/5 1738/3/5 1739/3/5
f 1745/3/5 1742/3/5 1741/3/5
f 1746/3/5 1742/3/5 1745/3/5
f 1747/1/5 1744/1/5 1743/1/5
f 1748/1/5 1744/1/5 1747/1/5
f 1751/4/5 1750/4/5 1749/4/5
f 1752/4/5 1750/4/5 1751/4/5
f 1757/3/5 1754/3/5 1753/3/5
f 1758/3/5 1754/3/5 1757/3/5
f 1759/3/5 1756/3/5 1755/3/5
f 1760/3/5 1756/3/5 1759/3/5
f 1765/3/5 1762/3/5 1761/3/5
f 1766/3/5 1762/3/5 1765/3/5
f 1767/1/5 1764/1/5 1763/1/5
f 1768/1/5 1764/1/5 1767/1/5
f 1773/4/5 1770/4/5 1769/4/5
f 1774/4/5 1770/4/5 1773/4/5
f 1775/4/5 1772/4/5 1771/4/5
f 1776/4/5 1772/4/5 1775/4/5
f 1777/5/5 1775/5/5 1774/5/5
f 1778/5/5 1775/5/5 1777/5/5
f 1783/3/5 1780/3/5 1779/3/5
f 1784/3/5 1780/3/5 1783/3/5
f 1788/3/5 1782/3/5 1781/3/5
f 1789/3/5 1782/3/5 1788/3/5
f 1790/3/5 1787/3/5 1786/3/5
f 1790/3/5 1786/3/5 1785/3/5
f 1791/3/5 1787/3/5 1790/3/5
f 1796/4/5 1793/4/5 1792/4/5
f 1797/4/5 1793/4/5 1796/4/5
f 1800/4/5 1795/4/5 1794/4/5
f 1801/4/5 1795/4/5 1800/4/5
f 1802/5/5 1798/5/5 1797/5/5
f 1803/5/5 1798/5/5 1802/5/5
f 1804/5/5 1800/5/5 1799/5/5
f 1805/5/5 1800/5/5 1804/5/5
f 1809/4/5 1807/4/5 1806/4/5
f 1810/4/5 1807/4/5 1809/4/5
f 1813/4/5 1809/4/5 1808/4/5
f 1814/4/5 1809/4/5 1813/4/5
f 1815/4/5 1811/4/5 1810/4/5
f 1816/4/5 1811/4/5 1815/4/5
f 1819/4/5 1813/4/5 1812/4/5
f 1820/4/5 1813/4/5 1819/4/5
f 1821/4/5 1817/4/5 1816/4/5
f 1822/4/5 1817/4/5 1821/4/5
f 1824/4/5 1819/4/5 1818/4/5
f 1825/4/5 1819/4/5 1824/4/5
f 1826/4/5 1823/4/5 1822/4/5
f 1827/4/5 1823/4/5 1826/4/5
f 1828/5/5 1825/5/5 1824/5/5
f 1830/7/5 1827/7/5 1826/7/5
f 1831/5/5 1829/5/5 1828/5/5
f 1831/5/5 1828/5/5 1824/5/5
f 1832/5/5 1829/5/5 1831/5/5
f 1833/5/5 1829/5/5 1832/5/5
f 1835/7/5 1827/7/5 1830/7/5
f 1836/7/5 1827/7/5 1835/7/5
f 1837/4/5 1833/4/5 1832/4/5
f 1838/4/5 1833/4/5 1837/4/5
f 1841/4/5 1835/4/5 1834/4/5
f 1842/4/5 1835/4/5 1841/4/5
f 1843/4/5 1839/4/5 1838/4/5
f 1844/4/5 1839/4/5 1843/4/5
f 1845/4/5 1841/4/5 1840/4/5
f 1846/4/5 1841/4/5 1845/4/5
f 1847/5/5 1845/5/5 1844/5/5
f 1848/5/5 1845/5/5 1847/5/5
f 1853/5/5 1850/5/5 1849/5/5
f 1854/5/5 1850/5/5 1853/5/5
f 1857/5/5 1852/5/5 1851/5/5
f 1858/5/5 1852/5/5 1857/5/5
f 1859/5/5 1855/5/5 1854/5/5
f 1860/5/5 1855/5/5 1859/5/5
f 1863/5/5 1857/5/5 1856/5/5
f 1864/5/5 1857/5/5 1863/5/5
f 1867/5/5 1862/5/5 1861/5/5
f 1868/5/5 1862/5/5 1867/5/5
f 1872/5/5 1866/5/5 1865/5/5
f 1873/5/5 1866/5/5 1872/5/5
f 1874/5/5 1870/5/5 1869/5/5
f 1875/5/5 1870/5/5 1874/5/5
f 1878/7/5 1872/7/5 1871/7/5
f 1879/7/5 1872/7/5 1878/7/5
f 1880/7/5 1876/7/5 1875/7/5
f 1881/7/5 1876/7/5 1880/7/5
f 1883/5/5 1878/5/5 1877/5/5
f 1884/5/5 1878/5/5 1883/5/5
f 1885/5/5 1882/5/5 1881/5/5
f 1886/5/5 1882/5/5 1885/5/5
f 1889/3/5 1888/3/5 1887/3/5
f 1890/3/5 1888/3/5 1889/3/5
f 1892/7/5 1891/7/5 1890/7/5
f 1893/7/5 1891/7/5 1892/7/5
f 1898/5/5 1895/5/5 1894/5/5
f 1899/5/5 1895/5/5 1898/5/5
f 1900/5/5 1897/5/5 1896/5/5
f 1901/5/5 1897/5/5 1900/5/5
f 1902/7/5 1900/7/5 1899/7/5
f 1903/7/5 1900/7/5 1902/7/5
f 1908/7/5 1905/7/5 1904/7/5
f 1909/7/5 1905/7/5 1908/7/5
f 1910/7/5 1907/7/5 1906/7/5
f 1911/7/5 1907/7/5 1910/7/5
f 1914/7/5 1913/7/5 1912/7/5
f 1915/7/5 1913/7/5 1914/7/5
f 1919/7/5 1916/7/5 1915/7/5
f 1920/7/5 1916/7/5 1919/7/5
f 1923/7/5 1918/7/5 1917/7/5
f 1924/7/5 1918/7/5 1923/7/5
f 1925/7/5 1921/7/5 1920/7/5
f 1926/7/5 1921/7/5 1925/7/5
f 1929/7/5 1923/7/5 1922/7/5
f 1930/7/5 1923/7/5 1929/7/5
f 1931/7/5 1927/7/5 1926/7/5
f 1932/7/5 1927/7/5 1931/7/5
f 1933/7/5 1929/7/5 1928/7/5
f 1934/7/5 1929/7/5 1933/7/5
f 1939/6/5 1936/6/5 1935/6/5
f 1940/6/5 1936/6/5 1939/6/5
f 1941/6/5 1938/6/5 1937/6/5
f 1942/6/5 1938/6/5 1941/6/5
f 1947/3/5 1944/3/5 1943/3/5
f 1948/3/5 1944/3/5 1947/3/5
f 1949/3/5 1946/3/5 1945/3/5
f 1950/3/5 1946/3/5 1949/3/5
f 1955/7/5 1952/7/5 1951/7/5
f 1956/7/5 1952/7/5 1955/7/5
f 1957/7/5 1954/7/5 1953/7/5
f 1958/7/5 1954/7/5 1957/7/5
f 1963/7/5 1960/7/5 1959/7/5
f 1964/7/5 1960/7/5 1963/7/5
f 1965/7/5 1962/7/5 1961/7/5
f 1966/7/5 1962/7/5 1965/7/5
f 1971/3/5 1968/3/5 1967/3/5
f 1972/3/5 1968/3/5 1971/3/5
f 1973/1/5 1970/1/5 1969/1/5
f 1974/1/5 1970/1/5 1973/1/5
f 1979/3/5 1976/3/5 1975/3/5
f 1980/3/5 1976/3/5 1979/3/5
f 1981/1/5 1978/1/5 1977/1/5
f 1982/1/5 1978/1/5 1981/1/5
f 1987/1/5 1984/1/5 1983/1/5
f 1988/1/5 1984/1/5 1987/1/5
f 1991/1/5 1986/1/5 1985/1/5
f 1992/1/5 1986/1/5 1991/1/5
f 1993/3/5 1989/3/5 1988/3/5
f 1994/3/5 1989/3/5 1993/3/5
f 1997/3/5 1991/3/5 1990/3/5
f 1998/3/5 1991/3/5 1997/3/5
f 1999/1/5 1996/1/5 1995/1/5
f 2000/1/5 1996/1/5 1999/1/5
f 2005/3/5 2002/3/5 2001/3/5
f 2006/3/5 2002/3/5 2005/3/5
f 2007/1/5 2004/1/5 2003/1/5
f 2008/1/5 2004/1/5 2007/1/5
f 2009/1/6 2010/1/6 2013/1/6
f 2013/1/6 2010/1/6 2014/1/6
f 2011/1/6 2012/1/6 2015/1/6
f 2015/1/6 2012/1/6 2016/1/6
f 2017/3/6 2018/3/6 2021/3/6
f 2021/3/6 2018/3/6 2022/3/6
f 2019/1/6 2020/1/6 2023/1/6
f 2023/1/6 2020/1/6 2024/1/6
f 2025/1/6 2026/1/6 2027/1/6
f 2027/1/6 2026/1/6 2028/1/6
f 2029/3/6 2030/3/6 2032/3/6
f 2030/1/6 2031/1/6 2033/1/6
f 2032/3/6 2030/3/6 2033/3/6
f 2033/1/6 2031/1/6 2034/1/6
f 2035/3/6 2036/3/6 2039/3/6
f 2039/3/6 2036/3/6 2040/3/6
f 2037/3/6 2038/3/6 2041/3/6
f 2041/3/6 2038/3/6 2042/3/6
f 2043/3/6 2044/3/6 2047/3/6
f 2047/3/6 2044/3/6 2048/3/6
f 2045/3/6 2046/3/6 2049/3/6
f 2049/3/6 2046/3/6 2050/3/6
f 2051/5/6 2052/5/6 2055/5/6
f 2055/5/6 2052/5/6 2056/5/6
f 2053/5/6 2054/5/6 2057/5/6
f 2057/5/6 2054/5/6 2058/5/6
f 2059/5/6 2060/5/6 2063/5/6
f 2063/5/6 2060/5/6 2064/5/6
f 2061/5/6 2062/5/6 2065/5/6
f 2065/5/6 2062/5/6 2066/5/6
f 2067/7/6 2068/7/6 2072/7/6
f 2072/7/6 2068/7/6 2073/7/6
f 2069/7/6 2070/7/6 2074/7/6
f 2074/7/6 2070/7/6 2075/7/6
f 2071/7/6 2072/7/6 2078/7/6
f 2078/7/6 2072/7/6 2079/7/6
f 2075/7/6 2076/7/6 2080/7/6
f 2080/7/6 2076/7/6 2081/7/6
f 2077/6/6 2078/6/6 2084/6/6
f 2084/6/6 2078/6/6 2085/6/6
f 2081/6/6 2082/6/6 2086/6/6
f 2086/6/6 2082/6/6 2087/6/6
f 2083/7/6 2084/7/6 2089/7/6
f 2089/7/6 2084/7/6 2090/7/6
f 2087/7/6 2088/7/6 2091/7/6
f 2091/7/6 2088/7/6 2092/7/6
f 2093/7/6 2094/7/6 2096/7/6
f 2096/7/6 2094/7/6 2097/7/6
f 2095/7/6 2096/7/6 2100/7/6
f 2096/6/6 2097/6/6 2101/6/6
f 2100/7/6 2096/7/6 2101/7/6
f 2097/7/6 2098/7/6 2102/7/6
f 2101/6/6 2097/6/6 2102/6/6
f 2102/7/6 2098/7/6 2103/7/6
f 2099/7/6 2100/7/6 2106/7/6
f 2100/6/6 2101/6/6 2107/6/6
f 2101/6/6 2102/6/6 2107/6/6
f 2106/7/6 2100/7/6 2107/7/6
f 2102/6/6 2103/6/6 2107/6/6
f 2103/7/6 2104/7/6 2108/7/6
f 2107/6/6 2103/6/6 2108/6/6
f 2108/7/6 2104/7/6 2109/7/6
f 2105/6/6 2106/6/6 2112/6/6
f 2112/6/6 2106/6/6 2113/6/6
f 2109/6/6 2110/6/6 2114/6/6
f 2114/6/6 2110/6/6 2115/6/6
f 2115/6/6 2116/6/6 2117/6/6
f 2111/6/6 2112/6/6 2118/6/6
f 2117/6/6 2116/6/6 2121/6/6
f 2111/6/6 2118/6/6 2122/6/6
f 2118/7/6 2119/7/6 2123/7/6
f 2122/6/6 2118/6/6 2123/6/6
f 2123/7/6 2119/7/6 2124/7/6
f 2120/7/6 2121/7/6 2125/7/6
f 2121/6/6 2116/6/6 2126/6/6
f 2125/7/6 2121/7/6 2126/7/6
f 2126/6/6 2116/6/6 2127/6/6
f 2123/6/6 2124/6/6 2128/6/6
f 2128/6/6 2124/6/6 2129/6/6
f 2125/6/6 2126/6/6 2134/6/6
f 2134/6/6 2126/6/6 2135/6/6
f 2129/6/6 2130/6/6 2136/6/6
f 2130/7/6 2131/7/6 2137/7/6
f 2136/6/6 2130/6/6 2137/6/6
f 2137/7/6 2131/7/6 2138/7/6
f 2132/7/6 2133/7/6 2139/7/6
f 2133/6/6 2134/6/6 2140/6/6
f 2139/7/6 2133/7/6 2140/7/6
f 2140/6/6 2134/6/6 2141/6/6
f 2137/6/6 2138/6/6 2142/6/6
f 2138/6/6 2139/6/6 2142/6/6
f 2139/6/6 2140/6/6 2142/6/6
f 2142/6/6 2140/6/6 2143/6/6
f 2144/5/6 2145/5/6 2148/5/6
f 2148/5/6 2145/5/6 2149/5/6
f 2146/5/6 2147/5/6 2152/5/6
f 2152/5/6 2147/5/6 2153/5/6
f 2149/6/6 2150/6/6 2154/6/6
f 2154/6/6 2150/6/6 2155/6/6
f 2151/6/6 2152/6/6 2156/6/6
f 2156/6/6 2152/6/6 2157/6/6
f 2158/3/6 2159/3/6 2162/3/6
f 2162/3/6 2159/3/6 2163/3/6
f 2160/3/6 2161/3/6 2164/3/6
f 2164/3/6 2161/3/6 2165/3/6
f 2166/7/6 2167/7/6 2170/7/6
f 2170/7/6 2167/7/6 2171/7/6
f 2168/7/6 2169/7/6 2174/7/6
f 2174/7/6 2169/7/6 2175/7/6
f 2171/6/6 2172/6/6 2176/6/6
f 2176/6/6 2172/6/6 2177/6/6
f 2173/6/6 2174/6/6 2178/6/6
f 2178/6/6 2174/6/6 2179/6/6
f 2180/1/6 2181/1/6 2184/1/6
f 2184/1/6 2181/1/6 2185/1/6
f 2182/1/6 2183/1/6 2186/1/6
f 2186/1/6 2183/1/6 2187/1/6
f 2188/7/6 2189/7/6 2192/7/6
f 2192/7/6 2189/7/6 2193/7/6
f 2190/7/6 2191/7/6 2194/7/6
f 2194/7/6 2191/7/6 2195/7/6
f 2193/6/6 2194/6/6 2196/6/6
f 2196/6/6 2194/6/6 2197/6/6
f 2198/1/6 2199/1/6 2203/1/6
f 2203/1/6 2199/1/6 2204/1/6
f 2200/1/6 2201/1/6 2205/1/6
f 2205/1/6 2201/1/6 2206/1/6
f 2202/1/6 2203/1/6 2209/1/6
f 2209/1/6 2203/1/6 2210/1/6
f 2206/1/6 2207/1/6 2211/1/6
f 2211/1/6 2207/1/6 2212/1/6
f 2208/1/6 2209/1/6 2214/1/6
f 2214/1/6 2209/1/6 2215/1/6
f 2212/3/6 2213/3/6 2216/3/6
f 2216/3/6 2213/3/6 2217/3/6
f 2218/6/6 2219/6/6 2220/6/6
f 2220/6/6 2219/6/6 2221/6/6
f 2222/1/6 2223/1/6 2224/1/6
f 2224/1/6 2223/1/6 2225/1/6
f 2226/3/6 2227/3/6 2231/3/6
f 2231/3/6 2227/3/6 2232/3/6
f 2228/3/6 2229/3/6 2233/3/6
f 2233/3/6 2229/3/6 2234/3/6
f 2230/1/6 2231/1/6 2237/1/6
f 2237/1/6 2231/1/6 2238/1/6
f 2234/1/6 2235/1/6 2239/1/6
f 2239/1/6 2235/1/6 2240/1/6
f 2236/1/6 2237/1/6 2242/1/6
f 2242/1/6 2237/1/6 2243/1/6
f 2240/3/6 2241/3/6 2244/3/6
f 2244/3/6 2241/3/6 2245/3/6
f 2246/1/6 2247/1/6 2248/1/6
f 2248/1/6 2247/1/6 2249/1/6
f 2250/1/6 2251/1/6 2254/1/6
f 2254/1/6 2251/1/6 2255/1/6
f 2252/3/6 2253/3/6 2256/3/6
f 2254/3/6 2255/3/6 2257/3/6
f 2257/3/6 2255/3/6 2258/3/6
f 2256/3/6 2253/3/6 2259/3/6
f 2259/3/6 2253/3/6 2260/3/6
f 2261/1/6 2262/1/6 2266/1/6
f 2266/1/6 2262/1/6 2267/1/6
f 2263/1/6 2264/1/6 2268/1/6
f 2268/1/6 2264/1/6 2269/1/6
f 2265/1/6 2266/1/6 2271/1/6
f 2271/1/6 2266/1/6 2272/1/6
f 2269/1/6 2270/1/6 2273/1/6
f 2273/1/6 2270/1/6 2274/1/6
f 2275/1/6 2276/1/6 2279/1/6
f 2279/1/6 2276/1/6 2280/1/6
f 2277/3/6 2278/3/6 2283/3/6
f 2283/3/6 2278/3/6 2284/3/6
f 2280/1/6 2281/1/6 2285/1/6
f 2285/1/6 2281/1/6 2286/1/6
f 2282/3/6 2283/3/6 2287/3/6
f 2287/3/6 2283/3/6 2288/3/6
f 2289/2/6 2290/2/6 2293/2/6
f 2290/1/6 2291/1/6 2294/1/6
f 2293/2/6 2290/2/6 2294/2/6
f 2294/1/6 2291/1/6 2295/1/6
f 2292/2/6 2293/2/6 2298/2/6
f 2298/2/6 2293/2/6 2299/2/6
f 2295/2/6 2296/2/6 2300/2/6
f 2300/2/6 2296/2/6 2301/2/6
f 2297/2/6 2298/2/6 2303/2/6
f 2303/2/6 2298/2/6 2304/2/6
f 2303/1/6 2304/1/6 2305/1/6
f 2305/1/6 2304/1/6 2306/1/6
f 2301/2/6 2302/2/6 2309/2/6
f 2309/2/6 2302/2/6 2310/2/6
f 2306/1/6 2307/1/6 2311/1/6
f 2311/1/6 2307/1/6 2312/1/6
f 2308/1/6 2309/1/6 2314/1/6
f 2314/1/6 2309/1/6 2315/1/6
f 2312/1/6 2313/1/6 2316/1/6
f 2313/2/6 2314/2/6 2317/2/6
f 2316/1/6 2313/1/6 2317/1/6
f 2317/2/6 2314/2/6 2318/2/6
f 2319/2/6 2320/2/6 2322/2/6
f 2322/2/6 2320/2/6 2323/2/6
f 2321/2/6 2322/2/6 2325/2/6
f 2323/2/6 2324/2/6 2325/2/6
f 2322/2/6 2323/2/6 2325/2/6
f 2325/2/6 2324/2/6 2326/2/6
f 2326/2/6 2324/2/6 2327/2/6
f 2327/2/6 2324/2/6 2328/2/6
f 2326/2/6 2327/2/6 2329/2/6
f 2329/2/6 2327/2/6 2330/2/6
