# MagicaVoxel @ Ephtracy

# group
o 

# material
mtllib arrow.mtl
usemtl palette

# normals
vn -1 0 0
vn 1 0 0
vn 0 0 1
vn 0 0 -1
vn 0 -1 0
vn 0 1 0

# texcoords
vt 0.158203 0.5
vt 0.166016 0.5
vt 0.689453 0.5
vt 0.748047 0.5
vt 0.970703 0.5
vt 0.974609 0.5
vt 0.978516 0.5

# verts
v -0.7 0.1 1.4
v -0.7 0.1 1.3
v -0.7 0.6 1.4
v -0.7 0.6 1.3
v -0.6 0.4 1.5
v -0.6 0.4 1.4
v -0.6 0.4 1.3
v -0.6 0.4 1.2
v -0.6 0.6 1.4
v -0.6 0.6 1.3
v -0.6 0.7 1.5
v -0.6 0.7 1.4
v -0.6 0.7 1.3
v -0.6 0.7 1.2
v -0.6 0.9 1.4
v -0.6 0.9 1.3
v -0.6 5 1.4
v -0.6 5 1.3
v -0.6 5.2 1.4
v -0.6 5.2 1.3
v -0.6 5.3 1.4
v -0.6 5.3 1.3
v -0.5 0.7 1.5
v -0.5 0.7 1.4
v -0.5 0.7 1.3
v -0.5 0.7 1.2
v -0.5 0.9 1.4
v -0.5 0.9 1.3
v -0.5 1 1.5
v -0.5 1 1.4
v -0.5 1 1.3
v -0.5 1 1.2
v -0.5 1.1 1.4
v -0.5 1.1 1.3
v -0.5 4.9 1.4
v -0.5 4.9 1.3
v -0.5 5 1.5
v -0.5 5 1.4
v -0.5 5 1.3
v -0.5 5 1.2
v -0.5 5.1 1.5
v -0.5 5.1 1.4
v -0.5 5.1 1.3
v -0.5 5.1 1.2
v -0.5 5.2 1.5
v -0.5 5.2 1.4
v -0.5 5.2 1.3
v -0.5 5.2 1.2
v -0.5 5.3 1.4
v -0.5 5.3 1.3
v -0.5 5.5 1.4
v -0.5 5.5 1.3
v -0.5 5.6 1.4
v -0.5 5.6 1.3
v -0.4 1.1 1.4
v -0.4 1.1 1.3
v -0.4 1.2 1.4
v -0.4 1.2 1.3
v -0.4 1.4 1.4
v -0.4 1.4 1.3
v -0.4 1.6 1.4
v -0.4 1.6 1.3
v -0.4 1.9 1.4
v -0.4 1.9 1.3
v -0.4 2.4 1.4
v -0.4 2.4 1.3
v -0.4 2.6 1.4
v -0.4 2.6 1.3
v -0.4 2.8 1.4
v -0.4 2.8 1.3
v -0.4 3.3 1.4
v -0.4 3.3 1.3
v -0.4 4 1.4
v -0.4 4 1.3
v -0.4 4.1 1.4
v -0.4 4.1 1.3
v -0.4 4.4 1.4
v -0.4 4.4 1.3
v -0.4 4.7 1.4
v -0.4 4.7 1.3
v -0.4 4.9 1.5
v -0.4 4.9 1.4
v -0.4 4.9 1.3
v -0.4 4.9 1.2
v -0.4 5 1.5
v -0.4 5 1.4
v -0.4 5 1.3
v -0.4 5 1.2
v -0.4 5.2 1.5
v -0.4 5.2 1.4
v -0.4 5.2 1.3
v -0.4 5.2 1.2
v -0.4 5.3 1.5
v -0.4 5.3 1.4
v -0.4 5.3 1.3
v -0.4 5.3 1.2
v -0.4 5.5 1.5
v -0.4 5.5 1.4
v -0.4 5.5 1.3
v -0.4 5.5 1.2
v -0.4 5.6 1.4
v -0.4 5.6 1.3
v -0.4 5.7 1.4
v -0.4 5.7 1.3
v -0.4 5.9 1.4
v -0.4 5.9 1.3
v -0.3 0.1 1.8
v -0.3 0.1 1.7
v -0.3 0.1 1
v -0.3 0.1 0.9
v -0.3 0.4 1.7
v -0.3 0.4 1.6
v -0.3 0.4 1.1
v -0.3 0.4 1
v -0.3 0.6 1.8
v -0.3 0.6 1.7
v -0.3 0.6 1
v -0.3 0.6 0.9
v -0.3 0.7 1.6
v -0.3 0.7 1.5
v -0.3 0.7 1.2
v -0.3 0.7 1.1
v -0.3 0.9 1.7
v -0.3 0.9 1.6
v -0.3 0.9 1.5
v -0.3 0.9 1.4
v -0.3 0.9 1.3
v -0.3 0.9 1.2
v -0.3 0.9 1.1
v -0.3 0.9 1
v -0.3 1.1 1.6
v -0.3 1.1 1.5
v -0.3 1.1 1.4
v -0.3 1.1 1.3
v -0.3 1.1 1.2
v -0.3 1.1 1.1
v -0.3 1.2 1.5
v -0.3 1.2 1.4
v -0.3 1.2 1.3
v -0.3 1.2 1.2
v -0.3 1.4 1.5
v -0.3 1.4 1.4
v -0.3 1.4 1.3
v -0.3 1.4 1.2
v -0.3 1.6 1.4
v -0.3 1.6 1.3
v -0.3 1.7 1.5
v -0.3 1.7 1.4
v -0.3 1.8 1.5
v -0.3 1.8 1.4
v -0.3 1.9 1.4
v -0.3 1.9 1.3
v -0.3 1.9 1.2
v -0.3 2.3 1.5
v -0.3 2.3 1.4
v -0.3 2.4 1.4
v -0.3 2.4 1.3
v -0.3 2.6 1.5
v -0.3 2.6 1.4
v -0.3 2.6 1.3
v -0.3 2.8 1.4
v -0.3 2.8 1.3
v -0.3 2.8 1.2
v -0.3 2.9 1.5
v -0.3 2.9 1.4
v -0.3 3 1.3
v -0.3 3 1.2
v -0.3 3.3 1.4
v -0.3 3.3 1.3
v -0.3 3.4 1.5
v -0.3 3.4 1.4
v -0.3 3.5 1.3
v -0.3 3.5 1.2
v -0.3 3.7 1.3
v -0.3 3.7 1.2
v -0.3 3.9 1.5
v -0.3 3.9 1.4
v -0.3 3.9 1.3
v -0.3 3.9 1.2
v -0.3 4 1.4
v -0.3 4 1.3
v -0.3 4.1 1.4
v -0.3 4.1 1.3
v -0.3 4.3 1.3
v -0.3 4.3 1.2
v -0.3 4.4 1.4
v -0.3 4.4 1.3
v -0.3 4.7 1.5
v -0.3 4.7 1.4
v -0.3 4.7 1.3
v -0.3 4.8 1.3
v -0.3 4.8 1.2
v -0.3 4.9 1.5
v -0.3 4.9 1.4
v -0.3 4.9 1.3
v -0.3 4.9 1.2
v -0.3 5.5 1.5
v -0.3 5.5 1.4
v -0.3 5.5 1.3
v -0.3 5.5 1.2
v -0.3 5.6 1.5
v -0.3 5.6 1.4
v -0.3 5.6 1.3
v -0.3 5.6 1.2
v -0.3 5.7 1.4
v -0.3 5.7 1.3
v -0.3 5.8 1.5
v -0.3 5.8 1.4
v -0.3 5.8 1.3
v -0.3 5.8 1.2
v -0.3 5.9 1.4
v -0.3 5.9 1.3
v -0.3 6.1 1.4
v -0.3 6.1 1.3
v -0.1 0.6 1.4
v -0.1 0.6 1.3
v -0.1 0.7 1.5
v -0.1 0.7 1.4
v -0.1 0.7 1.3
v -0.1 0.7 1.2
v -0.1 0.9 1.4
v -0.1 0.9 1.3
v -0.1 1 1.5
v -0.1 1 1.4
v -0.1 1 1.3
v -0.1 1 1.2
v 0 0.3 1.4
v 0 0.3 1.3
v 0 0.4 1.5
v 0 0.4 1.4
v 0 0.4 1.3
v 0 0.4 1.2
v 0 0.6 1.4
v 0 0.6 1.3
v 0 0.7 1.5
v 0 0.7 1.4
v 0 0.7 1.3
v 0 0.7 1.2
v 0.1 0.1 1.4
v 0.1 0.1 1.3
v 0.1 0.3 1.4
v 0.1 0.3 1.3
v -0.6 0.1 1.4
v -0.6 0.1 1.3
v -0.6 0.3 1.4
v -0.6 0.3 1.3
v -0.5 0.3 1.4
v -0.5 0.3 1.3
v -0.5 0.4 1.5
v -0.5 0.4 1.4
v -0.5 0.4 1.3
v -0.5 0.4 1.2
v -0.5 0.6 1.4
v -0.5 0.6 1.3
v -0.5 0.7 1.5
v -0.5 0.7 1.4
v -0.5 0.7 1.3
v -0.5 0.7 1.2
v -0.4 0.6 1.4
v -0.4 0.6 1.3
v -0.4 0.7 1.5
v -0.4 0.7 1.4
v -0.4 0.7 1.3
v -0.4 0.7 1.2
v -0.4 0.9 1.4
v -0.4 0.9 1.3
v -0.4 1 1.5
v -0.4 1 1.4
v -0.4 1 1.3
v -0.4 1 1.2
v -0.2 0.1 1.8
v -0.2 0.1 1.7
v -0.2 0.1 1
v -0.2 0.1 0.9
v -0.2 0.4 1.7
v -0.2 0.4 1.6
v -0.2 0.4 1.1
v -0.2 0.4 1
v -0.2 0.6 1.8
v -0.2 0.6 1.7
v -0.2 0.6 1
v -0.2 0.6 0.9
v -0.2 0.7 1.6
v -0.2 0.7 1.5
v -0.2 0.7 1.2
v -0.2 0.7 1.1
v -0.2 0.9 1.7
v -0.2 0.9 1.6
v -0.2 0.9 1.5
v -0.2 0.9 1.4
v -0.2 0.9 1.3
v -0.2 0.9 1.2
v -0.2 0.9 1.1
v -0.2 0.9 1
v -0.2 1 1.4
v -0.2 1 1.3
v -0.2 1.1 1.6
v -0.2 1.1 1.5
v -0.2 1.1 1.4
v -0.2 1.1 1.3
v -0.2 1.1 1.2
v -0.2 1.1 1.1
v -0.2 1.2 1.5
v -0.2 1.2 1.4
v -0.2 1.2 1.3
v -0.2 1.2 1.2
v -0.2 1.4 1.5
v -0.2 1.4 1.4
v -0.2 1.4 1.3
v -0.2 1.4 1.2
v -0.2 1.6 1.4
v -0.2 1.6 1.3
v -0.2 1.7 1.5
v -0.2 1.7 1.4
v -0.2 1.8 1.5
v -0.2 1.8 1.4
v -0.2 1.9 1.3
v -0.2 1.9 1.2
v -0.2 2 1.4
v -0.2 2 1.3
v -0.2 2.2 1.4
v -0.2 2.2 1.3
v -0.2 2.3 1.5
v -0.2 2.3 1.4
v -0.2 2.4 1.4
v -0.2 2.4 1.3
v -0.2 2.6 1.5
v -0.2 2.6 1.4
v -0.2 2.8 1.4
v -0.2 2.8 1.3
v -0.2 2.8 1.2
v -0.2 2.9 1.5
v -0.2 2.9 1.4
v -0.2 3 1.3
v -0.2 3 1.2
v -0.2 3.4 1.5
v -0.2 3.4 1.4
v -0.2 3.5 1.3
v -0.2 3.5 1.2
v -0.2 3.6 1.4
v -0.2 3.6 1.3
v -0.2 3.7 1.3
v -0.2 3.7 1.2
v -0.2 3.8 1.4
v -0.2 3.8 1.3
v -0.2 3.9 1.5
v -0.2 3.9 1.4
v -0.2 3.9 1.3
v -0.2 3.9 1.2
v -0.2 4.3 1.3
v -0.2 4.3 1.2
v -0.2 4.7 1.5
v -0.2 4.7 1.4
v -0.2 4.7 1.3
v -0.2 4.8 1.3
v -0.2 4.8 1.2
v -0.2 4.9 1.5
v -0.2 4.9 1.4
v -0.2 4.9 1.3
v -0.2 4.9 1.2
v -0.2 5.5 1.5
v -0.2 5.5 1.4
v -0.2 5.5 1.3
v -0.2 5.5 1.2
v -0.2 5.6 1.5
v -0.2 5.6 1.4
v -0.2 5.6 1.3
v -0.2 5.6 1.2
v -0.2 5.7 1.4
v -0.2 5.7 1.3
v -0.2 5.8 1.5
v -0.2 5.8 1.4
v -0.2 5.8 1.3
v -0.2 5.8 1.2
v -0.2 5.9 1.4
v -0.2 5.9 1.3
v -0.2 6.1 1.4
v -0.2 6.1 1.3
v -0.1 1.1 1.4
v -0.1 1.1 1.3
v -0.1 1.2 1.4
v -0.1 1.2 1.3
v -0.1 1.4 1.4
v -0.1 1.4 1.3
v -0.1 1.6 1.4
v -0.1 1.6 1.3
v -0.1 2 1.4
v -0.1 2 1.3
v -0.1 2.2 1.4
v -0.1 2.2 1.3
v -0.1 2.4 1.4
v -0.1 2.4 1.3
v -0.1 2.8 1.4
v -0.1 2.8 1.3
v -0.1 3.6 1.4
v -0.1 3.6 1.3
v -0.1 3.8 1.4
v -0.1 3.8 1.3
v -0.1 4.7 1.4
v -0.1 4.7 1.3
v -0.1 4.9 1.5
v -0.1 4.9 1.4
v -0.1 4.9 1.3
v -0.1 4.9 1.2
v -0.1 5 1.5
v -0.1 5 1.4
v -0.1 5 1.3
v -0.1 5 1.2
v -0.1 5.2 1.5
v -0.1 5.2 1.4
v -0.1 5.2 1.3
v -0.1 5.2 1.2
v -0.1 5.3 1.5
v -0.1 5.3 1.4
v -0.1 5.3 1.3
v -0.1 5.3 1.2
v -0.1 5.5 1.5
v -0.1 5.5 1.4
v -0.1 5.5 1.3
v -0.1 5.5 1.2
v -0.1 5.6 1.4
v -0.1 5.6 1.3
v -0.1 5.7 1.4
v -0.1 5.7 1.3
v -0.1 5.9 1.4
v -0.1 5.9 1.3
v 0 0.7 1.5
v 0 0.7 1.4
v 0 0.7 1.3
v 0 0.7 1.2
v 0 0.9 1.4
v 0 0.9 1.3
v 0 1 1.5
v 0 1 1.4
v 0 1 1.3
v 0 1 1.2
v 0 1.1 1.4
v 0 1.1 1.3
v 0 4.9 1.4
v 0 4.9 1.3
v 0 5 1.5
v 0 5 1.4
v 0 5 1.3
v 0 5 1.2
v 0 5.1 1.5
v 0 5.1 1.4
v 0 5.1 1.3
v 0 5.1 1.2
v 0 5.2 1.5
v 0 5.2 1.4
v 0 5.2 1.3
v 0 5.2 1.2
v 0 5.3 1.4
v 0 5.3 1.3
v 0 5.5 1.4
v 0 5.5 1.3
v 0 5.6 1.4
v 0 5.6 1.3
v 0.1 0.4 1.5
v 0.1 0.4 1.4
v 0.1 0.4 1.3
v 0.1 0.4 1.2
v 0.1 0.6 1.4
v 0.1 0.6 1.3
v 0.1 0.7 1.5
v 0.1 0.7 1.4
v 0.1 0.7 1.3
v 0.1 0.7 1.2
v 0.1 0.9 1.4
v 0.1 0.9 1.3
v 0.1 5 1.4
v 0.1 5 1.3
v 0.1 5.2 1.4
v 0.1 5.2 1.3
v 0.1 5.3 1.4
v 0.1 5.3 1.3
v 0.2 0.1 1.4
v 0.2 0.1 1.3
v 0.2 0.6 1.4
v 0.2 0.6 1.3
v -0.3 0.1 1.8
v -0.3 0.6 1.8
v -0.2 0.1 1.8
v -0.2 0.6 1.8
v -0.3 0.6 1.7
v -0.3 0.9 1.7
v -0.2 0.6 1.7
v -0.2 0.9 1.7
v -0.3 0.9 1.6
v -0.3 1.1 1.6
v -0.2 0.9 1.6
v -0.2 1.1 1.6
v -0.6 0.4 1.5
v -0.6 0.7 1.5
v -0.5 0.4 1.5
v -0.5 0.7 1.5
v -0.5 1 1.5
v -0.5 5 1.5
v -0.5 5.1 1.5
v -0.5 5.2 1.5
v -0.4 0.7 1.5
v -0.4 1 1.5
v -0.4 4.9 1.5
v -0.4 5 1.5
v -0.4 5.1 1.5
v -0.4 5.2 1.5
v -0.4 5.3 1.5
v -0.4 5.5 1.5
v -0.3 1.1 1.5
v -0.3 1.2 1.5
v -0.3 1.4 1.5
v -0.3 1.7 1.5
v -0.3 1.8 1.5
v -0.3 2.3 1.5
v -0.3 2.6 1.5
v -0.3 2.9 1.5
v -0.3 3.4 1.5
v -0.3 3.9 1.5
v -0.3 4.7 1.5
v -0.3 4.9 1.5
v -0.3 5.2 1.5
v -0.3 5.3 1.5
v -0.3 5.5 1.5
v -0.3 5.6 1.5
v -0.3 5.8 1.5
v -0.2 1.1 1.5
v -0.2 1.2 1.5
v -0.2 1.4 1.5
v -0.2 1.7 1.5
v -0.2 1.8 1.5
v -0.2 2.3 1.5
v -0.2 2.6 1.5
v -0.2 2.9 1.5
v -0.2 3.4 1.5
v -0.2 3.9 1.5
v -0.2 4.7 1.5
v -0.2 4.9 1.5
v -0.2 5.2 1.5
v -0.2 5.3 1.5
v -0.2 5.5 1.5
v -0.2 5.6 1.5
v -0.2 5.8 1.5
v -0.1 0.7 1.5
v -0.1 1 1.5
v -0.1 4.9 1.5
v -0.1 5 1.5
v -0.1 5.1 1.5
v -0.1 5.2 1.5
v -0.1 5.3 1.5
v -0.1 5.5 1.5
v 0 0.4 1.5
v 0 0.7 1.5
v 0 1 1.5
v 0 5 1.5
v 0 5.1 1.5
v 0 5.2 1.5
v 0.1 0.4 1.5
v 0.1 0.7 1.5
v -0.7 0.1 1.4
v -0.7 0.6 1.4
v -0.6 0.1 1.4
v -0.6 0.3 1.4
v -0.6 0.4 1.4
v -0.6 0.6 1.4
v -0.6 0.7 1.4
v -0.6 0.9 1.4
v -0.6 5 1.4
v -0.6 5.2 1.4
v -0.6 5.3 1.4
v -0.5 0.3 1.4
v -0.5 0.4 1.4
v -0.5 0.6 1.4
v -0.5 0.7 1.4
v -0.5 0.9 1.4
v -0.5 1 1.4
v -0.5 1.1 1.4
v -0.5 4.9 1.4
v -0.5 5 1.4
v -0.5 5.1 1.4
v -0.5 5.2 1.4
v -0.5 5.3 1.4
v -0.5 5.5 1.4
v -0.5 5.6 1.4
v -0.4 0.6 1.4
v -0.4 0.7 1.4
v -0.4 0.9 1.4
v -0.4 1 1.4
v -0.4 1.1 1.4
v -0.4 1.2 1.4
v -0.4 1.4 1.4
v -0.4 1.6 1.4
v -0.4 1.9 1.4
v -0.4 2.4 1.4
v -0.4 2.6 1.4
v -0.4 2.8 1.4
v -0.4 3.3 1.4
v -0.4 4 1.4
v -0.4 4.1 1.4
v -0.4 4.4 1.4
v -0.4 4.7 1.4
v -0.4 4.9 1.4
v -0.4 5 1.4
v -0.4 5.2 1.4
v -0.4 5.3 1.4
v -0.4 5.5 1.4
v -0.4 5.6 1.4
v -0.4 5.7 1.4
v -0.4 5.9 1.4
v -0.3 0.9 1.4
v -0.3 1.1 1.4
v -0.3 1.2 1.4
v -0.3 1.4 1.4
v -0.3 1.6 1.4
v -0.3 1.7 1.4
v -0.3 1.8 1.4
v -0.3 1.9 1.4
v -0.3 2.3 1.4
v -0.3 2.4 1.4
v -0.3 2.6 1.4
v -0.3 2.8 1.4
v -0.3 2.9 1.4
v -0.3 3.3 1.4
v -0.3 3.4 1.4
v -0.3 3.9 1.4
v -0.3 4 1.4
v -0.3 4.1 1.4
v -0.3 4.4 1.4
v -0.3 4.7 1.4
v -0.3 4.9 1.4
v -0.3 5.5 1.4
v -0.3 5.6 1.4
v -0.3 5.7 1.4
v -0.3 5.8 1.4
v -0.3 5.9 1.4
v -0.3 6.1 1.4
v -0.2 0.9 1.4
v -0.2 1 1.4
v -0.2 1.1 1.4
v -0.2 1.2 1.4
v -0.2 1.4 1.4
v -0.2 1.6 1.4
v -0.2 1.7 1.4
v -0.2 1.8 1.4
v -0.2 2 1.4
v -0.2 2.2 1.4
v -0.2 2.3 1.4
v -0.2 2.4 1.4
v -0.2 2.6 1.4
v -0.2 2.8 1.4
v -0.2 2.9 1.4
v -0.2 3.4 1.4
v -0.2 3.6 1.4
v -0.2 3.8 1.4
v -0.2 3.9 1.4
v -0.2 4.7 1.4
v -0.2 4.9 1.4
v -0.2 5.5 1.4
v -0.2 5.6 1.4
v -0.2 5.7 1.4
v -0.2 5.8 1.4
v -0.2 5.9 1.4
v -0.2 6.1 1.4
v -0.1 0.6 1.4
v -0.1 0.7 1.4
v -0.1 0.9 1.4
v -0.1 1 1.4
v -0.1 1.1 1.4
v -0.1 1.2 1.4
v -0.1 1.4 1.4
v -0.1 1.6 1.4
v -0.1 2 1.4
v -0.1 2.2 1.4
v -0.1 2.4 1.4
v -0.1 2.8 1.4
v -0.1 3.6 1.4
v -0.1 3.8 1.4
v -0.1 4.7 1.4
v -0.1 4.9 1.4
v -0.1 5 1.4
v -0.1 5.2 1.4
v -0.1 5.3 1.4
v -0.1 5.5 1.4
v -0.1 5.6 1.4
v -0.1 5.7 1.4
v -0.1 5.9 1.4
v 0 0.3 1.4
v 0 0.4 1.4
v 0 0.6 1.4
v 0 0.7 1.4
v 0 0.9 1.4
v 0 1 1.4
v 0 1.1 1.4
v 0 4.9 1.4
v 0 5 1.4
v 0 5.1 1.4
v 0 5.2 1.4
v 0 5.3 1.4
v 0 5.5 1.4
v 0 5.6 1.4
v 0.1 0.1 1.4
v 0.1 0.3 1.4
v 0.1 0.4 1.4
v 0.1 0.6 1.4
v 0.1 0.7 1.4
v 0.1 0.9 1.4
v 0.1 5 1.4
v 0.1 5.2 1.4
v 0.1 5.3 1.4
v 0.2 0.1 1.4
v 0.2 0.6 1.4
v -0.3 0.7 1.2
v -0.3 0.9 1.2
v -0.2 0.7 1.2
v -0.2 0.9 1.2
v -0.3 0.4 1.1
v -0.3 0.7 1.1
v -0.2 0.4 1.1
v -0.2 0.7 1.1
v -0.3 0.1 1
v -0.3 0.4 1
v -0.2 0.1 1
v -0.2 0.4 1
v -0.3 0.1 1.7
v -0.3 0.4 1.7
v -0.2 0.1 1.7
v -0.2 0.4 1.7
v -0.3 0.4 1.6
v -0.3 0.7 1.6
v -0.2 0.4 1.6
v -0.2 0.7 1.6
v -0.3 0.7 1.5
v -0.3 0.9 1.5
v -0.2 0.7 1.5
v -0.2 0.9 1.5
v -0.7 0.1 1.3
v -0.7 0.6 1.3
v -0.6 0.1 1.3
v -0.6 0.3 1.3
v -0.6 0.4 1.3
v -0.6 0.6 1.3
v -0.6 0.7 1.3
v -0.6 0.9 1.3
v -0.6 5 1.3
v -0.6 5.2 1.3
v -0.6 5.3 1.3
v -0.5 0.3 1.3
v -0.5 0.4 1.3
v -0.5 0.6 1.3
v -0.5 0.7 1.3
v -0.5 0.9 1.3
v -0.5 1 1.3
v -0.5 1.1 1.3
v -0.5 4.9 1.3
v -0.5 5 1.3
v -0.5 5.1 1.3
v -0.5 5.2 1.3
v -0.5 5.3 1.3
v -0.5 5.5 1.3
v -0.5 5.6 1.3
v -0.4 0.6 1.3
v -0.4 0.7 1.3
v -0.4 0.9 1.3
v -0.4 1 1.3
v -0.4 1.1 1.3
v -0.4 1.2 1.3
v -0.4 1.4 1.3
v -0.4 1.6 1.3
v -0.4 1.9 1.3
v -0.4 2.4 1.3
v -0.4 2.6 1.3
v -0.4 2.8 1.3
v -0.4 3.3 1.3
v -0.4 4 1.3
v -0.4 4.1 1.3
v -0.4 4.4 1.3
v -0.4 4.7 1.3
v -0.4 4.9 1.3
v -0.4 5 1.3
v -0.4 5.2 1.3
v -0.4 5.3 1.3
v -0.4 5.5 1.3
v -0.4 5.6 1.3
v -0.4 5.7 1.3
v -0.4 5.9 1.3
v -0.3 0.9 1.3
v -0.3 1.1 1.3
v -0.3 1.2 1.3
v -0.3 1.4 1.3
v -0.3 1.6 1.3
v -0.3 1.9 1.3
v -0.3 2.4 1.3
v -0.3 2.6 1.3
v -0.3 2.8 1.3
v -0.3 3 1.3
v -0.3 3.3 1.3
v -0.3 3.5 1.3
v -0.3 3.7 1.3
v -0.3 3.9 1.3
v -0.3 4 1.3
v -0.3 4.1 1.3
v -0.3 4.3 1.3
v -0.3 4.4 1.3
v -0.3 4.7 1.3
v -0.3 4.8 1.3
v -0.3 4.9 1.3
v -0.3 5.5 1.3
v -0.3 5.6 1.3
v -0.3 5.7 1.3
v -0.3 5.8 1.3
v -0.3 5.9 1.3
v -0.3 6.1 1.3
v -0.2 0.9 1.3
v -0.2 1 1.3
v -0.2 1.1 1.3
v -0.2 1.2 1.3
v -0.2 1.4 1.3
v -0.2 1.6 1.3
v -0.2 1.9 1.3
v -0.2 2 1.3
v -0.2 2.2 1.3
v -0.2 2.4 1.3
v -0.2 2.8 1.3
v -0.2 3 1.3
v -0.2 3.5 1.3
v -0.2 3.6 1.3
v -0.2 3.7 1.3
v -0.2 3.8 1.3
v -0.2 3.9 1.3
v -0.2 4.3 1.3
v -0.2 4.7 1.3
v -0.2 4.8 1.3
v -0.2 4.9 1.3
v -0.2 5.5 1.3
v -0.2 5.6 1.3
v -0.2 5.7 1.3
v -0.2 5.8 1.3
v -0.2 5.9 1.3
v -0.2 6.1 1.3
v -0.1 0.6 1.3
v -0.1 0.7 1.3
v -0.1 0.9 1.3
v -0.1 1 1.3
v -0.1 1.1 1.3
v -0.1 1.2 1.3
v -0.1 1.4 1.3
v -0.1 1.6 1.3
v -0.1 2 1.3
v -0.1 2.2 1.3
v -0.1 2.4 1.3
v -0.1 2.8 1.3
v -0.1 3.6 1.3
v -0.1 3.8 1.3
v -0.1 4.7 1.3
v -0.1 4.9 1.3
v -0.1 5 1.3
v -0.1 5.2 1.3
v -0.1 5.3 1.3
v -0.1 5.5 1.3
v -0.1 5.6 1.3
v -0.1 5.7 1.3
v -0.1 5.9 1.3
v 0 0.3 1.3
v 0 0.4 1.3
v 0 0.6 1.3
v 0 0.7 1.3
v 0 0.9 1.3
v 0 1 1.3
v 0 1.1 1.3
v 0 4.9 1.3
v 0 5 1.3
v 0 5.1 1.3
v 0 5.2 1.3
v 0 5.3 1.3
v 0 5.5 1.3
v 0 5.6 1.3
v 0.1 0.1 1.3
v 0.1 0.3 1.3
v 0.1 0.4 1.3
v 0.1 0.6 1.3
v 0.1 0.7 1.3
v 0.1 0.9 1.3
v 0.1 5 1.3
v 0.1 5.2 1.3
v 0.1 5.3 1.3
v 0.2 0.1 1.3
v 0.2 0.6 1.3
v -0.6 0.4 1.2
v -0.6 0.7 1.2
v -0.5 0.4 1.2
v -0.5 0.7 1.2
v -0.5 1 1.2
v -0.5 5 1.2
v -0.5 5.1 1.2
v -0.5 5.2 1.2
v -0.4 0.7 1.2
v -0.4 1 1.2
v -0.4 4.9 1.2
v -0.4 5 1.2
v -0.4 5.1 1.2
v -0.4 5.2 1.2
v -0.4 5.3 1.2
v -0.4 5.5 1.2
v -0.3 1.1 1.2
v -0.3 1.2 1.2
v -0.3 1.4 1.2
v -0.3 1.9 1.2
v -0.3 2.8 1.2
v -0.3 3 1.2
v -0.3 3.5 1.2
v -0.3 3.7 1.2
v -0.3 3.9 1.2
v -0.3 4.3 1.2
v -0.3 4.8 1.2
v -0.3 4.9 1.2
v -0.3 5.2 1.2
v -0.3 5.3 1.2
v -0.3 5.5 1.2
v -0.3 5.6 1.2
v -0.3 5.8 1.2
v -0.2 1.1 1.2
v -0.2 1.2 1.2
v -0.2 1.4 1.2
v -0.2 1.9 1.2
v -0.2 2.8 1.2
v -0.2 3 1.2
v -0.2 3.5 1.2
v -0.2 3.7 1.2
v -0.2 3.9 1.2
v -0.2 4.3 1.2
v -0.2 4.8 1.2
v -0.2 4.9 1.2
v -0.2 5.2 1.2
v -0.2 5.3 1.2
v -0.2 5.5 1.2
v -0.2 5.6 1.2
v -0.2 5.8 1.2
v -0.1 0.7 1.2
v -0.1 1 1.2
v -0.1 4.9 1.2
v -0.1 5 1.2
v -0.1 5.1 1.2
v -0.1 5.2 1.2
v -0.1 5.3 1.2
v -0.1 5.5 1.2
v 0 0.4 1.2
v 0 0.7 1.2
v 0 1 1.2
v 0 5 1.2
v 0 5.1 1.2
v 0 5.2 1.2
v 0.1 0.4 1.2
v 0.1 0.7 1.2
v -0.3 0.9 1.1
v -0.3 1.1 1.1
v -0.2 0.9 1.1
v -0.2 1.1 1.1
v -0.3 0.6 1
v -0.3 0.9 1
v -0.2 0.6 1
v -0.2 0.9 1
v -0.3 0.1 0.9
v -0.3 0.6 0.9
v -0.2 0.1 0.9
v -0.2 0.6 0.9
v -0.3 0.1 1.8
v -0.2 0.1 1.8
v -0.3 0.1 1.7
v -0.2 0.1 1.7
v -0.7 0.1 1.4
v -0.6 0.1 1.4
v 0.1 0.1 1.4
v 0.2 0.1 1.4
v -0.7 0.1 1.3
v -0.6 0.1 1.3
v 0.1 0.1 1.3
v 0.2 0.1 1.3
v -0.3 0.1 1
v -0.2 0.1 1
v -0.3 0.1 0.9
v -0.2 0.1 0.9
v -0.6 0.3 1.4
v -0.5 0.3 1.4
v 0 0.3 1.4
v 0.1 0.3 1.4
v -0.6 0.3 1.3
v -0.5 0.3 1.3
v 0 0.3 1.3
v 0.1 0.3 1.3
v -0.3 0.4 1.7
v -0.2 0.4 1.7
v -0.3 0.4 1.6
v -0.2 0.4 1.6
v -0.6 0.4 1.5
v -0.5 0.4 1.5
v 0 0.4 1.5
v 0.1 0.4 1.5
v -0.6 0.4 1.4
v -0.5 0.4 1.4
v 0 0.4 1.4
v 0.1 0.4 1.4
v -0.6 0.4 1.3
v -0.5 0.4 1.3
v 0 0.4 1.3
v 0.1 0.4 1.3
v -0.6 0.4 1.2
v -0.5 0.4 1.2
v 0 0.4 1.2
v 0.1 0.4 1.2
v -0.3 0.4 1.1
v -0.2 0.4 1.1
v -0.3 0.4 1
v -0.2 0.4 1
v -0.5 0.6 1.4
v -0.4 0.6 1.4
v -0.1 0.6 1.4
v 0 0.6 1.4
v -0.5 0.6 1.3
v -0.4 0.6 1.3
v -0.1 0.6 1.3
v 0 0.6 1.3
v -0.3 0.7 1.6
v -0.2 0.7 1.6
v -0.5 0.7 1.5
v -0.4 0.7 1.5
v -0.3 0.7 1.5
v -0.2 0.7 1.5
v -0.1 0.7 1.5
v 0 0.7 1.5
v -0.5 0.7 1.4
v -0.4 0.7 1.4
v -0.1 0.7 1.4
v 0 0.7 1.4
v -0.5 0.7 1.3
v -0.4 0.7 1.3
v -0.1 0.7 1.3
v 0 0.7 1.3
v -0.5 0.7 1.2
v -0.4 0.7 1.2
v -0.3 0.7 1.2
v -0.2 0.7 1.2
v -0.1 0.7 1.2
v 0 0.7 1.2
v -0.3 0.7 1.1
v -0.2 0.7 1.1
v -0.3 0.9 1.5
v -0.2 0.9 1.5
v -0.4 0.9 1.4
v -0.3 0.9 1.4
v -0.2 0.9 1.4
v -0.1 0.9 1.4
v -0.4 0.9 1.3
v -0.3 0.9 1.3
v -0.2 0.9 1.3
v -0.1 0.9 1.3
v -0.3 0.9 1.2
v -0.2 0.9 1.2
v -0.4 4.9 1.5
v -0.3 4.9 1.5
v -0.2 4.9 1.5
v -0.1 4.9 1.5
v -0.5 4.9 1.4
v -0.4 4.9 1.4
v -0.3 4.9 1.4
v -0.2 4.9 1.4
v -0.1 4.9 1.4
v 0 4.9 1.4
v -0.5 4.9 1.3
v -0.4 4.9 1.3
v -0.3 4.9 1.3
v -0.2 4.9 1.3
v -0.1 4.9 1.3
v 0 4.9 1.3
v -0.4 4.9 1.2
v -0.3 4.9 1.2
v -0.2 4.9 1.2
v -0.1 4.9 1.2
v -0.5 5 1.5
v -0.4 5 1.5
v -0.1 5 1.5
v 0 5 1.5
v -0.6 5 1.4
v -0.5 5 1.4
v -0.4 5 1.4
v -0.1 5 1.4
v 0 5 1.4
v 0.1 5 1.4
v -0.6 5 1.3
v -0.5 5 1.3
v -0.4 5 1.3
v -0.1 5 1.3
v 0 5 1.3
v 0.1 5 1.3
v -0.5 5 1.2
v -0.4 5 1.2
v -0.1 5 1.2
v 0 5 1.2
v -0.3 0.6 1.8
v -0.2 0.6 1.8
v -0.3 0.6 1.7
v -0.2 0.6 1.7
v -0.7 0.6 1.4
v -0.6 0.6 1.4
v 0.1 0.6 1.4
v 0.2 0.6 1.4
v -0.7 0.6 1.3
v -0.6 0.6 1.3
v 0.1 0.6 1.3
v 0.2 0.6 1.3
v -0.3 0.6 1
v -0.2 0.6 1
v -0.3 0.6 0.9
v -0.2 0.6 0.9
v -0.6 0.7 1.5
v -0.5 0.7 1.5
v 0 0.7 1.5
v 0.1 0.7 1.5
v -0.6 0.7 1.4
v -0.5 0.7 1.4
v 0 0.7 1.4
v 0.1 0.7 1.4
v -0.6 0.7 1.3
v -0.5 0.7 1.3
v 0 0.7 1.3
v 0.1 0.7 1.3
v -0.6 0.7 1.2
v -0.5 0.7 1.2
v 0 0.7 1.2
v 0.1 0.7 1.2
v -0.3 0.9 1.7
v -0.2 0.9 1.7
v -0.3 0.9 1.6
v -0.2 0.9 1.6
v -0.6 0.9 1.4
v -0.5 0.9 1.4
v 0 0.9 1.4
v 0.1 0.9 1.4
v -0.6 0.9 1.3
v -0.5 0.9 1.3
v 0 0.9 1.3
v 0.1 0.9 1.3
v -0.3 0.9 1.1
v -0.2 0.9 1.1
v -0.3 0.9 1
v -0.2 0.9 1
v -0.5 1 1.5
v -0.4 1 1.5
v -0.1 1 1.5
v 0 1 1.5
v -0.5 1 1.4
v -0.4 1 1.4
v -0.1 1 1.4
v 0 1 1.4
v -0.5 1 1.3
v -0.4 1 1.3
v -0.1 1 1.3
v 0 1 1.3
v -0.5 1 1.2
v -0.4 1 1.2
v -0.1 1 1.2
v 0 1 1.2
v -0.3 1.1 1.6
v -0.2 1.1 1.6
v -0.3 1.1 1.5
v -0.2 1.1 1.5
v -0.5 1.1 1.4
v -0.4 1.1 1.4
v -0.1 1.1 1.4
v 0 1.1 1.4
v -0.5 1.1 1.3
v -0.4 1.1 1.3
v -0.1 1.1 1.3
v 0 1.1 1.3
v -0.3 1.1 1.2
v -0.2 1.1 1.2
v -0.3 1.1 1.1
v -0.2 1.1 1.1
v -0.5 5.2 1.5
v -0.4 5.2 1.5
v -0.1 5.2 1.5
v 0 5.2 1.5
v -0.5 5.2 1.4
v -0.4 5.2 1.4
v -0.1 5.2 1.4
v 0 5.2 1.4
v -0.5 5.2 1.3
v -0.4 5.2 1.3
v -0.1 5.2 1.3
v 0 5.2 1.3
v -0.5 5.2 1.2
v -0.4 5.2 1.2
v -0.1 5.2 1.2
v 0 5.2 1.2
v -0.6 5.3 1.4
v -0.5 5.3 1.4
v 0 5.3 1.4
v 0.1 5.3 1.4
v -0.6 5.3 1.3
v -0.5 5.3 1.3
v 0 5.3 1.3
v 0.1 5.3 1.3
v -0.4 5.5 1.5
v -0.3 5.5 1.5
v -0.2 5.5 1.5
v -0.1 5.5 1.5
v -0.4 5.5 1.4
v -0.3 5.5 1.4
v -0.2 5.5 1.4
v -0.1 5.5 1.4
v -0.4 5.5 1.3
v -0.3 5.5 1.3
v -0.2 5.5 1.3
v -0.1 5.5 1.3
v -0.4 5.5 1.2
v -0.3 5.5 1.2
v -0.2 5.5 1.2
v -0.1 5.5 1.2
v -0.5 5.6 1.4
v -0.4 5.6 1.4
v -0.1 5.6 1.4
v 0 5.6 1.4
v -0.5 5.6 1.3
v -0.4 5.6 1.3
v -0.1 5.6 1.3
v 0 5.6 1.3
v -0.3 5.8 1.5
v -0.2 5.8 1.5
v -0.3 5.8 1.4
v -0.2 5.8 1.4
v -0.3 5.8 1.3
v -0.2 5.8 1.3
v -0.3 5.8 1.2
v -0.2 5.8 1.2
v -0.4 5.9 1.4
v -0.3 5.9 1.4
v -0.2 5.9 1.4
v -0.1 5.9 1.4
v -0.4 5.9 1.3
v -0.3 5.9 1.3
v -0.2 5.9 1.3
v -0.1 5.9 1.3
v -0.3 6.1 1.4
v -0.2 6.1 1.4
v -0.3 6.1 1.3
v -0.2 6.1 1.3

# faces
f 3/4/1 2/4/1 1/4/1
f 4/4/1 2/4/1 3/4/1
f 9/4/1 6/4/1 5/4/1
f 10/4/1 8/4/1 7/4/1
f 11/4/1 9/4/1 5/4/1
f 11/4/1 10/4/1 9/4/1
f 12/4/1 10/4/1 11/4/1
f 13/4/1 8/4/1 10/4/1
f 13/4/1 10/4/1 12/4/1
f 14/4/1 8/4/1 13/4/1
f 15/4/1 13/4/1 12/4/1
f 16/4/1 13/4/1 15/4/1
f 19/6/1 18/6/1 17/6/1
f 20/6/1 18/6/1 19/6/1
f 21/5/1 20/5/1 19/5/1
f 22/5/1 20/5/1 21/5/1
f 27/4/1 24/4/1 23/4/1
f 28/4/1 26/4/1 25/4/1
f 29/4/1 27/4/1 23/4/1
f 29/4/1 28/4/1 27/4/1
f 30/4/1 28/4/1 29/4/1
f 31/4/1 26/4/1 28/4/1
f 31/4/1 28/4/1 30/4/1
f 32/4/1 26/4/1 31/4/1
f 33/4/1 31/4/1 30/4/1
f 34/4/1 31/4/1 33/4/1
f 38/7/1 36/7/1 35/7/1
f 39/7/1 36/7/1 38/7/1
f 41/7/1 38/7/1 37/7/1
f 42/7/1 38/7/1 41/7/1
f 43/7/1 40/7/1 39/7/1
f 44/7/1 40/7/1 43/7/1
f 45/5/1 42/5/1 41/5/1
f 46/5/1 42/5/1 45/5/1
f 47/5/1 44/5/1 43/5/1
f 48/5/1 44/5/1 47/5/1
f 51/6/1 50/6/1 49/6/1
f 52/6/1 50/6/1 51/6/1
f 53/5/1 52/5/1 51/5/1
f 54/5/1 52/5/1 53/5/1
f 57/4/1 56/4/1 55/4/1
f 58/4/1 56/4/1 57/4/1
f 59/6/1 58/6/1 57/6/1
f 60/6/1 58/6/1 59/6/1
f 61/2/1 60/2/1 59/2/1
f 62/2/1 60/2/1 61/2/1
f 63/1/1 62/1/1 61/1/1
f 64/1/1 62/1/1 63/1/1
f 65/2/1 64/2/1 63/2/1
f 66/2/1 64/2/1 65/2/1
f 67/1/1 66/1/1 65/1/1
f 68/1/1 66/1/1 67/1/1
f 69/2/1 68/2/1 67/2/1
f 70/2/1 68/2/1 69/2/1
f 71/1/1 70/1/1 69/1/1
f 72/1/1 70/1/1 71/1/1
f 73/2/1 72/2/1 71/2/1
f 74/2/1 72/2/1 73/2/1
f 75/1/1 74/1/1 73/1/1
f 76/1/1 74/1/1 75/1/1
f 77/2/1 76/2/1 75/2/1
f 78/2/1 76/2/1 77/2/1
f 79/1/1 78/1/1 77/1/1
f 80/1/1 78/1/1 79/1/1
f 82/2/1 80/2/1 79/2/1
f 83/2/1 80/2/1 82/2/1
f 85/7/1 82/7/1 81/7/1
f 86/7/1 82/7/1 85/7/1
f 87/7/1 84/7/1 83/7/1
f 88/7/1 84/7/1 87/7/1
f 93/6/1 90/6/1 89/6/1
f 94/6/1 90/6/1 93/6/1
f 95/6/1 92/6/1 91/6/1
f 96/6/1 92/6/1 95/6/1
f 97/5/1 94/5/1 93/5/1
f 98/5/1 94/5/1 97/5/1
f 99/5/1 96/5/1 95/5/1
f 100/5/1 96/5/1 99/5/1
f 103/6/1 102/6/1 101/6/1
f 104/6/1 102/6/1 103/6/1
f 105/5/1 104/5/1 103/5/1
f 106/5/1 104/5/1 105/5/1
f 111/3/1 108/3/1 107/3/1
f 114/3/1 110/3/1 109/3/1
f 115/3/1 112/3/1 111/3/1
f 115/3/1 111/3/1 107/3/1
f 116/3/1 112/3/1 115/3/1
f 117/3/1 114/3/1 113/3/1
f 117/3/1 110/3/1 114/3/1
f 118/3/1 110/3/1 117/3/1
f 119/3/1 112/3/1 116/3/1
f 122/3/1 117/3/1 113/3/1
f 123/3/1 120/3/1 119/3/1
f 123/3/1 119/3/1 116/3/1
f 124/3/1 120/3/1 123/3/1
f 125/3/1 120/3/1 124/3/1
f 128/3/1 122/3/1 121/3/1
f 129/3/1 117/3/1 122/3/1
f 129/3/1 122/3/1 128/3/1
f 130/3/1 117/3/1 129/3/1
f 131/3/1 126/3/1 125/3/1
f 131/3/1 125/3/1 124/3/1
f 132/3/1 126/3/1 131/3/1
f 133/3/1 126/3/1 132/3/1
f 134/3/1 128/3/1 127/3/1
f 134/3/1 129/3/1 128/3/1
f 135/3/1 129/3/1 134/3/1
f 136/3/1 129/3/1 135/3/1
f 137/3/1 133/3/1 132/3/1
f 138/3/1 133/3/1 137/3/1
f 139/3/1 135/3/1 134/3/1
f 140/3/1 135/3/1 139/3/1
f 141/6/1 138/6/1 137/6/1
f 142/6/1 138/6/1 141/6/1
f 143/6/1 140/6/1 139/6/1
f 144/6/1 140/6/1 143/6/1
f 145/1/1 142/1/1 141/1/1
f 146/2/1 144/2/1 143/2/1
f 147/1/1 145/1/1 141/1/1
f 148/1/1 145/1/1 147/1/1
f 149/2/1 148/2/1 147/2/1
f 150/2/1 148/2/1 149/2/1
f 151/1/1 150/1/1 149/1/1
f 152/2/1 144/2/1 146/2/1
f 153/2/1 144/2/1 152/2/1
f 154/1/1 151/1/1 149/1/1
f 155/1/1 151/1/1 154/1/1
f 156/2/1 155/2/1 154/2/1
f 157/1/1 153/1/1 152/1/1
f 158/2/1 156/2/1 154/2/1
f 159/2/1 156/2/1 158/2/1
f 160/1/1 153/1/1 157/1/1
f 161/1/1 159/1/1 158/1/1
f 162/1/1 153/1/1 160/1/1
f 163/1/1 153/1/1 162/1/1
f 164/1/1 161/1/1 158/1/1
f 165/1/1 161/1/1 164/1/1
f 166/2/1 163/2/1 162/2/1
f 167/2/1 163/2/1 166/2/1
f 168/2/1 165/2/1 164/2/1
f 169/1/1 167/1/1 166/1/1
f 170/2/1 168/2/1 164/2/1
f 171/2/1 168/2/1 170/2/1
f 172/1/1 167/1/1 169/1/1
f 173/1/1 167/1/1 172/1/1
f 174/2/1 173/2/1 172/2/1
f 175/2/1 173/2/1 174/2/1
f 176/1/1 171/1/1 170/1/1
f 177/1/1 171/1/1 176/1/1
f 178/1/1 175/1/1 174/1/1
f 179/1/1 175/1/1 178/1/1
f 180/2/1 177/2/1 176/2/1
f 181/2/1 179/2/1 178/2/1
f 182/2/1 180/2/1 176/2/1
f 183/2/1 179/2/1 181/2/1
f 184/2/1 179/2/1 183/2/1
f 185/2/1 179/2/1 184/2/1
f 186/2/1 182/2/1 176/2/1
f 187/1/1 185/1/1 184/1/1
f 188/2/1 186/2/1 176/2/1
f 189/2/1 186/2/1 188/2/1
f 190/1/1 185/1/1 187/1/1
f 191/1/1 185/1/1 190/1/1
f 192/1/1 185/1/1 191/1/1
f 193/1/1 189/1/1 188/1/1
f 194/1/1 189/1/1 193/1/1
f 195/2/1 192/2/1 191/2/1
f 196/2/1 192/2/1 195/2/1
f 201/6/1 198/6/1 197/6/1
f 202/6/1 198/6/1 201/6/1
f 203/6/1 200/6/1 199/6/1
f 204/6/1 200/6/1 203/6/1
f 205/5/1 202/5/1 201/5/1
f 206/5/1 204/5/1 203/5/1
f 207/5/1 205/5/1 201/5/1
f 208/5/1 205/5/1 207/5/1
f 209/5/1 204/5/1 206/5/1
f 210/5/1 204/5/1 209/5/1
f 213/5/1 212/5/1 211/5/1
f 214/5/1 212/5/1 213/5/1
f 218/4/1 216/4/1 215/4/1
f 219/4/1 216/4/1 218/4/1
f 221/4/1 218/4/1 217/4/1
f 221/4/1 220/4/1 219/4/1
f 221/4/1 219/4/1 218/4/1
f 222/4/1 220/4/1 221/4/1
f 223/4/1 221/4/1 217/4/1
f 224/4/1 221/4/1 223/4/1
f 225/4/1 220/4/1 222/4/1
f 226/4/1 220/4/1 225/4/1
f 230/4/1 228/4/1 227/4/1
f 231/4/1 228/4/1 230/4/1
f 233/4/1 230/4/1 229/4/1
f 233/4/1 232/4/1 231/4/1
f 233/4/1 231/4/1 230/4/1
f 234/4/1 232/4/1 233/4/1
f 235/4/1 233/4/1 229/4/1
f 236/4/1 233/4/1 235/4/1
f 237/4/1 232/4/1 234/4/1
f 238/4/1 232/4/1 237/4/1
f 241/4/1 240/4/1 239/4/1
f 242/4/1 240/4/1 241/4/1
f 243/4/2 244/4/2 245/4/2
f 245/4/2 244/4/2 246/4/2
f 247/4/2 248/4/2 250/4/2
f 250/4/2 248/4/2 251/4/2
f 249/4/2 250/4/2 253/4/2
f 251/4/2 252/4/2 253/4/2
f 250/4/2 251/4/2 253/4/2
f 253/4/2 252/4/2 254/4/2
f 249/4/2 253/4/2 255/4/2
f 255/4/2 253/4/2 256/4/2
f 254/4/2 252/4/2 257/4/2
f 257/4/2 252/4/2 258/4/2
f 259/4/2 260/4/2 262/4/2
f 262/4/2 260/4/2 263/4/2
f 261/4/2 262/4/2 265/4/2
f 263/4/2 264/4/2 265/4/2
f 262/4/2 263/4/2 265/4/2
f 265/4/2 264/4/2 266/4/2
f 261/4/2 265/4/2 267/4/2
f 267/4/2 265/4/2 268/4/2
f 266/4/2 264/4/2 269/4/2
f 269/4/2 264/4/2 270/4/2
f 271/3/2 272/3/2 275/3/2
f 273/3/2 274/3/2 278/3/2
f 275/3/2 276/3/2 279/3/2
f 271/3/2 275/3/2 279/3/2
f 279/3/2 276/3/2 280/3/2
f 277/3/2 278/3/2 281/3/2
f 278/3/2 274/3/2 281/3/2
f 281/3/2 274/3/2 282/3/2
f 280/3/2 276/3/2 283/3/2
f 277/3/2 281/3/2 286/3/2
f 283/3/2 284/3/2 287/3/2
f 280/3/2 283/3/2 287/3/2
f 287/3/2 284/3/2 288/3/2
f 288/3/2 284/3/2 289/3/2
f 285/3/2 286/3/2 292/3/2
f 286/3/2 281/3/2 293/3/2
f 292/3/2 286/3/2 293/3/2
f 293/3/2 281/3/2 294/3/2
f 289/3/2 290/3/2 295/3/2
f 288/3/2 289/3/2 295/3/2
f 291/3/2 292/3/2 296/3/2
f 292/3/2 293/3/2 296/3/2
f 288/3/2 295/3/2 297/3/2
f 297/3/2 295/3/2 298/3/2
f 298/3/2 295/3/2 299/3/2
f 296/3/2 293/3/2 300/3/2
f 300/3/2 293/3/2 301/3/2
f 301/3/2 293/3/2 302/3/2
f 298/3/2 299/3/2 303/3/2
f 303/3/2 299/3/2 304/3/2
f 300/3/2 301/3/2 305/3/2
f 305/3/2 301/3/2 306/3/2
f 303/6/2 304/6/2 307/6/2
f 307/6/2 304/6/2 308/6/2
f 305/6/2 306/6/2 309/6/2
f 309/6/2 306/6/2 310/6/2
f 307/1/2 308/1/2 311/1/2
f 309/2/2 310/2/2 312/2/2
f 307/1/2 311/1/2 313/1/2
f 313/1/2 311/1/2 314/1/2
f 313/2/2 314/2/2 315/2/2
f 315/2/2 314/2/2 316/2/2
f 312/2/2 310/2/2 317/2/2
f 317/2/2 310/2/2 318/2/2
f 315/1/2 316/1/2 319/1/2
f 317/1/2 318/1/2 320/1/2
f 315/1/2 319/1/2 321/1/2
f 320/1/2 318/1/2 322/1/2
f 315/1/2 321/1/2 323/1/2
f 323/1/2 321/1/2 324/1/2
f 323/2/2 324/2/2 325/2/2
f 322/1/2 318/1/2 326/1/2
f 323/2/2 325/2/2 327/2/2
f 327/2/2 325/2/2 328/2/2
f 327/1/2 328/1/2 329/1/2
f 326/1/2 318/1/2 330/1/2
f 330/1/2 318/1/2 331/1/2
f 327/1/2 329/1/2 332/1/2
f 332/1/2 329/1/2 333/1/2
f 330/2/2 331/2/2 334/2/2
f 334/2/2 331/2/2 335/2/2
f 332/2/2 333/2/2 336/2/2
f 336/2/2 333/2/2 337/2/2
f 334/1/2 335/1/2 338/1/2
f 338/1/2 335/1/2 339/1/2
f 336/1/2 337/1/2 340/1/2
f 338/2/2 339/2/2 341/2/2
f 341/2/2 339/2/2 342/2/2
f 342/2/2 339/2/2 343/2/2
f 336/1/2 340/1/2 344/1/2
f 342/1/2 343/1/2 345/1/2
f 336/1/2 344/1/2 346/1/2
f 346/1/2 344/1/2 347/1/2
f 345/1/2 343/1/2 348/1/2
f 348/1/2 343/1/2 349/1/2
f 348/2/2 349/2/2 350/2/2
f 350/2/2 349/2/2 351/2/2
f 346/2/2 347/2/2 352/2/2
f 352/2/2 347/2/2 353/2/2
f 350/1/2 351/1/2 354/1/2
f 354/1/2 351/1/2 355/1/2
f 355/1/2 351/1/2 356/1/2
f 352/1/2 353/1/2 357/1/2
f 357/1/2 353/1/2 358/1/2
f 355/2/2 356/2/2 359/2/2
f 359/2/2 356/2/2 360/2/2
f 361/6/2 362/6/2 365/6/2
f 365/6/2 362/6/2 366/6/2
f 363/6/2 364/6/2 367/6/2
f 367/6/2 364/6/2 368/6/2
f 365/5/2 366/5/2 369/5/2
f 367/5/2 368/5/2 370/5/2
f 365/5/2 369/5/2 371/5/2
f 371/5/2 369/5/2 372/5/2
f 370/5/2 368/5/2 373/5/2
f 373/5/2 368/5/2 374/5/2
f 375/5/2 376/5/2 377/5/2
f 377/5/2 376/5/2 378/5/2
f 379/3/2 380/3/2 381/3/2
f 381/3/2 380/3/2 382/3/2
f 381/6/2 382/6/2 383/6/2
f 383/6/2 382/6/2 384/6/2
f 383/2/2 384/2/2 385/2/2
f 385/2/2 384/2/2 386/2/2
f 385/1/2 386/1/2 387/1/2
f 387/1/2 386/1/2 388/1/2
f 387/2/2 388/2/2 389/2/2
f 389/2/2 388/2/2 390/2/2
f 389/1/2 390/1/2 391/1/2
f 391/1/2 390/1/2 392/1/2
f 391/2/2 392/2/2 393/2/2
f 393/2/2 392/2/2 394/2/2
f 393/1/2 394/1/2 395/1/2
f 395/1/2 394/1/2 396/1/2
f 395/2/2 396/2/2 397/2/2
f 397/2/2 396/2/2 398/2/2
f 397/1/2 398/1/2 399/1/2
f 399/1/2 398/1/2 400/1/2
f 399/2/2 400/2/2 402/2/2
f 402/2/2 400/2/2 403/2/2
f 401/7/2 402/7/2 405/7/2
f 405/7/2 402/7/2 406/7/2
f 403/7/2 404/7/2 407/7/2
f 407/7/2 404/7/2 408/7/2
f 409/6/2 410/6/2 413/6/2
f 413/6/2 410/6/2 414/6/2
f 411/6/2 412/6/2 415/6/2
f 415/6/2 412/6/2 416/6/2
f 413/5/2 414/5/2 417/5/2
f 417/5/2 414/5/2 418/5/2
f 415/5/2 416/5/2 419/5/2
f 419/5/2 416/5/2 420/5/2
f 421/6/2 422/6/2 423/6/2
f 423/6/2 422/6/2 424/6/2
f 423/5/2 424/5/2 425/5/2
f 425/5/2 424/5/2 426/5/2
f 427/4/2 428/4/2 431/4/2
f 429/4/2 430/4/2 432/4/2
f 427/4/2 431/4/2 433/4/2
f 431/4/2 432/4/2 433/4/2
f 433/4/2 432/4/2 434/4/2
f 432/4/2 430/4/2 435/4/2
f 434/4/2 432/4/2 435/4/2
f 435/4/2 430/4/2 436/4/2
f 434/4/2 435/4/2 437/4/2
f 437/4/2 435/4/2 438/4/2
f 439/7/2 440/7/2 442/7/2
f 442/7/2 440/7/2 443/7/2
f 441/7/2 442/7/2 445/7/2
f 445/7/2 442/7/2 446/7/2
f 443/7/2 444/7/2 447/7/2
f 447/7/2 444/7/2 448/7/2
f 445/5/2 446/5/2 449/5/2
f 449/5/2 446/5/2 450/5/2
f 447/5/2 448/5/2 451/5/2
f 451/5/2 448/5/2 452/5/2
f 453/6/2 454/6/2 455/6/2
f 455/6/2 454/6/2 456/6/2
f 455/5/2 456/5/2 457/5/2
f 457/5/2 456/5/2 458/5/2
f 459/4/2 460/4/2 463/4/2
f 461/4/2 462/4/2 464/4/2
f 459/4/2 463/4/2 465/4/2
f 463/4/2 464/4/2 465/4/2
f 465/4/2 464/4/2 466/4/2
f 464/4/2 462/4/2 467/4/2
f 466/4/2 464/4/2 467/4/2
f 467/4/2 462/4/2 468/4/2
f 466/4/2 467/4/2 469/4/2
f 469/4/2 467/4/2 470/4/2
f 471/6/2 472/6/2 473/6/2
f 473/6/2 472/6/2 474/6/2
f 473/5/2 474/5/2 475/5/2
f 475/5/2 474/5/2 476/5/2
f 477/4/2 478/4/2 479/4/2
f 479/4/2 478/4/2 480/4/2
f 483/3/3 482/3/3 481/3/3
f 484/3/3 482/3/3 483/3/3
f 487/3/3 486/3/3 485/3/3
f 488/3/3 486/3/3 487/3/3
f 491/3/3 490/3/3 489/3/3
f 492/3/3 490/3/3 491/3/3
f 495/4/3 494/4/3 493/4/3
f 496/4/3 494/4/3 495/4/3
f 501/4/3 497/4/3 496/4/3
f 502/4/3 497/4/3 501/4/3
f 504/7/3 499/7/3 498/7/3
f 505/5/3 500/5/3 499/5/3
f 505/7/3 499/7/3 504/7/3
f 506/5/3 500/5/3 505/5/3
f 520/7/3 504/7/3 503/7/3
f 520/7/3 505/7/3 504/7/3
f 520/7/3 506/7/3 505/7/3
f 521/6/3 507/6/3 506/6/3
f 521/7/3 506/7/3 520/7/3
f 522/5/3 508/5/3 507/5/3
f 522/6/3 507/6/3 521/6/3
f 523/5/3 508/5/3 522/5/3
f 526/3/3 510/3/3 509/3/3
f 527/6/3 511/6/3 510/6/3
f 527/3/3 510/3/3 526/3/3
f 528/1/3 512/1/3 511/1/3
f 528/6/3 511/6/3 527/6/3
f 529/2/3 513/2/3 512/2/3
f 529/1/3 512/1/3 528/1/3
f 530/1/3 514/1/3 513/1/3
f 530/2/3 513/2/3 529/2/3
f 531/2/3 515/2/3 514/2/3
f 531/1/3 514/1/3 530/1/3
f 532/1/3 516/1/3 515/1/3
f 532/2/3 515/2/3 531/2/3
f 533/2/3 517/2/3 516/2/3
f 533/1/3 516/1/3 532/1/3
f 534/1/3 518/1/3 517/1/3
f 534/2/3 517/2/3 533/2/3
f 535/2/3 519/2/3 518/2/3
f 535/1/3 518/1/3 534/1/3
f 536/1/3 520/1/3 519/1/3
f 536/2/3 519/2/3 535/2/3
f 537/7/3 521/7/3 520/7/3
f 537/1/3 520/1/3 536/1/3
f 537/7/3 522/7/3 521/7/3
f 538/7/3 522/7/3 537/7/3
f 539/6/3 524/6/3 523/6/3
f 539/7/3 522/7/3 538/7/3
f 539/6/3 523/6/3 522/6/3
f 540/6/3 524/6/3 539/6/3
f 541/5/3 525/5/3 524/5/3
f 541/6/3 524/6/3 540/6/3
f 542/5/3 525/5/3 541/5/3
f 545/7/3 538/7/3 537/7/3
f 546/7/3 538/7/3 545/7/3
f 547/7/3 538/7/3 546/7/3
f 548/6/3 539/6/3 538/6/3
f 548/7/3 538/7/3 547/7/3
f 549/5/3 540/5/3 539/5/3
f 549/6/3 539/6/3 548/6/3
f 550/5/3 540/5/3 549/5/3
f 552/4/3 544/4/3 543/4/3
f 553/4/3 544/4/3 552/4/3
f 554/7/3 547/7/3 546/7/3
f 555/5/3 548/5/3 547/5/3
f 555/7/3 547/7/3 554/7/3
f 556/5/3 548/5/3 555/5/3
f 557/4/3 552/4/3 551/4/3
f 558/4/3 552/4/3 557/4/3
f 561/4/3 560/4/3 559/4/3
f 562/4/3 560/4/3 561/4/3
f 563/4/3 560/4/3 562/4/3
f 564/4/3 560/4/3 563/4/3
f 570/4/3 563/4/3 562/4/3
f 571/4/3 563/4/3 570/4/3
f 573/4/3 566/4/3 565/4/3
f 574/4/3 566/4/3 573/4/3
f 578/6/3 568/6/3 567/6/3
f 579/6/3 568/6/3 578/6/3
f 580/5/3 569/5/3 568/5/3
f 580/6/3 568/6/3 579/6/3
f 581/5/3 569/5/3 580/5/3
f 584/4/3 573/4/3 572/4/3
f 585/4/3 573/4/3 584/4/3
f 587/4/3 576/4/3 575/4/3
f 588/4/3 576/4/3 587/4/3
f 601/7/3 578/7/3 577/7/3
f 602/7/3 578/7/3 601/7/3
f 603/6/3 582/6/3 581/6/3
f 603/6/3 581/6/3 580/6/3
f 604/6/3 582/6/3 603/6/3
f 605/5/3 583/5/3 582/5/3
f 605/6/3 582/6/3 604/6/3
f 606/5/3 583/5/3 605/5/3
f 609/3/3 587/3/3 586/3/3
f 609/3/3 588/3/3 587/3/3
f 610/4/3 589/4/3 588/4/3
f 610/3/3 588/3/3 609/3/3
f 611/6/3 590/6/3 589/6/3
f 611/4/3 589/4/3 610/4/3
f 612/2/3 591/2/3 590/2/3
f 612/6/3 590/6/3 611/6/3
f 613/1/3 592/1/3 591/1/3
f 613/2/3 591/2/3 612/2/3
f 614/1/3 592/1/3 613/1/3
f 615/1/3 592/1/3 614/1/3
f 616/2/3 593/2/3 592/2/3
f 616/1/3 592/1/3 615/1/3
f 617/2/3 593/2/3 616/2/3
f 618/1/3 594/1/3 593/1/3
f 618/2/3 593/2/3 617/2/3
f 619/2/3 595/2/3 594/2/3
f 619/1/3 594/1/3 618/1/3
f 620/1/3 596/1/3 595/1/3
f 620/2/3 595/2/3 619/2/3
f 621/1/3 596/1/3 620/1/3
f 622/2/3 597/2/3 596/2/3
f 622/1/3 596/1/3 621/1/3
f 623/2/3 597/2/3 622/2/3
f 624/2/3 597/2/3 623/2/3
f 625/1/3 598/1/3 597/1/3
f 625/2/3 597/2/3 624/2/3
f 626/2/3 599/2/3 598/2/3
f 626/1/3 598/1/3 625/1/3
f 627/1/3 600/1/3 599/1/3
f 627/2/3 599/2/3 626/2/3
f 628/2/3 601/2/3 600/2/3
f 628/1/3 600/1/3 627/1/3
f 629/2/3 601/2/3 628/2/3
f 630/6/3 607/6/3 606/6/3
f 630/6/3 606/6/3 605/6/3
f 631/6/3 607/6/3 630/6/3
f 632/5/3 608/5/3 607/5/3
f 632/6/3 607/6/3 631/6/3
f 633/5/3 608/5/3 632/5/3
f 634/5/3 608/5/3 633/5/3
f 660/6/3 634/6/3 633/6/3
f 661/5/3 635/5/3 634/5/3
f 661/6/3 634/6/3 660/6/3
f 662/5/3 635/5/3 661/5/3
f 665/3/3 637/3/3 636/3/3
f 666/4/3 638/4/3 637/4/3
f 666/3/3 637/3/3 665/3/3
f 667/3/3 639/3/3 638/3/3
f 667/4/3 638/4/3 666/4/3
f 668/6/3 640/6/3 639/6/3
f 668/3/3 639/3/3 667/3/3
f 669/2/3 641/2/3 640/2/3
f 669/6/3 640/6/3 668/6/3
f 670/1/3 642/1/3 641/1/3
f 670/2/3 641/2/3 669/2/3
f 670/1/3 643/1/3 642/1/3
f 670/1/3 644/1/3 643/1/3
f 671/2/3 645/2/3 644/2/3
f 671/1/3 644/1/3 670/1/3
f 672/1/3 646/1/3 645/1/3
f 672/2/3 645/2/3 671/2/3
f 672/1/3 647/1/3 646/1/3
f 673/2/3 648/2/3 647/2/3
f 673/1/3 647/1/3 672/1/3
f 673/2/3 649/2/3 648/2/3
f 674/1/3 650/1/3 649/1/3
f 674/2/3 649/2/3 673/2/3
f 674/1/3 651/1/3 650/1/3
f 674/1/3 652/1/3 651/1/3
f 675/2/3 653/2/3 652/2/3
f 675/1/3 652/1/3 674/1/3
f 676/1/3 655/1/3 654/1/3
f 676/2/3 653/2/3 675/2/3
f 676/1/3 654/1/3 653/1/3
f 677/2/3 656/2/3 655/2/3
f 677/1/3 655/1/3 676/1/3
f 678/2/3 656/2/3 677/2/3
f 682/6/3 659/6/3 658/6/3
f 682/6/3 658/6/3 657/6/3
f 683/6/3 659/6/3 682/6/3
f 684/5/3 660/5/3 659/5/3
f 684/6/3 659/6/3 683/6/3
f 684/5/3 661/5/3 660/5/3
f 685/5/3 661/5/3 684/5/3
f 688/4/3 664/4/3 663/4/3
f 689/4/3 664/4/3 688/4/3
f 691/4/3 667/4/3 666/4/3
f 692/4/3 667/4/3 691/4/3
f 693/7/3 679/7/3 678/7/3
f 694/7/3 679/7/3 693/7/3
f 696/6/3 681/6/3 680/6/3
f 696/6/3 682/6/3 681/6/3
f 697/6/3 682/6/3 696/6/3
f 698/5/3 683/5/3 682/5/3
f 698/6/3 682/6/3 697/6/3
f 699/5/3 683/5/3 698/5/3
f 701/4/3 687/4/3 686/4/3
f 702/4/3 687/4/3 701/4/3
f 704/4/3 690/4/3 689/4/3
f 705/4/3 690/4/3 704/4/3
f 706/6/3 695/6/3 694/6/3
f 706/6/3 696/6/3 695/6/3
f 707/5/3 697/5/3 696/5/3
f 707/6/3 696/6/3 706/6/3
f 708/5/3 697/5/3 707/5/3
f 709/4/3 703/4/3 702/4/3
f 709/4/3 702/4/3 701/4/3
f 709/4/3 701/4/3 700/4/3
f 710/4/3 703/4/3 709/4/3
f 713/3/3 712/3/3 711/3/3
f 714/3/3 712/3/3 713/3/3
f 717/3/3 716/3/3 715/3/3
f 718/3/3 716/3/3 717/3/3
f 721/3/3 720/3/3 719/3/3
f 722/3/3 720/3/3 721/3/3
f 723/3/4 724/3/4 725/3/4
f 725/3/4 724/3/4 726/3/4
f 727/3/4 728/3/4 729/3/4
f 729/3/4 728/3/4 730/3/4
f 731/3/4 732/3/4 733/3/4
f 733/3/4 732/3/4 734/3/4
f 735/4/4 736/4/4 737/4/4
f 737/4/4 736/4/4 738/4/4
f 738/4/4 736/4/4 739/4/4
f 739/4/4 736/4/4 740/4/4
f 738/4/4 739/4/4 746/4/4
f 746/4/4 739/4/4 747/4/4
f 741/4/4 742/4/4 749/4/4
f 749/4/4 742/4/4 750/4/4
f 743/6/4 744/6/4 754/6/4
f 754/6/4 744/6/4 755/6/4
f 744/5/4 745/5/4 756/5/4
f 755/6/4 744/6/4 756/6/4
f 756/5/4 745/5/4 757/5/4
f 748/4/4 749/4/4 760/4/4
f 760/4/4 749/4/4 761/4/4
f 751/4/4 752/4/4 763/4/4
f 763/4/4 752/4/4 764/4/4
f 753/7/4 754/7/4 777/7/4
f 777/7/4 754/7/4 778/7/4
f 757/6/4 758/6/4 779/6/4
f 756/6/4 757/6/4 779/6/4
f 779/6/4 758/6/4 780/6/4
f 758/5/4 759/5/4 781/5/4
f 780/6/4 758/6/4 781/6/4
f 781/5/4 759/5/4 782/5/4
f 762/3/4 763/3/4 785/3/4
f 763/3/4 764/3/4 785/3/4
f 764/4/4 765/4/4 786/4/4
f 785/3/4 764/3/4 786/3/4
f 765/6/4 766/6/4 787/6/4
f 786/4/4 765/4/4 787/4/4
f 766/2/4 767/2/4 788/2/4
f 787/6/4 766/6/4 788/6/4
f 767/1/4 768/1/4 789/1/4
f 788/2/4 767/2/4 789/2/4
f 768/2/4 769/2/4 790/2/4
f 789/1/4 768/1/4 790/1/4
f 769/1/4 770/1/4 791/1/4
f 790/2/4 769/2/4 791/2/4
f 770/2/4 771/2/4 792/2/4
f 791/1/4 770/1/4 792/1/4
f 771/1/4 772/1/4 793/1/4
f 792/2/4 771/2/4 793/2/4
f 793/1/4 772/1/4 794/1/4
f 772/2/4 773/2/4 795/2/4
f 794/1/4 772/1/4 795/1/4
f 795/2/4 773/2/4 796/2/4
f 796/2/4 773/2/4 797/2/4
f 797/2/4 773/2/4 798/2/4
f 773/1/4 774/1/4 799/1/4
f 798/2/4 773/2/4 799/2/4
f 774/2/4 775/2/4 800/2/4
f 799/1/4 774/1/4 800/1/4
f 800/2/4 775/2/4 801/2/4
f 775/1/4 776/1/4 802/1/4
f 801/2/4 775/2/4 802/2/4
f 776/2/4 777/2/4 803/2/4
f 802/1/4 776/1/4 803/1/4
f 803/2/4 777/2/4 804/2/4
f 804/2/4 777/2/4 805/2/4
f 782/6/4 783/6/4 806/6/4
f 781/6/4 782/6/4 806/6/4
f 806/6/4 783/6/4 807/6/4
f 783/5/4 784/5/4 808/5/4
f 807/6/4 783/6/4 808/6/4
f 808/5/4 784/5/4 809/5/4
f 809/5/4 784/5/4 810/5/4
f 809/6/4 810/6/4 836/6/4
f 810/5/4 811/5/4 837/5/4
f 836/6/4 810/6/4 837/6/4
f 837/5/4 811/5/4 838/5/4
f 812/3/4 813/3/4 841/3/4
f 813/4/4 814/4/4 842/4/4
f 841/3/4 813/3/4 842/3/4
f 814/3/4 815/3/4 843/3/4
f 842/4/4 814/4/4 843/4/4
f 815/6/4 816/6/4 844/6/4
f 843/3/4 815/3/4 844/3/4
f 816/2/4 817/2/4 845/2/4
f 844/6/4 816/6/4 845/6/4
f 817/1/4 818/1/4 846/1/4
f 845/2/4 817/2/4 846/2/4
f 818/1/4 819/1/4 846/1/4
f 819/2/4 820/2/4 847/2/4
f 846/1/4 819/1/4 847/1/4
f 820/1/4 821/1/4 848/1/4
f 847/2/4 820/2/4 848/2/4
f 821/2/4 822/2/4 849/2/4
f 848/1/4 821/1/4 849/1/4
f 822/1/4 823/1/4 850/1/4
f 849/2/4 822/2/4 850/2/4
f 823/1/4 824/1/4 850/1/4
f 824/1/4 825/1/4 850/1/4
f 825/2/4 826/2/4 851/2/4
f 850/1/4 825/1/4 851/1/4
f 826/2/4 827/2/4 851/2/4
f 827/1/4 828/1/4 852/1/4
f 851/2/4 827/2/4 852/2/4
f 828/1/4 829/1/4 852/1/4
f 829/1/4 830/1/4 852/1/4
f 831/2/4 832/2/4 853/2/4
f 852/1/4 830/1/4 853/1/4
f 830/2/4 831/2/4 853/2/4
f 853/2/4 832/2/4 854/2/4
f 834/6/4 835/6/4 858/6/4
f 833/6/4 834/6/4 858/6/4
f 858/6/4 835/6/4 859/6/4
f 835/5/4 836/5/4 860/5/4
f 859/6/4 835/6/4 860/6/4
f 836/5/4 837/5/4 860/5/4
f 860/5/4 837/5/4 861/5/4
f 839/4/4 840/4/4 864/4/4
f 864/4/4 840/4/4 865/4/4
f 842/4/4 843/4/4 867/4/4
f 867/4/4 843/4/4 868/4/4
f 854/7/4 855/7/4 869/7/4
f 869/7/4 855/7/4 870/7/4
f 856/6/4 857/6/4 872/6/4
f 857/6/4 858/6/4 872/6/4
f 872/6/4 858/6/4 873/6/4
f 858/5/4 859/5/4 874/5/4
f 873/6/4 858/6/4 874/6/4
f 874/5/4 859/5/4 875/5/4
f 862/4/4 863/4/4 877/4/4
f 877/4/4 863/4/4 878/4/4
f 865/4/4 866/4/4 880/4/4
f 880/4/4 866/4/4 881/4/4
f 870/6/4 871/6/4 882/6/4
f 871/6/4 872/6/4 882/6/4
f 872/5/4 873/5/4 883/5/4
f 882/6/4 872/6/4 883/6/4
f 883/5/4 873/5/4 884/5/4
f 878/4/4 879/4/4 885/4/4
f 877/4/4 878/4/4 885/4/4
f 876/4/4 877/4/4 885/4/4
f 885/4/4 879/4/4 886/4/4
f 887/4/4 888/4/4 889/4/4
f 889/4/4 888/4/4 890/4/4
f 890/4/4 891/4/4 895/4/4
f 895/4/4 891/4/4 896/4/4
f 892/7/4 893/7/4 898/7/4
f 893/5/4 894/5/4 899/5/4
f 898/7/4 893/7/4 899/7/4
f 899/5/4 894/5/4 900/5/4
f 897/7/4 898/7/4 914/7/4
f 898/7/4 899/7/4 914/7/4
f 899/7/4 900/7/4 914/7/4
f 900/6/4 901/6/4 915/6/4
f 914/7/4 900/7/4 915/7/4
f 901/5/4 902/5/4 916/5/4
f 915/6/4 901/6/4 916/6/4
f 916/5/4 902/5/4 917/5/4
f 903/3/4 904/3/4 920/3/4
f 904/6/4 905/6/4 921/6/4
f 920/3/4 904/3/4 921/3/4
f 905/2/4 906/2/4 922/2/4
f 921/6/4 905/6/4 922/6/4
f 906/1/4 907/1/4 923/1/4
f 922/2/4 906/2/4 923/2/4
f 907/2/4 908/2/4 924/2/4
f 923/1/4 907/1/4 924/1/4
f 908/1/4 909/1/4 925/1/4
f 924/2/4 908/2/4 925/2/4
f 909/2/4 910/2/4 926/2/4
f 925/1/4 909/1/4 926/1/4
f 910/1/4 911/1/4 927/1/4
f 926/2/4 910/2/4 927/2/4
f 911/2/4 912/2/4 928/2/4
f 927/1/4 911/1/4 928/1/4
f 912/1/4 913/1/4 929/1/4
f 928/2/4 912/2/4 929/2/4
f 913/2/4 914/2/4 930/2/4
f 929/1/4 913/1/4 930/1/4
f 914/7/4 915/7/4 931/7/4
f 930/2/4 914/2/4 931/2/4
f 915/7/4 916/7/4 931/7/4
f 931/7/4 916/7/4 932/7/4
f 917/6/4 918/6/4 933/6/4
f 932/7/4 916/7/4 933/7/4
f 916/6/4 917/6/4 933/6/4
f 933/6/4 918/6/4 934/6/4
f 918/5/4 919/5/4 935/5/4
f 934/6/4 918/6/4 935/6/4
f 935/5/4 919/5/4 936/5/4
f 931/7/4 932/7/4 939/7/4
f 939/7/4 932/7/4 940/7/4
f 940/7/4 932/7/4 941/7/4
f 932/6/4 933/6/4 942/6/4
f 941/7/4 932/7/4 942/7/4
f 933/5/4 934/5/4 943/5/4
f 942/6/4 933/6/4 943/6/4
f 943/5/4 934/5/4 944/5/4
f 937/4/4 938/4/4 946/4/4
f 946/4/4 938/4/4 947/4/4
f 940/7/4 941/7/4 948/7/4
f 941/5/4 942/5/4 949/5/4
f 948/7/4 941/7/4 949/7/4
f 949/5/4 942/5/4 950/5/4
f 945/4/4 946/4/4 951/4/4
f 951/4/4 946/4/4 952/4/4
f 953/3/4 954/3/4 955/3/4
f 955/3/4 954/3/4 956/3/4
f 957/3/4 958/3/4 959/3/4
f 959/3/4 958/3/4 960/3/4
f 961/3/4 962/3/4 963/3/4
f 963/3/4 962/3/4 964/3/4
f 967/3/5 966/3/5 965/3/5
f 968/3/5 966/3/5 967/3/5
f 973/4/5 970/4/5 969/4/5
f 974/4/5 970/4/5 973/4/5
f 975/4/5 972/4/5 971/4/5
f 976/4/5 972/4/5 975/4/5
f 979/3/5 978/3/5 977/3/5
f 980/3/5 978/3/5 979/3/5
f 985/4/5 982/4/5 981/4/5
f 986/4/5 982/4/5 985/4/5
f 987/4/5 984/4/5 983/4/5
f 988/4/5 984/4/5 987/4/5
f 991/3/5 990/3/5 989/3/5
f 992/3/5 990/3/5 991/3/5
f 997/4/5 994/4/5 993/4/5
f 998/4/5 994/4/5 997/4/5
f 999/4/5 996/4/5 995/4/5
f 1000/4/5 996/4/5 999/4/5
f 1005/4/5 1002/4/5 1001/4/5
f 1006/4/5 1002/4/5 1005/4/5
f 1007/4/5 1004/4/5 1003/4/5
f 1008/4/5 1004/4/5 1007/4/5
f 1011/3/5 1010/3/5 1009/3/5
f 1012/3/5 1010/3/5 1011/3/5
f 1017/4/5 1014/4/5 1013/4/5
f 1018/4/5 1014/4/5 1017/4/5
f 1019/4/5 1016/4/5 1015/4/5
f 1020/4/5 1016/4/5 1019/4/5
f 1025/3/5 1022/3/5 1021/3/5
f 1026/3/5 1022/3/5 1025/3/5
f 1029/4/5 1024/4/5 1023/4/5
f 1030/4/5 1024/4/5 1029/4/5
f 1031/4/5 1028/4/5 1027/4/5
f 1032/4/5 1028/4/5 1031/4/5
f 1037/4/5 1034/4/5 1033/4/5
f 1038/4/5 1034/4/5 1037/4/5
f 1041/4/5 1036/4/5 1035/4/5
f 1042/4/5 1036/4/5 1041/4/5
f 1043/3/5 1040/3/5 1039/3/5
f 1044/3/5 1040/3/5 1043/3/5
f 1048/3/5 1046/3/5 1045/3/5
f 1049/3/5 1046/3/5 1048/3/5
f 1051/3/5 1048/3/5 1047/3/5
f 1052/6/5 1049/6/5 1048/6/5
f 1052/3/5 1048/3/5 1051/3/5
f 1053/3/5 1050/3/5 1049/3/5
f 1053/6/5 1049/6/5 1052/6/5
f 1054/3/5 1050/3/5 1053/3/5
f 1055/3/5 1053/3/5 1052/3/5
f 1056/3/5 1053/3/5 1055/3/5
f 1062/7/5 1058/7/5 1057/7/5
f 1063/7/5 1058/7/5 1062/7/5
f 1064/7/5 1060/7/5 1059/7/5
f 1065/7/5 1060/7/5 1064/7/5
f 1067/7/5 1062/7/5 1061/7/5
f 1068/7/5 1062/7/5 1067/7/5
f 1071/7/5 1066/7/5 1065/7/5
f 1072/7/5 1066/7/5 1071/7/5
f 1073/7/5 1069/7/5 1068/7/5
f 1074/7/5 1069/7/5 1073/7/5
f 1075/7/5 1071/7/5 1070/7/5
f 1076/7/5 1071/7/5 1075/7/5
f 1082/7/5 1078/7/5 1077/7/5
f 1083/7/5 1078/7/5 1082/7/5
f 1084/7/5 1080/7/5 1079/7/5
f 1085/7/5 1080/7/5 1084/7/5
f 1087/6/5 1082/6/5 1081/6/5
f 1088/6/5 1082/6/5 1087/6/5
f 1091/6/5 1086/6/5 1085/6/5
f 1092/6/5 1086/6/5 1091/6/5
f 1093/7/5 1089/7/5 1088/7/5
f 1094/7/5 1089/7/5 1093/7/5
f 1095/7/5 1091/7/5 1090/7/5
f 1096/7/5 1091/7/5 1095/7/5
f 1097/3/6 1098/3/6 1099/3/6
f 1099/3/6 1098/3/6 1100/3/6
f 1101/4/6 1102/4/6 1105/4/6
f 1105/4/6 1102/4/6 1106/4/6
f 1103/4/6 1104/4/6 1107/4/6
f 1107/4/6 1104/4/6 1108/4/6
f 1109/3/6 1110/3/6 1111/3/6
f 1111/3/6 1110/3/6 1112/3/6
f 1113/4/6 1114/4/6 1117/4/6
f 1117/4/6 1114/4/6 1118/4/6
f 1115/4/6 1116/4/6 1119/4/6
f 1119/4/6 1116/4/6 1120/4/6
f 1121/4/6 1122/4/6 1125/4/6
f 1125/4/6 1122/4/6 1126/4/6
f 1123/4/6 1124/4/6 1127/4/6
f 1127/4/6 1124/4/6 1128/4/6
f 1129/3/6 1130/3/6 1131/3/6
f 1131/3/6 1130/3/6 1132/3/6
f 1133/4/6 1134/4/6 1137/4/6
f 1137/4/6 1134/4/6 1138/4/6
f 1135/4/6 1136/4/6 1139/4/6
f 1139/4/6 1136/4/6 1140/4/6
f 1141/3/6 1142/3/6 1143/3/6
f 1143/3/6 1142/3/6 1144/3/6
f 1145/4/6 1146/4/6 1149/4/6
f 1149/4/6 1146/4/6 1150/4/6
f 1147/4/6 1148/4/6 1151/4/6
f 1151/4/6 1148/4/6 1152/4/6
f 1153/4/6 1154/4/6 1157/4/6
f 1157/4/6 1154/4/6 1158/4/6
f 1155/4/6 1156/4/6 1159/4/6
f 1159/4/6 1156/4/6 1160/4/6
f 1161/3/6 1162/3/6 1163/3/6
f 1163/3/6 1162/3/6 1164/3/6
f 1165/4/6 1166/4/6 1169/4/6
f 1169/4/6 1166/4/6 1170/4/6
f 1167/4/6 1168/4/6 1171/4/6
f 1171/4/6 1168/4/6 1172/4/6
f 1173/3/6 1174/3/6 1175/3/6
f 1175/3/6 1174/3/6 1176/3/6
f 1177/5/6 1178/5/6 1181/5/6
f 1181/5/6 1178/5/6 1182/5/6
f 1179/5/6 1180/5/6 1183/5/6
f 1183/5/6 1180/5/6 1184/5/6
f 1185/5/6 1186/5/6 1189/5/6
f 1189/5/6 1186/5/6 1190/5/6
f 1187/5/6 1188/5/6 1191/5/6
f 1191/5/6 1188/5/6 1192/5/6
f 1193/5/6 1194/5/6 1197/5/6
f 1197/5/6 1194/5/6 1198/5/6
f 1195/5/6 1196/5/6 1199/5/6
f 1199/5/6 1196/5/6 1200/5/6
f 1201/5/6 1202/5/6 1205/5/6
f 1205/5/6 1202/5/6 1206/5/6
f 1203/5/6 1204/5/6 1207/5/6
f 1207/5/6 1204/5/6 1208/5/6
f 1209/5/6 1210/5/6 1213/5/6
f 1213/5/6 1210/5/6 1214/5/6
f 1211/5/6 1212/5/6 1215/5/6
f 1215/5/6 1212/5/6 1216/5/6
f 1217/5/6 1218/5/6 1221/5/6
f 1221/5/6 1218/5/6 1222/5/6
f 1219/5/6 1220/5/6 1223/5/6
f 1223/5/6 1220/5/6 1224/5/6
f 1225/5/6 1226/5/6 1227/5/6
f 1227/5/6 1226/5/6 1228/5/6
f 1229/5/6 1230/5/6 1231/5/6
f 1231/5/6 1230/5/6 1232/5/6
f 1233/5/6 1234/5/6 1237/5/6
f 1237/5/6 1234/5/6 1238/5/6
f 1235/5/6 1236/5/6 1239/5/6
f 1239/5/6 1236/5/6 1240/5/6
f 1241/5/6 1242/5/6 1243/5/6
f 1243/5/6 1242/5/6 1244/5/6
