# MagicaVoxel @ Ephtracy

# group
o 

# material
mtllib weapon_sword_small.mtl
usemtl palette

# normals
vn -1 0 0
vn 1 0 0
vn 0 0 1
vn 0 0 -1
vn 0 -1 0
vn 0 1 0

# texcoords
vt 0.0722656 0.5
vt 0.177734 0.5
vt 0.966797 0.5
vt 0.970703 0.5
vt 0.974609 0.5

# verts
v -0.9 4.4 0.5
v -0.9 4.4 0.4
v -0.9 4.5 0.5
v -0.9 4.5 0.4
v -0.8 4.4 0.6
v -0.8 4.4 0.5
v -0.8 4.4 0.4
v -0.8 4.4 0.3
v -0.8 4.5 0.6
v -0.8 4.5 0.5
v -0.8 4.5 0.4
v -0.8 4.5 0.3
v -0.7 4.3 0.5
v -0.7 4.3 0.4
v -0.7 4.4 0.5
v -0.7 4.4 0.4
v -0.7 4.5 0.5
v -0.7 4.5 0.4
v -0.7 4.6 0.5
v -0.7 4.6 0.4
v -0.6 1.9 0.5
v -0.6 1.9 0.4
v -0.6 2.4 0.5
v -0.6 2.4 0.4
v -0.6 2.9 0.5
v -0.6 2.9 0.4
v -0.6 4.3 0.6
v -0.6 4.3 0.5
v -0.6 4.3 0.4
v -0.6 4.3 0.3
v -0.6 4.4 0.6
v -0.6 4.4 0.5
v -0.6 4.4 0.4
v -0.6 4.4 0.3
v -0.6 4.6 0.5
v -0.6 4.6 0.4
v -0.6 4.7 0.5
v -0.6 4.7 0.4
v -0.6 5 0.5
v -0.6 5 0.4
v -0.6 5.1 0.5
v -0.6 5.1 0.4
v -0.5 1.4 0.5
v -0.5 1.4 0.4
v -0.5 1.9 0.6
v -0.5 1.9 0.5
v -0.5 1.9 0.4
v -0.5 1.9 0.3
v -0.5 2.2 0.6
v -0.5 2.2 0.5
v -0.5 2.2 0.4
v -0.5 2.2 0.3
v -0.5 2.4 0.5
v -0.5 2.4 0.4
v -0.5 2.9 0.5
v -0.5 2.9 0.4
v -0.5 4.3 0.6
v -0.5 4.3 0.5
v -0.5 4.3 0.4
v -0.5 4.3 0.3
v -0.5 4.5 0.6
v -0.5 4.5 0.5
v -0.5 4.5 0.4
v -0.5 4.5 0.3
v -0.5 4.6 0.6
v -0.5 4.6 0.5
v -0.5 4.6 0.4
v -0.5 4.6 0.3
v -0.5 4.7 0.5
v -0.5 4.7 0.4
v -0.5 5 0.6
v -0.5 5 0.5
v -0.5 5 0.4
v -0.5 5 0.3
v -0.5 5.1 0.6
v -0.5 5.1 0.5
v -0.5 5.1 0.4
v -0.5 5.1 0.3
v -0.5 5.2 0.5
v -0.5 5.2 0.4
v -0.3 1.4 0.5
v -0.3 1.4 0.4
v -0.3 1.9 0.6
v -0.3 1.9 0.5
v -0.3 1.9 0.4
v -0.3 1.9 0.3
v -0.3 2.2 0.6
v -0.3 2.2 0.5
v -0.3 2.2 0.4
v -0.3 2.2 0.3
v -0.3 2.5 0.5
v -0.3 2.5 0.4
v -0.3 2.9 0.5
v -0.3 2.9 0.4
v -0.3 4.3 0.6
v -0.3 4.3 0.5
v -0.3 4.3 0.4
v -0.3 4.3 0.3
v -0.3 4.5 0.6
v -0.3 4.5 0.5
v -0.3 4.5 0.4
v -0.3 4.5 0.3
v -0.3 4.6 0.6
v -0.3 4.6 0.5
v -0.3 4.6 0.4
v -0.3 4.6 0.3
v -0.3 4.7 0.5
v -0.3 4.7 0.4
v -0.3 5 0.6
v -0.3 5 0.5
v -0.3 5 0.4
v -0.3 5 0.3
v -0.3 5.1 0.6
v -0.3 5.1 0.5
v -0.3 5.1 0.4
v -0.3 5.1 0.3
v -0.3 5.2 0.5
v -0.3 5.2 0.4
v -0.2 1.9 0.5
v -0.2 1.9 0.4
v -0.2 2.5 0.5
v -0.2 2.5 0.4
v -0.2 2.9 0.5
v -0.2 2.9 0.4
v -0.2 4.3 0.6
v -0.2 4.3 0.5
v -0.2 4.3 0.4
v -0.2 4.3 0.3
v -0.2 4.4 0.6
v -0.2 4.4 0.5
v -0.2 4.4 0.4
v -0.2 4.4 0.3
v -0.2 4.6 0.5
v -0.2 4.6 0.4
v -0.2 4.7 0.5
v -0.2 4.7 0.4
v -0.2 5 0.5
v -0.2 5 0.4
v -0.2 5.1 0.5
v -0.2 5.1 0.4
v -0.1 4.3 0.5
v -0.1 4.3 0.4
v -0.1 4.4 0.5
v -0.1 4.4 0.4
v -0.1 4.5 0.5
v -0.1 4.5 0.4
v -0.1 4.6 0.5
v -0.1 4.6 0.4
v 0 4.4 0.6
v 0 4.4 0.5
v 0 4.4 0.4
v 0 4.4 0.3
v 0 4.5 0.6
v 0 4.5 0.5
v 0 4.5 0.4
v 0 4.5 0.3
v 0.1 4.4 0.5
v 0.1 4.4 0.4
v 0.1 4.5 0.5
v 0.1 4.5 0.4
v -0.8 4.4 0.6
v -0.8 4.5 0.6
v -0.6 4.3 0.6
v -0.6 4.4 0.6
v -0.5 1.9 0.6
v -0.5 2.2 0.6
v -0.5 4.3 0.6
v -0.5 4.5 0.6
v -0.5 4.6 0.6
v -0.5 5 0.6
v -0.5 5.1 0.6
v -0.3 1.9 0.6
v -0.3 2.2 0.6
v -0.3 4.3 0.6
v -0.3 4.5 0.6
v -0.3 4.6 0.6
v -0.3 5 0.6
v -0.3 5.1 0.6
v -0.2 4.3 0.6
v -0.2 4.4 0.6
v 0 4.4 0.6
v 0 4.5 0.6
v -0.9 4.4 0.5
v -0.9 4.5 0.5
v -0.8 4.4 0.5
v -0.8 4.5 0.5
v -0.7 4.3 0.5
v -0.7 4.4 0.5
v -0.7 4.5 0.5
v -0.7 4.6 0.5
v -0.6 1.9 0.5
v -0.6 2.4 0.5
v -0.6 2.9 0.5
v -0.6 4.3 0.5
v -0.6 4.4 0.5
v -0.6 4.6 0.5
v -0.6 4.7 0.5
v -0.6 5 0.5
v -0.6 5.1 0.5
v -0.5 1.4 0.5
v -0.5 1.9 0.5
v -0.5 2.2 0.5
v -0.5 2.4 0.5
v -0.5 2.9 0.5
v -0.5 4.3 0.5
v -0.5 4.5 0.5
v -0.5 4.6 0.5
v -0.5 4.7 0.5
v -0.5 5 0.5
v -0.5 5.1 0.5
v -0.5 5.2 0.5
v -0.3 1.4 0.5
v -0.3 1.9 0.5
v -0.3 2.2 0.5
v -0.3 2.5 0.5
v -0.3 2.9 0.5
v -0.3 4.3 0.5
v -0.3 4.5 0.5
v -0.3 4.6 0.5
v -0.3 4.7 0.5
v -0.3 5 0.5
v -0.3 5.1 0.5
v -0.3 5.2 0.5
v -0.2 1.9 0.5
v -0.2 2.5 0.5
v -0.2 2.9 0.5
v -0.2 4.3 0.5
v -0.2 4.4 0.5
v -0.2 4.6 0.5
v -0.2 4.7 0.5
v -0.2 5 0.5
v -0.2 5.1 0.5
v -0.1 4.3 0.5
v -0.1 4.4 0.5
v -0.1 4.5 0.5
v -0.1 4.6 0.5
v 0 4.4 0.5
v 0 4.5 0.5
v 0.1 4.4 0.5
v 0.1 4.5 0.5
v -0.9 4.4 0.4
v -0.9 4.5 0.4
v -0.8 4.4 0.4
v -0.8 4.5 0.4
v -0.7 4.3 0.4
v -0.7 4.4 0.4
v -0.7 4.5 0.4
v -0.7 4.6 0.4
v -0.6 1.9 0.4
v -0.6 2.4 0.4
v -0.6 2.9 0.4
v -0.6 4.3 0.4
v -0.6 4.4 0.4
v -0.6 4.6 0.4
v -0.6 4.7 0.4
v -0.6 5 0.4
v -0.6 5.1 0.4
v -0.5 1.4 0.4
v -0.5 1.9 0.4
v -0.5 2.2 0.4
v -0.5 2.4 0.4
v -0.5 2.9 0.4
v -0.5 4.3 0.4
v -0.5 4.5 0.4
v -0.5 4.6 0.4
v -0.5 4.7 0.4
v -0.5 5 0.4
v -0.5 5.1 0.4
v -0.5 5.2 0.4
v -0.3 1.4 0.4
v -0.3 1.9 0.4
v -0.3 2.2 0.4
v -0.3 2.5 0.4
v -0.3 2.9 0.4
v -0.3 4.3 0.4
v -0.3 4.5 0.4
v -0.3 4.6 0.4
v -0.3 4.7 0.4
v -0.3 5 0.4
v -0.3 5.1 0.4
v -0.3 5.2 0.4
v -0.2 1.9 0.4
v -0.2 2.5 0.4
v -0.2 2.9 0.4
v -0.2 4.3 0.4
v -0.2 4.4 0.4
v -0.2 4.6 0.4
v -0.2 4.7 0.4
v -0.2 5 0.4
v -0.2 5.1 0.4
v -0.1 4.3 0.4
v -0.1 4.4 0.4
v -0.1 4.5 0.4
v -0.1 4.6 0.4
v 0 4.4 0.4
v 0 4.5 0.4
v 0.1 4.4 0.4
v 0.1 4.5 0.4
v -0.8 4.4 0.3
v -0.8 4.5 0.3
v -0.6 4.3 0.3
v -0.6 4.4 0.3
v -0.5 1.9 0.3
v -0.5 2.2 0.3
v -0.5 4.3 0.3
v -0.5 4.5 0.3
v -0.5 4.6 0.3
v -0.5 5 0.3
v -0.5 5.1 0.3
v -0.3 1.9 0.3
v -0.3 2.2 0.3
v -0.3 4.3 0.3
v -0.3 4.5 0.3
v -0.3 4.6 0.3
v -0.3 5 0.3
v -0.3 5.1 0.3
v -0.2 4.3 0.3
v -0.2 4.4 0.3
v 0 4.4 0.3
v 0 4.5 0.3
v -0.5 1.4 0.5
v -0.3 1.4 0.5
v -0.5 1.4 0.4
v -0.3 1.4 0.4
v -0.5 1.9 0.6
v -0.3 1.9 0.6
v -0.6 1.9 0.5
v -0.5 1.9 0.5
v -0.3 1.9 0.5
v -0.2 1.9 0.5
v -0.6 1.9 0.4
v -0.5 1.9 0.4
v -0.3 1.9 0.4
v -0.2 1.9 0.4
v -0.5 1.9 0.3
v -0.3 1.9 0.3
v -0.6 4.3 0.6
v -0.5 4.3 0.6
v -0.3 4.3 0.6
v -0.2 4.3 0.6
v -0.7 4.3 0.5
v -0.6 4.3 0.5
v -0.5 4.3 0.5
v -0.3 4.3 0.5
v -0.2 4.3 0.5
v -0.1 4.3 0.5
v -0.7 4.3 0.4
v -0.6 4.3 0.4
v -0.5 4.3 0.4
v -0.3 4.3 0.4
v -0.2 4.3 0.4
v -0.1 4.3 0.4
v -0.6 4.3 0.3
v -0.5 4.3 0.3
v -0.3 4.3 0.3
v -0.2 4.3 0.3
v -0.8 4.4 0.6
v -0.6 4.4 0.6
v -0.2 4.4 0.6
v 0 4.4 0.6
v -0.9 4.4 0.5
v -0.8 4.4 0.5
v -0.7 4.4 0.5
v -0.6 4.4 0.5
v -0.2 4.4 0.5
v -0.1 4.4 0.5
v 0 4.4 0.5
v 0.1 4.4 0.5
v -0.9 4.4 0.4
v -0.8 4.4 0.4
v -0.7 4.4 0.4
v -0.6 4.4 0.4
v -0.2 4.4 0.4
v -0.1 4.4 0.4
v 0 4.4 0.4
v 0.1 4.4 0.4
v -0.8 4.4 0.3
v -0.6 4.4 0.3
v -0.2 4.4 0.3
v 0 4.4 0.3
v -0.5 5 0.6
v -0.3 5 0.6
v -0.6 5 0.5
v -0.5 5 0.5
v -0.3 5 0.5
v -0.2 5 0.5
v -0.6 5 0.4
v -0.5 5 0.4
v -0.3 5 0.4
v -0.2 5 0.4
v -0.5 5 0.3
v -0.3 5 0.3
v -0.8 4.5 0.6
v -0.5 4.5 0.6
v -0.3 4.5 0.6
v 0 4.5 0.6
v -0.9 4.5 0.5
v -0.8 4.5 0.5
v -0.7 4.5 0.5
v -0.5 4.5 0.5
v -0.3 4.5 0.5
v -0.1 4.5 0.5
v 0 4.5 0.5
v 0.1 4.5 0.5
v -0.9 4.5 0.4
v -0.8 4.5 0.4
v -0.7 4.5 0.4
v -0.5 4.5 0.4
v -0.3 4.5 0.4
v -0.1 4.5 0.4
v 0 4.5 0.4
v 0.1 4.5 0.4
v -0.8 4.5 0.3
v -0.5 4.5 0.3
v -0.3 4.5 0.3
v 0 4.5 0.3
v -0.5 4.6 0.6
v -0.3 4.6 0.6
v -0.7 4.6 0.5
v -0.6 4.6 0.5
v -0.5 4.6 0.5
v -0.3 4.6 0.5
v -0.2 4.6 0.5
v -0.1 4.6 0.5
v -0.7 4.6 0.4
v -0.6 4.6 0.4
v -0.5 4.6 0.4
v -0.3 4.6 0.4
v -0.2 4.6 0.4
v -0.1 4.6 0.4
v -0.5 4.6 0.3
v -0.3 4.6 0.3
v -0.6 4.7 0.5
v -0.5 4.7 0.5
v -0.3 4.7 0.5
v -0.2 4.7 0.5
v -0.6 4.7 0.4
v -0.5 4.7 0.4
v -0.3 4.7 0.4
v -0.2 4.7 0.4
v -0.5 5.1 0.6
v -0.3 5.1 0.6
v -0.6 5.1 0.5
v -0.5 5.1 0.5
v -0.3 5.1 0.5
v -0.2 5.1 0.5
v -0.6 5.1 0.4
v -0.5 5.1 0.4
v -0.3 5.1 0.4
v -0.2 5.1 0.4
v -0.5 5.1 0.3
v -0.3 5.1 0.3
v -0.5 5.2 0.5
v -0.3 5.2 0.5
v -0.5 5.2 0.4
v -0.3 5.2 0.4

# faces
f 3/2/1 2/2/1 1/2/1
f 4/2/1 2/2/1 3/2/1
f 9/2/1 6/2/1 5/2/1
f 10/2/1 6/2/1 9/2/1
f 11/2/1 8/2/1 7/2/1
f 12/2/1 8/2/1 11/2/1
f 15/1/1 14/1/1 13/1/1
f 16/1/1 14/1/1 15/1/1
f 19/2/1 18/2/1 17/2/1
f 20/2/1 18/2/1 19/2/1
f 23/3/1 22/3/1 21/3/1
f 24/3/1 22/3/1 23/3/1
f 25/4/1 24/4/1 23/4/1
f 26/4/1 24/4/1 25/4/1
f 28/5/1 26/5/1 25/5/1
f 29/5/1 26/5/1 28/5/1
f 31/1/1 28/1/1 27/1/1
f 32/1/1 28/1/1 31/1/1
f 33/1/1 30/1/1 29/1/1
f 34/1/1 30/1/1 33/1/1
f 37/2/1 36/2/1 35/2/1
f 38/2/1 36/2/1 37/2/1
f 41/1/1 40/1/1 39/1/1
f 42/1/1 40/1/1 41/1/1
f 46/3/1 44/3/1 43/3/1
f 47/3/1 44/3/1 46/3/1
f 49/3/1 46/3/1 45/3/1
f 50/3/1 46/3/1 49/3/1
f 51/3/1 48/3/1 47/3/1
f 52/3/1 48/3/1 51/3/1
f 53/4/1 50/4/1 49/4/1
f 54/4/1 52/4/1 51/4/1
f 55/4/1 53/4/1 49/4/1
f 56/4/1 52/4/1 54/4/1
f 57/4/1 55/4/1 49/4/1
f 58/4/1 55/4/1 57/4/1
f 59/4/1 52/4/1 56/4/1
f 60/4/1 52/4/1 59/4/1
f 65/2/1 62/2/1 61/2/1
f 66/2/1 62/2/1 65/2/1
f 67/2/1 64/2/1 63/2/1
f 68/2/1 64/2/1 67/2/1
f 72/2/1 70/2/1 69/2/1
f 73/2/1 70/2/1 72/2/1
f 75/1/1 72/1/1 71/1/1
f 76/1/1 72/1/1 75/1/1
f 77/1/1 74/1/1 73/1/1
f 78/1/1 74/1/1 77/1/1
f 79/1/1 77/1/1 76/1/1
f 80/1/1 77/1/1 79/1/1
f 81/3/2 82/3/2 84/3/2
f 84/3/2 82/3/2 85/3/2
f 83/3/2 84/3/2 87/3/2
f 87/3/2 84/3/2 88/3/2
f 85/3/2 86/3/2 89/3/2
f 89/3/2 86/3/2 90/3/2
f 87/4/2 88/4/2 91/4/2
f 89/4/2 90/4/2 92/4/2
f 87/4/2 91/4/2 93/4/2
f 92/4/2 90/4/2 94/4/2
f 87/4/2 93/4/2 95/4/2
f 95/4/2 93/4/2 96/4/2
f 94/4/2 90/4/2 97/4/2
f 97/4/2 90/4/2 98/4/2
f 99/2/2 100/2/2 103/2/2
f 103/2/2 100/2/2 104/2/2
f 101/2/2 102/2/2 105/2/2
f 105/2/2 102/2/2 106/2/2
f 107/2/2 108/2/2 110/2/2
f 110/2/2 108/2/2 111/2/2
f 109/1/2 110/1/2 113/1/2
f 113/1/2 110/1/2 114/1/2
f 111/1/2 112/1/2 115/1/2
f 115/1/2 112/1/2 116/1/2
f 114/1/2 115/1/2 117/1/2
f 117/1/2 115/1/2 118/1/2
f 119/3/2 120/3/2 121/3/2
f 121/3/2 120/3/2 122/3/2
f 121/4/2 122/4/2 123/4/2
f 123/4/2 122/4/2 124/4/2
f 123/5/2 124/5/2 126/5/2
f 126/5/2 124/5/2 127/5/2
f 125/1/2 126/1/2 129/1/2
f 129/1/2 126/1/2 130/1/2
f 127/1/2 128/1/2 131/1/2
f 131/1/2 128/1/2 132/1/2
f 133/2/2 134/2/2 135/2/2
f 135/2/2 134/2/2 136/2/2
f 137/1/2 138/1/2 139/1/2
f 139/1/2 138/1/2 140/1/2
f 141/1/2 142/1/2 143/1/2
f 143/1/2 142/1/2 144/1/2
f 145/2/2 146/2/2 147/2/2
f 147/2/2 146/2/2 148/2/2
f 149/2/2 150/2/2 153/2/2
f 153/2/2 150/2/2 154/2/2
f 151/2/2 152/2/2 155/2/2
f 155/2/2 152/2/2 156/2/2
f 157/2/2 158/2/2 159/2/2
f 159/2/2 158/2/2 160/2/2
f 164/2/3 162/2/3 161/2/3
f 167/1/3 164/1/3 163/1/3
f 168/2/3 162/2/3 164/2/3
f 172/3/3 166/3/3 165/3/3
f 173/4/3 167/4/3 166/4/3
f 173/3/3 166/3/3 172/3/3
f 174/1/3 164/1/3 167/1/3
f 174/4/3 167/4/3 173/4/3
f 175/2/3 168/2/3 164/2/3
f 175/2/3 169/2/3 168/2/3
f 176/2/3 169/2/3 175/2/3
f 177/1/3 171/1/3 170/1/3
f 178/1/3 171/1/3 177/1/3
f 179/1/3 164/1/3 174/1/3
f 180/2/3 175/2/3 164/2/3
f 180/1/3 164/1/3 179/1/3
f 181/2/3 175/2/3 180/2/3
f 182/2/3 175/2/3 181/2/3
f 185/2/3 184/2/3 183/2/3
f 186/2/3 184/2/3 185/2/3
f 194/1/3 188/1/3 187/1/3
f 195/1/3 188/1/3 194/1/3
f 196/2/3 190/2/3 189/2/3
f 201/3/3 192/3/3 191/3/3
f 202/3/3 192/3/3 201/3/3
f 203/4/3 193/4/3 192/4/3
f 203/3/3 192/3/3 202/3/3
f 204/5/3 194/5/3 193/5/3
f 204/4/3 193/4/3 203/4/3
f 205/5/3 194/5/3 204/5/3
f 206/2/3 197/2/3 196/2/3
f 206/2/3 196/2/3 189/2/3
f 207/2/3 197/2/3 206/2/3
f 208/2/3 197/2/3 207/2/3
f 209/1/3 199/1/3 198/1/3
f 210/1/3 199/1/3 209/1/3
f 212/3/3 201/3/3 200/3/3
f 213/3/3 201/3/3 212/3/3
f 219/2/3 208/2/3 207/2/3
f 219/2/3 209/2/3 208/2/3
f 220/2/3 209/2/3 219/2/3
f 221/2/3 209/2/3 220/2/3
f 222/1/3 211/1/3 210/1/3
f 223/1/3 211/1/3 222/1/3
f 224/3/3 214/3/3 213/3/3
f 224/3/3 215/3/3 214/3/3
f 225/4/3 216/4/3 215/4/3
f 225/3/3 215/3/3 224/3/3
f 226/5/3 217/5/3 216/5/3
f 226/4/3 216/4/3 225/4/3
f 227/5/3 217/5/3 226/5/3
f 229/2/3 220/2/3 219/2/3
f 229/2/3 219/2/3 218/2/3
f 230/2/3 220/2/3 229/2/3
f 231/1/3 222/1/3 221/1/3
f 232/1/3 222/1/3 231/1/3
f 233/1/3 228/1/3 227/1/3
f 234/1/3 228/1/3 233/1/3
f 235/2/3 229/2/3 218/2/3
f 236/2/3 229/2/3 235/2/3
f 239/2/3 238/2/3 237/2/3
f 240/2/3 238/2/3 239/2/3
f 241/2/4 242/2/4 243/2/4
f 243/2/4 242/2/4 244/2/4
f 245/1/4 246/1/4 252/1/4
f 252/1/4 246/1/4 253/1/4
f 247/2/4 248/2/4 254/2/4
f 249/3/4 250/3/4 259/3/4
f 259/3/4 250/3/4 260/3/4
f 250/4/4 251/4/4 261/4/4
f 260/3/4 250/3/4 261/3/4
f 251/5/4 252/5/4 262/5/4
f 261/4/4 251/4/4 262/4/4
f 262/5/4 252/5/4 263/5/4
f 254/2/4 255/2/4 264/2/4
f 247/2/4 254/2/4 264/2/4
f 264/2/4 255/2/4 265/2/4
f 265/2/4 255/2/4 266/2/4
f 256/1/4 257/1/4 267/1/4
f 267/1/4 257/1/4 268/1/4
f 258/3/4 259/3/4 270/3/4
f 270/3/4 259/3/4 271/3/4
f 265/2/4 266/2/4 277/2/4
f 266/2/4 267/2/4 277/2/4
f 277/2/4 267/2/4 278/2/4
f 278/2/4 267/2/4 279/2/4
f 268/1/4 269/1/4 280/1/4
f 280/1/4 269/1/4 281/1/4
f 271/3/4 272/3/4 282/3/4
f 272/3/4 273/3/4 282/3/4
f 273/4/4 274/4/4 283/4/4
f 282/3/4 273/3/4 283/3/4
f 274/5/4 275/5/4 284/5/4
f 283/4/4 274/4/4 284/4/4
f 284/5/4 275/5/4 285/5/4
f 277/2/4 278/2/4 287/2/4
f 276/2/4 277/2/4 287/2/4
f 287/2/4 278/2/4 288/2/4
f 279/1/4 280/1/4 289/1/4
f 289/1/4 280/1/4 290/1/4
f 285/1/4 286/1/4 291/1/4
f 291/1/4 286/1/4 292/1/4
f 276/2/4 287/2/4 293/2/4
f 293/2/4 287/2/4 294/2/4
f 295/2/4 296/2/4 297/2/4
f 297/2/4 296/2/4 298/2/4
f 299/2/4 300/2/4 302/2/4
f 301/1/4 302/1/4 305/1/4
f 302/2/4 300/2/4 306/2/4
f 303/3/4 304/3/4 310/3/4
f 304/4/4 305/4/4 311/4/4
f 310/3/4 304/3/4 311/3/4
f 305/1/4 302/1/4 312/1/4
f 311/4/4 305/4/4 312/4/4
f 302/2/4 306/2/4 313/2/4
f 306/2/4 307/2/4 313/2/4
f 313/2/4 307/2/4 314/2/4
f 308/1/4 309/1/4 315/1/4
f 315/1/4 309/1/4 316/1/4
f 312/1/4 302/1/4 317/1/4
f 302/2/4 313/2/4 318/2/4
f 317/1/4 302/1/4 318/1/4
f 318/2/4 313/2/4 319/2/4
f 319/2/4 313/2/4 320/2/4
f 323/3/5 322/3/5 321/3/5
f 324/3/5 322/3/5 323/3/5
f 328/3/5 326/3/5 325/3/5
f 329/3/5 326/3/5 328/3/5
f 331/3/5 328/3/5 327/3/5
f 332/3/5 328/3/5 331/3/5
f 333/3/5 330/3/5 329/3/5
f 334/3/5 330/3/5 333/3/5
f 335/3/5 333/3/5 332/3/5
f 336/3/5 333/3/5 335/3/5
f 342/1/5 338/1/5 337/1/5
f 343/1/5 338/1/5 342/1/5
f 344/1/5 340/1/5 339/1/5
f 345/1/5 340/1/5 344/1/5
f 347/1/5 342/1/5 341/1/5
f 348/1/5 342/1/5 347/1/5
f 351/1/5 346/1/5 345/1/5
f 352/1/5 346/1/5 351/1/5
f 353/1/5 349/1/5 348/1/5
f 354/1/5 349/1/5 353/1/5
f 355/1/5 351/1/5 350/1/5
f 356/1/5 351/1/5 355/1/5
f 362/2/5 358/2/5 357/2/5
f 363/2/5 358/2/5 362/2/5
f 364/2/5 358/2/5 363/2/5
f 365/2/5 360/2/5 359/2/5
f 366/2/5 360/2/5 365/2/5
f 367/2/5 360/2/5 366/2/5
f 369/2/5 362/2/5 361/2/5
f 369/2/5 363/2/5 362/2/5
f 370/2/5 363/2/5 369/2/5
f 371/2/5 363/2/5 370/2/5
f 374/2/5 368/2/5 367/2/5
f 374/2/5 367/2/5 366/2/5
f 375/2/5 368/2/5 374/2/5
f 376/2/5 368/2/5 375/2/5
f 377/2/5 372/2/5 371/2/5
f 377/2/5 371/2/5 370/2/5
f 378/2/5 372/2/5 377/2/5
f 379/2/5 375/2/5 374/2/5
f 379/2/5 374/2/5 373/2/5
f 380/2/5 375/2/5 379/2/5
f 384/1/5 382/1/5 381/1/5
f 385/1/5 382/1/5 384/1/5
f 387/1/5 384/1/5 383/1/5
f 388/1/5 384/1/5 387/1/5
f 389/1/5 386/1/5 385/1/5
f 390/1/5 386/1/5 389/1/5
f 391/1/5 389/1/5 388/1/5
f 392/1/5 389/1/5 391/1/5
f 393/2/6 394/2/6 398/2/6
f 398/2/6 394/2/6 399/2/6
f 399/2/6 394/2/6 400/2/6
f 395/2/6 396/2/6 401/2/6
f 401/2/6 396/2/6 402/2/6
f 402/2/6 396/2/6 403/2/6
f 397/2/6 398/2/6 405/2/6
f 398/2/6 399/2/6 405/2/6
f 405/2/6 399/2/6 406/2/6
f 406/2/6 399/2/6 407/2/6
f 403/2/6 404/2/6 410/2/6
f 402/2/6 403/2/6 410/2/6
f 410/2/6 404/2/6 411/2/6
f 411/2/6 404/2/6 412/2/6
f 407/2/6 408/2/6 413/2/6
f 406/2/6 407/2/6 413/2/6
f 413/2/6 408/2/6 414/2/6
f 410/2/6 411/2/6 415/2/6
f 409/2/6 410/2/6 415/2/6
f 415/2/6 411/2/6 416/2/6
f 417/2/6 418/2/6 421/2/6
f 421/2/6 418/2/6 422/2/6
f 419/2/6 420/2/6 425/2/6
f 425/2/6 420/2/6 426/2/6
f 423/2/6 424/2/6 429/2/6
f 429/2/6 424/2/6 430/2/6
f 427/2/6 428/2/6 431/2/6
f 431/2/6 428/2/6 432/2/6
f 433/2/6 434/2/6 437/2/6
f 437/2/6 434/2/6 438/2/6
f 435/2/6 436/2/6 439/2/6
f 439/2/6 436/2/6 440/2/6
f 441/1/6 442/1/6 444/1/6
f 444/1/6 442/1/6 445/1/6
f 443/1/6 444/1/6 447/1/6
f 447/1/6 444/1/6 448/1/6
f 445/1/6 446/1/6 449/1/6
f 449/1/6 446/1/6 450/1/6
f 448/1/6 449/1/6 451/1/6
f 451/1/6 449/1/6 452/1/6
f 453/1/6 454/1/6 455/1/6
f 455/1/6 454/1/6 456/1/6
