# MagicaVoxel @ Ephtracy

# group
o 

# material
mtllib weapon_spear.mtl
usemtl palette

# normals
vn -1 0 0
vn 1 0 0
vn 0 0 1
vn 0 0 -1
vn 0 -1 0
vn 0 1 0

# texcoords
vt 0.0332031 0.5
vt 0.0644531 0.5
vt 0.962891 0.5
vt 0.966797 0.5

# verts
v 0.7 5.8 -0.6
v 0.7 5.8 -0.7
v 0.7 6.1 -0.6
v 0.7 6.1 -0.7
v 0.7 6.3 -0.6
v 0.7 6.3 -0.7
v 0.8 0.1 -0.5
v 0.8 0.1 -0.6
v 0.8 0.1 -0.7
v 0.8 1.6 -0.6
v 0.8 1.6 -0.7
v 0.8 1.7 -0.6
v 0.8 1.7 -0.7
v 0.8 2.1 -0.6
v 0.8 2.1 -0.7
v 0.8 2.5 -0.6
v 0.8 2.5 -0.7
v 0.8 2.8 -0.5
v 0.8 2.8 -0.6
v 0.8 3.2 -0.5
v 0.8 3.2 -0.7
v 0.8 3.8 -0.5
v 0.8 3.8 -0.6
v 0.8 5.2 -0.6
v 0.8 5.2 -0.7
v 0.8 5.6 -0.5
v 0.8 5.6 -0.6
v 0.8 5.7 -0.5
v 0.8 5.7 -0.6
v 0.8 5.7 -0.7
v 0.8 5.8 -0.6
v 0.8 5.8 -0.7
v 0.8 5.8 -0.8
v 0.8 6.1 -0.6
v 0.8 6.1 -0.7
v 0.8 6.1 -0.8
v 0.8 6.2 -0.7
v 0.8 6.2 -0.8
v 0.8 6.3 -0.5
v 0.8 6.3 -0.6
v 0.8 6.3 -0.7
v 0.8 6.5 -0.5
v 0.8 6.5 -0.6
v 0.8 6.5 -0.7
v 0.8 6.6 -0.6
v 0.8 6.6 -0.7
v 0.9 5.8 -0.4
v 0.9 5.8 -0.5
v 0.9 6.1 -0.4
v 0.9 6.1 -0.5
v 0.9 6.2 -0.7
v 0.9 6.2 -0.8
v 0.9 6.3 -0.5
v 0.9 6.4 -0.7
v 0.9 6.4 -0.8
v 0.9 6.5 -0.4
v 0.9 6.5 -0.5
v 0.9 6.5 -0.6
v 0.9 6.6 -0.5
v 0.9 6.6 -0.6
v 0.9 6.6 -0.7
v 0.9 6.7 -0.5
v 0.9 6.7 -0.6
v 0.9 6.7 -0.7
v 0.9 6.8 -0.6
v 0.9 6.8 -0.7
v 0.9 5.8 -0.7
v 0.9 5.8 -0.8
v 0.9 6 -0.7
v 0.9 6 -0.8
v 1 0.1 -0.5
v 1 0.1 -0.6
v 1 0.1 -0.7
v 1 2.5 -0.5
v 1 2.5 -0.6
v 1 2.5 -0.7
v 1 3.2 -0.5
v 1 3.2 -0.6
v 1 3.7 -0.5
v 1 3.7 -0.6
v 1 5.2 -0.6
v 1 5.2 -0.7
v 1 5.3 -0.5
v 1 5.3 -0.6
v 1 5.7 -0.5
v 1 5.7 -0.6
v 1 5.7 -0.7
v 1 5.8 -0.4
v 1 5.8 -0.5
v 1 5.8 -0.6
v 1 5.9 -0.6
v 1 5.9 -0.7
v 1 6 -0.7
v 1 6 -0.8
v 1 6.1 -0.4
v 1 6.1 -0.5
v 1 6.2 -0.5
v 1 6.2 -0.7
v 1 6.2 -0.8
v 1 6.4 -0.5
v 1 6.4 -0.6
v 1 6.4 -0.7
v 1 6.4 -0.8
v 1 6.5 -0.4
v 1 6.5 -0.5
v 1 6.6 -0.5
v 1 6.6 -0.6
v 1 6.6 -0.7
v 1 6.7 -0.5
v 1 6.7 -0.6
v 1 6.7 -0.7
v 1 6.8 -0.6
v 1 6.8 -0.7
v 1.1 5.8 -0.5
v 1.1 5.8 -0.6
v 1.1 5.9 -0.6
v 1.1 5.9 -0.7
v 1.1 6.2 -0.5
v 1.1 6.2 -0.6
v 1.1 6.4 -0.5
v 1.1 6.4 -0.6
v 1.1 6.4 -0.7
v 1.1 6.6 -0.6
v 1.1 6.6 -0.7
v 0.9 5.8 -0.4
v 0.9 6.1 -0.4
v 0.9 6.5 -0.4
v 1 5.8 -0.4
v 1 6.1 -0.4
v 1 6.5 -0.4
v 0.8 0.1 -0.5
v 0.8 2.8 -0.5
v 0.8 3.2 -0.5
v 0.8 3.8 -0.5
v 0.8 5.6 -0.5
v 0.8 5.7 -0.5
v 0.8 6.3 -0.5
v 0.8 6.5 -0.5
v 0.9 0.1 -0.5
v 0.9 2.5 -0.5
v 0.9 2.8 -0.5
v 0.9 3.2 -0.5
v 0.9 3.7 -0.5
v 0.9 3.8 -0.5
v 0.9 5.3 -0.5
v 0.9 5.6 -0.5
v 0.9 5.7 -0.5
v 0.9 5.8 -0.5
v 0.9 6.1 -0.5
v 0.9 6.3 -0.5
v 0.9 6.5 -0.5
v 0.9 6.6 -0.5
v 0.9 6.7 -0.5
v 1 0.1 -0.5
v 1 2.5 -0.5
v 1 3.2 -0.5
v 1 3.7 -0.5
v 1 5.3 -0.5
v 1 5.7 -0.5
v 1 5.8 -0.5
v 1 6.1 -0.5
v 1 6.2 -0.5
v 1 6.4 -0.5
v 1 6.5 -0.5
v 1 6.6 -0.5
v 1 6.7 -0.5
v 1.1 5.8 -0.5
v 1.1 6.2 -0.5
v 1.1 6.4 -0.5
v 0.7 5.8 -0.6
v 0.7 6.1 -0.6
v 0.7 6.3 -0.6
v 0.8 5.8 -0.6
v 0.8 6.1 -0.6
v 0.8 6.3 -0.6
v 0.8 6.5 -0.6
v 0.8 6.6 -0.6
v 0.9 6.5 -0.6
v 0.9 6.6 -0.6
v 0.9 6.7 -0.6
v 0.9 6.8 -0.6
v 1 6.4 -0.6
v 1 6.6 -0.6
v 1 6.7 -0.6
v 1 6.8 -0.6
v 1.1 6.4 -0.6
v 1.1 6.6 -0.6
v 1 5.8 -0.6
v 1 5.9 -0.6
v 1.1 5.8 -0.6
v 1.1 5.9 -0.6
v 0.7 5.8 -0.7
v 0.7 6.1 -0.7
v 0.7 6.3 -0.7
v 0.8 0.1 -0.7
v 0.8 1.6 -0.7
v 0.8 1.7 -0.7
v 0.8 2.1 -0.7
v 0.8 2.5 -0.7
v 0.8 3.2 -0.7
v 0.8 5.2 -0.7
v 0.8 5.7 -0.7
v 0.8 5.8 -0.7
v 0.8 6.1 -0.7
v 0.8 6.2 -0.7
v 0.8 6.3 -0.7
v 0.8 6.5 -0.7
v 0.8 6.6 -0.7
v 0.9 0.1 -0.7
v 0.9 1.6 -0.7
v 0.9 1.7 -0.7
v 0.9 2.1 -0.7
v 0.9 3.2 -0.7
v 0.9 5.2 -0.7
v 0.9 5.7 -0.7
v 0.9 5.8 -0.7
v 0.9 6 -0.7
v 0.9 6.2 -0.7
v 0.9 6.4 -0.7
v 0.9 6.5 -0.7
v 0.9 6.6 -0.7
v 0.9 6.7 -0.7
v 0.9 6.8 -0.7
v 1 0.1 -0.7
v 1 2.5 -0.7
v 1 5.2 -0.7
v 1 5.7 -0.7
v 1 5.9 -0.7
v 1 6 -0.7
v 1 6.2 -0.7
v 1 6.4 -0.7
v 1 6.6 -0.7
v 1 6.7 -0.7
v 1 6.8 -0.7
v 1.1 5.9 -0.7
v 1.1 6.4 -0.7
v 1.1 6.6 -0.7
v 0.8 5.8 -0.8
v 0.8 6.1 -0.8
v 0.8 6.2 -0.8
v 0.9 5.8 -0.8
v 0.9 6 -0.8
v 0.9 6.1 -0.8
v 0.9 6.2 -0.8
v 0.9 6.4 -0.8
v 1 6 -0.8
v 1 6.2 -0.8
v 1 6.4 -0.8
v 0.8 0.1 -0.5
v 0.9 0.1 -0.5
v 1 0.1 -0.5
v 0.8 0.1 -0.6
v 0.9 0.1 -0.6
v 1 0.1 -0.6
v 0.8 0.1 -0.7
v 0.9 0.1 -0.7
v 1 0.1 -0.7
v 0.9 5.8 -0.4
v 1 5.8 -0.4
v 0.9 5.8 -0.5
v 1 5.8 -0.5
v 1.1 5.8 -0.5
v 0.7 5.8 -0.6
v 0.8 5.8 -0.6
v 1 5.8 -0.6
v 1.1 5.8 -0.6
v 0.7 5.8 -0.7
v 0.8 5.8 -0.7
v 0.9 5.8 -0.7
v 0.8 5.8 -0.8
v 0.9 5.8 -0.8
v 1 5.9 -0.6
v 1.1 5.9 -0.6
v 1 5.9 -0.7
v 1.1 5.9 -0.7
v 0.9 6 -0.7
v 1 6 -0.7
v 0.9 6 -0.8
v 1 6 -0.8
v 0.8 6.2 -0.7
v 0.9 6.2 -0.7
v 0.8 6.2 -0.8
v 0.9 6.2 -0.8
v 0.7 6.3 -0.6
v 0.8 6.3 -0.6
v 0.7 6.3 -0.7
v 0.8 6.3 -0.7
v 1 6.4 -0.5
v 1.1 6.4 -0.5
v 1 6.4 -0.6
v 1.1 6.4 -0.6
v 0.9 6.4 -0.7
v 1 6.4 -0.7
v 0.9 6.4 -0.8
v 1 6.4 -0.8
v 0.9 6.5 -0.4
v 1 6.5 -0.4
v 0.8 6.5 -0.5
v 0.9 6.5 -0.5
v 1 6.5 -0.5
v 0.8 6.5 -0.6
v 0.9 6.5 -0.6
v 0.8 6.6 -0.6
v 0.9 6.6 -0.6
v 1 6.6 -0.6
v 1.1 6.6 -0.6
v 0.8 6.6 -0.7
v 0.9 6.6 -0.7
v 1 6.6 -0.7
v 1.1 6.6 -0.7
v 0.9 6.7 -0.5
v 1 6.7 -0.5
v 0.9 6.7 -0.6
v 1 6.7 -0.6
v 0.9 6.8 -0.6
v 1 6.8 -0.6
v 0.9 6.8 -0.7
v 1 6.8 -0.7

# faces
f 3/4/1 2/4/1 1/4/1
f 4/4/1 2/4/1 3/4/1
f 5/3/1 4/3/1 3/3/1
f 6/3/1 4/3/1 5/3/1
f 10/1/1 8/1/1 7/1/1
f 10/2/1 9/2/1 8/2/1
f 11/2/1 9/2/1 10/2/1
f 12/1/1 10/1/1 7/1/1
f 12/1/1 11/1/1 10/1/1
f 13/1/1 11/1/1 12/1/1
f 14/1/1 12/1/1 7/1/1
f 14/2/1 13/2/1 12/2/1
f 15/2/1 13/2/1 14/2/1
f 16/1/1 14/1/1 7/1/1
f 16/1/1 15/1/1 14/1/1
f 17/1/1 15/1/1 16/1/1
f 18/1/1 16/1/1 7/1/1
f 19/2/1 17/2/1 16/2/1
f 19/1/1 16/1/1 18/1/1
f 20/2/1 19/2/1 18/2/1
f 21/2/1 17/2/1 19/2/1
f 21/2/1 19/2/1 20/2/1
f 22/1/1 21/1/1 20/1/1
f 23/1/1 21/1/1 22/1/1
f 24/2/1 23/2/1 22/2/1
f 24/1/1 21/1/1 23/1/1
f 25/1/1 21/1/1 24/1/1
f 26/2/1 24/2/1 22/2/1
f 26/2/1 25/2/1 24/2/1
f 27/2/1 25/2/1 26/2/1
f 28/1/1 27/1/1 26/1/1
f 29/2/1 25/2/1 27/2/1
f 29/1/1 27/1/1 28/1/1
f 30/2/1 25/2/1 29/2/1
f 31/4/1 29/4/1 28/4/1
f 31/4/1 30/4/1 29/4/1
f 32/4/1 30/4/1 31/4/1
f 34/4/1 31/4/1 28/4/1
f 35/4/1 33/4/1 32/4/1
f 36/4/1 33/4/1 35/4/1
f 37/3/1 36/3/1 35/3/1
f 38/3/1 36/3/1 37/3/1
f 39/4/1 34/4/1 28/4/1
f 40/4/1 34/4/1 39/4/1
f 42/3/1 40/3/1 39/3/1
f 43/4/1 41/4/1 40/4/1
f 43/3/1 40/3/1 42/3/1
f 44/4/1 41/4/1 43/4/1
f 45/3/1 44/3/1 43/3/1
f 46/3/1 44/3/1 45/3/1
f 49/4/1 48/4/1 47/4/1
f 50/4/1 48/4/1 49/4/1
f 53/3/1 50/3/1 49/3/1
f 54/3/1 52/3/1 51/3/1
f 55/3/1 52/3/1 54/3/1
f 56/3/1 53/3/1 49/3/1
f 57/3/1 53/3/1 56/3/1
f 59/4/1 58/4/1 57/4/1
f 60/4/1 58/4/1 59/4/1
f 62/3/1 60/3/1 59/3/1
f 63/4/1 61/4/1 60/4/1
f 63/3/1 60/3/1 62/3/1
f 64/4/1 61/4/1 63/4/1
f 65/3/1 64/3/1 63/3/1
f 66/3/1 64/3/1 65/3/1
f 67/4/2 68/4/2 69/4/2
f 69/4/2 68/4/2 70/4/2
f 71/2/2 72/2/2 74/2/2
f 72/1/2 73/1/2 75/1/2
f 74/2/2 72/2/2 75/2/2
f 75/1/2 73/1/2 76/1/2
f 74/1/2 75/1/2 77/1/2
f 75/2/2 76/2/2 78/2/2
f 77/1/2 75/1/2 78/1/2
f 77/2/2 78/2/2 79/2/2
f 78/2/2 76/2/2 80/2/2
f 79/2/2 78/2/2 80/2/2
f 79/1/2 80/1/2 81/1/2
f 80/2/2 76/2/2 81/2/2
f 81/2/2 76/2/2 82/2/2
f 79/1/2 81/1/2 83/1/2
f 81/1/2 82/1/2 83/1/2
f 83/1/2 82/1/2 84/1/2
f 83/2/2 84/2/2 85/2/2
f 84/1/2 82/1/2 86/1/2
f 85/2/2 84/2/2 86/2/2
f 86/1/2 82/1/2 87/1/2
f 85/4/2 86/4/2 89/4/2
f 86/4/2 87/4/2 89/4/2
f 89/4/2 87/4/2 90/4/2
f 90/4/2 87/4/2 91/4/2
f 91/4/2 87/4/2 92/4/2
f 88/4/2 89/4/2 95/4/2
f 95/4/2 89/4/2 96/4/2
f 95/3/2 96/3/2 97/3/2
f 93/4/2 94/4/2 98/4/2
f 98/4/2 94/4/2 99/4/2
f 95/3/2 97/3/2 100/3/2
f 98/3/2 99/3/2 102/3/2
f 102/3/2 99/3/2 103/3/2
f 95/3/2 100/3/2 104/3/2
f 100/4/2 101/4/2 105/4/2
f 104/3/2 100/3/2 105/3/2
f 105/4/2 101/4/2 106/4/2
f 106/4/2 101/4/2 107/4/2
f 106/3/2 107/3/2 109/3/2
f 107/4/2 108/4/2 110/4/2
f 109/3/2 107/3/2 110/3/2
f 110/4/2 108/4/2 111/4/2
f 110/3/2 111/3/2 112/3/2
f 112/3/2 111/3/2 113/3/2
f 114/4/2 115/4/2 116/4/2
f 114/4/2 116/4/2 118/4/2
f 116/4/2 117/4/2 118/4/2
f 118/4/2 117/4/2 119/4/2
f 118/3/2 119/3/2 120/3/2
f 119/4/2 117/4/2 121/4/2
f 120/3/2 119/3/2 121/3/2
f 121/4/2 117/4/2 122/4/2
f 121/3/2 122/3/2 123/3/2
f 123/3/2 122/3/2 124/3/2
f 128/4/3 126/4/3 125/4/3
f 129/3/3 127/3/3 126/3/3
f 129/4/3 126/4/3 128/4/3
f 130/3/3 127/3/3 129/3/3
f 139/1/3 132/1/3 131/1/3
f 140/1/3 132/1/3 139/1/3
f 141/2/3 133/2/3 132/2/3
f 141/1/3 132/1/3 140/1/3
f 142/1/3 134/1/3 133/1/3
f 142/2/3 133/2/3 141/2/3
f 143/1/3 134/1/3 142/1/3
f 144/2/3 135/2/3 134/2/3
f 144/1/3 134/1/3 143/1/3
f 145/2/3 135/2/3 144/2/3
f 146/1/3 136/1/3 135/1/3
f 146/2/3 135/2/3 145/2/3
f 147/4/3 137/4/3 136/4/3
f 147/1/3 136/1/3 146/1/3
f 148/4/3 137/4/3 147/4/3
f 149/4/3 137/4/3 148/4/3
f 150/3/3 138/3/3 137/3/3
f 150/4/3 137/4/3 149/4/3
f 151/3/3 138/3/3 150/3/3
f 154/2/3 140/2/3 139/2/3
f 155/1/3 141/1/3 140/1/3
f 155/2/3 140/2/3 154/2/3
f 155/1/3 142/1/3 141/1/3
f 156/2/3 143/2/3 142/2/3
f 156/1/3 142/1/3 155/1/3
f 157/1/3 145/1/3 144/1/3
f 157/2/3 143/2/3 156/2/3
f 157/1/3 144/1/3 143/1/3
f 158/2/3 146/2/3 145/2/3
f 158/1/3 145/1/3 157/1/3
f 158/2/3 147/2/3 146/2/3
f 159/4/3 148/4/3 147/4/3
f 159/2/3 147/2/3 158/2/3
f 160/4/3 148/4/3 159/4/3
f 164/4/3 152/4/3 151/4/3
f 165/3/3 153/3/3 152/3/3
f 165/4/3 152/4/3 164/4/3
f 166/3/3 153/3/3 165/3/3
f 167/4/3 162/4/3 161/4/3
f 167/4/3 161/4/3 160/4/3
f 168/3/3 163/3/3 162/3/3
f 168/4/3 162/4/3 167/4/3
f 169/3/3 163/3/3 168/3/3
f 173/4/3 171/4/3 170/4/3
f 174/3/3 172/3/3 171/3/3
f 174/4/3 171/4/3 173/4/3
f 175/3/3 172/3/3 174/3/3
f 178/3/3 177/3/3 176/3/3
f 179/3/3 177/3/3 178/3/3
f 184/3/3 181/3/3 180/3/3
f 185/3/3 181/3/3 184/3/3
f 186/3/3 183/3/3 182/3/3
f 187/3/3 183/3/3 186/3/3
f 188/4/4 189/4/4 190/4/4
f 190/4/4 189/4/4 191/4/4
f 192/4/4 193/4/4 203/4/4
f 193/3/4 194/3/4 204/3/4
f 203/4/4 193/4/4 204/4/4
f 204/3/4 194/3/4 205/3/4
f 205/3/4 194/3/4 206/3/4
f 195/2/4 196/2/4 209/2/4
f 196/1/4 197/1/4 210/1/4
f 209/2/4 196/2/4 210/2/4
f 197/2/4 198/2/4 211/2/4
f 210/1/4 197/1/4 211/1/4
f 198/1/4 199/1/4 212/1/4
f 211/2/4 198/2/4 212/2/4
f 199/2/4 200/2/4 213/2/4
f 200/1/4 201/1/4 213/1/4
f 201/2/4 202/2/4 214/2/4
f 213/1/4 201/1/4 214/1/4
f 202/4/4 203/4/4 215/4/4
f 214/2/4 202/2/4 215/2/4
f 215/4/4 203/4/4 216/4/4
f 206/4/4 207/4/4 218/4/4
f 205/4/4 206/4/4 218/4/4
f 218/4/4 207/4/4 219/4/4
f 207/3/4 208/3/4 220/3/4
f 219/4/4 207/4/4 220/4/4
f 220/3/4 208/3/4 221/3/4
f 209/1/4 210/1/4 224/1/4
f 210/1/4 211/1/4 224/1/4
f 211/1/4 212/1/4 224/1/4
f 199/2/4 213/2/4 225/2/4
f 224/1/4 212/1/4 225/1/4
f 213/2/4 214/2/4 225/2/4
f 212/1/4 199/1/4 225/1/4
f 214/1/4 215/1/4 226/1/4
f 225/2/4 214/2/4 226/2/4
f 216/4/4 217/4/4 227/4/4
f 226/1/4 215/1/4 227/1/4
f 215/4/4 216/4/4 227/4/4
f 227/4/4 217/4/4 228/4/4
f 228/4/4 217/4/4 229/4/4
f 221/4/4 222/4/4 231/4/4
f 220/4/4 221/4/4 231/4/4
f 219/4/4 220/4/4 231/4/4
f 231/4/4 222/4/4 232/4/4
f 222/3/4 223/3/4 233/3/4
f 232/4/4 222/4/4 233/4/4
f 233/3/4 223/3/4 234/3/4
f 229/4/4 230/4/4 235/4/4
f 228/4/4 229/4/4 235/4/4
f 230/4/4 231/4/4 235/4/4
f 231/3/4 232/3/4 236/3/4
f 235/4/4 231/4/4 236/4/4
f 236/3/4 232/3/4 237/3/4
f 238/4/4 239/4/4 241/4/4
f 241/4/4 239/4/4 242/4/4
f 239/3/4 240/3/4 243/3/4
f 242/4/4 239/4/4 243/4/4
f 243/3/4 240/3/4 244/3/4
f 242/4/4 243/4/4 246/4/4
f 243/4/4 244/4/4 246/4/4
f 244/3/4 245/3/4 247/3/4
f 246/4/4 244/4/4 247/4/4
f 247/3/4 245/3/4 248/3/4
f 252/1/5 250/1/5 249/1/5
f 253/2/5 251/2/5 250/2/5
f 253/1/5 250/1/5 252/1/5
f 254/2/5 251/2/5 253/2/5
f 255/2/5 253/2/5 252/2/5
f 256/1/5 254/1/5 253/1/5
f 256/2/5 253/2/5 255/2/5
f 257/1/5 254/1/5 256/1/5
f 260/4/5 259/4/5 258/4/5
f 261/4/5 259/4/5 260/4/5
f 265/4/5 262/4/5 261/4/5
f 266/4/5 262/4/5 265/4/5
f 267/4/5 264/4/5 263/4/5
f 268/4/5 264/4/5 267/4/5
f 270/4/5 269/4/5 268/4/5
f 271/4/5 269/4/5 270/4/5
f 274/4/5 273/4/5 272/4/5
f 275/4/5 273/4/5 274/4/5
f 278/4/5 277/4/5 276/4/5
f 279/4/5 277/4/5 278/4/5
f 280/3/6 281/3/6 282/3/6
f 282/3/6 281/3/6 283/3/6
f 284/3/6 285/3/6 286/3/6
f 286/3/6 285/3/6 287/3/6
f 288/3/6 289/3/6 290/3/6
f 290/3/6 289/3/6 291/3/6
f 292/3/6 293/3/6 294/3/6
f 294/3/6 293/3/6 295/3/6
f 296/3/6 297/3/6 299/3/6
f 299/3/6 297/3/6 300/3/6
f 298/3/6 299/3/6 301/3/6
f 301/3/6 299/3/6 302/3/6
f 303/3/6 304/3/6 307/3/6
f 307/3/6 304/3/6 308/3/6
f 305/3/6 306/3/6 309/3/6
f 309/3/6 306/3/6 310/3/6
f 311/3/6 312/3/6 313/3/6
f 313/3/6 312/3/6 314/3/6
f 315/3/6 316/3/6 317/3/6
f 317/3/6 316/3/6 318/3/6
