# MagicaVoxel @ Ephtracy

# group
o 

# material
mtllib weapon_bow_small.mtl
usemtl palette

# normals
vn -1 0 0
vn 1 0 0
vn 0 0 1
vn 0 0 -1
vn 0 -1 0
vn 0 1 0

# texcoords
vt 0.0332031 0.5
vt 0.0644531 0.5
vt 0.0722656 0.5
vt 0.0761719 0.5
vt 0.927734 0.5
vt 0.931641 0.5
vt 0.935547 0.5

# verts
v -3.3 1.4 -0.3
v -3.3 1.4 -0.4
v -3.3 1.5 -0.2
v -3.3 1.5 -0.3
v -3.3 1.5 -0.4
v -3.3 1.6 -0.1
v -3.3 1.6 -0.2
v -3.3 1.6 -0.3
v -3.3 1.7 0
v -3.3 1.7 -0.1
v -3.3 1.7 -0.2
v -3.3 1.8 0.1
v -3.3 1.8 0
v -3.3 1.8 -0.1
v -3.3 2 0.2
v -3.3 2 0.1
v -3.3 2 0
v -3.3 2.2 0.3
v -3.3 2.2 0.2
v -3.3 2.2 0.1
v -3.3 2.5 0.4
v -3.3 2.5 0.3
v -3.3 2.5 0.2
v -3.3 2.8 0.4
v -3.3 2.8 0.3
v -3.3 2.9 0.4
v -3.3 2.9 0.3
v -3.3 3.1 0.4
v -3.3 3.1 0.3
v -3.3 3.2 0.4
v -3.3 3.2 0.3
v -3.3 3.5 0.4
v -3.3 3.5 0.3
v -3.3 3.5 0.2
v -3.3 3.9 0.3
v -3.3 3.9 0.2
v -3.3 3.9 0.1
v -3.3 4.2 0.2
v -3.3 4.2 0.1
v -3.3 4.2 0
v -3.3 4.4 0.1
v -3.3 4.4 0
v -3.3 4.4 -0.1
v -3.3 4.5 0
v -3.3 4.5 -0.1
v -3.3 4.5 -0.2
v -3.3 4.6 -0.1
v -3.3 4.6 -0.2
v -3.3 4.6 -0.3
v -3.3 4.7 -0.2
v -3.3 4.7 -0.3
v -3.3 4.7 -0.4
v -3.3 4.8 -0.3
v -3.3 4.8 -0.4
v -3.2 1.4 -0.2
v -3.2 1.4 -0.3
v -3.2 1.4 -0.4
v -3.2 1.4 -0.5
v -3.2 1.5 -0.1
v -3.2 1.5 -0.2
v -3.2 1.5 -0.3
v -3.2 1.5 -0.4
v -3.2 1.5 -0.5
v -3.2 1.6 0
v -3.2 1.6 -0.1
v -3.2 1.6 -0.2
v -3.2 1.6 -0.3
v -3.2 1.7 0.1
v -3.2 1.7 0
v -3.2 1.7 -0.1
v -3.2 1.8 0.2
v -3.2 1.8 0.1
v -3.2 1.8 0
v -3.2 2 0.3
v -3.2 2 0.2
v -3.2 2 0.1
v -3.2 2.2 0.4
v -3.2 2.2 0.3
v -3.2 2.2 0.2
v -3.2 2.2 -0.3
v -3.2 2.2 -0.4
v -3.2 2.5 0.5
v -3.2 2.5 0.4
v -3.2 2.5 0.3
v -3.2 2.7 -0.3
v -3.2 2.7 -0.4
v -3.2 2.8 0.5
v -3.2 2.8 0.4
v -3.2 2.9 0.5
v -3.2 2.9 0.4
v -3.2 2.9 0.3
v -3.2 2.9 0.2
v -3.2 3.1 0.5
v -3.2 3.1 0.4
v -3.2 3.1 0.3
v -3.2 3.1 0.2
v -3.2 3.2 0.5
v -3.2 3.2 0.4
v -3.2 3.5 0.5
v -3.2 3.5 0.4
v -3.2 3.5 0.3
v -3.2 3.5 -0.3
v -3.2 3.5 -0.4
v -3.2 3.9 0.4
v -3.2 3.9 0.3
v -3.2 3.9 0.2
v -3.2 4 -0.3
v -3.2 4 -0.4
v -3.2 4.2 0.3
v -3.2 4.2 0.2
v -3.2 4.2 0.1
v -3.2 4.4 0.2
v -3.2 4.4 0.1
v -3.2 4.4 0
v -3.2 4.5 0.1
v -3.2 4.5 0
v -3.2 4.5 -0.1
v -3.2 4.6 0
v -3.2 4.6 -0.1
v -3.2 4.6 -0.2
v -3.2 4.6 -0.3
v -3.2 4.7 -0.1
v -3.2 4.7 -0.2
v -3.2 4.7 -0.3
v -3.2 4.7 -0.4
v -3.2 4.7 -0.5
v -3.2 4.8 -0.2
v -3.2 4.8 -0.3
v -3.2 4.8 -0.4
v -3.2 4.8 -0.5
v -3.1 1.5 -0.2
v -3.1 1.5 -0.3
v -3.1 1.6 -0.1
v -3.1 1.6 -0.2
v -3.1 1.6 -0.3
v -3.1 1.7 0
v -3.1 1.7 -0.1
v -3.1 1.7 -0.2
v -3.1 1.8 0.1
v -3.1 1.8 0
v -3.1 1.8 -0.1
v -3.1 2 0.1
v -3.1 2 0
v -3.1 2.1 0.2
v -3.1 2.1 0.1
v -3.1 2.2 0.3
v -3.1 2.2 0.2
v -3.1 2.2 0.1
v -3.1 2.5 0.3
v -3.1 2.5 0.2
v -3.1 2.6 0.4
v -3.1 2.6 0.3
v -3.1 2.8 0.4
v -3.1 2.8 0.3
v -3.1 3.2 0.4
v -3.1 3.2 0.3
v -3.1 3.4 0.4
v -3.1 3.4 0.3
v -3.1 3.5 0.3
v -3.1 3.5 0.2
v -3.1 3.9 0.3
v -3.1 3.9 0.2
v -3.1 4 0.2
v -3.1 4 0.1
v -3.1 4.1 0.2
v -3.1 4.1 0.1
v -3.1 4.2 0.1
v -3.1 4.2 0
v -3.1 4.3 0.1
v -3.1 4.3 0
v -3.2 1.5 -0.2
v -3.2 1.5 -0.3
v -3.2 1.6 -0.1
v -3.2 1.6 -0.2
v -3.2 1.6 -0.3
v -3.2 1.7 0
v -3.2 1.7 -0.1
v -3.2 1.7 -0.2
v -3.2 1.8 0.1
v -3.2 1.8 0
v -3.2 1.8 -0.1
v -3.2 2 0.1
v -3.2 2 0
v -3.2 2.1 0.2
v -3.2 2.1 0.1
v -3.2 2.2 0.3
v -3.2 2.2 0.2
v -3.2 2.2 0.1
v -3.2 2.5 0.3
v -3.2 2.5 0.2
v -3.2 2.6 0.4
v -3.2 2.6 0.3
v -3.2 2.8 0.4
v -3.2 2.8 0.3
v -3.2 3.2 0.4
v -3.2 3.2 0.3
v -3.2 3.4 0.4
v -3.2 3.4 0.3
v -3.2 3.5 0.3
v -3.2 3.5 0.2
v -3.2 3.9 0.3
v -3.2 3.9 0.2
v -3.2 3.9 0.1
v -3.2 4.1 0.2
v -3.2 4.1 0.1
v -3.2 4.2 0.1
v -3.2 4.2 0
v -3.2 4.3 0.1
v -3.2 4.3 0
v -3.1 1.4 -0.2
v -3.1 1.4 -0.3
v -3.1 1.4 -0.4
v -3.1 1.4 -0.5
v -3.1 1.5 -0.1
v -3.1 1.5 -0.2
v -3.1 1.5 -0.3
v -3.1 1.5 -0.4
v -3.1 1.5 -0.5
v -3.1 1.6 0
v -3.1 1.6 -0.1
v -3.1 1.6 -0.2
v -3.1 1.6 -0.3
v -3.1 1.7 0.1
v -3.1 1.7 0
v -3.1 1.7 -0.1
v -3.1 1.8 0.2
v -3.1 1.8 0.1
v -3.1 1.8 0
v -3.1 2 0.3
v -3.1 2 0.2
v -3.1 2 0.1
v -3.1 2.2 0.4
v -3.1 2.2 0.3
v -3.1 2.2 0.2
v -3.1 2.2 -0.3
v -3.1 2.2 -0.4
v -3.1 2.5 0.5
v -3.1 2.5 0.4
v -3.1 2.5 0.3
v -3.1 2.7 -0.3
v -3.1 2.7 -0.4
v -3.1 2.8 0.5
v -3.1 2.8 0.4
v -3.1 2.9 0.5
v -3.1 2.9 0.4
v -3.1 2.9 0.3
v -3.1 2.9 0.2
v -3.1 3.1 0.5
v -3.1 3.1 0.4
v -3.1 3.1 0.3
v -3.1 3.1 0.2
v -3.1 3.2 0.5
v -3.1 3.2 0.4
v -3.1 3.5 0.5
v -3.1 3.5 0.4
v -3.1 3.5 0.3
v -3.1 3.5 -0.3
v -3.1 3.5 -0.4
v -3.1 3.9 0.4
v -3.1 3.9 0.3
v -3.1 4 0.3
v -3.1 4 0.2
v -3.1 4 -0.3
v -3.1 4 -0.4
v -3.1 4.2 0.3
v -3.1 4.2 0.2
v -3.1 4.2 0.1
v -3.1 4.4 0.2
v -3.1 4.4 0.1
v -3.1 4.4 0
v -3.1 4.5 0.1
v -3.1 4.5 0
v -3.1 4.5 -0.1
v -3.1 4.6 0
v -3.1 4.6 -0.1
v -3.1 4.6 -0.2
v -3.1 4.6 -0.3
v -3.1 4.7 -0.1
v -3.1 4.7 -0.2
v -3.1 4.7 -0.3
v -3.1 4.7 -0.4
v -3.1 4.7 -0.5
v -3.1 4.8 -0.2
v -3.1 4.8 -0.3
v -3.1 4.8 -0.4
v -3.1 4.8 -0.5
v -3 1.4 -0.3
v -3 1.4 -0.4
v -3 1.5 -0.2
v -3 1.5 -0.3
v -3 1.5 -0.4
v -3 1.6 -0.1
v -3 1.6 -0.2
v -3 1.6 -0.3
v -3 1.7 0
v -3 1.7 -0.1
v -3 1.7 -0.2
v -3 1.8 0.1
v -3 1.8 0
v -3 1.8 -0.1
v -3 2 0.2
v -3 2 0.1
v -3 2 0
v -3 2.2 0.3
v -3 2.2 0.2
v -3 2.2 0.1
v -3 2.5 0.4
v -3 2.5 0.3
v -3 2.5 0.2
v -3 2.8 0.4
v -3 2.8 0.3
v -3 2.9 0.4
v -3 2.9 0.3
v -3 3.1 0.4
v -3 3.1 0.3
v -3 3.2 0.4
v -3 3.2 0.3
v -3 3.5 0.4
v -3 3.5 0.3
v -3 3.5 0.2
v -3 4 0.3
v -3 4 0.2
v -3 4 0.1
v -3 4.2 0.2
v -3 4.2 0.1
v -3 4.2 0
v -3 4.4 0.1
v -3 4.4 0
v -3 4.4 -0.1
v -3 4.5 0
v -3 4.5 -0.1
v -3 4.5 -0.2
v -3 4.6 -0.1
v -3 4.6 -0.2
v -3 4.6 -0.3
v -3 4.7 -0.2
v -3 4.7 -0.3
v -3 4.7 -0.4
v -3 4.8 -0.3
v -3 4.8 -0.4
v -3.2 2.5 0.5
v -3.2 2.8 0.5
v -3.2 2.9 0.5
v -3.2 3.1 0.5
v -3.2 3.2 0.5
v -3.2 3.5 0.5
v -3.1 2.5 0.5
v -3.1 2.8 0.5
v -3.1 2.9 0.5
v -3.1 3.1 0.5
v -3.1 3.2 0.5
v -3.1 3.5 0.5
v -3.3 2.5 0.4
v -3.3 2.8 0.4
v -3.3 2.9 0.4
v -3.3 3.1 0.4
v -3.3 3.2 0.4
v -3.3 3.5 0.4
v -3.2 2.2 0.4
v -3.2 2.5 0.4
v -3.2 2.8 0.4
v -3.2 2.9 0.4
v -3.2 3.1 0.4
v -3.2 3.2 0.4
v -3.2 3.5 0.4
v -3.2 3.9 0.4
v -3.1 2.2 0.4
v -3.1 2.5 0.4
v -3.1 2.8 0.4
v -3.1 2.9 0.4
v -3.1 3.1 0.4
v -3.1 3.2 0.4
v -3.1 3.5 0.4
v -3.1 3.9 0.4
v -3 2.5 0.4
v -3 2.8 0.4
v -3 2.9 0.4
v -3 3.1 0.4
v -3 3.2 0.4
v -3 3.5 0.4
v -3.3 2.2 0.3
v -3.3 2.5 0.3
v -3.3 3.5 0.3
v -3.3 3.9 0.3
v -3.2 2 0.3
v -3.2 2.2 0.3
v -3.2 2.5 0.3
v -3.2 3.5 0.3
v -3.2 3.9 0.3
v -3.2 4.2 0.3
v -3.1 2 0.3
v -3.1 2.2 0.3
v -3.1 2.5 0.3
v -3.1 3.5 0.3
v -3.1 3.9 0.3
v -3.1 4 0.3
v -3.1 4.2 0.3
v -3 2.2 0.3
v -3 2.5 0.3
v -3 3.5 0.3
v -3 4 0.3
v -3.3 2 0.2
v -3.3 2.2 0.2
v -3.3 3.9 0.2
v -3.3 4.2 0.2
v -3.2 1.8 0.2
v -3.2 2 0.2
v -3.2 2.2 0.2
v -3.2 3.9 0.2
v -3.2 4.2 0.2
v -3.2 4.4 0.2
v -3.1 1.8 0.2
v -3.1 2 0.2
v -3.1 2.2 0.2
v -3.1 4 0.2
v -3.1 4.2 0.2
v -3.1 4.4 0.2
v -3 2 0.2
v -3 2.2 0.2
v -3 4 0.2
v -3 4.2 0.2
v -3.3 1.8 0.1
v -3.3 2 0.1
v -3.3 4.2 0.1
v -3.3 4.4 0.1
v -3.2 1.7 0.1
v -3.2 1.8 0.1
v -3.2 2 0.1
v -3.2 4.2 0.1
v -3.2 4.4 0.1
v -3.2 4.5 0.1
v -3.1 1.7 0.1
v -3.1 1.8 0.1
v -3.1 2 0.1
v -3.1 4.2 0.1
v -3.1 4.4 0.1
v -3.1 4.5 0.1
v -3 1.8 0.1
v -3 2 0.1
v -3 4.2 0.1
v -3 4.4 0.1
v -3.3 1.7 0
v -3.3 1.8 0
v -3.3 4.4 0
v -3.3 4.5 0
v -3.2 1.6 0
v -3.2 1.7 0
v -3.2 1.8 0
v -3.2 4.4 0
v -3.2 4.5 0
v -3.2 4.6 0
v -3.1 1.6 0
v -3.1 1.7 0
v -3.1 1.8 0
v -3.1 4.4 0
v -3.1 4.5 0
v -3.1 4.6 0
v -3 1.7 0
v -3 1.8 0
v -3 4.4 0
v -3 4.5 0
v -3.3 1.6 -0.1
v -3.3 1.7 -0.1
v -3.3 4.5 -0.1
v -3.3 4.6 -0.1
v -3.2 1.5 -0.1
v -3.2 1.6 -0.1
v -3.2 1.7 -0.1
v -3.2 4.5 -0.1
v -3.2 4.6 -0.1
v -3.2 4.7 -0.1
v -3.1 1.5 -0.1
v -3.1 1.6 -0.1
v -3.1 1.7 -0.1
v -3.1 4.5 -0.1
v -3.1 4.6 -0.1
v -3.1 4.7 -0.1
v -3 1.6 -0.1
v -3 1.7 -0.1
v -3 4.5 -0.1
v -3 4.6 -0.1
v -3.3 1.5 -0.2
v -3.3 1.6 -0.2
v -3.3 4.6 -0.2
v -3.3 4.7 -0.2
v -3.2 1.4 -0.2
v -3.2 1.5 -0.2
v -3.2 1.6 -0.2
v -3.2 4.6 -0.2
v -3.2 4.7 -0.2
v -3.2 4.8 -0.2
v -3.1 1.4 -0.2
v -3.1 1.5 -0.2
v -3.1 1.6 -0.2
v -3.1 4.6 -0.2
v -3.1 4.7 -0.2
v -3.1 4.8 -0.2
v -3 1.5 -0.2
v -3 1.6 -0.2
v -3 4.6 -0.2
v -3 4.7 -0.2
v -3.3 1.4 -0.3
v -3.3 1.5 -0.3
v -3.3 4.7 -0.3
v -3.3 4.8 -0.3
v -3.2 1.4 -0.3
v -3.2 1.5 -0.3
v -3.2 1.6 -0.3
v -3.2 2.2 -0.3
v -3.2 2.7 -0.3
v -3.2 3.5 -0.3
v -3.2 4 -0.3
v -3.2 4.6 -0.3
v -3.2 4.7 -0.3
v -3.2 4.8 -0.3
v -3.1 1.4 -0.3
v -3.1 1.5 -0.3
v -3.1 1.6 -0.3
v -3.1 2.2 -0.3
v -3.1 2.7 -0.3
v -3.1 3.5 -0.3
v -3.1 4 -0.3
v -3.1 4.6 -0.3
v -3.1 4.7 -0.3
v -3.1 4.8 -0.3
v -3 1.4 -0.3
v -3 1.5 -0.3
v -3 4.7 -0.3
v -3 4.8 -0.3
v -3.2 2.6 0.4
v -3.2 2.8 0.4
v -3.2 3.2 0.4
v -3.2 3.4 0.4
v -3.1 2.6 0.4
v -3.1 2.8 0.4
v -3.1 3.2 0.4
v -3.1 3.4 0.4
v -3.3 2.5 0.3
v -3.3 2.8 0.3
v -3.3 2.9 0.3
v -3.3 3.1 0.3
v -3.3 3.2 0.3
v -3.3 3.5 0.3
v -3.2 2.2 0.3
v -3.2 2.5 0.3
v -3.2 2.6 0.3
v -3.2 2.8 0.3
v -3.2 2.9 0.3
v -3.2 3.1 0.3
v -3.2 3.2 0.3
v -3.2 3.4 0.3
v -3.2 3.5 0.3
v -3.2 3.9 0.3
v -3.1 2.2 0.3
v -3.1 2.5 0.3
v -3.1 2.6 0.3
v -3.1 2.8 0.3
v -3.1 2.9 0.3
v -3.1 3.1 0.3
v -3.1 3.2 0.3
v -3.1 3.4 0.3
v -3.1 3.5 0.3
v -3.1 3.9 0.3
v -3 2.5 0.3
v -3 2.8 0.3
v -3 2.9 0.3
v -3 3.1 0.3
v -3 3.2 0.3
v -3 3.5 0.3
v -3.3 2.2 0.2
v -3.3 2.5 0.2
v -3.3 3.5 0.2
v -3.3 3.9 0.2
v -3.2 2.1 0.2
v -3.2 2.2 0.2
v -3.2 2.5 0.2
v -3.2 2.9 0.2
v -3.2 3.1 0.2
v -3.2 3.5 0.2
v -3.2 3.9 0.2
v -3.2 4.1 0.2
v -3.1 2.1 0.2
v -3.1 2.2 0.2
v -3.1 2.5 0.2
v -3.1 2.9 0.2
v -3.1 3.1 0.2
v -3.1 3.5 0.2
v -3.1 3.9 0.2
v -3.1 4 0.2
v -3.1 4.1 0.2
v -3 2.2 0.2
v -3 2.5 0.2
v -3 3.5 0.2
v -3 4 0.2
v -3.3 2 0.1
v -3.3 2.2 0.1
v -3.3 3.9 0.1
v -3.3 4.2 0.1
v -3.2 1.8 0.1
v -3.2 2 0.1
v -3.2 2.1 0.1
v -3.2 2.2 0.1
v -3.2 3.9 0.1
v -3.2 4.1 0.1
v -3.2 4.2 0.1
v -3.2 4.3 0.1
v -3.1 1.8 0.1
v -3.1 2 0.1
v -3.1 2.1 0.1
v -3.1 2.2 0.1
v -3.1 4 0.1
v -3.1 4.1 0.1
v -3.1 4.2 0.1
v -3.1 4.3 0.1
v -3 2 0.1
v -3 2.2 0.1
v -3 4 0.1
v -3 4.2 0.1
v -3.3 1.8 0
v -3.3 2 0
v -3.3 4.2 0
v -3.3 4.4 0
v -3.2 1.7 0
v -3.2 1.8 0
v -3.2 2 0
v -3.2 4.2 0
v -3.2 4.3 0
v -3.2 4.4 0
v -3.1 1.7 0
v -3.1 1.8 0
v -3.1 2 0
v -3.1 4.2 0
v -3.1 4.3 0
v -3.1 4.4 0
v -3 1.8 0
v -3 2 0
v -3 4.2 0
v -3 4.4 0
v -3.3 1.7 -0.1
v -3.3 1.8 -0.1
v -3.3 4.4 -0.1
v -3.3 4.5 -0.1
v -3.2 1.6 -0.1
v -3.2 1.7 -0.1
v -3.2 1.8 -0.1
v -3.2 4.4 -0.1
v -3.2 4.5 -0.1
v -3.1 1.6 -0.1
v -3.1 1.7 -0.1
v -3.1 1.8 -0.1
v -3.1 4.4 -0.1
v -3.1 4.5 -0.1
v -3 1.7 -0.1
v -3 1.8 -0.1
v -3 4.4 -0.1
v -3 4.5 -0.1
v -3.3 1.6 -0.2
v -3.3 1.7 -0.2
v -3.3 4.5 -0.2
v -3.3 4.6 -0.2
v -3.2 1.5 -0.2
v -3.2 1.6 -0.2
v -3.2 1.7 -0.2
v -3.2 4.5 -0.2
v -3.2 4.6 -0.2
v -3.1 1.5 -0.2
v -3.1 1.6 -0.2
v -3.1 1.7 -0.2
v -3.1 4.5 -0.2
v -3.1 4.6 -0.2
v -3 1.6 -0.2
v -3 1.7 -0.2
v -3 4.5 -0.2
v -3 4.6 -0.2
v -3.3 1.5 -0.3
v -3.3 1.6 -0.3
v -3.3 4.6 -0.3
v -3.3 4.7 -0.3
v -3.2 1.5 -0.3
v -3.2 1.6 -0.3
v -3.2 4.6 -0.3
v -3.2 4.7 -0.3
v -3.1 1.5 -0.3
v -3.1 1.6 -0.3
v -3.1 4.6 -0.3
v -3.1 4.7 -0.3
v -3 1.5 -0.3
v -3 1.6 -0.3
v -3 4.6 -0.3
v -3 4.7 -0.3
v -3.3 1.4 -0.4
v -3.3 1.5 -0.4
v -3.3 4.7 -0.4
v -3.3 4.8 -0.4
v -3.2 1.4 -0.4
v -3.2 1.5 -0.4
v -3.2 2.2 -0.4
v -3.2 2.7 -0.4
v -3.2 3.5 -0.4
v -3.2 4 -0.4
v -3.2 4.7 -0.4
v -3.2 4.8 -0.4
v -3.1 1.4 -0.4
v -3.1 1.5 -0.4
v -3.1 2.2 -0.4
v -3.1 2.7 -0.4
v -3.1 3.5 -0.4
v -3.1 4 -0.4
v -3.1 4.7 -0.4
v -3.1 4.8 -0.4
v -3 1.4 -0.4
v -3 1.5 -0.4
v -3 4.7 -0.4
v -3 4.8 -0.4
v -3.2 1.4 -0.5
v -3.2 1.5 -0.5
v -3.2 4.7 -0.5
v -3.2 4.8 -0.5
v -3.1 1.4 -0.5
v -3.1 1.5 -0.5
v -3.1 4.7 -0.5
v -3.1 4.8 -0.5
v -3.2 1.4 -0.2
v -3.1 1.4 -0.2
v -3.3 1.4 -0.3
v -3.2 1.4 -0.3
v -3.1 1.4 -0.3
v -3 1.4 -0.3
v -3.3 1.4 -0.4
v -3.2 1.4 -0.4
v -3.1 1.4 -0.4
v -3 1.4 -0.4
v -3.2 1.4 -0.5
v -3.1 1.4 -0.5
v -3.2 1.5 -0.1
v -3.1 1.5 -0.1
v -3.3 1.5 -0.2
v -3.2 1.5 -0.2
v -3.1 1.5 -0.2
v -3 1.5 -0.2
v -3.3 1.5 -0.3
v -3.2 1.5 -0.3
v -3.1 1.5 -0.3
v -3 1.5 -0.3
v -3.2 1.6 0
v -3.1 1.6 0
v -3.3 1.6 -0.1
v -3.2 1.6 -0.1
v -3.1 1.6 -0.1
v -3 1.6 -0.1
v -3.3 1.6 -0.2
v -3.2 1.6 -0.2
v -3.1 1.6 -0.2
v -3 1.6 -0.2
v -3.2 1.7 0.1
v -3.1 1.7 0.1
v -3.3 1.7 0
v -3.2 1.7 0
v -3.1 1.7 0
v -3 1.7 0
v -3.3 1.7 -0.1
v -3.2 1.7 -0.1
v -3.1 1.7 -0.1
v -3 1.7 -0.1
v -3.2 1.8 0.2
v -3.1 1.8 0.2
v -3.3 1.8 0.1
v -3.2 1.8 0.1
v -3.1 1.8 0.1
v -3 1.8 0.1
v -3.3 1.8 0
v -3.2 1.8 0
v -3.1 1.8 0
v -3 1.8 0
v -3.2 2 0.3
v -3.1 2 0.3
v -3.3 2 0.2
v -3.2 2 0.2
v -3.1 2 0.2
v -3 2 0.2
v -3.3 2 0.1
v -3.2 2 0.1
v -3.1 2 0.1
v -3 2 0.1
v -3.2 2.2 0.4
v -3.1 2.2 0.4
v -3.3 2.2 0.3
v -3.2 2.2 0.3
v -3.1 2.2 0.3
v -3 2.2 0.3
v -3.3 2.2 0.2
v -3.2 2.2 0.2
v -3.1 2.2 0.2
v -3 2.2 0.2
v -3.2 2.5 0.5
v -3.1 2.5 0.5
v -3.3 2.5 0.4
v -3.2 2.5 0.4
v -3.1 2.5 0.4
v -3 2.5 0.4
v -3.3 2.5 0.3
v -3.2 2.5 0.3
v -3.1 2.5 0.3
v -3 2.5 0.3
v -3.2 2.8 0.4
v -3.1 2.8 0.4
v -3.2 2.8 0.3
v -3.1 2.8 0.3
v -3.2 2.9 0.3
v -3.1 2.9 0.3
v -3.2 2.9 0.2
v -3.1 2.9 0.2
v -3.2 3.1 0.5
v -3.1 3.1 0.5
v -3.3 3.1 0.4
v -3.2 3.1 0.4
v -3.1 3.1 0.4
v -3 3.1 0.4
v -3.3 3.1 0.3
v -3.2 3.1 0.3
v -3.1 3.1 0.3
v -3 3.1 0.3
v -3.2 3.4 0.4
v -3.1 3.4 0.4
v -3.2 3.4 0.3
v -3.1 3.4 0.3
v -3.3 3.5 0.3
v -3.2 3.5 0.3
v -3.1 3.5 0.3
v -3 3.5 0.3
v -3.3 3.5 0.2
v -3.2 3.5 0.2
v -3.1 3.5 0.2
v -3 3.5 0.2
v -3.2 3.9 0.3
v -3.1 3.9 0.3
v -3.3 3.9 0.2
v -3.2 3.9 0.2
v -3.1 3.9 0.2
v -3.3 3.9 0.1
v -3.2 3.9 0.1
v -3.1 4 0.2
v -3 4 0.2
v -3.1 4 0.1
v -3 4 0.1
v -3.2 4.1 0.2
v -3.1 4.1 0.2
v -3.2 4.1 0.1
v -3.1 4.1 0.1
v -3.3 4.2 0.1
v -3.2 4.2 0.1
v -3.1 4.2 0.1
v -3 4.2 0.1
v -3.3 4.2 0
v -3.2 4.2 0
v -3.1 4.2 0
v -3 4.2 0
v -3.2 4.3 0.1
v -3.1 4.3 0.1
v -3.2 4.3 0
v -3.1 4.3 0
v -3.3 4.4 0
v -3.2 4.4 0
v -3.1 4.4 0
v -3 4.4 0
v -3.3 4.4 -0.1
v -3.2 4.4 -0.1
v -3.1 4.4 -0.1
v -3 4.4 -0.1
v -3.3 4.5 -0.1
v -3.2 4.5 -0.1
v -3.1 4.5 -0.1
v -3 4.5 -0.1
v -3.3 4.5 -0.2
v -3.2 4.5 -0.2
v -3.1 4.5 -0.2
v -3 4.5 -0.2
v -3.3 4.6 -0.2
v -3.2 4.6 -0.2
v -3.1 4.6 -0.2
v -3 4.6 -0.2
v -3.3 4.6 -0.3
v -3.2 4.6 -0.3
v -3.1 4.6 -0.3
v -3 4.6 -0.3
v -3.3 4.7 -0.3
v -3.2 4.7 -0.3
v -3.1 4.7 -0.3
v -3 4.7 -0.3
v -3.3 4.7 -0.4
v -3.2 4.7 -0.4
v -3.1 4.7 -0.4
v -3 4.7 -0.4
v -3.2 4.7 -0.5
v -3.1 4.7 -0.5
v -3.2 1.5 -0.2
v -3.1 1.5 -0.2
v -3.3 1.5 -0.3
v -3.2 1.5 -0.3
v -3.1 1.5 -0.3
v -3 1.5 -0.3
v -3.3 1.5 -0.4
v -3.2 1.5 -0.4
v -3.1 1.5 -0.4
v -3 1.5 -0.4
v -3.2 1.5 -0.5
v -3.1 1.5 -0.5
v -3.2 1.6 -0.1
v -3.1 1.6 -0.1
v -3.3 1.6 -0.2
v -3.2 1.6 -0.2
v -3.1 1.6 -0.2
v -3 1.6 -0.2
v -3.3 1.6 -0.3
v -3.2 1.6 -0.3
v -3.1 1.6 -0.3
v -3 1.6 -0.3
v -3.2 1.7 0
v -3.1 1.7 0
v -3.3 1.7 -0.1
v -3.2 1.7 -0.1
v -3.1 1.7 -0.1
v -3 1.7 -0.1
v -3.3 1.7 -0.2
v -3.2 1.7 -0.2
v -3.1 1.7 -0.2
v -3 1.7 -0.2
v -3.2 1.8 0.1
v -3.1 1.8 0.1
v -3.3 1.8 0
v -3.2 1.8 0
v -3.1 1.8 0
v -3 1.8 0
v -3.3 1.8 -0.1
v -3.2 1.8 -0.1
v -3.1 1.8 -0.1
v -3 1.8 -0.1
v -3.3 2 0.1
v -3.2 2 0.1
v -3.1 2 0.1
v -3 2 0.1
v -3.3 2 0
v -3.2 2 0
v -3.1 2 0
v -3 2 0
v -3.2 2.1 0.2
v -3.1 2.1 0.2
v -3.2 2.1 0.1
v -3.1 2.1 0.1
v -3.2 2.2 0.3
v -3.1 2.2 0.3
v -3.3 2.2 0.2
v -3.2 2.2 0.2
v -3.1 2.2 0.2
v -3 2.2 0.2
v -3.3 2.2 0.1
v -3.2 2.2 0.1
v -3.1 2.2 0.1
v -3 2.2 0.1
v -3.3 2.5 0.3
v -3.2 2.5 0.3
v -3.1 2.5 0.3
v -3 2.5 0.3
v -3.3 2.5 0.2
v -3.2 2.5 0.2
v -3.1 2.5 0.2
v -3 2.5 0.2
v -3.2 2.6 0.4
v -3.1 2.6 0.4
v -3.2 2.6 0.3
v -3.1 2.6 0.3
v -3.2 2.9 0.5
v -3.1 2.9 0.5
v -3.3 2.9 0.4
v -3.2 2.9 0.4
v -3.1 2.9 0.4
v -3 2.9 0.4
v -3.3 2.9 0.3
v -3.2 2.9 0.3
v -3.1 2.9 0.3
v -3 2.9 0.3
v -3.2 3.1 0.3
v -3.1 3.1 0.3
v -3.2 3.1 0.2
v -3.1 3.1 0.2
v -3.2 3.2 0.4
v -3.1 3.2 0.4
v -3.2 3.2 0.3
v -3.1 3.2 0.3
v -3.2 3.5 0.5
v -3.1 3.5 0.5
v -3.3 3.5 0.4
v -3.2 3.5 0.4
v -3.1 3.5 0.4
v -3 3.5 0.4
v -3.3 3.5 0.3
v -3.2 3.5 0.3
v -3.1 3.5 0.3
v -3 3.5 0.3
v -3.2 3.9 0.4
v -3.1 3.9 0.4
v -3.3 3.9 0.3
v -3.2 3.9 0.3
v -3.1 3.9 0.3
v -3.3 3.9 0.2
v -3.2 3.9 0.2
v -3.1 4 0.3
v -3 4 0.3
v -3.1 4 0.2
v -3 4 0.2
v -3.2 4.2 0.3
v -3.1 4.2 0.3
v -3.3 4.2 0.2
v -3.2 4.2 0.2
v -3.1 4.2 0.2
v -3 4.2 0.2
v -3.3 4.2 0.1
v -3.2 4.2 0.1
v -3.1 4.2 0.1
v -3 4.2 0.1
v -3.2 4.4 0.2
v -3.1 4.4 0.2
v -3.3 4.4 0.1
v -3.2 4.4 0.1
v -3.1 4.4 0.1
v -3 4.4 0.1
v -3.3 4.4 0
v -3.2 4.4 0
v -3.1 4.4 0
v -3 4.4 0
v -3.2 4.5 0.1
v -3.1 4.5 0.1
v -3.3 4.5 0
v -3.2 4.5 0
v -3.1 4.5 0
v -3 4.5 0
v -3.3 4.5 -0.1
v -3.2 4.5 -0.1
v -3.1 4.5 -0.1
v -3 4.5 -0.1
v -3.2 4.6 0
v -3.1 4.6 0
v -3.3 4.6 -0.1
v -3.2 4.6 -0.1
v -3.1 4.6 -0.1
v -3 4.6 -0.1
v -3.3 4.6 -0.2
v -3.2 4.6 -0.2
v -3.1 4.6 -0.2
v -3 4.6 -0.2
v -3.2 4.7 -0.1
v -3.1 4.7 -0.1
v -3.3 4.7 -0.2
v -3.2 4.7 -0.2
v -3.1 4.7 -0.2
v -3 4.7 -0.2
v -3.3 4.7 -0.3
v -3.2 4.7 -0.3
v -3.1 4.7 -0.3
v -3 4.7 -0.3
v -3.2 4.8 -0.2
v -3.1 4.8 -0.2
v -3.3 4.8 -0.3
v -3.2 4.8 -0.3
v -3.1 4.8 -0.3
v -3 4.8 -0.3
v -3.3 4.8 -0.4
v -3.2 4.8 -0.4
v -3.1 4.8 -0.4
v -3 4.8 -0.4
v -3.2 4.8 -0.5
v -3.1 4.8 -0.5

# faces
f 4/2/1 2/2/1 1/2/1
f 5/2/1 2/2/1 4/2/1
f 7/2/1 4/2/1 3/2/1
f 8/2/1 4/2/1 7/2/1
f 10/2/1 7/2/1 6/2/1
f 11/2/1 7/2/1 10/2/1
f 13/2/1 10/2/1 9/2/1
f 14/2/1 10/2/1 13/2/1
f 16/2/1 13/2/1 12/2/1
f 17/2/1 13/2/1 16/2/1
f 19/2/1 16/2/1 15/2/1
f 20/2/1 16/2/1 19/2/1
f 22/2/1 19/2/1 18/2/1
f 23/2/1 19/2/1 22/2/1
f 24/2/1 22/2/1 21/2/1
f 25/2/1 22/2/1 24/2/1
f 26/3/1 25/3/1 24/3/1
f 27/3/1 25/3/1 26/3/1
f 30/3/1 29/3/1 28/3/1
f 31/3/1 29/3/1 30/3/1
f 32/2/1 31/2/1 30/2/1
f 33/2/1 31/2/1 32/2/1
f 35/2/1 34/2/1 33/2/1
f 36/2/1 34/2/1 35/2/1
f 38/2/1 37/2/1 36/2/1
f 39/2/1 37/2/1 38/2/1
f 41/2/1 40/2/1 39/2/1
f 42/2/1 40/2/1 41/2/1
f 44/2/1 43/2/1 42/2/1
f 45/2/1 43/2/1 44/2/1
f 47/2/1 46/2/1 45/2/1
f 48/2/1 46/2/1 47/2/1
f 50/2/1 49/2/1 48/2/1
f 51/2/1 49/2/1 50/2/1
f 53/2/1 52/2/1 51/2/1
f 54/2/1 52/2/1 53/2/1
f 60/1/1 56/1/1 55/1/1
f 61/1/1 56/1/1 60/1/1
f 62/2/1 58/2/1 57/2/1
f 63/2/1 58/2/1 62/2/1
f 65/1/1 60/1/1 59/1/1
f 66/1/1 60/1/1 65/1/1
f 67/7/1 62/7/1 61/7/1
f 69/1/1 65/1/1 64/1/1
f 70/1/1 65/1/1 69/1/1
f 72/1/1 69/1/1 68/1/1
f 73/1/1 69/1/1 72/1/1
f 75/1/1 72/1/1 71/1/1
f 76/1/1 72/1/1 75/1/1
f 78/1/1 75/1/1 74/1/1
f 79/1/1 75/1/1 78/1/1
f 80/7/1 62/7/1 67/7/1
f 81/7/1 62/7/1 80/7/1
f 83/1/1 78/1/1 77/1/1
f 84/1/1 78/1/1 83/1/1
f 85/6/1 81/6/1 80/6/1
f 86/6/1 81/6/1 85/6/1
f 87/1/1 83/1/1 82/1/1
f 88/1/1 83/1/1 87/1/1
f 89/4/1 88/4/1 87/4/1
f 90/4/1 88/4/1 89/4/1
f 94/4/1 91/4/1 90/4/1
f 95/3/1 92/3/1 91/3/1
f 95/4/1 91/4/1 94/4/1
f 96/3/1 92/3/1 95/3/1
f 97/4/1 94/4/1 93/4/1
f 98/4/1 94/4/1 97/4/1
f 99/1/1 98/1/1 97/1/1
f 100/1/1 98/1/1 99/1/1
f 102/5/1 86/5/1 85/5/1
f 103/5/1 86/5/1 102/5/1
f 104/1/1 101/1/1 100/1/1
f 105/1/1 101/1/1 104/1/1
f 107/6/1 103/6/1 102/6/1
f 108/6/1 103/6/1 107/6/1
f 109/1/1 106/1/1 105/1/1
f 110/1/1 106/1/1 109/1/1
f 112/1/1 111/1/1 110/1/1
f 113/1/1 111/1/1 112/1/1
f 115/1/1 114/1/1 113/1/1
f 116/1/1 114/1/1 115/1/1
f 118/1/1 117/1/1 116/1/1
f 119/1/1 117/1/1 118/1/1
f 121/7/1 108/7/1 107/7/1
f 122/1/1 120/1/1 119/1/1
f 123/1/1 120/1/1 122/1/1
f 124/7/1 108/7/1 121/7/1
f 125/7/1 108/7/1 124/7/1
f 127/1/1 124/1/1 123/1/1
f 128/1/1 124/1/1 127/1/1
f 129/2/1 126/2/1 125/2/1
f 130/2/1 126/2/1 129/2/1
f 134/2/1 132/2/1 131/2/1
f 135/2/1 132/2/1 134/2/1
f 137/2/1 134/2/1 133/2/1
f 138/2/1 134/2/1 137/2/1
f 140/2/1 137/2/1 136/2/1
f 141/2/1 137/2/1 140/2/1
f 142/2/1 140/2/1 139/2/1
f 143/2/1 140/2/1 142/2/1
f 147/2/1 145/2/1 144/2/1
f 148/2/1 145/2/1 147/2/1
f 149/2/1 147/2/1 146/2/1
f 150/2/1 147/2/1 149/2/1
f 153/2/1 152/2/1 151/2/1
f 154/2/1 152/2/1 153/2/1
f 157/2/1 156/2/1 155/2/1
f 158/2/1 156/2/1 157/2/1
f 161/2/1 160/2/1 159/2/1
f 162/2/1 160/2/1 161/2/1
f 165/2/1 164/2/1 163/2/1
f 166/2/1 164/2/1 165/2/1
f 169/2/1 168/2/1 167/2/1
f 170/2/1 168/2/1 169/2/1
f 171/2/2 172/2/2 174/2/2
f 174/2/2 172/2/2 175/2/2
f 173/2/2 174/2/2 177/2/2
f 177/2/2 174/2/2 178/2/2
f 176/2/2 177/2/2 180/2/2
f 180/2/2 177/2/2 181/2/2
f 179/2/2 180/2/2 182/2/2
f 182/2/2 180/2/2 183/2/2
f 184/2/2 185/2/2 187/2/2
f 187/2/2 185/2/2 188/2/2
f 186/2/2 187/2/2 189/2/2
f 189/2/2 187/2/2 190/2/2
f 191/2/2 192/2/2 193/2/2
f 193/2/2 192/2/2 194/2/2
f 195/2/2 196/2/2 197/2/2
f 197/2/2 196/2/2 198/2/2
f 199/2/2 200/2/2 201/2/2
f 201/2/2 200/2/2 202/2/2
f 202/2/2 203/2/2 204/2/2
f 204/2/2 203/2/2 205/2/2
f 206/2/2 207/2/2 208/2/2
f 208/2/2 207/2/2 209/2/2
f 210/1/2 211/1/2 215/1/2
f 215/1/2 211/1/2 216/1/2
f 212/2/2 213/2/2 217/2/2
f 217/2/2 213/2/2 218/2/2
f 214/1/2 215/1/2 220/1/2
f 220/1/2 215/1/2 221/1/2
f 216/7/2 217/7/2 222/7/2
f 219/1/2 220/1/2 224/1/2
f 224/1/2 220/1/2 225/1/2
f 223/1/2 224/1/2 227/1/2
f 227/1/2 224/1/2 228/1/2
f 226/1/2 227/1/2 230/1/2
f 230/1/2 227/1/2 231/1/2
f 229/1/2 230/1/2 233/1/2
f 233/1/2 230/1/2 234/1/2
f 222/7/2 217/7/2 235/7/2
f 235/7/2 217/7/2 236/7/2
f 232/1/2 233/1/2 238/1/2
f 238/1/2 233/1/2 239/1/2
f 235/6/2 236/6/2 240/6/2
f 240/6/2 236/6/2 241/6/2
f 237/1/2 238/1/2 242/1/2
f 242/1/2 238/1/2 243/1/2
f 242/4/2 243/4/2 244/4/2
f 244/4/2 243/4/2 245/4/2
f 245/4/2 246/4/2 249/4/2
f 246/3/2 247/3/2 250/3/2
f 249/4/2 246/4/2 250/4/2
f 250/3/2 247/3/2 251/3/2
f 248/4/2 249/4/2 252/4/2
f 252/4/2 249/4/2 253/4/2
f 252/1/2 253/1/2 254/1/2
f 254/1/2 253/1/2 255/1/2
f 240/5/2 241/5/2 257/5/2
f 257/5/2 241/5/2 258/5/2
f 255/1/2 256/1/2 259/1/2
f 259/1/2 256/1/2 260/1/2
f 257/6/2 258/6/2 263/6/2
f 263/6/2 258/6/2 264/6/2
f 261/1/2 262/1/2 265/1/2
f 265/1/2 262/1/2 266/1/2
f 266/1/2 267/1/2 268/1/2
f 268/1/2 267/1/2 269/1/2
f 269/1/2 270/1/2 271/1/2
f 271/1/2 270/1/2 272/1/2
f 272/1/2 273/1/2 274/1/2
f 274/1/2 273/1/2 275/1/2
f 263/7/2 264/7/2 277/7/2
f 275/1/2 276/1/2 278/1/2
f 278/1/2 276/1/2 279/1/2
f 277/7/2 264/7/2 280/7/2
f 280/7/2 264/7/2 281/7/2
f 279/1/2 280/1/2 283/1/2
f 283/1/2 280/1/2 284/1/2
f 281/2/2 282/2/2 285/2/2
f 285/2/2 282/2/2 286/2/2
f 287/2/2 288/2/2 290/2/2
f 290/2/2 288/2/2 291/2/2
f 289/2/2 290/2/2 293/2/2
f 293/2/2 290/2/2 294/2/2
f 292/2/2 293/2/2 296/2/2
f 296/2/2 293/2/2 297/2/2
f 295/2/2 296/2/2 299/2/2
f 299/2/2 296/2/2 300/2/2
f 298/2/2 299/2/2 302/2/2
f 302/2/2 299/2/2 303/2/2
f 301/2/2 302/2/2 305/2/2
f 305/2/2 302/2/2 306/2/2
f 304/2/2 305/2/2 308/2/2
f 308/2/2 305/2/2 309/2/2
f 307/2/2 308/2/2 310/2/2
f 310/2/2 308/2/2 311/2/2
f 310/3/2 311/3/2 312/3/2
f 312/3/2 311/3/2 313/3/2
f 314/3/2 315/3/2 316/3/2
f 316/3/2 315/3/2 317/3/2
f 316/2/2 317/2/2 318/2/2
f 318/2/2 317/2/2 319/2/2
f 319/2/2 320/2/2 321/2/2
f 321/2/2 320/2/2 322/2/2
f 322/2/2 323/2/2 324/2/2
f 324/2/2 323/2/2 325/2/2
f 325/2/2 326/2/2 327/2/2
f 327/2/2 326/2/2 328/2/2
f 328/2/2 329/2/2 330/2/2
f 330/2/2 329/2/2 331/2/2
f 331/2/2 332/2/2 333/2/2
f 333/2/2 332/2/2 334/2/2
f 334/2/2 335/2/2 336/2/2
f 336/2/2 335/2/2 337/2/2
f 337/2/2 338/2/2 339/2/2
f 339/2/2 338/2/2 340/2/2
f 347/1/3 342/1/3 341/1/3
f 348/4/3 343/4/3 342/4/3
f 348/1/3 342/1/3 347/1/3
f 349/4/3 343/4/3 348/4/3
f 350/4/3 345/4/3 344/4/3
f 351/1/3 346/1/3 345/1/3
f 351/4/3 345/4/3 350/4/3
f 352/1/3 346/1/3 351/1/3
f 360/2/3 354/2/3 353/2/3
f 361/3/3 355/3/3 354/3/3
f 361/2/3 354/2/3 360/2/3
f 362/3/3 355/3/3 361/3/3
f 363/3/3 357/3/3 356/3/3
f 364/2/3 358/2/3 357/2/3
f 364/3/3 357/3/3 363/3/3
f 365/2/3 358/2/3 364/2/3
f 367/1/3 360/1/3 359/1/3
f 368/1/3 360/1/3 367/1/3
f 370/4/3 363/4/3 362/4/3
f 371/4/3 363/4/3 370/4/3
f 373/1/3 366/1/3 365/1/3
f 374/1/3 366/1/3 373/1/3
f 375/2/3 369/2/3 368/2/3
f 376/3/3 370/3/3 369/3/3
f 376/2/3 369/2/3 375/2/3
f 377/3/3 370/3/3 376/3/3
f 378/3/3 372/3/3 371/3/3
f 379/2/3 373/2/3 372/2/3
f 379/3/3 372/3/3 378/3/3
f 380/2/3 373/2/3 379/2/3
f 386/2/3 382/2/3 381/2/3
f 387/2/3 382/2/3 386/2/3
f 388/2/3 384/2/3 383/2/3
f 389/2/3 384/2/3 388/2/3
f 391/1/3 386/1/3 385/1/3
f 392/1/3 386/1/3 391/1/3
f 395/1/3 390/1/3 389/1/3
f 396/1/3 390/1/3 395/1/3
f 397/1/3 390/1/3 396/1/3
f 398/2/3 393/2/3 392/2/3
f 399/2/3 393/2/3 398/2/3
f 400/2/3 396/2/3 395/2/3
f 400/2/3 395/2/3 394/2/3
f 401/2/3 396/2/3 400/2/3
f 407/2/3 403/2/3 402/2/3
f 408/2/3 403/2/3 407/2/3
f 409/2/3 405/2/3 404/2/3
f 410/2/3 405/2/3 409/2/3
f 412/1/3 407/1/3 406/1/3
f 413/1/3 407/1/3 412/1/3
f 416/1/3 411/1/3 410/1/3
f 417/1/3 411/1/3 416/1/3
f 418/2/3 414/2/3 413/2/3
f 419/2/3 414/2/3 418/2/3
f 420/2/3 416/2/3 415/2/3
f 421/2/3 416/2/3 420/2/3
f 427/2/3 423/2/3 422/2/3
f 428/2/3 423/2/3 427/2/3
f 429/2/3 425/2/3 424/2/3
f 430/2/3 425/2/3 429/2/3
f 432/1/3 427/1/3 426/1/3
f 433/1/3 427/1/3 432/1/3
f 436/1/3 431/1/3 430/1/3
f 437/1/3 431/1/3 436/1/3
f 438/2/3 434/2/3 433/2/3
f 439/2/3 434/2/3 438/2/3
f 440/2/3 436/2/3 435/2/3
f 441/2/3 436/2/3 440/2/3
f 447/2/3 443/2/3 442/2/3
f 448/2/3 443/2/3 447/2/3
f 449/2/3 445/2/3 444/2/3
f 450/2/3 445/2/3 449/2/3
f 452/1/3 447/1/3 446/1/3
f 453/1/3 447/1/3 452/1/3
f 456/1/3 451/1/3 450/1/3
f 457/1/3 451/1/3 456/1/3
f 458/2/3 454/2/3 453/2/3
f 459/2/3 454/2/3 458/2/3
f 460/2/3 456/2/3 455/2/3
f 461/2/3 456/2/3 460/2/3
f 467/2/3 463/2/3 462/2/3
f 468/2/3 463/2/3 467/2/3
f 469/2/3 465/2/3 464/2/3
f 470/2/3 465/2/3 469/2/3
f 472/1/3 467/1/3 466/1/3
f 473/1/3 467/1/3 472/1/3
f 476/1/3 471/1/3 470/1/3
f 477/1/3 471/1/3 476/1/3
f 478/2/3 474/2/3 473/2/3
f 479/2/3 474/2/3 478/2/3
f 480/2/3 476/2/3 475/2/3
f 481/2/3 476/2/3 480/2/3
f 487/2/3 483/2/3 482/2/3
f 488/2/3 483/2/3 487/2/3
f 489/2/3 485/2/3 484/2/3
f 490/2/3 485/2/3 489/2/3
f 492/1/3 487/1/3 486/1/3
f 493/1/3 487/1/3 492/1/3
f 496/1/3 491/1/3 490/1/3
f 497/1/3 491/1/3 496/1/3
f 498/2/3 494/2/3 493/2/3
f 499/2/3 494/2/3 498/2/3
f 500/2/3 496/2/3 495/2/3
f 501/2/3 496/2/3 500/2/3
f 506/2/3 503/2/3 502/2/3
f 507/2/3 503/2/3 506/2/3
f 514/2/3 505/2/3 504/2/3
f 515/2/3 505/2/3 514/2/3
f 517/7/3 508/7/3 507/7/3
f 517/7/3 509/7/3 508/7/3
f 518/7/3 509/7/3 517/7/3
f 519/6/3 510/6/3 509/6/3
f 519/7/3 509/7/3 518/7/3
f 520/5/3 511/5/3 510/5/3
f 520/6/3 510/6/3 519/6/3
f 521/6/3 512/6/3 511/6/3
f 521/5/3 511/5/3 520/5/3
f 522/7/3 513/7/3 512/7/3
f 522/6/3 512/6/3 521/6/3
f 523/7/3 513/7/3 522/7/3
f 526/2/3 517/2/3 516/2/3
f 527/2/3 517/2/3 526/2/3
f 528/2/3 525/2/3 524/2/3
f 529/2/3 525/2/3 528/2/3
f 530/1/4 531/1/4 534/1/4
f 534/1/4 531/1/4 535/1/4
f 532/1/4 533/1/4 536/1/4
f 536/1/4 533/1/4 537/1/4
f 538/2/4 539/2/4 545/2/4
f 545/2/4 539/2/4 546/2/4
f 539/3/4 540/3/4 547/3/4
f 546/2/4 539/2/4 547/2/4
f 547/3/4 540/3/4 548/3/4
f 541/3/4 542/3/4 549/3/4
f 542/2/4 543/2/4 550/2/4
f 549/3/4 542/3/4 550/3/4
f 550/2/4 543/2/4 551/2/4
f 551/2/4 543/2/4 552/2/4
f 545/1/4 546/1/4 554/1/4
f 544/1/4 545/1/4 554/1/4
f 554/1/4 546/1/4 555/1/4
f 555/1/4 546/1/4 556/1/4
f 547/3/4 548/3/4 557/3/4
f 557/3/4 548/3/4 558/3/4
f 549/3/4 550/3/4 559/3/4
f 559/3/4 550/3/4 560/3/4
f 552/1/4 553/1/4 561/1/4
f 551/1/4 552/1/4 561/1/4
f 561/1/4 553/1/4 562/1/4
f 562/1/4 553/1/4 563/1/4
f 555/2/4 556/2/4 564/2/4
f 556/2/4 557/2/4 564/2/4
f 557/3/4 558/3/4 565/3/4
f 564/2/4 557/2/4 565/2/4
f 565/3/4 558/3/4 566/3/4
f 559/3/4 560/3/4 567/3/4
f 561/2/4 562/2/4 568/2/4
f 567/3/4 560/3/4 568/3/4
f 560/2/4 561/2/4 568/2/4
f 568/2/4 562/2/4 569/2/4
f 570/2/4 571/2/4 575/2/4
f 575/2/4 571/2/4 576/2/4
f 572/2/4 573/2/4 579/2/4
f 579/2/4 573/2/4 580/2/4
f 574/1/4 575/1/4 582/1/4
f 582/1/4 575/1/4 583/1/4
f 577/3/4 578/3/4 585/3/4
f 585/3/4 578/3/4 586/3/4
f 580/1/4 581/1/4 588/1/4
f 588/1/4 581/1/4 589/1/4
f 589/1/4 581/1/4 590/1/4
f 583/2/4 584/2/4 591/2/4
f 591/2/4 584/2/4 592/2/4
f 588/2/4 589/2/4 593/2/4
f 587/2/4 588/2/4 593/2/4
f 593/2/4 589/2/4 594/2/4
f 595/2/4 596/2/4 600/2/4
f 600/2/4 596/2/4 601/2/4
f 601/2/4 596/2/4 602/2/4
f 597/2/4 598/2/4 603/2/4
f 603/2/4 598/2/4 604/2/4
f 604/2/4 598/2/4 605/2/4
f 599/1/4 600/1/4 607/1/4
f 600/1/4 601/1/4 607/1/4
f 607/1/4 601/1/4 608/1/4
f 608/1/4 601/1/4 609/1/4
f 605/1/4 606/1/4 612/1/4
f 604/1/4 605/1/4 612/1/4
f 612/1/4 606/1/4 613/1/4
f 613/1/4 606/1/4 614/1/4
f 609/2/4 610/2/4 615/2/4
f 608/2/4 609/2/4 615/2/4
f 615/2/4 610/2/4 616/2/4
f 612/2/4 613/2/4 617/2/4
f 611/2/4 612/2/4 617/2/4
f 617/2/4 613/2/4 618/2/4
f 619/2/4 620/2/4 624/2/4
f 624/2/4 620/2/4 625/2/4
f 621/2/4 622/2/4 626/2/4
f 626/2/4 622/2/4 627/2/4
f 627/2/4 622/2/4 628/2/4
f 623/1/4 624/1/4 629/1/4
f 629/1/4 624/1/4 630/1/4
f 627/1/4 628/1/4 633/1/4
f 633/1/4 628/1/4 634/1/4
f 630/2/4 631/2/4 635/2/4
f 635/2/4 631/2/4 636/2/4
f 633/2/4 634/2/4 637/2/4
f 632/2/4 633/2/4 637/2/4
f 637/2/4 634/2/4 638/2/4
f 639/2/4 640/2/4 644/2/4
f 644/2/4 640/2/4 645/2/4
f 641/2/4 642/2/4 646/2/4
f 646/2/4 642/2/4 647/2/4
f 643/1/4 644/1/4 648/1/4
f 648/1/4 644/1/4 649/1/4
f 646/1/4 647/1/4 651/1/4
f 651/1/4 647/1/4 652/1/4
f 649/2/4 650/2/4 653/2/4
f 653/2/4 650/2/4 654/2/4
f 651/2/4 652/2/4 655/2/4
f 655/2/4 652/2/4 656/2/4
f 657/2/4 658/2/4 662/2/4
f 662/2/4 658/2/4 663/2/4
f 659/2/4 660/2/4 664/2/4
f 664/2/4 660/2/4 665/2/4
f 661/1/4 662/1/4 666/1/4
f 666/1/4 662/1/4 667/1/4
f 664/1/4 665/1/4 669/1/4
f 669/1/4 665/1/4 670/1/4
f 667/2/4 668/2/4 671/2/4
f 671/2/4 668/2/4 672/2/4
f 669/2/4 670/2/4 673/2/4
f 673/2/4 670/2/4 674/2/4
f 675/2/4 676/2/4 679/2/4
f 679/2/4 676/2/4 680/2/4
f 677/2/4 678/2/4 681/2/4
f 681/2/4 678/2/4 682/2/4
f 683/2/4 684/2/4 687/2/4
f 687/2/4 684/2/4 688/2/4
f 685/2/4 686/2/4 689/2/4
f 689/2/4 686/2/4 690/2/4
f 691/2/4 692/2/4 695/2/4
f 695/2/4 692/2/4 696/2/4
f 693/2/4 694/2/4 701/2/4
f 701/2/4 694/2/4 702/2/4
f 696/7/4 697/7/4 704/7/4
f 697/6/4 698/6/4 705/6/4
f 704/7/4 697/7/4 705/7/4
f 698/5/4 699/5/4 706/5/4
f 705/6/4 698/6/4 706/6/4
f 699/6/4 700/6/4 707/6/4
f 706/5/4 699/5/4 707/5/4
f 700/7/4 701/7/4 708/7/4
f 707/6/4 700/6/4 708/6/4
f 708/7/4 701/7/4 709/7/4
f 703/2/4 704/2/4 711/2/4
f 711/2/4 704/2/4 712/2/4
f 709/2/4 710/2/4 713/2/4
f 713/2/4 710/2/4 714/2/4
f 715/2/4 716/2/4 719/2/4
f 719/2/4 716/2/4 720/2/4
f 717/2/4 718/2/4 721/2/4
f 721/2/4 718/2/4 722/2/4
f 726/1/5 724/1/5 723/1/5
f 727/1/5 724/1/5 726/1/5
f 729/2/5 726/2/5 725/2/5
f 729/2/5 728/2/5 727/2/5
f 729/2/5 727/2/5 726/2/5
f 730/2/5 728/2/5 729/2/5
f 731/2/5 728/2/5 730/2/5
f 732/2/5 728/2/5 731/2/5
f 733/2/5 731/2/5 730/2/5
f 734/2/5 731/2/5 733/2/5
f 738/1/5 736/1/5 735/1/5
f 739/1/5 736/1/5 738/1/5
f 741/2/5 738/2/5 737/2/5
f 742/2/5 738/2/5 741/2/5
f 743/2/5 740/2/5 739/2/5
f 744/2/5 740/2/5 743/2/5
f 748/1/5 746/1/5 745/1/5
f 749/1/5 746/1/5 748/1/5
f 751/2/5 748/2/5 747/2/5
f 752/2/5 748/2/5 751/2/5
f 753/2/5 750/2/5 749/2/5
f 754/2/5 750/2/5 753/2/5
f 758/1/5 756/1/5 755/1/5
f 759/1/5 756/1/5 758/1/5
f 761/2/5 758/2/5 757/2/5
f 762/2/5 758/2/5 761/2/5
f 763/2/5 760/2/5 759/2/5
f 764/2/5 760/2/5 763/2/5
f 768/1/5 766/1/5 765/1/5
f 769/1/5 766/1/5 768/1/5
f 771/2/5 768/2/5 767/2/5
f 772/2/5 768/2/5 771/2/5
f 773/2/5 770/2/5 769/2/5
f 774/2/5 770/2/5 773/2/5
f 778/1/5 776/1/5 775/1/5
f 779/1/5 776/1/5 778/1/5
f 781/2/5 778/2/5 777/2/5
f 782/2/5 778/2/5 781/2/5
f 783/2/5 780/2/5 779/2/5
f 784/2/5 780/2/5 783/2/5
f 788/1/5 786/1/5 785/1/5
f 789/1/5 786/1/5 788/1/5
f 791/2/5 788/2/5 787/2/5
f 792/2/5 788/2/5 791/2/5
f 793/2/5 790/2/5 789/2/5
f 794/2/5 790/2/5 793/2/5
f 798/1/5 796/1/5 795/1/5
f 799/1/5 796/1/5 798/1/5
f 801/2/5 798/2/5 797/2/5
f 802/2/5 798/2/5 801/2/5
f 803/2/5 800/2/5 799/2/5
f 804/2/5 800/2/5 803/2/5
f 807/3/5 806/3/5 805/3/5
f 808/3/5 806/3/5 807/3/5
f 811/3/5 810/3/5 809/3/5
f 812/3/5 810/3/5 811/3/5
f 816/4/5 814/4/5 813/4/5
f 817/4/5 814/4/5 816/4/5
f 819/3/5 816/3/5 815/3/5
f 820/3/5 816/3/5 819/3/5
f 821/3/5 818/3/5 817/3/5
f 822/3/5 818/3/5 821/3/5
f 825/1/5 824/1/5 823/1/5
f 826/1/5 824/1/5 825/1/5
f 831/2/5 828/2/5 827/2/5
f 832/2/5 828/2/5 831/2/5
f 833/2/5 830/2/5 829/2/5
f 834/2/5 830/2/5 833/2/5
f 838/1/5 836/1/5 835/1/5
f 839/1/5 836/1/5 838/1/5
f 840/2/5 838/2/5 837/2/5
f 841/2/5 838/2/5 840/2/5
f 844/2/5 843/2/5 842/2/5
f 845/2/5 843/2/5 844/2/5
f 848/1/5 847/1/5 846/1/5
f 849/1/5 847/1/5 848/1/5
f 854/2/5 851/2/5 850/2/5
f 855/2/5 851/2/5 854/2/5
f 856/2/5 853/2/5 852/2/5
f 857/2/5 853/2/5 856/2/5
f 860/1/5 859/1/5 858/1/5
f 861/1/5 859/1/5 860/1/5
f 866/2/5 863/2/5 862/2/5
f 867/1/5 864/1/5 863/1/5
f 867/2/5 863/2/5 866/2/5
f 868/2/5 865/2/5 864/2/5
f 868/1/5 864/1/5 867/1/5
f 869/2/5 865/2/5 868/2/5
f 874/2/5 871/2/5 870/2/5
f 875/1/5 872/1/5 871/1/5
f 875/2/5 871/2/5 874/2/5
f 876/2/5 873/2/5 872/2/5
f 876/1/5 872/1/5 875/1/5
f 877/2/5 873/2/5 876/2/5
f 882/2/5 879/2/5 878/2/5
f 883/1/5 880/1/5 879/1/5
f 883/2/5 879/2/5 882/2/5
f 884/2/5 881/2/5 880/2/5
f 884/1/5 880/1/5 883/1/5
f 885/2/5 881/2/5 884/2/5
f 890/2/5 887/2/5 886/2/5
f 891/2/5 887/2/5 890/2/5
f 892/2/5 889/2/5 888/2/5
f 893/2/5 889/2/5 892/2/5
f 894/2/5 892/2/5 891/2/5
f 895/2/5 892/2/5 894/2/5
f 896/1/6 897/1/6 899/1/6
f 899/1/6 897/1/6 900/1/6
f 898/2/6 899/2/6 902/2/6
f 902/2/6 899/2/6 903/2/6
f 900/2/6 901/2/6 904/2/6
f 904/2/6 901/2/6 905/2/6
f 903/2/6 904/2/6 906/2/6
f 906/2/6 904/2/6 907/2/6
f 908/1/6 909/1/6 911/1/6
f 911/1/6 909/1/6 912/1/6
f 910/2/6 911/2/6 914/2/6
f 914/2/6 911/2/6 915/2/6
f 912/2/6 913/2/6 916/2/6
f 916/2/6 913/2/6 917/2/6
f 918/1/6 919/1/6 921/1/6
f 921/1/6 919/1/6 922/1/6
f 920/2/6 921/2/6 924/2/6
f 924/2/6 921/2/6 925/2/6
f 922/2/6 923/2/6 926/2/6
f 926/2/6 923/2/6 927/2/6
f 928/1/6 929/1/6 931/1/6
f 931/1/6 929/1/6 932/1/6
f 930/2/6 931/2/6 934/2/6
f 934/2/6 931/2/6 935/2/6
f 932/2/6 933/2/6 936/2/6
f 936/2/6 933/2/6 937/2/6
f 938/2/6 939/2/6 942/2/6
f 942/2/6 939/2/6 943/2/6
f 940/2/6 941/2/6 944/2/6
f 944/2/6 941/2/6 945/2/6
f 946/1/6 947/1/6 948/1/6
f 948/1/6 947/1/6 949/1/6
f 950/1/6 951/1/6 953/1/6
f 953/1/6 951/1/6 954/1/6
f 952/2/6 953/2/6 956/2/6
f 956/2/6 953/2/6 957/2/6
f 954/2/6 955/2/6 958/2/6
f 958/2/6 955/2/6 959/2/6
f 960/2/6 961/2/6 964/2/6
f 964/2/6 961/2/6 965/2/6
f 962/2/6 963/2/6 966/2/6
f 966/2/6 963/2/6 967/2/6
f 968/1/6 969/1/6 970/1/6
f 970/1/6 969/1/6 971/1/6
f 972/4/6 973/4/6 975/4/6
f 975/4/6 973/4/6 976/4/6
f 974/3/6 975/3/6 978/3/6
f 978/3/6 975/3/6 979/3/6
f 976/3/6 977/3/6 980/3/6
f 980/3/6 977/3/6 981/3/6
f 982/3/6 983/3/6 984/3/6
f 984/3/6 983/3/6 985/3/6
f 986/3/6 987/3/6 988/3/6
f 988/3/6 987/3/6 989/3/6
f 990/1/6 991/1/6 993/1/6
f 993/1/6 991/1/6 994/1/6
f 992/2/6 993/2/6 996/2/6
f 996/2/6 993/2/6 997/2/6
f 994/2/6 995/2/6 998/2/6
f 998/2/6 995/2/6 999/2/6
f 1000/1/6 1001/1/6 1003/1/6
f 1003/1/6 1001/1/6 1004/1/6
f 1002/2/6 1003/2/6 1005/2/6
f 1005/2/6 1003/2/6 1006/2/6
f 1007/2/6 1008/2/6 1009/2/6
f 1009/2/6 1008/2/6 1010/2/6
f 1011/1/6 1012/1/6 1014/1/6
f 1014/1/6 1012/1/6 1015/1/6
f 1013/2/6 1014/2/6 1017/2/6
f 1017/2/6 1014/2/6 1018/2/6
f 1015/2/6 1016/2/6 1019/2/6
f 1019/2/6 1016/2/6 1020/2/6
f 1021/1/6 1022/1/6 1024/1/6
f 1024/1/6 1022/1/6 1025/1/6
f 1023/2/6 1024/2/6 1027/2/6
f 1027/2/6 1024/2/6 1028/2/6
f 1025/2/6 1026/2/6 1029/2/6
f 1029/2/6 1026/2/6 1030/2/6
f 1031/1/6 1032/1/6 1034/1/6
f 1034/1/6 1032/1/6 1035/1/6
f 1033/2/6 1034/2/6 1037/2/6
f 1037/2/6 1034/2/6 1038/2/6
f 1035/2/6 1036/2/6 1039/2/6
f 1039/2/6 1036/2/6 1040/2/6
f 1041/1/6 1042/1/6 1044/1/6
f 1044/1/6 1042/1/6 1045/1/6
f 1043/2/6 1044/2/6 1047/2/6
f 1047/2/6 1044/2/6 1048/2/6
f 1045/2/6 1046/2/6 1049/2/6
f 1049/2/6 1046/2/6 1050/2/6
f 1051/1/6 1052/1/6 1054/1/6
f 1054/1/6 1052/1/6 1055/1/6
f 1053/2/6 1054/2/6 1057/2/6
f 1057/2/6 1054/2/6 1058/2/6
f 1055/2/6 1056/2/6 1059/2/6
f 1059/2/6 1056/2/6 1060/2/6
f 1061/1/6 1062/1/6 1064/1/6
f 1064/1/6 1062/1/6 1065/1/6
f 1063/2/6 1064/2/6 1067/2/6
f 1064/1/6 1065/1/6 1068/1/6
f 1067/2/6 1064/2/6 1068/2/6
f 1065/2/6 1066/2/6 1069/2/6
f 1068/1/6 1065/1/6 1069/1/6
f 1069/2/6 1066/2/6 1070/2/6
f 1068/2/6 1069/2/6 1071/2/6
f 1071/2/6 1069/2/6 1072/2/6
