# MagicaVoxel @ Ephtracy

# group
o 

# material
mtllib weapon_axe.mtl
usemtl palette

# normals
vn -1 0 0
vn 1 0 0
vn 0 0 1
vn 0 0 -1
vn 0 -1 0
vn 0 1 0

# texcoords
vt 0.0332031 0.5
vt 0.0644531 0.5
vt 0.0722656 0.5
vt 0.0761719 0.5
vt 0.177734 0.5
vt 0.962891 0.5
vt 0.966797 0.5
vt 0.970703 0.5
vt 0.974609 0.5

# verts
v -1.3 4.4 0.1
v -1.3 4.4 0
v -1.3 5.2 0.1
v -1.3 5.2 0
v -1.2 4.2 0.1
v -1.2 4.2 0
v -1.2 4.4 0.1
v -1.2 4.4 0
v -1.2 4.5 0.2
v -1.2 4.5 0.1
v -1.2 4.5 0
v -1.2 4.5 -0.1
v -1.2 5.1 0.2
v -1.2 5.1 0.1
v -1.2 5.1 0
v -1.2 5.1 -0.1
v -1.2 5.2 0.1
v -1.2 5.2 0
v -1.2 5.4 0.1
v -1.2 5.4 0
v -1.1 4 0.1
v -1.1 4 0
v -1.1 4.2 0.1
v -1.1 4.2 0
v -1.1 4.3 0.2
v -1.1 4.3 0.1
v -1.1 4.3 0
v -1.1 4.3 -0.1
v -1.1 4.5 0.2
v -1.1 4.5 0.1
v -1.1 4.5 0
v -1.1 4.5 -0.1
v -1.1 5.1 0.2
v -1.1 5.1 0.1
v -1.1 5.1 0
v -1.1 5.1 -0.1
v -1.1 5.3 0.2
v -1.1 5.3 0.1
v -1.1 5.3 0
v -1.1 5.3 -0.1
v -1.1 5.4 0.1
v -1.1 5.4 0
v -1.1 5.6 0.1
v -1.1 5.6 0
v -1 3.9 0.1
v -1 3.9 0
v -1 4 0.1
v -1 4 0
v -1 4.1 0.2
v -1 4.1 0.1
v -1 4.1 0
v -1 4.1 -0.1
v -1 4.3 0.2
v -1 4.3 0.1
v -1 4.3 0
v -1 4.3 -0.1
v -1 5.3 0.2
v -1 5.3 0.1
v -1 5.3 0
v -1 5.3 -0.1
v -1 5.5 0.2
v -1 5.5 0.1
v -1 5.5 0
v -1 5.5 -0.1
v -1 5.6 0.1
v -1 5.6 0
v -1 5.7 0.1
v -1 5.7 0
v -0.9 3.8 0.1
v -0.9 3.8 0
v -0.9 3.9 0.1
v -0.9 3.9 0
v -0.9 4 0.2
v -0.9 4 0.1
v -0.9 4 0
v -0.9 4 -0.1
v -0.9 4.1 0.2
v -0.9 4.1 0.1
v -0.9 4.1 0
v -0.9 4.1 -0.1
v -0.9 5.5 0.2
v -0.9 5.5 0.1
v -0.9 5.5 0
v -0.9 5.5 -0.1
v -0.9 5.6 0.2
v -0.9 5.6 0.1
v -0.9 5.6 0
v -0.9 5.6 -0.1
v -0.9 5.7 0.1
v -0.9 5.7 0
v -0.9 5.8 0.1
v -0.9 5.8 0
v -0.8 3.7 0.1
v -0.8 3.7 0
v -0.8 3.8 0.1
v -0.8 3.8 0
v -0.8 3.9 0.2
v -0.8 3.9 0.1
v -0.8 3.9 0
v -0.8 3.9 -0.1
v -0.8 4 0.2
v -0.8 4 0.1
v -0.8 4 0
v -0.8 4 -0.1
v -0.8 5.6 0.2
v -0.8 5.6 0.1
v -0.8 5.6 0
v -0.8 5.6 -0.1
v -0.8 5.7 0.2
v -0.8 5.7 0.1
v -0.8 5.7 0
v -0.8 5.7 -0.1
v -0.8 5.8 0.1
v -0.8 5.8 0
v -0.8 5.9 0.1
v -0.8 5.9 0
v -1.19209e-07 1.4 0.1
v -1.19209e-07 1.4 0
v -1.19209e-07 1.5 0.1
v -1.19209e-07 1.5 0
v 0.0999999 0.8 0.1
v 0.0999999 0.8 0
v 0.0999999 0.9 0.2
v 0.0999999 0.9 0.1
v 0.0999999 0.9 0
v 0.0999999 0.9 -0.1
v 0.0999999 1 0.2
v 0.0999999 1 -0.1
v 0.0999999 1.3 0.2
v 0.0999999 1.3 -0.1
v 0.0999999 1.4 0.2
v 0.0999999 1.4 0.1
v 0.0999999 1.4 0
v 0.0999999 1.4 -0.1
v 0.0999999 1.5 0.2
v 0.0999999 1.5 0.1
v 0.0999999 1.5 0
v 0.0999999 1.5 -0.1
v 0.0999999 1.6 0.1
v 0.0999999 1.6 0
v 0.0999999 2 0.1
v 0.0999999 2 0
v 0.0999999 3.2 0.1
v 0.0999999 3.2 0
v 0.0999999 4 0.1
v 0.0999999 4 0
v 0.2 0.7 0.1
v 0.2 0.7 0
v 0.2 0.8 0.2
v 0.2 0.8 0.1
v 0.2 0.8 0
v 0.2 0.8 -0.1
v 0.2 0.9 0.3
v 0.2 0.9 0.2
v 0.2 0.9 0.1
v 0.2 0.9 0
v 0.2 0.9 -0.1
v 0.2 0.9 -0.2
v 0.2 1 0.3
v 0.2 1 0.2
v 0.2 1 0.1
v 0.2 1 -0.1
v 0.2 1 -0.2
v 0.2 1.3 0.3
v 0.2 1.3 0.2
v 0.2 1.3 0.1
v 0.2 1.3 -0.1
v 0.2 1.3 -0.2
v 0.2 1.4 0.3
v 0.2 1.4 0.2
v 0.2 1.4 -0.1
v 0.2 1.4 -0.2
v 0.2 1.5 0.3
v 0.2 1.5 0.2
v 0.2 1.5 0.1
v 0.2 1.5 0
v 0.2 1.5 -0.1
v 0.2 1.5 -0.2
v 0.2 1.6 0.2
v 0.2 1.6 0.1
v 0.2 1.6 0
v 0.2 1.6 -0.1
v 0.2 2 0.2
v 0.2 2 0.1
v 0.2 2 0
v 0.2 2 -0.1
v 0.2 2.2 0.2
v 0.2 2.2 0.1
v 0.2 2.4 0
v 0.2 2.4 -0.1
v 0.2 3.1 0.2
v 0.2 3.1 0.1
v 0.2 3.1 0
v 0.2 3.1 -0.1
v 0.2 3.2 0.1
v 0.2 3.2 0
v 0.2 3.9 0
v 0.2 3.9 -0.1
v 0.2 4 0.2
v 0.2 4 0.1
v 0.2 4 0
v 0.2 4.2 0.2
v 0.2 4.2 0.1
v 0.2 4.2 0
v 0.2 4.2 -0.1
v 0.2 4.3 0.1
v 0.2 4.3 0
v 0.2 4.5 0.2
v 0.2 4.5 0.1
v 0.2 4.5 0
v 0.2 4.5 -0.1
v 0.2 4.6 0.2
v 0.2 4.6 0.1
v 0.2 4.6 0
v 0.2 4.6 -0.1
v 0.2 4.7 0.2
v 0.2 4.7 0.1
v 0.2 4.7 0
v 0.2 4.7 -0.1
v 0.2 4.9 0.2
v 0.2 4.9 0.1
v 0.2 4.9 0
v 0.2 4.9 -0.1
v 0.2 5 0.2
v 0.2 5 0.1
v 0.2 5 0
v 0.2 5 -0.1
v 0.2 5.1 0.2
v 0.2 5.1 0.1
v 0.2 5.1 0
v 0.2 5.1 -0.1
v 0.2 5.2 0.1
v 0.2 5.2 0
v 0.3 1 0.2
v 0.3 1 0.1
v 0.3 1.3 0.2
v 0.3 1.3 0.1
v 0.3 2.2 0.2
v 0.3 2.2 0.1
v 0.3 2.4 0.2
v 0.3 2.4 0.1
v 0.3 2.4 0
v 0.3 2.4 -0.1
v 0.3 2.9 0.2
v 0.3 2.9 0.1
v 0.3 3.1 0.2
v 0.3 3.1 0.1
v 0.3 3.1 0
v 0.3 3.1 -0.1
v 0.3 4.2 0.2
v 0.3 4.2 0.1
v 0.3 4.2 0
v 0.3 4.2 -0.1
v 0.3 4.3 0.2
v 0.3 4.3 0.1
v 0.3 4.3 0
v 0.3 4.4 0.2
v 0.3 4.4 0.1
v 0.3 4.4 0
v 0.3 4.4 -0.1
v 0.5 4.4 0.1
v 0.5 4.4 0
v 0.5 4.5 0.2
v 0.5 4.5 0.1
v 0.5 4.5 0
v 0.5 4.6 0.1
v 0.5 4.6 0
v 0.5 4.6 -0.1
v 0.5 4.7 0.2
v 0.5 4.7 0.1
v 0.5 4.7 0
v 0.5 4.7 -0.1
v 0.5 4.9 0.2
v 0.5 4.9 0.1
v 0.5 4.9 0
v 0.5 4.9 -0.1
v 0.5 5 0.1
v 0.5 5 0
v 0.5 5 -0.1
v 0.5 5.1 0.2
v 0.5 5.1 0.1
v 0.5 5.1 0
v 0.5 5.2 0.1
v 0.5 5.2 0
v 0.6 4.3 0.1
v 0.6 4.3 0
v 0.6 4.4 0.1
v 0.6 4.4 0
v 0.6 5.2 0.1
v 0.6 5.2 0
v 0.6 5.3 0.1
v 0.6 5.3 0
v -0.7 3.7 0.1
v -0.7 3.7 0
v -0.7 3.9 0.2
v -0.7 3.9 0.1
v -0.7 3.9 0
v -0.7 3.9 -0.1
v -0.7 4.1 0.2
v -0.7 4.1 0.1
v -0.7 4.1 0
v -0.7 4.1 -0.1
v -0.7 5.5 0.2
v -0.7 5.5 0.1
v -0.7 5.5 0
v -0.7 5.5 -0.1
v -0.7 5.7 0.2
v -0.7 5.7 0.1
v -0.7 5.7 0
v -0.7 5.7 -0.1
v -0.7 5.9 0.1
v -0.7 5.9 0
v -0.6 3.9 0.1
v -0.6 3.9 0
v -0.6 4.1 0.2
v -0.6 4.1 0.1
v -0.6 4.1 0
v -0.6 4.1 -0.1
v -0.6 4.2 0.2
v -0.6 4.2 0.1
v -0.6 4.2 0
v -0.6 4.2 -0.1
v -0.6 5.4 0.2
v -0.6 5.4 0.1
v -0.6 5.4 0
v -0.6 5.4 -0.1
v -0.6 5.5 0.2
v -0.6 5.5 0.1
v -0.6 5.5 0
v -0.6 5.5 -0.1
v -0.6 5.7 0.1
v -0.6 5.7 0
v -0.5 4.1 0.1
v -0.5 4.1 0
v -0.5 4.2 0.2
v -0.5 4.2 0.1
v -0.5 4.2 0
v -0.5 4.2 -0.1
v -0.5 4.3 0.2
v -0.5 4.3 0.1
v -0.5 4.3 0
v -0.5 4.3 -0.1
v -0.5 5.3 0.2
v -0.5 5.3 0.1
v -0.5 5.3 0
v -0.5 5.3 -0.1
v -0.5 5.4 0.2
v -0.5 5.4 0.1
v -0.5 5.4 0
v -0.5 5.4 -0.1
v -0.5 5.5 0.1
v -0.5 5.5 0
v -0.3 4.2 0.1
v -0.3 4.2 0
v -0.3 4.3 0.2
v -0.3 4.3 0.1
v -0.3 4.3 0
v -0.3 4.3 -0.1
v -0.3 4.4 0.2
v -0.3 4.4 0.1
v -0.3 4.4 0
v -0.3 4.4 -0.1
v -0.3 5.2 0.2
v -0.3 5.2 0.1
v -0.3 5.2 0
v -0.3 5.2 -0.1
v -0.3 5.3 0.2
v -0.3 5.3 0.1
v -0.3 5.3 0
v -0.3 5.3 -0.1
v -0.3 5.4 0.1
v -0.3 5.4 0
v -0.1 4.3 0.1
v -0.1 4.3 0
v -0.1 4.4 0.2
v -0.1 4.4 0.1
v -0.1 4.4 0
v -0.1 4.4 -0.1
v -0.1 4.5 0.2
v -0.1 4.5 0.1
v -0.1 4.5 0
v -0.1 4.5 -0.1
v -0.1 5.1 0.2
v -0.1 5.1 0.1
v -0.1 5.1 0
v -0.1 5.1 -0.1
v -0.1 5.2 0.2
v -0.1 5.2 0.1
v -0.1 5.2 0
v -0.1 5.2 -0.1
v -0.1 5.3 0.1
v -0.1 5.3 0
v -1.19209e-07 4.5 0.2
v -1.19209e-07 4.5 0.1
v -1.19209e-07 4.5 0
v -1.19209e-07 4.5 -0.1
v -1.19209e-07 4.6 0.2
v -1.19209e-07 4.6 0.1
v -1.19209e-07 4.6 0
v -1.19209e-07 4.6 -0.1
v -1.19209e-07 5 0.2
v -1.19209e-07 5 0.1
v -1.19209e-07 5 0
v -1.19209e-07 5 -0.1
v -1.19209e-07 5.1 0.2
v -1.19209e-07 5.1 0.1
v -1.19209e-07 5.1 0
v -1.19209e-07 5.1 -0.1
v 0.0999999 4.4 0.1
v 0.0999999 4.4 0
v 0.0999999 4.5 0.1
v 0.0999999 4.5 0
v 0.0999999 4.6 0.2
v 0.0999999 4.6 0.1
v 0.0999999 4.6 0
v 0.0999999 4.6 -0.1
v 0.0999999 4.7 0.2
v 0.0999999 4.7 0.1
v 0.0999999 4.7 0
v 0.0999999 4.7 -0.1
v 0.0999999 4.9 0.2
v 0.0999999 4.9 0.1
v 0.0999999 4.9 0
v 0.0999999 4.9 -0.1
v 0.0999999 5 0.2
v 0.0999999 5 0.1
v 0.0999999 5 0
v 0.0999999 5 -0.1
v 0.0999999 5.1 0.1
v 0.0999999 5.1 0
v 0.0999999 5.2 0.1
v 0.0999999 5.2 0
v 0.3 1 0
v 0.3 1 -0.1
v 0.3 1.3 0
v 0.3 1.3 -0.1
v 0.3 3.1 0.2
v 0.3 3.1 0.1
v 0.3 3.1 0
v 0.3 3.1 -0.1
v 0.3 3.8 0.2
v 0.3 3.8 0.1
v 0.3 3.8 0
v 0.3 3.8 -0.1
v 0.4 0.7 0.1
v 0.4 0.7 0
v 0.4 0.8 0.2
v 0.4 0.8 0.1
v 0.4 0.8 0
v 0.4 0.8 -0.1
v 0.4 0.9 0.3
v 0.4 0.9 0.2
v 0.4 0.9 0.1
v 0.4 0.9 0
v 0.4 0.9 -0.1
v 0.4 0.9 -0.2
v 0.4 1 0.3
v 0.4 1 0.2
v 0.4 1 0
v 0.4 1 -0.1
v 0.4 1 -0.2
v 0.4 1.3 0.3
v 0.4 1.3 0.2
v 0.4 1.3 0.1
v 0.4 1.3 0
v 0.4 1.3 -0.2
v 0.4 1.4 0.3
v 0.4 1.4 0.2
v 0.4 1.4 0.1
v 0.4 1.4 0
v 0.4 1.4 -0.1
v 0.4 1.4 -0.2
v 0.4 1.5 0.3
v 0.4 1.5 0.2
v 0.4 1.5 0.1
v 0.4 1.5 0
v 0.4 1.5 -0.1
v 0.4 1.5 -0.2
v 0.4 1.6 0.2
v 0.4 1.6 0.1
v 0.4 1.6 0
v 0.4 1.6 -0.1
v 0.4 1.8 0.1
v 0.4 1.8 0
v 0.4 1.9 0.2
v 0.4 1.9 0.1
v 0.4 2.1 0.1
v 0.4 2.1 0
v 0.4 2.2 0.2
v 0.4 2.2 0.1
v 0.4 2.3 0.1
v 0.4 2.3 0
v 0.4 2.4 0.2
v 0.4 2.4 0.1
v 0.4 2.9 0.2
v 0.4 2.9 0.1
v 0.4 2.9 0
v 0.4 3.1 0.2
v 0.4 3.1 0.1
v 0.4 3.1 0
v 0.4 3.1 -0.1
v 0.4 3.8 0.2
v 0.4 3.8 0.1
v 0.4 3.8 0
v 0.4 3.8 -0.1
v 0.4 3.9 0.2
v 0.4 3.9 0.1
v 0.4 3.9 0
v 0.4 4.2 0.1
v 0.4 4.2 0
v 0.4 4.3 0.2
v 0.4 4.3 0.1
v 0.4 4.4 0.2
v 0.4 4.4 0.1
v 0.4 4.4 0
v 0.4 4.4 -0.1
v 0.4 4.5 0.2
v 0.4 4.5 0.1
v 0.4 4.5 0
v 0.4 4.5 -0.1
v 0.4 4.6 0.2
v 0.4 4.6 0.1
v 0.4 4.6 0
v 0.4 4.6 -0.1
v 0.4 4.7 0.2
v 0.4 4.7 0.1
v 0.4 4.7 0
v 0.4 4.7 -0.1
v 0.4 4.9 0.2
v 0.4 4.9 0.1
v 0.4 4.9 0
v 0.4 4.9 -0.1
v 0.4 5 0.2
v 0.4 5 0.1
v 0.4 5 0
v 0.4 5 -0.1
v 0.4 5.1 0.2
v 0.4 5.1 0.1
v 0.4 5.1 0
v 0.4 5.1 -0.1
v 0.4 5.2 0.1
v 0.4 5.2 0
v 0.5 0.8 0.1
v 0.5 0.8 0
v 0.5 0.9 0.2
v 0.5 0.9 0.1
v 0.5 0.9 0
v 0.5 0.9 -0.1
v 0.5 1 0.2
v 0.5 1 -0.1
v 0.5 1.3 0.1
v 0.5 1.3 0
v 0.5 1.4 0.2
v 0.5 1.4 0.1
v 0.5 1.4 0
v 0.5 1.4 -0.1
v 0.5 1.5 0.2
v 0.5 1.5 0.1
v 0.5 1.5 0
v 0.5 1.5 -0.1
v 0.5 1.6 0.1
v 0.5 1.6 0
v 0.5 1.8 0.1
v 0.5 1.8 0
v 0.5 2.1 0.1
v 0.5 2.1 0
v 0.5 2.3 0.1
v 0.5 2.3 0
v 0.5 2.9 0.1
v 0.5 2.9 0
v 0.5 3.8 0.1
v 0.5 3.8 0
v 0.5 3.9 0.1
v 0.5 3.9 0
v 0.5 4.2 0.1
v 0.5 4.2 0
v 0.5 4.4 0.1
v 0.5 4.4 0
v 0.6 1.4 0.1
v 0.6 1.4 0
v 0.6 1.5 0.1
v 0.6 1.5 0
v 0.7 4.3 0.1
v 0.7 4.3 0
v 0.7 4.5 0.2
v 0.7 4.5 0.1
v 0.7 4.5 0
v 0.7 4.6 0.2
v 0.7 4.6 0.1
v 0.7 4.6 0
v 0.7 4.6 -0.1
v 0.7 5 0.2
v 0.7 5 0.1
v 0.7 5 0
v 0.7 5 -0.1
v 0.7 5.1 0.2
v 0.7 5.1 0.1
v 0.7 5.2 0.1
v 0.7 5.2 0
v 0.7 5.3 0.1
v 0.7 5.3 0
v 0.8 4.5 0.1
v 0.8 4.5 0
v 0.8 4.6 0.2
v 0.8 4.6 0.1
v 0.8 4.6 0
v 0.8 5 0.2
v 0.8 5 0.1
v 0.8 5 0
v 0.8 5.2 0.1
v 0.8 5.2 0
v 0.9 4.6 0.1
v 0.9 4.6 0
v 0.9 5 0.1
v 0.9 5 0
v 0.2 0.9 0.3
v 0.2 1 0.3
v 0.2 1.3 0.3
v 0.2 1.4 0.3
v 0.2 1.5 0.3
v 0.4 0.9 0.3
v 0.4 1 0.3
v 0.4 1.3 0.3
v 0.4 1.4 0.3
v 0.4 1.5 0.3
v -1.2 4.5 0.2
v -1.2 5.1 0.2
v -1.1 4.3 0.2
v -1.1 4.5 0.2
v -1.1 5.1 0.2
v -1.1 5.3 0.2
v -1 4.1 0.2
v -1 4.3 0.2
v -1 4.6 0.2
v -1 5 0.2
v -1 5.3 0.2
v -1 5.5 0.2
v -0.9 4 0.2
v -0.9 4.1 0.2
v -0.9 4.3 0.2
v -0.9 4.6 0.2
v -0.9 5 0.2
v -0.9 5.3 0.2
v -0.9 5.5 0.2
v -0.9 5.6 0.2
v -0.8 3.9 0.2
v -0.8 4 0.2
v -0.8 4.1 0.2
v -0.8 4.3 0.2
v -0.8 5.3 0.2
v -0.8 5.5 0.2
v -0.8 5.6 0.2
v -0.8 5.7 0.2
v -0.7 3.9 0.2
v -0.7 4.1 0.2
v -0.7 4.2 0.2
v -0.7 5.4 0.2
v -0.7 5.5 0.2
v -0.7 5.7 0.2
v -0.6 4.1 0.2
v -0.6 4.2 0.2
v -0.6 4.3 0.2
v -0.6 5.3 0.2
v -0.6 5.4 0.2
v -0.6 5.5 0.2
v -0.5 4.2 0.2
v -0.5 4.3 0.2
v -0.5 4.4 0.2
v -0.5 5.2 0.2
v -0.5 5.3 0.2
v -0.5 5.4 0.2
v -0.3 4.3 0.2
v -0.3 4.4 0.2
v -0.3 4.5 0.2
v -0.3 5.1 0.2
v -0.3 5.2 0.2
v -0.3 5.3 0.2
v -0.1 4.4 0.2
v -0.1 4.5 0.2
v -0.1 5.1 0.2
v -0.1 5.2 0.2
v -1.19209e-07 4.5 0.2
v -1.19209e-07 4.6 0.2
v -1.19209e-07 5 0.2
v -1.19209e-07 5.1 0.2
v 0.0999999 0.9 0.2
v 0.0999999 1 0.2
v 0.0999999 1.3 0.2
v 0.0999999 1.4 0.2
v 0.0999999 1.5 0.2
v 0.0999999 4.6 0.2
v 0.0999999 4.7 0.2
v 0.0999999 4.9 0.2
v 0.0999999 5 0.2
v 0.2 0.8 0.2
v 0.2 0.9 0.2
v 0.2 1 0.2
v 0.2 1.3 0.2
v 0.2 1.4 0.2
v 0.2 1.5 0.2
v 0.2 1.6 0.2
v 0.2 2 0.2
v 0.2 2.2 0.2
v 0.2 3.1 0.2
v 0.2 4 0.2
v 0.2 4.2 0.2
v 0.2 4.5 0.2
v 0.2 4.6 0.2
v 0.2 4.7 0.2
v 0.2 4.9 0.2
v 0.2 5 0.2
v 0.2 5.1 0.2
v 0.3 1 0.2
v 0.3 1.3 0.2
v 0.3 1.6 0.2
v 0.3 1.9 0.2
v 0.3 2 0.2
v 0.3 2.2 0.2
v 0.3 2.4 0.2
v 0.3 2.9 0.2
v 0.3 3.1 0.2
v 0.3 3.8 0.2
v 0.3 3.9 0.2
v 0.3 4 0.2
v 0.3 4.2 0.2
v 0.3 4.3 0.2
v 0.3 4.4 0.2
v 0.4 0.8 0.2
v 0.4 0.9 0.2
v 0.4 1 0.2
v 0.4 1.3 0.2
v 0.4 1.4 0.2
v 0.4 1.5 0.2
v 0.4 1.6 0.2
v 0.4 1.9 0.2
v 0.4 2.2 0.2
v 0.4 2.4 0.2
v 0.4 2.9 0.2
v 0.4 3.1 0.2
v 0.4 3.8 0.2
v 0.4 3.9 0.2
v 0.4 4.3 0.2
v 0.4 4.4 0.2
v 0.4 4.5 0.2
v 0.4 4.6 0.2
v 0.4 4.7 0.2
v 0.4 4.9 0.2
v 0.4 5 0.2
v 0.4 5.1 0.2
v 0.5 0.9 0.2
v 0.5 1 0.2
v 0.5 1.4 0.2
v 0.5 1.5 0.2
v 0.5 4.5 0.2
v 0.5 4.7 0.2
v 0.5 4.9 0.2
v 0.5 5.1 0.2
v 0.6 4.5 0.2
v 0.6 4.6 0.2
v 0.6 5 0.2
v 0.6 5.1 0.2
v 0.7 4.5 0.2
v 0.7 4.6 0.2
v 0.7 5 0.2
v 0.7 5.1 0.2
v 0.8 4.6 0.2
v 0.8 5 0.2
v -1.3 4.4 0.1
v -1.3 5.2 0.1
v -1.2 4.2 0.1
v -1.2 4.4 0.1
v -1.2 4.5 0.1
v -1.2 5.1 0.1
v -1.2 5.2 0.1
v -1.2 5.4 0.1
v -1.1 4 0.1
v -1.1 4.2 0.1
v -1.1 4.3 0.1
v -1.1 4.5 0.1
v -1.1 5.1 0.1
v -1.1 5.3 0.1
v -1.1 5.4 0.1
v -1.1 5.6 0.1
v -1 3.9 0.1
v -1 4 0.1
v -1 4.1 0.1
v -1 4.3 0.1
v -1 5.3 0.1
v -1 5.5 0.1
v -1 5.6 0.1
v -1 5.7 0.1
v -0.9 3.8 0.1
v -0.9 3.9 0.1
v -0.9 4 0.1
v -0.9 4.1 0.1
v -0.9 5.5 0.1
v -0.9 5.6 0.1
v -0.9 5.7 0.1
v -0.9 5.8 0.1
v -0.8 3.7 0.1
v -0.8 3.8 0.1
v -0.8 3.9 0.1
v -0.8 4 0.1
v -0.8 5.6 0.1
v -0.8 5.7 0.1
v -0.8 5.8 0.1
v -0.8 5.9 0.1
v -0.7 3.7 0.1
v -0.7 3.9 0.1
v -0.7 4.1 0.1
v -0.7 5.5 0.1
v -0.7 5.7 0.1
v -0.7 5.9 0.1
v -0.6 3.9 0.1
v -0.6 4.1 0.1
v -0.6 4.2 0.1
v -0.6 5.4 0.1
v -0.6 5.5 0.1
v -0.6 5.7 0.1
v -0.5 4.1 0.1
v -0.5 4.2 0.1
v -0.5 4.3 0.1
v -0.5 5.3 0.1
v -0.5 5.4 0.1
v -0.5 5.5 0.1
v -0.3 4.2 0.1
v -0.3 4.3 0.1
v -0.3 4.4 0.1
v -0.3 5.2 0.1
v -0.3 5.3 0.1
v -0.3 5.4 0.1
v -0.1 4.3 0.1
v -0.1 4.4 0.1
v -0.1 4.5 0.1
v -0.1 5.1 0.1
v -0.1 5.2 0.1
v -0.1 5.3 0.1
v -1.19209e-07 1.4 0.1
v -1.19209e-07 1.5 0.1
v -1.19209e-07 4.4 0.1
v -1.19209e-07 4.5 0.1
v -1.19209e-07 4.6 0.1
v -1.19209e-07 5 0.1
v -1.19209e-07 5.1 0.1
v -1.19209e-07 5.2 0.1
v 0.0999999 0.8 0.1
v 0.0999999 0.9 0.1
v 0.0999999 1.4 0.1
v 0.0999999 1.5 0.1
v 0.0999999 1.6 0.1
v 0.0999999 2 0.1
v 0.0999999 3.2 0.1
v 0.0999999 4 0.1
v 0.0999999 4.4 0.1
v 0.0999999 4.5 0.1
v 0.0999999 4.6 0.1
v 0.0999999 4.7 0.1
v 0.0999999 4.9 0.1
v 0.0999999 5 0.1
v 0.0999999 5.1 0.1
v 0.0999999 5.2 0.1
v 0.2 0.7 0.1
v 0.2 0.8 0.1
v 0.2 0.9 0.1
v 0.2 1 0.1
v 0.2 1.3 0.1
v 0.2 1.5 0.1
v 0.2 1.6 0.1
v 0.2 2 0.1
v 0.2 2.2 0.1
v 0.2 3.1 0.1
v 0.2 3.2 0.1
v 0.2 4 0.1
v 0.2 4.2 0.1
v 0.2 4.3 0.1
v 0.2 4.5 0.1
v 0.2 4.6 0.1
v 0.2 4.7 0.1
v 0.2 4.9 0.1
v 0.2 5 0.1
v 0.2 5.1 0.1
v 0.2 5.2 0.1
v 0.3 1 0.1
v 0.3 1.3 0.1
v 0.3 2.2 0.1
v 0.3 2.4 0.1
v 0.3 2.9 0.1
v 0.3 3.1 0.1
v 0.3 3.8 0.1
v 0.3 4.2 0.1
v 0.3 4.3 0.1
v 0.3 4.4 0.1
v 0.3 4.5 0.1
v 0.4 0.7 0.1
v 0.4 0.8 0.1
v 0.4 0.9 0.1
v 0.4 1.3 0.1
v 0.4 1.4 0.1
v 0.4 1.5 0.1
v 0.4 1.6 0.1
v 0.4 1.8 0.1
v 0.4 1.9 0.1
v 0.4 2.1 0.1
v 0.4 2.2 0.1
v 0.4 2.3 0.1
v 0.4 2.4 0.1
v 0.4 2.9 0.1
v 0.4 3.1 0.1
v 0.4 3.8 0.1
v 0.4 3.9 0.1
v 0.4 4.2 0.1
v 0.4 4.3 0.1
v 0.4 4.4 0.1
v 0.4 4.5 0.1
v 0.4 4.6 0.1
v 0.4 4.7 0.1
v 0.4 4.9 0.1
v 0.4 5 0.1
v 0.4 5.1 0.1
v 0.4 5.2 0.1
v 0.5 0.8 0.1
v 0.5 0.9 0.1
v 0.5 1.3 0.1
v 0.5 1.4 0.1
v 0.5 1.5 0.1
v 0.5 1.6 0.1
v 0.5 1.8 0.1
v 0.5 2.1 0.1
v 0.5 2.3 0.1
v 0.5 2.9 0.1
v 0.5 3.8 0.1
v 0.5 3.9 0.1
v 0.5 4.2 0.1
v 0.5 4.4 0.1
v 0.5 4.5 0.1
v 0.5 4.6 0.1
v 0.5 4.7 0.1
v 0.5 4.9 0.1
v 0.5 5 0.1
v 0.5 5.1 0.1
v 0.5 5.2 0.1
v 0.6 1.4 0.1
v 0.6 1.5 0.1
v 0.6 4.3 0.1
v 0.6 4.4 0.1
v 0.6 4.5 0.1
v 0.6 5.1 0.1
v 0.6 5.2 0.1
v 0.6 5.3 0.1
v 0.7 4.3 0.1
v 0.7 4.5 0.1
v 0.7 4.6 0.1
v 0.7 5 0.1
v 0.7 5.1 0.1
v 0.7 5.2 0.1
v 0.7 5.3 0.1
v 0.8 4.5 0.1
v 0.8 4.6 0.1
v 0.8 5 0.1
v 0.8 5.2 0.1
v 0.9 4.6 0.1
v 0.9 5 0.1
v 0.4 4.7 0
v 0.4 4.9 0
v 0.5 4.7 0
v 0.5 4.9 0
v 0.4 4.7 0.1
v 0.4 4.9 0.1
v 0.5 4.7 0.1
v 0.5 4.9 0.1
v -1.3 4.4 0
v -1.3 5.2 0
v -1.2 4.2 0
v -1.2 4.4 0
v -1.2 4.5 0
v -1.2 5.1 0
v -1.2 5.2 0
v -1.2 5.4 0
v -1.1 4 0
v -1.1 4.2 0
v -1.1 4.3 0
v -1.1 4.5 0
v -1.1 5.1 0
v -1.1 5.3 0
v -1.1 5.4 0
v -1.1 5.6 0
v -1 3.9 0
v -1 4 0
v -1 4.1 0
v -1 4.3 0
v -1 5.3 0
v -1 5.5 0
v -1 5.6 0
v -1 5.7 0
v -0.9 3.8 0
v -0.9 3.9 0
v -0.9 4 0
v -0.9 4.1 0
v -0.9 5.5 0
v -0.9 5.6 0
v -0.9 5.7 0
v -0.9 5.8 0
v -0.8 3.7 0
v -0.8 3.8 0
v -0.8 3.9 0
v -0.8 4 0
v -0.8 5.6 0
v -0.8 5.7 0
v -0.8 5.8 0
v -0.8 5.9 0
v -0.7 3.7 0
v -0.7 3.9 0
v -0.7 4.1 0
v -0.7 5.5 0
v -0.7 5.7 0
v -0.7 5.9 0
v -0.6 3.9 0
v -0.6 4.1 0
v -0.6 4.2 0
v -0.6 5.4 0
v -0.6 5.5 0
v -0.6 5.7 0
v -0.5 4.1 0
v -0.5 4.2 0
v -0.5 4.3 0
v -0.5 5.3 0
v -0.5 5.4 0
v -0.5 5.5 0
v -0.3 4.2 0
v -0.3 4.3 0
v -0.3 4.4 0
v -0.3 5.2 0
v -0.3 5.3 0
v -0.3 5.4 0
v -0.1 4.3 0
v -0.1 4.4 0
v -0.1 4.5 0
v -0.1 5.1 0
v -0.1 5.2 0
v -0.1 5.3 0
v -1.19209e-07 1.4 0
v -1.19209e-07 1.5 0
v -1.19209e-07 4.4 0
v -1.19209e-07 4.5 0
v -1.19209e-07 4.6 0
v -1.19209e-07 5 0
v -1.19209e-07 5.1 0
v -1.19209e-07 5.2 0
v 0.0999999 0.8 0
v 0.0999999 0.9 0
v 0.0999999 1.4 0
v 0.0999999 1.5 0
v 0.0999999 1.6 0
v 0.0999999 2 0
v 0.0999999 3.2 0
v 0.0999999 4 0
v 0.0999999 4.4 0
v 0.0999999 4.5 0
v 0.0999999 4.6 0
v 0.0999999 4.7 0
v 0.0999999 4.9 0
v 0.0999999 5 0
v 0.0999999 5.1 0
v 0.0999999 5.2 0
v 0.2 0.7 0
v 0.2 0.8 0
v 0.2 0.9 0
v 0.2 1.5 0
v 0.2 1.6 0
v 0.2 2 0
v 0.2 2.4 0
v 0.2 3.1 0
v 0.2 3.2 0
v 0.2 3.9 0
v 0.2 4 0
v 0.2 4.2 0
v 0.2 4.3 0
v 0.2 4.5 0
v 0.2 4.6 0
v 0.2 4.7 0
v 0.2 4.9 0
v 0.2 5 0
v 0.2 5.1 0
v 0.2 5.2 0
v 0.3 1 0
v 0.3 1.3 0
v 0.3 2.4 0
v 0.3 3.1 0
v 0.3 3.8 0
v 0.3 4.2 0
v 0.3 4.3 0
v 0.3 4.4 0
v 0.3 4.5 0
v 0.4 0.7 0
v 0.4 0.8 0
v 0.4 0.9 0
v 0.4 1 0
v 0.4 1.3 0
v 0.4 1.4 0
v 0.4 1.5 0
v 0.4 1.6 0
v 0.4 1.8 0
v 0.4 2.1 0
v 0.4 2.3 0
v 0.4 2.9 0
v 0.4 3.1 0
v 0.4 3.8 0
v 0.4 3.9 0
v 0.4 4.2 0
v 0.4 4.4 0
v 0.4 4.5 0
v 0.4 4.6 0
v 0.4 4.7 0
v 0.4 4.9 0
v 0.4 5 0
v 0.4 5.1 0
v 0.4 5.2 0
v 0.5 0.8 0
v 0.5 0.9 0
v 0.5 1.3 0
v 0.5 1.4 0
v 0.5 1.5 0
v 0.5 1.6 0
v 0.5 1.8 0
v 0.5 2.1 0
v 0.5 2.3 0
v 0.5 2.9 0
v 0.5 3.8 0
v 0.5 3.9 0
v 0.5 4.2 0
v 0.5 4.4 0
v 0.5 4.5 0
v 0.5 4.6 0
v 0.5 4.7 0
v 0.5 4.9 0
v 0.5 5 0
v 0.5 5.1 0
v 0.5 5.2 0
v 0.6 1.4 0
v 0.6 1.5 0
v 0.6 4.3 0
v 0.6 4.4 0
v 0.6 4.5 0
v 0.6 5.1 0
v 0.6 5.2 0
v 0.6 5.3 0
v 0.7 4.3 0
v 0.7 4.5 0
v 0.7 4.6 0
v 0.7 5 0
v 0.7 5.1 0
v 0.7 5.2 0
v 0.7 5.3 0
v 0.8 4.5 0
v 0.8 4.6 0
v 0.8 5 0
v 0.8 5.2 0
v 0.9 4.6 0
v 0.9 5 0
v -1.2 4.5 -0.1
v -1.2 5.1 -0.1
v -1.1 4.3 -0.1
v -1.1 4.5 -0.1
v -1.1 5.1 -0.1
v -1.1 5.3 -0.1
v -1 4.1 -0.1
v -1 4.3 -0.1
v -1 4.6 -0.1
v -1 5 -0.1
v -1 5.3 -0.1
v -1 5.5 -0.1
v -0.9 4 -0.1
v -0.9 4.1 -0.1
v -0.9 4.3 -0.1
v -0.9 4.6 -0.1
v -0.9 5 -0.1
v -0.9 5.3 -0.1
v -0.9 5.5 -0.1
v -0.9 5.6 -0.1
v -0.8 3.9 -0.1
v -0.8 4 -0.1
v -0.8 4.1 -0.1
v -0.8 4.3 -0.1
v -0.8 5.3 -0.1
v -0.8 5.5 -0.1
v -0.8 5.6 -0.1
v -0.8 5.7 -0.1
v -0.7 3.9 -0.1
v -0.7 4.1 -0.1
v -0.7 4.2 -0.1
v -0.7 5.4 -0.1
v -0.7 5.5 -0.1
v -0.7 5.7 -0.1
v -0.6 4.1 -0.1
v -0.6 4.2 -0.1
v -0.6 4.3 -0.1
v -0.6 5.3 -0.1
v -0.6 5.4 -0.1
v -0.6 5.5 -0.1
v -0.5 4.2 -0.1
v -0.5 4.3 -0.1
v -0.5 4.4 -0.1
v -0.5 5.2 -0.1
v -0.5 5.3 -0.1
v -0.5 5.4 -0.1
v -0.3 4.3 -0.1
v -0.3 4.4 -0.1
v -0.3 4.5 -0.1
v -0.3 5.1 -0.1
v -0.3 5.2 -0.1
v -0.3 5.3 -0.1
v -0.1 4.4 -0.1
v -0.1 4.5 -0.1
v -0.1 5.1 -0.1
v -0.1 5.2 -0.1
v -1.19209e-07 4.5 -0.1
v -1.19209e-07 4.6 -0.1
v -1.19209e-07 5 -0.1
v -1.19209e-07 5.1 -0.1
v 0.0999999 0.9 -0.1
v 0.0999999 1 -0.1
v 0.0999999 1.3 -0.1
v 0.0999999 1.4 -0.1
v 0.0999999 1.5 -0.1
v 0.0999999 4.6 -0.1
v 0.0999999 4.7 -0.1
v 0.0999999 4.9 -0.1
v 0.0999999 5 -0.1
v 0.2 0.8 -0.1
v 0.2 0.9 -0.1
v 0.2 1 -0.1
v 0.2 1.3 -0.1
v 0.2 1.4 -0.1
v 0.2 1.5 -0.1
v 0.2 1.6 -0.1
v 0.2 2 -0.1
v 0.2 2.4 -0.1
v 0.2 3.1 -0.1
v 0.2 3.9 -0.1
v 0.2 4.2 -0.1
v 0.2 4.5 -0.1
v 0.2 4.6 -0.1
v 0.2 4.7 -0.1
v 0.2 4.9 -0.1
v 0.2 5 -0.1
v 0.2 5.1 -0.1
v 0.3 1 -0.1
v 0.3 1.3 -0.1
v 0.3 2 -0.1
v 0.3 2.4 -0.1
v 0.3 3.1 -0.1
v 0.3 3.8 -0.1
v 0.3 3.9 -0.1
v 0.3 4.2 -0.1
v 0.3 4.4 -0.1
v 0.4 0.8 -0.1
v 0.4 0.9 -0.1
v 0.4 1 -0.1
v 0.4 1.4 -0.1
v 0.4 1.5 -0.1
v 0.4 1.6 -0.1
v 0.4 3.1 -0.1
v 0.4 3.8 -0.1
v 0.4 4.4 -0.1
v 0.4 4.5 -0.1
v 0.4 4.6 -0.1
v 0.4 4.7 -0.1
v 0.4 4.9 -0.1
v 0.4 5 -0.1
v 0.4 5.1 -0.1
v 0.5 0.9 -0.1
v 0.5 1 -0.1
v 0.5 1.4 -0.1
v 0.5 1.5 -0.1
v 0.5 4.6 -0.1
v 0.5 4.7 -0.1
v 0.5 4.9 -0.1
v 0.5 5 -0.1
v 0.7 4.6 -0.1
v 0.7 5 -0.1
v 0.2 0.9 -0.2
v 0.2 1 -0.2
v 0.2 1.3 -0.2
v 0.2 1.4 -0.2
v 0.2 1.5 -0.2
v 0.4 0.9 -0.2
v 0.4 1 -0.2
v 0.4 1.3 -0.2
v 0.4 1.4 -0.2
v 0.4 1.5 -0.2
v 0.2 0.7 0.1
v 0.4 0.7 0.1
v 0.2 0.7 0
v 0.4 0.7 0
v 0.2 0.8 0.2
v 0.4 0.8 0.2
v 0.0999999 0.8 0.1
v 0.2 0.8 0.1
v 0.4 0.8 0.1
v 0.5 0.8 0.1
v 0.0999999 0.8 0
v 0.2 0.8 0
v 0.4 0.8 0
v 0.5 0.8 0
v 0.2 0.8 -0.1
v 0.4 0.8 -0.1
v 0.2 0.9 0.3
v 0.4 0.9 0.3
v 0.0999999 0.9 0.2
v 0.2 0.9 0.2
v 0.4 0.9 0.2
v 0.5 0.9 0.2
v 0.0999999 0.9 0.1
v 0.2 0.9 0.1
v 0.4 0.9 0.1
v 0.5 0.9 0.1
v 0.0999999 0.9 0
v 0.2 0.9 0
v 0.4 0.9 0
v 0.5 0.9 0
v 0.0999999 0.9 -0.1
v 0.2 0.9 -0.1
v 0.4 0.9 -0.1
v 0.5 0.9 -0.1
v 0.2 0.9 -0.2
v 0.4 0.9 -0.2
v 0.2 1.3 0.3
v 0.4 1.3 0.3
v 0.0999999 1.3 0.2
v 0.2 1.3 0.2
v 0.3 1.3 0.2
v 0.4 1.3 0.2
v 0.2 1.3 0.1
v 0.3 1.3 0.1
v 0.4 1.3 0.1
v 0.5 1.3 0.1
v 0.3 1.3 0
v 0.4 1.3 0
v 0.5 1.3 0
v 0.0999999 1.3 -0.1
v 0.2 1.3 -0.1
v 0.3 1.3 -0.1
v 0.2 1.3 -0.2
v 0.4 1.3 -0.2
v 0.4 1.4 0.2
v 0.5 1.4 0.2
v -1.19209e-07 1.4 0.1
v 0.0999999 1.4 0.1
v 0.4 1.4 0.1
v 0.5 1.4 0.1
v 0.6 1.4 0.1
v -1.19209e-07 1.4 0
v 0.0999999 1.4 0
v 0.4 1.4 0
v 0.5 1.4 0
v 0.6 1.4 0
v 0.4 1.4 -0.1
v 0.5 1.4 -0.1
v 0.2 3.1 0.2
v 0.3 3.1 0.2
v 0.2 3.1 0.1
v 0.3 3.1 0.1
v 0.2 3.1 0
v 0.3 3.1 0
v 0.2 3.1 -0.1
v 0.3 3.1 -0.1
v 0.0999999 3.2 0.1
v 0.2 3.2 0.1
v 0.0999999 3.2 0
v 0.2 3.2 0
v -0.8 3.7 0.1
v -0.7 3.7 0.1
v -0.8 3.7 0
v -0.7 3.7 0
v 0.3 3.8 0.2
v 0.4 3.8 0.2
v -0.9 3.8 0.1
v -0.8 3.8 0.1
v 0.3 3.8 0.1
v 0.4 3.8 0.1
v 0.5 3.8 0.1
v -0.9 3.8 0
v -0.8 3.8 0
v 0.3 3.8 0
v 0.4 3.8 0
v 0.5 3.8 0
v 0.3 3.8 -0.1
v 0.4 3.8 -0.1
v -0.8 3.9 0.2
v -0.7 3.9 0.2
v -1 3.9 0.1
v -0.9 3.9 0.1
v -0.8 3.9 0.1
v -0.7 3.9 0.1
v -0.6 3.9 0.1
v -1 3.9 0
v -0.9 3.9 0
v -0.8 3.9 0
v -0.7 3.9 0
v -0.6 3.9 0
v -0.8 3.9 -0.1
v -0.7 3.9 -0.1
v -0.9 4 0.2
v -0.8 4 0.2
v -1.1 4 0.1
v -1 4 0.1
v -0.9 4 0.1
v -0.8 4 0.1
v -1.1 4 0
v -1 4 0
v -0.9 4 0
v -0.8 4 0
v -0.9 4 -0.1
v -0.8 4 -0.1
v -1 4.1 0.2
v -0.9 4.1 0.2
v -0.7 4.1 0.2
v -0.6 4.1 0.2
v -1 4.1 0.1
v -0.9 4.1 0.1
v -0.7 4.1 0.1
v -0.6 4.1 0.1
v -0.5 4.1 0.1
v -1 4.1 0
v -0.9 4.1 0
v -0.7 4.1 0
v -0.6 4.1 0
v -0.5 4.1 0
v -1 4.1 -0.1
v -0.9 4.1 -0.1
v -0.7 4.1 -0.1
v -0.6 4.1 -0.1
v -0.6 4.2 0.2
v -0.5 4.2 0.2
v -1.2 4.2 0.1
v -1.1 4.2 0.1
v -0.6 4.2 0.1
v -0.5 4.2 0.1
v -0.3 4.2 0.1
v -1.2 4.2 0
v -1.1 4.2 0
v -0.6 4.2 0
v -0.5 4.2 0
v -0.3 4.2 0
v -0.6 4.2 -0.1
v -0.5 4.2 -0.1
v -1.1 4.3 0.2
v -1 4.3 0.2
v -0.5 4.3 0.2
v -0.3 4.3 0.2
v -1.1 4.3 0.1
v -1 4.3 0.1
v -0.5 4.3 0.1
v -0.3 4.3 0.1
v -0.1 4.3 0.1
v 0.6 4.3 0.1
v 0.7 4.3 0.1
v -1.1 4.3 0
v -1 4.3 0
v -0.5 4.3 0
v -0.3 4.3 0
v -0.1 4.3 0
v 0.6 4.3 0
v 0.7 4.3 0
v -1.1 4.3 -0.1
v -1 4.3 -0.1
v -0.5 4.3 -0.1
v -0.3 4.3 -0.1
v -0.3 4.4 0.2
v -0.1 4.4 0.2
v -1.3 4.4 0.1
v -1.2 4.4 0.1
v -0.3 4.4 0.1
v -0.1 4.4 0.1
v -1.19209e-07 4.4 0.1
v 0.0999999 4.4 0.1
v 0.5 4.4 0.1
v 0.6 4.4 0.1
v -1.3 4.4 0
v -1.2 4.4 0
v -0.3 4.4 0
v -0.1 4.4 0
v -1.19209e-07 4.4 0
v 0.0999999 4.4 0
v 0.5 4.4 0
v 0.6 4.4 0
v -0.3 4.4 -0.1
v -0.1 4.4 -0.1
v -1.2 4.5 0.2
v -1.1 4.5 0.2
v -0.1 4.5 0.2
v -1.19209e-07 4.5 0.2
v 0.2 4.5 0.2
v 0.4 4.5 0.2
v 0.5 4.5 0.2
v 0.6 4.5 0.2
v 0.7 4.5 0.2
v -1.2 4.5 0.1
v -1.1 4.5 0.1
v -0.1 4.5 0.1
v -1.19209e-07 4.5 0.1
v 0.0999999 4.5 0.1
v 0.2 4.5 0.1
v 0.3 4.5 0.1
v 0.4 4.5 0.1
v 0.5 4.5 0.1
v 0.6 4.5 0.1
v 0.7 4.5 0.1
v 0.8 4.5 0.1
v -1.2 4.5 0
v -1.1 4.5 0
v -0.1 4.5 0
v -1.19209e-07 4.5 0
v 0.0999999 4.5 0
v 0.2 4.5 0
v 0.3 4.5 0
v 0.4 4.5 0
v 0.5 4.5 0
v 0.7 4.5 0
v 0.8 4.5 0
v -1.2 4.5 -0.1
v -1.1 4.5 -0.1
v -0.1 4.5 -0.1
v -1.19209e-07 4.5 -0.1
v 0.2 4.5 -0.1
v 0.4 4.5 -0.1
v -1.19209e-07 4.6 0.2
v 0.0999999 4.6 0.2
v 0.7 4.6 0.2
v 0.8 4.6 0.2
v -1.19209e-07 4.6 0.1
v 0.0999999 4.6 0.1
v 0.7 4.6 0.1
v 0.8 4.6 0.1
v 0.9 4.6 0.1
v -1.19209e-07 4.6 0
v 0.0999999 4.6 0
v 0.5 4.6 0
v 0.7 4.6 0
v 0.8 4.6 0
v 0.9 4.6 0
v -1.19209e-07 4.6 -0.1
v 0.0999999 4.6 -0.1
v 0.5 4.6 -0.1
v 0.7 4.6 -0.1
v 0.0999999 4.7 0.2
v 0.2 4.7 0.2
v 0.4 4.7 0.2
v 0.5 4.7 0.2
v 0.0999999 4.7 0.1
v 0.2 4.7 0.1
v 0.4 4.7 0.1
v 0.5 4.7 0.1
v 0.0999999 4.7 0
v 0.2 4.7 0
v 0.4 4.7 0
v 0.5 4.7 0
v 0.0999999 4.7 -0.1
v 0.2 4.7 -0.1
v 0.4 4.7 -0.1
v 0.5 4.7 -0.1
v 0.4 4.9 0.1
v 0.5 4.9 0.1
v 0.4 4.9 0
v 0.5 4.9 0
v 0.2 1 0.3
v 0.4 1 0.3
v 0.0999999 1 0.2
v 0.2 1 0.2
v 0.3 1 0.2
v 0.4 1 0.2
v 0.5 1 0.2
v 0.2 1 0.1
v 0.3 1 0.1
v 0.3 1 0
v 0.4 1 0
v 0.0999999 1 -0.1
v 0.2 1 -0.1
v 0.3 1 -0.1
v 0.4 1 -0.1
v 0.5 1 -0.1
v 0.2 1 -0.2
v 0.4 1 -0.2
v 0.2 1.5 0.3
v 0.4 1.5 0.3
v 0.0999999 1.5 0.2
v 0.2 1.5 0.2
v 0.4 1.5 0.2
v 0.5 1.5 0.2
v -1.19209e-07 1.5 0.1
v 0.0999999 1.5 0.1
v 0.2 1.5 0.1
v 0.4 1.5 0.1
v 0.5 1.5 0.1
v 0.6 1.5 0.1
v -1.19209e-07 1.5 0
v 0.0999999 1.5 0
v 0.2 1.5 0
v 0.4 1.5 0
v 0.5 1.5 0
v 0.6 1.5 0
v 0.0999999 1.5 -0.1
v 0.2 1.5 -0.1
v 0.4 1.5 -0.1
v 0.5 1.5 -0.1
v 0.2 1.5 -0.2
v 0.4 1.5 -0.2
v 0.0999999 2 0.1
v 0.2 2 0.1
v 0.0999999 2 0
v 0.2 2 0
v 0.2 2.2 0.2
v 0.3 2.2 0.2
v 0.2 2.2 0.1
v 0.3 2.2 0.1
v 0.2 2.4 0
v 0.3 2.4 0
v 0.2 2.4 -0.1
v 0.3 2.4 -0.1
v 0.4 2.9 0.1
v 0.5 2.9 0.1
v 0.4 2.9 0
v 0.5 2.9 0
v 0.3 3.1 0.2
v 0.4 3.1 0.2
v 0.3 3.1 0.1
v 0.4 3.1 0.1
v 0.3 3.1 0
v 0.4 3.1 0
v 0.3 3.1 -0.1
v 0.4 3.1 -0.1
v 0.0999999 4 0.1
v 0.2 4 0.1
v 0.0999999 4 0
v 0.2 4 0
v 0.2 4.2 0.2
v 0.3 4.2 0.2
v 0.2 4.2 0.1
v 0.3 4.2 0.1
v 0.2 4.2 0
v 0.3 4.2 0
v 0.2 4.2 -0.1
v 0.3 4.2 -0.1
v 0.3 4.4 0.2
v 0.4 4.4 0.2
v 0.3 4.4 0.1
v 0.4 4.4 0.1
v 0.5 4.4 0.1
v 0.3 4.4 0
v 0.4 4.4 0
v 0.5 4.4 0
v 0.3 4.4 -0.1
v 0.4 4.4 -0.1
v 0.4 4.7 0.1
v 0.5 4.7 0.1
v 0.4 4.7 0
v 0.5 4.7 0
v 0.0999999 4.9 0.2
v 0.2 4.9 0.2
v 0.4 4.9 0.2
v 0.5 4.9 0.2
v 0.0999999 4.9 0.1
v 0.2 4.9 0.1
v 0.4 4.9 0.1
v 0.5 4.9 0.1
v 0.0999999 4.9 0
v 0.2 4.9 0
v 0.4 4.9 0
v 0.5 4.9 0
v 0.0999999 4.9 -0.1
v 0.2 4.9 -0.1
v 0.4 4.9 -0.1
v 0.5 4.9 -0.1
v -1.19209e-07 5 0.2
v 0.0999999 5 0.2
v 0.7 5 0.2
v 0.8 5 0.2
v -1.19209e-07 5 0.1
v 0.0999999 5 0.1
v 0.7 5 0.1
v 0.8 5 0.1
v 0.9 5 0.1
v -1.19209e-07 5 0
v 0.0999999 5 0
v 0.5 5 0
v 0.7 5 0
v 0.8 5 0
v 0.9 5 0
v -1.19209e-07 5 -0.1
v 0.0999999 5 -0.1
v 0.5 5 -0.1
v 0.7 5 -0.1
v -1.2 5.1 0.2
v -1.1 5.1 0.2
v -0.1 5.1 0.2
v -1.19209e-07 5.1 0.2
v 0.2 5.1 0.2
v 0.4 5.1 0.2
v 0.5 5.1 0.2
v 0.6 5.1 0.2
v 0.7 5.1 0.2
v -1.2 5.1 0.1
v -1.1 5.1 0.1
v -0.1 5.1 0.1
v -1.19209e-07 5.1 0.1
v 0.0999999 5.1 0.1
v 0.2 5.1 0.1
v 0.4 5.1 0.1
v 0.5 5.1 0.1
v 0.6 5.1 0.1
v 0.7 5.1 0.1
v -1.2 5.1 0
v -1.1 5.1 0
v -0.1 5.1 0
v -1.19209e-07 5.1 0
v 0.0999999 5.1 0
v 0.2 5.1 0
v 0.4 5.1 0
v 0.5 5.1 0
v -1.2 5.1 -0.1
v -1.1 5.1 -0.1
v -0.1 5.1 -0.1
v -1.19209e-07 5.1 -0.1
v 0.2 5.1 -0.1
v 0.4 5.1 -0.1
v -0.3 5.2 0.2
v -0.1 5.2 0.2
v -1.3 5.2 0.1
v -1.2 5.2 0.1
v -0.3 5.2 0.1
v -0.1 5.2 0.1
v -1.19209e-07 5.2 0.1
v 0.0999999 5.2 0.1
v 0.2 5.2 0.1
v 0.4 5.2 0.1
v 0.5 5.2 0.1
v 0.6 5.2 0.1
v 0.7 5.2 0.1
v 0.8 5.2 0.1
v -1.3 5.2 0
v -1.2 5.2 0
v -0.3 5.2 0
v -0.1 5.2 0
v -1.19209e-07 5.2 0
v 0.0999999 5.2 0
v 0.2 5.2 0
v 0.4 5.2 0
v 0.5 5.2 0
v 0.6 5.2 0
v 0.7 5.2 0
v 0.8 5.2 0
v -0.3 5.2 -0.1
v -0.1 5.2 -0.1
v -1.1 5.3 0.2
v -1 5.3 0.2
v -0.5 5.3 0.2
v -0.3 5.3 0.2
v -1.1 5.3 0.1
v -1 5.3 0.1
v -0.5 5.3 0.1
v -0.3 5.3 0.1
v -0.1 5.3 0.1
v 0.6 5.3 0.1
v 0.7 5.3 0.1
v -1.1 5.3 0
v -1 5.3 0
v -0.5 5.3 0
v -0.3 5.3 0
v -0.1 5.3 0
v 0.6 5.3 0
v 0.7 5.3 0
v -1.1 5.3 -0.1
v -1 5.3 -0.1
v -0.5 5.3 -0.1
v -0.3 5.3 -0.1
v -0.6 5.4 0.2
v -0.5 5.4 0.2
v -1.2 5.4 0.1
v -1.1 5.4 0.1
v -0.6 5.4 0.1
v -0.5 5.4 0.1
v -0.3 5.4 0.1
v -1.2 5.4 0
v -1.1 5.4 0
v -0.6 5.4 0
v -0.5 5.4 0
v -0.3 5.4 0
v -0.6 5.4 -0.1
v -0.5 5.4 -0.1
v -1 5.5 0.2
v -0.9 5.5 0.2
v -0.7 5.5 0.2
v -0.6 5.5 0.2
v -1 5.5 0.1
v -0.9 5.5 0.1
v -0.7 5.5 0.1
v -0.6 5.5 0.1
v -0.5 5.5 0.1
v -1 5.5 0
v -0.9 5.5 0
v -0.7 5.5 0
v -0.6 5.5 0
v -0.5 5.5 0
v -1 5.5 -0.1
v -0.9 5.5 -0.1
v -0.7 5.5 -0.1
v -0.6 5.5 -0.1
v -0.9 5.6 0.2
v -0.8 5.6 0.2
v -1.1 5.6 0.1
v -1 5.6 0.1
v -0.9 5.6 0.1
v -0.8 5.6 0.1
v -1.1 5.6 0
v -1 5.6 0
v -0.9 5.6 0
v -0.8 5.6 0
v -0.9 5.6 -0.1
v -0.8 5.6 -0.1
v -0.8 5.7 0.2
v -0.7 5.7 0.2
v -1 5.7 0.1
v -0.9 5.7 0.1
v -0.8 5.7 0.1
v -0.7 5.7 0.1
v -0.6 5.7 0.1
v -1 5.7 0
v -0.9 5.7 0
v -0.8 5.7 0
v -0.7 5.7 0
v -0.6 5.7 0
v -0.8 5.7 -0.1
v -0.7 5.7 -0.1
v -0.9 5.8 0.1
v -0.8 5.8 0.1
v -0.9 5.8 0
v -0.8 5.8 0
v -0.8 5.9 0.1
v -0.7 5.9 0.1
v -0.8 5.9 0
v -0.7 5.9 0

# faces
f 3/6/1 2/6/1 1/6/1
f 4/6/1 2/6/1 3/6/1
f 7/6/1 6/6/1 5/6/1
f 8/6/1 6/6/1 7/6/1
f 13/8/1 10/8/1 9/8/1
f 14/8/1 10/8/1 13/8/1
f 15/8/1 12/8/1 11/8/1
f 16/8/1 12/8/1 15/8/1
f 19/6/1 18/6/1 17/6/1
f 20/6/1 18/6/1 19/6/1
f 23/6/1 22/6/1 21/6/1
f 24/6/1 22/6/1 23/6/1
f 29/8/1 26/8/1 25/8/1
f 30/8/1 26/8/1 29/8/1
f 31/8/1 28/8/1 27/8/1
f 32/8/1 28/8/1 31/8/1
f 37/8/1 34/8/1 33/8/1
f 38/8/1 34/8/1 37/8/1
f 39/8/1 36/8/1 35/8/1
f 40/8/1 36/8/1 39/8/1
f 43/6/1 42/6/1 41/6/1
f 44/6/1 42/6/1 43/6/1
f 47/6/1 46/6/1 45/6/1
f 48/6/1 46/6/1 47/6/1
f 53/8/1 50/8/1 49/8/1
f 54/8/1 50/8/1 53/8/1
f 55/8/1 52/8/1 51/8/1
f 56/8/1 52/8/1 55/8/1
f 61/8/1 58/8/1 57/8/1
f 62/8/1 58/8/1 61/8/1
f 63/8/1 60/8/1 59/8/1
f 64/8/1 60/8/1 63/8/1
f 67/6/1 66/6/1 65/6/1
f 68/6/1 66/6/1 67/6/1
f 71/6/1 70/6/1 69/6/1
f 72/6/1 70/6/1 71/6/1
f 77/8/1 74/8/1 73/8/1
f 78/8/1 74/8/1 77/8/1
f 79/8/1 76/8/1 75/8/1
f 80/8/1 76/8/1 79/8/1
f 85/8/1 82/8/1 81/8/1
f 86/8/1 82/8/1 85/8/1
f 87/8/1 84/8/1 83/8/1
f 88/8/1 84/8/1 87/8/1
f 91/6/1 90/6/1 89/6/1
f 92/6/1 90/6/1 91/6/1
f 95/6/1 94/6/1 93/6/1
f 96/6/1 94/6/1 95/6/1
f 101/8/1 98/8/1 97/8/1
f 102/8/1 98/8/1 101/8/1
f 103/8/1 100/8/1 99/8/1
f 104/8/1 100/8/1 103/8/1
f 109/8/1 106/8/1 105/8/1
f 110/8/1 106/8/1 109/8/1
f 111/8/1 108/8/1 107/8/1
f 112/8/1 108/8/1 111/8/1
f 115/6/1 114/6/1 113/6/1
f 116/6/1 114/6/1 115/6/1
f 119/7/1 118/7/1 117/7/1
f 120/7/1 118/7/1 119/7/1
f 124/5/1 122/5/1 121/5/1
f 125/5/1 122/5/1 124/5/1
f 127/5/1 124/5/1 123/5/1
f 127/5/1 126/5/1 125/5/1
f 127/5/1 125/5/1 124/5/1
f 128/5/1 126/5/1 127/5/1
f 131/5/1 130/5/1 129/5/1
f 132/5/1 130/5/1 131/5/1
f 133/5/1 130/5/1 132/5/1
f 134/5/1 130/5/1 133/5/1
f 135/7/1 132/7/1 131/7/1
f 136/7/1 132/7/1 135/7/1
f 137/7/1 134/7/1 133/7/1
f 138/7/1 134/7/1 137/7/1
f 139/8/1 137/8/1 136/8/1
f 140/8/1 137/8/1 139/8/1
f 141/1/1 140/1/1 139/1/1
f 142/1/1 140/1/1 141/1/1
f 145/1/1 144/1/1 143/1/1
f 146/1/1 144/1/1 145/1/1
f 150/4/1 148/4/1 147/4/1
f 151/4/1 148/4/1 150/4/1
f 154/5/1 150/5/1 149/5/1
f 155/5/1 150/5/1 154/5/1
f 156/5/1 152/5/1 151/5/1
f 157/5/1 152/5/1 156/5/1
f 159/5/1 154/5/1 153/5/1
f 160/5/1 154/5/1 159/5/1
f 162/5/1 158/5/1 157/5/1
f 163/5/1 158/5/1 162/5/1
f 166/5/1 162/5/1 161/5/1
f 167/5/1 162/5/1 166/5/1
f 169/5/1 165/5/1 164/5/1
f 170/5/1 165/5/1 169/5/1
f 171/5/1 168/5/1 167/5/1
f 172/5/1 168/5/1 171/5/1
f 173/7/1 170/7/1 169/7/1
f 174/7/1 170/7/1 173/7/1
f 177/7/1 172/7/1 171/7/1
f 178/7/1 172/7/1 177/7/1
f 179/8/1 175/8/1 174/8/1
f 180/8/1 175/8/1 179/8/1
f 181/8/1 177/8/1 176/8/1
f 182/8/1 177/8/1 181/8/1
f 183/2/1 180/2/1 179/2/1
f 184/2/1 180/2/1 183/2/1
f 185/2/1 182/2/1 181/2/1
f 186/2/1 182/2/1 185/2/1
f 187/1/1 184/1/1 183/1/1
f 188/2/1 185/2/1 184/2/1
f 188/1/1 184/1/1 187/1/1
f 189/1/1 186/1/1 185/1/1
f 189/2/1 185/2/1 188/2/1
f 190/1/1 186/1/1 189/1/1
f 192/2/1 189/2/1 188/2/1
f 193/2/1 189/2/1 192/2/1
f 195/2/1 192/2/1 191/2/1
f 195/2/1 194/2/1 193/2/1
f 195/2/1 193/2/1 192/2/1
f 196/2/1 194/2/1 195/2/1
f 197/2/1 194/2/1 196/2/1
f 198/2/1 194/2/1 197/2/1
f 199/2/1 195/2/1 191/2/1
f 200/2/1 195/2/1 199/2/1
f 201/1/1 198/1/1 197/1/1
f 202/1/1 200/1/1 199/1/1
f 203/2/1 201/2/1 200/2/1
f 203/1/1 200/1/1 202/1/1
f 204/1/1 198/1/1 201/1/1
f 204/2/1 201/2/1 203/2/1
f 205/1/1 198/1/1 204/1/1
f 206/1/1 204/1/1 203/1/1
f 207/1/1 204/1/1 206/1/1
f 209/2/1 207/2/1 206/2/1
f 210/2/1 207/2/1 209/2/1
f 212/3/1 209/3/1 208/3/1
f 213/3/1 209/3/1 212/3/1
f 214/4/1 211/4/1 210/4/1
f 215/4/1 211/4/1 214/4/1
f 216/5/1 213/5/1 212/5/1
f 217/5/1 213/5/1 216/5/1
f 218/5/1 215/5/1 214/5/1
f 219/5/1 215/5/1 218/5/1
f 224/5/1 221/5/1 220/5/1
f 225/5/1 221/5/1 224/5/1
f 226/5/1 223/5/1 222/5/1
f 227/5/1 223/5/1 226/5/1
f 228/3/1 225/3/1 224/3/1
f 229/3/1 225/3/1 228/3/1
f 230/3/1 227/3/1 226/3/1
f 231/3/1 227/3/1 230/3/1
f 232/4/1 230/4/1 229/4/1
f 233/4/1 230/4/1 232/4/1
f 236/5/1 235/5/1 234/5/1
f 237/5/1 235/5/1 236/5/1
f 240/1/1 239/1/1 238/1/1
f 241/1/1 239/1/1 240/1/1
f 244/2/1 241/2/1 240/2/1
f 245/2/1 241/2/1 244/2/1
f 246/1/1 245/1/1 244/1/1
f 247/1/1 245/1/1 246/1/1
f 248/2/1 243/2/1 242/2/1
f 249/2/1 243/2/1 248/2/1
f 254/2/1 251/2/1 250/2/1
f 255/2/1 251/2/1 254/2/1
f 256/2/1 253/2/1 252/2/1
f 257/1/1 255/1/1 254/1/1
f 258/1/1 255/1/1 257/1/1
f 259/2/1 253/2/1 256/2/1
f 260/2/1 253/2/1 259/2/1
f 264/4/1 262/4/1 261/4/1
f 265/4/1 262/4/1 264/4/1
f 266/8/1 264/8/1 263/8/1
f 269/8/1 266/8/1 263/8/1
f 270/8/1 266/8/1 269/8/1
f 271/8/1 268/8/1 267/8/1
f 272/8/1 268/8/1 271/8/1
f 274/8/1 271/8/1 270/8/1
f 275/8/1 271/8/1 274/8/1
f 277/8/1 274/8/1 273/8/1
f 278/8/1 276/8/1 275/8/1
f 279/8/1 276/8/1 278/8/1
f 280/8/1 277/8/1 273/8/1
f 281/8/1 277/8/1 280/8/1
f 283/4/1 282/4/1 281/4/1
f 284/4/1 282/4/1 283/4/1
f 287/6/1 286/6/1 285/6/1
f 288/6/1 286/6/1 287/6/1
f 291/6/1 290/6/1 289/6/1
f 292/6/1 290/6/1 291/6/1
f 293/6/2 294/6/2 296/6/2
f 296/6/2 294/6/2 297/6/2
f 295/8/2 296/8/2 299/8/2
f 299/8/2 296/8/2 300/8/2
f 297/8/2 298/8/2 301/8/2
f 301/8/2 298/8/2 302/8/2
f 303/8/2 304/8/2 307/8/2
f 307/8/2 304/8/2 308/8/2
f 305/8/2 306/8/2 309/8/2
f 309/8/2 306/8/2 310/8/2
f 308/6/2 309/6/2 311/6/2
f 311/6/2 309/6/2 312/6/2
f 313/9/2 314/9/2 316/9/2
f 316/9/2 314/9/2 317/9/2
f 315/8/2 316/8/2 319/8/2
f 319/8/2 316/8/2 320/8/2
f 317/8/2 318/8/2 321/8/2
f 321/8/2 318/8/2 322/8/2
f 323/8/2 324/8/2 327/8/2
f 327/8/2 324/8/2 328/8/2
f 325/8/2 326/8/2 329/8/2
f 329/8/2 326/8/2 330/8/2
f 328/9/2 329/9/2 331/9/2
f 331/9/2 329/9/2 332/9/2
f 333/9/2 334/9/2 336/9/2
f 336/9/2 334/9/2 337/9/2
f 335/8/2 336/8/2 339/8/2
f 339/8/2 336/8/2 340/8/2
f 337/8/2 338/8/2 341/8/2
f 341/8/2 338/8/2 342/8/2
f 343/8/2 344/8/2 347/8/2
f 347/8/2 344/8/2 348/8/2
f 345/8/2 346/8/2 349/8/2
f 349/8/2 346/8/2 350/8/2
f 348/9/2 349/9/2 351/9/2
f 351/9/2 349/9/2 352/9/2
f 353/9/2 354/9/2 356/9/2
f 356/9/2 354/9/2 357/9/2
f 355/8/2 356/8/2 359/8/2
f 359/8/2 356/8/2 360/8/2
f 357/8/2 358/8/2 361/8/2
f 361/8/2 358/8/2 362/8/2
f 363/8/2 364/8/2 367/8/2
f 367/8/2 364/8/2 368/8/2
f 365/8/2 366/8/2 369/8/2
f 369/8/2 366/8/2 370/8/2
f 368/9/2 369/9/2 371/9/2
f 371/9/2 369/9/2 372/9/2
f 373/9/2 374/9/2 376/9/2
f 376/9/2 374/9/2 377/9/2
f 375/8/2 376/8/2 379/8/2
f 379/8/2 376/8/2 380/8/2
f 377/8/2 378/8/2 381/8/2
f 381/8/2 378/8/2 382/8/2
f 383/8/2 384/8/2 387/8/2
f 387/8/2 384/8/2 388/8/2
f 385/8/2 386/8/2 389/8/2
f 389/8/2 386/8/2 390/8/2
f 388/9/2 389/9/2 391/9/2
f 391/9/2 389/9/2 392/9/2
f 393/9/2 394/9/2 397/9/2
f 397/9/2 394/9/2 398/9/2
f 395/9/2 396/9/2 399/9/2
f 399/9/2 396/9/2 400/9/2
f 401/9/2 402/9/2 405/9/2
f 405/9/2 402/9/2 406/9/2
f 403/9/2 404/9/2 407/9/2
f 407/9/2 404/9/2 408/9/2
f 409/4/2 410/4/2 411/4/2
f 411/4/2 410/4/2 412/4/2
f 413/9/2 414/9/2 417/9/2
f 417/9/2 414/9/2 418/9/2
f 415/9/2 416/9/2 419/9/2
f 419/9/2 416/9/2 420/9/2
f 421/9/2 422/9/2 425/9/2
f 425/9/2 422/9/2 426/9/2
f 423/9/2 424/9/2 427/9/2
f 427/9/2 424/9/2 428/9/2
f 429/4/2 430/4/2 431/4/2
f 431/4/2 430/4/2 432/4/2
f 433/5/2 434/5/2 435/5/2
f 435/5/2 434/5/2 436/5/2
f 437/2/2 438/2/2 441/2/2
f 441/2/2 438/2/2 442/2/2
f 439/2/2 440/2/2 443/2/2
f 443/2/2 440/2/2 444/2/2
f 445/4/2 446/4/2 448/4/2
f 448/4/2 446/4/2 449/4/2
f 447/5/2 448/5/2 452/5/2
f 452/5/2 448/5/2 453/5/2
f 449/5/2 450/5/2 454/5/2
f 454/5/2 450/5/2 455/5/2
f 451/5/2 452/5/2 457/5/2
f 457/5/2 452/5/2 458/5/2
f 455/5/2 456/5/2 460/5/2
f 460/5/2 456/5/2 461/5/2
f 458/5/2 459/5/2 463/5/2
f 463/5/2 459/5/2 464/5/2
f 464/5/2 459/5/2 465/5/2
f 462/5/2 463/5/2 467/5/2
f 463/5/2 464/5/2 467/5/2
f 467/5/2 464/5/2 468/5/2
f 468/5/2 464/5/2 469/5/2
f 465/5/2 466/5/2 470/5/2
f 470/5/2 466/5/2 471/5/2
f 471/5/2 466/5/2 472/5/2
f 467/7/2 468/7/2 473/7/2
f 473/7/2 468/7/2 474/7/2
f 471/7/2 472/7/2 477/7/2
f 477/7/2 472/7/2 478/7/2
f 474/8/2 475/8/2 479/8/2
f 479/8/2 475/8/2 480/8/2
f 476/8/2 477/8/2 481/8/2
f 481/8/2 477/8/2 482/8/2
f 479/1/2 480/1/2 483/1/2
f 481/2/2 482/2/2 484/2/2
f 479/1/2 483/1/2 485/1/2
f 485/1/2 483/1/2 486/1/2
f 485/2/2 486/2/2 487/2/2
f 484/2/2 482/2/2 488/2/2
f 485/2/2 487/2/2 489/2/2
f 489/2/2 487/2/2 490/2/2
f 489/1/2 490/1/2 491/1/2
f 488/2/2 482/2/2 492/2/2
f 489/1/2 491/1/2 493/1/2
f 493/1/2 491/1/2 494/1/2
f 493/2/2 494/2/2 495/2/2
f 495/2/2 494/2/2 496/2/2
f 492/2/2 482/2/2 497/2/2
f 495/1/2 496/1/2 498/1/2
f 496/2/2 497/2/2 499/2/2
f 498/1/2 496/1/2 499/1/2
f 497/2/2 482/2/2 500/2/2
f 499/2/2 497/2/2 500/2/2
f 500/2/2 482/2/2 501/2/2
f 499/1/2 500/1/2 503/1/2
f 503/1/2 500/1/2 504/1/2
f 502/1/2 503/1/2 506/1/2
f 506/1/2 503/1/2 507/1/2
f 504/2/2 505/2/2 508/2/2
f 506/2/2 507/2/2 509/2/2
f 508/2/2 505/2/2 510/2/2
f 506/2/2 509/2/2 511/2/2
f 511/2/2 509/2/2 512/2/2
f 511/1/2 512/1/2 513/1/2
f 513/1/2 512/1/2 514/1/2
f 510/2/2 505/2/2 515/2/2
f 515/2/2 505/2/2 516/2/2
f 514/1/2 515/1/2 518/1/2
f 518/1/2 515/1/2 519/1/2
f 517/3/2 518/3/2 521/3/2
f 521/3/2 518/3/2 522/3/2
f 519/4/2 520/4/2 523/4/2
f 523/4/2 520/4/2 524/4/2
f 521/5/2 522/5/2 525/5/2
f 525/5/2 522/5/2 526/5/2
f 523/5/2 524/5/2 527/5/2
f 527/5/2 524/5/2 528/5/2
f 526/5/2 527/5/2 530/5/2
f 530/5/2 527/5/2 531/5/2
f 529/5/2 530/5/2 533/5/2
f 533/5/2 530/5/2 534/5/2
f 531/5/2 532/5/2 535/5/2
f 535/5/2 532/5/2 536/5/2
f 533/3/2 534/3/2 537/3/2
f 537/3/2 534/3/2 538/3/2
f 535/3/2 536/3/2 539/3/2
f 539/3/2 536/3/2 540/3/2
f 538/4/2 539/4/2 541/4/2
f 541/4/2 539/4/2 542/4/2
f 543/5/2 544/5/2 546/5/2
f 546/5/2 544/5/2 547/5/2
f 545/5/2 546/5/2 549/5/2
f 547/5/2 548/5/2 549/5/2
f 546/5/2 547/5/2 549/5/2
f 549/5/2 548/5/2 550/5/2
f 551/5/2 552/5/2 554/5/2
f 554/5/2 552/5/2 555/5/2
f 553/7/2 554/7/2 557/7/2
f 557/7/2 554/7/2 558/7/2
f 555/7/2 556/7/2 559/7/2
f 559/7/2 556/7/2 560/7/2
f 558/8/2 559/8/2 561/8/2
f 561/8/2 559/8/2 562/8/2
f 561/2/2 562/2/2 563/2/2
f 563/2/2 562/2/2 564/2/2
f 563/1/2 564/1/2 565/1/2
f 565/1/2 564/1/2 566/1/2
f 565/2/2 566/2/2 567/2/2
f 567/2/2 566/2/2 568/2/2
f 567/1/2 568/1/2 569/1/2
f 569/1/2 568/1/2 570/1/2
f 571/2/2 572/2/2 573/2/2
f 573/2/2 572/2/2 574/2/2
f 573/1/2 574/1/2 575/1/2
f 575/1/2 574/1/2 576/1/2
f 575/2/2 576/2/2 577/2/2
f 577/2/2 576/2/2 578/2/2
f 579/7/2 580/7/2 581/7/2
f 581/7/2 580/7/2 582/7/2
f 583/6/2 584/6/2 586/6/2
f 586/6/2 584/6/2 587/6/2
f 585/7/2 586/7/2 588/7/2
f 588/7/2 586/7/2 589/7/2
f 590/8/2 591/8/2 594/8/2
f 594/8/2 591/8/2 595/8/2
f 592/7/2 593/7/2 596/7/2
f 596/7/2 593/7/2 597/7/2
f 598/6/2 599/6/2 600/6/2
f 600/6/2 599/6/2 601/6/2
f 602/6/2 603/6/2 605/6/2
f 605/6/2 603/6/2 606/6/2
f 604/7/2 605/7/2 607/7/2
f 607/7/2 605/7/2 608/7/2
f 608/6/2 609/6/2 610/6/2
f 610/6/2 609/6/2 611/6/2
f 612/6/2 613/6/2 614/6/2
f 614/6/2 613/6/2 615/6/2
f 621/5/3 617/5/3 616/5/3
f 622/5/3 617/5/3 621/5/3
f 623/5/3 619/5/3 618/5/3
f 624/7/3 620/7/3 619/7/3
f 624/5/3 619/5/3 623/5/3
f 625/7/3 620/7/3 624/7/3
f 629/8/3 627/8/3 626/8/3
f 630/8/3 627/8/3 629/8/3
f 633/8/3 629/8/3 628/8/3
f 633/8/3 631/8/3 630/8/3
f 633/8/3 630/8/3 629/8/3
f 634/8/3 631/8/3 633/8/3
f 635/8/3 631/8/3 634/8/3
f 636/8/3 631/8/3 635/8/3
f 639/8/3 633/8/3 632/8/3
f 639/8/3 634/8/3 633/8/3
f 640/8/3 634/8/3 639/8/3
f 641/9/3 635/9/3 634/9/3
f 641/8/3 634/8/3 640/8/3
f 642/8/3 637/8/3 636/8/3
f 642/9/3 635/9/3 641/9/3
f 642/8/3 636/8/3 635/8/3
f 643/8/3 637/8/3 642/8/3
f 644/8/3 637/8/3 643/8/3
f 647/8/3 639/8/3 638/8/3
f 647/8/3 640/8/3 639/8/3
f 648/8/3 640/8/3 647/8/3
f 649/9/3 641/9/3 640/9/3
f 649/8/3 640/8/3 648/8/3
f 649/9/3 642/9/3 641/9/3
f 649/9/3 643/9/3 642/9/3
f 650/8/3 645/8/3 644/8/3
f 650/9/3 643/9/3 649/9/3
f 650/8/3 644/8/3 643/8/3
f 651/8/3 645/8/3 650/8/3
f 652/8/3 645/8/3 651/8/3
f 654/8/3 648/8/3 647/8/3
f 654/8/3 647/8/3 646/8/3
f 655/9/3 649/9/3 648/9/3
f 655/8/3 648/8/3 654/8/3
f 655/9/3 650/9/3 649/9/3
f 655/9/3 651/9/3 650/9/3
f 656/9/3 651/9/3 655/9/3
f 657/9/3 651/9/3 656/9/3
f 658/8/3 653/8/3 652/8/3
f 658/9/3 651/9/3 657/9/3
f 658/8/3 652/8/3 651/8/3
f 659/8/3 653/8/3 658/8/3
f 660/8/3 656/8/3 655/8/3
f 661/9/3 657/9/3 656/9/3
f 661/8/3 656/8/3 660/8/3
f 662/9/3 657/9/3 661/9/3
f 663/9/3 657/9/3 662/9/3
f 664/8/3 658/8/3 657/8/3
f 664/9/3 657/9/3 663/9/3
f 665/8/3 658/8/3 664/8/3
f 666/8/3 662/8/3 661/8/3
f 667/9/3 663/9/3 662/9/3
f 667/8/3 662/8/3 666/8/3
f 668/9/3 663/9/3 667/9/3
f 669/9/3 663/9/3 668/9/3
f 670/8/3 664/8/3 663/8/3
f 670/9/3 663/9/3 669/9/3
f 671/8/3 664/8/3 670/8/3
f 672/8/3 668/8/3 667/8/3
f 673/9/3 669/9/3 668/9/3
f 673/8/3 668/8/3 672/8/3
f 674/9/3 669/9/3 673/9/3
f 675/9/3 669/9/3 674/9/3
f 676/8/3 670/8/3 669/8/3
f 676/9/3 669/9/3 675/9/3
f 677/8/3 670/8/3 676/8/3
f 678/8/3 674/8/3 673/8/3
f 679/9/3 675/9/3 674/9/3
f 679/8/3 674/8/3 678/8/3
f 680/8/3 676/8/3 675/8/3
f 680/9/3 675/9/3 679/9/3
f 681/8/3 676/8/3 680/8/3
f 682/9/3 680/9/3 679/9/3
f 683/9/3 680/9/3 682/9/3
f 684/9/3 680/9/3 683/9/3
f 685/9/3 680/9/3 684/9/3
f 691/9/3 684/9/3 683/9/3
f 692/9/3 684/9/3 691/9/3
f 693/9/3 684/9/3 692/9/3
f 694/9/3 684/9/3 693/9/3
f 696/5/3 687/5/3 686/5/3
f 697/5/3 687/5/3 696/5/3
f 698/5/3 689/5/3 688/5/3
f 699/7/3 690/7/3 689/7/3
f 699/5/3 689/5/3 698/5/3
f 700/7/3 690/7/3 699/7/3
f 709/9/3 693/9/3 692/9/3
f 710/9/3 693/9/3 709/9/3
f 715/8/3 701/8/3 700/8/3
f 715/2/3 702/2/3 701/2/3
f 716/2/3 702/2/3 715/2/3
f 717/1/3 703/1/3 702/1/3
f 717/2/3 702/2/3 716/2/3
f 718/1/3 703/1/3 717/1/3
f 721/2/3 705/2/3 704/2/3
f 722/2/3 705/2/3 721/2/3
f 723/2/3 705/2/3 722/2/3
f 724/1/3 706/1/3 705/1/3
f 724/2/3 705/2/3 723/2/3
f 725/1/3 706/1/3 724/1/3
f 728/5/3 696/5/3 695/5/3
f 729/5/3 696/5/3 728/5/3
f 730/5/3 714/5/3 713/5/3
f 731/5/3 714/5/3 730/5/3
f 733/8/3 715/8/3 700/8/3
f 734/1/3 716/1/3 715/1/3
f 734/8/3 715/8/3 733/8/3
f 735/2/3 717/2/3 716/2/3
f 735/1/3 716/1/3 734/1/3
f 735/2/3 718/2/3 717/2/3
f 736/1/3 719/1/3 718/1/3
f 736/2/3 718/2/3 735/2/3
f 737/2/3 720/2/3 719/2/3
f 737/1/3 719/1/3 736/1/3
f 738/1/3 721/1/3 720/1/3
f 738/2/3 720/2/3 737/2/3
f 739/1/3 721/1/3 738/1/3
f 740/1/3 723/1/3 722/1/3
f 741/2/3 726/2/3 725/2/3
f 741/1/3 723/1/3 740/1/3
f 741/2/3 724/2/3 723/2/3
f 741/2/3 725/2/3 724/2/3
f 742/1/3 727/1/3 726/1/3
f 742/2/3 726/2/3 741/2/3
f 743/1/3 727/1/3 742/1/3
f 744/3/3 708/3/3 707/3/3
f 745/5/3 711/5/3 710/5/3
f 745/3/3 708/3/3 744/3/3
f 745/5/3 710/5/3 709/5/3
f 745/5/3 709/5/3 708/5/3
f 746/5/3 711/5/3 745/5/3
f 747/5/3 711/5/3 746/5/3
f 748/3/3 712/3/3 711/3/3
f 748/5/3 711/5/3 747/5/3
f 749/3/3 712/3/3 748/3/3
f 750/5/3 730/5/3 729/5/3
f 751/5/3 730/5/3 750/5/3
f 752/7/3 733/7/3 732/7/3
f 753/7/3 733/7/3 752/7/3
f 755/8/3 747/8/3 746/8/3
f 756/8/3 747/8/3 755/8/3
f 758/8/3 757/8/3 756/8/3
f 758/8/3 756/8/3 755/8/3
f 758/8/3 755/8/3 754/8/3
f 759/8/3 757/8/3 758/8/3
f 760/8/3 757/8/3 759/8/3
f 761/8/3 757/8/3 760/8/3
f 762/7/3 759/7/3 758/7/3
f 763/8/3 760/8/3 759/8/3
f 763/7/3 759/7/3 762/7/3
f 764/7/3 761/7/3 760/7/3
f 764/8/3 760/8/3 763/8/3
f 765/7/3 761/7/3 764/7/3
f 766/7/3 764/7/3 763/7/3
f 767/7/3 764/7/3 766/7/3
f 771/6/3 769/6/3 768/6/3
f 772/6/3 769/6/3 771/6/3
f 773/6/3 769/6/3 772/6/3
f 774/6/3 769/6/3 773/6/3
f 777/6/3 771/6/3 770/6/3
f 777/6/3 772/6/3 771/6/3
f 778/6/3 772/6/3 777/6/3
f 779/6/3 772/6/3 778/6/3
f 780/6/3 774/6/3 773/6/3
f 780/6/3 775/6/3 774/6/3
f 781/6/3 775/6/3 780/6/3
f 782/6/3 775/6/3 781/6/3
f 785/6/3 778/6/3 777/6/3
f 785/6/3 777/6/3 776/6/3
f 786/6/3 778/6/3 785/6/3
f 787/6/3 778/6/3 786/6/3
f 788/6/3 783/6/3 782/6/3
f 788/6/3 782/6/3 781/6/3
f 789/6/3 783/6/3 788/6/3
f 790/6/3 783/6/3 789/6/3
f 793/6/3 786/6/3 785/6/3
f 793/6/3 785/6/3 784/6/3
f 794/6/3 786/6/3 793/6/3
f 795/6/3 786/6/3 794/6/3
f 796/6/3 791/6/3 790/6/3
f 796/6/3 790/6/3 789/6/3
f 797/6/3 791/6/3 796/6/3
f 798/6/3 791/6/3 797/6/3
f 801/6/3 794/6/3 793/6/3
f 801/6/3 793/6/3 792/6/3
f 802/6/3 794/6/3 801/6/3
f 803/6/3 794/6/3 802/6/3
f 804/6/3 799/6/3 798/6/3
f 804/6/3 798/6/3 797/6/3
f 805/6/3 799/6/3 804/6/3
f 806/6/3 799/6/3 805/6/3
f 808/6/3 802/6/3 801/6/3
f 808/6/3 801/6/3 800/6/3
f 809/6/3 802/6/3 808/6/3
f 812/6/3 807/6/3 806/6/3
f 812/6/3 806/6/3 805/6/3
f 813/6/3 807/6/3 812/6/3
f 814/9/3 810/9/3 809/9/3
f 815/9/3 810/9/3 814/9/3
f 818/9/3 812/9/3 811/9/3
f 819/9/3 812/9/3 818/9/3
f 820/9/3 816/9/3 815/9/3
f 821/9/3 816/9/3 820/9/3
f 824/9/3 818/9/3 817/9/3
f 825/9/3 818/9/3 824/9/3
f 826/9/3 822/9/3 821/9/3
f 827/9/3 822/9/3 826/9/3
f 830/9/3 824/9/3 823/9/3
f 831/9/3 824/9/3 830/9/3
f 832/9/3 828/9/3 827/9/3
f 833/9/3 828/9/3 832/9/3
f 836/9/3 830/9/3 829/9/3
f 837/9/3 830/9/3 836/9/3
f 840/9/3 834/9/3 833/9/3
f 841/9/3 834/9/3 840/9/3
f 844/9/3 836/9/3 835/9/3
f 845/9/3 836/9/3 844/9/3
f 848/7/3 839/7/3 838/7/3
f 849/7/3 839/7/3 848/7/3
f 854/4/3 841/4/3 840/4/3
f 855/9/3 842/9/3 841/9/3
f 855/4/3 841/4/3 854/4/3
f 856/9/3 842/9/3 855/9/3
f 859/9/3 844/9/3 843/9/3
f 860/4/3 845/4/3 844/4/3
f 860/9/3 844/9/3 859/9/3
f 861/4/3 845/4/3 860/4/3
f 863/5/3 847/5/3 846/5/3
f 864/5/3 847/5/3 863/5/3
f 867/8/3 850/8/3 849/8/3
f 868/1/3 851/1/3 850/1/3
f 868/8/3 850/8/3 867/8/3
f 869/1/3 851/1/3 868/1/3
f 872/1/3 853/1/3 852/1/3
f 873/1/3 853/1/3 872/1/3
f 876/3/3 856/3/3 855/3/3
f 877/5/3 857/5/3 856/5/3
f 877/3/3 856/3/3 876/3/3
f 878/5/3 857/5/3 877/5/3
f 879/5/3 859/5/3 858/5/3
f 880/3/3 860/3/3 859/3/3
f 880/5/3 859/5/3 879/5/3
f 881/3/3 860/3/3 880/3/3
f 883/5/3 866/5/3 865/5/3
f 884/5/3 866/5/3 883/5/3
f 885/2/3 871/2/3 870/2/3
f 886/2/3 871/2/3 885/2/3
f 887/2/3 871/2/3 886/2/3
f 888/2/3 871/2/3 887/2/3
f 890/1/3 875/1/3 874/1/3
f 891/2/3 876/2/3 875/2/3
f 891/1/3 875/1/3 890/1/3
f 892/2/3 876/2/3 891/2/3
f 893/2/3 876/2/3 892/2/3
f 894/4/3 863/4/3 862/4/3
f 895/4/3 863/4/3 894/4/3
f 908/1/3 889/1/3 888/1/3
f 909/1/3 889/1/3 908/1/3
f 913/1/3 893/1/3 892/1/3
f 914/1/3 893/1/3 913/1/3
f 919/4/3 882/4/3 881/4/3
f 920/4/3 882/4/3 919/4/3
f 921/5/3 896/5/3 895/5/3
f 922/5/3 896/5/3 921/5/3
f 923/5/3 898/5/3 897/5/3
f 924/5/3 898/5/3 923/5/3
f 925/8/3 900/8/3 899/8/3
f 926/2/3 901/2/3 900/2/3
f 926/8/3 900/8/3 925/8/3
f 927/1/3 902/1/3 901/1/3
f 927/2/3 901/2/3 926/2/3
f 927/1/3 903/1/3 902/1/3
f 928/2/3 904/2/3 903/2/3
f 928/1/3 903/1/3 927/1/3
f 928/2/3 905/2/3 904/2/3
f 929/1/3 907/1/3 906/1/3
f 929/2/3 905/2/3 928/2/3
f 929/1/3 906/1/3 905/1/3
f 930/1/3 907/1/3 929/1/3
f 931/2/3 910/2/3 909/2/3
f 932/1/3 911/1/3 910/1/3
f 932/2/3 910/2/3 931/2/3
f 933/2/3 912/2/3 911/2/3
f 933/1/3 911/1/3 932/1/3
f 933/2/3 913/2/3 912/2/3
f 934/2/3 913/2/3 933/2/3
f 935/3/3 915/3/3 914/3/3
f 936/5/3 916/5/3 915/5/3
f 936/3/3 915/3/3 935/3/3
f 937/5/3 916/5/3 936/5/3
f 938/5/3 918/5/3 917/5/3
f 939/3/3 919/3/3 918/3/3
f 939/5/3 918/5/3 938/5/3
f 940/3/3 919/3/3 939/3/3
f 942/7/3 925/7/3 924/7/3
f 943/7/3 925/7/3 942/7/3
f 945/4/3 935/4/3 934/4/3
f 946/4/3 935/4/3 945/4/3
f 947/4/3 941/4/3 940/4/3
f 948/4/3 941/4/3 947/4/3
f 950/6/3 946/6/3 945/6/3
f 950/6/3 945/6/3 944/6/3
f 951/6/3 946/6/3 950/6/3
f 954/6/3 948/6/3 947/6/3
f 954/6/3 949/6/3 948/6/3
f 955/6/3 949/6/3 954/6/3
f 956/6/3 949/6/3 955/6/3
f 957/6/3 952/6/3 951/6/3
f 958/6/3 952/6/3 957/6/3
f 959/6/3 955/6/3 954/6/3
f 959/6/3 954/6/3 953/6/3
f 960/6/3 955/6/3 959/6/3
f 961/6/3 959/6/3 958/6/3
f 962/6/3 959/6/3 961/6/3
f 965/8/3 964/8/3 963/8/3
f 966/8/3 964/8/3 965/8/3
f 967/8/4 968/8/4 969/8/4
f 969/8/4 968/8/4 970/8/4
f 971/6/4 972/6/4 974/6/4
f 974/6/4 972/6/4 975/6/4
f 975/6/4 972/6/4 976/6/4
f 976/6/4 972/6/4 977/6/4
f 973/6/4 974/6/4 980/6/4
f 974/6/4 975/6/4 980/6/4
f 980/6/4 975/6/4 981/6/4
f 981/6/4 975/6/4 982/6/4
f 976/6/4 977/6/4 983/6/4
f 977/6/4 978/6/4 983/6/4
f 983/6/4 978/6/4 984/6/4
f 984/6/4 978/6/4 985/6/4
f 980/6/4 981/6/4 988/6/4
f 979/6/4 980/6/4 988/6/4
f 988/6/4 981/6/4 989/6/4
f 989/6/4 981/6/4 990/6/4
f 985/6/4 986/6/4 991/6/4
f 984/6/4 985/6/4 991/6/4
f 991/6/4 986/6/4 992/6/4
f 992/6/4 986/6/4 993/6/4
f 988/6/4 989/6/4 996/6/4
f 987/6/4 988/6/4 996/6/4
f 996/6/4 989/6/4 997/6/4
f 997/6/4 989/6/4 998/6/4
f 993/6/4 994/6/4 999/6/4
f 992/6/4 993/6/4 999/6/4
f 999/6/4 994/6/4 1000/6/4
f 1000/6/4 994/6/4 1001/6/4
f 996/6/4 997/6/4 1004/6/4
f 995/6/4 996/6/4 1004/6/4
f 1004/6/4 997/6/4 1005/6/4
f 1005/6/4 997/6/4 1006/6/4
f 1001/6/4 1002/6/4 1007/6/4
f 1000/6/4 1001/6/4 1007/6/4
f 1007/6/4 1002/6/4 1008/6/4
f 1008/6/4 1002/6/4 1009/6/4
f 1004/6/4 1005/6/4 1011/6/4
f 1003/6/4 1004/6/4 1011/6/4
f 1011/6/4 1005/6/4 1012/6/4
f 1009/6/4 1010/6/4 1015/6/4
f 1008/6/4 1009/6/4 1015/6/4
f 1015/6/4 1010/6/4 1016/6/4
f 1012/9/4 1013/9/4 1017/9/4
f 1017/9/4 1013/9/4 1018/9/4
f 1014/9/4 1015/9/4 1021/9/4
f 1021/9/4 1015/9/4 1022/9/4
f 1018/9/4 1019/9/4 1023/9/4
f 1023/9/4 1019/9/4 1024/9/4
f 1020/9/4 1021/9/4 1027/9/4
f 1027/9/4 1021/9/4 1028/9/4
f 1024/9/4 1025/9/4 1029/9/4
f 1029/9/4 1025/9/4 1030/9/4
f 1026/9/4 1027/9/4 1033/9/4
f 1033/9/4 1027/9/4 1034/9/4
f 1030/9/4 1031/9/4 1035/9/4
f 1035/9/4 1031/9/4 1036/9/4
f 1032/9/4 1033/9/4 1039/9/4
f 1039/9/4 1033/9/4 1040/9/4
f 1036/9/4 1037/9/4 1043/9/4
f 1043/9/4 1037/9/4 1044/9/4
f 1038/9/4 1039/9/4 1047/9/4
f 1047/9/4 1039/9/4 1048/9/4
f 1041/7/4 1042/7/4 1051/7/4
f 1051/7/4 1042/7/4 1052/7/4
f 1043/4/4 1044/4/4 1057/4/4
f 1044/9/4 1045/9/4 1058/9/4
f 1057/4/4 1044/4/4 1058/4/4
f 1058/9/4 1045/9/4 1059/9/4
f 1046/9/4 1047/9/4 1062/9/4
f 1047/4/4 1048/4/4 1063/4/4
f 1062/9/4 1047/9/4 1063/9/4
f 1063/4/4 1048/4/4 1064/4/4
f 1049/5/4 1050/5/4 1066/5/4
f 1066/5/4 1050/5/4 1067/5/4
f 1052/8/4 1053/8/4 1068/8/4
f 1053/1/4 1054/1/4 1069/1/4
f 1068/8/4 1053/8/4 1069/8/4
f 1069/1/4 1054/1/4 1070/1/4
f 1055/1/4 1056/1/4 1073/1/4
f 1073/1/4 1056/1/4 1074/1/4
f 1074/1/4 1056/1/4 1075/1/4
f 1058/3/4 1059/3/4 1078/3/4
f 1059/5/4 1060/5/4 1079/5/4
f 1078/3/4 1059/3/4 1079/3/4
f 1079/5/4 1060/5/4 1080/5/4
f 1061/5/4 1062/5/4 1081/5/4
f 1062/3/4 1063/3/4 1082/3/4
f 1081/5/4 1062/5/4 1082/5/4
f 1082/3/4 1063/3/4 1083/3/4
f 1071/2/4 1072/2/4 1087/2/4
f 1087/2/4 1072/2/4 1088/2/4
f 1076/1/4 1077/1/4 1090/1/4
f 1077/2/4 1078/2/4 1091/2/4
f 1090/1/4 1077/1/4 1091/1/4
f 1091/2/4 1078/2/4 1092/2/4
f 1092/2/4 1078/2/4 1093/2/4
f 1065/4/4 1066/4/4 1094/4/4
f 1094/4/4 1066/4/4 1095/4/4
f 1085/5/4 1086/5/4 1097/5/4
f 1097/5/4 1086/5/4 1098/5/4
f 1088/1/4 1089/1/4 1106/1/4
f 1106/1/4 1089/1/4 1107/1/4
f 1092/1/4 1093/1/4 1110/1/4
f 1110/1/4 1093/1/4 1111/1/4
f 1083/4/4 1084/4/4 1116/4/4
f 1116/4/4 1084/4/4 1117/4/4
f 1095/5/4 1096/5/4 1118/5/4
f 1118/5/4 1096/5/4 1119/5/4
f 1098/5/4 1099/5/4 1120/5/4
f 1120/5/4 1099/5/4 1121/5/4
f 1100/8/4 1101/8/4 1122/8/4
f 1101/2/4 1102/2/4 1123/2/4
f 1122/8/4 1101/8/4 1123/8/4
f 1102/1/4 1103/1/4 1124/1/4
f 1123/2/4 1102/2/4 1124/2/4
f 1103/2/4 1104/2/4 1125/2/4
f 1124/1/4 1103/1/4 1125/1/4
f 1104/1/4 1105/1/4 1126/1/4
f 1125/2/4 1104/2/4 1126/2/4
f 1126/1/4 1105/1/4 1127/1/4
f 1107/2/4 1108/2/4 1128/2/4
f 1108/1/4 1109/1/4 1129/1/4
f 1128/2/4 1108/2/4 1129/2/4
f 1109/2/4 1110/2/4 1130/2/4
f 1129/1/4 1109/1/4 1130/1/4
f 1130/2/4 1110/2/4 1131/2/4
f 1111/3/4 1112/3/4 1132/3/4
f 1112/5/4 1113/5/4 1133/5/4
f 1132/3/4 1112/3/4 1133/3/4
f 1133/5/4 1113/5/4 1134/5/4
f 1114/5/4 1115/5/4 1135/5/4
f 1115/3/4 1116/3/4 1136/3/4
f 1135/5/4 1115/5/4 1136/5/4
f 1136/3/4 1116/3/4 1137/3/4
f 1121/7/4 1122/7/4 1139/7/4
f 1139/7/4 1122/7/4 1140/7/4
f 1131/4/4 1132/4/4 1142/4/4
f 1132/8/4 1133/8/4 1143/8/4
f 1142/4/4 1132/4/4 1143/4/4
f 1137/4/4 1138/4/4 1144/4/4
f 1136/8/4 1137/8/4 1144/8/4
f 1144/4/4 1138/4/4 1145/4/4
f 1142/6/4 1143/6/4 1147/6/4
f 1141/6/4 1142/6/4 1147/6/4
f 1143/8/4 1133/8/4 1148/8/4
f 1147/6/4 1143/6/4 1148/6/4
f 1148/8/4 1133/8/4 1149/8/4
f 1136/8/4 1144/8/4 1150/8/4
f 1144/6/4 1145/6/4 1151/6/4
f 1145/6/4 1146/6/4 1151/6/4
f 1150/8/4 1144/8/4 1151/8/4
f 1151/6/4 1146/6/4 1152/6/4
f 1152/6/4 1146/6/4 1153/6/4
f 1148/6/4 1149/6/4 1154/6/4
f 1149/7/4 1150/7/4 1155/7/4
f 1154/6/4 1149/6/4 1155/6/4
f 1151/6/4 1152/6/4 1156/6/4
f 1155/7/4 1150/7/4 1156/7/4
f 1150/6/4 1151/6/4 1156/6/4
f 1156/6/4 1152/6/4 1157/6/4
f 1155/6/4 1156/6/4 1158/6/4
f 1158/6/4 1156/6/4 1159/6/4
f 1160/8/4 1161/8/4 1163/8/4
f 1163/8/4 1161/8/4 1164/8/4
f 1162/8/4 1163/8/4 1167/8/4
f 1164/8/4 1165/8/4 1167/8/4
f 1163/8/4 1164/8/4 1167/8/4
f 1167/8/4 1165/8/4 1168/8/4
f 1168/8/4 1165/8/4 1169/8/4
f 1169/8/4 1165/8/4 1170/8/4
f 1166/8/4 1167/8/4 1173/8/4
f 1167/8/4 1168/8/4 1173/8/4
f 1173/8/4 1168/8/4 1174/8/4
f 1168/9/4 1169/9/4 1175/9/4
f 1174/8/4 1168/8/4 1175/8/4
f 1170/8/4 1171/8/4 1176/8/4
f 1175/9/4 1169/9/4 1176/9/4
f 1169/8/4 1170/8/4 1176/8/4
f 1176/8/4 1171/8/4 1177/8/4
f 1177/8/4 1171/8/4 1178/8/4
f 1172/8/4 1173/8/4 1181/8/4
f 1173/8/4 1174/8/4 1181/8/4
f 1181/8/4 1174/8/4 1182/8/4
f 1174/9/4 1175/9/4 1183/9/4
f 1182/8/4 1174/8/4 1183/8/4
f 1175/9/4 1176/9/4 1183/9/4
f 1176/9/4 1177/9/4 1183/9/4
f 1178/8/4 1179/8/4 1184/8/4
f 1183/9/4 1177/9/4 1184/9/4
f 1177/8/4 1178/8/4 1184/8/4
f 1184/8/4 1179/8/4 1185/8/4
f 1185/8/4 1179/8/4 1186/8/4
f 1181/8/4 1182/8/4 1188/8/4
f 1180/8/4 1181/8/4 1188/8/4
f 1182/9/4 1183/9/4 1189/9/4
f 1188/8/4 1182/8/4 1189/8/4
f 1183/9/4 1184/9/4 1189/9/4
f 1184/9/4 1185/9/4 1189/9/4
f 1189/9/4 1185/9/4 1190/9/4
f 1190/9/4 1185/9/4 1191/9/4
f 1186/8/4 1187/8/4 1192/8/4
f 1191/9/4 1185/9/4 1192/9/4
f 1185/8/4 1186/8/4 1192/8/4
f 1192/8/4 1187/8/4 1193/8/4
f 1189/8/4 1190/8/4 1194/8/4
f 1190/9/4 1191/9/4 1195/9/4
f 1194/8/4 1190/8/4 1195/8/4
f 1195/9/4 1191/9/4 1196/9/4
f 1196/9/4 1191/9/4 1197/9/4
f 1191/8/4 1192/8/4 1198/8/4
f 1197/9/4 1191/9/4 1198/9/4
f 1198/8/4 1192/8/4 1199/8/4
f 1195/8/4 1196/8/4 1200/8/4
f 1196/9/4 1197/9/4 1201/9/4
f 1200/8/4 1196/8/4 1201/8/4
f 1201/9/4 1197/9/4 1202/9/4
f 1202/9/4 1197/9/4 1203/9/4
f 1197/8/4 1198/8/4 1204/8/4
f 1203/9/4 1197/9/4 1204/9/4
f 1204/8/4 1198/8/4 1205/8/4
f 1201/8/4 1202/8/4 1206/8/4
f 1202/9/4 1203/9/4 1207/9/4
f 1206/8/4 1202/8/4 1207/8/4
f 1207/9/4 1203/9/4 1208/9/4
f 1208/9/4 1203/9/4 1209/9/4
f 1203/8/4 1204/8/4 1210/8/4
f 1209/9/4 1203/9/4 1210/9/4
f 1210/8/4 1204/8/4 1211/8/4
f 1207/8/4 1208/8/4 1212/8/4
f 1208/9/4 1209/9/4 1213/9/4
f 1212/8/4 1208/8/4 1213/8/4
f 1209/8/4 1210/8/4 1214/8/4
f 1213/9/4 1209/9/4 1214/9/4
f 1214/8/4 1210/8/4 1215/8/4
f 1213/9/4 1214/9/4 1216/9/4
f 1216/9/4 1214/9/4 1217/9/4
f 1217/9/4 1214/9/4 1218/9/4
f 1218/9/4 1214/9/4 1219/9/4
f 1217/9/4 1218/9/4 1225/9/4
f 1225/9/4 1218/9/4 1226/9/4
f 1226/9/4 1218/9/4 1227/9/4
f 1227/9/4 1218/9/4 1228/9/4
f 1220/5/4 1221/5/4 1230/5/4
f 1230/5/4 1221/5/4 1231/5/4
f 1222/5/4 1223/5/4 1232/5/4
f 1223/7/4 1224/7/4 1233/7/4
f 1232/5/4 1223/5/4 1233/5/4
f 1233/7/4 1224/7/4 1234/7/4
f 1226/9/4 1227/9/4 1243/9/4
f 1243/9/4 1227/9/4 1244/9/4
f 1231/5/4 1232/5/4 1247/5/4
f 1247/5/4 1232/5/4 1248/5/4
f 1235/2/4 1236/2/4 1249/2/4
f 1236/1/4 1237/1/4 1249/1/4
f 1249/1/4 1237/1/4 1250/1/4
f 1238/2/4 1239/2/4 1251/2/4
f 1251/2/4 1239/2/4 1252/2/4
f 1239/1/4 1240/1/4 1253/1/4
f 1252/2/4 1239/2/4 1253/2/4
f 1253/1/4 1240/1/4 1254/1/4
f 1229/5/4 1230/5/4 1256/5/4
f 1256/5/4 1230/5/4 1257/5/4
f 1234/8/4 1235/8/4 1260/8/4
f 1249/2/4 1250/2/4 1261/2/4
f 1235/2/4 1249/2/4 1261/2/4
f 1260/8/4 1235/8/4 1261/8/4
f 1250/2/4 1251/2/4 1261/2/4
f 1261/2/4 1251/2/4 1262/2/4
f 1254/2/4 1255/2/4 1263/2/4
f 1253/2/4 1254/2/4 1263/2/4
f 1252/2/4 1253/2/4 1263/2/4
f 1263/2/4 1255/2/4 1264/2/4
f 1241/4/4 1242/4/4 1265/4/4
f 1243/5/4 1244/5/4 1266/5/4
f 1265/4/4 1242/4/4 1266/4/4
f 1244/5/4 1245/5/4 1266/5/4
f 1242/5/4 1243/5/4 1266/5/4
f 1266/5/4 1245/5/4 1267/5/4
f 1267/5/4 1245/5/4 1268/5/4
f 1245/3/4 1246/3/4 1269/3/4
f 1268/5/4 1245/5/4 1269/5/4
f 1269/3/4 1246/3/4 1270/3/4
f 1257/5/4 1258/5/4 1271/5/4
f 1271/5/4 1258/5/4 1272/5/4
f 1259/7/4 1260/7/4 1273/7/4
f 1273/7/4 1260/7/4 1274/7/4
f 1267/8/4 1268/8/4 1276/8/4
f 1276/8/4 1268/8/4 1277/8/4
f 1277/8/4 1278/8/4 1279/8/4
f 1276/8/4 1277/8/4 1279/8/4
f 1275/8/4 1276/8/4 1279/8/4
f 1279/8/4 1278/8/4 1280/8/4
f 1281/5/4 1282/5/4 1286/5/4
f 1286/5/4 1282/5/4 1287/5/4
f 1283/5/4 1284/5/4 1288/5/4
f 1284/7/4 1285/7/4 1289/7/4
f 1288/5/4 1284/5/4 1289/5/4
f 1289/7/4 1285/7/4 1290/7/4
f 1293/4/5 1292/4/5 1291/4/5
f 1294/4/5 1292/4/5 1293/4/5
f 1298/5/5 1296/5/5 1295/5/5
f 1299/5/5 1296/5/5 1298/5/5
f 1301/5/5 1298/5/5 1297/5/5
f 1302/5/5 1298/5/5 1301/5/5
f 1303/5/5 1300/5/5 1299/5/5
f 1304/5/5 1300/5/5 1303/5/5
f 1305/5/5 1303/5/5 1302/5/5
f 1306/5/5 1303/5/5 1305/5/5
f 1310/5/5 1308/5/5 1307/5/5
f 1311/5/5 1308/5/5 1310/5/5
f 1313/5/5 1310/5/5 1309/5/5
f 1314/5/5 1310/5/5 1313/5/5
f 1315/5/5 1312/5/5 1311/5/5
f 1316/5/5 1312/5/5 1315/5/5
f 1321/5/5 1318/5/5 1317/5/5
f 1322/5/5 1318/5/5 1321/5/5
f 1323/5/5 1320/5/5 1319/5/5
f 1324/5/5 1320/5/5 1323/5/5
f 1325/5/5 1323/5/5 1322/5/5
f 1326/5/5 1323/5/5 1325/5/5
f 1330/5/5 1328/5/5 1327/5/5
f 1331/5/5 1328/5/5 1330/5/5
f 1332/5/5 1328/5/5 1331/5/5
f 1333/5/5 1330/5/5 1329/5/5
f 1333/5/5 1331/5/5 1330/5/5
f 1334/5/5 1331/5/5 1333/5/5
f 1338/5/5 1336/5/5 1335/5/5
f 1339/5/5 1336/5/5 1338/5/5
f 1340/5/5 1333/5/5 1329/5/5
f 1341/5/5 1333/5/5 1340/5/5
f 1342/5/5 1338/5/5 1337/5/5
f 1343/5/5 1342/5/5 1341/5/5
f 1344/5/5 1338/5/5 1342/5/5
f 1344/5/5 1342/5/5 1343/5/5
f 1349/7/5 1346/7/5 1345/7/5
f 1350/7/5 1346/7/5 1349/7/5
f 1352/7/5 1348/7/5 1347/7/5
f 1353/7/5 1348/7/5 1352/7/5
f 1355/7/5 1351/7/5 1350/7/5
f 1356/7/5 1351/7/5 1355/7/5
f 1357/7/5 1355/7/5 1354/7/5
f 1358/7/5 1355/7/5 1357/7/5
f 1361/2/5 1360/2/5 1359/2/5
f 1362/2/5 1360/2/5 1361/2/5
f 1365/2/5 1364/2/5 1363/2/5
f 1366/2/5 1364/2/5 1365/2/5
f 1369/1/5 1368/1/5 1367/1/5
f 1370/1/5 1368/1/5 1369/1/5
f 1373/6/5 1372/6/5 1371/6/5
f 1374/6/5 1372/6/5 1373/6/5
f 1379/1/5 1376/1/5 1375/1/5
f 1380/1/5 1376/1/5 1379/1/5
f 1382/6/5 1378/6/5 1377/6/5
f 1383/6/5 1378/6/5 1382/6/5
f 1385/2/5 1381/2/5 1380/2/5
f 1386/2/5 1381/2/5 1385/2/5
f 1387/2/5 1385/2/5 1384/2/5
f 1388/2/5 1385/2/5 1387/2/5
f 1393/8/5 1390/8/5 1389/8/5
f 1394/8/5 1390/8/5 1393/8/5
f 1396/6/5 1392/6/5 1391/6/5
f 1397/6/5 1392/6/5 1396/6/5
f 1399/9/5 1395/9/5 1394/9/5
f 1400/9/5 1395/9/5 1399/9/5
f 1401/8/5 1399/8/5 1398/8/5
f 1402/8/5 1399/8/5 1401/8/5
f 1407/8/5 1404/8/5 1403/8/5
f 1408/8/5 1404/8/5 1407/8/5
f 1409/6/5 1406/6/5 1405/6/5
f 1410/6/5 1406/6/5 1409/6/5
f 1413/8/5 1412/8/5 1411/8/5
f 1414/8/5 1412/8/5 1413/8/5
f 1419/8/5 1416/8/5 1415/8/5
f 1420/8/5 1416/8/5 1419/8/5
f 1421/8/5 1418/8/5 1417/8/5
f 1422/8/5 1418/8/5 1421/8/5
f 1427/9/5 1423/9/5 1422/9/5
f 1428/9/5 1423/9/5 1427/9/5
f 1429/8/5 1425/8/5 1424/8/5
f 1430/8/5 1425/8/5 1429/8/5
f 1431/8/5 1427/8/5 1426/8/5
f 1432/8/5 1427/8/5 1431/8/5
f 1437/8/5 1434/8/5 1433/8/5
f 1438/8/5 1434/8/5 1437/8/5
f 1440/6/5 1436/6/5 1435/6/5
f 1441/6/5 1436/6/5 1440/6/5
f 1443/9/5 1439/9/5 1438/9/5
f 1444/9/5 1439/9/5 1443/9/5
f 1445/8/5 1443/8/5 1442/8/5
f 1446/8/5 1443/8/5 1445/8/5
f 1451/8/5 1448/8/5 1447/8/5
f 1452/8/5 1448/8/5 1451/8/5
f 1453/8/5 1450/8/5 1449/8/5
f 1454/8/5 1450/8/5 1453/8/5
f 1461/9/5 1455/9/5 1454/9/5
f 1462/9/5 1455/9/5 1461/9/5
f 1463/6/5 1457/6/5 1456/6/5
f 1464/6/5 1457/6/5 1463/6/5
f 1465/8/5 1459/8/5 1458/8/5
f 1466/8/5 1459/8/5 1465/8/5
f 1467/8/5 1461/8/5 1460/8/5
f 1468/8/5 1461/8/5 1467/8/5
f 1473/8/5 1470/8/5 1469/8/5
f 1474/8/5 1470/8/5 1473/8/5
f 1479/6/5 1472/6/5 1471/6/5
f 1480/6/5 1472/6/5 1479/6/5
f 1482/9/5 1475/9/5 1474/9/5
f 1483/4/5 1476/4/5 1475/4/5
f 1483/9/5 1475/9/5 1482/9/5
f 1484/4/5 1476/4/5 1483/4/5
f 1485/4/5 1478/4/5 1477/4/5
f 1486/4/5 1478/4/5 1485/4/5
f 1487/8/5 1482/8/5 1481/8/5
f 1488/8/5 1482/8/5 1487/8/5
f 1498/8/5 1490/8/5 1489/8/5
f 1499/8/5 1490/8/5 1498/8/5
f 1500/9/5 1492/9/5 1491/9/5
f 1501/9/5 1492/9/5 1500/9/5
f 1503/3/5 1494/3/5 1493/3/5
f 1504/3/5 1494/3/5 1503/3/5
f 1505/3/5 1494/3/5 1504/3/5
f 1506/8/5 1496/8/5 1495/8/5
f 1507/7/5 1497/7/5 1496/7/5
f 1507/8/5 1496/8/5 1506/8/5
f 1508/7/5 1497/7/5 1507/7/5
f 1514/3/5 1503/3/5 1502/3/5
f 1515/3/5 1503/3/5 1514/3/5
f 1517/3/5 1506/3/5 1505/3/5
f 1518/3/5 1506/3/5 1517/3/5
f 1519/6/5 1509/6/5 1508/6/5
f 1520/6/5 1509/6/5 1519/6/5
f 1521/8/5 1511/8/5 1510/8/5
f 1522/8/5 1511/8/5 1521/8/5
f 1523/9/5 1513/9/5 1512/9/5
f 1524/9/5 1513/9/5 1523/9/5
f 1525/4/5 1516/4/5 1515/4/5
f 1525/4/5 1517/4/5 1516/4/5
f 1526/4/5 1517/4/5 1525/4/5
f 1531/9/5 1528/9/5 1527/9/5
f 1532/9/5 1528/9/5 1531/9/5
f 1533/7/5 1530/7/5 1529/7/5
f 1534/7/5 1530/7/5 1533/7/5
f 1540/6/5 1535/6/5 1534/6/5
f 1541/6/5 1535/6/5 1540/6/5
f 1542/9/5 1537/9/5 1536/9/5
f 1543/9/5 1537/9/5 1542/9/5
f 1544/8/5 1539/8/5 1538/8/5
f 1545/8/5 1539/8/5 1544/8/5
f 1550/9/5 1547/9/5 1546/9/5
f 1551/9/5 1547/9/5 1550/9/5
f 1552/8/5 1549/8/5 1548/8/5
f 1553/8/5 1549/8/5 1552/8/5
f 1558/9/5 1555/9/5 1554/9/5
f 1559/9/5 1555/9/5 1558/9/5
f 1560/8/5 1557/8/5 1556/8/5
f 1561/8/5 1557/8/5 1560/8/5
f 1564/5/5 1563/5/5 1562/5/5
f 1565/5/5 1563/5/5 1564/5/5
f 1566/5/6 1567/5/6 1569/5/6
f 1569/5/6 1567/5/6 1570/5/6
f 1570/5/6 1567/5/6 1571/5/6
f 1568/5/6 1569/5/6 1573/5/6
f 1569/5/6 1570/5/6 1573/5/6
f 1573/5/6 1570/5/6 1574/5/6
f 1571/5/6 1572/5/6 1576/5/6
f 1568/5/6 1573/5/6 1577/5/6
f 1577/5/6 1573/5/6 1578/5/6
f 1575/5/6 1576/5/6 1579/5/6
f 1576/5/6 1572/5/6 1580/5/6
f 1579/5/6 1576/5/6 1580/5/6
f 1580/5/6 1572/5/6 1581/5/6
f 1578/5/6 1579/5/6 1582/5/6
f 1579/5/6 1580/5/6 1582/5/6
f 1582/5/6 1580/5/6 1583/5/6
f 1584/7/6 1585/7/6 1587/7/6
f 1587/7/6 1585/7/6 1588/7/6
f 1586/7/6 1587/7/6 1591/7/6
f 1591/7/6 1587/7/6 1592/7/6
f 1588/7/6 1589/7/6 1593/7/6
f 1593/7/6 1589/7/6 1594/7/6
f 1590/7/6 1591/7/6 1596/7/6
f 1596/7/6 1591/7/6 1597/7/6
f 1594/7/6 1595/7/6 1600/7/6
f 1600/7/6 1595/7/6 1601/7/6
f 1597/7/6 1598/7/6 1602/7/6
f 1602/7/6 1598/7/6 1603/7/6
f 1599/7/6 1600/7/6 1604/7/6
f 1604/7/6 1600/7/6 1605/7/6
f 1603/7/6 1604/7/6 1606/7/6
f 1606/7/6 1604/7/6 1607/7/6
f 1608/1/6 1609/1/6 1610/1/6
f 1610/1/6 1609/1/6 1611/1/6
f 1612/1/6 1613/1/6 1614/1/6
f 1614/1/6 1613/1/6 1615/1/6
f 1616/1/6 1617/1/6 1618/1/6
f 1618/1/6 1617/1/6 1619/1/6
f 1620/1/6 1621/1/6 1622/1/6
f 1622/1/6 1621/1/6 1623/1/6
f 1624/1/6 1625/1/6 1626/1/6
f 1626/1/6 1625/1/6 1627/1/6
f 1628/2/6 1629/2/6 1630/2/6
f 1630/2/6 1629/2/6 1631/2/6
f 1632/1/6 1633/1/6 1634/1/6
f 1634/1/6 1633/1/6 1635/1/6
f 1636/1/6 1637/1/6 1638/1/6
f 1638/1/6 1637/1/6 1639/1/6
f 1640/1/6 1641/1/6 1642/1/6
f 1642/1/6 1641/1/6 1643/1/6
f 1644/1/6 1645/1/6 1646/1/6
f 1646/1/6 1645/1/6 1647/1/6
f 1647/2/6 1648/2/6 1650/2/6
f 1650/2/6 1648/2/6 1651/2/6
f 1649/2/6 1650/2/6 1652/2/6
f 1652/2/6 1650/2/6 1653/2/6
f 1654/5/6 1655/5/6 1656/5/6
f 1656/5/6 1655/5/6 1657/5/6
f 1658/9/6 1659/9/6 1662/9/6
f 1662/9/6 1659/9/6 1663/9/6
f 1660/8/6 1661/8/6 1664/8/6
f 1664/8/6 1661/8/6 1665/8/6
f 1666/9/6 1667/9/6 1670/9/6
f 1670/9/6 1667/9/6 1671/9/6
f 1668/8/6 1669/8/6 1672/8/6
f 1672/8/6 1669/8/6 1673/8/6
f 1674/9/6 1675/9/6 1678/9/6
f 1678/9/6 1675/9/6 1679/9/6
f 1676/7/6 1677/7/6 1680/7/6
f 1680/7/6 1677/7/6 1681/7/6
f 1681/6/6 1682/6/6 1687/6/6
f 1687/6/6 1682/6/6 1688/6/6
f 1683/9/6 1684/9/6 1689/9/6
f 1689/9/6 1684/9/6 1690/9/6
f 1685/8/6 1686/8/6 1691/8/6
f 1691/8/6 1686/8/6 1692/8/6
f 1693/8/6 1694/8/6 1702/8/6
f 1702/8/6 1694/8/6 1703/8/6
f 1695/9/6 1696/9/6 1704/9/6
f 1704/9/6 1696/9/6 1705/9/6
f 1697/3/6 1698/3/6 1707/3/6
f 1707/3/6 1698/3/6 1708/3/6
f 1699/8/6 1700/8/6 1709/8/6
f 1700/7/6 1701/7/6 1710/7/6
f 1709/8/6 1700/8/6 1710/8/6
f 1710/7/6 1701/7/6 1711/7/6
f 1706/3/6 1707/3/6 1716/3/6
f 1716/3/6 1707/3/6 1717/3/6
f 1708/3/6 1709/3/6 1718/3/6
f 1718/3/6 1709/3/6 1719/3/6
f 1712/8/6 1713/8/6 1720/8/6
f 1720/8/6 1713/8/6 1721/8/6
f 1714/9/6 1715/9/6 1722/9/6
f 1722/9/6 1715/9/6 1723/9/6
f 1717/3/6 1718/3/6 1724/3/6
f 1724/3/6 1718/3/6 1725/3/6
f 1726/8/6 1727/8/6 1730/8/6
f 1730/8/6 1727/8/6 1731/8/6
f 1728/6/6 1729/6/6 1740/6/6
f 1740/6/6 1729/6/6 1741/6/6
f 1731/9/6 1732/9/6 1743/9/6
f 1732/4/6 1733/4/6 1744/4/6
f 1743/9/6 1732/9/6 1744/9/6
f 1744/4/6 1733/4/6 1745/4/6
f 1734/4/6 1735/4/6 1746/4/6
f 1746/4/6 1735/4/6 1747/4/6
f 1736/4/6 1737/4/6 1748/4/6
f 1748/4/6 1737/4/6 1749/4/6
f 1738/6/6 1739/6/6 1750/6/6
f 1750/6/6 1739/6/6 1751/6/6
f 1742/8/6 1743/8/6 1752/8/6
f 1752/8/6 1743/8/6 1753/8/6
f 1754/8/6 1755/8/6 1758/8/6
f 1758/8/6 1755/8/6 1759/8/6
f 1756/8/6 1757/8/6 1760/8/6
f 1760/8/6 1757/8/6 1761/8/6
f 1761/9/6 1762/9/6 1768/9/6
f 1768/9/6 1762/9/6 1769/9/6
f 1763/6/6 1764/6/6 1770/6/6
f 1770/6/6 1764/6/6 1771/6/6
f 1765/8/6 1766/8/6 1772/8/6
f 1772/8/6 1766/8/6 1773/8/6
f 1767/8/6 1768/8/6 1774/8/6
f 1774/8/6 1768/8/6 1775/8/6
f 1776/8/6 1777/8/6 1780/8/6
f 1780/8/6 1777/8/6 1781/8/6
f 1778/6/6 1779/6/6 1783/6/6
f 1783/6/6 1779/6/6 1784/6/6
f 1781/9/6 1782/9/6 1786/9/6
f 1786/9/6 1782/9/6 1787/9/6
f 1785/8/6 1786/8/6 1788/8/6
f 1788/8/6 1786/8/6 1789/8/6
f 1790/8/6 1791/8/6 1794/8/6
f 1794/8/6 1791/8/6 1795/8/6
f 1792/8/6 1793/8/6 1796/8/6
f 1796/8/6 1793/8/6 1797/8/6
f 1797/9/6 1798/9/6 1802/9/6
f 1802/9/6 1798/9/6 1803/9/6
f 1799/8/6 1800/8/6 1804/8/6
f 1804/8/6 1800/8/6 1805/8/6
f 1801/8/6 1802/8/6 1806/8/6
f 1806/8/6 1802/8/6 1807/8/6
f 1808/8/6 1809/8/6 1812/8/6
f 1812/8/6 1809/8/6 1813/8/6
f 1810/6/6 1811/6/6 1814/6/6
f 1814/6/6 1811/6/6 1815/6/6
f 1816/8/6 1817/8/6 1818/8/6
f 1818/8/6 1817/8/6 1819/8/6
f 1820/8/6 1821/8/6 1824/8/6
f 1824/8/6 1821/8/6 1825/8/6
f 1822/6/6 1823/6/6 1827/6/6
f 1827/6/6 1823/6/6 1828/6/6
f 1825/9/6 1826/9/6 1830/9/6
f 1830/9/6 1826/9/6 1831/9/6
f 1829/8/6 1830/8/6 1832/8/6
f 1832/8/6 1830/8/6 1833/8/6
f 1834/6/6 1835/6/6 1836/6/6
f 1836/6/6 1835/6/6 1837/6/6
f 1838/6/6 1839/6/6 1840/6/6
f 1840/6/6 1839/6/6 1841/6/6
