# MagicaVoxel @ Ephtracy

# group
o 

# material
mtllib weapon_sword_large.mtl
usemtl palette

# normals
vn -1 0 0
vn 1 0 0
vn 0 0 1
vn 0 0 -1
vn 0 -1 0
vn 0 1 0

# texcoords
vt 0.0410156 0.5
vt 0.177734 0.5
vt 0.966797 0.5
vt 0.970703 0.5
vt 0.974609 0.5

# verts
v -2.7 4.4 -0.6
v -2.7 4.4 -0.7
v -2.7 4.5 -0.6
v -2.7 4.5 -0.7
v -2.6 4.4 -0.5
v -2.6 4.4 -0.6
v -2.6 4.4 -0.7
v -2.6 4.4 -0.8
v -2.6 4.5 -0.5
v -2.6 4.5 -0.6
v -2.6 4.5 -0.7
v -2.6 4.5 -0.8
v -2.5 4.3 -0.6
v -2.5 4.3 -0.7
v -2.5 4.4 -0.6
v -2.5 4.4 -0.7
v -2.5 4.5 -0.6
v -2.5 4.5 -0.7
v -2.5 4.6 -0.6
v -2.5 4.6 -0.7
v -2.4 1.4 -0.6
v -2.4 1.4 -0.7
v -2.4 2.6 -0.6
v -2.4 2.6 -0.7
v -2.4 3.2 -0.6
v -2.4 3.2 -0.7
v -2.4 4.3 -0.5
v -2.4 4.3 -0.6
v -2.4 4.3 -0.7
v -2.4 4.3 -0.8
v -2.4 4.4 -0.5
v -2.4 4.4 -0.6
v -2.4 4.4 -0.7
v -2.4 4.4 -0.8
v -2.4 4.5 -0.5
v -2.4 4.5 -0.6
v -2.4 4.5 -0.7
v -2.4 4.5 -0.8
v -2.4 4.6 -0.5
v -2.4 4.6 -0.6
v -2.4 4.6 -0.7
v -2.4 4.6 -0.8
v -2.4 4.7 -0.6
v -2.4 4.7 -0.7
v -2.4 5 -0.6
v -2.4 5 -0.7
v -2.4 5.1 -0.6
v -2.4 5.1 -0.7
v -2.3 0.7 -0.6
v -2.3 0.7 -0.7
v -2.3 1.4 -0.5
v -2.3 1.4 -0.6
v -2.3 1.4 -0.7
v -2.3 1.4 -0.8
v -2.3 1.8 -0.5
v -2.3 1.8 -0.6
v -2.3 2.3 -0.7
v -2.3 2.3 -0.8
v -2.3 2.6 -0.6
v -2.3 2.6 -0.7
v -2.3 3.2 -0.6
v -2.3 3.2 -0.7
v -2.3 4.3 -0.5
v -2.3 4.3 -0.6
v -2.3 4.3 -0.7
v -2.3 4.3 -0.8
v -2.3 4.6 -0.5
v -2.3 4.6 -0.6
v -2.3 4.6 -0.7
v -2.3 4.6 -0.8
v -2.3 4.7 -0.5
v -2.3 4.7 -0.6
v -2.3 4.7 -0.7
v -2.3 4.7 -0.8
v -2.3 5 -0.5
v -2.3 5 -0.6
v -2.3 5 -0.7
v -2.3 5 -0.8
v -2.3 5.1 -0.5
v -2.3 5.1 -0.6
v -2.3 5.1 -0.7
v -2.3 5.1 -0.8
v -2.3 5.2 -0.6
v -2.3 5.2 -0.7
v -2.1 0.7 -0.6
v -2.1 0.7 -0.7
v -2.1 1.4 -0.5
v -2.1 1.4 -0.6
v -2.1 1.4 -0.7
v -2.1 1.4 -0.8
v -2.1 1.8 -0.5
v -2.1 1.8 -0.6
v -2.1 2.3 -0.7
v -2.1 2.3 -0.8
v -2.1 2.6 -0.6
v -2.1 2.6 -0.7
v -2.1 3.2 -0.6
v -2.1 3.2 -0.7
v -2.1 4.3 -0.5
v -2.1 4.3 -0.6
v -2.1 4.3 -0.7
v -2.1 4.3 -0.8
v -2.1 4.6 -0.5
v -2.1 4.6 -0.6
v -2.1 4.6 -0.7
v -2.1 4.6 -0.8
v -2.1 4.7 -0.5
v -2.1 4.7 -0.6
v -2.1 4.7 -0.7
v -2.1 4.7 -0.8
v -2.1 5 -0.5
v -2.1 5 -0.6
v -2.1 5 -0.7
v -2.1 5 -0.8
v -2.1 5.1 -0.5
v -2.1 5.1 -0.6
v -2.1 5.1 -0.7
v -2.1 5.1 -0.8
v -2.1 5.2 -0.6
v -2.1 5.2 -0.7
v -2 1.4 -0.6
v -2 1.4 -0.7
v -2 2.6 -0.6
v -2 2.6 -0.7
v -2 3.2 -0.6
v -2 3.2 -0.7
v -2 4.3 -0.5
v -2 4.3 -0.6
v -2 4.3 -0.7
v -2 4.3 -0.8
v -2 4.4 -0.5
v -2 4.4 -0.6
v -2 4.4 -0.7
v -2 4.4 -0.8
v -2 4.5 -0.5
v -2 4.5 -0.6
v -2 4.5 -0.7
v -2 4.5 -0.8
v -2 4.6 -0.5
v -2 4.6 -0.6
v -2 4.6 -0.7
v -2 4.6 -0.8
v -2 4.7 -0.6
v -2 4.7 -0.7
v -2 5 -0.6
v -2 5 -0.7
v -2 5.1 -0.6
v -2 5.1 -0.7
v -1.9 4.3 -0.6
v -1.9 4.3 -0.7
v -1.9 4.4 -0.6
v -1.9 4.4 -0.7
v -1.9 4.5 -0.6
v -1.9 4.5 -0.7
v -1.9 4.6 -0.6
v -1.9 4.6 -0.7
v -1.8 4.4 -0.5
v -1.8 4.4 -0.6
v -1.8 4.4 -0.7
v -1.8 4.4 -0.8
v -1.8 4.5 -0.5
v -1.8 4.5 -0.6
v -1.8 4.5 -0.7
v -1.8 4.5 -0.8
v -1.7 4.4 -0.6
v -1.7 4.4 -0.7
v -1.7 4.5 -0.6
v -1.7 4.5 -0.7
v -2.6 4.4 -0.5
v -2.6 4.5 -0.5
v -2.4 4.3 -0.5
v -2.4 4.4 -0.5
v -2.4 4.5 -0.5
v -2.4 4.6 -0.5
v -2.3 1.4 -0.5
v -2.3 1.8 -0.5
v -2.3 4.3 -0.5
v -2.3 4.6 -0.5
v -2.3 4.7 -0.5
v -2.3 5 -0.5
v -2.3 5.1 -0.5
v -2.1 1.4 -0.5
v -2.1 1.8 -0.5
v -2.1 4.3 -0.5
v -2.1 4.6 -0.5
v -2.1 4.7 -0.5
v -2.1 5 -0.5
v -2.1 5.1 -0.5
v -2 4.3 -0.5
v -2 4.4 -0.5
v -2 4.5 -0.5
v -2 4.6 -0.5
v -1.8 4.4 -0.5
v -1.8 4.5 -0.5
v -2.7 4.4 -0.6
v -2.7 4.5 -0.6
v -2.6 4.4 -0.6
v -2.6 4.5 -0.6
v -2.5 4.3 -0.6
v -2.5 4.4 -0.6
v -2.5 4.5 -0.6
v -2.5 4.6 -0.6
v -2.4 1.4 -0.6
v -2.4 2.6 -0.6
v -2.4 3.2 -0.6
v -2.4 4.3 -0.6
v -2.4 4.4 -0.6
v -2.4 4.5 -0.6
v -2.4 4.6 -0.6
v -2.4 4.7 -0.6
v -2.4 5 -0.6
v -2.4 5.1 -0.6
v -2.3 0.7 -0.6
v -2.3 1.4 -0.6
v -2.3 1.8 -0.6
v -2.3 2.6 -0.6
v -2.3 3.2 -0.6
v -2.3 4.3 -0.6
v -2.3 4.6 -0.6
v -2.3 4.7 -0.6
v -2.3 5 -0.6
v -2.3 5.1 -0.6
v -2.3 5.2 -0.6
v -2.1 0.7 -0.6
v -2.1 1.4 -0.6
v -2.1 1.8 -0.6
v -2.1 2.6 -0.6
v -2.1 3.2 -0.6
v -2.1 4.3 -0.6
v -2.1 4.6 -0.6
v -2.1 4.7 -0.6
v -2.1 5 -0.6
v -2.1 5.1 -0.6
v -2.1 5.2 -0.6
v -2 1.4 -0.6
v -2 2.6 -0.6
v -2 3.2 -0.6
v -2 4.3 -0.6
v -2 4.4 -0.6
v -2 4.5 -0.6
v -2 4.6 -0.6
v -2 4.7 -0.6
v -2 5 -0.6
v -2 5.1 -0.6
v -1.9 4.3 -0.6
v -1.9 4.4 -0.6
v -1.9 4.5 -0.6
v -1.9 4.6 -0.6
v -1.8 4.4 -0.6
v -1.8 4.5 -0.6
v -1.7 4.4 -0.6
v -1.7 4.5 -0.6
v -2.7 4.4 -0.7
v -2.7 4.5 -0.7
v -2.6 4.4 -0.7
v -2.6 4.5 -0.7
v -2.5 4.3 -0.7
v -2.5 4.4 -0.7
v -2.5 4.5 -0.7
v -2.5 4.6 -0.7
v -2.4 1.4 -0.7
v -2.4 2.6 -0.7
v -2.4 3.2 -0.7
v -2.4 4.3 -0.7
v -2.4 4.4 -0.7
v -2.4 4.5 -0.7
v -2.4 4.6 -0.7
v -2.4 4.7 -0.7
v -2.4 5 -0.7
v -2.4 5.1 -0.7
v -2.3 0.7 -0.7
v -2.3 1.4 -0.7
v -2.3 2.3 -0.7
v -2.3 2.6 -0.7
v -2.3 3.2 -0.7
v -2.3 4.3 -0.7
v -2.3 4.6 -0.7
v -2.3 4.7 -0.7
v -2.3 5 -0.7
v -2.3 5.1 -0.7
v -2.3 5.2 -0.7
v -2.1 0.7 -0.7
v -2.1 1.4 -0.7
v -2.1 2.3 -0.7
v -2.1 2.6 -0.7
v -2.1 3.2 -0.7
v -2.1 4.3 -0.7
v -2.1 4.6 -0.7
v -2.1 4.7 -0.7
v -2.1 5 -0.7
v -2.1 5.1 -0.7
v -2.1 5.2 -0.7
v -2 1.4 -0.7
v -2 2.6 -0.7
v -2 3.2 -0.7
v -2 4.3 -0.7
v -2 4.4 -0.7
v -2 4.5 -0.7
v -2 4.6 -0.7
v -2 4.7 -0.7
v -2 5 -0.7
v -2 5.1 -0.7
v -1.9 4.3 -0.7
v -1.9 4.4 -0.7
v -1.9 4.5 -0.7
v -1.9 4.6 -0.7
v -1.8 4.4 -0.7
v -1.8 4.5 -0.7
v -1.7 4.4 -0.7
v -1.7 4.5 -0.7
v -2.6 4.4 -0.8
v -2.6 4.5 -0.8
v -2.4 4.3 -0.8
v -2.4 4.4 -0.8
v -2.4 4.5 -0.8
v -2.4 4.6 -0.8
v -2.3 1.4 -0.8
v -2.3 2.3 -0.8
v -2.3 4.3 -0.8
v -2.3 4.6 -0.8
v -2.3 4.7 -0.8
v -2.3 5 -0.8
v -2.3 5.1 -0.8
v -2.1 1.4 -0.8
v -2.1 2.3 -0.8
v -2.1 4.3 -0.8
v -2.1 4.6 -0.8
v -2.1 4.7 -0.8
v -2.1 5 -0.8
v -2.1 5.1 -0.8
v -2 4.3 -0.8
v -2 4.4 -0.8
v -2 4.5 -0.8
v -2 4.6 -0.8
v -1.8 4.4 -0.8
v -1.8 4.5 -0.8
v -2.3 0.7 -0.6
v -2.1 0.7 -0.6
v -2.3 0.7 -0.7
v -2.1 0.7 -0.7
v -2.3 1.4 -0.5
v -2.1 1.4 -0.5
v -2.4 1.4 -0.6
v -2.3 1.4 -0.6
v -2.1 1.4 -0.6
v -2 1.4 -0.6
v -2.4 1.4 -0.7
v -2.3 1.4 -0.7
v -2.1 1.4 -0.7
v -2 1.4 -0.7
v -2.3 1.4 -0.8
v -2.1 1.4 -0.8
v -2.4 4.3 -0.5
v -2.3 4.3 -0.5
v -2.1 4.3 -0.5
v -2 4.3 -0.5
v -2.5 4.3 -0.6
v -2.4 4.3 -0.6
v -2.3 4.3 -0.6
v -2.1 4.3 -0.6
v -2 4.3 -0.6
v -1.9 4.3 -0.6
v -2.5 4.3 -0.7
v -2.4 4.3 -0.7
v -2.3 4.3 -0.7
v -2.1 4.3 -0.7
v -2 4.3 -0.7
v -1.9 4.3 -0.7
v -2.4 4.3 -0.8
v -2.3 4.3 -0.8
v -2.1 4.3 -0.8
v -2 4.3 -0.8
v -2.6 4.4 -0.5
v -2.4 4.4 -0.5
v -2 4.4 -0.5
v -1.8 4.4 -0.5
v -2.7 4.4 -0.6
v -2.6 4.4 -0.6
v -2.5 4.4 -0.6
v -2.4 4.4 -0.6
v -2 4.4 -0.6
v -1.9 4.4 -0.6
v -1.8 4.4 -0.6
v -1.7 4.4 -0.6
v -2.7 4.4 -0.7
v -2.6 4.4 -0.7
v -2.5 4.4 -0.7
v -2.4 4.4 -0.7
v -2 4.4 -0.7
v -1.9 4.4 -0.7
v -1.8 4.4 -0.7
v -1.7 4.4 -0.7
v -2.6 4.4 -0.8
v -2.4 4.4 -0.8
v -2 4.4 -0.8
v -1.8 4.4 -0.8
v -2.3 5 -0.5
v -2.1 5 -0.5
v -2.4 5 -0.6
v -2.3 5 -0.6
v -2.1 5 -0.6
v -2 5 -0.6
v -2.4 5 -0.7
v -2.3 5 -0.7
v -2.1 5 -0.7
v -2 5 -0.7
v -2.3 5 -0.8
v -2.1 5 -0.8
v -2.6 4.5 -0.5
v -2.4 4.5 -0.5
v -2 4.5 -0.5
v -1.8 4.5 -0.5
v -2.7 4.5 -0.6
v -2.6 4.5 -0.6
v -2.5 4.5 -0.6
v -2.4 4.5 -0.6
v -2 4.5 -0.6
v -1.9 4.5 -0.6
v -1.8 4.5 -0.6
v -1.7 4.5 -0.6
v -2.7 4.5 -0.7
v -2.6 4.5 -0.7
v -2.5 4.5 -0.7
v -2.4 4.5 -0.7
v -2 4.5 -0.7
v -1.9 4.5 -0.7
v -1.8 4.5 -0.7
v -1.7 4.5 -0.7
v -2.6 4.5 -0.8
v -2.4 4.5 -0.8
v -2 4.5 -0.8
v -1.8 4.5 -0.8
v -2.4 4.6 -0.5
v -2.3 4.6 -0.5
v -2.1 4.6 -0.5
v -2 4.6 -0.5
v -2.5 4.6 -0.6
v -2.4 4.6 -0.6
v -2.3 4.6 -0.6
v -2.1 4.6 -0.6
v -2 4.6 -0.6
v -1.9 4.6 -0.6
v -2.5 4.6 -0.7
v -2.4 4.6 -0.7
v -2.3 4.6 -0.7
v -2.1 4.6 -0.7
v -2 4.6 -0.7
v -1.9 4.6 -0.7
v -2.4 4.6 -0.8
v -2.3 4.6 -0.8
v -2.1 4.6 -0.8
v -2 4.6 -0.8
v -2.3 4.7 -0.5
v -2.1 4.7 -0.5
v -2.4 4.7 -0.6
v -2.3 4.7 -0.6
v -2.1 4.7 -0.6
v -2 4.7 -0.6
v -2.4 4.7 -0.7
v -2.3 4.7 -0.7
v -2.1 4.7 -0.7
v -2 4.7 -0.7
v -2.3 4.7 -0.8
v -2.1 4.7 -0.8
v -2.3 5.1 -0.5
v -2.1 5.1 -0.5
v -2.4 5.1 -0.6
v -2.3 5.1 -0.6
v -2.1 5.1 -0.6
v -2 5.1 -0.6
v -2.4 5.1 -0.7
v -2.3 5.1 -0.7
v -2.1 5.1 -0.7
v -2 5.1 -0.7
v -2.3 5.1 -0.8
v -2.1 5.1 -0.8
v -2.3 5.2 -0.6
v -2.1 5.2 -0.6
v -2.3 5.2 -0.7
v -2.1 5.2 -0.7

# faces
f 3/2/1 2/2/1 1/2/1
f 4/2/1 2/2/1 3/2/1
f 9/2/1 6/2/1 5/2/1
f 10/2/1 6/2/1 9/2/1
f 11/2/1 8/2/1 7/2/1
f 12/2/1 8/2/1 11/2/1
f 15/1/1 14/1/1 13/1/1
f 16/1/1 14/1/1 15/1/1
f 19/2/1 18/2/1 17/2/1
f 20/2/1 18/2/1 19/2/1
f 23/3/1 22/3/1 21/3/1
f 24/3/1 22/3/1 23/3/1
f 25/4/1 24/4/1 23/4/1
f 26/4/1 24/4/1 25/4/1
f 28/5/1 26/5/1 25/5/1
f 29/5/1 26/5/1 28/5/1
f 31/1/1 28/1/1 27/1/1
f 32/1/1 28/1/1 31/1/1
f 33/1/1 30/1/1 29/1/1
f 34/1/1 30/1/1 33/1/1
f 39/2/1 36/2/1 35/2/1
f 40/2/1 36/2/1 39/2/1
f 41/2/1 38/2/1 37/2/1
f 42/2/1 38/2/1 41/2/1
f 43/2/1 41/2/1 40/2/1
f 44/2/1 41/2/1 43/2/1
f 47/1/1 46/1/1 45/1/1
f 48/1/1 46/1/1 47/1/1
f 52/3/1 50/3/1 49/3/1
f 53/3/1 50/3/1 52/3/1
f 55/3/1 52/3/1 51/3/1
f 56/3/1 52/3/1 55/3/1
f 57/3/1 54/3/1 53/3/1
f 58/3/1 54/3/1 57/3/1
f 59/4/1 56/4/1 55/4/1
f 60/4/1 58/4/1 57/4/1
f 61/4/1 59/4/1 55/4/1
f 62/4/1 58/4/1 60/4/1
f 63/4/1 61/4/1 55/4/1
f 64/4/1 61/4/1 63/4/1
f 65/4/1 58/4/1 62/4/1
f 66/4/1 58/4/1 65/4/1
f 71/2/1 68/2/1 67/2/1
f 72/2/1 68/2/1 71/2/1
f 73/2/1 70/2/1 69/2/1
f 74/2/1 70/2/1 73/2/1
f 76/2/1 73/2/1 72/2/1
f 77/2/1 73/2/1 76/2/1
f 79/1/1 76/1/1 75/1/1
f 80/1/1 76/1/1 79/1/1
f 81/1/1 78/1/1 77/1/1
f 82/1/1 78/1/1 81/1/1
f 83/1/1 81/1/1 80/1/1
f 84/1/1 81/1/1 83/1/1
f 85/3/2 86/3/2 88/3/2
f 88/3/2 86/3/2 89/3/2
f 87/3/2 88/3/2 91/3/2
f 91/3/2 88/3/2 92/3/2
f 89/3/2 90/3/2 93/3/2
f 93/3/2 90/3/2 94/3/2
f 91/4/2 92/4/2 95/4/2
f 93/4/2 94/4/2 96/4/2
f 91/4/2 95/4/2 97/4/2
f 96/4/2 94/4/2 98/4/2
f 91/4/2 97/4/2 99/4/2
f 99/4/2 97/4/2 100/4/2
f 98/4/2 94/4/2 101/4/2
f 101/4/2 94/4/2 102/4/2
f 103/2/2 104/2/2 107/2/2
f 107/2/2 104/2/2 108/2/2
f 105/2/2 106/2/2 109/2/2
f 109/2/2 106/2/2 110/2/2
f 108/2/2 109/2/2 112/2/2
f 112/2/2 109/2/2 113/2/2
f 111/1/2 112/1/2 115/1/2
f 115/1/2 112/1/2 116/1/2
f 113/1/2 114/1/2 117/1/2
f 117/1/2 114/1/2 118/1/2
f 116/1/2 117/1/2 119/1/2
f 119/1/2 117/1/2 120/1/2
f 121/3/2 122/3/2 123/3/2
f 123/3/2 122/3/2 124/3/2
f 123/4/2 124/4/2 125/4/2
f 125/4/2 124/4/2 126/4/2
f 125/5/2 126/5/2 128/5/2
f 128/5/2 126/5/2 129/5/2
f 127/1/2 128/1/2 131/1/2
f 131/1/2 128/1/2 132/1/2
f 129/1/2 130/1/2 133/1/2
f 133/1/2 130/1/2 134/1/2
f 135/2/2 136/2/2 139/2/2
f 139/2/2 136/2/2 140/2/2
f 137/2/2 138/2/2 141/2/2
f 141/2/2 138/2/2 142/2/2
f 140/2/2 141/2/2 143/2/2
f 143/2/2 141/2/2 144/2/2
f 145/1/2 146/1/2 147/1/2
f 147/1/2 146/1/2 148/1/2
f 149/1/2 150/1/2 151/1/2
f 151/1/2 150/1/2 152/1/2
f 153/2/2 154/2/2 155/2/2
f 155/2/2 154/2/2 156/2/2
f 157/2/2 158/2/2 161/2/2
f 161/2/2 158/2/2 162/2/2
f 159/2/2 160/2/2 163/2/2
f 163/2/2 160/2/2 164/2/2
f 165/2/2 166/2/2 167/2/2
f 167/2/2 166/2/2 168/2/2
f 172/2/3 170/2/3 169/2/3
f 173/2/3 170/2/3 172/2/3
f 177/1/3 172/1/3 171/1/3
f 178/2/3 173/2/3 172/2/3
f 178/2/3 174/2/3 173/2/3
f 182/3/3 176/3/3 175/3/3
f 183/4/3 177/4/3 176/4/3
f 183/3/3 176/3/3 182/3/3
f 184/1/3 172/1/3 177/1/3
f 184/4/3 177/4/3 183/4/3
f 185/2/3 178/2/3 172/2/3
f 185/2/3 179/2/3 178/2/3
f 186/2/3 179/2/3 185/2/3
f 187/1/3 181/1/3 180/1/3
f 188/1/3 181/1/3 187/1/3
f 189/1/3 172/1/3 184/1/3
f 190/2/3 185/2/3 172/2/3
f 190/1/3 172/1/3 189/1/3
f 191/2/3 185/2/3 190/2/3
f 192/2/3 185/2/3 191/2/3
f 193/2/3 191/2/3 190/2/3
f 194/2/3 191/2/3 193/2/3
f 197/2/3 196/2/3 195/2/3
f 198/2/3 196/2/3 197/2/3
f 206/1/3 200/1/3 199/1/3
f 207/1/3 200/1/3 206/1/3
f 208/2/3 202/2/3 201/2/3
f 209/2/3 202/2/3 208/2/3
f 214/3/3 204/3/3 203/3/3
f 215/3/3 204/3/3 214/3/3
f 216/4/3 205/4/3 204/4/3
f 216/3/3 204/3/3 215/3/3
f 217/5/3 206/5/3 205/5/3
f 217/4/3 205/4/3 216/4/3
f 218/5/3 206/5/3 217/5/3
f 219/2/3 210/2/3 209/2/3
f 220/2/3 210/2/3 219/2/3
f 221/1/3 212/1/3 211/1/3
f 222/1/3 212/1/3 221/1/3
f 224/3/3 214/3/3 213/3/3
f 225/3/3 214/3/3 224/3/3
f 231/2/3 221/2/3 220/2/3
f 232/2/3 221/2/3 231/2/3
f 233/1/3 223/1/3 222/1/3
f 234/1/3 223/1/3 233/1/3
f 235/3/3 226/3/3 225/3/3
f 235/3/3 227/3/3 226/3/3
f 236/4/3 228/4/3 227/4/3
f 236/3/3 227/3/3 235/3/3
f 237/5/3 229/5/3 228/5/3
f 237/4/3 228/4/3 236/4/3
f 238/5/3 229/5/3 237/5/3
f 241/2/3 231/2/3 230/2/3
f 242/2/3 231/2/3 241/2/3
f 243/1/3 233/1/3 232/1/3
f 244/1/3 233/1/3 243/1/3
f 245/1/3 239/1/3 238/1/3
f 246/1/3 239/1/3 245/1/3
f 247/2/3 241/2/3 240/2/3
f 248/2/3 241/2/3 247/2/3
f 251/2/3 250/2/3 249/2/3
f 252/2/3 250/2/3 251/2/3
f 253/2/4 254/2/4 255/2/4
f 255/2/4 254/2/4 256/2/4
f 257/1/4 258/1/4 264/1/4
f 264/1/4 258/1/4 265/1/4
f 259/2/4 260/2/4 266/2/4
f 266/2/4 260/2/4 267/2/4
f 261/3/4 262/3/4 272/3/4
f 272/3/4 262/3/4 273/3/4
f 262/4/4 263/4/4 274/4/4
f 273/3/4 262/3/4 274/3/4
f 263/5/4 264/5/4 275/5/4
f 274/4/4 263/4/4 275/4/4
f 275/5/4 264/5/4 276/5/4
f 267/2/4 268/2/4 277/2/4
f 277/2/4 268/2/4 278/2/4
f 269/1/4 270/1/4 279/1/4
f 279/1/4 270/1/4 280/1/4
f 271/3/4 272/3/4 282/3/4
f 282/3/4 272/3/4 283/3/4
f 278/2/4 279/2/4 289/2/4
f 289/2/4 279/2/4 290/2/4
f 280/1/4 281/1/4 291/1/4
f 291/1/4 281/1/4 292/1/4
f 283/3/4 284/3/4 293/3/4
f 284/3/4 285/3/4 293/3/4
f 285/4/4 286/4/4 294/4/4
f 293/3/4 285/3/4 294/3/4
f 286/5/4 287/5/4 295/5/4
f 294/4/4 286/4/4 295/4/4
f 295/5/4 287/5/4 296/5/4
f 288/2/4 289/2/4 299/2/4
f 299/2/4 289/2/4 300/2/4
f 290/1/4 291/1/4 301/1/4
f 301/1/4 291/1/4 302/1/4
f 296/1/4 297/1/4 303/1/4
f 303/1/4 297/1/4 304/1/4
f 298/2/4 299/2/4 305/2/4
f 305/2/4 299/2/4 306/2/4
f 307/2/4 308/2/4 309/2/4
f 309/2/4 308/2/4 310/2/4
f 311/2/4 312/2/4 314/2/4
f 314/2/4 312/2/4 315/2/4
f 313/1/4 314/1/4 319/1/4
f 314/2/4 315/2/4 320/2/4
f 315/2/4 316/2/4 320/2/4
f 317/3/4 318/3/4 324/3/4
f 318/4/4 319/4/4 325/4/4
f 324/3/4 318/3/4 325/3/4
f 319/1/4 314/1/4 326/1/4
f 325/4/4 319/4/4 326/4/4
f 314/2/4 320/2/4 327/2/4
f 320/2/4 321/2/4 327/2/4
f 327/2/4 321/2/4 328/2/4
f 322/1/4 323/1/4 329/1/4
f 329/1/4 323/1/4 330/1/4
f 326/1/4 314/1/4 331/1/4
f 314/2/4 327/2/4 332/2/4
f 331/1/4 314/1/4 332/1/4
f 332/2/4 327/2/4 333/2/4
f 333/2/4 327/2/4 334/2/4
f 332/2/4 333/2/4 335/2/4
f 335/2/4 333/2/4 336/2/4
f 339/3/5 338/3/5 337/3/5
f 340/3/5 338/3/5 339/3/5
f 344/3/5 342/3/5 341/3/5
f 345/3/5 342/3/5 344/3/5
f 347/3/5 344/3/5 343/3/5
f 348/3/5 344/3/5 347/3/5
f 349/3/5 346/3/5 345/3/5
f 350/3/5 346/3/5 349/3/5
f 351/3/5 349/3/5 348/3/5
f 352/3/5 349/3/5 351/3/5
f 358/1/5 354/1/5 353/1/5
f 359/1/5 354/1/5 358/1/5
f 360/1/5 356/1/5 355/1/5
f 361/1/5 356/1/5 360/1/5
f 363/1/5 358/1/5 357/1/5
f 364/1/5 358/1/5 363/1/5
f 367/1/5 362/1/5 361/1/5
f 368/1/5 362/1/5 367/1/5
f 369/1/5 365/1/5 364/1/5
f 370/1/5 365/1/5 369/1/5
f 371/1/5 367/1/5 366/1/5
f 372/1/5 367/1/5 371/1/5
f 378/2/5 374/2/5 373/2/5
f 379/2/5 374/2/5 378/2/5
f 380/2/5 374/2/5 379/2/5
f 381/2/5 376/2/5 375/2/5
f 382/2/5 376/2/5 381/2/5
f 383/2/5 376/2/5 382/2/5
f 385/2/5 378/2/5 377/2/5
f 385/2/5 379/2/5 378/2/5
f 386/2/5 379/2/5 385/2/5
f 387/2/5 379/2/5 386/2/5
f 390/2/5 384/2/5 383/2/5
f 390/2/5 383/2/5 382/2/5
f 391/2/5 384/2/5 390/2/5
f 392/2/5 384/2/5 391/2/5
f 393/2/5 388/2/5 387/2/5
f 393/2/5 387/2/5 386/2/5
f 394/2/5 388/2/5 393/2/5
f 395/2/5 391/2/5 390/2/5
f 395/2/5 390/2/5 389/2/5
f 396/2/5 391/2/5 395/2/5
f 400/1/5 398/1/5 397/1/5
f 401/1/5 398/1/5 400/1/5
f 403/1/5 400/1/5 399/1/5
f 404/1/5 400/1/5 403/1/5
f 405/1/5 402/1/5 401/1/5
f 406/1/5 402/1/5 405/1/5
f 407/1/5 405/1/5 404/1/5
f 408/1/5 405/1/5 407/1/5
f 409/2/6 410/2/6 414/2/6
f 414/2/6 410/2/6 415/2/6
f 415/2/6 410/2/6 416/2/6
f 411/2/6 412/2/6 417/2/6
f 417/2/6 412/2/6 418/2/6
f 418/2/6 412/2/6 419/2/6
f 413/2/6 414/2/6 421/2/6
f 414/2/6 415/2/6 421/2/6
f 421/2/6 415/2/6 422/2/6
f 422/2/6 415/2/6 423/2/6
f 419/2/6 420/2/6 426/2/6
f 418/2/6 419/2/6 426/2/6
f 426/2/6 420/2/6 427/2/6
f 427/2/6 420/2/6 428/2/6
f 423/2/6 424/2/6 429/2/6
f 422/2/6 423/2/6 429/2/6
f 429/2/6 424/2/6 430/2/6
f 426/2/6 427/2/6 431/2/6
f 425/2/6 426/2/6 431/2/6
f 431/2/6 427/2/6 432/2/6
f 433/2/6 434/2/6 438/2/6
f 438/2/6 434/2/6 439/2/6
f 435/2/6 436/2/6 440/2/6
f 440/2/6 436/2/6 441/2/6
f 437/2/6 438/2/6 443/2/6
f 443/2/6 438/2/6 444/2/6
f 441/2/6 442/2/6 447/2/6
f 447/2/6 442/2/6 448/2/6
f 444/2/6 445/2/6 449/2/6
f 449/2/6 445/2/6 450/2/6
f 446/2/6 447/2/6 451/2/6
f 451/2/6 447/2/6 452/2/6
f 453/2/6 454/2/6 456/2/6
f 456/2/6 454/2/6 457/2/6
f 455/2/6 456/2/6 459/2/6
f 459/2/6 456/2/6 460/2/6
f 457/2/6 458/2/6 461/2/6
f 461/2/6 458/2/6 462/2/6
f 460/2/6 461/2/6 463/2/6
f 463/2/6 461/2/6 464/2/6
f 465/1/6 466/1/6 468/1/6
f 468/1/6 466/1/6 469/1/6
f 467/1/6 468/1/6 471/1/6
f 471/1/6 468/1/6 472/1/6
f 469/1/6 470/1/6 473/1/6
f 473/1/6 470/1/6 474/1/6
f 472/1/6 473/1/6 475/1/6
f 475/1/6 473/1/6 476/1/6
f 477/1/6 478/1/6 479/1/6
f 479/1/6 478/1/6 480/1/6
